%TF.GenerationSoftware,KiCad,Pcbnew,(5.1.6)-1*%
%TF.CreationDate,2020-09-06T17:04:42-07:00*%
%TF.ProjectId,frontendtest,66726f6e-7465-46e6-9474-6573742e6b69,rev?*%
%TF.SameCoordinates,Original*%
%TF.FileFunction,Paste,Top*%
%TF.FilePolarity,Positive*%
%FSLAX46Y46*%
G04 Gerber Fmt 4.6, Leading zero omitted, Abs format (unit mm)*
G04 Created by KiCad (PCBNEW (5.1.6)-1) date 2020-09-06 17:04:42*
%MOMM*%
%LPD*%
G01*
G04 APERTURE LIST*
%ADD10R,0.600000X2.200000*%
%ADD11R,2.000000X1.300000*%
%ADD12R,2.000000X2.000000*%
%ADD13R,1.300000X2.000000*%
G04 APERTURE END LIST*
%TO.C,R1*%
G36*
G01*
X94646000Y-113789750D02*
X94646000Y-114302250D01*
G75*
G02*
X94427250Y-114521000I-218750J0D01*
G01*
X93989750Y-114521000D01*
G75*
G02*
X93771000Y-114302250I0J218750D01*
G01*
X93771000Y-113789750D01*
G75*
G02*
X93989750Y-113571000I218750J0D01*
G01*
X94427250Y-113571000D01*
G75*
G02*
X94646000Y-113789750I0J-218750D01*
G01*
G37*
G36*
G01*
X96221000Y-113789750D02*
X96221000Y-114302250D01*
G75*
G02*
X96002250Y-114521000I-218750J0D01*
G01*
X95564750Y-114521000D01*
G75*
G02*
X95346000Y-114302250I0J218750D01*
G01*
X95346000Y-113789750D01*
G75*
G02*
X95564750Y-113571000I218750J0D01*
G01*
X96002250Y-113571000D01*
G75*
G02*
X96221000Y-113789750I0J-218750D01*
G01*
G37*
%TD*%
%TO.C,C1*%
G36*
G01*
X79504250Y-112426000D02*
X78991750Y-112426000D01*
G75*
G02*
X78773000Y-112207250I0J218750D01*
G01*
X78773000Y-111769750D01*
G75*
G02*
X78991750Y-111551000I218750J0D01*
G01*
X79504250Y-111551000D01*
G75*
G02*
X79723000Y-111769750I0J-218750D01*
G01*
X79723000Y-112207250D01*
G75*
G02*
X79504250Y-112426000I-218750J0D01*
G01*
G37*
G36*
G01*
X79504250Y-114001000D02*
X78991750Y-114001000D01*
G75*
G02*
X78773000Y-113782250I0J218750D01*
G01*
X78773000Y-113344750D01*
G75*
G02*
X78991750Y-113126000I218750J0D01*
G01*
X79504250Y-113126000D01*
G75*
G02*
X79723000Y-113344750I0J-218750D01*
G01*
X79723000Y-113782250D01*
G75*
G02*
X79504250Y-114001000I-218750J0D01*
G01*
G37*
%TD*%
D10*
%TO.C,U2*%
X92075000Y-121445000D03*
X92075000Y-116045000D03*
X90805000Y-121445000D03*
X90805000Y-116045000D03*
X89535000Y-121445000D03*
X89535000Y-116045000D03*
X88265000Y-121445000D03*
X88265000Y-116045000D03*
%TD*%
%TO.C,U1*%
X85725000Y-121445000D03*
X85725000Y-116045000D03*
X84455000Y-121445000D03*
X84455000Y-116045000D03*
X83185000Y-121445000D03*
X83185000Y-116045000D03*
X81915000Y-121445000D03*
X81915000Y-116045000D03*
%TD*%
D11*
%TO.C,1M1*%
X85566000Y-110610000D03*
D12*
X81566000Y-111760000D03*
D11*
X85566000Y-112910000D03*
%TD*%
D13*
%TO.C,100k1*%
X97035000Y-120110000D03*
D12*
X95885000Y-116110000D03*
D13*
X94735000Y-120110000D03*
%TD*%
M02*
