%TF.GenerationSoftware,KiCad,Pcbnew,(5.1.6)-1*%
%TF.CreationDate,2020-09-06T17:04:42-07:00*%
%TF.ProjectId,frontendtest,66726f6e-7465-46e6-9474-6573742e6b69,rev?*%
%TF.SameCoordinates,Original*%
%TF.FileFunction,Copper,L4,Bot*%
%TF.FilePolarity,Positive*%
%FSLAX46Y46*%
G04 Gerber Fmt 4.6, Leading zero omitted, Abs format (unit mm)*
G04 Created by KiCad (PCBNEW (5.1.6)-1) date 2020-09-06 17:04:42*
%MOMM*%
%LPD*%
G01*
G04 APERTURE LIST*
%TA.AperFunction,ComponentPad*%
%ADD10C,2.250000*%
%TD*%
%TA.AperFunction,ComponentPad*%
%ADD11C,2.050000*%
%TD*%
%TA.AperFunction,ComponentPad*%
%ADD12O,1.700000X1.700000*%
%TD*%
%TA.AperFunction,ComponentPad*%
%ADD13R,1.700000X1.700000*%
%TD*%
%TA.AperFunction,ViaPad*%
%ADD14C,0.800000*%
%TD*%
%TA.AperFunction,Conductor*%
%ADD15C,0.254000*%
%TD*%
G04 APERTURE END LIST*
D10*
%TO.P,J5,2*%
%TO.N,GND*%
X82550000Y-130048000D03*
X82550000Y-124968000D03*
X87630000Y-124968000D03*
X87630000Y-130048000D03*
D11*
%TO.P,J5,1*%
%TO.N,Net-(1M1-Pad1)*%
X85090000Y-127508000D03*
%TD*%
D12*
%TO.P,J2,2*%
%TO.N,GND*%
X95885000Y-111125000D03*
D13*
%TO.P,J2,1*%
%TO.N,+10V*%
X93345000Y-111125000D03*
%TD*%
D10*
%TO.P,J4,2*%
%TO.N,GND*%
X91440000Y-130048000D03*
X91440000Y-124968000D03*
X96520000Y-124968000D03*
X96520000Y-130048000D03*
D11*
%TO.P,J4,1*%
%TO.N,Net-(100k1-Pad1)*%
X93980000Y-127508000D03*
%TD*%
D10*
%TO.P,J3,2*%
%TO.N,GND*%
X73660000Y-130048000D03*
X73660000Y-124968000D03*
X78740000Y-124968000D03*
X78740000Y-130048000D03*
D11*
%TO.P,J3,1*%
%TO.N,Net-(J3-Pad1)*%
X76200000Y-127508000D03*
%TD*%
D10*
%TO.P,J1,2*%
%TO.N,GND*%
X73660000Y-121285000D03*
X73660000Y-116205000D03*
X78740000Y-116205000D03*
X78740000Y-121285000D03*
D11*
%TO.P,J1,1*%
%TO.N,Net-(1M1-Pad2)*%
X76200000Y-118745000D03*
%TD*%
D14*
%TO.N,GND*%
X91948000Y-119380000D03*
%TO.N,+10V*%
X84328000Y-117856000D03*
X90932000Y-118364000D03*
%TD*%
D15*
%TO.N,Net-(J3-Pad1)*%
G36*
X98400001Y-131420000D02*
G01*
X97634573Y-131420000D01*
X97641935Y-131415081D01*
X97887081Y-131169935D01*
X98079692Y-130881673D01*
X98212364Y-130561373D01*
X98280000Y-130221345D01*
X98280000Y-129874655D01*
X98212364Y-129534627D01*
X98079692Y-129214327D01*
X97887081Y-128926065D01*
X97641935Y-128680919D01*
X97353673Y-128488308D01*
X97033373Y-128355636D01*
X96693345Y-128288000D01*
X96346655Y-128288000D01*
X96006627Y-128355636D01*
X95686327Y-128488308D01*
X95398065Y-128680919D01*
X95152919Y-128926065D01*
X94960308Y-129214327D01*
X94827636Y-129534627D01*
X94760000Y-129874655D01*
X94760000Y-130221345D01*
X94827636Y-130561373D01*
X94960308Y-130881673D01*
X95152919Y-131169935D01*
X95398065Y-131415081D01*
X95405427Y-131420000D01*
X92554573Y-131420000D01*
X92561935Y-131415081D01*
X92807081Y-131169935D01*
X92999692Y-130881673D01*
X93132364Y-130561373D01*
X93200000Y-130221345D01*
X93200000Y-129874655D01*
X93132364Y-129534627D01*
X92999692Y-129214327D01*
X92807081Y-128926065D01*
X92561935Y-128680919D01*
X92273673Y-128488308D01*
X91953373Y-128355636D01*
X91613345Y-128288000D01*
X91266655Y-128288000D01*
X90926627Y-128355636D01*
X90606327Y-128488308D01*
X90318065Y-128680919D01*
X90072919Y-128926065D01*
X89880308Y-129214327D01*
X89747636Y-129534627D01*
X89680000Y-129874655D01*
X89680000Y-130221345D01*
X89747636Y-130561373D01*
X89880308Y-130881673D01*
X90072919Y-131169935D01*
X90318065Y-131415081D01*
X90325427Y-131420000D01*
X88744573Y-131420000D01*
X88751935Y-131415081D01*
X88997081Y-131169935D01*
X89189692Y-130881673D01*
X89322364Y-130561373D01*
X89390000Y-130221345D01*
X89390000Y-129874655D01*
X89322364Y-129534627D01*
X89189692Y-129214327D01*
X88997081Y-128926065D01*
X88751935Y-128680919D01*
X88463673Y-128488308D01*
X88143373Y-128355636D01*
X87803345Y-128288000D01*
X87456655Y-128288000D01*
X87116627Y-128355636D01*
X86796327Y-128488308D01*
X86508065Y-128680919D01*
X86262919Y-128926065D01*
X86070308Y-129214327D01*
X85937636Y-129534627D01*
X85870000Y-129874655D01*
X85870000Y-130221345D01*
X85937636Y-130561373D01*
X86070308Y-130881673D01*
X86262919Y-131169935D01*
X86508065Y-131415081D01*
X86515427Y-131420000D01*
X83664573Y-131420000D01*
X83671935Y-131415081D01*
X83917081Y-131169935D01*
X84109692Y-130881673D01*
X84242364Y-130561373D01*
X84310000Y-130221345D01*
X84310000Y-129874655D01*
X84242364Y-129534627D01*
X84109692Y-129214327D01*
X83917081Y-128926065D01*
X83671935Y-128680919D01*
X83383673Y-128488308D01*
X83063373Y-128355636D01*
X82723345Y-128288000D01*
X82376655Y-128288000D01*
X82036627Y-128355636D01*
X81716327Y-128488308D01*
X81428065Y-128680919D01*
X81182919Y-128926065D01*
X80990308Y-129214327D01*
X80857636Y-129534627D01*
X80790000Y-129874655D01*
X80790000Y-130221345D01*
X80857636Y-130561373D01*
X80990308Y-130881673D01*
X81182919Y-131169935D01*
X81428065Y-131415081D01*
X81435427Y-131420000D01*
X79854573Y-131420000D01*
X79861935Y-131415081D01*
X80107081Y-131169935D01*
X80299692Y-130881673D01*
X80432364Y-130561373D01*
X80500000Y-130221345D01*
X80500000Y-129874655D01*
X80432364Y-129534627D01*
X80299692Y-129214327D01*
X80107081Y-128926065D01*
X79861935Y-128680919D01*
X79573673Y-128488308D01*
X79253373Y-128355636D01*
X78913345Y-128288000D01*
X78566655Y-128288000D01*
X78226627Y-128355636D01*
X77906327Y-128488308D01*
X77618065Y-128680919D01*
X77372919Y-128926065D01*
X77180308Y-129214327D01*
X77047636Y-129534627D01*
X76980000Y-129874655D01*
X76980000Y-130221345D01*
X77047636Y-130561373D01*
X77180308Y-130881673D01*
X77372919Y-131169935D01*
X77618065Y-131415081D01*
X77625427Y-131420000D01*
X74774573Y-131420000D01*
X74781935Y-131415081D01*
X75027081Y-131169935D01*
X75219692Y-130881673D01*
X75352364Y-130561373D01*
X75420000Y-130221345D01*
X75420000Y-129874655D01*
X75352364Y-129534627D01*
X75219692Y-129214327D01*
X75027081Y-128926065D01*
X74781935Y-128680919D01*
X74752485Y-128661241D01*
X75226364Y-128661241D01*
X75325147Y-128928198D01*
X75619024Y-129071584D01*
X75935227Y-129154884D01*
X76261606Y-129174894D01*
X76585617Y-129130846D01*
X76894809Y-129024434D01*
X77074853Y-128928198D01*
X77173636Y-128661241D01*
X76200000Y-127687605D01*
X75226364Y-128661241D01*
X74752485Y-128661241D01*
X74493673Y-128488308D01*
X74173373Y-128355636D01*
X73833345Y-128288000D01*
X73486655Y-128288000D01*
X73146627Y-128355636D01*
X72826327Y-128488308D01*
X72538065Y-128680919D01*
X72292919Y-128926065D01*
X72288000Y-128933427D01*
X72288000Y-127569606D01*
X74533106Y-127569606D01*
X74577154Y-127893617D01*
X74683566Y-128202809D01*
X74779802Y-128382853D01*
X75046759Y-128481636D01*
X76020395Y-127508000D01*
X76379605Y-127508000D01*
X77353241Y-128481636D01*
X77620198Y-128382853D01*
X77763584Y-128088976D01*
X77846884Y-127772773D01*
X77866894Y-127446394D01*
X77853043Y-127344504D01*
X83430000Y-127344504D01*
X83430000Y-127671496D01*
X83493793Y-127992204D01*
X83618927Y-128294305D01*
X83800594Y-128566188D01*
X84031812Y-128797406D01*
X84303695Y-128979073D01*
X84605796Y-129104207D01*
X84926504Y-129168000D01*
X85253496Y-129168000D01*
X85574204Y-129104207D01*
X85876305Y-128979073D01*
X86148188Y-128797406D01*
X86379406Y-128566188D01*
X86561073Y-128294305D01*
X86686207Y-127992204D01*
X86750000Y-127671496D01*
X86750000Y-127344504D01*
X92320000Y-127344504D01*
X92320000Y-127671496D01*
X92383793Y-127992204D01*
X92508927Y-128294305D01*
X92690594Y-128566188D01*
X92921812Y-128797406D01*
X93193695Y-128979073D01*
X93495796Y-129104207D01*
X93816504Y-129168000D01*
X94143496Y-129168000D01*
X94464204Y-129104207D01*
X94766305Y-128979073D01*
X95038188Y-128797406D01*
X95269406Y-128566188D01*
X95451073Y-128294305D01*
X95576207Y-127992204D01*
X95640000Y-127671496D01*
X95640000Y-127344504D01*
X95576207Y-127023796D01*
X95451073Y-126721695D01*
X95269406Y-126449812D01*
X95038188Y-126218594D01*
X94766305Y-126036927D01*
X94464204Y-125911793D01*
X94143496Y-125848000D01*
X93816504Y-125848000D01*
X93495796Y-125911793D01*
X93193695Y-126036927D01*
X92921812Y-126218594D01*
X92690594Y-126449812D01*
X92508927Y-126721695D01*
X92383793Y-127023796D01*
X92320000Y-127344504D01*
X86750000Y-127344504D01*
X86686207Y-127023796D01*
X86561073Y-126721695D01*
X86379406Y-126449812D01*
X86148188Y-126218594D01*
X85876305Y-126036927D01*
X85574204Y-125911793D01*
X85253496Y-125848000D01*
X84926504Y-125848000D01*
X84605796Y-125911793D01*
X84303695Y-126036927D01*
X84031812Y-126218594D01*
X83800594Y-126449812D01*
X83618927Y-126721695D01*
X83493793Y-127023796D01*
X83430000Y-127344504D01*
X77853043Y-127344504D01*
X77822846Y-127122383D01*
X77716434Y-126813191D01*
X77620198Y-126633147D01*
X77353241Y-126534364D01*
X76379605Y-127508000D01*
X76020395Y-127508000D01*
X75046759Y-126534364D01*
X74779802Y-126633147D01*
X74636416Y-126927024D01*
X74553116Y-127243227D01*
X74533106Y-127569606D01*
X72288000Y-127569606D01*
X72288000Y-126082573D01*
X72292919Y-126089935D01*
X72538065Y-126335081D01*
X72826327Y-126527692D01*
X73146627Y-126660364D01*
X73486655Y-126728000D01*
X73833345Y-126728000D01*
X74173373Y-126660364D01*
X74493673Y-126527692D01*
X74752484Y-126354759D01*
X75226364Y-126354759D01*
X76200000Y-127328395D01*
X77173636Y-126354759D01*
X77074853Y-126087802D01*
X76780976Y-125944416D01*
X76464773Y-125861116D01*
X76138394Y-125841106D01*
X75814383Y-125885154D01*
X75505191Y-125991566D01*
X75325147Y-126087802D01*
X75226364Y-126354759D01*
X74752484Y-126354759D01*
X74781935Y-126335081D01*
X75027081Y-126089935D01*
X75219692Y-125801673D01*
X75352364Y-125481373D01*
X75420000Y-125141345D01*
X75420000Y-124794655D01*
X76980000Y-124794655D01*
X76980000Y-125141345D01*
X77047636Y-125481373D01*
X77180308Y-125801673D01*
X77372919Y-126089935D01*
X77618065Y-126335081D01*
X77906327Y-126527692D01*
X78226627Y-126660364D01*
X78566655Y-126728000D01*
X78913345Y-126728000D01*
X79253373Y-126660364D01*
X79573673Y-126527692D01*
X79861935Y-126335081D01*
X80107081Y-126089935D01*
X80299692Y-125801673D01*
X80432364Y-125481373D01*
X80500000Y-125141345D01*
X80500000Y-124794655D01*
X80790000Y-124794655D01*
X80790000Y-125141345D01*
X80857636Y-125481373D01*
X80990308Y-125801673D01*
X81182919Y-126089935D01*
X81428065Y-126335081D01*
X81716327Y-126527692D01*
X82036627Y-126660364D01*
X82376655Y-126728000D01*
X82723345Y-126728000D01*
X83063373Y-126660364D01*
X83383673Y-126527692D01*
X83671935Y-126335081D01*
X83917081Y-126089935D01*
X84109692Y-125801673D01*
X84242364Y-125481373D01*
X84310000Y-125141345D01*
X84310000Y-124794655D01*
X85870000Y-124794655D01*
X85870000Y-125141345D01*
X85937636Y-125481373D01*
X86070308Y-125801673D01*
X86262919Y-126089935D01*
X86508065Y-126335081D01*
X86796327Y-126527692D01*
X87116627Y-126660364D01*
X87456655Y-126728000D01*
X87803345Y-126728000D01*
X88143373Y-126660364D01*
X88463673Y-126527692D01*
X88751935Y-126335081D01*
X88997081Y-126089935D01*
X89189692Y-125801673D01*
X89322364Y-125481373D01*
X89390000Y-125141345D01*
X89390000Y-124794655D01*
X89680000Y-124794655D01*
X89680000Y-125141345D01*
X89747636Y-125481373D01*
X89880308Y-125801673D01*
X90072919Y-126089935D01*
X90318065Y-126335081D01*
X90606327Y-126527692D01*
X90926627Y-126660364D01*
X91266655Y-126728000D01*
X91613345Y-126728000D01*
X91953373Y-126660364D01*
X92273673Y-126527692D01*
X92561935Y-126335081D01*
X92807081Y-126089935D01*
X92999692Y-125801673D01*
X93132364Y-125481373D01*
X93200000Y-125141345D01*
X93200000Y-124794655D01*
X94760000Y-124794655D01*
X94760000Y-125141345D01*
X94827636Y-125481373D01*
X94960308Y-125801673D01*
X95152919Y-126089935D01*
X95398065Y-126335081D01*
X95686327Y-126527692D01*
X96006627Y-126660364D01*
X96346655Y-126728000D01*
X96693345Y-126728000D01*
X97033373Y-126660364D01*
X97353673Y-126527692D01*
X97641935Y-126335081D01*
X97887081Y-126089935D01*
X98079692Y-125801673D01*
X98212364Y-125481373D01*
X98280000Y-125141345D01*
X98280000Y-124794655D01*
X98212364Y-124454627D01*
X98079692Y-124134327D01*
X97887081Y-123846065D01*
X97641935Y-123600919D01*
X97353673Y-123408308D01*
X97033373Y-123275636D01*
X96693345Y-123208000D01*
X96346655Y-123208000D01*
X96006627Y-123275636D01*
X95686327Y-123408308D01*
X95398065Y-123600919D01*
X95152919Y-123846065D01*
X94960308Y-124134327D01*
X94827636Y-124454627D01*
X94760000Y-124794655D01*
X93200000Y-124794655D01*
X93132364Y-124454627D01*
X92999692Y-124134327D01*
X92807081Y-123846065D01*
X92561935Y-123600919D01*
X92273673Y-123408308D01*
X91953373Y-123275636D01*
X91613345Y-123208000D01*
X91266655Y-123208000D01*
X90926627Y-123275636D01*
X90606327Y-123408308D01*
X90318065Y-123600919D01*
X90072919Y-123846065D01*
X89880308Y-124134327D01*
X89747636Y-124454627D01*
X89680000Y-124794655D01*
X89390000Y-124794655D01*
X89322364Y-124454627D01*
X89189692Y-124134327D01*
X88997081Y-123846065D01*
X88751935Y-123600919D01*
X88463673Y-123408308D01*
X88143373Y-123275636D01*
X87803345Y-123208000D01*
X87456655Y-123208000D01*
X87116627Y-123275636D01*
X86796327Y-123408308D01*
X86508065Y-123600919D01*
X86262919Y-123846065D01*
X86070308Y-124134327D01*
X85937636Y-124454627D01*
X85870000Y-124794655D01*
X84310000Y-124794655D01*
X84242364Y-124454627D01*
X84109692Y-124134327D01*
X83917081Y-123846065D01*
X83671935Y-123600919D01*
X83383673Y-123408308D01*
X83063373Y-123275636D01*
X82723345Y-123208000D01*
X82376655Y-123208000D01*
X82036627Y-123275636D01*
X81716327Y-123408308D01*
X81428065Y-123600919D01*
X81182919Y-123846065D01*
X80990308Y-124134327D01*
X80857636Y-124454627D01*
X80790000Y-124794655D01*
X80500000Y-124794655D01*
X80432364Y-124454627D01*
X80299692Y-124134327D01*
X80107081Y-123846065D01*
X79861935Y-123600919D01*
X79573673Y-123408308D01*
X79253373Y-123275636D01*
X78913345Y-123208000D01*
X78566655Y-123208000D01*
X78226627Y-123275636D01*
X77906327Y-123408308D01*
X77618065Y-123600919D01*
X77372919Y-123846065D01*
X77180308Y-124134327D01*
X77047636Y-124454627D01*
X76980000Y-124794655D01*
X75420000Y-124794655D01*
X75352364Y-124454627D01*
X75219692Y-124134327D01*
X75027081Y-123846065D01*
X74781935Y-123600919D01*
X74493673Y-123408308D01*
X74173373Y-123275636D01*
X73833345Y-123208000D01*
X73486655Y-123208000D01*
X73146627Y-123275636D01*
X72826327Y-123408308D01*
X72538065Y-123600919D01*
X72292919Y-123846065D01*
X72288000Y-123853427D01*
X72288000Y-122399573D01*
X72292919Y-122406935D01*
X72538065Y-122652081D01*
X72826327Y-122844692D01*
X73146627Y-122977364D01*
X73486655Y-123045000D01*
X73833345Y-123045000D01*
X74173373Y-122977364D01*
X74493673Y-122844692D01*
X74781935Y-122652081D01*
X75027081Y-122406935D01*
X75219692Y-122118673D01*
X75352364Y-121798373D01*
X75420000Y-121458345D01*
X75420000Y-121111655D01*
X76980000Y-121111655D01*
X76980000Y-121458345D01*
X77047636Y-121798373D01*
X77180308Y-122118673D01*
X77372919Y-122406935D01*
X77618065Y-122652081D01*
X77906327Y-122844692D01*
X78226627Y-122977364D01*
X78566655Y-123045000D01*
X78913345Y-123045000D01*
X79253373Y-122977364D01*
X79573673Y-122844692D01*
X79861935Y-122652081D01*
X80107081Y-122406935D01*
X80299692Y-122118673D01*
X80432364Y-121798373D01*
X80500000Y-121458345D01*
X80500000Y-121111655D01*
X80432364Y-120771627D01*
X80299692Y-120451327D01*
X80107081Y-120163065D01*
X79861935Y-119917919D01*
X79573673Y-119725308D01*
X79253373Y-119592636D01*
X78913345Y-119525000D01*
X78566655Y-119525000D01*
X78226627Y-119592636D01*
X77906327Y-119725308D01*
X77618065Y-119917919D01*
X77372919Y-120163065D01*
X77180308Y-120451327D01*
X77047636Y-120771627D01*
X76980000Y-121111655D01*
X75420000Y-121111655D01*
X75352364Y-120771627D01*
X75219692Y-120451327D01*
X75027081Y-120163065D01*
X74781935Y-119917919D01*
X74493673Y-119725308D01*
X74173373Y-119592636D01*
X73833345Y-119525000D01*
X73486655Y-119525000D01*
X73146627Y-119592636D01*
X72826327Y-119725308D01*
X72538065Y-119917919D01*
X72292919Y-120163065D01*
X72288000Y-120170427D01*
X72288000Y-118581504D01*
X74540000Y-118581504D01*
X74540000Y-118908496D01*
X74603793Y-119229204D01*
X74728927Y-119531305D01*
X74910594Y-119803188D01*
X75141812Y-120034406D01*
X75413695Y-120216073D01*
X75715796Y-120341207D01*
X76036504Y-120405000D01*
X76363496Y-120405000D01*
X76684204Y-120341207D01*
X76986305Y-120216073D01*
X77258188Y-120034406D01*
X77489406Y-119803188D01*
X77671073Y-119531305D01*
X77796207Y-119229204D01*
X77860000Y-118908496D01*
X77860000Y-118581504D01*
X77796207Y-118260796D01*
X77671073Y-117958695D01*
X77489406Y-117686812D01*
X77258188Y-117455594D01*
X76986305Y-117273927D01*
X76684204Y-117148793D01*
X76363496Y-117085000D01*
X76036504Y-117085000D01*
X75715796Y-117148793D01*
X75413695Y-117273927D01*
X75141812Y-117455594D01*
X74910594Y-117686812D01*
X74728927Y-117958695D01*
X74603793Y-118260796D01*
X74540000Y-118581504D01*
X72288000Y-118581504D01*
X72288000Y-117319573D01*
X72292919Y-117326935D01*
X72538065Y-117572081D01*
X72826327Y-117764692D01*
X73146627Y-117897364D01*
X73486655Y-117965000D01*
X73833345Y-117965000D01*
X74173373Y-117897364D01*
X74493673Y-117764692D01*
X74781935Y-117572081D01*
X75027081Y-117326935D01*
X75219692Y-117038673D01*
X75352364Y-116718373D01*
X75420000Y-116378345D01*
X75420000Y-116031655D01*
X76980000Y-116031655D01*
X76980000Y-116378345D01*
X77047636Y-116718373D01*
X77180308Y-117038673D01*
X77372919Y-117326935D01*
X77618065Y-117572081D01*
X77906327Y-117764692D01*
X78226627Y-117897364D01*
X78566655Y-117965000D01*
X78913345Y-117965000D01*
X79253373Y-117897364D01*
X79573673Y-117764692D01*
X79589583Y-117754061D01*
X83293000Y-117754061D01*
X83293000Y-117957939D01*
X83332774Y-118157898D01*
X83410795Y-118346256D01*
X83524063Y-118515774D01*
X83668226Y-118659937D01*
X83837744Y-118773205D01*
X84026102Y-118851226D01*
X84226061Y-118891000D01*
X84429939Y-118891000D01*
X84629898Y-118851226D01*
X84818256Y-118773205D01*
X84987774Y-118659937D01*
X85131937Y-118515774D01*
X85245205Y-118346256D01*
X85280079Y-118262061D01*
X89897000Y-118262061D01*
X89897000Y-118465939D01*
X89936774Y-118665898D01*
X90014795Y-118854256D01*
X90128063Y-119023774D01*
X90272226Y-119167937D01*
X90441744Y-119281205D01*
X90630102Y-119359226D01*
X90830061Y-119399000D01*
X90913000Y-119399000D01*
X90913000Y-119481939D01*
X90952774Y-119681898D01*
X91030795Y-119870256D01*
X91144063Y-120039774D01*
X91288226Y-120183937D01*
X91457744Y-120297205D01*
X91646102Y-120375226D01*
X91846061Y-120415000D01*
X92049939Y-120415000D01*
X92249898Y-120375226D01*
X92438256Y-120297205D01*
X92607774Y-120183937D01*
X92751937Y-120039774D01*
X92865205Y-119870256D01*
X92943226Y-119681898D01*
X92983000Y-119481939D01*
X92983000Y-119278061D01*
X92943226Y-119078102D01*
X92865205Y-118889744D01*
X92751937Y-118720226D01*
X92607774Y-118576063D01*
X92438256Y-118462795D01*
X92249898Y-118384774D01*
X92049939Y-118345000D01*
X91967000Y-118345000D01*
X91967000Y-118262061D01*
X91927226Y-118062102D01*
X91849205Y-117873744D01*
X91735937Y-117704226D01*
X91591774Y-117560063D01*
X91422256Y-117446795D01*
X91233898Y-117368774D01*
X91033939Y-117329000D01*
X90830061Y-117329000D01*
X90630102Y-117368774D01*
X90441744Y-117446795D01*
X90272226Y-117560063D01*
X90128063Y-117704226D01*
X90014795Y-117873744D01*
X89936774Y-118062102D01*
X89897000Y-118262061D01*
X85280079Y-118262061D01*
X85323226Y-118157898D01*
X85363000Y-117957939D01*
X85363000Y-117754061D01*
X85323226Y-117554102D01*
X85245205Y-117365744D01*
X85131937Y-117196226D01*
X84987774Y-117052063D01*
X84818256Y-116938795D01*
X84629898Y-116860774D01*
X84429939Y-116821000D01*
X84226061Y-116821000D01*
X84026102Y-116860774D01*
X83837744Y-116938795D01*
X83668226Y-117052063D01*
X83524063Y-117196226D01*
X83410795Y-117365744D01*
X83332774Y-117554102D01*
X83293000Y-117754061D01*
X79589583Y-117754061D01*
X79861935Y-117572081D01*
X80107081Y-117326935D01*
X80299692Y-117038673D01*
X80432364Y-116718373D01*
X80500000Y-116378345D01*
X80500000Y-116031655D01*
X80432364Y-115691627D01*
X80299692Y-115371327D01*
X80107081Y-115083065D01*
X79861935Y-114837919D01*
X79573673Y-114645308D01*
X79253373Y-114512636D01*
X78913345Y-114445000D01*
X78566655Y-114445000D01*
X78226627Y-114512636D01*
X77906327Y-114645308D01*
X77618065Y-114837919D01*
X77372919Y-115083065D01*
X77180308Y-115371327D01*
X77047636Y-115691627D01*
X76980000Y-116031655D01*
X75420000Y-116031655D01*
X75352364Y-115691627D01*
X75219692Y-115371327D01*
X75027081Y-115083065D01*
X74781935Y-114837919D01*
X74493673Y-114645308D01*
X74173373Y-114512636D01*
X73833345Y-114445000D01*
X73486655Y-114445000D01*
X73146627Y-114512636D01*
X72826327Y-114645308D01*
X72538065Y-114837919D01*
X72292919Y-115083065D01*
X72288000Y-115090427D01*
X72288000Y-110275000D01*
X91856928Y-110275000D01*
X91856928Y-111975000D01*
X91869188Y-112099482D01*
X91905498Y-112219180D01*
X91964463Y-112329494D01*
X92043815Y-112426185D01*
X92140506Y-112505537D01*
X92250820Y-112564502D01*
X92370518Y-112600812D01*
X92495000Y-112613072D01*
X94195000Y-112613072D01*
X94319482Y-112600812D01*
X94439180Y-112564502D01*
X94549494Y-112505537D01*
X94646185Y-112426185D01*
X94725537Y-112329494D01*
X94784502Y-112219180D01*
X94806513Y-112146620D01*
X94938368Y-112278475D01*
X95181589Y-112440990D01*
X95451842Y-112552932D01*
X95738740Y-112610000D01*
X96031260Y-112610000D01*
X96318158Y-112552932D01*
X96588411Y-112440990D01*
X96831632Y-112278475D01*
X97038475Y-112071632D01*
X97200990Y-111828411D01*
X97312932Y-111558158D01*
X97370000Y-111271260D01*
X97370000Y-110978740D01*
X97312932Y-110691842D01*
X97200990Y-110421589D01*
X97038475Y-110178368D01*
X96831632Y-109971525D01*
X96588411Y-109809010D01*
X96318158Y-109697068D01*
X96031260Y-109640000D01*
X95738740Y-109640000D01*
X95451842Y-109697068D01*
X95181589Y-109809010D01*
X94938368Y-109971525D01*
X94806513Y-110103380D01*
X94784502Y-110030820D01*
X94725537Y-109920506D01*
X94646185Y-109823815D01*
X94549494Y-109744463D01*
X94439180Y-109685498D01*
X94319482Y-109649188D01*
X94195000Y-109636928D01*
X92495000Y-109636928D01*
X92370518Y-109649188D01*
X92250820Y-109685498D01*
X92140506Y-109744463D01*
X92043815Y-109823815D01*
X91964463Y-109920506D01*
X91905498Y-110030820D01*
X91869188Y-110150518D01*
X91856928Y-110275000D01*
X72288000Y-110275000D01*
X72288000Y-109372000D01*
X98400000Y-109372000D01*
X98400001Y-131420000D01*
G37*
X98400001Y-131420000D02*
X97634573Y-131420000D01*
X97641935Y-131415081D01*
X97887081Y-131169935D01*
X98079692Y-130881673D01*
X98212364Y-130561373D01*
X98280000Y-130221345D01*
X98280000Y-129874655D01*
X98212364Y-129534627D01*
X98079692Y-129214327D01*
X97887081Y-128926065D01*
X97641935Y-128680919D01*
X97353673Y-128488308D01*
X97033373Y-128355636D01*
X96693345Y-128288000D01*
X96346655Y-128288000D01*
X96006627Y-128355636D01*
X95686327Y-128488308D01*
X95398065Y-128680919D01*
X95152919Y-128926065D01*
X94960308Y-129214327D01*
X94827636Y-129534627D01*
X94760000Y-129874655D01*
X94760000Y-130221345D01*
X94827636Y-130561373D01*
X94960308Y-130881673D01*
X95152919Y-131169935D01*
X95398065Y-131415081D01*
X95405427Y-131420000D01*
X92554573Y-131420000D01*
X92561935Y-131415081D01*
X92807081Y-131169935D01*
X92999692Y-130881673D01*
X93132364Y-130561373D01*
X93200000Y-130221345D01*
X93200000Y-129874655D01*
X93132364Y-129534627D01*
X92999692Y-129214327D01*
X92807081Y-128926065D01*
X92561935Y-128680919D01*
X92273673Y-128488308D01*
X91953373Y-128355636D01*
X91613345Y-128288000D01*
X91266655Y-128288000D01*
X90926627Y-128355636D01*
X90606327Y-128488308D01*
X90318065Y-128680919D01*
X90072919Y-128926065D01*
X89880308Y-129214327D01*
X89747636Y-129534627D01*
X89680000Y-129874655D01*
X89680000Y-130221345D01*
X89747636Y-130561373D01*
X89880308Y-130881673D01*
X90072919Y-131169935D01*
X90318065Y-131415081D01*
X90325427Y-131420000D01*
X88744573Y-131420000D01*
X88751935Y-131415081D01*
X88997081Y-131169935D01*
X89189692Y-130881673D01*
X89322364Y-130561373D01*
X89390000Y-130221345D01*
X89390000Y-129874655D01*
X89322364Y-129534627D01*
X89189692Y-129214327D01*
X88997081Y-128926065D01*
X88751935Y-128680919D01*
X88463673Y-128488308D01*
X88143373Y-128355636D01*
X87803345Y-128288000D01*
X87456655Y-128288000D01*
X87116627Y-128355636D01*
X86796327Y-128488308D01*
X86508065Y-128680919D01*
X86262919Y-128926065D01*
X86070308Y-129214327D01*
X85937636Y-129534627D01*
X85870000Y-129874655D01*
X85870000Y-130221345D01*
X85937636Y-130561373D01*
X86070308Y-130881673D01*
X86262919Y-131169935D01*
X86508065Y-131415081D01*
X86515427Y-131420000D01*
X83664573Y-131420000D01*
X83671935Y-131415081D01*
X83917081Y-131169935D01*
X84109692Y-130881673D01*
X84242364Y-130561373D01*
X84310000Y-130221345D01*
X84310000Y-129874655D01*
X84242364Y-129534627D01*
X84109692Y-129214327D01*
X83917081Y-128926065D01*
X83671935Y-128680919D01*
X83383673Y-128488308D01*
X83063373Y-128355636D01*
X82723345Y-128288000D01*
X82376655Y-128288000D01*
X82036627Y-128355636D01*
X81716327Y-128488308D01*
X81428065Y-128680919D01*
X81182919Y-128926065D01*
X80990308Y-129214327D01*
X80857636Y-129534627D01*
X80790000Y-129874655D01*
X80790000Y-130221345D01*
X80857636Y-130561373D01*
X80990308Y-130881673D01*
X81182919Y-131169935D01*
X81428065Y-131415081D01*
X81435427Y-131420000D01*
X79854573Y-131420000D01*
X79861935Y-131415081D01*
X80107081Y-131169935D01*
X80299692Y-130881673D01*
X80432364Y-130561373D01*
X80500000Y-130221345D01*
X80500000Y-129874655D01*
X80432364Y-129534627D01*
X80299692Y-129214327D01*
X80107081Y-128926065D01*
X79861935Y-128680919D01*
X79573673Y-128488308D01*
X79253373Y-128355636D01*
X78913345Y-128288000D01*
X78566655Y-128288000D01*
X78226627Y-128355636D01*
X77906327Y-128488308D01*
X77618065Y-128680919D01*
X77372919Y-128926065D01*
X77180308Y-129214327D01*
X77047636Y-129534627D01*
X76980000Y-129874655D01*
X76980000Y-130221345D01*
X77047636Y-130561373D01*
X77180308Y-130881673D01*
X77372919Y-131169935D01*
X77618065Y-131415081D01*
X77625427Y-131420000D01*
X74774573Y-131420000D01*
X74781935Y-131415081D01*
X75027081Y-131169935D01*
X75219692Y-130881673D01*
X75352364Y-130561373D01*
X75420000Y-130221345D01*
X75420000Y-129874655D01*
X75352364Y-129534627D01*
X75219692Y-129214327D01*
X75027081Y-128926065D01*
X74781935Y-128680919D01*
X74752485Y-128661241D01*
X75226364Y-128661241D01*
X75325147Y-128928198D01*
X75619024Y-129071584D01*
X75935227Y-129154884D01*
X76261606Y-129174894D01*
X76585617Y-129130846D01*
X76894809Y-129024434D01*
X77074853Y-128928198D01*
X77173636Y-128661241D01*
X76200000Y-127687605D01*
X75226364Y-128661241D01*
X74752485Y-128661241D01*
X74493673Y-128488308D01*
X74173373Y-128355636D01*
X73833345Y-128288000D01*
X73486655Y-128288000D01*
X73146627Y-128355636D01*
X72826327Y-128488308D01*
X72538065Y-128680919D01*
X72292919Y-128926065D01*
X72288000Y-128933427D01*
X72288000Y-127569606D01*
X74533106Y-127569606D01*
X74577154Y-127893617D01*
X74683566Y-128202809D01*
X74779802Y-128382853D01*
X75046759Y-128481636D01*
X76020395Y-127508000D01*
X76379605Y-127508000D01*
X77353241Y-128481636D01*
X77620198Y-128382853D01*
X77763584Y-128088976D01*
X77846884Y-127772773D01*
X77866894Y-127446394D01*
X77853043Y-127344504D01*
X83430000Y-127344504D01*
X83430000Y-127671496D01*
X83493793Y-127992204D01*
X83618927Y-128294305D01*
X83800594Y-128566188D01*
X84031812Y-128797406D01*
X84303695Y-128979073D01*
X84605796Y-129104207D01*
X84926504Y-129168000D01*
X85253496Y-129168000D01*
X85574204Y-129104207D01*
X85876305Y-128979073D01*
X86148188Y-128797406D01*
X86379406Y-128566188D01*
X86561073Y-128294305D01*
X86686207Y-127992204D01*
X86750000Y-127671496D01*
X86750000Y-127344504D01*
X92320000Y-127344504D01*
X92320000Y-127671496D01*
X92383793Y-127992204D01*
X92508927Y-128294305D01*
X92690594Y-128566188D01*
X92921812Y-128797406D01*
X93193695Y-128979073D01*
X93495796Y-129104207D01*
X93816504Y-129168000D01*
X94143496Y-129168000D01*
X94464204Y-129104207D01*
X94766305Y-128979073D01*
X95038188Y-128797406D01*
X95269406Y-128566188D01*
X95451073Y-128294305D01*
X95576207Y-127992204D01*
X95640000Y-127671496D01*
X95640000Y-127344504D01*
X95576207Y-127023796D01*
X95451073Y-126721695D01*
X95269406Y-126449812D01*
X95038188Y-126218594D01*
X94766305Y-126036927D01*
X94464204Y-125911793D01*
X94143496Y-125848000D01*
X93816504Y-125848000D01*
X93495796Y-125911793D01*
X93193695Y-126036927D01*
X92921812Y-126218594D01*
X92690594Y-126449812D01*
X92508927Y-126721695D01*
X92383793Y-127023796D01*
X92320000Y-127344504D01*
X86750000Y-127344504D01*
X86686207Y-127023796D01*
X86561073Y-126721695D01*
X86379406Y-126449812D01*
X86148188Y-126218594D01*
X85876305Y-126036927D01*
X85574204Y-125911793D01*
X85253496Y-125848000D01*
X84926504Y-125848000D01*
X84605796Y-125911793D01*
X84303695Y-126036927D01*
X84031812Y-126218594D01*
X83800594Y-126449812D01*
X83618927Y-126721695D01*
X83493793Y-127023796D01*
X83430000Y-127344504D01*
X77853043Y-127344504D01*
X77822846Y-127122383D01*
X77716434Y-126813191D01*
X77620198Y-126633147D01*
X77353241Y-126534364D01*
X76379605Y-127508000D01*
X76020395Y-127508000D01*
X75046759Y-126534364D01*
X74779802Y-126633147D01*
X74636416Y-126927024D01*
X74553116Y-127243227D01*
X74533106Y-127569606D01*
X72288000Y-127569606D01*
X72288000Y-126082573D01*
X72292919Y-126089935D01*
X72538065Y-126335081D01*
X72826327Y-126527692D01*
X73146627Y-126660364D01*
X73486655Y-126728000D01*
X73833345Y-126728000D01*
X74173373Y-126660364D01*
X74493673Y-126527692D01*
X74752484Y-126354759D01*
X75226364Y-126354759D01*
X76200000Y-127328395D01*
X77173636Y-126354759D01*
X77074853Y-126087802D01*
X76780976Y-125944416D01*
X76464773Y-125861116D01*
X76138394Y-125841106D01*
X75814383Y-125885154D01*
X75505191Y-125991566D01*
X75325147Y-126087802D01*
X75226364Y-126354759D01*
X74752484Y-126354759D01*
X74781935Y-126335081D01*
X75027081Y-126089935D01*
X75219692Y-125801673D01*
X75352364Y-125481373D01*
X75420000Y-125141345D01*
X75420000Y-124794655D01*
X76980000Y-124794655D01*
X76980000Y-125141345D01*
X77047636Y-125481373D01*
X77180308Y-125801673D01*
X77372919Y-126089935D01*
X77618065Y-126335081D01*
X77906327Y-126527692D01*
X78226627Y-126660364D01*
X78566655Y-126728000D01*
X78913345Y-126728000D01*
X79253373Y-126660364D01*
X79573673Y-126527692D01*
X79861935Y-126335081D01*
X80107081Y-126089935D01*
X80299692Y-125801673D01*
X80432364Y-125481373D01*
X80500000Y-125141345D01*
X80500000Y-124794655D01*
X80790000Y-124794655D01*
X80790000Y-125141345D01*
X80857636Y-125481373D01*
X80990308Y-125801673D01*
X81182919Y-126089935D01*
X81428065Y-126335081D01*
X81716327Y-126527692D01*
X82036627Y-126660364D01*
X82376655Y-126728000D01*
X82723345Y-126728000D01*
X83063373Y-126660364D01*
X83383673Y-126527692D01*
X83671935Y-126335081D01*
X83917081Y-126089935D01*
X84109692Y-125801673D01*
X84242364Y-125481373D01*
X84310000Y-125141345D01*
X84310000Y-124794655D01*
X85870000Y-124794655D01*
X85870000Y-125141345D01*
X85937636Y-125481373D01*
X86070308Y-125801673D01*
X86262919Y-126089935D01*
X86508065Y-126335081D01*
X86796327Y-126527692D01*
X87116627Y-126660364D01*
X87456655Y-126728000D01*
X87803345Y-126728000D01*
X88143373Y-126660364D01*
X88463673Y-126527692D01*
X88751935Y-126335081D01*
X88997081Y-126089935D01*
X89189692Y-125801673D01*
X89322364Y-125481373D01*
X89390000Y-125141345D01*
X89390000Y-124794655D01*
X89680000Y-124794655D01*
X89680000Y-125141345D01*
X89747636Y-125481373D01*
X89880308Y-125801673D01*
X90072919Y-126089935D01*
X90318065Y-126335081D01*
X90606327Y-126527692D01*
X90926627Y-126660364D01*
X91266655Y-126728000D01*
X91613345Y-126728000D01*
X91953373Y-126660364D01*
X92273673Y-126527692D01*
X92561935Y-126335081D01*
X92807081Y-126089935D01*
X92999692Y-125801673D01*
X93132364Y-125481373D01*
X93200000Y-125141345D01*
X93200000Y-124794655D01*
X94760000Y-124794655D01*
X94760000Y-125141345D01*
X94827636Y-125481373D01*
X94960308Y-125801673D01*
X95152919Y-126089935D01*
X95398065Y-126335081D01*
X95686327Y-126527692D01*
X96006627Y-126660364D01*
X96346655Y-126728000D01*
X96693345Y-126728000D01*
X97033373Y-126660364D01*
X97353673Y-126527692D01*
X97641935Y-126335081D01*
X97887081Y-126089935D01*
X98079692Y-125801673D01*
X98212364Y-125481373D01*
X98280000Y-125141345D01*
X98280000Y-124794655D01*
X98212364Y-124454627D01*
X98079692Y-124134327D01*
X97887081Y-123846065D01*
X97641935Y-123600919D01*
X97353673Y-123408308D01*
X97033373Y-123275636D01*
X96693345Y-123208000D01*
X96346655Y-123208000D01*
X96006627Y-123275636D01*
X95686327Y-123408308D01*
X95398065Y-123600919D01*
X95152919Y-123846065D01*
X94960308Y-124134327D01*
X94827636Y-124454627D01*
X94760000Y-124794655D01*
X93200000Y-124794655D01*
X93132364Y-124454627D01*
X92999692Y-124134327D01*
X92807081Y-123846065D01*
X92561935Y-123600919D01*
X92273673Y-123408308D01*
X91953373Y-123275636D01*
X91613345Y-123208000D01*
X91266655Y-123208000D01*
X90926627Y-123275636D01*
X90606327Y-123408308D01*
X90318065Y-123600919D01*
X90072919Y-123846065D01*
X89880308Y-124134327D01*
X89747636Y-124454627D01*
X89680000Y-124794655D01*
X89390000Y-124794655D01*
X89322364Y-124454627D01*
X89189692Y-124134327D01*
X88997081Y-123846065D01*
X88751935Y-123600919D01*
X88463673Y-123408308D01*
X88143373Y-123275636D01*
X87803345Y-123208000D01*
X87456655Y-123208000D01*
X87116627Y-123275636D01*
X86796327Y-123408308D01*
X86508065Y-123600919D01*
X86262919Y-123846065D01*
X86070308Y-124134327D01*
X85937636Y-124454627D01*
X85870000Y-124794655D01*
X84310000Y-124794655D01*
X84242364Y-124454627D01*
X84109692Y-124134327D01*
X83917081Y-123846065D01*
X83671935Y-123600919D01*
X83383673Y-123408308D01*
X83063373Y-123275636D01*
X82723345Y-123208000D01*
X82376655Y-123208000D01*
X82036627Y-123275636D01*
X81716327Y-123408308D01*
X81428065Y-123600919D01*
X81182919Y-123846065D01*
X80990308Y-124134327D01*
X80857636Y-124454627D01*
X80790000Y-124794655D01*
X80500000Y-124794655D01*
X80432364Y-124454627D01*
X80299692Y-124134327D01*
X80107081Y-123846065D01*
X79861935Y-123600919D01*
X79573673Y-123408308D01*
X79253373Y-123275636D01*
X78913345Y-123208000D01*
X78566655Y-123208000D01*
X78226627Y-123275636D01*
X77906327Y-123408308D01*
X77618065Y-123600919D01*
X77372919Y-123846065D01*
X77180308Y-124134327D01*
X77047636Y-124454627D01*
X76980000Y-124794655D01*
X75420000Y-124794655D01*
X75352364Y-124454627D01*
X75219692Y-124134327D01*
X75027081Y-123846065D01*
X74781935Y-123600919D01*
X74493673Y-123408308D01*
X74173373Y-123275636D01*
X73833345Y-123208000D01*
X73486655Y-123208000D01*
X73146627Y-123275636D01*
X72826327Y-123408308D01*
X72538065Y-123600919D01*
X72292919Y-123846065D01*
X72288000Y-123853427D01*
X72288000Y-122399573D01*
X72292919Y-122406935D01*
X72538065Y-122652081D01*
X72826327Y-122844692D01*
X73146627Y-122977364D01*
X73486655Y-123045000D01*
X73833345Y-123045000D01*
X74173373Y-122977364D01*
X74493673Y-122844692D01*
X74781935Y-122652081D01*
X75027081Y-122406935D01*
X75219692Y-122118673D01*
X75352364Y-121798373D01*
X75420000Y-121458345D01*
X75420000Y-121111655D01*
X76980000Y-121111655D01*
X76980000Y-121458345D01*
X77047636Y-121798373D01*
X77180308Y-122118673D01*
X77372919Y-122406935D01*
X77618065Y-122652081D01*
X77906327Y-122844692D01*
X78226627Y-122977364D01*
X78566655Y-123045000D01*
X78913345Y-123045000D01*
X79253373Y-122977364D01*
X79573673Y-122844692D01*
X79861935Y-122652081D01*
X80107081Y-122406935D01*
X80299692Y-122118673D01*
X80432364Y-121798373D01*
X80500000Y-121458345D01*
X80500000Y-121111655D01*
X80432364Y-120771627D01*
X80299692Y-120451327D01*
X80107081Y-120163065D01*
X79861935Y-119917919D01*
X79573673Y-119725308D01*
X79253373Y-119592636D01*
X78913345Y-119525000D01*
X78566655Y-119525000D01*
X78226627Y-119592636D01*
X77906327Y-119725308D01*
X77618065Y-119917919D01*
X77372919Y-120163065D01*
X77180308Y-120451327D01*
X77047636Y-120771627D01*
X76980000Y-121111655D01*
X75420000Y-121111655D01*
X75352364Y-120771627D01*
X75219692Y-120451327D01*
X75027081Y-120163065D01*
X74781935Y-119917919D01*
X74493673Y-119725308D01*
X74173373Y-119592636D01*
X73833345Y-119525000D01*
X73486655Y-119525000D01*
X73146627Y-119592636D01*
X72826327Y-119725308D01*
X72538065Y-119917919D01*
X72292919Y-120163065D01*
X72288000Y-120170427D01*
X72288000Y-118581504D01*
X74540000Y-118581504D01*
X74540000Y-118908496D01*
X74603793Y-119229204D01*
X74728927Y-119531305D01*
X74910594Y-119803188D01*
X75141812Y-120034406D01*
X75413695Y-120216073D01*
X75715796Y-120341207D01*
X76036504Y-120405000D01*
X76363496Y-120405000D01*
X76684204Y-120341207D01*
X76986305Y-120216073D01*
X77258188Y-120034406D01*
X77489406Y-119803188D01*
X77671073Y-119531305D01*
X77796207Y-119229204D01*
X77860000Y-118908496D01*
X77860000Y-118581504D01*
X77796207Y-118260796D01*
X77671073Y-117958695D01*
X77489406Y-117686812D01*
X77258188Y-117455594D01*
X76986305Y-117273927D01*
X76684204Y-117148793D01*
X76363496Y-117085000D01*
X76036504Y-117085000D01*
X75715796Y-117148793D01*
X75413695Y-117273927D01*
X75141812Y-117455594D01*
X74910594Y-117686812D01*
X74728927Y-117958695D01*
X74603793Y-118260796D01*
X74540000Y-118581504D01*
X72288000Y-118581504D01*
X72288000Y-117319573D01*
X72292919Y-117326935D01*
X72538065Y-117572081D01*
X72826327Y-117764692D01*
X73146627Y-117897364D01*
X73486655Y-117965000D01*
X73833345Y-117965000D01*
X74173373Y-117897364D01*
X74493673Y-117764692D01*
X74781935Y-117572081D01*
X75027081Y-117326935D01*
X75219692Y-117038673D01*
X75352364Y-116718373D01*
X75420000Y-116378345D01*
X75420000Y-116031655D01*
X76980000Y-116031655D01*
X76980000Y-116378345D01*
X77047636Y-116718373D01*
X77180308Y-117038673D01*
X77372919Y-117326935D01*
X77618065Y-117572081D01*
X77906327Y-117764692D01*
X78226627Y-117897364D01*
X78566655Y-117965000D01*
X78913345Y-117965000D01*
X79253373Y-117897364D01*
X79573673Y-117764692D01*
X79589583Y-117754061D01*
X83293000Y-117754061D01*
X83293000Y-117957939D01*
X83332774Y-118157898D01*
X83410795Y-118346256D01*
X83524063Y-118515774D01*
X83668226Y-118659937D01*
X83837744Y-118773205D01*
X84026102Y-118851226D01*
X84226061Y-118891000D01*
X84429939Y-118891000D01*
X84629898Y-118851226D01*
X84818256Y-118773205D01*
X84987774Y-118659937D01*
X85131937Y-118515774D01*
X85245205Y-118346256D01*
X85280079Y-118262061D01*
X89897000Y-118262061D01*
X89897000Y-118465939D01*
X89936774Y-118665898D01*
X90014795Y-118854256D01*
X90128063Y-119023774D01*
X90272226Y-119167937D01*
X90441744Y-119281205D01*
X90630102Y-119359226D01*
X90830061Y-119399000D01*
X90913000Y-119399000D01*
X90913000Y-119481939D01*
X90952774Y-119681898D01*
X91030795Y-119870256D01*
X91144063Y-120039774D01*
X91288226Y-120183937D01*
X91457744Y-120297205D01*
X91646102Y-120375226D01*
X91846061Y-120415000D01*
X92049939Y-120415000D01*
X92249898Y-120375226D01*
X92438256Y-120297205D01*
X92607774Y-120183937D01*
X92751937Y-120039774D01*
X92865205Y-119870256D01*
X92943226Y-119681898D01*
X92983000Y-119481939D01*
X92983000Y-119278061D01*
X92943226Y-119078102D01*
X92865205Y-118889744D01*
X92751937Y-118720226D01*
X92607774Y-118576063D01*
X92438256Y-118462795D01*
X92249898Y-118384774D01*
X92049939Y-118345000D01*
X91967000Y-118345000D01*
X91967000Y-118262061D01*
X91927226Y-118062102D01*
X91849205Y-117873744D01*
X91735937Y-117704226D01*
X91591774Y-117560063D01*
X91422256Y-117446795D01*
X91233898Y-117368774D01*
X91033939Y-117329000D01*
X90830061Y-117329000D01*
X90630102Y-117368774D01*
X90441744Y-117446795D01*
X90272226Y-117560063D01*
X90128063Y-117704226D01*
X90014795Y-117873744D01*
X89936774Y-118062102D01*
X89897000Y-118262061D01*
X85280079Y-118262061D01*
X85323226Y-118157898D01*
X85363000Y-117957939D01*
X85363000Y-117754061D01*
X85323226Y-117554102D01*
X85245205Y-117365744D01*
X85131937Y-117196226D01*
X84987774Y-117052063D01*
X84818256Y-116938795D01*
X84629898Y-116860774D01*
X84429939Y-116821000D01*
X84226061Y-116821000D01*
X84026102Y-116860774D01*
X83837744Y-116938795D01*
X83668226Y-117052063D01*
X83524063Y-117196226D01*
X83410795Y-117365744D01*
X83332774Y-117554102D01*
X83293000Y-117754061D01*
X79589583Y-117754061D01*
X79861935Y-117572081D01*
X80107081Y-117326935D01*
X80299692Y-117038673D01*
X80432364Y-116718373D01*
X80500000Y-116378345D01*
X80500000Y-116031655D01*
X80432364Y-115691627D01*
X80299692Y-115371327D01*
X80107081Y-115083065D01*
X79861935Y-114837919D01*
X79573673Y-114645308D01*
X79253373Y-114512636D01*
X78913345Y-114445000D01*
X78566655Y-114445000D01*
X78226627Y-114512636D01*
X77906327Y-114645308D01*
X77618065Y-114837919D01*
X77372919Y-115083065D01*
X77180308Y-115371327D01*
X77047636Y-115691627D01*
X76980000Y-116031655D01*
X75420000Y-116031655D01*
X75352364Y-115691627D01*
X75219692Y-115371327D01*
X75027081Y-115083065D01*
X74781935Y-114837919D01*
X74493673Y-114645308D01*
X74173373Y-114512636D01*
X73833345Y-114445000D01*
X73486655Y-114445000D01*
X73146627Y-114512636D01*
X72826327Y-114645308D01*
X72538065Y-114837919D01*
X72292919Y-115083065D01*
X72288000Y-115090427D01*
X72288000Y-110275000D01*
X91856928Y-110275000D01*
X91856928Y-111975000D01*
X91869188Y-112099482D01*
X91905498Y-112219180D01*
X91964463Y-112329494D01*
X92043815Y-112426185D01*
X92140506Y-112505537D01*
X92250820Y-112564502D01*
X92370518Y-112600812D01*
X92495000Y-112613072D01*
X94195000Y-112613072D01*
X94319482Y-112600812D01*
X94439180Y-112564502D01*
X94549494Y-112505537D01*
X94646185Y-112426185D01*
X94725537Y-112329494D01*
X94784502Y-112219180D01*
X94806513Y-112146620D01*
X94938368Y-112278475D01*
X95181589Y-112440990D01*
X95451842Y-112552932D01*
X95738740Y-112610000D01*
X96031260Y-112610000D01*
X96318158Y-112552932D01*
X96588411Y-112440990D01*
X96831632Y-112278475D01*
X97038475Y-112071632D01*
X97200990Y-111828411D01*
X97312932Y-111558158D01*
X97370000Y-111271260D01*
X97370000Y-110978740D01*
X97312932Y-110691842D01*
X97200990Y-110421589D01*
X97038475Y-110178368D01*
X96831632Y-109971525D01*
X96588411Y-109809010D01*
X96318158Y-109697068D01*
X96031260Y-109640000D01*
X95738740Y-109640000D01*
X95451842Y-109697068D01*
X95181589Y-109809010D01*
X94938368Y-109971525D01*
X94806513Y-110103380D01*
X94784502Y-110030820D01*
X94725537Y-109920506D01*
X94646185Y-109823815D01*
X94549494Y-109744463D01*
X94439180Y-109685498D01*
X94319482Y-109649188D01*
X94195000Y-109636928D01*
X92495000Y-109636928D01*
X92370518Y-109649188D01*
X92250820Y-109685498D01*
X92140506Y-109744463D01*
X92043815Y-109823815D01*
X91964463Y-109920506D01*
X91905498Y-110030820D01*
X91869188Y-110150518D01*
X91856928Y-110275000D01*
X72288000Y-110275000D01*
X72288000Y-109372000D01*
X98400000Y-109372000D01*
X98400001Y-131420000D01*
%TD*%
M02*
