%TF.GenerationSoftware,KiCad,Pcbnew,(5.1.6)-1*%
%TF.CreationDate,2020-09-06T17:04:42-07:00*%
%TF.ProjectId,frontendtest,66726f6e-7465-46e6-9474-6573742e6b69,rev?*%
%TF.SameCoordinates,Original*%
%TF.FileFunction,Copper,L1,Top*%
%TF.FilePolarity,Positive*%
%FSLAX46Y46*%
G04 Gerber Fmt 4.6, Leading zero omitted, Abs format (unit mm)*
G04 Created by KiCad (PCBNEW (5.1.6)-1) date 2020-09-06 17:04:42*
%MOMM*%
%LPD*%
G01*
G04 APERTURE LIST*
%TA.AperFunction,ComponentPad*%
%ADD10C,2.250000*%
%TD*%
%TA.AperFunction,ComponentPad*%
%ADD11C,2.050000*%
%TD*%
%TA.AperFunction,ComponentPad*%
%ADD12O,1.700000X1.700000*%
%TD*%
%TA.AperFunction,ComponentPad*%
%ADD13R,1.700000X1.700000*%
%TD*%
%TA.AperFunction,SMDPad,CuDef*%
%ADD14R,0.600000X2.200000*%
%TD*%
%TA.AperFunction,SMDPad,CuDef*%
%ADD15R,2.000000X1.300000*%
%TD*%
%TA.AperFunction,SMDPad,CuDef*%
%ADD16R,2.000000X2.000000*%
%TD*%
%TA.AperFunction,SMDPad,CuDef*%
%ADD17R,1.300000X2.000000*%
%TD*%
%TA.AperFunction,ViaPad*%
%ADD18C,0.800000*%
%TD*%
%TA.AperFunction,Conductor*%
%ADD19C,0.500000*%
%TD*%
%TA.AperFunction,Conductor*%
%ADD20C,0.250000*%
%TD*%
G04 APERTURE END LIST*
%TO.P,R1,2*%
%TO.N,Net-(100k1-Pad2)*%
%TA.AperFunction,SMDPad,CuDef*%
G36*
G01*
X94646000Y-113789750D02*
X94646000Y-114302250D01*
G75*
G02*
X94427250Y-114521000I-218750J0D01*
G01*
X93989750Y-114521000D01*
G75*
G02*
X93771000Y-114302250I0J218750D01*
G01*
X93771000Y-113789750D01*
G75*
G02*
X93989750Y-113571000I218750J0D01*
G01*
X94427250Y-113571000D01*
G75*
G02*
X94646000Y-113789750I0J-218750D01*
G01*
G37*
%TD.AperFunction*%
%TO.P,R1,1*%
%TO.N,GND*%
%TA.AperFunction,SMDPad,CuDef*%
G36*
G01*
X96221000Y-113789750D02*
X96221000Y-114302250D01*
G75*
G02*
X96002250Y-114521000I-218750J0D01*
G01*
X95564750Y-114521000D01*
G75*
G02*
X95346000Y-114302250I0J218750D01*
G01*
X95346000Y-113789750D01*
G75*
G02*
X95564750Y-113571000I218750J0D01*
G01*
X96002250Y-113571000D01*
G75*
G02*
X96221000Y-113789750I0J-218750D01*
G01*
G37*
%TD.AperFunction*%
%TD*%
%TO.P,C1,2*%
%TO.N,Net-(1M1-Pad1)*%
%TA.AperFunction,SMDPad,CuDef*%
G36*
G01*
X79504250Y-112426000D02*
X78991750Y-112426000D01*
G75*
G02*
X78773000Y-112207250I0J218750D01*
G01*
X78773000Y-111769750D01*
G75*
G02*
X78991750Y-111551000I218750J0D01*
G01*
X79504250Y-111551000D01*
G75*
G02*
X79723000Y-111769750I0J-218750D01*
G01*
X79723000Y-112207250D01*
G75*
G02*
X79504250Y-112426000I-218750J0D01*
G01*
G37*
%TD.AperFunction*%
%TO.P,C1,1*%
%TO.N,Net-(1M1-Pad2)*%
%TA.AperFunction,SMDPad,CuDef*%
G36*
G01*
X79504250Y-114001000D02*
X78991750Y-114001000D01*
G75*
G02*
X78773000Y-113782250I0J218750D01*
G01*
X78773000Y-113344750D01*
G75*
G02*
X78991750Y-113126000I218750J0D01*
G01*
X79504250Y-113126000D01*
G75*
G02*
X79723000Y-113344750I0J-218750D01*
G01*
X79723000Y-113782250D01*
G75*
G02*
X79504250Y-114001000I-218750J0D01*
G01*
G37*
%TD.AperFunction*%
%TD*%
D10*
%TO.P,J5,2*%
%TO.N,GND*%
X82550000Y-130048000D03*
X82550000Y-124968000D03*
X87630000Y-124968000D03*
X87630000Y-130048000D03*
D11*
%TO.P,J5,1*%
%TO.N,Net-(1M1-Pad1)*%
X85090000Y-127508000D03*
%TD*%
D12*
%TO.P,J2,2*%
%TO.N,GND*%
X95885000Y-111125000D03*
D13*
%TO.P,J2,1*%
%TO.N,+10V*%
X93345000Y-111125000D03*
%TD*%
D14*
%TO.P,U2,4*%
%TO.N,Net-(100k1-Pad1)*%
X92075000Y-121445000D03*
%TO.P,U2,5*%
%TO.N,N/C*%
X92075000Y-116045000D03*
%TO.P,U2,3*%
%TO.N,GND*%
X90805000Y-121445000D03*
%TO.P,U2,6*%
%TO.N,+10V*%
X90805000Y-116045000D03*
%TO.P,U2,2*%
%TO.N,Net-(U2-Pad2)*%
X89535000Y-121445000D03*
%TO.P,U2,7*%
%TO.N,Net-(U2-Pad7)*%
X89535000Y-116045000D03*
%TO.P,U2,1*%
%TO.N,Net-(1M1-Pad1)*%
X88265000Y-121445000D03*
%TO.P,U2,8*%
%TO.N,Net-(100k1-Pad2)*%
X88265000Y-116045000D03*
%TD*%
%TO.P,U1,4*%
%TO.N,Net-(1M1-Pad1)*%
X85725000Y-121445000D03*
%TO.P,U1,5*%
%TO.N,N/C*%
X85725000Y-116045000D03*
%TO.P,U1,3*%
%TO.N,GND*%
X84455000Y-121445000D03*
%TO.P,U1,6*%
%TO.N,+10V*%
X84455000Y-116045000D03*
%TO.P,U1,2*%
%TO.N,Net-(J3-Pad1)*%
X83185000Y-121445000D03*
%TO.P,U1,7*%
X83185000Y-116045000D03*
%TO.P,U1,1*%
X81915000Y-121445000D03*
%TO.P,U1,8*%
%TO.N,Net-(1M1-Pad2)*%
X81915000Y-116045000D03*
%TD*%
D10*
%TO.P,J4,2*%
%TO.N,GND*%
X91440000Y-130048000D03*
X91440000Y-124968000D03*
X96520000Y-124968000D03*
X96520000Y-130048000D03*
D11*
%TO.P,J4,1*%
%TO.N,Net-(100k1-Pad1)*%
X93980000Y-127508000D03*
%TD*%
D10*
%TO.P,J3,2*%
%TO.N,GND*%
X73660000Y-130048000D03*
X73660000Y-124968000D03*
X78740000Y-124968000D03*
X78740000Y-130048000D03*
D11*
%TO.P,J3,1*%
%TO.N,Net-(J3-Pad1)*%
X76200000Y-127508000D03*
%TD*%
D10*
%TO.P,J1,2*%
%TO.N,GND*%
X73660000Y-121285000D03*
X73660000Y-116205000D03*
X78740000Y-116205000D03*
X78740000Y-121285000D03*
D11*
%TO.P,J1,1*%
%TO.N,Net-(1M1-Pad2)*%
X76200000Y-118745000D03*
%TD*%
D15*
%TO.P,1M1,3*%
%TO.N,Net-(1M1-Pad3)*%
X85566000Y-110610000D03*
D16*
%TO.P,1M1,2*%
%TO.N,Net-(1M1-Pad2)*%
X81566000Y-111760000D03*
D15*
%TO.P,1M1,1*%
%TO.N,Net-(1M1-Pad1)*%
X85566000Y-112910000D03*
%TD*%
D17*
%TO.P,100k1,3*%
%TO.N,Net-(100k1-Pad3)*%
X97035000Y-120110000D03*
D16*
%TO.P,100k1,2*%
%TO.N,Net-(100k1-Pad2)*%
X95885000Y-116110000D03*
D17*
%TO.P,100k1,1*%
%TO.N,Net-(100k1-Pad1)*%
X94735000Y-120110000D03*
%TD*%
D18*
%TO.N,GND*%
X91948000Y-119380000D03*
%TO.N,+10V*%
X84328000Y-117856000D03*
X90932000Y-118364000D03*
%TD*%
D19*
%TO.N,Net-(100k1-Pad2)*%
X88265000Y-114445000D02*
X88664000Y-114046000D01*
X88265000Y-116045000D02*
X88265000Y-114445000D01*
X88664000Y-114046000D02*
X94208500Y-114046000D01*
X94208500Y-114433500D02*
X95885000Y-116110000D01*
X94208500Y-114046000D02*
X94208500Y-114433500D01*
D20*
%TO.N,Net-(1M1-Pad2)*%
X81915000Y-112109000D02*
X81566000Y-111760000D01*
D19*
%TO.N,Net-(100k1-Pad1)*%
X93980000Y-123350000D02*
X93980000Y-127508000D01*
X92075000Y-121445000D02*
X93980000Y-123350000D01*
X93400000Y-121445000D02*
X94735000Y-120110000D01*
X92075000Y-121445000D02*
X93400000Y-121445000D01*
%TO.N,Net-(1M1-Pad2)*%
X79215000Y-118745000D02*
X81915000Y-116045000D01*
X76200000Y-118745000D02*
X79215000Y-118745000D01*
X81566000Y-115696000D02*
X81915000Y-116045000D01*
X81566000Y-111760000D02*
X81566000Y-115696000D01*
X81035000Y-112291000D02*
X81566000Y-111760000D01*
X79762500Y-113563500D02*
X81566000Y-111760000D01*
X79248000Y-113563500D02*
X79762500Y-113563500D01*
D20*
%TO.N,GND*%
X90805000Y-124333000D02*
X91440000Y-124968000D01*
X84455000Y-123063000D02*
X82550000Y-124968000D01*
X84455000Y-121445000D02*
X84455000Y-123063000D01*
X91698653Y-119629347D02*
X91948000Y-119380000D01*
X90805000Y-121445000D02*
X90805000Y-120015000D01*
X91190653Y-119629347D02*
X91698653Y-119629347D01*
X90805000Y-120015000D02*
X91190653Y-119629347D01*
D19*
X95783500Y-111226500D02*
X95885000Y-111125000D01*
X95783500Y-114046000D02*
X95783500Y-111226500D01*
D20*
%TO.N,+10V*%
X84455000Y-116045000D02*
X84455000Y-117729000D01*
X84455000Y-117729000D02*
X84328000Y-117856000D01*
X90805000Y-116045000D02*
X90805000Y-118237000D01*
X90805000Y-118237000D02*
X90932000Y-118364000D01*
D19*
%TO.N,Net-(J3-Pad1)*%
X80974999Y-122385001D02*
X81915000Y-121445000D01*
X79191000Y-127508000D02*
X80974999Y-125724001D01*
X80974999Y-125724001D02*
X80974999Y-122385001D01*
X76200000Y-127508000D02*
X79191000Y-127508000D01*
X81915000Y-121445000D02*
X83185000Y-121445000D01*
X83185000Y-121445000D02*
X83185000Y-116045000D01*
%TO.N,Net-(1M1-Pad1)*%
X86475001Y-120694999D02*
X85725000Y-121445000D01*
X86475001Y-113819001D02*
X86475001Y-120694999D01*
X85566000Y-112910000D02*
X86475001Y-113819001D01*
X87514999Y-120694999D02*
X88265000Y-121445000D01*
X86475001Y-120694999D02*
X87514999Y-120694999D01*
X85725000Y-126873000D02*
X85090000Y-127508000D01*
X85725000Y-121445000D02*
X85725000Y-126873000D01*
X82965999Y-110309999D02*
X85566000Y-112910000D01*
X79809993Y-110309999D02*
X82965999Y-110309999D01*
X79248000Y-110871992D02*
X79809993Y-110309999D01*
X79248000Y-111988500D02*
X79248000Y-110871992D01*
%TD*%
M02*
