M48
; DRILL file {KiCad (5.1.6)-1} date 09/06/20 17:04:45
; FORMAT={-:-/ absolute / inch / decimal}
; #@! TF.CreationDate,2020-09-06T17:04:45-07:00
; #@! TF.GenerationSoftware,Kicad,Pcbnew,(5.1.6)-1
; #@! TF.FileFunction,Plated,1,4,PTH
FMAT,2
INCH
T1C0.0157
T2C0.0394
T3C0.0591
T4C0.0669
%
G90
G05
T1
X3.32Y-4.64
X3.58Y-4.66
X3.62Y-4.7
T2
X3.675Y-4.375
X3.775Y-4.375
T3
X3.7Y-5.02
X3.0Y-4.675
X3.35Y-5.02
X3.0Y-5.02
T4
X2.9Y-4.575
X2.9Y-4.775
X3.1Y-4.575
X3.1Y-4.775
X3.25Y-4.92
X3.25Y-5.12
X3.45Y-4.92
X3.45Y-5.12
X2.9Y-4.92
X2.9Y-5.12
X3.1Y-4.92
X3.1Y-5.12
X3.6Y-4.92
X3.6Y-5.12
X3.8Y-4.92
X3.8Y-5.12
T0
M30
