%TF.GenerationSoftware,KiCad,Pcbnew,(5.1.6)-1*%
%TF.CreationDate,2020-11-12T20:03:02-08:00*%
%TF.ProjectId,piezodriver,7069657a-6f64-4726-9976-65722e6b6963,rev?*%
%TF.SameCoordinates,Original*%
%TF.FileFunction,Soldermask,Bot*%
%TF.FilePolarity,Negative*%
%FSLAX46Y46*%
G04 Gerber Fmt 4.6, Leading zero omitted, Abs format (unit mm)*
G04 Created by KiCad (PCBNEW (5.1.6)-1) date 2020-11-12 20:03:02*
%MOMM*%
%LPD*%
G01*
G04 APERTURE LIST*
%ADD10C,3.300000*%
%ADD11O,2.005000X2.100000*%
%ADD12R,2.005000X2.100000*%
%ADD13C,1.800000*%
%ADD14O,1.800000X1.800000*%
%ADD15R,1.800000X1.800000*%
%ADD16C,2.700000*%
%ADD17R,2.700000X2.700000*%
%ADD18C,1.700000*%
%ADD19R,1.700000X1.700000*%
%ADD20C,2.500000*%
%ADD21R,2.500000X2.500000*%
G04 APERTURE END LIST*
D10*
%TO.C,H3*%
X294640000Y-38100000D03*
%TD*%
%TO.C,H2*%
X208280000Y-64770000D03*
%TD*%
%TO.C,H1*%
X207010000Y-10160000D03*
%TD*%
D11*
%TO.C,Q2*%
X250571000Y-64008000D03*
X253111000Y-64008000D03*
D12*
X255651000Y-64008000D03*
%TD*%
D11*
%TO.C,Q1*%
X261620000Y-64008000D03*
X264160000Y-64008000D03*
D12*
X266700000Y-64008000D03*
%TD*%
D13*
%TO.C,SAMPLE1*%
X292354000Y-19740000D03*
X292354000Y-12740000D03*
%TD*%
D14*
%TO.C,J7*%
X240284000Y-66040000D03*
X237744000Y-66040000D03*
X235204000Y-66040000D03*
X232664000Y-66040000D03*
X230124000Y-66040000D03*
X227584000Y-66040000D03*
X225044000Y-66040000D03*
D15*
X222504000Y-66040000D03*
%TD*%
D14*
%TO.C,J6*%
X250571000Y-60579000D03*
D15*
X250571000Y-58039000D03*
%TD*%
D14*
%TO.C,J5*%
X261620000Y-58039000D03*
D15*
X261620000Y-60579000D03*
%TD*%
D14*
%TO.C,J4*%
X248412000Y-41275000D03*
X245872000Y-41275000D03*
D15*
X243332000Y-41275000D03*
%TD*%
D14*
%TO.C,J3*%
X204216000Y-59182000D03*
X204216000Y-56642000D03*
X204216000Y-54102000D03*
X204216000Y-51562000D03*
X204216000Y-49022000D03*
D15*
X204216000Y-46482000D03*
%TD*%
D14*
%TO.C,J2*%
X268224000Y-48006000D03*
X268224000Y-45466000D03*
D15*
X268224000Y-42926000D03*
%TD*%
D16*
%TO.C,J1*%
X290322000Y-59690000D03*
X290322000Y-54610000D03*
D17*
X290322000Y-49530000D03*
%TD*%
D13*
%TO.C,CH4*%
X270654000Y-19782000D03*
X270654000Y-12782000D03*
%TD*%
%TO.C,CH3*%
X253492000Y-19740000D03*
X253492000Y-12740000D03*
%TD*%
%TO.C,CH2*%
X236220000Y-19740000D03*
X236220000Y-12740000D03*
%TD*%
%TO.C,CH1*%
X219202000Y-19994000D03*
X219202000Y-12994000D03*
%TD*%
D18*
%TO.C,C10*%
X254802000Y-55245000D03*
D19*
X257302000Y-55245000D03*
%TD*%
D18*
%TO.C,C9*%
X269200000Y-55245000D03*
D19*
X266700000Y-55245000D03*
%TD*%
D20*
%TO.C,C6*%
X280082000Y-60960000D03*
D21*
X275082000Y-60960000D03*
%TD*%
D20*
%TO.C,C5*%
X274908000Y-46990000D03*
D21*
X279908000Y-46990000D03*
%TD*%
D18*
%TO.C,C2*%
X254889000Y-40854000D03*
D19*
X254889000Y-38354000D03*
%TD*%
D18*
%TO.C,C1*%
X262509000Y-38140000D03*
D19*
X262509000Y-40640000D03*
%TD*%
M02*
