%TF.GenerationSoftware,KiCad,Pcbnew,(5.1.6)-1*%
%TF.CreationDate,2020-11-12T20:03:02-08:00*%
%TF.ProjectId,piezodriver,7069657a-6f64-4726-9976-65722e6b6963,rev?*%
%TF.SameCoordinates,Original*%
%TF.FileFunction,Paste,Top*%
%TF.FilePolarity,Positive*%
%FSLAX46Y46*%
G04 Gerber Fmt 4.6, Leading zero omitted, Abs format (unit mm)*
G04 Created by KiCad (PCBNEW (5.1.6)-1) date 2020-11-12 20:03:02*
%MOMM*%
%LPD*%
G01*
G04 APERTURE LIST*
%ADD10C,0.010000*%
%ADD11R,0.600000X1.550000*%
%ADD12R,1.560000X0.650000*%
%ADD13R,0.650000X1.560000*%
%ADD14R,0.900000X0.800000*%
%ADD15R,2.800000X2.800000*%
%ADD16R,2.800000X2.200000*%
%ADD17R,1.000000X1.000000*%
%ADD18R,1.300000X1.400000*%
G04 APERTURE END LIST*
D10*
%TO.C,U10*%
G36*
X285066000Y-28279000D02*
G01*
X285066000Y-25569000D01*
X288466000Y-25569000D01*
X288466000Y-28279000D01*
X285066000Y-28279000D01*
G37*
X285066000Y-28279000D02*
X285066000Y-25569000D01*
X288466000Y-25569000D01*
X288466000Y-28279000D01*
X285066000Y-28279000D01*
%TO.C,U11*%
G36*
X262968000Y-28279000D02*
G01*
X262968000Y-25569000D01*
X266368000Y-25569000D01*
X266368000Y-28279000D01*
X262968000Y-28279000D01*
G37*
X262968000Y-28279000D02*
X262968000Y-25569000D01*
X266368000Y-25569000D01*
X266368000Y-28279000D01*
X262968000Y-28279000D01*
%TO.C,U9*%
G36*
X245950000Y-28279000D02*
G01*
X245950000Y-25569000D01*
X249350000Y-25569000D01*
X249350000Y-28279000D01*
X245950000Y-28279000D01*
G37*
X245950000Y-28279000D02*
X245950000Y-25569000D01*
X249350000Y-25569000D01*
X249350000Y-28279000D01*
X245950000Y-28279000D01*
%TO.C,U8*%
G36*
X228678000Y-28279000D02*
G01*
X228678000Y-25569000D01*
X232078000Y-25569000D01*
X232078000Y-28279000D01*
X228678000Y-28279000D01*
G37*
X228678000Y-28279000D02*
X228678000Y-25569000D01*
X232078000Y-25569000D01*
X232078000Y-28279000D01*
X228678000Y-28279000D01*
%TO.C,U7*%
G36*
X211660000Y-28279000D02*
G01*
X211660000Y-25569000D01*
X215060000Y-25569000D01*
X215060000Y-28279000D01*
X211660000Y-28279000D01*
G37*
X211660000Y-28279000D02*
X211660000Y-25569000D01*
X215060000Y-25569000D01*
X215060000Y-28279000D01*
X211660000Y-28279000D01*
%TD*%
D11*
%TO.C,U10*%
X284861000Y-24224000D03*
X286131000Y-24224000D03*
X287401000Y-24224000D03*
X288671000Y-24224000D03*
X288671000Y-29624000D03*
X287401000Y-29624000D03*
X286131000Y-29624000D03*
X284861000Y-29624000D03*
%TD*%
%TO.C,U11*%
X262763000Y-24224000D03*
X264033000Y-24224000D03*
X265303000Y-24224000D03*
X266573000Y-24224000D03*
X266573000Y-29624000D03*
X265303000Y-29624000D03*
X264033000Y-29624000D03*
X262763000Y-29624000D03*
%TD*%
%TO.C,U9*%
X245745000Y-24224000D03*
X247015000Y-24224000D03*
X248285000Y-24224000D03*
X249555000Y-24224000D03*
X249555000Y-29624000D03*
X248285000Y-29624000D03*
X247015000Y-29624000D03*
X245745000Y-29624000D03*
%TD*%
%TO.C,U8*%
X228473000Y-24224000D03*
X229743000Y-24224000D03*
X231013000Y-24224000D03*
X232283000Y-24224000D03*
X232283000Y-29624000D03*
X231013000Y-29624000D03*
X229743000Y-29624000D03*
X228473000Y-29624000D03*
%TD*%
%TO.C,U7*%
X211455000Y-24224000D03*
X212725000Y-24224000D03*
X213995000Y-24224000D03*
X215265000Y-24224000D03*
X215265000Y-29624000D03*
X213995000Y-29624000D03*
X212725000Y-29624000D03*
X211455000Y-29624000D03*
%TD*%
D12*
%TO.C,U6*%
X234776000Y-52070000D03*
X234776000Y-51120000D03*
X234776000Y-53020000D03*
X232076000Y-53020000D03*
X232076000Y-52070000D03*
X232076000Y-51120000D03*
%TD*%
%TO.C,C40*%
G36*
G01*
X238172500Y-53561000D02*
X238172500Y-52611000D01*
G75*
G02*
X238422500Y-52361000I250000J0D01*
G01*
X239097500Y-52361000D01*
G75*
G02*
X239347500Y-52611000I0J-250000D01*
G01*
X239347500Y-53561000D01*
G75*
G02*
X239097500Y-53811000I-250000J0D01*
G01*
X238422500Y-53811000D01*
G75*
G02*
X238172500Y-53561000I0J250000D01*
G01*
G37*
G36*
G01*
X236097500Y-53561000D02*
X236097500Y-52611000D01*
G75*
G02*
X236347500Y-52361000I250000J0D01*
G01*
X237022500Y-52361000D01*
G75*
G02*
X237272500Y-52611000I0J-250000D01*
G01*
X237272500Y-53561000D01*
G75*
G02*
X237022500Y-53811000I-250000J0D01*
G01*
X236347500Y-53811000D01*
G75*
G02*
X236097500Y-53561000I0J250000D01*
G01*
G37*
%TD*%
%TO.C,C19*%
G36*
G01*
X237315500Y-50579000D02*
X237315500Y-51529000D01*
G75*
G02*
X237065500Y-51779000I-250000J0D01*
G01*
X236390500Y-51779000D01*
G75*
G02*
X236140500Y-51529000I0J250000D01*
G01*
X236140500Y-50579000D01*
G75*
G02*
X236390500Y-50329000I250000J0D01*
G01*
X237065500Y-50329000D01*
G75*
G02*
X237315500Y-50579000I0J-250000D01*
G01*
G37*
G36*
G01*
X239390500Y-50579000D02*
X239390500Y-51529000D01*
G75*
G02*
X239140500Y-51779000I-250000J0D01*
G01*
X238465500Y-51779000D01*
G75*
G02*
X238215500Y-51529000I0J250000D01*
G01*
X238215500Y-50579000D01*
G75*
G02*
X238465500Y-50329000I250000J0D01*
G01*
X239140500Y-50329000D01*
G75*
G02*
X239390500Y-50579000I0J-250000D01*
G01*
G37*
%TD*%
%TO.C,R25*%
G36*
G01*
X259137999Y-29721000D02*
X260038001Y-29721000D01*
G75*
G02*
X260288000Y-29970999I0J-249999D01*
G01*
X260288000Y-30671001D01*
G75*
G02*
X260038001Y-30921000I-249999J0D01*
G01*
X259137999Y-30921000D01*
G75*
G02*
X258888000Y-30671001I0J249999D01*
G01*
X258888000Y-29970999D01*
G75*
G02*
X259137999Y-29721000I249999J0D01*
G01*
G37*
G36*
G01*
X259137999Y-27721000D02*
X260038001Y-27721000D01*
G75*
G02*
X260288000Y-27970999I0J-249999D01*
G01*
X260288000Y-28671001D01*
G75*
G02*
X260038001Y-28921000I-249999J0D01*
G01*
X259137999Y-28921000D01*
G75*
G02*
X258888000Y-28671001I0J249999D01*
G01*
X258888000Y-27970999D01*
G75*
G02*
X259137999Y-27721000I249999J0D01*
G01*
G37*
%TD*%
%TO.C,R24*%
G36*
G01*
X255835999Y-34182000D02*
X256736001Y-34182000D01*
G75*
G02*
X256986000Y-34431999I0J-249999D01*
G01*
X256986000Y-35132001D01*
G75*
G02*
X256736001Y-35382000I-249999J0D01*
G01*
X255835999Y-35382000D01*
G75*
G02*
X255586000Y-35132001I0J249999D01*
G01*
X255586000Y-34431999D01*
G75*
G02*
X255835999Y-34182000I249999J0D01*
G01*
G37*
G36*
G01*
X255835999Y-32182000D02*
X256736001Y-32182000D01*
G75*
G02*
X256986000Y-32431999I0J-249999D01*
G01*
X256986000Y-33132001D01*
G75*
G02*
X256736001Y-33382000I-249999J0D01*
G01*
X255835999Y-33382000D01*
G75*
G02*
X255586000Y-33132001I0J249999D01*
G01*
X255586000Y-32431999D01*
G75*
G02*
X255835999Y-32182000I249999J0D01*
G01*
G37*
%TD*%
%TO.C,R23*%
G36*
G01*
X262490000Y-20123999D02*
X262490000Y-21024001D01*
G75*
G02*
X262240001Y-21274000I-249999J0D01*
G01*
X261539999Y-21274000D01*
G75*
G02*
X261290000Y-21024001I0J249999D01*
G01*
X261290000Y-20123999D01*
G75*
G02*
X261539999Y-19874000I249999J0D01*
G01*
X262240001Y-19874000D01*
G75*
G02*
X262490000Y-20123999I0J-249999D01*
G01*
G37*
G36*
G01*
X264490000Y-20123999D02*
X264490000Y-21024001D01*
G75*
G02*
X264240001Y-21274000I-249999J0D01*
G01*
X263539999Y-21274000D01*
G75*
G02*
X263290000Y-21024001I0J249999D01*
G01*
X263290000Y-20123999D01*
G75*
G02*
X263539999Y-19874000I249999J0D01*
G01*
X264240001Y-19874000D01*
G75*
G02*
X264490000Y-20123999I0J-249999D01*
G01*
G37*
%TD*%
%TO.C,R22*%
G36*
G01*
X259137999Y-34182000D02*
X260038001Y-34182000D01*
G75*
G02*
X260288000Y-34431999I0J-249999D01*
G01*
X260288000Y-35132001D01*
G75*
G02*
X260038001Y-35382000I-249999J0D01*
G01*
X259137999Y-35382000D01*
G75*
G02*
X258888000Y-35132001I0J249999D01*
G01*
X258888000Y-34431999D01*
G75*
G02*
X259137999Y-34182000I249999J0D01*
G01*
G37*
G36*
G01*
X259137999Y-32182000D02*
X260038001Y-32182000D01*
G75*
G02*
X260288000Y-32431999I0J-249999D01*
G01*
X260288000Y-33132001D01*
G75*
G02*
X260038001Y-33382000I-249999J0D01*
G01*
X259137999Y-33382000D01*
G75*
G02*
X258888000Y-33132001I0J249999D01*
G01*
X258888000Y-32431999D01*
G75*
G02*
X259137999Y-32182000I249999J0D01*
G01*
G37*
%TD*%
%TO.C,R21*%
G36*
G01*
X281108999Y-29848000D02*
X282009001Y-29848000D01*
G75*
G02*
X282259000Y-30097999I0J-249999D01*
G01*
X282259000Y-30798001D01*
G75*
G02*
X282009001Y-31048000I-249999J0D01*
G01*
X281108999Y-31048000D01*
G75*
G02*
X280859000Y-30798001I0J249999D01*
G01*
X280859000Y-30097999D01*
G75*
G02*
X281108999Y-29848000I249999J0D01*
G01*
G37*
G36*
G01*
X281108999Y-27848000D02*
X282009001Y-27848000D01*
G75*
G02*
X282259000Y-28097999I0J-249999D01*
G01*
X282259000Y-28798001D01*
G75*
G02*
X282009001Y-29048000I-249999J0D01*
G01*
X281108999Y-29048000D01*
G75*
G02*
X280859000Y-28798001I0J249999D01*
G01*
X280859000Y-28097999D01*
G75*
G02*
X281108999Y-27848000I249999J0D01*
G01*
G37*
%TD*%
%TO.C,R20*%
G36*
G01*
X277679999Y-34182000D02*
X278580001Y-34182000D01*
G75*
G02*
X278830000Y-34431999I0J-249999D01*
G01*
X278830000Y-35132001D01*
G75*
G02*
X278580001Y-35382000I-249999J0D01*
G01*
X277679999Y-35382000D01*
G75*
G02*
X277430000Y-35132001I0J249999D01*
G01*
X277430000Y-34431999D01*
G75*
G02*
X277679999Y-34182000I249999J0D01*
G01*
G37*
G36*
G01*
X277679999Y-32182000D02*
X278580001Y-32182000D01*
G75*
G02*
X278830000Y-32431999I0J-249999D01*
G01*
X278830000Y-33132001D01*
G75*
G02*
X278580001Y-33382000I-249999J0D01*
G01*
X277679999Y-33382000D01*
G75*
G02*
X277430000Y-33132001I0J249999D01*
G01*
X277430000Y-32431999D01*
G75*
G02*
X277679999Y-32182000I249999J0D01*
G01*
G37*
%TD*%
%TO.C,R19*%
G36*
G01*
X284334000Y-20123999D02*
X284334000Y-21024001D01*
G75*
G02*
X284084001Y-21274000I-249999J0D01*
G01*
X283383999Y-21274000D01*
G75*
G02*
X283134000Y-21024001I0J249999D01*
G01*
X283134000Y-20123999D01*
G75*
G02*
X283383999Y-19874000I249999J0D01*
G01*
X284084001Y-19874000D01*
G75*
G02*
X284334000Y-20123999I0J-249999D01*
G01*
G37*
G36*
G01*
X286334000Y-20123999D02*
X286334000Y-21024001D01*
G75*
G02*
X286084001Y-21274000I-249999J0D01*
G01*
X285383999Y-21274000D01*
G75*
G02*
X285134000Y-21024001I0J249999D01*
G01*
X285134000Y-20123999D01*
G75*
G02*
X285383999Y-19874000I249999J0D01*
G01*
X286084001Y-19874000D01*
G75*
G02*
X286334000Y-20123999I0J-249999D01*
G01*
G37*
%TD*%
%TO.C,R18*%
G36*
G01*
X280981999Y-34182000D02*
X281882001Y-34182000D01*
G75*
G02*
X282132000Y-34431999I0J-249999D01*
G01*
X282132000Y-35132001D01*
G75*
G02*
X281882001Y-35382000I-249999J0D01*
G01*
X280981999Y-35382000D01*
G75*
G02*
X280732000Y-35132001I0J249999D01*
G01*
X280732000Y-34431999D01*
G75*
G02*
X280981999Y-34182000I249999J0D01*
G01*
G37*
G36*
G01*
X280981999Y-32182000D02*
X281882001Y-32182000D01*
G75*
G02*
X282132000Y-32431999I0J-249999D01*
G01*
X282132000Y-33132001D01*
G75*
G02*
X281882001Y-33382000I-249999J0D01*
G01*
X280981999Y-33382000D01*
G75*
G02*
X280732000Y-33132001I0J249999D01*
G01*
X280732000Y-32431999D01*
G75*
G02*
X280981999Y-32182000I249999J0D01*
G01*
G37*
%TD*%
%TO.C,R17*%
G36*
G01*
X242119999Y-30007000D02*
X243020001Y-30007000D01*
G75*
G02*
X243270000Y-30256999I0J-249999D01*
G01*
X243270000Y-30957001D01*
G75*
G02*
X243020001Y-31207000I-249999J0D01*
G01*
X242119999Y-31207000D01*
G75*
G02*
X241870000Y-30957001I0J249999D01*
G01*
X241870000Y-30256999D01*
G75*
G02*
X242119999Y-30007000I249999J0D01*
G01*
G37*
G36*
G01*
X242119999Y-28007000D02*
X243020001Y-28007000D01*
G75*
G02*
X243270000Y-28256999I0J-249999D01*
G01*
X243270000Y-28957001D01*
G75*
G02*
X243020001Y-29207000I-249999J0D01*
G01*
X242119999Y-29207000D01*
G75*
G02*
X241870000Y-28957001I0J249999D01*
G01*
X241870000Y-28256999D01*
G75*
G02*
X242119999Y-28007000I249999J0D01*
G01*
G37*
%TD*%
%TO.C,R16*%
G36*
G01*
X238817999Y-34182000D02*
X239718001Y-34182000D01*
G75*
G02*
X239968000Y-34431999I0J-249999D01*
G01*
X239968000Y-35132001D01*
G75*
G02*
X239718001Y-35382000I-249999J0D01*
G01*
X238817999Y-35382000D01*
G75*
G02*
X238568000Y-35132001I0J249999D01*
G01*
X238568000Y-34431999D01*
G75*
G02*
X238817999Y-34182000I249999J0D01*
G01*
G37*
G36*
G01*
X238817999Y-32182000D02*
X239718001Y-32182000D01*
G75*
G02*
X239968000Y-32431999I0J-249999D01*
G01*
X239968000Y-33132001D01*
G75*
G02*
X239718001Y-33382000I-249999J0D01*
G01*
X238817999Y-33382000D01*
G75*
G02*
X238568000Y-33132001I0J249999D01*
G01*
X238568000Y-32431999D01*
G75*
G02*
X238817999Y-32182000I249999J0D01*
G01*
G37*
%TD*%
%TO.C,R15*%
G36*
G01*
X245472000Y-20123999D02*
X245472000Y-21024001D01*
G75*
G02*
X245222001Y-21274000I-249999J0D01*
G01*
X244521999Y-21274000D01*
G75*
G02*
X244272000Y-21024001I0J249999D01*
G01*
X244272000Y-20123999D01*
G75*
G02*
X244521999Y-19874000I249999J0D01*
G01*
X245222001Y-19874000D01*
G75*
G02*
X245472000Y-20123999I0J-249999D01*
G01*
G37*
G36*
G01*
X247472000Y-20123999D02*
X247472000Y-21024001D01*
G75*
G02*
X247222001Y-21274000I-249999J0D01*
G01*
X246521999Y-21274000D01*
G75*
G02*
X246272000Y-21024001I0J249999D01*
G01*
X246272000Y-20123999D01*
G75*
G02*
X246521999Y-19874000I249999J0D01*
G01*
X247222001Y-19874000D01*
G75*
G02*
X247472000Y-20123999I0J-249999D01*
G01*
G37*
%TD*%
%TO.C,R14*%
G36*
G01*
X242119999Y-34182000D02*
X243020001Y-34182000D01*
G75*
G02*
X243270000Y-34431999I0J-249999D01*
G01*
X243270000Y-35132001D01*
G75*
G02*
X243020001Y-35382000I-249999J0D01*
G01*
X242119999Y-35382000D01*
G75*
G02*
X241870000Y-35132001I0J249999D01*
G01*
X241870000Y-34431999D01*
G75*
G02*
X242119999Y-34182000I249999J0D01*
G01*
G37*
G36*
G01*
X242119999Y-32182000D02*
X243020001Y-32182000D01*
G75*
G02*
X243270000Y-32431999I0J-249999D01*
G01*
X243270000Y-33132001D01*
G75*
G02*
X243020001Y-33382000I-249999J0D01*
G01*
X242119999Y-33382000D01*
G75*
G02*
X241870000Y-33132001I0J249999D01*
G01*
X241870000Y-32431999D01*
G75*
G02*
X242119999Y-32182000I249999J0D01*
G01*
G37*
%TD*%
%TO.C,R13*%
G36*
G01*
X224847999Y-29864000D02*
X225748001Y-29864000D01*
G75*
G02*
X225998000Y-30113999I0J-249999D01*
G01*
X225998000Y-30814001D01*
G75*
G02*
X225748001Y-31064000I-249999J0D01*
G01*
X224847999Y-31064000D01*
G75*
G02*
X224598000Y-30814001I0J249999D01*
G01*
X224598000Y-30113999D01*
G75*
G02*
X224847999Y-29864000I249999J0D01*
G01*
G37*
G36*
G01*
X224847999Y-27864000D02*
X225748001Y-27864000D01*
G75*
G02*
X225998000Y-28113999I0J-249999D01*
G01*
X225998000Y-28814001D01*
G75*
G02*
X225748001Y-29064000I-249999J0D01*
G01*
X224847999Y-29064000D01*
G75*
G02*
X224598000Y-28814001I0J249999D01*
G01*
X224598000Y-28113999D01*
G75*
G02*
X224847999Y-27864000I249999J0D01*
G01*
G37*
%TD*%
%TO.C,R12*%
G36*
G01*
X221291999Y-34182000D02*
X222192001Y-34182000D01*
G75*
G02*
X222442000Y-34431999I0J-249999D01*
G01*
X222442000Y-35132001D01*
G75*
G02*
X222192001Y-35382000I-249999J0D01*
G01*
X221291999Y-35382000D01*
G75*
G02*
X221042000Y-35132001I0J249999D01*
G01*
X221042000Y-34431999D01*
G75*
G02*
X221291999Y-34182000I249999J0D01*
G01*
G37*
G36*
G01*
X221291999Y-32182000D02*
X222192001Y-32182000D01*
G75*
G02*
X222442000Y-32431999I0J-249999D01*
G01*
X222442000Y-33132001D01*
G75*
G02*
X222192001Y-33382000I-249999J0D01*
G01*
X221291999Y-33382000D01*
G75*
G02*
X221042000Y-33132001I0J249999D01*
G01*
X221042000Y-32431999D01*
G75*
G02*
X221291999Y-32182000I249999J0D01*
G01*
G37*
%TD*%
%TO.C,R11*%
G36*
G01*
X228216000Y-20123999D02*
X228216000Y-21024001D01*
G75*
G02*
X227966001Y-21274000I-249999J0D01*
G01*
X227265999Y-21274000D01*
G75*
G02*
X227016000Y-21024001I0J249999D01*
G01*
X227016000Y-20123999D01*
G75*
G02*
X227265999Y-19874000I249999J0D01*
G01*
X227966001Y-19874000D01*
G75*
G02*
X228216000Y-20123999I0J-249999D01*
G01*
G37*
G36*
G01*
X230216000Y-20123999D02*
X230216000Y-21024001D01*
G75*
G02*
X229966001Y-21274000I-249999J0D01*
G01*
X229265999Y-21274000D01*
G75*
G02*
X229016000Y-21024001I0J249999D01*
G01*
X229016000Y-20123999D01*
G75*
G02*
X229265999Y-19874000I249999J0D01*
G01*
X229966001Y-19874000D01*
G75*
G02*
X230216000Y-20123999I0J-249999D01*
G01*
G37*
%TD*%
%TO.C,R10*%
G36*
G01*
X224847999Y-34182000D02*
X225748001Y-34182000D01*
G75*
G02*
X225998000Y-34431999I0J-249999D01*
G01*
X225998000Y-35132001D01*
G75*
G02*
X225748001Y-35382000I-249999J0D01*
G01*
X224847999Y-35382000D01*
G75*
G02*
X224598000Y-35132001I0J249999D01*
G01*
X224598000Y-34431999D01*
G75*
G02*
X224847999Y-34182000I249999J0D01*
G01*
G37*
G36*
G01*
X224847999Y-32182000D02*
X225748001Y-32182000D01*
G75*
G02*
X225998000Y-32431999I0J-249999D01*
G01*
X225998000Y-33132001D01*
G75*
G02*
X225748001Y-33382000I-249999J0D01*
G01*
X224847999Y-33382000D01*
G75*
G02*
X224598000Y-33132001I0J249999D01*
G01*
X224598000Y-32431999D01*
G75*
G02*
X224847999Y-32182000I249999J0D01*
G01*
G37*
%TD*%
%TO.C,R9*%
G36*
G01*
X207829999Y-29864000D02*
X208730001Y-29864000D01*
G75*
G02*
X208980000Y-30113999I0J-249999D01*
G01*
X208980000Y-30814001D01*
G75*
G02*
X208730001Y-31064000I-249999J0D01*
G01*
X207829999Y-31064000D01*
G75*
G02*
X207580000Y-30814001I0J249999D01*
G01*
X207580000Y-30113999D01*
G75*
G02*
X207829999Y-29864000I249999J0D01*
G01*
G37*
G36*
G01*
X207829999Y-27864000D02*
X208730001Y-27864000D01*
G75*
G02*
X208980000Y-28113999I0J-249999D01*
G01*
X208980000Y-28814001D01*
G75*
G02*
X208730001Y-29064000I-249999J0D01*
G01*
X207829999Y-29064000D01*
G75*
G02*
X207580000Y-28814001I0J249999D01*
G01*
X207580000Y-28113999D01*
G75*
G02*
X207829999Y-27864000I249999J0D01*
G01*
G37*
%TD*%
%TO.C,R8*%
G36*
G01*
X204527999Y-34182000D02*
X205428001Y-34182000D01*
G75*
G02*
X205678000Y-34431999I0J-249999D01*
G01*
X205678000Y-35132001D01*
G75*
G02*
X205428001Y-35382000I-249999J0D01*
G01*
X204527999Y-35382000D01*
G75*
G02*
X204278000Y-35132001I0J249999D01*
G01*
X204278000Y-34431999D01*
G75*
G02*
X204527999Y-34182000I249999J0D01*
G01*
G37*
G36*
G01*
X204527999Y-32182000D02*
X205428001Y-32182000D01*
G75*
G02*
X205678000Y-32431999I0J-249999D01*
G01*
X205678000Y-33132001D01*
G75*
G02*
X205428001Y-33382000I-249999J0D01*
G01*
X204527999Y-33382000D01*
G75*
G02*
X204278000Y-33132001I0J249999D01*
G01*
X204278000Y-32431999D01*
G75*
G02*
X204527999Y-32182000I249999J0D01*
G01*
G37*
%TD*%
%TO.C,R7*%
G36*
G01*
X211182000Y-20123999D02*
X211182000Y-21024001D01*
G75*
G02*
X210932001Y-21274000I-249999J0D01*
G01*
X210231999Y-21274000D01*
G75*
G02*
X209982000Y-21024001I0J249999D01*
G01*
X209982000Y-20123999D01*
G75*
G02*
X210231999Y-19874000I249999J0D01*
G01*
X210932001Y-19874000D01*
G75*
G02*
X211182000Y-20123999I0J-249999D01*
G01*
G37*
G36*
G01*
X213182000Y-20123999D02*
X213182000Y-21024001D01*
G75*
G02*
X212932001Y-21274000I-249999J0D01*
G01*
X212231999Y-21274000D01*
G75*
G02*
X211982000Y-21024001I0J249999D01*
G01*
X211982000Y-20123999D01*
G75*
G02*
X212231999Y-19874000I249999J0D01*
G01*
X212932001Y-19874000D01*
G75*
G02*
X213182000Y-20123999I0J-249999D01*
G01*
G37*
%TD*%
%TO.C,R6*%
G36*
G01*
X207829999Y-34182000D02*
X208730001Y-34182000D01*
G75*
G02*
X208980000Y-34431999I0J-249999D01*
G01*
X208980000Y-35132001D01*
G75*
G02*
X208730001Y-35382000I-249999J0D01*
G01*
X207829999Y-35382000D01*
G75*
G02*
X207580000Y-35132001I0J249999D01*
G01*
X207580000Y-34431999D01*
G75*
G02*
X207829999Y-34182000I249999J0D01*
G01*
G37*
G36*
G01*
X207829999Y-32182000D02*
X208730001Y-32182000D01*
G75*
G02*
X208980000Y-32431999I0J-249999D01*
G01*
X208980000Y-33132001D01*
G75*
G02*
X208730001Y-33382000I-249999J0D01*
G01*
X207829999Y-33382000D01*
G75*
G02*
X207580000Y-33132001I0J249999D01*
G01*
X207580000Y-32431999D01*
G75*
G02*
X207829999Y-32182000I249999J0D01*
G01*
G37*
%TD*%
%TO.C,C17*%
G36*
G01*
X235019000Y-60203000D02*
X235019000Y-59253000D01*
G75*
G02*
X235269000Y-59003000I250000J0D01*
G01*
X235944000Y-59003000D01*
G75*
G02*
X236194000Y-59253000I0J-250000D01*
G01*
X236194000Y-60203000D01*
G75*
G02*
X235944000Y-60453000I-250000J0D01*
G01*
X235269000Y-60453000D01*
G75*
G02*
X235019000Y-60203000I0J250000D01*
G01*
G37*
G36*
G01*
X232944000Y-60203000D02*
X232944000Y-59253000D01*
G75*
G02*
X233194000Y-59003000I250000J0D01*
G01*
X233869000Y-59003000D01*
G75*
G02*
X234119000Y-59253000I0J-250000D01*
G01*
X234119000Y-60203000D01*
G75*
G02*
X233869000Y-60453000I-250000J0D01*
G01*
X233194000Y-60453000D01*
G75*
G02*
X232944000Y-60203000I0J250000D01*
G01*
G37*
%TD*%
%TO.C,C16*%
G36*
G01*
X241333000Y-56330000D02*
X242283000Y-56330000D01*
G75*
G02*
X242533000Y-56580000I0J-250000D01*
G01*
X242533000Y-57255000D01*
G75*
G02*
X242283000Y-57505000I-250000J0D01*
G01*
X241333000Y-57505000D01*
G75*
G02*
X241083000Y-57255000I0J250000D01*
G01*
X241083000Y-56580000D01*
G75*
G02*
X241333000Y-56330000I250000J0D01*
G01*
G37*
G36*
G01*
X241333000Y-54255000D02*
X242283000Y-54255000D01*
G75*
G02*
X242533000Y-54505000I0J-250000D01*
G01*
X242533000Y-55180000D01*
G75*
G02*
X242283000Y-55430000I-250000J0D01*
G01*
X241333000Y-55430000D01*
G75*
G02*
X241083000Y-55180000I0J250000D01*
G01*
X241083000Y-54505000D01*
G75*
G02*
X241333000Y-54255000I250000J0D01*
G01*
G37*
%TD*%
%TO.C,C15*%
G36*
G01*
X235019000Y-57625000D02*
X235019000Y-56675000D01*
G75*
G02*
X235269000Y-56425000I250000J0D01*
G01*
X235944000Y-56425000D01*
G75*
G02*
X236194000Y-56675000I0J-250000D01*
G01*
X236194000Y-57625000D01*
G75*
G02*
X235944000Y-57875000I-250000J0D01*
G01*
X235269000Y-57875000D01*
G75*
G02*
X235019000Y-57625000I0J250000D01*
G01*
G37*
G36*
G01*
X232944000Y-57625000D02*
X232944000Y-56675000D01*
G75*
G02*
X233194000Y-56425000I250000J0D01*
G01*
X233869000Y-56425000D01*
G75*
G02*
X234119000Y-56675000I0J-250000D01*
G01*
X234119000Y-57625000D01*
G75*
G02*
X233869000Y-57875000I-250000J0D01*
G01*
X233194000Y-57875000D01*
G75*
G02*
X232944000Y-57625000I0J250000D01*
G01*
G37*
%TD*%
%TO.C,C14*%
G36*
G01*
X224061000Y-58616000D02*
X225011000Y-58616000D01*
G75*
G02*
X225261000Y-58866000I0J-250000D01*
G01*
X225261000Y-59541000D01*
G75*
G02*
X225011000Y-59791000I-250000J0D01*
G01*
X224061000Y-59791000D01*
G75*
G02*
X223811000Y-59541000I0J250000D01*
G01*
X223811000Y-58866000D01*
G75*
G02*
X224061000Y-58616000I250000J0D01*
G01*
G37*
G36*
G01*
X224061000Y-56541000D02*
X225011000Y-56541000D01*
G75*
G02*
X225261000Y-56791000I0J-250000D01*
G01*
X225261000Y-57466000D01*
G75*
G02*
X225011000Y-57716000I-250000J0D01*
G01*
X224061000Y-57716000D01*
G75*
G02*
X223811000Y-57466000I0J250000D01*
G01*
X223811000Y-56791000D01*
G75*
G02*
X224061000Y-56541000I250000J0D01*
G01*
G37*
%TD*%
%TO.C,C13*%
G36*
G01*
X222029000Y-58616000D02*
X222979000Y-58616000D01*
G75*
G02*
X223229000Y-58866000I0J-250000D01*
G01*
X223229000Y-59541000D01*
G75*
G02*
X222979000Y-59791000I-250000J0D01*
G01*
X222029000Y-59791000D01*
G75*
G02*
X221779000Y-59541000I0J250000D01*
G01*
X221779000Y-58866000D01*
G75*
G02*
X222029000Y-58616000I250000J0D01*
G01*
G37*
G36*
G01*
X222029000Y-56541000D02*
X222979000Y-56541000D01*
G75*
G02*
X223229000Y-56791000I0J-250000D01*
G01*
X223229000Y-57466000D01*
G75*
G02*
X222979000Y-57716000I-250000J0D01*
G01*
X222029000Y-57716000D01*
G75*
G02*
X221779000Y-57466000I0J250000D01*
G01*
X221779000Y-56791000D01*
G75*
G02*
X222029000Y-56541000I250000J0D01*
G01*
G37*
%TD*%
%TO.C,C12*%
G36*
G01*
X242766000Y-46830000D02*
X242766000Y-45880000D01*
G75*
G02*
X243016000Y-45630000I250000J0D01*
G01*
X243691000Y-45630000D01*
G75*
G02*
X243941000Y-45880000I0J-250000D01*
G01*
X243941000Y-46830000D01*
G75*
G02*
X243691000Y-47080000I-250000J0D01*
G01*
X243016000Y-47080000D01*
G75*
G02*
X242766000Y-46830000I0J250000D01*
G01*
G37*
G36*
G01*
X240691000Y-46830000D02*
X240691000Y-45880000D01*
G75*
G02*
X240941000Y-45630000I250000J0D01*
G01*
X241616000Y-45630000D01*
G75*
G02*
X241866000Y-45880000I0J-250000D01*
G01*
X241866000Y-46830000D01*
G75*
G02*
X241616000Y-47080000I-250000J0D01*
G01*
X240941000Y-47080000D01*
G75*
G02*
X240691000Y-46830000I0J250000D01*
G01*
G37*
%TD*%
D13*
%TO.C,U5*%
X238506000Y-55118000D03*
X237556000Y-55118000D03*
X239456000Y-55118000D03*
X239456000Y-57818000D03*
X238506000Y-57818000D03*
X237556000Y-57818000D03*
%TD*%
%TO.C,U4*%
G36*
G01*
X224901000Y-50199000D02*
X224701000Y-50199000D01*
G75*
G02*
X224601000Y-50099000I0J100000D01*
G01*
X224601000Y-48824000D01*
G75*
G02*
X224701000Y-48724000I100000J0D01*
G01*
X224901000Y-48724000D01*
G75*
G02*
X225001000Y-48824000I0J-100000D01*
G01*
X225001000Y-50099000D01*
G75*
G02*
X224901000Y-50199000I-100000J0D01*
G01*
G37*
G36*
G01*
X225551000Y-50199000D02*
X225351000Y-50199000D01*
G75*
G02*
X225251000Y-50099000I0J100000D01*
G01*
X225251000Y-48824000D01*
G75*
G02*
X225351000Y-48724000I100000J0D01*
G01*
X225551000Y-48724000D01*
G75*
G02*
X225651000Y-48824000I0J-100000D01*
G01*
X225651000Y-50099000D01*
G75*
G02*
X225551000Y-50199000I-100000J0D01*
G01*
G37*
G36*
G01*
X226201000Y-50199000D02*
X226001000Y-50199000D01*
G75*
G02*
X225901000Y-50099000I0J100000D01*
G01*
X225901000Y-48824000D01*
G75*
G02*
X226001000Y-48724000I100000J0D01*
G01*
X226201000Y-48724000D01*
G75*
G02*
X226301000Y-48824000I0J-100000D01*
G01*
X226301000Y-50099000D01*
G75*
G02*
X226201000Y-50199000I-100000J0D01*
G01*
G37*
G36*
G01*
X226851000Y-50199000D02*
X226651000Y-50199000D01*
G75*
G02*
X226551000Y-50099000I0J100000D01*
G01*
X226551000Y-48824000D01*
G75*
G02*
X226651000Y-48724000I100000J0D01*
G01*
X226851000Y-48724000D01*
G75*
G02*
X226951000Y-48824000I0J-100000D01*
G01*
X226951000Y-50099000D01*
G75*
G02*
X226851000Y-50199000I-100000J0D01*
G01*
G37*
G36*
G01*
X227501000Y-50199000D02*
X227301000Y-50199000D01*
G75*
G02*
X227201000Y-50099000I0J100000D01*
G01*
X227201000Y-48824000D01*
G75*
G02*
X227301000Y-48724000I100000J0D01*
G01*
X227501000Y-48724000D01*
G75*
G02*
X227601000Y-48824000I0J-100000D01*
G01*
X227601000Y-50099000D01*
G75*
G02*
X227501000Y-50199000I-100000J0D01*
G01*
G37*
G36*
G01*
X228151000Y-50199000D02*
X227951000Y-50199000D01*
G75*
G02*
X227851000Y-50099000I0J100000D01*
G01*
X227851000Y-48824000D01*
G75*
G02*
X227951000Y-48724000I100000J0D01*
G01*
X228151000Y-48724000D01*
G75*
G02*
X228251000Y-48824000I0J-100000D01*
G01*
X228251000Y-50099000D01*
G75*
G02*
X228151000Y-50199000I-100000J0D01*
G01*
G37*
G36*
G01*
X228801000Y-50199000D02*
X228601000Y-50199000D01*
G75*
G02*
X228501000Y-50099000I0J100000D01*
G01*
X228501000Y-48824000D01*
G75*
G02*
X228601000Y-48724000I100000J0D01*
G01*
X228801000Y-48724000D01*
G75*
G02*
X228901000Y-48824000I0J-100000D01*
G01*
X228901000Y-50099000D01*
G75*
G02*
X228801000Y-50199000I-100000J0D01*
G01*
G37*
G36*
G01*
X229451000Y-50199000D02*
X229251000Y-50199000D01*
G75*
G02*
X229151000Y-50099000I0J100000D01*
G01*
X229151000Y-48824000D01*
G75*
G02*
X229251000Y-48724000I100000J0D01*
G01*
X229451000Y-48724000D01*
G75*
G02*
X229551000Y-48824000I0J-100000D01*
G01*
X229551000Y-50099000D01*
G75*
G02*
X229451000Y-50199000I-100000J0D01*
G01*
G37*
G36*
G01*
X229451000Y-55924000D02*
X229251000Y-55924000D01*
G75*
G02*
X229151000Y-55824000I0J100000D01*
G01*
X229151000Y-54549000D01*
G75*
G02*
X229251000Y-54449000I100000J0D01*
G01*
X229451000Y-54449000D01*
G75*
G02*
X229551000Y-54549000I0J-100000D01*
G01*
X229551000Y-55824000D01*
G75*
G02*
X229451000Y-55924000I-100000J0D01*
G01*
G37*
G36*
G01*
X228801000Y-55924000D02*
X228601000Y-55924000D01*
G75*
G02*
X228501000Y-55824000I0J100000D01*
G01*
X228501000Y-54549000D01*
G75*
G02*
X228601000Y-54449000I100000J0D01*
G01*
X228801000Y-54449000D01*
G75*
G02*
X228901000Y-54549000I0J-100000D01*
G01*
X228901000Y-55824000D01*
G75*
G02*
X228801000Y-55924000I-100000J0D01*
G01*
G37*
G36*
G01*
X228151000Y-55924000D02*
X227951000Y-55924000D01*
G75*
G02*
X227851000Y-55824000I0J100000D01*
G01*
X227851000Y-54549000D01*
G75*
G02*
X227951000Y-54449000I100000J0D01*
G01*
X228151000Y-54449000D01*
G75*
G02*
X228251000Y-54549000I0J-100000D01*
G01*
X228251000Y-55824000D01*
G75*
G02*
X228151000Y-55924000I-100000J0D01*
G01*
G37*
G36*
G01*
X227501000Y-55924000D02*
X227301000Y-55924000D01*
G75*
G02*
X227201000Y-55824000I0J100000D01*
G01*
X227201000Y-54549000D01*
G75*
G02*
X227301000Y-54449000I100000J0D01*
G01*
X227501000Y-54449000D01*
G75*
G02*
X227601000Y-54549000I0J-100000D01*
G01*
X227601000Y-55824000D01*
G75*
G02*
X227501000Y-55924000I-100000J0D01*
G01*
G37*
G36*
G01*
X226851000Y-55924000D02*
X226651000Y-55924000D01*
G75*
G02*
X226551000Y-55824000I0J100000D01*
G01*
X226551000Y-54549000D01*
G75*
G02*
X226651000Y-54449000I100000J0D01*
G01*
X226851000Y-54449000D01*
G75*
G02*
X226951000Y-54549000I0J-100000D01*
G01*
X226951000Y-55824000D01*
G75*
G02*
X226851000Y-55924000I-100000J0D01*
G01*
G37*
G36*
G01*
X226201000Y-55924000D02*
X226001000Y-55924000D01*
G75*
G02*
X225901000Y-55824000I0J100000D01*
G01*
X225901000Y-54549000D01*
G75*
G02*
X226001000Y-54449000I100000J0D01*
G01*
X226201000Y-54449000D01*
G75*
G02*
X226301000Y-54549000I0J-100000D01*
G01*
X226301000Y-55824000D01*
G75*
G02*
X226201000Y-55924000I-100000J0D01*
G01*
G37*
G36*
G01*
X225551000Y-55924000D02*
X225351000Y-55924000D01*
G75*
G02*
X225251000Y-55824000I0J100000D01*
G01*
X225251000Y-54549000D01*
G75*
G02*
X225351000Y-54449000I100000J0D01*
G01*
X225551000Y-54449000D01*
G75*
G02*
X225651000Y-54549000I0J-100000D01*
G01*
X225651000Y-55824000D01*
G75*
G02*
X225551000Y-55924000I-100000J0D01*
G01*
G37*
G36*
G01*
X224901000Y-55924000D02*
X224701000Y-55924000D01*
G75*
G02*
X224601000Y-55824000I0J100000D01*
G01*
X224601000Y-54549000D01*
G75*
G02*
X224701000Y-54449000I100000J0D01*
G01*
X224901000Y-54449000D01*
G75*
G02*
X225001000Y-54549000I0J-100000D01*
G01*
X225001000Y-55824000D01*
G75*
G02*
X224901000Y-55924000I-100000J0D01*
G01*
G37*
%TD*%
D12*
%TO.C,U3*%
X241220000Y-49403000D03*
X241220000Y-50353000D03*
X241220000Y-48453000D03*
X243920000Y-48453000D03*
X243920000Y-49403000D03*
X243920000Y-50353000D03*
%TD*%
%TO.C,U2*%
G36*
G01*
X214194000Y-55465000D02*
X214394000Y-55465000D01*
G75*
G02*
X214494000Y-55565000I0J-100000D01*
G01*
X214494000Y-56840000D01*
G75*
G02*
X214394000Y-56940000I-100000J0D01*
G01*
X214194000Y-56940000D01*
G75*
G02*
X214094000Y-56840000I0J100000D01*
G01*
X214094000Y-55565000D01*
G75*
G02*
X214194000Y-55465000I100000J0D01*
G01*
G37*
G36*
G01*
X213544000Y-55465000D02*
X213744000Y-55465000D01*
G75*
G02*
X213844000Y-55565000I0J-100000D01*
G01*
X213844000Y-56840000D01*
G75*
G02*
X213744000Y-56940000I-100000J0D01*
G01*
X213544000Y-56940000D01*
G75*
G02*
X213444000Y-56840000I0J100000D01*
G01*
X213444000Y-55565000D01*
G75*
G02*
X213544000Y-55465000I100000J0D01*
G01*
G37*
G36*
G01*
X212894000Y-55465000D02*
X213094000Y-55465000D01*
G75*
G02*
X213194000Y-55565000I0J-100000D01*
G01*
X213194000Y-56840000D01*
G75*
G02*
X213094000Y-56940000I-100000J0D01*
G01*
X212894000Y-56940000D01*
G75*
G02*
X212794000Y-56840000I0J100000D01*
G01*
X212794000Y-55565000D01*
G75*
G02*
X212894000Y-55465000I100000J0D01*
G01*
G37*
G36*
G01*
X212244000Y-55465000D02*
X212444000Y-55465000D01*
G75*
G02*
X212544000Y-55565000I0J-100000D01*
G01*
X212544000Y-56840000D01*
G75*
G02*
X212444000Y-56940000I-100000J0D01*
G01*
X212244000Y-56940000D01*
G75*
G02*
X212144000Y-56840000I0J100000D01*
G01*
X212144000Y-55565000D01*
G75*
G02*
X212244000Y-55465000I100000J0D01*
G01*
G37*
G36*
G01*
X211594000Y-55465000D02*
X211794000Y-55465000D01*
G75*
G02*
X211894000Y-55565000I0J-100000D01*
G01*
X211894000Y-56840000D01*
G75*
G02*
X211794000Y-56940000I-100000J0D01*
G01*
X211594000Y-56940000D01*
G75*
G02*
X211494000Y-56840000I0J100000D01*
G01*
X211494000Y-55565000D01*
G75*
G02*
X211594000Y-55465000I100000J0D01*
G01*
G37*
G36*
G01*
X210944000Y-55465000D02*
X211144000Y-55465000D01*
G75*
G02*
X211244000Y-55565000I0J-100000D01*
G01*
X211244000Y-56840000D01*
G75*
G02*
X211144000Y-56940000I-100000J0D01*
G01*
X210944000Y-56940000D01*
G75*
G02*
X210844000Y-56840000I0J100000D01*
G01*
X210844000Y-55565000D01*
G75*
G02*
X210944000Y-55465000I100000J0D01*
G01*
G37*
G36*
G01*
X210294000Y-55465000D02*
X210494000Y-55465000D01*
G75*
G02*
X210594000Y-55565000I0J-100000D01*
G01*
X210594000Y-56840000D01*
G75*
G02*
X210494000Y-56940000I-100000J0D01*
G01*
X210294000Y-56940000D01*
G75*
G02*
X210194000Y-56840000I0J100000D01*
G01*
X210194000Y-55565000D01*
G75*
G02*
X210294000Y-55465000I100000J0D01*
G01*
G37*
G36*
G01*
X210294000Y-49740000D02*
X210494000Y-49740000D01*
G75*
G02*
X210594000Y-49840000I0J-100000D01*
G01*
X210594000Y-51115000D01*
G75*
G02*
X210494000Y-51215000I-100000J0D01*
G01*
X210294000Y-51215000D01*
G75*
G02*
X210194000Y-51115000I0J100000D01*
G01*
X210194000Y-49840000D01*
G75*
G02*
X210294000Y-49740000I100000J0D01*
G01*
G37*
G36*
G01*
X210944000Y-49740000D02*
X211144000Y-49740000D01*
G75*
G02*
X211244000Y-49840000I0J-100000D01*
G01*
X211244000Y-51115000D01*
G75*
G02*
X211144000Y-51215000I-100000J0D01*
G01*
X210944000Y-51215000D01*
G75*
G02*
X210844000Y-51115000I0J100000D01*
G01*
X210844000Y-49840000D01*
G75*
G02*
X210944000Y-49740000I100000J0D01*
G01*
G37*
G36*
G01*
X211594000Y-49740000D02*
X211794000Y-49740000D01*
G75*
G02*
X211894000Y-49840000I0J-100000D01*
G01*
X211894000Y-51115000D01*
G75*
G02*
X211794000Y-51215000I-100000J0D01*
G01*
X211594000Y-51215000D01*
G75*
G02*
X211494000Y-51115000I0J100000D01*
G01*
X211494000Y-49840000D01*
G75*
G02*
X211594000Y-49740000I100000J0D01*
G01*
G37*
G36*
G01*
X212244000Y-49740000D02*
X212444000Y-49740000D01*
G75*
G02*
X212544000Y-49840000I0J-100000D01*
G01*
X212544000Y-51115000D01*
G75*
G02*
X212444000Y-51215000I-100000J0D01*
G01*
X212244000Y-51215000D01*
G75*
G02*
X212144000Y-51115000I0J100000D01*
G01*
X212144000Y-49840000D01*
G75*
G02*
X212244000Y-49740000I100000J0D01*
G01*
G37*
G36*
G01*
X212894000Y-49740000D02*
X213094000Y-49740000D01*
G75*
G02*
X213194000Y-49840000I0J-100000D01*
G01*
X213194000Y-51115000D01*
G75*
G02*
X213094000Y-51215000I-100000J0D01*
G01*
X212894000Y-51215000D01*
G75*
G02*
X212794000Y-51115000I0J100000D01*
G01*
X212794000Y-49840000D01*
G75*
G02*
X212894000Y-49740000I100000J0D01*
G01*
G37*
G36*
G01*
X213544000Y-49740000D02*
X213744000Y-49740000D01*
G75*
G02*
X213844000Y-49840000I0J-100000D01*
G01*
X213844000Y-51115000D01*
G75*
G02*
X213744000Y-51215000I-100000J0D01*
G01*
X213544000Y-51215000D01*
G75*
G02*
X213444000Y-51115000I0J100000D01*
G01*
X213444000Y-49840000D01*
G75*
G02*
X213544000Y-49740000I100000J0D01*
G01*
G37*
G36*
G01*
X214194000Y-49740000D02*
X214394000Y-49740000D01*
G75*
G02*
X214494000Y-49840000I0J-100000D01*
G01*
X214494000Y-51115000D01*
G75*
G02*
X214394000Y-51215000I-100000J0D01*
G01*
X214194000Y-51215000D01*
G75*
G02*
X214094000Y-51115000I0J100000D01*
G01*
X214094000Y-49840000D01*
G75*
G02*
X214194000Y-49740000I100000J0D01*
G01*
G37*
%TD*%
D14*
%TO.C,U1*%
X209280000Y-46990000D03*
X207280000Y-47940000D03*
X207280000Y-46040000D03*
%TD*%
D15*
%TO.C,SAMPLE1*%
X288654000Y-21040000D03*
D16*
X288654000Y-11640000D03*
X296054000Y-13640000D03*
%TD*%
%TO.C,R5*%
G36*
G01*
X234842000Y-55568001D02*
X234842000Y-54667999D01*
G75*
G02*
X235091999Y-54418000I249999J0D01*
G01*
X235792001Y-54418000D01*
G75*
G02*
X236042000Y-54667999I0J-249999D01*
G01*
X236042000Y-55568001D01*
G75*
G02*
X235792001Y-55818000I-249999J0D01*
G01*
X235091999Y-55818000D01*
G75*
G02*
X234842000Y-55568001I0J249999D01*
G01*
G37*
G36*
G01*
X232842000Y-55568001D02*
X232842000Y-54667999D01*
G75*
G02*
X233091999Y-54418000I249999J0D01*
G01*
X233792001Y-54418000D01*
G75*
G02*
X234042000Y-54667999I0J-249999D01*
G01*
X234042000Y-55568001D01*
G75*
G02*
X233792001Y-55818000I-249999J0D01*
G01*
X233091999Y-55818000D01*
G75*
G02*
X232842000Y-55568001I0J249999D01*
G01*
G37*
%TD*%
%TO.C,R4*%
G36*
G01*
X219475000Y-49345001D02*
X219475000Y-48444999D01*
G75*
G02*
X219724999Y-48195000I249999J0D01*
G01*
X220425001Y-48195000D01*
G75*
G02*
X220675000Y-48444999I0J-249999D01*
G01*
X220675000Y-49345001D01*
G75*
G02*
X220425001Y-49595000I-249999J0D01*
G01*
X219724999Y-49595000D01*
G75*
G02*
X219475000Y-49345001I0J249999D01*
G01*
G37*
G36*
G01*
X217475000Y-49345001D02*
X217475000Y-48444999D01*
G75*
G02*
X217724999Y-48195000I249999J0D01*
G01*
X218425001Y-48195000D01*
G75*
G02*
X218675000Y-48444999I0J-249999D01*
G01*
X218675000Y-49345001D01*
G75*
G02*
X218425001Y-49595000I-249999J0D01*
G01*
X217724999Y-49595000D01*
G75*
G02*
X217475000Y-49345001I0J249999D01*
G01*
G37*
%TD*%
%TO.C,R3*%
G36*
G01*
X224339999Y-46374000D02*
X225240001Y-46374000D01*
G75*
G02*
X225490000Y-46623999I0J-249999D01*
G01*
X225490000Y-47324001D01*
G75*
G02*
X225240001Y-47574000I-249999J0D01*
G01*
X224339999Y-47574000D01*
G75*
G02*
X224090000Y-47324001I0J249999D01*
G01*
X224090000Y-46623999D01*
G75*
G02*
X224339999Y-46374000I249999J0D01*
G01*
G37*
G36*
G01*
X224339999Y-44374000D02*
X225240001Y-44374000D01*
G75*
G02*
X225490000Y-44623999I0J-249999D01*
G01*
X225490000Y-45324001D01*
G75*
G02*
X225240001Y-45574000I-249999J0D01*
G01*
X224339999Y-45574000D01*
G75*
G02*
X224090000Y-45324001I0J249999D01*
G01*
X224090000Y-44623999D01*
G75*
G02*
X224339999Y-44374000I249999J0D01*
G01*
G37*
%TD*%
%TO.C,R2*%
G36*
G01*
X252660999Y-60598000D02*
X253561001Y-60598000D01*
G75*
G02*
X253811000Y-60847999I0J-249999D01*
G01*
X253811000Y-61548001D01*
G75*
G02*
X253561001Y-61798000I-249999J0D01*
G01*
X252660999Y-61798000D01*
G75*
G02*
X252411000Y-61548001I0J249999D01*
G01*
X252411000Y-60847999D01*
G75*
G02*
X252660999Y-60598000I249999J0D01*
G01*
G37*
G36*
G01*
X252660999Y-58598000D02*
X253561001Y-58598000D01*
G75*
G02*
X253811000Y-58847999I0J-249999D01*
G01*
X253811000Y-59548001D01*
G75*
G02*
X253561001Y-59798000I-249999J0D01*
G01*
X252660999Y-59798000D01*
G75*
G02*
X252411000Y-59548001I0J249999D01*
G01*
X252411000Y-58847999D01*
G75*
G02*
X252660999Y-58598000I249999J0D01*
G01*
G37*
%TD*%
%TO.C,R1*%
G36*
G01*
X264610001Y-59925000D02*
X263709999Y-59925000D01*
G75*
G02*
X263460000Y-59675001I0J249999D01*
G01*
X263460000Y-58974999D01*
G75*
G02*
X263709999Y-58725000I249999J0D01*
G01*
X264610001Y-58725000D01*
G75*
G02*
X264860000Y-58974999I0J-249999D01*
G01*
X264860000Y-59675001D01*
G75*
G02*
X264610001Y-59925000I-249999J0D01*
G01*
G37*
G36*
G01*
X264610001Y-61925000D02*
X263709999Y-61925000D01*
G75*
G02*
X263460000Y-61675001I0J249999D01*
G01*
X263460000Y-60974999D01*
G75*
G02*
X263709999Y-60725000I249999J0D01*
G01*
X264610001Y-60725000D01*
G75*
G02*
X264860000Y-60974999I0J-249999D01*
G01*
X264860000Y-61675001D01*
G75*
G02*
X264610001Y-61925000I-249999J0D01*
G01*
G37*
%TD*%
D17*
%TO.C,D6*%
X255671000Y-61087000D03*
X258171000Y-61087000D03*
%TD*%
%TO.C,D5*%
X269220000Y-61087000D03*
X266720000Y-61087000D03*
%TD*%
D18*
%TO.C,D4*%
X288872000Y-64135000D03*
X291772000Y-64135000D03*
%TD*%
%TO.C,D3*%
X288872000Y-45085000D03*
X291772000Y-45085000D03*
%TD*%
%TO.C,D2*%
X291899000Y-42545000D03*
X288999000Y-42545000D03*
%TD*%
%TO.C,D1*%
X291899000Y-66675000D03*
X288999000Y-66675000D03*
%TD*%
D15*
%TO.C,CH4*%
X266954000Y-21082000D03*
D16*
X266954000Y-11682000D03*
X274354000Y-13682000D03*
%TD*%
D15*
%TO.C,CH3*%
X249792000Y-21040000D03*
D16*
X249792000Y-11640000D03*
X257192000Y-13640000D03*
%TD*%
D15*
%TO.C,CH2*%
X232520000Y-21040000D03*
D16*
X232520000Y-11640000D03*
X239920000Y-13640000D03*
%TD*%
D15*
%TO.C,CH1*%
X215502000Y-21294000D03*
D16*
X215502000Y-11894000D03*
X222902000Y-13894000D03*
%TD*%
%TO.C,C39*%
G36*
G01*
X268826000Y-30284000D02*
X267876000Y-30284000D01*
G75*
G02*
X267626000Y-30034000I0J250000D01*
G01*
X267626000Y-29359000D01*
G75*
G02*
X267876000Y-29109000I250000J0D01*
G01*
X268826000Y-29109000D01*
G75*
G02*
X269076000Y-29359000I0J-250000D01*
G01*
X269076000Y-30034000D01*
G75*
G02*
X268826000Y-30284000I-250000J0D01*
G01*
G37*
G36*
G01*
X268826000Y-32359000D02*
X267876000Y-32359000D01*
G75*
G02*
X267626000Y-32109000I0J250000D01*
G01*
X267626000Y-31434000D01*
G75*
G02*
X267876000Y-31184000I250000J0D01*
G01*
X268826000Y-31184000D01*
G75*
G02*
X269076000Y-31434000I0J-250000D01*
G01*
X269076000Y-32109000D01*
G75*
G02*
X268826000Y-32359000I-250000J0D01*
G01*
G37*
%TD*%
%TO.C,C38*%
G36*
G01*
X259113000Y-24347500D02*
X260063000Y-24347500D01*
G75*
G02*
X260313000Y-24597500I0J-250000D01*
G01*
X260313000Y-25272500D01*
G75*
G02*
X260063000Y-25522500I-250000J0D01*
G01*
X259113000Y-25522500D01*
G75*
G02*
X258863000Y-25272500I0J250000D01*
G01*
X258863000Y-24597500D01*
G75*
G02*
X259113000Y-24347500I250000J0D01*
G01*
G37*
G36*
G01*
X259113000Y-22272500D02*
X260063000Y-22272500D01*
G75*
G02*
X260313000Y-22522500I0J-250000D01*
G01*
X260313000Y-23197500D01*
G75*
G02*
X260063000Y-23447500I-250000J0D01*
G01*
X259113000Y-23447500D01*
G75*
G02*
X258863000Y-23197500I0J250000D01*
G01*
X258863000Y-22522500D01*
G75*
G02*
X259113000Y-22272500I250000J0D01*
G01*
G37*
%TD*%
%TO.C,C37*%
G36*
G01*
X267763500Y-34511000D02*
X267763500Y-33561000D01*
G75*
G02*
X268013500Y-33311000I250000J0D01*
G01*
X268688500Y-33311000D01*
G75*
G02*
X268938500Y-33561000I0J-250000D01*
G01*
X268938500Y-34511000D01*
G75*
G02*
X268688500Y-34761000I-250000J0D01*
G01*
X268013500Y-34761000D01*
G75*
G02*
X267763500Y-34511000I0J250000D01*
G01*
G37*
G36*
G01*
X265688500Y-34511000D02*
X265688500Y-33561000D01*
G75*
G02*
X265938500Y-33311000I250000J0D01*
G01*
X266613500Y-33311000D01*
G75*
G02*
X266863500Y-33561000I0J-250000D01*
G01*
X266863500Y-34511000D01*
G75*
G02*
X266613500Y-34761000I-250000J0D01*
G01*
X265938500Y-34761000D01*
G75*
G02*
X265688500Y-34511000I0J250000D01*
G01*
G37*
%TD*%
%TO.C,C36*%
G36*
G01*
X255811000Y-29808500D02*
X256761000Y-29808500D01*
G75*
G02*
X257011000Y-30058500I0J-250000D01*
G01*
X257011000Y-30733500D01*
G75*
G02*
X256761000Y-30983500I-250000J0D01*
G01*
X255811000Y-30983500D01*
G75*
G02*
X255561000Y-30733500I0J250000D01*
G01*
X255561000Y-30058500D01*
G75*
G02*
X255811000Y-29808500I250000J0D01*
G01*
G37*
G36*
G01*
X255811000Y-27733500D02*
X256761000Y-27733500D01*
G75*
G02*
X257011000Y-27983500I0J-250000D01*
G01*
X257011000Y-28658500D01*
G75*
G02*
X256761000Y-28908500I-250000J0D01*
G01*
X255811000Y-28908500D01*
G75*
G02*
X255561000Y-28658500I0J250000D01*
G01*
X255561000Y-27983500D01*
G75*
G02*
X255811000Y-27733500I250000J0D01*
G01*
G37*
%TD*%
%TO.C,C35*%
G36*
G01*
X291051000Y-30284000D02*
X290101000Y-30284000D01*
G75*
G02*
X289851000Y-30034000I0J250000D01*
G01*
X289851000Y-29359000D01*
G75*
G02*
X290101000Y-29109000I250000J0D01*
G01*
X291051000Y-29109000D01*
G75*
G02*
X291301000Y-29359000I0J-250000D01*
G01*
X291301000Y-30034000D01*
G75*
G02*
X291051000Y-30284000I-250000J0D01*
G01*
G37*
G36*
G01*
X291051000Y-32359000D02*
X290101000Y-32359000D01*
G75*
G02*
X289851000Y-32109000I0J250000D01*
G01*
X289851000Y-31434000D01*
G75*
G02*
X290101000Y-31184000I250000J0D01*
G01*
X291051000Y-31184000D01*
G75*
G02*
X291301000Y-31434000I0J-250000D01*
G01*
X291301000Y-32109000D01*
G75*
G02*
X291051000Y-32359000I-250000J0D01*
G01*
G37*
%TD*%
%TO.C,C34*%
G36*
G01*
X281211000Y-24326000D02*
X282161000Y-24326000D01*
G75*
G02*
X282411000Y-24576000I0J-250000D01*
G01*
X282411000Y-25251000D01*
G75*
G02*
X282161000Y-25501000I-250000J0D01*
G01*
X281211000Y-25501000D01*
G75*
G02*
X280961000Y-25251000I0J250000D01*
G01*
X280961000Y-24576000D01*
G75*
G02*
X281211000Y-24326000I250000J0D01*
G01*
G37*
G36*
G01*
X281211000Y-22251000D02*
X282161000Y-22251000D01*
G75*
G02*
X282411000Y-22501000I0J-250000D01*
G01*
X282411000Y-23176000D01*
G75*
G02*
X282161000Y-23426000I-250000J0D01*
G01*
X281211000Y-23426000D01*
G75*
G02*
X280961000Y-23176000I0J250000D01*
G01*
X280961000Y-22501000D01*
G75*
G02*
X281211000Y-22251000I250000J0D01*
G01*
G37*
%TD*%
%TO.C,C33*%
G36*
G01*
X289861500Y-34511000D02*
X289861500Y-33561000D01*
G75*
G02*
X290111500Y-33311000I250000J0D01*
G01*
X290786500Y-33311000D01*
G75*
G02*
X291036500Y-33561000I0J-250000D01*
G01*
X291036500Y-34511000D01*
G75*
G02*
X290786500Y-34761000I-250000J0D01*
G01*
X290111500Y-34761000D01*
G75*
G02*
X289861500Y-34511000I0J250000D01*
G01*
G37*
G36*
G01*
X287786500Y-34511000D02*
X287786500Y-33561000D01*
G75*
G02*
X288036500Y-33311000I250000J0D01*
G01*
X288711500Y-33311000D01*
G75*
G02*
X288961500Y-33561000I0J-250000D01*
G01*
X288961500Y-34511000D01*
G75*
G02*
X288711500Y-34761000I-250000J0D01*
G01*
X288036500Y-34761000D01*
G75*
G02*
X287786500Y-34511000I0J250000D01*
G01*
G37*
%TD*%
%TO.C,C32*%
G36*
G01*
X277655000Y-29935500D02*
X278605000Y-29935500D01*
G75*
G02*
X278855000Y-30185500I0J-250000D01*
G01*
X278855000Y-30860500D01*
G75*
G02*
X278605000Y-31110500I-250000J0D01*
G01*
X277655000Y-31110500D01*
G75*
G02*
X277405000Y-30860500I0J250000D01*
G01*
X277405000Y-30185500D01*
G75*
G02*
X277655000Y-29935500I250000J0D01*
G01*
G37*
G36*
G01*
X277655000Y-27860500D02*
X278605000Y-27860500D01*
G75*
G02*
X278855000Y-28110500I0J-250000D01*
G01*
X278855000Y-28785500D01*
G75*
G02*
X278605000Y-29035500I-250000J0D01*
G01*
X277655000Y-29035500D01*
G75*
G02*
X277405000Y-28785500I0J250000D01*
G01*
X277405000Y-28110500D01*
G75*
G02*
X277655000Y-27860500I250000J0D01*
G01*
G37*
%TD*%
%TO.C,C31*%
G36*
G01*
X251935000Y-30178500D02*
X250985000Y-30178500D01*
G75*
G02*
X250735000Y-29928500I0J250000D01*
G01*
X250735000Y-29253500D01*
G75*
G02*
X250985000Y-29003500I250000J0D01*
G01*
X251935000Y-29003500D01*
G75*
G02*
X252185000Y-29253500I0J-250000D01*
G01*
X252185000Y-29928500D01*
G75*
G02*
X251935000Y-30178500I-250000J0D01*
G01*
G37*
G36*
G01*
X251935000Y-32253500D02*
X250985000Y-32253500D01*
G75*
G02*
X250735000Y-32003500I0J250000D01*
G01*
X250735000Y-31328500D01*
G75*
G02*
X250985000Y-31078500I250000J0D01*
G01*
X251935000Y-31078500D01*
G75*
G02*
X252185000Y-31328500I0J-250000D01*
G01*
X252185000Y-32003500D01*
G75*
G02*
X251935000Y-32253500I-250000J0D01*
G01*
G37*
%TD*%
%TO.C,C30*%
G36*
G01*
X242095000Y-24326000D02*
X243045000Y-24326000D01*
G75*
G02*
X243295000Y-24576000I0J-250000D01*
G01*
X243295000Y-25251000D01*
G75*
G02*
X243045000Y-25501000I-250000J0D01*
G01*
X242095000Y-25501000D01*
G75*
G02*
X241845000Y-25251000I0J250000D01*
G01*
X241845000Y-24576000D01*
G75*
G02*
X242095000Y-24326000I250000J0D01*
G01*
G37*
G36*
G01*
X242095000Y-22251000D02*
X243045000Y-22251000D01*
G75*
G02*
X243295000Y-22501000I0J-250000D01*
G01*
X243295000Y-23176000D01*
G75*
G02*
X243045000Y-23426000I-250000J0D01*
G01*
X242095000Y-23426000D01*
G75*
G02*
X241845000Y-23176000I0J250000D01*
G01*
X241845000Y-22501000D01*
G75*
G02*
X242095000Y-22251000I250000J0D01*
G01*
G37*
%TD*%
%TO.C,C29*%
G36*
G01*
X250872500Y-34511000D02*
X250872500Y-33561000D01*
G75*
G02*
X251122500Y-33311000I250000J0D01*
G01*
X251797500Y-33311000D01*
G75*
G02*
X252047500Y-33561000I0J-250000D01*
G01*
X252047500Y-34511000D01*
G75*
G02*
X251797500Y-34761000I-250000J0D01*
G01*
X251122500Y-34761000D01*
G75*
G02*
X250872500Y-34511000I0J250000D01*
G01*
G37*
G36*
G01*
X248797500Y-34511000D02*
X248797500Y-33561000D01*
G75*
G02*
X249047500Y-33311000I250000J0D01*
G01*
X249722500Y-33311000D01*
G75*
G02*
X249972500Y-33561000I0J-250000D01*
G01*
X249972500Y-34511000D01*
G75*
G02*
X249722500Y-34761000I-250000J0D01*
G01*
X249047500Y-34761000D01*
G75*
G02*
X248797500Y-34511000I0J250000D01*
G01*
G37*
%TD*%
%TO.C,C28*%
G36*
G01*
X238793000Y-29892500D02*
X239743000Y-29892500D01*
G75*
G02*
X239993000Y-30142500I0J-250000D01*
G01*
X239993000Y-30817500D01*
G75*
G02*
X239743000Y-31067500I-250000J0D01*
G01*
X238793000Y-31067500D01*
G75*
G02*
X238543000Y-30817500I0J250000D01*
G01*
X238543000Y-30142500D01*
G75*
G02*
X238793000Y-29892500I250000J0D01*
G01*
G37*
G36*
G01*
X238793000Y-27817500D02*
X239743000Y-27817500D01*
G75*
G02*
X239993000Y-28067500I0J-250000D01*
G01*
X239993000Y-28742500D01*
G75*
G02*
X239743000Y-28992500I-250000J0D01*
G01*
X238793000Y-28992500D01*
G75*
G02*
X238543000Y-28742500I0J250000D01*
G01*
X238543000Y-28067500D01*
G75*
G02*
X238793000Y-27817500I250000J0D01*
G01*
G37*
%TD*%
%TO.C,C27*%
G36*
G01*
X234663000Y-30178500D02*
X233713000Y-30178500D01*
G75*
G02*
X233463000Y-29928500I0J250000D01*
G01*
X233463000Y-29253500D01*
G75*
G02*
X233713000Y-29003500I250000J0D01*
G01*
X234663000Y-29003500D01*
G75*
G02*
X234913000Y-29253500I0J-250000D01*
G01*
X234913000Y-29928500D01*
G75*
G02*
X234663000Y-30178500I-250000J0D01*
G01*
G37*
G36*
G01*
X234663000Y-32253500D02*
X233713000Y-32253500D01*
G75*
G02*
X233463000Y-32003500I0J250000D01*
G01*
X233463000Y-31328500D01*
G75*
G02*
X233713000Y-31078500I250000J0D01*
G01*
X234663000Y-31078500D01*
G75*
G02*
X234913000Y-31328500I0J-250000D01*
G01*
X234913000Y-32003500D01*
G75*
G02*
X234663000Y-32253500I-250000J0D01*
G01*
G37*
%TD*%
%TO.C,C26*%
G36*
G01*
X224823000Y-24304500D02*
X225773000Y-24304500D01*
G75*
G02*
X226023000Y-24554500I0J-250000D01*
G01*
X226023000Y-25229500D01*
G75*
G02*
X225773000Y-25479500I-250000J0D01*
G01*
X224823000Y-25479500D01*
G75*
G02*
X224573000Y-25229500I0J250000D01*
G01*
X224573000Y-24554500D01*
G75*
G02*
X224823000Y-24304500I250000J0D01*
G01*
G37*
G36*
G01*
X224823000Y-22229500D02*
X225773000Y-22229500D01*
G75*
G02*
X226023000Y-22479500I0J-250000D01*
G01*
X226023000Y-23154500D01*
G75*
G02*
X225773000Y-23404500I-250000J0D01*
G01*
X224823000Y-23404500D01*
G75*
G02*
X224573000Y-23154500I0J250000D01*
G01*
X224573000Y-22479500D01*
G75*
G02*
X224823000Y-22229500I250000J0D01*
G01*
G37*
%TD*%
%TO.C,C25*%
G36*
G01*
X233473500Y-34384000D02*
X233473500Y-33434000D01*
G75*
G02*
X233723500Y-33184000I250000J0D01*
G01*
X234398500Y-33184000D01*
G75*
G02*
X234648500Y-33434000I0J-250000D01*
G01*
X234648500Y-34384000D01*
G75*
G02*
X234398500Y-34634000I-250000J0D01*
G01*
X233723500Y-34634000D01*
G75*
G02*
X233473500Y-34384000I0J250000D01*
G01*
G37*
G36*
G01*
X231398500Y-34384000D02*
X231398500Y-33434000D01*
G75*
G02*
X231648500Y-33184000I250000J0D01*
G01*
X232323500Y-33184000D01*
G75*
G02*
X232573500Y-33434000I0J-250000D01*
G01*
X232573500Y-34384000D01*
G75*
G02*
X232323500Y-34634000I-250000J0D01*
G01*
X231648500Y-34634000D01*
G75*
G02*
X231398500Y-34384000I0J250000D01*
G01*
G37*
%TD*%
%TO.C,C24*%
G36*
G01*
X221267000Y-29914000D02*
X222217000Y-29914000D01*
G75*
G02*
X222467000Y-30164000I0J-250000D01*
G01*
X222467000Y-30839000D01*
G75*
G02*
X222217000Y-31089000I-250000J0D01*
G01*
X221267000Y-31089000D01*
G75*
G02*
X221017000Y-30839000I0J250000D01*
G01*
X221017000Y-30164000D01*
G75*
G02*
X221267000Y-29914000I250000J0D01*
G01*
G37*
G36*
G01*
X221267000Y-27839000D02*
X222217000Y-27839000D01*
G75*
G02*
X222467000Y-28089000I0J-250000D01*
G01*
X222467000Y-28764000D01*
G75*
G02*
X222217000Y-29014000I-250000J0D01*
G01*
X221267000Y-29014000D01*
G75*
G02*
X221017000Y-28764000I0J250000D01*
G01*
X221017000Y-28089000D01*
G75*
G02*
X221267000Y-27839000I250000J0D01*
G01*
G37*
%TD*%
%TO.C,C23*%
G36*
G01*
X217645000Y-30284000D02*
X216695000Y-30284000D01*
G75*
G02*
X216445000Y-30034000I0J250000D01*
G01*
X216445000Y-29359000D01*
G75*
G02*
X216695000Y-29109000I250000J0D01*
G01*
X217645000Y-29109000D01*
G75*
G02*
X217895000Y-29359000I0J-250000D01*
G01*
X217895000Y-30034000D01*
G75*
G02*
X217645000Y-30284000I-250000J0D01*
G01*
G37*
G36*
G01*
X217645000Y-32359000D02*
X216695000Y-32359000D01*
G75*
G02*
X216445000Y-32109000I0J250000D01*
G01*
X216445000Y-31434000D01*
G75*
G02*
X216695000Y-31184000I250000J0D01*
G01*
X217645000Y-31184000D01*
G75*
G02*
X217895000Y-31434000I0J-250000D01*
G01*
X217895000Y-32109000D01*
G75*
G02*
X217645000Y-32359000I-250000J0D01*
G01*
G37*
%TD*%
%TO.C,C22*%
G36*
G01*
X207805000Y-24326000D02*
X208755000Y-24326000D01*
G75*
G02*
X209005000Y-24576000I0J-250000D01*
G01*
X209005000Y-25251000D01*
G75*
G02*
X208755000Y-25501000I-250000J0D01*
G01*
X207805000Y-25501000D01*
G75*
G02*
X207555000Y-25251000I0J250000D01*
G01*
X207555000Y-24576000D01*
G75*
G02*
X207805000Y-24326000I250000J0D01*
G01*
G37*
G36*
G01*
X207805000Y-22251000D02*
X208755000Y-22251000D01*
G75*
G02*
X209005000Y-22501000I0J-250000D01*
G01*
X209005000Y-23176000D01*
G75*
G02*
X208755000Y-23426000I-250000J0D01*
G01*
X207805000Y-23426000D01*
G75*
G02*
X207555000Y-23176000I0J250000D01*
G01*
X207555000Y-22501000D01*
G75*
G02*
X207805000Y-22251000I250000J0D01*
G01*
G37*
%TD*%
%TO.C,C21*%
G36*
G01*
X216350000Y-34511000D02*
X216350000Y-33561000D01*
G75*
G02*
X216600000Y-33311000I250000J0D01*
G01*
X217275000Y-33311000D01*
G75*
G02*
X217525000Y-33561000I0J-250000D01*
G01*
X217525000Y-34511000D01*
G75*
G02*
X217275000Y-34761000I-250000J0D01*
G01*
X216600000Y-34761000D01*
G75*
G02*
X216350000Y-34511000I0J250000D01*
G01*
G37*
G36*
G01*
X214275000Y-34511000D02*
X214275000Y-33561000D01*
G75*
G02*
X214525000Y-33311000I250000J0D01*
G01*
X215200000Y-33311000D01*
G75*
G02*
X215450000Y-33561000I0J-250000D01*
G01*
X215450000Y-34511000D01*
G75*
G02*
X215200000Y-34761000I-250000J0D01*
G01*
X214525000Y-34761000D01*
G75*
G02*
X214275000Y-34511000I0J250000D01*
G01*
G37*
%TD*%
%TO.C,C20*%
G36*
G01*
X204503000Y-29914000D02*
X205453000Y-29914000D01*
G75*
G02*
X205703000Y-30164000I0J-250000D01*
G01*
X205703000Y-30839000D01*
G75*
G02*
X205453000Y-31089000I-250000J0D01*
G01*
X204503000Y-31089000D01*
G75*
G02*
X204253000Y-30839000I0J250000D01*
G01*
X204253000Y-30164000D01*
G75*
G02*
X204503000Y-29914000I250000J0D01*
G01*
G37*
G36*
G01*
X204503000Y-27839000D02*
X205453000Y-27839000D01*
G75*
G02*
X205703000Y-28089000I0J-250000D01*
G01*
X205703000Y-28764000D01*
G75*
G02*
X205453000Y-29014000I-250000J0D01*
G01*
X204503000Y-29014000D01*
G75*
G02*
X204253000Y-28764000I0J250000D01*
G01*
X204253000Y-28089000D01*
G75*
G02*
X204503000Y-27839000I250000J0D01*
G01*
G37*
%TD*%
%TO.C,C18*%
G36*
G01*
X236924000Y-46830000D02*
X236924000Y-45880000D01*
G75*
G02*
X237174000Y-45630000I250000J0D01*
G01*
X237849000Y-45630000D01*
G75*
G02*
X238099000Y-45880000I0J-250000D01*
G01*
X238099000Y-46830000D01*
G75*
G02*
X237849000Y-47080000I-250000J0D01*
G01*
X237174000Y-47080000D01*
G75*
G02*
X236924000Y-46830000I0J250000D01*
G01*
G37*
G36*
G01*
X234849000Y-46830000D02*
X234849000Y-45880000D01*
G75*
G02*
X235099000Y-45630000I250000J0D01*
G01*
X235774000Y-45630000D01*
G75*
G02*
X236024000Y-45880000I0J-250000D01*
G01*
X236024000Y-46830000D01*
G75*
G02*
X235774000Y-47080000I-250000J0D01*
G01*
X235099000Y-47080000D01*
G75*
G02*
X234849000Y-46830000I0J250000D01*
G01*
G37*
%TD*%
%TO.C,C11*%
G36*
G01*
X212656000Y-57945000D02*
X212656000Y-58895000D01*
G75*
G02*
X212406000Y-59145000I-250000J0D01*
G01*
X211731000Y-59145000D01*
G75*
G02*
X211481000Y-58895000I0J250000D01*
G01*
X211481000Y-57945000D01*
G75*
G02*
X211731000Y-57695000I250000J0D01*
G01*
X212406000Y-57695000D01*
G75*
G02*
X212656000Y-57945000I0J-250000D01*
G01*
G37*
G36*
G01*
X214731000Y-57945000D02*
X214731000Y-58895000D01*
G75*
G02*
X214481000Y-59145000I-250000J0D01*
G01*
X213806000Y-59145000D01*
G75*
G02*
X213556000Y-58895000I0J250000D01*
G01*
X213556000Y-57945000D01*
G75*
G02*
X213806000Y-57695000I250000J0D01*
G01*
X214481000Y-57695000D01*
G75*
G02*
X214731000Y-57945000I0J-250000D01*
G01*
G37*
%TD*%
%TO.C,C8*%
G36*
G01*
X286987000Y-64701000D02*
X286037000Y-64701000D01*
G75*
G02*
X285787000Y-64451000I0J250000D01*
G01*
X285787000Y-63776000D01*
G75*
G02*
X286037000Y-63526000I250000J0D01*
G01*
X286987000Y-63526000D01*
G75*
G02*
X287237000Y-63776000I0J-250000D01*
G01*
X287237000Y-64451000D01*
G75*
G02*
X286987000Y-64701000I-250000J0D01*
G01*
G37*
G36*
G01*
X286987000Y-66776000D02*
X286037000Y-66776000D01*
G75*
G02*
X285787000Y-66526000I0J250000D01*
G01*
X285787000Y-65851000D01*
G75*
G02*
X286037000Y-65601000I250000J0D01*
G01*
X286987000Y-65601000D01*
G75*
G02*
X287237000Y-65851000I0J-250000D01*
G01*
X287237000Y-66526000D01*
G75*
G02*
X286987000Y-66776000I-250000J0D01*
G01*
G37*
%TD*%
%TO.C,C7*%
G36*
G01*
X286037000Y-44011000D02*
X286987000Y-44011000D01*
G75*
G02*
X287237000Y-44261000I0J-250000D01*
G01*
X287237000Y-44936000D01*
G75*
G02*
X286987000Y-45186000I-250000J0D01*
G01*
X286037000Y-45186000D01*
G75*
G02*
X285787000Y-44936000I0J250000D01*
G01*
X285787000Y-44261000D01*
G75*
G02*
X286037000Y-44011000I250000J0D01*
G01*
G37*
G36*
G01*
X286037000Y-41936000D02*
X286987000Y-41936000D01*
G75*
G02*
X287237000Y-42186000I0J-250000D01*
G01*
X287237000Y-42861000D01*
G75*
G02*
X286987000Y-43111000I-250000J0D01*
G01*
X286037000Y-43111000D01*
G75*
G02*
X285787000Y-42861000I0J250000D01*
G01*
X285787000Y-42186000D01*
G75*
G02*
X286037000Y-41936000I250000J0D01*
G01*
G37*
%TD*%
%TO.C,C4*%
G36*
G01*
X209136000Y-50985000D02*
X208186000Y-50985000D01*
G75*
G02*
X207936000Y-50735000I0J250000D01*
G01*
X207936000Y-50060000D01*
G75*
G02*
X208186000Y-49810000I250000J0D01*
G01*
X209136000Y-49810000D01*
G75*
G02*
X209386000Y-50060000I0J-250000D01*
G01*
X209386000Y-50735000D01*
G75*
G02*
X209136000Y-50985000I-250000J0D01*
G01*
G37*
G36*
G01*
X209136000Y-53060000D02*
X208186000Y-53060000D01*
G75*
G02*
X207936000Y-52810000I0J250000D01*
G01*
X207936000Y-52135000D01*
G75*
G02*
X208186000Y-51885000I250000J0D01*
G01*
X209136000Y-51885000D01*
G75*
G02*
X209386000Y-52135000I0J-250000D01*
G01*
X209386000Y-52810000D01*
G75*
G02*
X209136000Y-53060000I-250000J0D01*
G01*
G37*
%TD*%
%TO.C,C3*%
G36*
G01*
X207485000Y-57589000D02*
X206535000Y-57589000D01*
G75*
G02*
X206285000Y-57339000I0J250000D01*
G01*
X206285000Y-56664000D01*
G75*
G02*
X206535000Y-56414000I250000J0D01*
G01*
X207485000Y-56414000D01*
G75*
G02*
X207735000Y-56664000I0J-250000D01*
G01*
X207735000Y-57339000D01*
G75*
G02*
X207485000Y-57589000I-250000J0D01*
G01*
G37*
G36*
G01*
X207485000Y-59664000D02*
X206535000Y-59664000D01*
G75*
G02*
X206285000Y-59414000I0J250000D01*
G01*
X206285000Y-58739000D01*
G75*
G02*
X206535000Y-58489000I250000J0D01*
G01*
X207485000Y-58489000D01*
G75*
G02*
X207735000Y-58739000I0J-250000D01*
G01*
X207735000Y-59414000D01*
G75*
G02*
X207485000Y-59664000I-250000J0D01*
G01*
G37*
%TD*%
M02*
