%TF.GenerationSoftware,KiCad,Pcbnew,(5.1.6)-1*%
%TF.CreationDate,2020-11-12T20:03:02-08:00*%
%TF.ProjectId,piezodriver,7069657a-6f64-4726-9976-65722e6b6963,rev?*%
%TF.SameCoordinates,Original*%
%TF.FileFunction,Copper,L4,Bot*%
%TF.FilePolarity,Positive*%
%FSLAX46Y46*%
G04 Gerber Fmt 4.6, Leading zero omitted, Abs format (unit mm)*
G04 Created by KiCad (PCBNEW (5.1.6)-1) date 2020-11-12 20:03:02*
%MOMM*%
%LPD*%
G01*
G04 APERTURE LIST*
%TA.AperFunction,ComponentPad*%
%ADD10O,1.905000X2.000000*%
%TD*%
%TA.AperFunction,ComponentPad*%
%ADD11R,1.905000X2.000000*%
%TD*%
%TA.AperFunction,ComponentPad*%
%ADD12O,1.700000X1.700000*%
%TD*%
%TA.AperFunction,ComponentPad*%
%ADD13R,1.700000X1.700000*%
%TD*%
%TA.AperFunction,ComponentPad*%
%ADD14C,2.600000*%
%TD*%
%TA.AperFunction,ComponentPad*%
%ADD15R,2.600000X2.600000*%
%TD*%
%TA.AperFunction,ComponentPad*%
%ADD16C,1.600000*%
%TD*%
%TA.AperFunction,ComponentPad*%
%ADD17R,1.600000X1.600000*%
%TD*%
%TA.AperFunction,ComponentPad*%
%ADD18C,2.400000*%
%TD*%
%TA.AperFunction,ComponentPad*%
%ADD19R,2.400000X2.400000*%
%TD*%
%TA.AperFunction,ViaPad*%
%ADD20C,0.800000*%
%TD*%
%TA.AperFunction,Conductor*%
%ADD21C,1.000000*%
%TD*%
%TA.AperFunction,Conductor*%
%ADD22C,0.500000*%
%TD*%
%TA.AperFunction,Conductor*%
%ADD23C,0.400000*%
%TD*%
%TA.AperFunction,Conductor*%
%ADD24C,0.254000*%
%TD*%
G04 APERTURE END LIST*
D10*
%TO.P,Q2,3*%
%TO.N,Net-(J6-Pad2)*%
X250571000Y-64008000D03*
%TO.P,Q2,2*%
%TO.N,Net-(C6-Pad2)*%
X253111000Y-64008000D03*
D11*
%TO.P,Q2,1*%
%TO.N,Net-(C10-Pad2)*%
X255651000Y-64008000D03*
%TD*%
D10*
%TO.P,Q1,3*%
%TO.N,Net-(J5-Pad1)*%
X261620000Y-64008000D03*
%TO.P,Q1,2*%
%TO.N,Net-(C5-Pad1)*%
X264160000Y-64008000D03*
D11*
%TO.P,Q1,1*%
%TO.N,Net-(C9-Pad1)*%
X266700000Y-64008000D03*
%TD*%
D12*
%TO.P,J7,8*%
%TO.N,/CH8*%
X240284000Y-66040000D03*
%TO.P,J7,7*%
%TO.N,/CH7*%
X237744000Y-66040000D03*
%TO.P,J7,6*%
%TO.N,/CH6*%
X235204000Y-66040000D03*
%TO.P,J7,5*%
%TO.N,GNDA*%
X232664000Y-66040000D03*
%TO.P,J7,4*%
%TO.N,-VDC*%
X230124000Y-66040000D03*
%TO.P,J7,3*%
%TO.N,+VDC*%
X227584000Y-66040000D03*
%TO.P,J7,2*%
%TO.N,+3.3VA*%
X225044000Y-66040000D03*
D13*
%TO.P,J7,1*%
%TO.N,GNDA*%
X222504000Y-66040000D03*
%TD*%
D12*
%TO.P,J6,2*%
%TO.N,Net-(J6-Pad2)*%
X250571000Y-60579000D03*
D13*
%TO.P,J6,1*%
%TO.N,-VDC*%
X250571000Y-58039000D03*
%TD*%
D12*
%TO.P,J5,2*%
%TO.N,+VDC*%
X261620000Y-58039000D03*
D13*
%TO.P,J5,1*%
%TO.N,Net-(J5-Pad1)*%
X261620000Y-60579000D03*
%TD*%
D12*
%TO.P,J4,3*%
%TO.N,-VDC*%
X248412000Y-41275000D03*
%TO.P,J4,2*%
%TO.N,GNDA*%
X245872000Y-41275000D03*
D13*
%TO.P,J4,1*%
%TO.N,+VDC*%
X243332000Y-41275000D03*
%TD*%
D12*
%TO.P,J3,6*%
%TO.N,VCC*%
X204216000Y-59182000D03*
%TO.P,J3,5*%
%TO.N,GND*%
X204216000Y-56642000D03*
%TO.P,J3,4*%
%TO.N,/SYNCD*%
X204216000Y-54102000D03*
%TO.P,J3,3*%
%TO.N,N/C*%
X204216000Y-51562000D03*
%TO.P,J3,2*%
%TO.N,/DIND*%
X204216000Y-49022000D03*
D13*
%TO.P,J3,1*%
%TO.N,/SCLKD*%
X204216000Y-46482000D03*
%TD*%
D12*
%TO.P,J2,3*%
%TO.N,-VDC*%
X268224000Y-48006000D03*
%TO.P,J2,2*%
%TO.N,GNDA*%
X268224000Y-45466000D03*
D13*
%TO.P,J2,1*%
%TO.N,+VDC*%
X268224000Y-42926000D03*
%TD*%
D14*
%TO.P,J1,3*%
%TO.N,Net-(D1-Pad2)*%
X290322000Y-59690000D03*
%TO.P,J1,2*%
%TO.N,GNDA*%
X290322000Y-54610000D03*
D15*
%TO.P,J1,1*%
%TO.N,Net-(D2-Pad2)*%
X290322000Y-49530000D03*
%TD*%
D16*
%TO.P,C10,2*%
%TO.N,Net-(C10-Pad2)*%
X254802000Y-55245000D03*
D17*
%TO.P,C10,1*%
%TO.N,GNDA*%
X257302000Y-55245000D03*
%TD*%
D16*
%TO.P,C9,2*%
%TO.N,GNDA*%
X269200000Y-55245000D03*
D17*
%TO.P,C9,1*%
%TO.N,Net-(C9-Pad1)*%
X266700000Y-55245000D03*
%TD*%
D18*
%TO.P,C6,2*%
%TO.N,Net-(C6-Pad2)*%
X280082000Y-60960000D03*
D19*
%TO.P,C6,1*%
%TO.N,GNDA*%
X275082000Y-60960000D03*
%TD*%
D18*
%TO.P,C5,2*%
%TO.N,GNDA*%
X274908000Y-46990000D03*
D19*
%TO.P,C5,1*%
%TO.N,Net-(C5-Pad1)*%
X279908000Y-46990000D03*
%TD*%
D16*
%TO.P,C2,2*%
%TO.N,-VDC*%
X254889000Y-40854000D03*
D17*
%TO.P,C2,1*%
%TO.N,GNDA*%
X254889000Y-38354000D03*
%TD*%
D16*
%TO.P,C1,2*%
%TO.N,GNDA*%
X262509000Y-38140000D03*
D17*
%TO.P,C1,1*%
%TO.N,+VDC*%
X262509000Y-40640000D03*
%TD*%
D20*
%TO.N,-VDC*%
X288656000Y-31287000D03*
X279893000Y-34843000D03*
X266558000Y-31287000D03*
X257795000Y-34843000D03*
X249540000Y-31287000D03*
X240777000Y-34843000D03*
X232268000Y-31160000D03*
X223505000Y-34716000D03*
X215265000Y-31242000D03*
X206502000Y-34798000D03*
X216662000Y-27051000D03*
X233680000Y-27051000D03*
X251079000Y-27178000D03*
X267970000Y-27305000D03*
X290195000Y-27305000D03*
%TO.N,GND*%
X216408000Y-48895000D03*
X211194000Y-58095942D03*
X209296000Y-48895000D03*
X212344000Y-48768000D03*
X215265000Y-50800000D03*
X213741000Y-54737000D03*
X206375000Y-45339000D03*
X207010000Y-55753000D03*
%TO.N,+VDC*%
X281671000Y-21508000D03*
X286116000Y-23032000D03*
X285989000Y-18968000D03*
X259573000Y-21508000D03*
X264018000Y-23032000D03*
X263891000Y-18968000D03*
X242555000Y-21508000D03*
X247000000Y-23032000D03*
X246873000Y-18968000D03*
X225283000Y-21381000D03*
X229728000Y-22905000D03*
X229601000Y-18841000D03*
X208280000Y-21463000D03*
X212598000Y-18923000D03*
X212725000Y-22987000D03*
%TO.N,Net-(R8-Pad1)*%
X207010000Y-31623000D03*
X210185000Y-29591000D03*
%TO.N,Net-(R11-Pad2)*%
X227569000Y-24048000D03*
X227569000Y-18968000D03*
%TO.N,/opampdriver/BIAS*%
X214884000Y-37739999D03*
X232049999Y-37739999D03*
X249448999Y-37739999D03*
X288163000Y-37338000D03*
X235458000Y-44450000D03*
X266954000Y-36195000D03*
%TO.N,GNDA*%
X291958000Y-31795000D03*
X291704000Y-34081000D03*
X280020000Y-24937000D03*
X269860000Y-31795000D03*
X269606000Y-34081000D03*
X257922000Y-24937000D03*
X252842000Y-31795000D03*
X252588000Y-34081000D03*
X240904000Y-24937000D03*
X235570000Y-31668000D03*
X235316000Y-33954000D03*
X223632000Y-24810000D03*
X206629000Y-24892000D03*
X218313000Y-34036000D03*
X218567000Y-31750000D03*
X212725000Y-11938000D03*
X225298000Y-13843000D03*
X230124000Y-11684000D03*
X242189000Y-13589000D03*
X247396000Y-11557000D03*
X259334000Y-13589000D03*
X266954000Y-11430000D03*
X278892000Y-13335000D03*
X286385000Y-11557000D03*
X296545000Y-11557000D03*
X284734000Y-66167000D03*
X284988000Y-44577000D03*
X270383000Y-61087000D03*
X258191000Y-59690000D03*
X221742000Y-48895000D03*
X237490000Y-44450000D03*
X244856000Y-46355000D03*
X245491000Y-49403000D03*
X238506000Y-59563000D03*
X241808000Y-58420000D03*
X235606500Y-58398500D03*
X226060000Y-59309000D03*
X224028000Y-55245000D03*
X226695000Y-51435000D03*
X238760000Y-49530000D03*
X232156000Y-50292000D03*
%TO.N,Net-(C5-Pad1)*%
X276860000Y-67056000D03*
X272669000Y-63754000D03*
%TO.N,+3V3*%
X215392000Y-57658000D03*
X206629000Y-48895000D03*
%TO.N,/SYNCD*%
X210947000Y-54610000D03*
%TO.N,/DIND*%
X210820000Y-48006000D03*
%TO.N,/SCLKD*%
X213614000Y-51816000D03*
%TO.N,+3.3VA*%
X223266000Y-44958000D03*
X230124000Y-49403000D03*
X241300000Y-51562000D03*
X222504000Y-55753000D03*
X233492000Y-53020000D03*
%TO.N,/DINA*%
X213487000Y-53467000D03*
X211074000Y-51689000D03*
%TO.N,Net-(R7-Pad2)*%
X210566000Y-24130000D03*
X210566000Y-19050000D03*
%TO.N,Net-(R12-Pad1)*%
X227188000Y-29509000D03*
X224013000Y-31541000D03*
%TO.N,Net-(R15-Pad2)*%
X244841000Y-24175000D03*
X244841000Y-19095000D03*
%TO.N,Net-(R16-Pad1)*%
X244460000Y-29636000D03*
X241285000Y-31668000D03*
%TO.N,Net-(R19-Pad2)*%
X283957000Y-24175000D03*
X283957000Y-19095000D03*
%TO.N,Net-(R20-Pad1)*%
X283576000Y-29636000D03*
X280401000Y-31668000D03*
%TO.N,Net-(R23-Pad2)*%
X261859000Y-24175000D03*
X261859000Y-19095000D03*
%TO.N,Net-(R24-Pad1)*%
X261478000Y-29636000D03*
X258303000Y-31668000D03*
%TD*%
D21*
%TO.N,-VDC*%
X254889000Y-40854000D02*
X254889000Y-42672000D01*
X248412000Y-41275000D02*
X249682000Y-42545000D01*
X256020370Y-40854000D02*
X256389001Y-40485369D01*
X254889000Y-40854000D02*
X256020370Y-40854000D01*
X231674001Y-67590001D02*
X249782999Y-67590001D01*
X230124000Y-66040000D02*
X231674001Y-67590001D01*
X249782999Y-67590001D02*
X250825000Y-66548000D01*
X256389001Y-40485369D02*
X256389001Y-35964999D01*
D22*
%TO.N,Net-(R8-Pad1)*%
X207010000Y-31623000D02*
X208153000Y-31623000D01*
X208153000Y-31623000D02*
X210185000Y-29591000D01*
%TO.N,Net-(R11-Pad2)*%
X227569000Y-24048000D02*
X227569000Y-18968000D01*
D21*
%TO.N,Net-(C5-Pad1)*%
X276860000Y-67056000D02*
X275971000Y-67056000D01*
X275971000Y-67056000D02*
X272669000Y-63754000D01*
D22*
%TO.N,/SYNCD*%
X210439000Y-54102000D02*
X204216000Y-54102000D01*
X210947000Y-54610000D02*
X210439000Y-54102000D01*
D23*
%TO.N,/DIND*%
X205232000Y-48006000D02*
X204216000Y-49022000D01*
X210820000Y-48006000D02*
X205232000Y-48006000D01*
%TO.N,/SCLKD*%
X213614000Y-48853998D02*
X211242002Y-46482000D01*
X211242002Y-46482000D02*
X204216000Y-46482000D01*
X213614000Y-51816000D02*
X213614000Y-48853998D01*
%TO.N,/DINA*%
X213487000Y-53467000D02*
X211709000Y-53467000D01*
X211709000Y-53467000D02*
X211582000Y-53467000D01*
X211582000Y-53467000D02*
X211074000Y-52959000D01*
X211074000Y-52959000D02*
X211074000Y-51689000D01*
D22*
%TO.N,Net-(R7-Pad2)*%
X210566000Y-24130000D02*
X210566000Y-19050000D01*
%TO.N,Net-(R12-Pad1)*%
X224013000Y-31541000D02*
X225156000Y-31541000D01*
X225156000Y-31541000D02*
X227188000Y-29509000D01*
%TO.N,Net-(R15-Pad2)*%
X244841000Y-24175000D02*
X244841000Y-19095000D01*
%TO.N,Net-(R16-Pad1)*%
X241285000Y-31668000D02*
X242428000Y-31668000D01*
X242428000Y-31668000D02*
X244460000Y-29636000D01*
%TO.N,Net-(R19-Pad2)*%
X283957000Y-24175000D02*
X283957000Y-19095000D01*
%TO.N,Net-(R20-Pad1)*%
X280401000Y-31668000D02*
X281544000Y-31668000D01*
X281544000Y-31668000D02*
X283576000Y-29636000D01*
%TO.N,Net-(R23-Pad2)*%
X261859000Y-24175000D02*
X261859000Y-19095000D01*
%TO.N,Net-(R24-Pad1)*%
X258303000Y-31668000D02*
X259446000Y-31668000D01*
X259446000Y-31668000D02*
X261478000Y-29636000D01*
%TD*%
D24*
%TO.N,-VDC*%
G36*
X254147486Y-42090671D02*
G01*
X254402996Y-42211571D01*
X254677184Y-42280300D01*
X254959512Y-42294217D01*
X255239130Y-42252787D01*
X255505292Y-42157603D01*
X255630514Y-42090671D01*
X255646262Y-42037000D01*
X261489538Y-42037000D01*
X261584518Y-42065812D01*
X261709000Y-42078072D01*
X263309000Y-42078072D01*
X263433482Y-42065812D01*
X263528462Y-42037000D01*
X266739769Y-42037000D01*
X266735928Y-42076000D01*
X266735928Y-43776000D01*
X266748188Y-43900482D01*
X266784498Y-44020180D01*
X266843463Y-44130494D01*
X266922815Y-44227185D01*
X267019506Y-44306537D01*
X267129820Y-44365502D01*
X267202380Y-44387513D01*
X267070525Y-44519368D01*
X266908010Y-44762589D01*
X266796068Y-45032842D01*
X266739000Y-45319740D01*
X266739000Y-45612260D01*
X266796068Y-45899158D01*
X266908010Y-46169411D01*
X267070525Y-46412632D01*
X267277368Y-46619475D01*
X267459534Y-46741195D01*
X267342645Y-46810822D01*
X267126412Y-47005731D01*
X266952359Y-47239080D01*
X266827175Y-47501901D01*
X266782524Y-47649110D01*
X266903845Y-47879000D01*
X268097000Y-47879000D01*
X268097000Y-47859000D01*
X268351000Y-47859000D01*
X268351000Y-47879000D01*
X269544155Y-47879000D01*
X269665476Y-47649110D01*
X269620825Y-47501901D01*
X269495641Y-47239080D01*
X269321588Y-47005731D01*
X269105355Y-46810822D01*
X269102747Y-46809268D01*
X273073000Y-46809268D01*
X273073000Y-47170732D01*
X273143518Y-47525250D01*
X273281844Y-47859199D01*
X273482662Y-48159744D01*
X273738256Y-48415338D01*
X274038801Y-48616156D01*
X274372750Y-48754482D01*
X274727268Y-48825000D01*
X275088732Y-48825000D01*
X275443250Y-48754482D01*
X275777199Y-48616156D01*
X276077744Y-48415338D01*
X276333338Y-48159744D01*
X276534156Y-47859199D01*
X276672482Y-47525250D01*
X276743000Y-47170732D01*
X276743000Y-46809268D01*
X276672482Y-46454750D01*
X276534156Y-46120801D01*
X276333338Y-45820256D01*
X276303082Y-45790000D01*
X278069928Y-45790000D01*
X278069928Y-48190000D01*
X278082188Y-48314482D01*
X278118498Y-48434180D01*
X278177463Y-48544494D01*
X278256815Y-48641185D01*
X278353506Y-48720537D01*
X278463820Y-48779502D01*
X278583518Y-48815812D01*
X278708000Y-48828072D01*
X281108000Y-48828072D01*
X281232482Y-48815812D01*
X281352180Y-48779502D01*
X281462494Y-48720537D01*
X281559185Y-48641185D01*
X281638537Y-48544494D01*
X281697502Y-48434180D01*
X281733812Y-48314482D01*
X281742132Y-48230000D01*
X288383928Y-48230000D01*
X288383928Y-50830000D01*
X288396188Y-50954482D01*
X288432498Y-51074180D01*
X288491463Y-51184494D01*
X288570815Y-51281185D01*
X288667506Y-51360537D01*
X288777820Y-51419502D01*
X288897518Y-51455812D01*
X289022000Y-51468072D01*
X291622000Y-51468072D01*
X291746482Y-51455812D01*
X291866180Y-51419502D01*
X291976494Y-51360537D01*
X292073185Y-51281185D01*
X292152537Y-51184494D01*
X292211502Y-51074180D01*
X292247812Y-50954482D01*
X292260072Y-50830000D01*
X292260072Y-48230000D01*
X292247812Y-48105518D01*
X292211502Y-47985820D01*
X292152537Y-47875506D01*
X292073185Y-47778815D01*
X291976494Y-47699463D01*
X291866180Y-47640498D01*
X291746482Y-47604188D01*
X291622000Y-47591928D01*
X289022000Y-47591928D01*
X288897518Y-47604188D01*
X288777820Y-47640498D01*
X288667506Y-47699463D01*
X288570815Y-47778815D01*
X288491463Y-47875506D01*
X288432498Y-47985820D01*
X288396188Y-48105518D01*
X288383928Y-48230000D01*
X281742132Y-48230000D01*
X281746072Y-48190000D01*
X281746072Y-45790000D01*
X281733812Y-45665518D01*
X281697502Y-45545820D01*
X281638537Y-45435506D01*
X281559185Y-45338815D01*
X281462494Y-45259463D01*
X281352180Y-45200498D01*
X281232482Y-45164188D01*
X281108000Y-45151928D01*
X278708000Y-45151928D01*
X278583518Y-45164188D01*
X278463820Y-45200498D01*
X278353506Y-45259463D01*
X278256815Y-45338815D01*
X278177463Y-45435506D01*
X278118498Y-45545820D01*
X278082188Y-45665518D01*
X278069928Y-45790000D01*
X276303082Y-45790000D01*
X276077744Y-45564662D01*
X275777199Y-45363844D01*
X275443250Y-45225518D01*
X275088732Y-45155000D01*
X274727268Y-45155000D01*
X274372750Y-45225518D01*
X274038801Y-45363844D01*
X273738256Y-45564662D01*
X273482662Y-45820256D01*
X273281844Y-46120801D01*
X273143518Y-46454750D01*
X273073000Y-46809268D01*
X269102747Y-46809268D01*
X268988466Y-46741195D01*
X269170632Y-46619475D01*
X269377475Y-46412632D01*
X269539990Y-46169411D01*
X269651932Y-45899158D01*
X269709000Y-45612260D01*
X269709000Y-45319740D01*
X269651932Y-45032842D01*
X269539990Y-44762589D01*
X269377475Y-44519368D01*
X269333168Y-44475061D01*
X283953000Y-44475061D01*
X283953000Y-44678939D01*
X283992774Y-44878898D01*
X284070795Y-45067256D01*
X284184063Y-45236774D01*
X284328226Y-45380937D01*
X284497744Y-45494205D01*
X284686102Y-45572226D01*
X284886061Y-45612000D01*
X285089939Y-45612000D01*
X285289898Y-45572226D01*
X285478256Y-45494205D01*
X285647774Y-45380937D01*
X285791937Y-45236774D01*
X285905205Y-45067256D01*
X285983226Y-44878898D01*
X286023000Y-44678939D01*
X286023000Y-44475061D01*
X285983226Y-44275102D01*
X285905205Y-44086744D01*
X285791937Y-43917226D01*
X285647774Y-43773063D01*
X285478256Y-43659795D01*
X285289898Y-43581774D01*
X285089939Y-43542000D01*
X284886061Y-43542000D01*
X284686102Y-43581774D01*
X284497744Y-43659795D01*
X284328226Y-43773063D01*
X284184063Y-43917226D01*
X284070795Y-44086744D01*
X283992774Y-44275102D01*
X283953000Y-44475061D01*
X269333168Y-44475061D01*
X269245620Y-44387513D01*
X269318180Y-44365502D01*
X269428494Y-44306537D01*
X269525185Y-44227185D01*
X269604537Y-44130494D01*
X269663502Y-44020180D01*
X269699812Y-43900482D01*
X269712072Y-43776000D01*
X269712072Y-42076000D01*
X269708231Y-42037000D01*
X297053000Y-42037000D01*
X297053000Y-67183000D01*
X284931459Y-67183000D01*
X285035898Y-67162226D01*
X285224256Y-67084205D01*
X285393774Y-66970937D01*
X285537937Y-66826774D01*
X285651205Y-66657256D01*
X285729226Y-66468898D01*
X285769000Y-66268939D01*
X285769000Y-66065061D01*
X285729226Y-65865102D01*
X285651205Y-65676744D01*
X285537937Y-65507226D01*
X285393774Y-65363063D01*
X285224256Y-65249795D01*
X285035898Y-65171774D01*
X284835939Y-65132000D01*
X284632061Y-65132000D01*
X284432102Y-65171774D01*
X284243744Y-65249795D01*
X284074226Y-65363063D01*
X283930063Y-65507226D01*
X283816795Y-65676744D01*
X283738774Y-65865102D01*
X283699000Y-66065061D01*
X283699000Y-66268939D01*
X283738774Y-66468898D01*
X283816795Y-66657256D01*
X283930063Y-66826774D01*
X284074226Y-66970937D01*
X284243744Y-67084205D01*
X284432102Y-67162226D01*
X284536541Y-67183000D01*
X277987983Y-67183000D01*
X278000491Y-67056000D01*
X277978577Y-66833501D01*
X277913676Y-66619553D01*
X277808284Y-66422377D01*
X277666449Y-66249551D01*
X277493623Y-66107716D01*
X277296447Y-66002324D01*
X277082499Y-65937423D01*
X276915752Y-65921000D01*
X276441132Y-65921000D01*
X273432143Y-62912012D01*
X273302622Y-62805717D01*
X273105446Y-62700324D01*
X272891498Y-62635423D01*
X272669000Y-62613509D01*
X272446502Y-62635423D01*
X272232554Y-62700324D01*
X272035378Y-62805717D01*
X271862552Y-62947552D01*
X271720717Y-63120378D01*
X271615324Y-63317554D01*
X271550423Y-63531502D01*
X271528509Y-63754000D01*
X271550423Y-63976498D01*
X271615324Y-64190446D01*
X271720717Y-64387622D01*
X271827012Y-64517143D01*
X274492868Y-67183000D01*
X249047000Y-67183000D01*
X249047000Y-64500312D01*
X249097245Y-64665948D01*
X249244655Y-64941734D01*
X249443037Y-65183463D01*
X249684765Y-65381845D01*
X249960551Y-65529255D01*
X250259796Y-65620030D01*
X250571000Y-65650681D01*
X250882203Y-65620030D01*
X251181448Y-65529255D01*
X251457234Y-65381845D01*
X251698963Y-65183463D01*
X251841000Y-65010391D01*
X251983037Y-65183463D01*
X252224765Y-65381845D01*
X252500551Y-65529255D01*
X252799796Y-65620030D01*
X253111000Y-65650681D01*
X253422203Y-65620030D01*
X253721448Y-65529255D01*
X253997234Y-65381845D01*
X254123095Y-65278553D01*
X254167963Y-65362494D01*
X254247315Y-65459185D01*
X254344006Y-65538537D01*
X254454320Y-65597502D01*
X254574018Y-65633812D01*
X254698500Y-65646072D01*
X256603500Y-65646072D01*
X256727982Y-65633812D01*
X256847680Y-65597502D01*
X256957994Y-65538537D01*
X257054685Y-65459185D01*
X257134037Y-65362494D01*
X257193002Y-65252180D01*
X257229312Y-65132482D01*
X257241572Y-65008000D01*
X257241572Y-63882514D01*
X260032500Y-63882514D01*
X260032500Y-64133485D01*
X260055470Y-64366703D01*
X260146245Y-64665948D01*
X260293655Y-64941734D01*
X260492037Y-65183463D01*
X260733765Y-65381845D01*
X261009551Y-65529255D01*
X261308796Y-65620030D01*
X261620000Y-65650681D01*
X261931203Y-65620030D01*
X262230448Y-65529255D01*
X262506234Y-65381845D01*
X262747963Y-65183463D01*
X262890000Y-65010391D01*
X263032037Y-65183463D01*
X263273765Y-65381845D01*
X263549551Y-65529255D01*
X263848796Y-65620030D01*
X264160000Y-65650681D01*
X264471203Y-65620030D01*
X264770448Y-65529255D01*
X265046234Y-65381845D01*
X265172095Y-65278553D01*
X265216963Y-65362494D01*
X265296315Y-65459185D01*
X265393006Y-65538537D01*
X265503320Y-65597502D01*
X265623018Y-65633812D01*
X265747500Y-65646072D01*
X267652500Y-65646072D01*
X267776982Y-65633812D01*
X267896680Y-65597502D01*
X268006994Y-65538537D01*
X268103685Y-65459185D01*
X268183037Y-65362494D01*
X268242002Y-65252180D01*
X268278312Y-65132482D01*
X268290572Y-65008000D01*
X268290572Y-63008000D01*
X268278312Y-62883518D01*
X268242002Y-62763820D01*
X268183037Y-62653506D01*
X268103685Y-62556815D01*
X268006994Y-62477463D01*
X267896680Y-62418498D01*
X267776982Y-62382188D01*
X267652500Y-62369928D01*
X265747500Y-62369928D01*
X265623018Y-62382188D01*
X265503320Y-62418498D01*
X265393006Y-62477463D01*
X265296315Y-62556815D01*
X265216963Y-62653506D01*
X265172095Y-62737446D01*
X265046235Y-62634155D01*
X264770449Y-62486745D01*
X264471204Y-62395970D01*
X264160000Y-62365319D01*
X263848797Y-62395970D01*
X263549552Y-62486745D01*
X263273766Y-62634155D01*
X263032037Y-62832537D01*
X262890000Y-63005609D01*
X262747963Y-62832537D01*
X262506235Y-62634155D01*
X262230449Y-62486745D01*
X261931204Y-62395970D01*
X261620000Y-62365319D01*
X261308797Y-62395970D01*
X261009552Y-62486745D01*
X260733766Y-62634155D01*
X260492037Y-62832537D01*
X260293655Y-63074265D01*
X260146245Y-63350051D01*
X260055470Y-63649296D01*
X260032500Y-63882514D01*
X257241572Y-63882514D01*
X257241572Y-63008000D01*
X257229312Y-62883518D01*
X257193002Y-62763820D01*
X257134037Y-62653506D01*
X257054685Y-62556815D01*
X256957994Y-62477463D01*
X256847680Y-62418498D01*
X256727982Y-62382188D01*
X256603500Y-62369928D01*
X254698500Y-62369928D01*
X254574018Y-62382188D01*
X254454320Y-62418498D01*
X254344006Y-62477463D01*
X254247315Y-62556815D01*
X254167963Y-62653506D01*
X254123095Y-62737446D01*
X253997235Y-62634155D01*
X253721449Y-62486745D01*
X253422204Y-62395970D01*
X253111000Y-62365319D01*
X252799797Y-62395970D01*
X252500552Y-62486745D01*
X252224766Y-62634155D01*
X251983037Y-62832537D01*
X251841000Y-63005609D01*
X251698963Y-62832537D01*
X251457235Y-62634155D01*
X251181449Y-62486745D01*
X250882204Y-62395970D01*
X250571000Y-62365319D01*
X250259797Y-62395970D01*
X249960552Y-62486745D01*
X249684766Y-62634155D01*
X249443037Y-62832537D01*
X249244655Y-63074265D01*
X249097245Y-63350051D01*
X249047000Y-63515687D01*
X249047000Y-58889000D01*
X249082928Y-58889000D01*
X249095188Y-59013482D01*
X249131498Y-59133180D01*
X249190463Y-59243494D01*
X249269815Y-59340185D01*
X249366506Y-59419537D01*
X249476820Y-59478502D01*
X249549380Y-59500513D01*
X249417525Y-59632368D01*
X249255010Y-59875589D01*
X249143068Y-60145842D01*
X249086000Y-60432740D01*
X249086000Y-60725260D01*
X249143068Y-61012158D01*
X249255010Y-61282411D01*
X249417525Y-61525632D01*
X249624368Y-61732475D01*
X249867589Y-61894990D01*
X250137842Y-62006932D01*
X250424740Y-62064000D01*
X250717260Y-62064000D01*
X251004158Y-62006932D01*
X251274411Y-61894990D01*
X251517632Y-61732475D01*
X251724475Y-61525632D01*
X251886990Y-61282411D01*
X251998932Y-61012158D01*
X252056000Y-60725260D01*
X252056000Y-60432740D01*
X251998932Y-60145842D01*
X251886990Y-59875589D01*
X251724475Y-59632368D01*
X251680168Y-59588061D01*
X257156000Y-59588061D01*
X257156000Y-59791939D01*
X257195774Y-59991898D01*
X257273795Y-60180256D01*
X257387063Y-60349774D01*
X257531226Y-60493937D01*
X257700744Y-60607205D01*
X257889102Y-60685226D01*
X258089061Y-60725000D01*
X258292939Y-60725000D01*
X258492898Y-60685226D01*
X258681256Y-60607205D01*
X258850774Y-60493937D01*
X258994937Y-60349774D01*
X259108205Y-60180256D01*
X259186226Y-59991898D01*
X259226000Y-59791939D01*
X259226000Y-59729000D01*
X260131928Y-59729000D01*
X260131928Y-61429000D01*
X260144188Y-61553482D01*
X260180498Y-61673180D01*
X260239463Y-61783494D01*
X260318815Y-61880185D01*
X260415506Y-61959537D01*
X260525820Y-62018502D01*
X260645518Y-62054812D01*
X260770000Y-62067072D01*
X262470000Y-62067072D01*
X262594482Y-62054812D01*
X262714180Y-62018502D01*
X262824494Y-61959537D01*
X262921185Y-61880185D01*
X263000537Y-61783494D01*
X263059502Y-61673180D01*
X263095812Y-61553482D01*
X263108072Y-61429000D01*
X263108072Y-60985061D01*
X269348000Y-60985061D01*
X269348000Y-61188939D01*
X269387774Y-61388898D01*
X269465795Y-61577256D01*
X269579063Y-61746774D01*
X269723226Y-61890937D01*
X269892744Y-62004205D01*
X270081102Y-62082226D01*
X270281061Y-62122000D01*
X270484939Y-62122000D01*
X270684898Y-62082226D01*
X270873256Y-62004205D01*
X271042774Y-61890937D01*
X271186937Y-61746774D01*
X271300205Y-61577256D01*
X271378226Y-61388898D01*
X271418000Y-61188939D01*
X271418000Y-60985061D01*
X271378226Y-60785102D01*
X271300205Y-60596744D01*
X271186937Y-60427226D01*
X271042774Y-60283063D01*
X270873256Y-60169795D01*
X270684898Y-60091774D01*
X270484939Y-60052000D01*
X270281061Y-60052000D01*
X270081102Y-60091774D01*
X269892744Y-60169795D01*
X269723226Y-60283063D01*
X269579063Y-60427226D01*
X269465795Y-60596744D01*
X269387774Y-60785102D01*
X269348000Y-60985061D01*
X263108072Y-60985061D01*
X263108072Y-59760000D01*
X273243928Y-59760000D01*
X273243928Y-62160000D01*
X273256188Y-62284482D01*
X273292498Y-62404180D01*
X273351463Y-62514494D01*
X273430815Y-62611185D01*
X273527506Y-62690537D01*
X273637820Y-62749502D01*
X273757518Y-62785812D01*
X273882000Y-62798072D01*
X276282000Y-62798072D01*
X276406482Y-62785812D01*
X276526180Y-62749502D01*
X276636494Y-62690537D01*
X276733185Y-62611185D01*
X276812537Y-62514494D01*
X276871502Y-62404180D01*
X276907812Y-62284482D01*
X276920072Y-62160000D01*
X276920072Y-60779268D01*
X278247000Y-60779268D01*
X278247000Y-61140732D01*
X278317518Y-61495250D01*
X278455844Y-61829199D01*
X278656662Y-62129744D01*
X278912256Y-62385338D01*
X279212801Y-62586156D01*
X279546750Y-62724482D01*
X279901268Y-62795000D01*
X280262732Y-62795000D01*
X280617250Y-62724482D01*
X280951199Y-62586156D01*
X281251744Y-62385338D01*
X281507338Y-62129744D01*
X281708156Y-61829199D01*
X281846482Y-61495250D01*
X281917000Y-61140732D01*
X281917000Y-60779268D01*
X281846482Y-60424750D01*
X281708156Y-60090801D01*
X281507338Y-59790256D01*
X281251744Y-59534662D01*
X281199000Y-59499419D01*
X288387000Y-59499419D01*
X288387000Y-59880581D01*
X288461361Y-60254419D01*
X288607225Y-60606566D01*
X288818987Y-60923491D01*
X289088509Y-61193013D01*
X289405434Y-61404775D01*
X289757581Y-61550639D01*
X290131419Y-61625000D01*
X290512581Y-61625000D01*
X290886419Y-61550639D01*
X291238566Y-61404775D01*
X291555491Y-61193013D01*
X291825013Y-60923491D01*
X292036775Y-60606566D01*
X292182639Y-60254419D01*
X292257000Y-59880581D01*
X292257000Y-59499419D01*
X292182639Y-59125581D01*
X292036775Y-58773434D01*
X291825013Y-58456509D01*
X291555491Y-58186987D01*
X291238566Y-57975225D01*
X290886419Y-57829361D01*
X290512581Y-57755000D01*
X290131419Y-57755000D01*
X289757581Y-57829361D01*
X289405434Y-57975225D01*
X289088509Y-58186987D01*
X288818987Y-58456509D01*
X288607225Y-58773434D01*
X288461361Y-59125581D01*
X288387000Y-59499419D01*
X281199000Y-59499419D01*
X280951199Y-59333844D01*
X280617250Y-59195518D01*
X280262732Y-59125000D01*
X279901268Y-59125000D01*
X279546750Y-59195518D01*
X279212801Y-59333844D01*
X278912256Y-59534662D01*
X278656662Y-59790256D01*
X278455844Y-60090801D01*
X278317518Y-60424750D01*
X278247000Y-60779268D01*
X276920072Y-60779268D01*
X276920072Y-59760000D01*
X276907812Y-59635518D01*
X276871502Y-59515820D01*
X276812537Y-59405506D01*
X276733185Y-59308815D01*
X276636494Y-59229463D01*
X276526180Y-59170498D01*
X276406482Y-59134188D01*
X276282000Y-59121928D01*
X273882000Y-59121928D01*
X273757518Y-59134188D01*
X273637820Y-59170498D01*
X273527506Y-59229463D01*
X273430815Y-59308815D01*
X273351463Y-59405506D01*
X273292498Y-59515820D01*
X273256188Y-59635518D01*
X273243928Y-59760000D01*
X263108072Y-59760000D01*
X263108072Y-59729000D01*
X263095812Y-59604518D01*
X263059502Y-59484820D01*
X263000537Y-59374506D01*
X262921185Y-59277815D01*
X262824494Y-59198463D01*
X262714180Y-59139498D01*
X262641620Y-59117487D01*
X262773475Y-58985632D01*
X262935990Y-58742411D01*
X263047932Y-58472158D01*
X263105000Y-58185260D01*
X263105000Y-57892740D01*
X263047932Y-57605842D01*
X262935990Y-57335589D01*
X262773475Y-57092368D01*
X262566632Y-56885525D01*
X262323411Y-56723010D01*
X262053158Y-56611068D01*
X261766260Y-56554000D01*
X261473740Y-56554000D01*
X261186842Y-56611068D01*
X260916589Y-56723010D01*
X260673368Y-56885525D01*
X260466525Y-57092368D01*
X260304010Y-57335589D01*
X260192068Y-57605842D01*
X260135000Y-57892740D01*
X260135000Y-58185260D01*
X260192068Y-58472158D01*
X260304010Y-58742411D01*
X260466525Y-58985632D01*
X260598380Y-59117487D01*
X260525820Y-59139498D01*
X260415506Y-59198463D01*
X260318815Y-59277815D01*
X260239463Y-59374506D01*
X260180498Y-59484820D01*
X260144188Y-59604518D01*
X260131928Y-59729000D01*
X259226000Y-59729000D01*
X259226000Y-59588061D01*
X259186226Y-59388102D01*
X259108205Y-59199744D01*
X258994937Y-59030226D01*
X258850774Y-58886063D01*
X258681256Y-58772795D01*
X258492898Y-58694774D01*
X258292939Y-58655000D01*
X258089061Y-58655000D01*
X257889102Y-58694774D01*
X257700744Y-58772795D01*
X257531226Y-58886063D01*
X257387063Y-59030226D01*
X257273795Y-59199744D01*
X257195774Y-59388102D01*
X257156000Y-59588061D01*
X251680168Y-59588061D01*
X251592620Y-59500513D01*
X251665180Y-59478502D01*
X251775494Y-59419537D01*
X251872185Y-59340185D01*
X251951537Y-59243494D01*
X252010502Y-59133180D01*
X252046812Y-59013482D01*
X252059072Y-58889000D01*
X252056000Y-58324750D01*
X251897250Y-58166000D01*
X250698000Y-58166000D01*
X250698000Y-58186000D01*
X250444000Y-58186000D01*
X250444000Y-58166000D01*
X249244750Y-58166000D01*
X249086000Y-58324750D01*
X249082928Y-58889000D01*
X249047000Y-58889000D01*
X249047000Y-57189000D01*
X249082928Y-57189000D01*
X249086000Y-57753250D01*
X249244750Y-57912000D01*
X250444000Y-57912000D01*
X250444000Y-56712750D01*
X250698000Y-56712750D01*
X250698000Y-57912000D01*
X251897250Y-57912000D01*
X252056000Y-57753250D01*
X252059072Y-57189000D01*
X252046812Y-57064518D01*
X252010502Y-56944820D01*
X251951537Y-56834506D01*
X251872185Y-56737815D01*
X251775494Y-56658463D01*
X251665180Y-56599498D01*
X251545482Y-56563188D01*
X251421000Y-56550928D01*
X250856750Y-56554000D01*
X250698000Y-56712750D01*
X250444000Y-56712750D01*
X250285250Y-56554000D01*
X249721000Y-56550928D01*
X249596518Y-56563188D01*
X249476820Y-56599498D01*
X249366506Y-56658463D01*
X249269815Y-56737815D01*
X249190463Y-56834506D01*
X249131498Y-56944820D01*
X249095188Y-57064518D01*
X249082928Y-57189000D01*
X249047000Y-57189000D01*
X249047000Y-55103665D01*
X253367000Y-55103665D01*
X253367000Y-55386335D01*
X253422147Y-55663574D01*
X253530320Y-55924727D01*
X253687363Y-56159759D01*
X253887241Y-56359637D01*
X254122273Y-56516680D01*
X254383426Y-56624853D01*
X254660665Y-56680000D01*
X254943335Y-56680000D01*
X255220574Y-56624853D01*
X255481727Y-56516680D01*
X255716759Y-56359637D01*
X255883339Y-56193057D01*
X255912498Y-56289180D01*
X255971463Y-56399494D01*
X256050815Y-56496185D01*
X256147506Y-56575537D01*
X256257820Y-56634502D01*
X256377518Y-56670812D01*
X256502000Y-56683072D01*
X258102000Y-56683072D01*
X258226482Y-56670812D01*
X258346180Y-56634502D01*
X258456494Y-56575537D01*
X258553185Y-56496185D01*
X258632537Y-56399494D01*
X258691502Y-56289180D01*
X258727812Y-56169482D01*
X258740072Y-56045000D01*
X258740072Y-54445000D01*
X265261928Y-54445000D01*
X265261928Y-56045000D01*
X265274188Y-56169482D01*
X265310498Y-56289180D01*
X265369463Y-56399494D01*
X265448815Y-56496185D01*
X265545506Y-56575537D01*
X265655820Y-56634502D01*
X265775518Y-56670812D01*
X265900000Y-56683072D01*
X267500000Y-56683072D01*
X267624482Y-56670812D01*
X267744180Y-56634502D01*
X267854494Y-56575537D01*
X267951185Y-56496185D01*
X268030537Y-56399494D01*
X268089502Y-56289180D01*
X268118661Y-56193057D01*
X268285241Y-56359637D01*
X268520273Y-56516680D01*
X268781426Y-56624853D01*
X269058665Y-56680000D01*
X269341335Y-56680000D01*
X269618574Y-56624853D01*
X269879727Y-56516680D01*
X270114759Y-56359637D01*
X270314637Y-56159759D01*
X270471680Y-55924727D01*
X270579853Y-55663574D01*
X270635000Y-55386335D01*
X270635000Y-55103665D01*
X270579853Y-54826426D01*
X270471680Y-54565273D01*
X270374224Y-54419419D01*
X288387000Y-54419419D01*
X288387000Y-54800581D01*
X288461361Y-55174419D01*
X288607225Y-55526566D01*
X288818987Y-55843491D01*
X289088509Y-56113013D01*
X289405434Y-56324775D01*
X289757581Y-56470639D01*
X290131419Y-56545000D01*
X290512581Y-56545000D01*
X290886419Y-56470639D01*
X291238566Y-56324775D01*
X291555491Y-56113013D01*
X291825013Y-55843491D01*
X292036775Y-55526566D01*
X292182639Y-55174419D01*
X292257000Y-54800581D01*
X292257000Y-54419419D01*
X292182639Y-54045581D01*
X292036775Y-53693434D01*
X291825013Y-53376509D01*
X291555491Y-53106987D01*
X291238566Y-52895225D01*
X290886419Y-52749361D01*
X290512581Y-52675000D01*
X290131419Y-52675000D01*
X289757581Y-52749361D01*
X289405434Y-52895225D01*
X289088509Y-53106987D01*
X288818987Y-53376509D01*
X288607225Y-53693434D01*
X288461361Y-54045581D01*
X288387000Y-54419419D01*
X270374224Y-54419419D01*
X270314637Y-54330241D01*
X270114759Y-54130363D01*
X269879727Y-53973320D01*
X269618574Y-53865147D01*
X269341335Y-53810000D01*
X269058665Y-53810000D01*
X268781426Y-53865147D01*
X268520273Y-53973320D01*
X268285241Y-54130363D01*
X268118661Y-54296943D01*
X268089502Y-54200820D01*
X268030537Y-54090506D01*
X267951185Y-53993815D01*
X267854494Y-53914463D01*
X267744180Y-53855498D01*
X267624482Y-53819188D01*
X267500000Y-53806928D01*
X265900000Y-53806928D01*
X265775518Y-53819188D01*
X265655820Y-53855498D01*
X265545506Y-53914463D01*
X265448815Y-53993815D01*
X265369463Y-54090506D01*
X265310498Y-54200820D01*
X265274188Y-54320518D01*
X265261928Y-54445000D01*
X258740072Y-54445000D01*
X258727812Y-54320518D01*
X258691502Y-54200820D01*
X258632537Y-54090506D01*
X258553185Y-53993815D01*
X258456494Y-53914463D01*
X258346180Y-53855498D01*
X258226482Y-53819188D01*
X258102000Y-53806928D01*
X256502000Y-53806928D01*
X256377518Y-53819188D01*
X256257820Y-53855498D01*
X256147506Y-53914463D01*
X256050815Y-53993815D01*
X255971463Y-54090506D01*
X255912498Y-54200820D01*
X255883339Y-54296943D01*
X255716759Y-54130363D01*
X255481727Y-53973320D01*
X255220574Y-53865147D01*
X254943335Y-53810000D01*
X254660665Y-53810000D01*
X254383426Y-53865147D01*
X254122273Y-53973320D01*
X253887241Y-54130363D01*
X253687363Y-54330241D01*
X253530320Y-54565273D01*
X253422147Y-54826426D01*
X253367000Y-55103665D01*
X249047000Y-55103665D01*
X249047000Y-48362890D01*
X266782524Y-48362890D01*
X266827175Y-48510099D01*
X266952359Y-48772920D01*
X267126412Y-49006269D01*
X267342645Y-49201178D01*
X267592748Y-49350157D01*
X267867109Y-49447481D01*
X268097000Y-49326814D01*
X268097000Y-48133000D01*
X268351000Y-48133000D01*
X268351000Y-49326814D01*
X268580891Y-49447481D01*
X268855252Y-49350157D01*
X269105355Y-49201178D01*
X269321588Y-49006269D01*
X269495641Y-48772920D01*
X269620825Y-48510099D01*
X269665476Y-48362890D01*
X269544155Y-48133000D01*
X268351000Y-48133000D01*
X268097000Y-48133000D01*
X266903845Y-48133000D01*
X266782524Y-48362890D01*
X249047000Y-48362890D01*
X249047000Y-42609476D01*
X249178920Y-42546641D01*
X249412269Y-42372588D01*
X249607178Y-42156355D01*
X249678274Y-42037000D01*
X254131738Y-42037000D01*
X254147486Y-42090671D01*
G37*
X254147486Y-42090671D02*
X254402996Y-42211571D01*
X254677184Y-42280300D01*
X254959512Y-42294217D01*
X255239130Y-42252787D01*
X255505292Y-42157603D01*
X255630514Y-42090671D01*
X255646262Y-42037000D01*
X261489538Y-42037000D01*
X261584518Y-42065812D01*
X261709000Y-42078072D01*
X263309000Y-42078072D01*
X263433482Y-42065812D01*
X263528462Y-42037000D01*
X266739769Y-42037000D01*
X266735928Y-42076000D01*
X266735928Y-43776000D01*
X266748188Y-43900482D01*
X266784498Y-44020180D01*
X266843463Y-44130494D01*
X266922815Y-44227185D01*
X267019506Y-44306537D01*
X267129820Y-44365502D01*
X267202380Y-44387513D01*
X267070525Y-44519368D01*
X266908010Y-44762589D01*
X266796068Y-45032842D01*
X266739000Y-45319740D01*
X266739000Y-45612260D01*
X266796068Y-45899158D01*
X266908010Y-46169411D01*
X267070525Y-46412632D01*
X267277368Y-46619475D01*
X267459534Y-46741195D01*
X267342645Y-46810822D01*
X267126412Y-47005731D01*
X266952359Y-47239080D01*
X266827175Y-47501901D01*
X266782524Y-47649110D01*
X266903845Y-47879000D01*
X268097000Y-47879000D01*
X268097000Y-47859000D01*
X268351000Y-47859000D01*
X268351000Y-47879000D01*
X269544155Y-47879000D01*
X269665476Y-47649110D01*
X269620825Y-47501901D01*
X269495641Y-47239080D01*
X269321588Y-47005731D01*
X269105355Y-46810822D01*
X269102747Y-46809268D01*
X273073000Y-46809268D01*
X273073000Y-47170732D01*
X273143518Y-47525250D01*
X273281844Y-47859199D01*
X273482662Y-48159744D01*
X273738256Y-48415338D01*
X274038801Y-48616156D01*
X274372750Y-48754482D01*
X274727268Y-48825000D01*
X275088732Y-48825000D01*
X275443250Y-48754482D01*
X275777199Y-48616156D01*
X276077744Y-48415338D01*
X276333338Y-48159744D01*
X276534156Y-47859199D01*
X276672482Y-47525250D01*
X276743000Y-47170732D01*
X276743000Y-46809268D01*
X276672482Y-46454750D01*
X276534156Y-46120801D01*
X276333338Y-45820256D01*
X276303082Y-45790000D01*
X278069928Y-45790000D01*
X278069928Y-48190000D01*
X278082188Y-48314482D01*
X278118498Y-48434180D01*
X278177463Y-48544494D01*
X278256815Y-48641185D01*
X278353506Y-48720537D01*
X278463820Y-48779502D01*
X278583518Y-48815812D01*
X278708000Y-48828072D01*
X281108000Y-48828072D01*
X281232482Y-48815812D01*
X281352180Y-48779502D01*
X281462494Y-48720537D01*
X281559185Y-48641185D01*
X281638537Y-48544494D01*
X281697502Y-48434180D01*
X281733812Y-48314482D01*
X281742132Y-48230000D01*
X288383928Y-48230000D01*
X288383928Y-50830000D01*
X288396188Y-50954482D01*
X288432498Y-51074180D01*
X288491463Y-51184494D01*
X288570815Y-51281185D01*
X288667506Y-51360537D01*
X288777820Y-51419502D01*
X288897518Y-51455812D01*
X289022000Y-51468072D01*
X291622000Y-51468072D01*
X291746482Y-51455812D01*
X291866180Y-51419502D01*
X291976494Y-51360537D01*
X292073185Y-51281185D01*
X292152537Y-51184494D01*
X292211502Y-51074180D01*
X292247812Y-50954482D01*
X292260072Y-50830000D01*
X292260072Y-48230000D01*
X292247812Y-48105518D01*
X292211502Y-47985820D01*
X292152537Y-47875506D01*
X292073185Y-47778815D01*
X291976494Y-47699463D01*
X291866180Y-47640498D01*
X291746482Y-47604188D01*
X291622000Y-47591928D01*
X289022000Y-47591928D01*
X288897518Y-47604188D01*
X288777820Y-47640498D01*
X288667506Y-47699463D01*
X288570815Y-47778815D01*
X288491463Y-47875506D01*
X288432498Y-47985820D01*
X288396188Y-48105518D01*
X288383928Y-48230000D01*
X281742132Y-48230000D01*
X281746072Y-48190000D01*
X281746072Y-45790000D01*
X281733812Y-45665518D01*
X281697502Y-45545820D01*
X281638537Y-45435506D01*
X281559185Y-45338815D01*
X281462494Y-45259463D01*
X281352180Y-45200498D01*
X281232482Y-45164188D01*
X281108000Y-45151928D01*
X278708000Y-45151928D01*
X278583518Y-45164188D01*
X278463820Y-45200498D01*
X278353506Y-45259463D01*
X278256815Y-45338815D01*
X278177463Y-45435506D01*
X278118498Y-45545820D01*
X278082188Y-45665518D01*
X278069928Y-45790000D01*
X276303082Y-45790000D01*
X276077744Y-45564662D01*
X275777199Y-45363844D01*
X275443250Y-45225518D01*
X275088732Y-45155000D01*
X274727268Y-45155000D01*
X274372750Y-45225518D01*
X274038801Y-45363844D01*
X273738256Y-45564662D01*
X273482662Y-45820256D01*
X273281844Y-46120801D01*
X273143518Y-46454750D01*
X273073000Y-46809268D01*
X269102747Y-46809268D01*
X268988466Y-46741195D01*
X269170632Y-46619475D01*
X269377475Y-46412632D01*
X269539990Y-46169411D01*
X269651932Y-45899158D01*
X269709000Y-45612260D01*
X269709000Y-45319740D01*
X269651932Y-45032842D01*
X269539990Y-44762589D01*
X269377475Y-44519368D01*
X269333168Y-44475061D01*
X283953000Y-44475061D01*
X283953000Y-44678939D01*
X283992774Y-44878898D01*
X284070795Y-45067256D01*
X284184063Y-45236774D01*
X284328226Y-45380937D01*
X284497744Y-45494205D01*
X284686102Y-45572226D01*
X284886061Y-45612000D01*
X285089939Y-45612000D01*
X285289898Y-45572226D01*
X285478256Y-45494205D01*
X285647774Y-45380937D01*
X285791937Y-45236774D01*
X285905205Y-45067256D01*
X285983226Y-44878898D01*
X286023000Y-44678939D01*
X286023000Y-44475061D01*
X285983226Y-44275102D01*
X285905205Y-44086744D01*
X285791937Y-43917226D01*
X285647774Y-43773063D01*
X285478256Y-43659795D01*
X285289898Y-43581774D01*
X285089939Y-43542000D01*
X284886061Y-43542000D01*
X284686102Y-43581774D01*
X284497744Y-43659795D01*
X284328226Y-43773063D01*
X284184063Y-43917226D01*
X284070795Y-44086744D01*
X283992774Y-44275102D01*
X283953000Y-44475061D01*
X269333168Y-44475061D01*
X269245620Y-44387513D01*
X269318180Y-44365502D01*
X269428494Y-44306537D01*
X269525185Y-44227185D01*
X269604537Y-44130494D01*
X269663502Y-44020180D01*
X269699812Y-43900482D01*
X269712072Y-43776000D01*
X269712072Y-42076000D01*
X269708231Y-42037000D01*
X297053000Y-42037000D01*
X297053000Y-67183000D01*
X284931459Y-67183000D01*
X285035898Y-67162226D01*
X285224256Y-67084205D01*
X285393774Y-66970937D01*
X285537937Y-66826774D01*
X285651205Y-66657256D01*
X285729226Y-66468898D01*
X285769000Y-66268939D01*
X285769000Y-66065061D01*
X285729226Y-65865102D01*
X285651205Y-65676744D01*
X285537937Y-65507226D01*
X285393774Y-65363063D01*
X285224256Y-65249795D01*
X285035898Y-65171774D01*
X284835939Y-65132000D01*
X284632061Y-65132000D01*
X284432102Y-65171774D01*
X284243744Y-65249795D01*
X284074226Y-65363063D01*
X283930063Y-65507226D01*
X283816795Y-65676744D01*
X283738774Y-65865102D01*
X283699000Y-66065061D01*
X283699000Y-66268939D01*
X283738774Y-66468898D01*
X283816795Y-66657256D01*
X283930063Y-66826774D01*
X284074226Y-66970937D01*
X284243744Y-67084205D01*
X284432102Y-67162226D01*
X284536541Y-67183000D01*
X277987983Y-67183000D01*
X278000491Y-67056000D01*
X277978577Y-66833501D01*
X277913676Y-66619553D01*
X277808284Y-66422377D01*
X277666449Y-66249551D01*
X277493623Y-66107716D01*
X277296447Y-66002324D01*
X277082499Y-65937423D01*
X276915752Y-65921000D01*
X276441132Y-65921000D01*
X273432143Y-62912012D01*
X273302622Y-62805717D01*
X273105446Y-62700324D01*
X272891498Y-62635423D01*
X272669000Y-62613509D01*
X272446502Y-62635423D01*
X272232554Y-62700324D01*
X272035378Y-62805717D01*
X271862552Y-62947552D01*
X271720717Y-63120378D01*
X271615324Y-63317554D01*
X271550423Y-63531502D01*
X271528509Y-63754000D01*
X271550423Y-63976498D01*
X271615324Y-64190446D01*
X271720717Y-64387622D01*
X271827012Y-64517143D01*
X274492868Y-67183000D01*
X249047000Y-67183000D01*
X249047000Y-64500312D01*
X249097245Y-64665948D01*
X249244655Y-64941734D01*
X249443037Y-65183463D01*
X249684765Y-65381845D01*
X249960551Y-65529255D01*
X250259796Y-65620030D01*
X250571000Y-65650681D01*
X250882203Y-65620030D01*
X251181448Y-65529255D01*
X251457234Y-65381845D01*
X251698963Y-65183463D01*
X251841000Y-65010391D01*
X251983037Y-65183463D01*
X252224765Y-65381845D01*
X252500551Y-65529255D01*
X252799796Y-65620030D01*
X253111000Y-65650681D01*
X253422203Y-65620030D01*
X253721448Y-65529255D01*
X253997234Y-65381845D01*
X254123095Y-65278553D01*
X254167963Y-65362494D01*
X254247315Y-65459185D01*
X254344006Y-65538537D01*
X254454320Y-65597502D01*
X254574018Y-65633812D01*
X254698500Y-65646072D01*
X256603500Y-65646072D01*
X256727982Y-65633812D01*
X256847680Y-65597502D01*
X256957994Y-65538537D01*
X257054685Y-65459185D01*
X257134037Y-65362494D01*
X257193002Y-65252180D01*
X257229312Y-65132482D01*
X257241572Y-65008000D01*
X257241572Y-63882514D01*
X260032500Y-63882514D01*
X260032500Y-64133485D01*
X260055470Y-64366703D01*
X260146245Y-64665948D01*
X260293655Y-64941734D01*
X260492037Y-65183463D01*
X260733765Y-65381845D01*
X261009551Y-65529255D01*
X261308796Y-65620030D01*
X261620000Y-65650681D01*
X261931203Y-65620030D01*
X262230448Y-65529255D01*
X262506234Y-65381845D01*
X262747963Y-65183463D01*
X262890000Y-65010391D01*
X263032037Y-65183463D01*
X263273765Y-65381845D01*
X263549551Y-65529255D01*
X263848796Y-65620030D01*
X264160000Y-65650681D01*
X264471203Y-65620030D01*
X264770448Y-65529255D01*
X265046234Y-65381845D01*
X265172095Y-65278553D01*
X265216963Y-65362494D01*
X265296315Y-65459185D01*
X265393006Y-65538537D01*
X265503320Y-65597502D01*
X265623018Y-65633812D01*
X265747500Y-65646072D01*
X267652500Y-65646072D01*
X267776982Y-65633812D01*
X267896680Y-65597502D01*
X268006994Y-65538537D01*
X268103685Y-65459185D01*
X268183037Y-65362494D01*
X268242002Y-65252180D01*
X268278312Y-65132482D01*
X268290572Y-65008000D01*
X268290572Y-63008000D01*
X268278312Y-62883518D01*
X268242002Y-62763820D01*
X268183037Y-62653506D01*
X268103685Y-62556815D01*
X268006994Y-62477463D01*
X267896680Y-62418498D01*
X267776982Y-62382188D01*
X267652500Y-62369928D01*
X265747500Y-62369928D01*
X265623018Y-62382188D01*
X265503320Y-62418498D01*
X265393006Y-62477463D01*
X265296315Y-62556815D01*
X265216963Y-62653506D01*
X265172095Y-62737446D01*
X265046235Y-62634155D01*
X264770449Y-62486745D01*
X264471204Y-62395970D01*
X264160000Y-62365319D01*
X263848797Y-62395970D01*
X263549552Y-62486745D01*
X263273766Y-62634155D01*
X263032037Y-62832537D01*
X262890000Y-63005609D01*
X262747963Y-62832537D01*
X262506235Y-62634155D01*
X262230449Y-62486745D01*
X261931204Y-62395970D01*
X261620000Y-62365319D01*
X261308797Y-62395970D01*
X261009552Y-62486745D01*
X260733766Y-62634155D01*
X260492037Y-62832537D01*
X260293655Y-63074265D01*
X260146245Y-63350051D01*
X260055470Y-63649296D01*
X260032500Y-63882514D01*
X257241572Y-63882514D01*
X257241572Y-63008000D01*
X257229312Y-62883518D01*
X257193002Y-62763820D01*
X257134037Y-62653506D01*
X257054685Y-62556815D01*
X256957994Y-62477463D01*
X256847680Y-62418498D01*
X256727982Y-62382188D01*
X256603500Y-62369928D01*
X254698500Y-62369928D01*
X254574018Y-62382188D01*
X254454320Y-62418498D01*
X254344006Y-62477463D01*
X254247315Y-62556815D01*
X254167963Y-62653506D01*
X254123095Y-62737446D01*
X253997235Y-62634155D01*
X253721449Y-62486745D01*
X253422204Y-62395970D01*
X253111000Y-62365319D01*
X252799797Y-62395970D01*
X252500552Y-62486745D01*
X252224766Y-62634155D01*
X251983037Y-62832537D01*
X251841000Y-63005609D01*
X251698963Y-62832537D01*
X251457235Y-62634155D01*
X251181449Y-62486745D01*
X250882204Y-62395970D01*
X250571000Y-62365319D01*
X250259797Y-62395970D01*
X249960552Y-62486745D01*
X249684766Y-62634155D01*
X249443037Y-62832537D01*
X249244655Y-63074265D01*
X249097245Y-63350051D01*
X249047000Y-63515687D01*
X249047000Y-58889000D01*
X249082928Y-58889000D01*
X249095188Y-59013482D01*
X249131498Y-59133180D01*
X249190463Y-59243494D01*
X249269815Y-59340185D01*
X249366506Y-59419537D01*
X249476820Y-59478502D01*
X249549380Y-59500513D01*
X249417525Y-59632368D01*
X249255010Y-59875589D01*
X249143068Y-60145842D01*
X249086000Y-60432740D01*
X249086000Y-60725260D01*
X249143068Y-61012158D01*
X249255010Y-61282411D01*
X249417525Y-61525632D01*
X249624368Y-61732475D01*
X249867589Y-61894990D01*
X250137842Y-62006932D01*
X250424740Y-62064000D01*
X250717260Y-62064000D01*
X251004158Y-62006932D01*
X251274411Y-61894990D01*
X251517632Y-61732475D01*
X251724475Y-61525632D01*
X251886990Y-61282411D01*
X251998932Y-61012158D01*
X252056000Y-60725260D01*
X252056000Y-60432740D01*
X251998932Y-60145842D01*
X251886990Y-59875589D01*
X251724475Y-59632368D01*
X251680168Y-59588061D01*
X257156000Y-59588061D01*
X257156000Y-59791939D01*
X257195774Y-59991898D01*
X257273795Y-60180256D01*
X257387063Y-60349774D01*
X257531226Y-60493937D01*
X257700744Y-60607205D01*
X257889102Y-60685226D01*
X258089061Y-60725000D01*
X258292939Y-60725000D01*
X258492898Y-60685226D01*
X258681256Y-60607205D01*
X258850774Y-60493937D01*
X258994937Y-60349774D01*
X259108205Y-60180256D01*
X259186226Y-59991898D01*
X259226000Y-59791939D01*
X259226000Y-59729000D01*
X260131928Y-59729000D01*
X260131928Y-61429000D01*
X260144188Y-61553482D01*
X260180498Y-61673180D01*
X260239463Y-61783494D01*
X260318815Y-61880185D01*
X260415506Y-61959537D01*
X260525820Y-62018502D01*
X260645518Y-62054812D01*
X260770000Y-62067072D01*
X262470000Y-62067072D01*
X262594482Y-62054812D01*
X262714180Y-62018502D01*
X262824494Y-61959537D01*
X262921185Y-61880185D01*
X263000537Y-61783494D01*
X263059502Y-61673180D01*
X263095812Y-61553482D01*
X263108072Y-61429000D01*
X263108072Y-60985061D01*
X269348000Y-60985061D01*
X269348000Y-61188939D01*
X269387774Y-61388898D01*
X269465795Y-61577256D01*
X269579063Y-61746774D01*
X269723226Y-61890937D01*
X269892744Y-62004205D01*
X270081102Y-62082226D01*
X270281061Y-62122000D01*
X270484939Y-62122000D01*
X270684898Y-62082226D01*
X270873256Y-62004205D01*
X271042774Y-61890937D01*
X271186937Y-61746774D01*
X271300205Y-61577256D01*
X271378226Y-61388898D01*
X271418000Y-61188939D01*
X271418000Y-60985061D01*
X271378226Y-60785102D01*
X271300205Y-60596744D01*
X271186937Y-60427226D01*
X271042774Y-60283063D01*
X270873256Y-60169795D01*
X270684898Y-60091774D01*
X270484939Y-60052000D01*
X270281061Y-60052000D01*
X270081102Y-60091774D01*
X269892744Y-60169795D01*
X269723226Y-60283063D01*
X269579063Y-60427226D01*
X269465795Y-60596744D01*
X269387774Y-60785102D01*
X269348000Y-60985061D01*
X263108072Y-60985061D01*
X263108072Y-59760000D01*
X273243928Y-59760000D01*
X273243928Y-62160000D01*
X273256188Y-62284482D01*
X273292498Y-62404180D01*
X273351463Y-62514494D01*
X273430815Y-62611185D01*
X273527506Y-62690537D01*
X273637820Y-62749502D01*
X273757518Y-62785812D01*
X273882000Y-62798072D01*
X276282000Y-62798072D01*
X276406482Y-62785812D01*
X276526180Y-62749502D01*
X276636494Y-62690537D01*
X276733185Y-62611185D01*
X276812537Y-62514494D01*
X276871502Y-62404180D01*
X276907812Y-62284482D01*
X276920072Y-62160000D01*
X276920072Y-60779268D01*
X278247000Y-60779268D01*
X278247000Y-61140732D01*
X278317518Y-61495250D01*
X278455844Y-61829199D01*
X278656662Y-62129744D01*
X278912256Y-62385338D01*
X279212801Y-62586156D01*
X279546750Y-62724482D01*
X279901268Y-62795000D01*
X280262732Y-62795000D01*
X280617250Y-62724482D01*
X280951199Y-62586156D01*
X281251744Y-62385338D01*
X281507338Y-62129744D01*
X281708156Y-61829199D01*
X281846482Y-61495250D01*
X281917000Y-61140732D01*
X281917000Y-60779268D01*
X281846482Y-60424750D01*
X281708156Y-60090801D01*
X281507338Y-59790256D01*
X281251744Y-59534662D01*
X281199000Y-59499419D01*
X288387000Y-59499419D01*
X288387000Y-59880581D01*
X288461361Y-60254419D01*
X288607225Y-60606566D01*
X288818987Y-60923491D01*
X289088509Y-61193013D01*
X289405434Y-61404775D01*
X289757581Y-61550639D01*
X290131419Y-61625000D01*
X290512581Y-61625000D01*
X290886419Y-61550639D01*
X291238566Y-61404775D01*
X291555491Y-61193013D01*
X291825013Y-60923491D01*
X292036775Y-60606566D01*
X292182639Y-60254419D01*
X292257000Y-59880581D01*
X292257000Y-59499419D01*
X292182639Y-59125581D01*
X292036775Y-58773434D01*
X291825013Y-58456509D01*
X291555491Y-58186987D01*
X291238566Y-57975225D01*
X290886419Y-57829361D01*
X290512581Y-57755000D01*
X290131419Y-57755000D01*
X289757581Y-57829361D01*
X289405434Y-57975225D01*
X289088509Y-58186987D01*
X288818987Y-58456509D01*
X288607225Y-58773434D01*
X288461361Y-59125581D01*
X288387000Y-59499419D01*
X281199000Y-59499419D01*
X280951199Y-59333844D01*
X280617250Y-59195518D01*
X280262732Y-59125000D01*
X279901268Y-59125000D01*
X279546750Y-59195518D01*
X279212801Y-59333844D01*
X278912256Y-59534662D01*
X278656662Y-59790256D01*
X278455844Y-60090801D01*
X278317518Y-60424750D01*
X278247000Y-60779268D01*
X276920072Y-60779268D01*
X276920072Y-59760000D01*
X276907812Y-59635518D01*
X276871502Y-59515820D01*
X276812537Y-59405506D01*
X276733185Y-59308815D01*
X276636494Y-59229463D01*
X276526180Y-59170498D01*
X276406482Y-59134188D01*
X276282000Y-59121928D01*
X273882000Y-59121928D01*
X273757518Y-59134188D01*
X273637820Y-59170498D01*
X273527506Y-59229463D01*
X273430815Y-59308815D01*
X273351463Y-59405506D01*
X273292498Y-59515820D01*
X273256188Y-59635518D01*
X273243928Y-59760000D01*
X263108072Y-59760000D01*
X263108072Y-59729000D01*
X263095812Y-59604518D01*
X263059502Y-59484820D01*
X263000537Y-59374506D01*
X262921185Y-59277815D01*
X262824494Y-59198463D01*
X262714180Y-59139498D01*
X262641620Y-59117487D01*
X262773475Y-58985632D01*
X262935990Y-58742411D01*
X263047932Y-58472158D01*
X263105000Y-58185260D01*
X263105000Y-57892740D01*
X263047932Y-57605842D01*
X262935990Y-57335589D01*
X262773475Y-57092368D01*
X262566632Y-56885525D01*
X262323411Y-56723010D01*
X262053158Y-56611068D01*
X261766260Y-56554000D01*
X261473740Y-56554000D01*
X261186842Y-56611068D01*
X260916589Y-56723010D01*
X260673368Y-56885525D01*
X260466525Y-57092368D01*
X260304010Y-57335589D01*
X260192068Y-57605842D01*
X260135000Y-57892740D01*
X260135000Y-58185260D01*
X260192068Y-58472158D01*
X260304010Y-58742411D01*
X260466525Y-58985632D01*
X260598380Y-59117487D01*
X260525820Y-59139498D01*
X260415506Y-59198463D01*
X260318815Y-59277815D01*
X260239463Y-59374506D01*
X260180498Y-59484820D01*
X260144188Y-59604518D01*
X260131928Y-59729000D01*
X259226000Y-59729000D01*
X259226000Y-59588061D01*
X259186226Y-59388102D01*
X259108205Y-59199744D01*
X258994937Y-59030226D01*
X258850774Y-58886063D01*
X258681256Y-58772795D01*
X258492898Y-58694774D01*
X258292939Y-58655000D01*
X258089061Y-58655000D01*
X257889102Y-58694774D01*
X257700744Y-58772795D01*
X257531226Y-58886063D01*
X257387063Y-59030226D01*
X257273795Y-59199744D01*
X257195774Y-59388102D01*
X257156000Y-59588061D01*
X251680168Y-59588061D01*
X251592620Y-59500513D01*
X251665180Y-59478502D01*
X251775494Y-59419537D01*
X251872185Y-59340185D01*
X251951537Y-59243494D01*
X252010502Y-59133180D01*
X252046812Y-59013482D01*
X252059072Y-58889000D01*
X252056000Y-58324750D01*
X251897250Y-58166000D01*
X250698000Y-58166000D01*
X250698000Y-58186000D01*
X250444000Y-58186000D01*
X250444000Y-58166000D01*
X249244750Y-58166000D01*
X249086000Y-58324750D01*
X249082928Y-58889000D01*
X249047000Y-58889000D01*
X249047000Y-57189000D01*
X249082928Y-57189000D01*
X249086000Y-57753250D01*
X249244750Y-57912000D01*
X250444000Y-57912000D01*
X250444000Y-56712750D01*
X250698000Y-56712750D01*
X250698000Y-57912000D01*
X251897250Y-57912000D01*
X252056000Y-57753250D01*
X252059072Y-57189000D01*
X252046812Y-57064518D01*
X252010502Y-56944820D01*
X251951537Y-56834506D01*
X251872185Y-56737815D01*
X251775494Y-56658463D01*
X251665180Y-56599498D01*
X251545482Y-56563188D01*
X251421000Y-56550928D01*
X250856750Y-56554000D01*
X250698000Y-56712750D01*
X250444000Y-56712750D01*
X250285250Y-56554000D01*
X249721000Y-56550928D01*
X249596518Y-56563188D01*
X249476820Y-56599498D01*
X249366506Y-56658463D01*
X249269815Y-56737815D01*
X249190463Y-56834506D01*
X249131498Y-56944820D01*
X249095188Y-57064518D01*
X249082928Y-57189000D01*
X249047000Y-57189000D01*
X249047000Y-55103665D01*
X253367000Y-55103665D01*
X253367000Y-55386335D01*
X253422147Y-55663574D01*
X253530320Y-55924727D01*
X253687363Y-56159759D01*
X253887241Y-56359637D01*
X254122273Y-56516680D01*
X254383426Y-56624853D01*
X254660665Y-56680000D01*
X254943335Y-56680000D01*
X255220574Y-56624853D01*
X255481727Y-56516680D01*
X255716759Y-56359637D01*
X255883339Y-56193057D01*
X255912498Y-56289180D01*
X255971463Y-56399494D01*
X256050815Y-56496185D01*
X256147506Y-56575537D01*
X256257820Y-56634502D01*
X256377518Y-56670812D01*
X256502000Y-56683072D01*
X258102000Y-56683072D01*
X258226482Y-56670812D01*
X258346180Y-56634502D01*
X258456494Y-56575537D01*
X258553185Y-56496185D01*
X258632537Y-56399494D01*
X258691502Y-56289180D01*
X258727812Y-56169482D01*
X258740072Y-56045000D01*
X258740072Y-54445000D01*
X265261928Y-54445000D01*
X265261928Y-56045000D01*
X265274188Y-56169482D01*
X265310498Y-56289180D01*
X265369463Y-56399494D01*
X265448815Y-56496185D01*
X265545506Y-56575537D01*
X265655820Y-56634502D01*
X265775518Y-56670812D01*
X265900000Y-56683072D01*
X267500000Y-56683072D01*
X267624482Y-56670812D01*
X267744180Y-56634502D01*
X267854494Y-56575537D01*
X267951185Y-56496185D01*
X268030537Y-56399494D01*
X268089502Y-56289180D01*
X268118661Y-56193057D01*
X268285241Y-56359637D01*
X268520273Y-56516680D01*
X268781426Y-56624853D01*
X269058665Y-56680000D01*
X269341335Y-56680000D01*
X269618574Y-56624853D01*
X269879727Y-56516680D01*
X270114759Y-56359637D01*
X270314637Y-56159759D01*
X270471680Y-55924727D01*
X270579853Y-55663574D01*
X270635000Y-55386335D01*
X270635000Y-55103665D01*
X270579853Y-54826426D01*
X270471680Y-54565273D01*
X270374224Y-54419419D01*
X288387000Y-54419419D01*
X288387000Y-54800581D01*
X288461361Y-55174419D01*
X288607225Y-55526566D01*
X288818987Y-55843491D01*
X289088509Y-56113013D01*
X289405434Y-56324775D01*
X289757581Y-56470639D01*
X290131419Y-56545000D01*
X290512581Y-56545000D01*
X290886419Y-56470639D01*
X291238566Y-56324775D01*
X291555491Y-56113013D01*
X291825013Y-55843491D01*
X292036775Y-55526566D01*
X292182639Y-55174419D01*
X292257000Y-54800581D01*
X292257000Y-54419419D01*
X292182639Y-54045581D01*
X292036775Y-53693434D01*
X291825013Y-53376509D01*
X291555491Y-53106987D01*
X291238566Y-52895225D01*
X290886419Y-52749361D01*
X290512581Y-52675000D01*
X290131419Y-52675000D01*
X289757581Y-52749361D01*
X289405434Y-52895225D01*
X289088509Y-53106987D01*
X288818987Y-53376509D01*
X288607225Y-53693434D01*
X288461361Y-54045581D01*
X288387000Y-54419419D01*
X270374224Y-54419419D01*
X270314637Y-54330241D01*
X270114759Y-54130363D01*
X269879727Y-53973320D01*
X269618574Y-53865147D01*
X269341335Y-53810000D01*
X269058665Y-53810000D01*
X268781426Y-53865147D01*
X268520273Y-53973320D01*
X268285241Y-54130363D01*
X268118661Y-54296943D01*
X268089502Y-54200820D01*
X268030537Y-54090506D01*
X267951185Y-53993815D01*
X267854494Y-53914463D01*
X267744180Y-53855498D01*
X267624482Y-53819188D01*
X267500000Y-53806928D01*
X265900000Y-53806928D01*
X265775518Y-53819188D01*
X265655820Y-53855498D01*
X265545506Y-53914463D01*
X265448815Y-53993815D01*
X265369463Y-54090506D01*
X265310498Y-54200820D01*
X265274188Y-54320518D01*
X265261928Y-54445000D01*
X258740072Y-54445000D01*
X258727812Y-54320518D01*
X258691502Y-54200820D01*
X258632537Y-54090506D01*
X258553185Y-53993815D01*
X258456494Y-53914463D01*
X258346180Y-53855498D01*
X258226482Y-53819188D01*
X258102000Y-53806928D01*
X256502000Y-53806928D01*
X256377518Y-53819188D01*
X256257820Y-53855498D01*
X256147506Y-53914463D01*
X256050815Y-53993815D01*
X255971463Y-54090506D01*
X255912498Y-54200820D01*
X255883339Y-54296943D01*
X255716759Y-54130363D01*
X255481727Y-53973320D01*
X255220574Y-53865147D01*
X254943335Y-53810000D01*
X254660665Y-53810000D01*
X254383426Y-53865147D01*
X254122273Y-53973320D01*
X253887241Y-54130363D01*
X253687363Y-54330241D01*
X253530320Y-54565273D01*
X253422147Y-54826426D01*
X253367000Y-55103665D01*
X249047000Y-55103665D01*
X249047000Y-48362890D01*
X266782524Y-48362890D01*
X266827175Y-48510099D01*
X266952359Y-48772920D01*
X267126412Y-49006269D01*
X267342645Y-49201178D01*
X267592748Y-49350157D01*
X267867109Y-49447481D01*
X268097000Y-49326814D01*
X268097000Y-48133000D01*
X268351000Y-48133000D01*
X268351000Y-49326814D01*
X268580891Y-49447481D01*
X268855252Y-49350157D01*
X269105355Y-49201178D01*
X269321588Y-49006269D01*
X269495641Y-48772920D01*
X269620825Y-48510099D01*
X269665476Y-48362890D01*
X269544155Y-48133000D01*
X268351000Y-48133000D01*
X268097000Y-48133000D01*
X266903845Y-48133000D01*
X266782524Y-48362890D01*
X249047000Y-48362890D01*
X249047000Y-42609476D01*
X249178920Y-42546641D01*
X249412269Y-42372588D01*
X249607178Y-42156355D01*
X249678274Y-42037000D01*
X254131738Y-42037000D01*
X254147486Y-42090671D01*
G36*
X205825063Y-25551774D02*
G01*
X205969226Y-25695937D01*
X206138744Y-25809205D01*
X206327102Y-25887226D01*
X206527061Y-25927000D01*
X206730939Y-25927000D01*
X206930898Y-25887226D01*
X207119256Y-25809205D01*
X207288774Y-25695937D01*
X207432937Y-25551774D01*
X207449490Y-25527000D01*
X222885289Y-25527000D01*
X222972226Y-25613937D01*
X223141744Y-25727205D01*
X223330102Y-25805226D01*
X223530061Y-25845000D01*
X223733939Y-25845000D01*
X223933898Y-25805226D01*
X224122256Y-25727205D01*
X224291774Y-25613937D01*
X224378711Y-25527000D01*
X240053442Y-25527000D01*
X240100063Y-25596774D01*
X240244226Y-25740937D01*
X240413744Y-25854205D01*
X240602102Y-25932226D01*
X240802061Y-25972000D01*
X241005939Y-25972000D01*
X241205898Y-25932226D01*
X241394256Y-25854205D01*
X241563774Y-25740937D01*
X241707937Y-25596774D01*
X241754558Y-25527000D01*
X257071442Y-25527000D01*
X257118063Y-25596774D01*
X257262226Y-25740937D01*
X257431744Y-25854205D01*
X257620102Y-25932226D01*
X257820061Y-25972000D01*
X258023939Y-25972000D01*
X258223898Y-25932226D01*
X258412256Y-25854205D01*
X258581774Y-25740937D01*
X258725937Y-25596774D01*
X258772558Y-25527000D01*
X279169442Y-25527000D01*
X279216063Y-25596774D01*
X279360226Y-25740937D01*
X279529744Y-25854205D01*
X279718102Y-25932226D01*
X279918061Y-25972000D01*
X280121939Y-25972000D01*
X280321898Y-25932226D01*
X280510256Y-25854205D01*
X280679774Y-25740937D01*
X280823937Y-25596774D01*
X280870558Y-25527000D01*
X292608000Y-25527000D01*
X292608000Y-30984532D01*
X292448256Y-30877795D01*
X292259898Y-30799774D01*
X292059939Y-30760000D01*
X291856061Y-30760000D01*
X291656102Y-30799774D01*
X291467744Y-30877795D01*
X291298226Y-30991063D01*
X291154063Y-31135226D01*
X291040795Y-31304744D01*
X290962774Y-31493102D01*
X290923000Y-31693061D01*
X290923000Y-31896939D01*
X290962774Y-32096898D01*
X291040795Y-32285256D01*
X291154063Y-32454774D01*
X291298226Y-32598937D01*
X291467744Y-32712205D01*
X291656102Y-32790226D01*
X291856061Y-32830000D01*
X292059939Y-32830000D01*
X292259898Y-32790226D01*
X292448256Y-32712205D01*
X292608000Y-32605468D01*
X292608000Y-33570981D01*
X292507937Y-33421226D01*
X292363774Y-33277063D01*
X292194256Y-33163795D01*
X292005898Y-33085774D01*
X291805939Y-33046000D01*
X291602061Y-33046000D01*
X291402102Y-33085774D01*
X291213744Y-33163795D01*
X291044226Y-33277063D01*
X290900063Y-33421226D01*
X290786795Y-33590744D01*
X290708774Y-33779102D01*
X290669000Y-33979061D01*
X290669000Y-34182939D01*
X290708774Y-34382898D01*
X290786795Y-34571256D01*
X290900063Y-34740774D01*
X291044226Y-34884937D01*
X291213744Y-34998205D01*
X291402102Y-35076226D01*
X291602061Y-35116000D01*
X291805939Y-35116000D01*
X292005898Y-35076226D01*
X292194256Y-34998205D01*
X292363774Y-34884937D01*
X292507937Y-34740774D01*
X292608000Y-34591019D01*
X292608000Y-36703000D01*
X288983490Y-36703000D01*
X288966937Y-36678226D01*
X288822774Y-36534063D01*
X288653256Y-36420795D01*
X288464898Y-36342774D01*
X288264939Y-36303000D01*
X288061061Y-36303000D01*
X287861102Y-36342774D01*
X287672744Y-36420795D01*
X287503226Y-36534063D01*
X287359063Y-36678226D01*
X287342510Y-36703000D01*
X267859349Y-36703000D01*
X267871205Y-36685256D01*
X267949226Y-36496898D01*
X267989000Y-36296939D01*
X267989000Y-36093061D01*
X267949226Y-35893102D01*
X267871205Y-35704744D01*
X267757937Y-35535226D01*
X267613774Y-35391063D01*
X267444256Y-35277795D01*
X267255898Y-35199774D01*
X267055939Y-35160000D01*
X266852061Y-35160000D01*
X266652102Y-35199774D01*
X266463744Y-35277795D01*
X266294226Y-35391063D01*
X266150063Y-35535226D01*
X266036795Y-35704744D01*
X265958774Y-35893102D01*
X265919000Y-36093061D01*
X265919000Y-36296939D01*
X265958774Y-36496898D01*
X266036795Y-36685256D01*
X266048651Y-36703000D01*
X203327000Y-36703000D01*
X203327000Y-33934061D01*
X217278000Y-33934061D01*
X217278000Y-34137939D01*
X217317774Y-34337898D01*
X217395795Y-34526256D01*
X217509063Y-34695774D01*
X217653226Y-34839937D01*
X217822744Y-34953205D01*
X218011102Y-35031226D01*
X218211061Y-35071000D01*
X218414939Y-35071000D01*
X218614898Y-35031226D01*
X218803256Y-34953205D01*
X218972774Y-34839937D01*
X219116937Y-34695774D01*
X219230205Y-34526256D01*
X219308226Y-34337898D01*
X219348000Y-34137939D01*
X219348000Y-33934061D01*
X219331690Y-33852061D01*
X234281000Y-33852061D01*
X234281000Y-34055939D01*
X234320774Y-34255898D01*
X234398795Y-34444256D01*
X234512063Y-34613774D01*
X234656226Y-34757937D01*
X234825744Y-34871205D01*
X235014102Y-34949226D01*
X235214061Y-34989000D01*
X235417939Y-34989000D01*
X235617898Y-34949226D01*
X235806256Y-34871205D01*
X235975774Y-34757937D01*
X236119937Y-34613774D01*
X236233205Y-34444256D01*
X236311226Y-34255898D01*
X236351000Y-34055939D01*
X236351000Y-33979061D01*
X251553000Y-33979061D01*
X251553000Y-34182939D01*
X251592774Y-34382898D01*
X251670795Y-34571256D01*
X251784063Y-34740774D01*
X251928226Y-34884937D01*
X252097744Y-34998205D01*
X252286102Y-35076226D01*
X252486061Y-35116000D01*
X252689939Y-35116000D01*
X252889898Y-35076226D01*
X253078256Y-34998205D01*
X253247774Y-34884937D01*
X253391937Y-34740774D01*
X253505205Y-34571256D01*
X253583226Y-34382898D01*
X253623000Y-34182939D01*
X253623000Y-33979061D01*
X268571000Y-33979061D01*
X268571000Y-34182939D01*
X268610774Y-34382898D01*
X268688795Y-34571256D01*
X268802063Y-34740774D01*
X268946226Y-34884937D01*
X269115744Y-34998205D01*
X269304102Y-35076226D01*
X269504061Y-35116000D01*
X269707939Y-35116000D01*
X269907898Y-35076226D01*
X270096256Y-34998205D01*
X270265774Y-34884937D01*
X270409937Y-34740774D01*
X270523205Y-34571256D01*
X270601226Y-34382898D01*
X270641000Y-34182939D01*
X270641000Y-33979061D01*
X270601226Y-33779102D01*
X270523205Y-33590744D01*
X270409937Y-33421226D01*
X270265774Y-33277063D01*
X270096256Y-33163795D01*
X269907898Y-33085774D01*
X269707939Y-33046000D01*
X269504061Y-33046000D01*
X269304102Y-33085774D01*
X269115744Y-33163795D01*
X268946226Y-33277063D01*
X268802063Y-33421226D01*
X268688795Y-33590744D01*
X268610774Y-33779102D01*
X268571000Y-33979061D01*
X253623000Y-33979061D01*
X253583226Y-33779102D01*
X253505205Y-33590744D01*
X253391937Y-33421226D01*
X253247774Y-33277063D01*
X253078256Y-33163795D01*
X252889898Y-33085774D01*
X252689939Y-33046000D01*
X252486061Y-33046000D01*
X252286102Y-33085774D01*
X252097744Y-33163795D01*
X251928226Y-33277063D01*
X251784063Y-33421226D01*
X251670795Y-33590744D01*
X251592774Y-33779102D01*
X251553000Y-33979061D01*
X236351000Y-33979061D01*
X236351000Y-33852061D01*
X236311226Y-33652102D01*
X236233205Y-33463744D01*
X236119937Y-33294226D01*
X235975774Y-33150063D01*
X235806256Y-33036795D01*
X235617898Y-32958774D01*
X235417939Y-32919000D01*
X235214061Y-32919000D01*
X235014102Y-32958774D01*
X234825744Y-33036795D01*
X234656226Y-33150063D01*
X234512063Y-33294226D01*
X234398795Y-33463744D01*
X234320774Y-33652102D01*
X234281000Y-33852061D01*
X219331690Y-33852061D01*
X219308226Y-33734102D01*
X219230205Y-33545744D01*
X219116937Y-33376226D01*
X218972774Y-33232063D01*
X218803256Y-33118795D01*
X218614898Y-33040774D01*
X218414939Y-33001000D01*
X218211061Y-33001000D01*
X218011102Y-33040774D01*
X217822744Y-33118795D01*
X217653226Y-33232063D01*
X217509063Y-33376226D01*
X217395795Y-33545744D01*
X217317774Y-33734102D01*
X217278000Y-33934061D01*
X203327000Y-33934061D01*
X203327000Y-31521061D01*
X205975000Y-31521061D01*
X205975000Y-31724939D01*
X206014774Y-31924898D01*
X206092795Y-32113256D01*
X206206063Y-32282774D01*
X206350226Y-32426937D01*
X206519744Y-32540205D01*
X206708102Y-32618226D01*
X206908061Y-32658000D01*
X207111939Y-32658000D01*
X207311898Y-32618226D01*
X207500256Y-32540205D01*
X207548454Y-32508000D01*
X208109531Y-32508000D01*
X208153000Y-32512281D01*
X208196469Y-32508000D01*
X208196477Y-32508000D01*
X208326490Y-32495195D01*
X208493313Y-32444589D01*
X208647059Y-32362411D01*
X208781817Y-32251817D01*
X208809534Y-32218044D01*
X209379517Y-31648061D01*
X217532000Y-31648061D01*
X217532000Y-31851939D01*
X217571774Y-32051898D01*
X217649795Y-32240256D01*
X217763063Y-32409774D01*
X217907226Y-32553937D01*
X218076744Y-32667205D01*
X218265102Y-32745226D01*
X218465061Y-32785000D01*
X218668939Y-32785000D01*
X218868898Y-32745226D01*
X219057256Y-32667205D01*
X219226774Y-32553937D01*
X219370937Y-32409774D01*
X219484205Y-32240256D01*
X219562226Y-32051898D01*
X219602000Y-31851939D01*
X219602000Y-31648061D01*
X219562226Y-31448102D01*
X219558482Y-31439061D01*
X222978000Y-31439061D01*
X222978000Y-31642939D01*
X223017774Y-31842898D01*
X223095795Y-32031256D01*
X223209063Y-32200774D01*
X223353226Y-32344937D01*
X223522744Y-32458205D01*
X223711102Y-32536226D01*
X223911061Y-32576000D01*
X224114939Y-32576000D01*
X224314898Y-32536226D01*
X224503256Y-32458205D01*
X224551454Y-32426000D01*
X225112531Y-32426000D01*
X225156000Y-32430281D01*
X225199469Y-32426000D01*
X225199477Y-32426000D01*
X225329490Y-32413195D01*
X225496313Y-32362589D01*
X225650059Y-32280411D01*
X225784817Y-32169817D01*
X225812534Y-32136044D01*
X226382517Y-31566061D01*
X234535000Y-31566061D01*
X234535000Y-31769939D01*
X234574774Y-31969898D01*
X234652795Y-32158256D01*
X234766063Y-32327774D01*
X234910226Y-32471937D01*
X235079744Y-32585205D01*
X235268102Y-32663226D01*
X235468061Y-32703000D01*
X235671939Y-32703000D01*
X235871898Y-32663226D01*
X236060256Y-32585205D01*
X236229774Y-32471937D01*
X236373937Y-32327774D01*
X236487205Y-32158256D01*
X236565226Y-31969898D01*
X236605000Y-31769939D01*
X236605000Y-31566061D01*
X240250000Y-31566061D01*
X240250000Y-31769939D01*
X240289774Y-31969898D01*
X240367795Y-32158256D01*
X240481063Y-32327774D01*
X240625226Y-32471937D01*
X240794744Y-32585205D01*
X240983102Y-32663226D01*
X241183061Y-32703000D01*
X241386939Y-32703000D01*
X241586898Y-32663226D01*
X241775256Y-32585205D01*
X241823454Y-32553000D01*
X242384531Y-32553000D01*
X242428000Y-32557281D01*
X242471469Y-32553000D01*
X242471477Y-32553000D01*
X242601490Y-32540195D01*
X242768313Y-32489589D01*
X242922059Y-32407411D01*
X243056817Y-32296817D01*
X243084534Y-32263044D01*
X243654517Y-31693061D01*
X251807000Y-31693061D01*
X251807000Y-31896939D01*
X251846774Y-32096898D01*
X251924795Y-32285256D01*
X252038063Y-32454774D01*
X252182226Y-32598937D01*
X252351744Y-32712205D01*
X252540102Y-32790226D01*
X252740061Y-32830000D01*
X252943939Y-32830000D01*
X253143898Y-32790226D01*
X253332256Y-32712205D01*
X253501774Y-32598937D01*
X253645937Y-32454774D01*
X253759205Y-32285256D01*
X253837226Y-32096898D01*
X253877000Y-31896939D01*
X253877000Y-31693061D01*
X253851739Y-31566061D01*
X257268000Y-31566061D01*
X257268000Y-31769939D01*
X257307774Y-31969898D01*
X257385795Y-32158256D01*
X257499063Y-32327774D01*
X257643226Y-32471937D01*
X257812744Y-32585205D01*
X258001102Y-32663226D01*
X258201061Y-32703000D01*
X258404939Y-32703000D01*
X258604898Y-32663226D01*
X258793256Y-32585205D01*
X258841454Y-32553000D01*
X259402531Y-32553000D01*
X259446000Y-32557281D01*
X259489469Y-32553000D01*
X259489477Y-32553000D01*
X259619490Y-32540195D01*
X259786313Y-32489589D01*
X259940059Y-32407411D01*
X260074817Y-32296817D01*
X260102534Y-32263044D01*
X260672517Y-31693061D01*
X268825000Y-31693061D01*
X268825000Y-31896939D01*
X268864774Y-32096898D01*
X268942795Y-32285256D01*
X269056063Y-32454774D01*
X269200226Y-32598937D01*
X269369744Y-32712205D01*
X269558102Y-32790226D01*
X269758061Y-32830000D01*
X269961939Y-32830000D01*
X270161898Y-32790226D01*
X270350256Y-32712205D01*
X270519774Y-32598937D01*
X270663937Y-32454774D01*
X270777205Y-32285256D01*
X270855226Y-32096898D01*
X270895000Y-31896939D01*
X270895000Y-31693061D01*
X270869739Y-31566061D01*
X279366000Y-31566061D01*
X279366000Y-31769939D01*
X279405774Y-31969898D01*
X279483795Y-32158256D01*
X279597063Y-32327774D01*
X279741226Y-32471937D01*
X279910744Y-32585205D01*
X280099102Y-32663226D01*
X280299061Y-32703000D01*
X280502939Y-32703000D01*
X280702898Y-32663226D01*
X280891256Y-32585205D01*
X280939454Y-32553000D01*
X281500531Y-32553000D01*
X281544000Y-32557281D01*
X281587469Y-32553000D01*
X281587477Y-32553000D01*
X281717490Y-32540195D01*
X281884313Y-32489589D01*
X282038059Y-32407411D01*
X282172817Y-32296817D01*
X282200534Y-32263044D01*
X283821044Y-30642535D01*
X283877898Y-30631226D01*
X284066256Y-30553205D01*
X284235774Y-30439937D01*
X284379937Y-30295774D01*
X284493205Y-30126256D01*
X284571226Y-29937898D01*
X284611000Y-29737939D01*
X284611000Y-29534061D01*
X284571226Y-29334102D01*
X284493205Y-29145744D01*
X284379937Y-28976226D01*
X284235774Y-28832063D01*
X284066256Y-28718795D01*
X283877898Y-28640774D01*
X283677939Y-28601000D01*
X283474061Y-28601000D01*
X283274102Y-28640774D01*
X283085744Y-28718795D01*
X282916226Y-28832063D01*
X282772063Y-28976226D01*
X282658795Y-29145744D01*
X282580774Y-29334102D01*
X282569465Y-29390956D01*
X281177422Y-30783000D01*
X280939454Y-30783000D01*
X280891256Y-30750795D01*
X280702898Y-30672774D01*
X280502939Y-30633000D01*
X280299061Y-30633000D01*
X280099102Y-30672774D01*
X279910744Y-30750795D01*
X279741226Y-30864063D01*
X279597063Y-31008226D01*
X279483795Y-31177744D01*
X279405774Y-31366102D01*
X279366000Y-31566061D01*
X270869739Y-31566061D01*
X270855226Y-31493102D01*
X270777205Y-31304744D01*
X270663937Y-31135226D01*
X270519774Y-30991063D01*
X270350256Y-30877795D01*
X270161898Y-30799774D01*
X269961939Y-30760000D01*
X269758061Y-30760000D01*
X269558102Y-30799774D01*
X269369744Y-30877795D01*
X269200226Y-30991063D01*
X269056063Y-31135226D01*
X268942795Y-31304744D01*
X268864774Y-31493102D01*
X268825000Y-31693061D01*
X260672517Y-31693061D01*
X261723044Y-30642535D01*
X261779898Y-30631226D01*
X261968256Y-30553205D01*
X262137774Y-30439937D01*
X262281937Y-30295774D01*
X262395205Y-30126256D01*
X262473226Y-29937898D01*
X262513000Y-29737939D01*
X262513000Y-29534061D01*
X262473226Y-29334102D01*
X262395205Y-29145744D01*
X262281937Y-28976226D01*
X262137774Y-28832063D01*
X261968256Y-28718795D01*
X261779898Y-28640774D01*
X261579939Y-28601000D01*
X261376061Y-28601000D01*
X261176102Y-28640774D01*
X260987744Y-28718795D01*
X260818226Y-28832063D01*
X260674063Y-28976226D01*
X260560795Y-29145744D01*
X260482774Y-29334102D01*
X260471465Y-29390956D01*
X259079422Y-30783000D01*
X258841454Y-30783000D01*
X258793256Y-30750795D01*
X258604898Y-30672774D01*
X258404939Y-30633000D01*
X258201061Y-30633000D01*
X258001102Y-30672774D01*
X257812744Y-30750795D01*
X257643226Y-30864063D01*
X257499063Y-31008226D01*
X257385795Y-31177744D01*
X257307774Y-31366102D01*
X257268000Y-31566061D01*
X253851739Y-31566061D01*
X253837226Y-31493102D01*
X253759205Y-31304744D01*
X253645937Y-31135226D01*
X253501774Y-30991063D01*
X253332256Y-30877795D01*
X253143898Y-30799774D01*
X252943939Y-30760000D01*
X252740061Y-30760000D01*
X252540102Y-30799774D01*
X252351744Y-30877795D01*
X252182226Y-30991063D01*
X252038063Y-31135226D01*
X251924795Y-31304744D01*
X251846774Y-31493102D01*
X251807000Y-31693061D01*
X243654517Y-31693061D01*
X244705044Y-30642535D01*
X244761898Y-30631226D01*
X244950256Y-30553205D01*
X245119774Y-30439937D01*
X245263937Y-30295774D01*
X245377205Y-30126256D01*
X245455226Y-29937898D01*
X245495000Y-29737939D01*
X245495000Y-29534061D01*
X245455226Y-29334102D01*
X245377205Y-29145744D01*
X245263937Y-28976226D01*
X245119774Y-28832063D01*
X244950256Y-28718795D01*
X244761898Y-28640774D01*
X244561939Y-28601000D01*
X244358061Y-28601000D01*
X244158102Y-28640774D01*
X243969744Y-28718795D01*
X243800226Y-28832063D01*
X243656063Y-28976226D01*
X243542795Y-29145744D01*
X243464774Y-29334102D01*
X243453465Y-29390956D01*
X242061422Y-30783000D01*
X241823454Y-30783000D01*
X241775256Y-30750795D01*
X241586898Y-30672774D01*
X241386939Y-30633000D01*
X241183061Y-30633000D01*
X240983102Y-30672774D01*
X240794744Y-30750795D01*
X240625226Y-30864063D01*
X240481063Y-31008226D01*
X240367795Y-31177744D01*
X240289774Y-31366102D01*
X240250000Y-31566061D01*
X236605000Y-31566061D01*
X236565226Y-31366102D01*
X236487205Y-31177744D01*
X236373937Y-31008226D01*
X236229774Y-30864063D01*
X236060256Y-30750795D01*
X235871898Y-30672774D01*
X235671939Y-30633000D01*
X235468061Y-30633000D01*
X235268102Y-30672774D01*
X235079744Y-30750795D01*
X234910226Y-30864063D01*
X234766063Y-31008226D01*
X234652795Y-31177744D01*
X234574774Y-31366102D01*
X234535000Y-31566061D01*
X226382517Y-31566061D01*
X227433044Y-30515535D01*
X227489898Y-30504226D01*
X227678256Y-30426205D01*
X227847774Y-30312937D01*
X227991937Y-30168774D01*
X228105205Y-29999256D01*
X228183226Y-29810898D01*
X228223000Y-29610939D01*
X228223000Y-29407061D01*
X228183226Y-29207102D01*
X228105205Y-29018744D01*
X227991937Y-28849226D01*
X227847774Y-28705063D01*
X227678256Y-28591795D01*
X227489898Y-28513774D01*
X227289939Y-28474000D01*
X227086061Y-28474000D01*
X226886102Y-28513774D01*
X226697744Y-28591795D01*
X226528226Y-28705063D01*
X226384063Y-28849226D01*
X226270795Y-29018744D01*
X226192774Y-29207102D01*
X226181465Y-29263956D01*
X224789422Y-30656000D01*
X224551454Y-30656000D01*
X224503256Y-30623795D01*
X224314898Y-30545774D01*
X224114939Y-30506000D01*
X223911061Y-30506000D01*
X223711102Y-30545774D01*
X223522744Y-30623795D01*
X223353226Y-30737063D01*
X223209063Y-30881226D01*
X223095795Y-31050744D01*
X223017774Y-31239102D01*
X222978000Y-31439061D01*
X219558482Y-31439061D01*
X219484205Y-31259744D01*
X219370937Y-31090226D01*
X219226774Y-30946063D01*
X219057256Y-30832795D01*
X218868898Y-30754774D01*
X218668939Y-30715000D01*
X218465061Y-30715000D01*
X218265102Y-30754774D01*
X218076744Y-30832795D01*
X217907226Y-30946063D01*
X217763063Y-31090226D01*
X217649795Y-31259744D01*
X217571774Y-31448102D01*
X217532000Y-31648061D01*
X209379517Y-31648061D01*
X210430044Y-30597535D01*
X210486898Y-30586226D01*
X210675256Y-30508205D01*
X210844774Y-30394937D01*
X210988937Y-30250774D01*
X211102205Y-30081256D01*
X211180226Y-29892898D01*
X211220000Y-29692939D01*
X211220000Y-29489061D01*
X211180226Y-29289102D01*
X211102205Y-29100744D01*
X210988937Y-28931226D01*
X210844774Y-28787063D01*
X210675256Y-28673795D01*
X210486898Y-28595774D01*
X210286939Y-28556000D01*
X210083061Y-28556000D01*
X209883102Y-28595774D01*
X209694744Y-28673795D01*
X209525226Y-28787063D01*
X209381063Y-28931226D01*
X209267795Y-29100744D01*
X209189774Y-29289102D01*
X209178465Y-29345956D01*
X207786422Y-30738000D01*
X207548454Y-30738000D01*
X207500256Y-30705795D01*
X207311898Y-30627774D01*
X207111939Y-30588000D01*
X206908061Y-30588000D01*
X206708102Y-30627774D01*
X206519744Y-30705795D01*
X206350226Y-30819063D01*
X206206063Y-30963226D01*
X206092795Y-31132744D01*
X206014774Y-31321102D01*
X205975000Y-31521061D01*
X203327000Y-31521061D01*
X203327000Y-25527000D01*
X205808510Y-25527000D01*
X205825063Y-25551774D01*
G37*
X205825063Y-25551774D02*
X205969226Y-25695937D01*
X206138744Y-25809205D01*
X206327102Y-25887226D01*
X206527061Y-25927000D01*
X206730939Y-25927000D01*
X206930898Y-25887226D01*
X207119256Y-25809205D01*
X207288774Y-25695937D01*
X207432937Y-25551774D01*
X207449490Y-25527000D01*
X222885289Y-25527000D01*
X222972226Y-25613937D01*
X223141744Y-25727205D01*
X223330102Y-25805226D01*
X223530061Y-25845000D01*
X223733939Y-25845000D01*
X223933898Y-25805226D01*
X224122256Y-25727205D01*
X224291774Y-25613937D01*
X224378711Y-25527000D01*
X240053442Y-25527000D01*
X240100063Y-25596774D01*
X240244226Y-25740937D01*
X240413744Y-25854205D01*
X240602102Y-25932226D01*
X240802061Y-25972000D01*
X241005939Y-25972000D01*
X241205898Y-25932226D01*
X241394256Y-25854205D01*
X241563774Y-25740937D01*
X241707937Y-25596774D01*
X241754558Y-25527000D01*
X257071442Y-25527000D01*
X257118063Y-25596774D01*
X257262226Y-25740937D01*
X257431744Y-25854205D01*
X257620102Y-25932226D01*
X257820061Y-25972000D01*
X258023939Y-25972000D01*
X258223898Y-25932226D01*
X258412256Y-25854205D01*
X258581774Y-25740937D01*
X258725937Y-25596774D01*
X258772558Y-25527000D01*
X279169442Y-25527000D01*
X279216063Y-25596774D01*
X279360226Y-25740937D01*
X279529744Y-25854205D01*
X279718102Y-25932226D01*
X279918061Y-25972000D01*
X280121939Y-25972000D01*
X280321898Y-25932226D01*
X280510256Y-25854205D01*
X280679774Y-25740937D01*
X280823937Y-25596774D01*
X280870558Y-25527000D01*
X292608000Y-25527000D01*
X292608000Y-30984532D01*
X292448256Y-30877795D01*
X292259898Y-30799774D01*
X292059939Y-30760000D01*
X291856061Y-30760000D01*
X291656102Y-30799774D01*
X291467744Y-30877795D01*
X291298226Y-30991063D01*
X291154063Y-31135226D01*
X291040795Y-31304744D01*
X290962774Y-31493102D01*
X290923000Y-31693061D01*
X290923000Y-31896939D01*
X290962774Y-32096898D01*
X291040795Y-32285256D01*
X291154063Y-32454774D01*
X291298226Y-32598937D01*
X291467744Y-32712205D01*
X291656102Y-32790226D01*
X291856061Y-32830000D01*
X292059939Y-32830000D01*
X292259898Y-32790226D01*
X292448256Y-32712205D01*
X292608000Y-32605468D01*
X292608000Y-33570981D01*
X292507937Y-33421226D01*
X292363774Y-33277063D01*
X292194256Y-33163795D01*
X292005898Y-33085774D01*
X291805939Y-33046000D01*
X291602061Y-33046000D01*
X291402102Y-33085774D01*
X291213744Y-33163795D01*
X291044226Y-33277063D01*
X290900063Y-33421226D01*
X290786795Y-33590744D01*
X290708774Y-33779102D01*
X290669000Y-33979061D01*
X290669000Y-34182939D01*
X290708774Y-34382898D01*
X290786795Y-34571256D01*
X290900063Y-34740774D01*
X291044226Y-34884937D01*
X291213744Y-34998205D01*
X291402102Y-35076226D01*
X291602061Y-35116000D01*
X291805939Y-35116000D01*
X292005898Y-35076226D01*
X292194256Y-34998205D01*
X292363774Y-34884937D01*
X292507937Y-34740774D01*
X292608000Y-34591019D01*
X292608000Y-36703000D01*
X288983490Y-36703000D01*
X288966937Y-36678226D01*
X288822774Y-36534063D01*
X288653256Y-36420795D01*
X288464898Y-36342774D01*
X288264939Y-36303000D01*
X288061061Y-36303000D01*
X287861102Y-36342774D01*
X287672744Y-36420795D01*
X287503226Y-36534063D01*
X287359063Y-36678226D01*
X287342510Y-36703000D01*
X267859349Y-36703000D01*
X267871205Y-36685256D01*
X267949226Y-36496898D01*
X267989000Y-36296939D01*
X267989000Y-36093061D01*
X267949226Y-35893102D01*
X267871205Y-35704744D01*
X267757937Y-35535226D01*
X267613774Y-35391063D01*
X267444256Y-35277795D01*
X267255898Y-35199774D01*
X267055939Y-35160000D01*
X266852061Y-35160000D01*
X266652102Y-35199774D01*
X266463744Y-35277795D01*
X266294226Y-35391063D01*
X266150063Y-35535226D01*
X266036795Y-35704744D01*
X265958774Y-35893102D01*
X265919000Y-36093061D01*
X265919000Y-36296939D01*
X265958774Y-36496898D01*
X266036795Y-36685256D01*
X266048651Y-36703000D01*
X203327000Y-36703000D01*
X203327000Y-33934061D01*
X217278000Y-33934061D01*
X217278000Y-34137939D01*
X217317774Y-34337898D01*
X217395795Y-34526256D01*
X217509063Y-34695774D01*
X217653226Y-34839937D01*
X217822744Y-34953205D01*
X218011102Y-35031226D01*
X218211061Y-35071000D01*
X218414939Y-35071000D01*
X218614898Y-35031226D01*
X218803256Y-34953205D01*
X218972774Y-34839937D01*
X219116937Y-34695774D01*
X219230205Y-34526256D01*
X219308226Y-34337898D01*
X219348000Y-34137939D01*
X219348000Y-33934061D01*
X219331690Y-33852061D01*
X234281000Y-33852061D01*
X234281000Y-34055939D01*
X234320774Y-34255898D01*
X234398795Y-34444256D01*
X234512063Y-34613774D01*
X234656226Y-34757937D01*
X234825744Y-34871205D01*
X235014102Y-34949226D01*
X235214061Y-34989000D01*
X235417939Y-34989000D01*
X235617898Y-34949226D01*
X235806256Y-34871205D01*
X235975774Y-34757937D01*
X236119937Y-34613774D01*
X236233205Y-34444256D01*
X236311226Y-34255898D01*
X236351000Y-34055939D01*
X236351000Y-33979061D01*
X251553000Y-33979061D01*
X251553000Y-34182939D01*
X251592774Y-34382898D01*
X251670795Y-34571256D01*
X251784063Y-34740774D01*
X251928226Y-34884937D01*
X252097744Y-34998205D01*
X252286102Y-35076226D01*
X252486061Y-35116000D01*
X252689939Y-35116000D01*
X252889898Y-35076226D01*
X253078256Y-34998205D01*
X253247774Y-34884937D01*
X253391937Y-34740774D01*
X253505205Y-34571256D01*
X253583226Y-34382898D01*
X253623000Y-34182939D01*
X253623000Y-33979061D01*
X268571000Y-33979061D01*
X268571000Y-34182939D01*
X268610774Y-34382898D01*
X268688795Y-34571256D01*
X268802063Y-34740774D01*
X268946226Y-34884937D01*
X269115744Y-34998205D01*
X269304102Y-35076226D01*
X269504061Y-35116000D01*
X269707939Y-35116000D01*
X269907898Y-35076226D01*
X270096256Y-34998205D01*
X270265774Y-34884937D01*
X270409937Y-34740774D01*
X270523205Y-34571256D01*
X270601226Y-34382898D01*
X270641000Y-34182939D01*
X270641000Y-33979061D01*
X270601226Y-33779102D01*
X270523205Y-33590744D01*
X270409937Y-33421226D01*
X270265774Y-33277063D01*
X270096256Y-33163795D01*
X269907898Y-33085774D01*
X269707939Y-33046000D01*
X269504061Y-33046000D01*
X269304102Y-33085774D01*
X269115744Y-33163795D01*
X268946226Y-33277063D01*
X268802063Y-33421226D01*
X268688795Y-33590744D01*
X268610774Y-33779102D01*
X268571000Y-33979061D01*
X253623000Y-33979061D01*
X253583226Y-33779102D01*
X253505205Y-33590744D01*
X253391937Y-33421226D01*
X253247774Y-33277063D01*
X253078256Y-33163795D01*
X252889898Y-33085774D01*
X252689939Y-33046000D01*
X252486061Y-33046000D01*
X252286102Y-33085774D01*
X252097744Y-33163795D01*
X251928226Y-33277063D01*
X251784063Y-33421226D01*
X251670795Y-33590744D01*
X251592774Y-33779102D01*
X251553000Y-33979061D01*
X236351000Y-33979061D01*
X236351000Y-33852061D01*
X236311226Y-33652102D01*
X236233205Y-33463744D01*
X236119937Y-33294226D01*
X235975774Y-33150063D01*
X235806256Y-33036795D01*
X235617898Y-32958774D01*
X235417939Y-32919000D01*
X235214061Y-32919000D01*
X235014102Y-32958774D01*
X234825744Y-33036795D01*
X234656226Y-33150063D01*
X234512063Y-33294226D01*
X234398795Y-33463744D01*
X234320774Y-33652102D01*
X234281000Y-33852061D01*
X219331690Y-33852061D01*
X219308226Y-33734102D01*
X219230205Y-33545744D01*
X219116937Y-33376226D01*
X218972774Y-33232063D01*
X218803256Y-33118795D01*
X218614898Y-33040774D01*
X218414939Y-33001000D01*
X218211061Y-33001000D01*
X218011102Y-33040774D01*
X217822744Y-33118795D01*
X217653226Y-33232063D01*
X217509063Y-33376226D01*
X217395795Y-33545744D01*
X217317774Y-33734102D01*
X217278000Y-33934061D01*
X203327000Y-33934061D01*
X203327000Y-31521061D01*
X205975000Y-31521061D01*
X205975000Y-31724939D01*
X206014774Y-31924898D01*
X206092795Y-32113256D01*
X206206063Y-32282774D01*
X206350226Y-32426937D01*
X206519744Y-32540205D01*
X206708102Y-32618226D01*
X206908061Y-32658000D01*
X207111939Y-32658000D01*
X207311898Y-32618226D01*
X207500256Y-32540205D01*
X207548454Y-32508000D01*
X208109531Y-32508000D01*
X208153000Y-32512281D01*
X208196469Y-32508000D01*
X208196477Y-32508000D01*
X208326490Y-32495195D01*
X208493313Y-32444589D01*
X208647059Y-32362411D01*
X208781817Y-32251817D01*
X208809534Y-32218044D01*
X209379517Y-31648061D01*
X217532000Y-31648061D01*
X217532000Y-31851939D01*
X217571774Y-32051898D01*
X217649795Y-32240256D01*
X217763063Y-32409774D01*
X217907226Y-32553937D01*
X218076744Y-32667205D01*
X218265102Y-32745226D01*
X218465061Y-32785000D01*
X218668939Y-32785000D01*
X218868898Y-32745226D01*
X219057256Y-32667205D01*
X219226774Y-32553937D01*
X219370937Y-32409774D01*
X219484205Y-32240256D01*
X219562226Y-32051898D01*
X219602000Y-31851939D01*
X219602000Y-31648061D01*
X219562226Y-31448102D01*
X219558482Y-31439061D01*
X222978000Y-31439061D01*
X222978000Y-31642939D01*
X223017774Y-31842898D01*
X223095795Y-32031256D01*
X223209063Y-32200774D01*
X223353226Y-32344937D01*
X223522744Y-32458205D01*
X223711102Y-32536226D01*
X223911061Y-32576000D01*
X224114939Y-32576000D01*
X224314898Y-32536226D01*
X224503256Y-32458205D01*
X224551454Y-32426000D01*
X225112531Y-32426000D01*
X225156000Y-32430281D01*
X225199469Y-32426000D01*
X225199477Y-32426000D01*
X225329490Y-32413195D01*
X225496313Y-32362589D01*
X225650059Y-32280411D01*
X225784817Y-32169817D01*
X225812534Y-32136044D01*
X226382517Y-31566061D01*
X234535000Y-31566061D01*
X234535000Y-31769939D01*
X234574774Y-31969898D01*
X234652795Y-32158256D01*
X234766063Y-32327774D01*
X234910226Y-32471937D01*
X235079744Y-32585205D01*
X235268102Y-32663226D01*
X235468061Y-32703000D01*
X235671939Y-32703000D01*
X235871898Y-32663226D01*
X236060256Y-32585205D01*
X236229774Y-32471937D01*
X236373937Y-32327774D01*
X236487205Y-32158256D01*
X236565226Y-31969898D01*
X236605000Y-31769939D01*
X236605000Y-31566061D01*
X240250000Y-31566061D01*
X240250000Y-31769939D01*
X240289774Y-31969898D01*
X240367795Y-32158256D01*
X240481063Y-32327774D01*
X240625226Y-32471937D01*
X240794744Y-32585205D01*
X240983102Y-32663226D01*
X241183061Y-32703000D01*
X241386939Y-32703000D01*
X241586898Y-32663226D01*
X241775256Y-32585205D01*
X241823454Y-32553000D01*
X242384531Y-32553000D01*
X242428000Y-32557281D01*
X242471469Y-32553000D01*
X242471477Y-32553000D01*
X242601490Y-32540195D01*
X242768313Y-32489589D01*
X242922059Y-32407411D01*
X243056817Y-32296817D01*
X243084534Y-32263044D01*
X243654517Y-31693061D01*
X251807000Y-31693061D01*
X251807000Y-31896939D01*
X251846774Y-32096898D01*
X251924795Y-32285256D01*
X252038063Y-32454774D01*
X252182226Y-32598937D01*
X252351744Y-32712205D01*
X252540102Y-32790226D01*
X252740061Y-32830000D01*
X252943939Y-32830000D01*
X253143898Y-32790226D01*
X253332256Y-32712205D01*
X253501774Y-32598937D01*
X253645937Y-32454774D01*
X253759205Y-32285256D01*
X253837226Y-32096898D01*
X253877000Y-31896939D01*
X253877000Y-31693061D01*
X253851739Y-31566061D01*
X257268000Y-31566061D01*
X257268000Y-31769939D01*
X257307774Y-31969898D01*
X257385795Y-32158256D01*
X257499063Y-32327774D01*
X257643226Y-32471937D01*
X257812744Y-32585205D01*
X258001102Y-32663226D01*
X258201061Y-32703000D01*
X258404939Y-32703000D01*
X258604898Y-32663226D01*
X258793256Y-32585205D01*
X258841454Y-32553000D01*
X259402531Y-32553000D01*
X259446000Y-32557281D01*
X259489469Y-32553000D01*
X259489477Y-32553000D01*
X259619490Y-32540195D01*
X259786313Y-32489589D01*
X259940059Y-32407411D01*
X260074817Y-32296817D01*
X260102534Y-32263044D01*
X260672517Y-31693061D01*
X268825000Y-31693061D01*
X268825000Y-31896939D01*
X268864774Y-32096898D01*
X268942795Y-32285256D01*
X269056063Y-32454774D01*
X269200226Y-32598937D01*
X269369744Y-32712205D01*
X269558102Y-32790226D01*
X269758061Y-32830000D01*
X269961939Y-32830000D01*
X270161898Y-32790226D01*
X270350256Y-32712205D01*
X270519774Y-32598937D01*
X270663937Y-32454774D01*
X270777205Y-32285256D01*
X270855226Y-32096898D01*
X270895000Y-31896939D01*
X270895000Y-31693061D01*
X270869739Y-31566061D01*
X279366000Y-31566061D01*
X279366000Y-31769939D01*
X279405774Y-31969898D01*
X279483795Y-32158256D01*
X279597063Y-32327774D01*
X279741226Y-32471937D01*
X279910744Y-32585205D01*
X280099102Y-32663226D01*
X280299061Y-32703000D01*
X280502939Y-32703000D01*
X280702898Y-32663226D01*
X280891256Y-32585205D01*
X280939454Y-32553000D01*
X281500531Y-32553000D01*
X281544000Y-32557281D01*
X281587469Y-32553000D01*
X281587477Y-32553000D01*
X281717490Y-32540195D01*
X281884313Y-32489589D01*
X282038059Y-32407411D01*
X282172817Y-32296817D01*
X282200534Y-32263044D01*
X283821044Y-30642535D01*
X283877898Y-30631226D01*
X284066256Y-30553205D01*
X284235774Y-30439937D01*
X284379937Y-30295774D01*
X284493205Y-30126256D01*
X284571226Y-29937898D01*
X284611000Y-29737939D01*
X284611000Y-29534061D01*
X284571226Y-29334102D01*
X284493205Y-29145744D01*
X284379937Y-28976226D01*
X284235774Y-28832063D01*
X284066256Y-28718795D01*
X283877898Y-28640774D01*
X283677939Y-28601000D01*
X283474061Y-28601000D01*
X283274102Y-28640774D01*
X283085744Y-28718795D01*
X282916226Y-28832063D01*
X282772063Y-28976226D01*
X282658795Y-29145744D01*
X282580774Y-29334102D01*
X282569465Y-29390956D01*
X281177422Y-30783000D01*
X280939454Y-30783000D01*
X280891256Y-30750795D01*
X280702898Y-30672774D01*
X280502939Y-30633000D01*
X280299061Y-30633000D01*
X280099102Y-30672774D01*
X279910744Y-30750795D01*
X279741226Y-30864063D01*
X279597063Y-31008226D01*
X279483795Y-31177744D01*
X279405774Y-31366102D01*
X279366000Y-31566061D01*
X270869739Y-31566061D01*
X270855226Y-31493102D01*
X270777205Y-31304744D01*
X270663937Y-31135226D01*
X270519774Y-30991063D01*
X270350256Y-30877795D01*
X270161898Y-30799774D01*
X269961939Y-30760000D01*
X269758061Y-30760000D01*
X269558102Y-30799774D01*
X269369744Y-30877795D01*
X269200226Y-30991063D01*
X269056063Y-31135226D01*
X268942795Y-31304744D01*
X268864774Y-31493102D01*
X268825000Y-31693061D01*
X260672517Y-31693061D01*
X261723044Y-30642535D01*
X261779898Y-30631226D01*
X261968256Y-30553205D01*
X262137774Y-30439937D01*
X262281937Y-30295774D01*
X262395205Y-30126256D01*
X262473226Y-29937898D01*
X262513000Y-29737939D01*
X262513000Y-29534061D01*
X262473226Y-29334102D01*
X262395205Y-29145744D01*
X262281937Y-28976226D01*
X262137774Y-28832063D01*
X261968256Y-28718795D01*
X261779898Y-28640774D01*
X261579939Y-28601000D01*
X261376061Y-28601000D01*
X261176102Y-28640774D01*
X260987744Y-28718795D01*
X260818226Y-28832063D01*
X260674063Y-28976226D01*
X260560795Y-29145744D01*
X260482774Y-29334102D01*
X260471465Y-29390956D01*
X259079422Y-30783000D01*
X258841454Y-30783000D01*
X258793256Y-30750795D01*
X258604898Y-30672774D01*
X258404939Y-30633000D01*
X258201061Y-30633000D01*
X258001102Y-30672774D01*
X257812744Y-30750795D01*
X257643226Y-30864063D01*
X257499063Y-31008226D01*
X257385795Y-31177744D01*
X257307774Y-31366102D01*
X257268000Y-31566061D01*
X253851739Y-31566061D01*
X253837226Y-31493102D01*
X253759205Y-31304744D01*
X253645937Y-31135226D01*
X253501774Y-30991063D01*
X253332256Y-30877795D01*
X253143898Y-30799774D01*
X252943939Y-30760000D01*
X252740061Y-30760000D01*
X252540102Y-30799774D01*
X252351744Y-30877795D01*
X252182226Y-30991063D01*
X252038063Y-31135226D01*
X251924795Y-31304744D01*
X251846774Y-31493102D01*
X251807000Y-31693061D01*
X243654517Y-31693061D01*
X244705044Y-30642535D01*
X244761898Y-30631226D01*
X244950256Y-30553205D01*
X245119774Y-30439937D01*
X245263937Y-30295774D01*
X245377205Y-30126256D01*
X245455226Y-29937898D01*
X245495000Y-29737939D01*
X245495000Y-29534061D01*
X245455226Y-29334102D01*
X245377205Y-29145744D01*
X245263937Y-28976226D01*
X245119774Y-28832063D01*
X244950256Y-28718795D01*
X244761898Y-28640774D01*
X244561939Y-28601000D01*
X244358061Y-28601000D01*
X244158102Y-28640774D01*
X243969744Y-28718795D01*
X243800226Y-28832063D01*
X243656063Y-28976226D01*
X243542795Y-29145744D01*
X243464774Y-29334102D01*
X243453465Y-29390956D01*
X242061422Y-30783000D01*
X241823454Y-30783000D01*
X241775256Y-30750795D01*
X241586898Y-30672774D01*
X241386939Y-30633000D01*
X241183061Y-30633000D01*
X240983102Y-30672774D01*
X240794744Y-30750795D01*
X240625226Y-30864063D01*
X240481063Y-31008226D01*
X240367795Y-31177744D01*
X240289774Y-31366102D01*
X240250000Y-31566061D01*
X236605000Y-31566061D01*
X236565226Y-31366102D01*
X236487205Y-31177744D01*
X236373937Y-31008226D01*
X236229774Y-30864063D01*
X236060256Y-30750795D01*
X235871898Y-30672774D01*
X235671939Y-30633000D01*
X235468061Y-30633000D01*
X235268102Y-30672774D01*
X235079744Y-30750795D01*
X234910226Y-30864063D01*
X234766063Y-31008226D01*
X234652795Y-31177744D01*
X234574774Y-31366102D01*
X234535000Y-31566061D01*
X226382517Y-31566061D01*
X227433044Y-30515535D01*
X227489898Y-30504226D01*
X227678256Y-30426205D01*
X227847774Y-30312937D01*
X227991937Y-30168774D01*
X228105205Y-29999256D01*
X228183226Y-29810898D01*
X228223000Y-29610939D01*
X228223000Y-29407061D01*
X228183226Y-29207102D01*
X228105205Y-29018744D01*
X227991937Y-28849226D01*
X227847774Y-28705063D01*
X227678256Y-28591795D01*
X227489898Y-28513774D01*
X227289939Y-28474000D01*
X227086061Y-28474000D01*
X226886102Y-28513774D01*
X226697744Y-28591795D01*
X226528226Y-28705063D01*
X226384063Y-28849226D01*
X226270795Y-29018744D01*
X226192774Y-29207102D01*
X226181465Y-29263956D01*
X224789422Y-30656000D01*
X224551454Y-30656000D01*
X224503256Y-30623795D01*
X224314898Y-30545774D01*
X224114939Y-30506000D01*
X223911061Y-30506000D01*
X223711102Y-30545774D01*
X223522744Y-30623795D01*
X223353226Y-30737063D01*
X223209063Y-30881226D01*
X223095795Y-31050744D01*
X223017774Y-31239102D01*
X222978000Y-31439061D01*
X219558482Y-31439061D01*
X219484205Y-31259744D01*
X219370937Y-31090226D01*
X219226774Y-30946063D01*
X219057256Y-30832795D01*
X218868898Y-30754774D01*
X218668939Y-30715000D01*
X218465061Y-30715000D01*
X218265102Y-30754774D01*
X218076744Y-30832795D01*
X217907226Y-30946063D01*
X217763063Y-31090226D01*
X217649795Y-31259744D01*
X217571774Y-31448102D01*
X217532000Y-31648061D01*
X209379517Y-31648061D01*
X210430044Y-30597535D01*
X210486898Y-30586226D01*
X210675256Y-30508205D01*
X210844774Y-30394937D01*
X210988937Y-30250774D01*
X211102205Y-30081256D01*
X211180226Y-29892898D01*
X211220000Y-29692939D01*
X211220000Y-29489061D01*
X211180226Y-29289102D01*
X211102205Y-29100744D01*
X210988937Y-28931226D01*
X210844774Y-28787063D01*
X210675256Y-28673795D01*
X210486898Y-28595774D01*
X210286939Y-28556000D01*
X210083061Y-28556000D01*
X209883102Y-28595774D01*
X209694744Y-28673795D01*
X209525226Y-28787063D01*
X209381063Y-28931226D01*
X209267795Y-29100744D01*
X209189774Y-29289102D01*
X209178465Y-29345956D01*
X207786422Y-30738000D01*
X207548454Y-30738000D01*
X207500256Y-30705795D01*
X207311898Y-30627774D01*
X207111939Y-30588000D01*
X206908061Y-30588000D01*
X206708102Y-30627774D01*
X206519744Y-30705795D01*
X206350226Y-30819063D01*
X206206063Y-30963226D01*
X206092795Y-31132744D01*
X206014774Y-31321102D01*
X205975000Y-31521061D01*
X203327000Y-31521061D01*
X203327000Y-25527000D01*
X205808510Y-25527000D01*
X205825063Y-25551774D01*
%TD*%
M02*
