M48
; DRILL file {KiCad (5.1.6)-1} date 11/12/20 20:03:03
; FORMAT={-:-/ absolute / inch / decimal}
; #@! TF.CreationDate,2020-11-12T20:03:03-08:00
; #@! TF.GenerationSoftware,Kicad,Pcbnew,(5.1.6)-1
; #@! TF.FileFunction,Plated,1,4,PTH
FMAT,2
INCH
T1C0.0157
T2C0.0315
T3C0.0394
T4C0.0433
T5C0.0472
T6C0.0512
%
G90
G05
T1
X8.125Y-1.785
X8.13Y-1.37
X8.135Y-0.98
X8.135Y-1.925
X8.15Y-1.245
X8.15Y-2.195
X8.2Y-0.845
X8.24Y-1.925
X8.275Y-1.165
X8.29Y-0.75
X8.29Y-0.95
X8.3Y-1.89
X8.305Y-2.15
X8.31Y-2.035
X8.3147Y-2.2872
X8.36Y-1.92
X8.37Y-0.745
X8.375Y-0.47
X8.375Y-0.905
X8.405Y-2.105
X8.41Y-2.04
X8.415Y-2.155
X8.46Y-1.4858
X8.475Y-1.23
X8.475Y-2.0
X8.48Y-2.27
X8.52Y-1.925
X8.53Y-1.065
X8.595Y-1.34
X8.605Y-1.25
X8.73Y-1.925
X8.76Y-2.195
X8.79Y-1.77
X8.7994Y-1.3668
X8.8044Y-0.9768
X8.8194Y-1.2418
X8.82Y-2.175
X8.8694Y-0.8418
X8.87Y-0.545
X8.9Y-2.335
X8.925Y-2.025
X8.9444Y-1.1618
X8.9594Y-0.7468
X8.9594Y-0.9468
X9.0394Y-0.7418
X9.0444Y-0.9018
X9.06Y-0.46
X9.06Y-1.945
X9.1358Y-1.4858
X9.14Y-1.98
X9.1444Y-1.2268
X9.1926Y-2.0874
X9.2Y-1.065
X9.2644Y-1.3368
X9.27Y-1.75
X9.2744Y-1.2468
X9.2758Y-2.2992
X9.35Y-1.75
X9.39Y-2.345
X9.4Y-1.95
X9.4794Y-1.3718
X9.4844Y-0.9818
X9.4994Y-1.2468
X9.5Y-2.03
X9.52Y-2.3
X9.535Y-0.535
X9.5494Y-0.8468
X9.6244Y-1.1668
X9.6394Y-0.7518
X9.6394Y-0.9518
X9.64Y-1.825
X9.665Y-1.945
X9.7194Y-0.7468
X9.7244Y-0.9068
X9.74Y-0.455
X9.8208Y-1.4858
X9.8244Y-1.2318
X9.885Y-1.07
X9.9444Y-1.3418
X9.9544Y-1.2518
X10.1494Y-1.3718
X10.1544Y-0.9818
X10.165Y-2.35
X10.1694Y-1.2468
X10.21Y-0.535
X10.2194Y-0.8468
X10.2944Y-1.1668
X10.3094Y-0.7518
X10.3094Y-0.9518
X10.3894Y-0.7468
X10.3944Y-0.9068
X10.4944Y-1.2318
X10.51Y-0.45
X10.51Y-1.425
X10.55Y-1.075
X10.6144Y-1.3418
X10.6244Y-1.2518
X10.645Y-2.405
X10.735Y-2.51
X10.9Y-2.64
X10.98Y-0.525
X11.0194Y-1.3718
X11.0244Y-0.9818
X11.0394Y-1.2468
X11.0894Y-0.8468
X11.1644Y-1.1668
X11.1794Y-0.7518
X11.1794Y-0.9518
X11.21Y-2.605
X11.22Y-1.755
X11.2594Y-0.7468
X11.2644Y-0.9068
X11.275Y-0.455
X11.345Y-1.47
X11.3644Y-1.2318
X11.425Y-1.075
X11.4844Y-1.3418
X11.4944Y-1.2518
X11.675Y-0.455
T2
X10.5Y-2.175
X10.5984Y-2.175
X10.335Y-1.5016
X10.335Y-1.6
X10.0316Y-2.175
X10.13Y-2.175
X10.035Y-1.51
X10.035Y-1.6084
T3
X10.3Y-2.285
X10.3Y-2.385
X8.76Y-2.6
X8.86Y-2.6
X8.96Y-2.6
X9.06Y-2.6
X9.16Y-2.6
X9.26Y-2.6
X9.36Y-2.6
X9.46Y-2.6
X9.58Y-1.625
X9.68Y-1.625
X9.78Y-1.625
X10.56Y-1.69
X10.56Y-1.79
X10.56Y-1.89
X9.865Y-2.285
X9.865Y-2.385
X8.04Y-1.83
X8.04Y-1.93
X8.04Y-2.03
X8.04Y-2.13
X8.04Y-2.23
X8.04Y-2.33
T4
X10.3Y-2.52
X10.4Y-2.52
X10.5Y-2.52
X9.865Y-2.52
X9.965Y-2.52
X10.065Y-2.52
T5
X10.8231Y-1.85
X11.02Y-1.85
X10.83Y-2.4
X11.0269Y-2.4
T6
X11.43Y-1.95
X11.43Y-2.15
X11.43Y-2.35
T0
M30
