%TF.GenerationSoftware,KiCad,Pcbnew,(5.1.6)-1*%
%TF.CreationDate,2020-11-12T15:31:55-08:00*%
%TF.ProjectId,userinterfacepcb,75736572-696e-4746-9572-666163657063,rev?*%
%TF.SameCoordinates,Original*%
%TF.FileFunction,Soldermask,Top*%
%TF.FilePolarity,Negative*%
%FSLAX46Y46*%
G04 Gerber Fmt 4.6, Leading zero omitted, Abs format (unit mm)*
G04 Created by KiCad (PCBNEW (5.1.6)-1) date 2020-11-12 15:31:55*
%MOMM*%
%LPD*%
G01*
G04 APERTURE LIST*
%ADD10C,1.700000*%
%ADD11R,1.700000X1.700000*%
%ADD12R,2.100000X2.100000*%
%ADD13C,2.100000*%
%ADD14R,3.300000X2.100000*%
%ADD15C,2.300000*%
%ADD16R,1.160000X0.750000*%
%ADD17R,2.100000X1.600000*%
%ADD18R,2.100000X3.900000*%
%ADD19O,1.800000X1.800000*%
%ADD20R,1.800000X1.800000*%
%ADD21C,4.400000*%
%ADD22C,2.700000*%
%ADD23R,2.700000X2.700000*%
%ADD24O,3.000000X2.000000*%
%ADD25O,2.000000X3.000000*%
%ADD26C,1.400000*%
%ADD27R,1.400000X1.400000*%
%ADD28C,3.300000*%
G04 APERTURE END LIST*
D10*
%TO.C,C2*%
X245705000Y-114300000D03*
D11*
X243205000Y-114300000D03*
%TD*%
%TO.C,C1*%
G36*
G01*
X249457738Y-114446000D02*
X250414262Y-114446000D01*
G75*
G02*
X250686000Y-114717738I0J-271738D01*
G01*
X250686000Y-115424262D01*
G75*
G02*
X250414262Y-115696000I-271738J0D01*
G01*
X249457738Y-115696000D01*
G75*
G02*
X249186000Y-115424262I0J271738D01*
G01*
X249186000Y-114717738D01*
G75*
G02*
X249457738Y-114446000I271738J0D01*
G01*
G37*
G36*
G01*
X249457738Y-112396000D02*
X250414262Y-112396000D01*
G75*
G02*
X250686000Y-112667738I0J-271738D01*
G01*
X250686000Y-113374262D01*
G75*
G02*
X250414262Y-113646000I-271738J0D01*
G01*
X249457738Y-113646000D01*
G75*
G02*
X249186000Y-113374262I0J271738D01*
G01*
X249186000Y-112667738D01*
G75*
G02*
X249457738Y-112396000I271738J0D01*
G01*
G37*
%TD*%
D12*
%TO.C,SW1*%
X124587000Y-35598100D03*
D13*
X124587000Y-38098100D03*
X124587000Y-40598100D03*
D14*
X132087000Y-32498100D03*
X132087000Y-43698100D03*
D13*
X139087000Y-35598100D03*
X139087000Y-40598100D03*
%TD*%
%TO.C,R19*%
G36*
G01*
X116686250Y-80372000D02*
X115723750Y-80372000D01*
G75*
G02*
X115455000Y-80103250I0J268750D01*
G01*
X115455000Y-79565750D01*
G75*
G02*
X115723750Y-79297000I268750J0D01*
G01*
X116686250Y-79297000D01*
G75*
G02*
X116955000Y-79565750I0J-268750D01*
G01*
X116955000Y-80103250D01*
G75*
G02*
X116686250Y-80372000I-268750J0D01*
G01*
G37*
G36*
G01*
X116686250Y-82247000D02*
X115723750Y-82247000D01*
G75*
G02*
X115455000Y-81978250I0J268750D01*
G01*
X115455000Y-81440750D01*
G75*
G02*
X115723750Y-81172000I268750J0D01*
G01*
X116686250Y-81172000D01*
G75*
G02*
X116955000Y-81440750I0J-268750D01*
G01*
X116955000Y-81978250D01*
G75*
G02*
X116686250Y-82247000I-268750J0D01*
G01*
G37*
%TD*%
%TO.C,R17*%
G36*
G01*
X175360250Y-80372000D02*
X174397750Y-80372000D01*
G75*
G02*
X174129000Y-80103250I0J268750D01*
G01*
X174129000Y-79565750D01*
G75*
G02*
X174397750Y-79297000I268750J0D01*
G01*
X175360250Y-79297000D01*
G75*
G02*
X175629000Y-79565750I0J-268750D01*
G01*
X175629000Y-80103250D01*
G75*
G02*
X175360250Y-80372000I-268750J0D01*
G01*
G37*
G36*
G01*
X175360250Y-82247000D02*
X174397750Y-82247000D01*
G75*
G02*
X174129000Y-81978250I0J268750D01*
G01*
X174129000Y-81440750D01*
G75*
G02*
X174397750Y-81172000I268750J0D01*
G01*
X175360250Y-81172000D01*
G75*
G02*
X175629000Y-81440750I0J-268750D01*
G01*
X175629000Y-81978250D01*
G75*
G02*
X175360250Y-82247000I-268750J0D01*
G01*
G37*
%TD*%
%TO.C,R16*%
G36*
G01*
X193013250Y-80499000D02*
X192050750Y-80499000D01*
G75*
G02*
X191782000Y-80230250I0J268750D01*
G01*
X191782000Y-79692750D01*
G75*
G02*
X192050750Y-79424000I268750J0D01*
G01*
X193013250Y-79424000D01*
G75*
G02*
X193282000Y-79692750I0J-268750D01*
G01*
X193282000Y-80230250D01*
G75*
G02*
X193013250Y-80499000I-268750J0D01*
G01*
G37*
G36*
G01*
X193013250Y-82374000D02*
X192050750Y-82374000D01*
G75*
G02*
X191782000Y-82105250I0J268750D01*
G01*
X191782000Y-81567750D01*
G75*
G02*
X192050750Y-81299000I268750J0D01*
G01*
X193013250Y-81299000D01*
G75*
G02*
X193282000Y-81567750I0J-268750D01*
G01*
X193282000Y-82105250D01*
G75*
G02*
X193013250Y-82374000I-268750J0D01*
G01*
G37*
%TD*%
%TO.C,U5*%
X230360000Y-38100000D03*
X221760000Y-38100000D03*
X232385000Y-43100000D03*
X219735000Y-43100000D03*
X232385000Y-33100000D03*
X219735000Y-33100000D03*
D15*
X229310000Y-48350000D03*
X229310000Y-43850000D03*
X222810000Y-48350000D03*
X222810000Y-43850000D03*
D13*
X234790000Y-40600000D03*
X234790000Y-35600000D03*
X234790000Y-38100000D03*
X228560000Y-29370000D03*
X223560000Y-29370000D03*
X226060000Y-29370000D03*
%TD*%
%TO.C,R14*%
G36*
G01*
X175360250Y-93326000D02*
X174397750Y-93326000D01*
G75*
G02*
X174129000Y-93057250I0J268750D01*
G01*
X174129000Y-92519750D01*
G75*
G02*
X174397750Y-92251000I268750J0D01*
G01*
X175360250Y-92251000D01*
G75*
G02*
X175629000Y-92519750I0J-268750D01*
G01*
X175629000Y-93057250D01*
G75*
G02*
X175360250Y-93326000I-268750J0D01*
G01*
G37*
G36*
G01*
X175360250Y-95201000D02*
X174397750Y-95201000D01*
G75*
G02*
X174129000Y-94932250I0J268750D01*
G01*
X174129000Y-94394750D01*
G75*
G02*
X174397750Y-94126000I268750J0D01*
G01*
X175360250Y-94126000D01*
G75*
G02*
X175629000Y-94394750I0J-268750D01*
G01*
X175629000Y-94932250D01*
G75*
G02*
X175360250Y-95201000I-268750J0D01*
G01*
G37*
%TD*%
%TO.C,SW5*%
X202080000Y-78740000D03*
X202080000Y-83240000D03*
X195580000Y-78740000D03*
X195580000Y-83240000D03*
%TD*%
D16*
%TO.C,U7*%
X245280000Y-86040000D03*
X245280000Y-84140000D03*
X247480000Y-84140000D03*
X247480000Y-85090000D03*
X247480000Y-86040000D03*
%TD*%
D13*
%TO.C,SW8*%
X125880000Y-78740000D03*
X125880000Y-83240000D03*
X119380000Y-78740000D03*
X119380000Y-83240000D03*
%TD*%
%TO.C,SW4*%
X166520000Y-78740000D03*
X166520000Y-83240000D03*
X160020000Y-78740000D03*
X160020000Y-83240000D03*
%TD*%
%TO.C,R18*%
G36*
G01*
X135736250Y-80245000D02*
X134773750Y-80245000D01*
G75*
G02*
X134505000Y-79976250I0J268750D01*
G01*
X134505000Y-79438750D01*
G75*
G02*
X134773750Y-79170000I268750J0D01*
G01*
X135736250Y-79170000D01*
G75*
G02*
X136005000Y-79438750I0J-268750D01*
G01*
X136005000Y-79976250D01*
G75*
G02*
X135736250Y-80245000I-268750J0D01*
G01*
G37*
G36*
G01*
X135736250Y-82120000D02*
X134773750Y-82120000D01*
G75*
G02*
X134505000Y-81851250I0J268750D01*
G01*
X134505000Y-81313750D01*
G75*
G02*
X134773750Y-81045000I268750J0D01*
G01*
X135736250Y-81045000D01*
G75*
G02*
X136005000Y-81313750I0J-268750D01*
G01*
X136005000Y-81851250D01*
G75*
G02*
X135736250Y-82120000I-268750J0D01*
G01*
G37*
%TD*%
%TO.C,SW3*%
X184300000Y-91440000D03*
X184300000Y-95940000D03*
X177800000Y-91440000D03*
X177800000Y-95940000D03*
%TD*%
%TO.C,R15*%
G36*
G01*
X157453250Y-80801500D02*
X156490750Y-80801500D01*
G75*
G02*
X156222000Y-80532750I0J268750D01*
G01*
X156222000Y-79995250D01*
G75*
G02*
X156490750Y-79726500I268750J0D01*
G01*
X157453250Y-79726500D01*
G75*
G02*
X157722000Y-79995250I0J-268750D01*
G01*
X157722000Y-80532750D01*
G75*
G02*
X157453250Y-80801500I-268750J0D01*
G01*
G37*
G36*
G01*
X157453250Y-82676500D02*
X156490750Y-82676500D01*
G75*
G02*
X156222000Y-82407750I0J268750D01*
G01*
X156222000Y-81870250D01*
G75*
G02*
X156490750Y-81601500I268750J0D01*
G01*
X157453250Y-81601500D01*
G75*
G02*
X157722000Y-81870250I0J-268750D01*
G01*
X157722000Y-82407750D01*
G75*
G02*
X157453250Y-82676500I-268750J0D01*
G01*
G37*
%TD*%
%TO.C,SW7*%
X144930000Y-78740000D03*
X144930000Y-83240000D03*
X138430000Y-78740000D03*
X138430000Y-83240000D03*
%TD*%
%TO.C,SW2*%
X184300000Y-66040000D03*
X184300000Y-70540000D03*
X177800000Y-66040000D03*
X177800000Y-70540000D03*
%TD*%
D17*
%TO.C,U6*%
X248260000Y-79770000D03*
X248260000Y-75170000D03*
X248260000Y-77470000D03*
D18*
X241960000Y-77470000D03*
%TD*%
D13*
%TO.C,SW6*%
X184300000Y-78740000D03*
X184300000Y-83240000D03*
X177800000Y-78740000D03*
X177800000Y-83240000D03*
%TD*%
%TO.C,C3*%
G36*
G01*
X239238262Y-113655000D02*
X238281738Y-113655000D01*
G75*
G02*
X238010000Y-113383262I0J271738D01*
G01*
X238010000Y-112676738D01*
G75*
G02*
X238281738Y-112405000I271738J0D01*
G01*
X239238262Y-112405000D01*
G75*
G02*
X239510000Y-112676738I0J-271738D01*
G01*
X239510000Y-113383262D01*
G75*
G02*
X239238262Y-113655000I-271738J0D01*
G01*
G37*
G36*
G01*
X239238262Y-115705000D02*
X238281738Y-115705000D01*
G75*
G02*
X238010000Y-115433262I0J271738D01*
G01*
X238010000Y-114726738D01*
G75*
G02*
X238281738Y-114455000I271738J0D01*
G01*
X239238262Y-114455000D01*
G75*
G02*
X239510000Y-114726738I0J-271738D01*
G01*
X239510000Y-115433262D01*
G75*
G02*
X239238262Y-115705000I-271738J0D01*
G01*
G37*
%TD*%
D10*
%TO.C,C11*%
X246340000Y-67945000D03*
D11*
X243840000Y-67945000D03*
%TD*%
%TO.C,C12*%
G36*
G01*
X243048262Y-84690000D02*
X242091738Y-84690000D01*
G75*
G02*
X241820000Y-84418262I0J271738D01*
G01*
X241820000Y-83711738D01*
G75*
G02*
X242091738Y-83440000I271738J0D01*
G01*
X243048262Y-83440000D01*
G75*
G02*
X243320000Y-83711738I0J-271738D01*
G01*
X243320000Y-84418262D01*
G75*
G02*
X243048262Y-84690000I-271738J0D01*
G01*
G37*
G36*
G01*
X243048262Y-86740000D02*
X242091738Y-86740000D01*
G75*
G02*
X241820000Y-86468262I0J271738D01*
G01*
X241820000Y-85761738D01*
G75*
G02*
X242091738Y-85490000I271738J0D01*
G01*
X243048262Y-85490000D01*
G75*
G02*
X243320000Y-85761738I0J-271738D01*
G01*
X243320000Y-86468262D01*
G75*
G02*
X243048262Y-86740000I-271738J0D01*
G01*
G37*
%TD*%
%TO.C,C9*%
G36*
G01*
X243048262Y-97390000D02*
X242091738Y-97390000D01*
G75*
G02*
X241820000Y-97118262I0J271738D01*
G01*
X241820000Y-96411738D01*
G75*
G02*
X242091738Y-96140000I271738J0D01*
G01*
X243048262Y-96140000D01*
G75*
G02*
X243320000Y-96411738I0J-271738D01*
G01*
X243320000Y-97118262D01*
G75*
G02*
X243048262Y-97390000I-271738J0D01*
G01*
G37*
G36*
G01*
X243048262Y-99440000D02*
X242091738Y-99440000D01*
G75*
G02*
X241820000Y-99168262I0J271738D01*
G01*
X241820000Y-98461738D01*
G75*
G02*
X242091738Y-98190000I271738J0D01*
G01*
X243048262Y-98190000D01*
G75*
G02*
X243320000Y-98461738I0J-271738D01*
G01*
X243320000Y-99168262D01*
G75*
G02*
X243048262Y-99440000I-271738J0D01*
G01*
G37*
%TD*%
%TO.C,C6*%
G36*
G01*
X249584738Y-91840000D02*
X250541262Y-91840000D01*
G75*
G02*
X250813000Y-92111738I0J-271738D01*
G01*
X250813000Y-92818262D01*
G75*
G02*
X250541262Y-93090000I-271738J0D01*
G01*
X249584738Y-93090000D01*
G75*
G02*
X249313000Y-92818262I0J271738D01*
G01*
X249313000Y-92111738D01*
G75*
G02*
X249584738Y-91840000I271738J0D01*
G01*
G37*
G36*
G01*
X249584738Y-89790000D02*
X250541262Y-89790000D01*
G75*
G02*
X250813000Y-90061738I0J-271738D01*
G01*
X250813000Y-90768262D01*
G75*
G02*
X250541262Y-91040000I-271738J0D01*
G01*
X249584738Y-91040000D01*
G75*
G02*
X249313000Y-90768262I0J271738D01*
G01*
X249313000Y-90061738D01*
G75*
G02*
X249584738Y-89790000I271738J0D01*
G01*
G37*
%TD*%
%TO.C,C8*%
G36*
G01*
X243048262Y-103740000D02*
X242091738Y-103740000D01*
G75*
G02*
X241820000Y-103468262I0J271738D01*
G01*
X241820000Y-102761738D01*
G75*
G02*
X242091738Y-102490000I271738J0D01*
G01*
X243048262Y-102490000D01*
G75*
G02*
X243320000Y-102761738I0J-271738D01*
G01*
X243320000Y-103468262D01*
G75*
G02*
X243048262Y-103740000I-271738J0D01*
G01*
G37*
G36*
G01*
X243048262Y-105790000D02*
X242091738Y-105790000D01*
G75*
G02*
X241820000Y-105518262I0J271738D01*
G01*
X241820000Y-104811738D01*
G75*
G02*
X242091738Y-104540000I271738J0D01*
G01*
X243048262Y-104540000D01*
G75*
G02*
X243320000Y-104811738I0J-271738D01*
G01*
X243320000Y-105518262D01*
G75*
G02*
X243048262Y-105790000I-271738J0D01*
G01*
G37*
%TD*%
%TO.C,C5*%
G36*
G01*
X249711738Y-98181000D02*
X250668262Y-98181000D01*
G75*
G02*
X250940000Y-98452738I0J-271738D01*
G01*
X250940000Y-99159262D01*
G75*
G02*
X250668262Y-99431000I-271738J0D01*
G01*
X249711738Y-99431000D01*
G75*
G02*
X249440000Y-99159262I0J271738D01*
G01*
X249440000Y-98452738D01*
G75*
G02*
X249711738Y-98181000I271738J0D01*
G01*
G37*
G36*
G01*
X249711738Y-96131000D02*
X250668262Y-96131000D01*
G75*
G02*
X250940000Y-96402738I0J-271738D01*
G01*
X250940000Y-97109262D01*
G75*
G02*
X250668262Y-97381000I-271738J0D01*
G01*
X249711738Y-97381000D01*
G75*
G02*
X249440000Y-97109262I0J271738D01*
G01*
X249440000Y-96402738D01*
G75*
G02*
X249711738Y-96131000I271738J0D01*
G01*
G37*
%TD*%
%TO.C,C4*%
G36*
G01*
X249584738Y-104540000D02*
X250541262Y-104540000D01*
G75*
G02*
X250813000Y-104811738I0J-271738D01*
G01*
X250813000Y-105518262D01*
G75*
G02*
X250541262Y-105790000I-271738J0D01*
G01*
X249584738Y-105790000D01*
G75*
G02*
X249313000Y-105518262I0J271738D01*
G01*
X249313000Y-104811738D01*
G75*
G02*
X249584738Y-104540000I271738J0D01*
G01*
G37*
G36*
G01*
X249584738Y-102490000D02*
X250541262Y-102490000D01*
G75*
G02*
X250813000Y-102761738I0J-271738D01*
G01*
X250813000Y-103468262D01*
G75*
G02*
X250541262Y-103740000I-271738J0D01*
G01*
X249584738Y-103740000D01*
G75*
G02*
X249313000Y-103468262I0J271738D01*
G01*
X249313000Y-102761738D01*
G75*
G02*
X249584738Y-102490000I271738J0D01*
G01*
G37*
%TD*%
%TO.C,C10*%
G36*
G01*
X243175262Y-91040000D02*
X242218738Y-91040000D01*
G75*
G02*
X241947000Y-90768262I0J271738D01*
G01*
X241947000Y-90061738D01*
G75*
G02*
X242218738Y-89790000I271738J0D01*
G01*
X243175262Y-89790000D01*
G75*
G02*
X243447000Y-90061738I0J-271738D01*
G01*
X243447000Y-90768262D01*
G75*
G02*
X243175262Y-91040000I-271738J0D01*
G01*
G37*
G36*
G01*
X243175262Y-93090000D02*
X242218738Y-93090000D01*
G75*
G02*
X241947000Y-92818262I0J271738D01*
G01*
X241947000Y-92111738D01*
G75*
G02*
X242218738Y-91840000I271738J0D01*
G01*
X243175262Y-91840000D01*
G75*
G02*
X243447000Y-92111738I0J-271738D01*
G01*
X243447000Y-92818262D01*
G75*
G02*
X243175262Y-93090000I-271738J0D01*
G01*
G37*
%TD*%
%TO.C,C7*%
G36*
G01*
X249584738Y-85490000D02*
X250541262Y-85490000D01*
G75*
G02*
X250813000Y-85761738I0J-271738D01*
G01*
X250813000Y-86468262D01*
G75*
G02*
X250541262Y-86740000I-271738J0D01*
G01*
X249584738Y-86740000D01*
G75*
G02*
X249313000Y-86468262I0J271738D01*
G01*
X249313000Y-85761738D01*
G75*
G02*
X249584738Y-85490000I271738J0D01*
G01*
G37*
G36*
G01*
X249584738Y-83440000D02*
X250541262Y-83440000D01*
G75*
G02*
X250813000Y-83711738I0J-271738D01*
G01*
X250813000Y-84418262D01*
G75*
G02*
X250541262Y-84690000I-271738J0D01*
G01*
X249584738Y-84690000D01*
G75*
G02*
X249313000Y-84418262I0J271738D01*
G01*
X249313000Y-83711738D01*
G75*
G02*
X249584738Y-83440000I271738J0D01*
G01*
G37*
%TD*%
D19*
%TO.C,J8*%
X219710000Y-95250000D03*
X222250000Y-95250000D03*
X224790000Y-95250000D03*
X227330000Y-95250000D03*
X229870000Y-95250000D03*
D20*
X232410000Y-95250000D03*
%TD*%
D19*
%TO.C,J7*%
X210820000Y-111760000D03*
X210820000Y-109220000D03*
X210820000Y-106680000D03*
D20*
X210820000Y-104140000D03*
%TD*%
D21*
%TO.C,H1*%
X261620000Y-121920000D03*
%TD*%
D16*
%TO.C,U4*%
X245280000Y-92390000D03*
X245280000Y-90490000D03*
X247480000Y-90490000D03*
X247480000Y-91440000D03*
X247480000Y-92390000D03*
%TD*%
D21*
%TO.C,H9*%
X276860000Y-99060000D03*
%TD*%
D19*
%TO.C,J6*%
X223520000Y-111760000D03*
X223520000Y-109220000D03*
X223520000Y-106680000D03*
D20*
X223520000Y-104140000D03*
%TD*%
D21*
%TO.C,H3*%
X276860000Y-132080000D03*
%TD*%
D16*
%TO.C,U3*%
X245280000Y-98740000D03*
X245280000Y-96840000D03*
X247480000Y-96840000D03*
X247480000Y-97790000D03*
X247480000Y-98740000D03*
%TD*%
%TO.C,U2*%
X245280000Y-105090000D03*
X245280000Y-103190000D03*
X247480000Y-103190000D03*
X247480000Y-104140000D03*
X247480000Y-105090000D03*
%TD*%
D21*
%TO.C,H12*%
X106680000Y-25400000D03*
%TD*%
%TO.C,H11*%
X106680000Y-132080000D03*
%TD*%
%TO.C,H6*%
X261620000Y-26670000D03*
%TD*%
%TO.C,H8*%
X276860000Y-25400000D03*
%TD*%
%TO.C,H5*%
X106680000Y-99060000D03*
%TD*%
D22*
%TO.C,J1*%
X246380000Y-127000000D03*
D23*
X241300000Y-127000000D03*
%TD*%
D19*
%TO.C,J2*%
X199390000Y-111760000D03*
X199390000Y-109220000D03*
X199390000Y-106680000D03*
D20*
X199390000Y-104140000D03*
%TD*%
D19*
%TO.C,J4*%
X219710000Y-68580000D03*
X222250000Y-68580000D03*
X224790000Y-68580000D03*
X227330000Y-68580000D03*
X229870000Y-68580000D03*
D20*
X232410000Y-68580000D03*
%TD*%
D24*
%TO.C,J3*%
X205430000Y-124760000D03*
D25*
X212000000Y-128940000D03*
X198860000Y-128940000D03*
D26*
X208930000Y-129540000D03*
X206430000Y-129540000D03*
X204430000Y-129540000D03*
D27*
X201930000Y-129540000D03*
%TD*%
D26*
%TO.C,U1*%
X118840000Y-116840000D03*
X118840000Y-119380000D03*
D10*
X163830000Y-113030000D03*
X163830000Y-115570000D03*
X163830000Y-118110000D03*
X163830000Y-120650000D03*
X163830000Y-123190000D03*
D26*
X131080000Y-116928400D03*
X133080000Y-116928400D03*
X133080000Y-114928400D03*
X131080000Y-114928400D03*
X133080000Y-112928400D03*
D27*
X131080000Y-112928400D03*
D10*
X158750000Y-125730000D03*
X161290000Y-125730000D03*
X163830000Y-125730000D03*
X166370000Y-125730000D03*
X156210000Y-125730000D03*
X153670000Y-125730000D03*
X151130000Y-125730000D03*
X168910000Y-125730000D03*
X171450000Y-125730000D03*
X173990000Y-125730000D03*
X176530000Y-125730000D03*
X176530000Y-110490000D03*
X173990000Y-110490000D03*
X171450000Y-110490000D03*
X168910000Y-110490000D03*
X166370000Y-110490000D03*
X163830000Y-110490000D03*
X161290000Y-110490000D03*
X158750000Y-110490000D03*
X156210000Y-110490000D03*
X153670000Y-110490000D03*
X148590000Y-125730000D03*
X146050000Y-125730000D03*
X143510000Y-125730000D03*
X140970000Y-125730000D03*
X138430000Y-125730000D03*
X135890000Y-125730000D03*
X133350000Y-125730000D03*
X130810000Y-125730000D03*
X128270000Y-125730000D03*
X125730000Y-125730000D03*
X123190000Y-125730000D03*
X120650000Y-125730000D03*
D11*
X118110000Y-125730000D03*
D10*
X151130000Y-110490000D03*
X148590000Y-110490000D03*
X146050000Y-110490000D03*
X143510000Y-110490000D03*
X140970000Y-110490000D03*
X138430000Y-110490000D03*
X135890000Y-110490000D03*
X133350000Y-110490000D03*
X130810000Y-110490000D03*
X128270000Y-110490000D03*
X125730000Y-110490000D03*
X123190000Y-110490000D03*
X120650000Y-110490000D03*
X118110000Y-110490000D03*
D11*
X124409200Y-122679200D03*
D10*
X126949200Y-122679200D03*
X129489200Y-122679200D03*
X132029200Y-122679200D03*
X134569200Y-122679200D03*
X120650000Y-113030000D03*
%TD*%
D19*
%TO.C,J5*%
X219710000Y-59690000D03*
X222250000Y-59690000D03*
X224790000Y-59690000D03*
X227330000Y-59690000D03*
X229870000Y-59690000D03*
D20*
X232410000Y-59690000D03*
%TD*%
%TO.C,R10*%
G36*
G01*
X141197250Y-96628000D02*
X140234750Y-96628000D01*
G75*
G02*
X139966000Y-96359250I0J268750D01*
G01*
X139966000Y-95821750D01*
G75*
G02*
X140234750Y-95553000I268750J0D01*
G01*
X141197250Y-95553000D01*
G75*
G02*
X141466000Y-95821750I0J-268750D01*
G01*
X141466000Y-96359250D01*
G75*
G02*
X141197250Y-96628000I-268750J0D01*
G01*
G37*
G36*
G01*
X141197250Y-98503000D02*
X140234750Y-98503000D01*
G75*
G02*
X139966000Y-98234250I0J268750D01*
G01*
X139966000Y-97696750D01*
G75*
G02*
X140234750Y-97428000I268750J0D01*
G01*
X141197250Y-97428000D01*
G75*
G02*
X141466000Y-97696750I0J-268750D01*
G01*
X141466000Y-98234250D01*
G75*
G02*
X141197250Y-98503000I-268750J0D01*
G01*
G37*
%TD*%
%TO.C,R11*%
G36*
G01*
X158903750Y-97428000D02*
X159866250Y-97428000D01*
G75*
G02*
X160135000Y-97696750I0J-268750D01*
G01*
X160135000Y-98234250D01*
G75*
G02*
X159866250Y-98503000I-268750J0D01*
G01*
X158903750Y-98503000D01*
G75*
G02*
X158635000Y-98234250I0J268750D01*
G01*
X158635000Y-97696750D01*
G75*
G02*
X158903750Y-97428000I268750J0D01*
G01*
G37*
G36*
G01*
X158903750Y-95553000D02*
X159866250Y-95553000D01*
G75*
G02*
X160135000Y-95821750I0J-268750D01*
G01*
X160135000Y-96359250D01*
G75*
G02*
X159866250Y-96628000I-268750J0D01*
G01*
X158903750Y-96628000D01*
G75*
G02*
X158635000Y-96359250I0J268750D01*
G01*
X158635000Y-95821750D01*
G75*
G02*
X158903750Y-95553000I268750J0D01*
G01*
G37*
%TD*%
D19*
%TO.C,J9*%
X219710000Y-86360000D03*
X222250000Y-86360000D03*
X224790000Y-86360000D03*
X227330000Y-86360000D03*
X229870000Y-86360000D03*
D20*
X232410000Y-86360000D03*
%TD*%
D19*
%TO.C,J12*%
X257810000Y-117348000D03*
X260350000Y-117348000D03*
X262890000Y-117348000D03*
D20*
X265430000Y-117348000D03*
%TD*%
%TO.C,R8*%
G36*
G01*
X121766250Y-96628000D02*
X120803750Y-96628000D01*
G75*
G02*
X120535000Y-96359250I0J268750D01*
G01*
X120535000Y-95821750D01*
G75*
G02*
X120803750Y-95553000I268750J0D01*
G01*
X121766250Y-95553000D01*
G75*
G02*
X122035000Y-95821750I0J-268750D01*
G01*
X122035000Y-96359250D01*
G75*
G02*
X121766250Y-96628000I-268750J0D01*
G01*
G37*
G36*
G01*
X121766250Y-98503000D02*
X120803750Y-98503000D01*
G75*
G02*
X120535000Y-98234250I0J268750D01*
G01*
X120535000Y-97696750D01*
G75*
G02*
X120803750Y-97428000I268750J0D01*
G01*
X121766250Y-97428000D01*
G75*
G02*
X122035000Y-97696750I0J-268750D01*
G01*
X122035000Y-98234250D01*
G75*
G02*
X121766250Y-98503000I-268750J0D01*
G01*
G37*
%TD*%
D19*
%TO.C,J11*%
X219710000Y-77470000D03*
X222250000Y-77470000D03*
X224790000Y-77470000D03*
X227330000Y-77470000D03*
X229870000Y-77470000D03*
D20*
X232410000Y-77470000D03*
%TD*%
%TO.C,R6*%
G36*
G01*
X116559250Y-35795000D02*
X115596750Y-35795000D01*
G75*
G02*
X115328000Y-35526250I0J268750D01*
G01*
X115328000Y-34988750D01*
G75*
G02*
X115596750Y-34720000I268750J0D01*
G01*
X116559250Y-34720000D01*
G75*
G02*
X116828000Y-34988750I0J-268750D01*
G01*
X116828000Y-35526250D01*
G75*
G02*
X116559250Y-35795000I-268750J0D01*
G01*
G37*
G36*
G01*
X116559250Y-37670000D02*
X115596750Y-37670000D01*
G75*
G02*
X115328000Y-37401250I0J268750D01*
G01*
X115328000Y-36863750D01*
G75*
G02*
X115596750Y-36595000I268750J0D01*
G01*
X116559250Y-36595000D01*
G75*
G02*
X116828000Y-36863750I0J-268750D01*
G01*
X116828000Y-37401250D01*
G75*
G02*
X116559250Y-37670000I-268750J0D01*
G01*
G37*
%TD*%
%TO.C,R13*%
G36*
G01*
X175233250Y-68053000D02*
X174270750Y-68053000D01*
G75*
G02*
X174002000Y-67784250I0J268750D01*
G01*
X174002000Y-67246750D01*
G75*
G02*
X174270750Y-66978000I268750J0D01*
G01*
X175233250Y-66978000D01*
G75*
G02*
X175502000Y-67246750I0J-268750D01*
G01*
X175502000Y-67784250D01*
G75*
G02*
X175233250Y-68053000I-268750J0D01*
G01*
G37*
G36*
G01*
X175233250Y-69928000D02*
X174270750Y-69928000D01*
G75*
G02*
X174002000Y-69659250I0J268750D01*
G01*
X174002000Y-69121750D01*
G75*
G02*
X174270750Y-68853000I268750J0D01*
G01*
X175233250Y-68853000D01*
G75*
G02*
X175502000Y-69121750I0J-268750D01*
G01*
X175502000Y-69659250D01*
G75*
G02*
X175233250Y-69928000I-268750J0D01*
G01*
G37*
%TD*%
%TO.C,R5*%
G36*
G01*
X116559250Y-39605000D02*
X115596750Y-39605000D01*
G75*
G02*
X115328000Y-39336250I0J268750D01*
G01*
X115328000Y-38798750D01*
G75*
G02*
X115596750Y-38530000I268750J0D01*
G01*
X116559250Y-38530000D01*
G75*
G02*
X116828000Y-38798750I0J-268750D01*
G01*
X116828000Y-39336250D01*
G75*
G02*
X116559250Y-39605000I-268750J0D01*
G01*
G37*
G36*
G01*
X116559250Y-41480000D02*
X115596750Y-41480000D01*
G75*
G02*
X115328000Y-41211250I0J268750D01*
G01*
X115328000Y-40673750D01*
G75*
G02*
X115596750Y-40405000I268750J0D01*
G01*
X116559250Y-40405000D01*
G75*
G02*
X116828000Y-40673750I0J-268750D01*
G01*
X116828000Y-41211250D01*
G75*
G02*
X116559250Y-41480000I-268750J0D01*
G01*
G37*
%TD*%
%TO.C,R9*%
G36*
G01*
X142393750Y-97428000D02*
X143356250Y-97428000D01*
G75*
G02*
X143625000Y-97696750I0J-268750D01*
G01*
X143625000Y-98234250D01*
G75*
G02*
X143356250Y-98503000I-268750J0D01*
G01*
X142393750Y-98503000D01*
G75*
G02*
X142125000Y-98234250I0J268750D01*
G01*
X142125000Y-97696750D01*
G75*
G02*
X142393750Y-97428000I268750J0D01*
G01*
G37*
G36*
G01*
X142393750Y-95553000D02*
X143356250Y-95553000D01*
G75*
G02*
X143625000Y-95821750I0J-268750D01*
G01*
X143625000Y-96359250D01*
G75*
G02*
X143356250Y-96628000I-268750J0D01*
G01*
X142393750Y-96628000D01*
G75*
G02*
X142125000Y-96359250I0J268750D01*
G01*
X142125000Y-95821750D01*
G75*
G02*
X142393750Y-95553000I268750J0D01*
G01*
G37*
%TD*%
%TO.C,R12*%
G36*
G01*
X157707250Y-96628000D02*
X156744750Y-96628000D01*
G75*
G02*
X156476000Y-96359250I0J268750D01*
G01*
X156476000Y-95821750D01*
G75*
G02*
X156744750Y-95553000I268750J0D01*
G01*
X157707250Y-95553000D01*
G75*
G02*
X157976000Y-95821750I0J-268750D01*
G01*
X157976000Y-96359250D01*
G75*
G02*
X157707250Y-96628000I-268750J0D01*
G01*
G37*
G36*
G01*
X157707250Y-98503000D02*
X156744750Y-98503000D01*
G75*
G02*
X156476000Y-98234250I0J268750D01*
G01*
X156476000Y-97696750D01*
G75*
G02*
X156744750Y-97428000I268750J0D01*
G01*
X157707250Y-97428000D01*
G75*
G02*
X157976000Y-97696750I0J-268750D01*
G01*
X157976000Y-98234250D01*
G75*
G02*
X157707250Y-98503000I-268750J0D01*
G01*
G37*
%TD*%
D19*
%TO.C,J13*%
X184912000Y-27051000D03*
X182372000Y-27051000D03*
X179832000Y-27051000D03*
D20*
X177292000Y-27051000D03*
%TD*%
%TO.C,R7*%
G36*
G01*
X122962750Y-97428000D02*
X123925250Y-97428000D01*
G75*
G02*
X124194000Y-97696750I0J-268750D01*
G01*
X124194000Y-98234250D01*
G75*
G02*
X123925250Y-98503000I-268750J0D01*
G01*
X122962750Y-98503000D01*
G75*
G02*
X122694000Y-98234250I0J268750D01*
G01*
X122694000Y-97696750D01*
G75*
G02*
X122962750Y-97428000I268750J0D01*
G01*
G37*
G36*
G01*
X122962750Y-95553000D02*
X123925250Y-95553000D01*
G75*
G02*
X124194000Y-95821750I0J-268750D01*
G01*
X124194000Y-96359250D01*
G75*
G02*
X123925250Y-96628000I-268750J0D01*
G01*
X122962750Y-96628000D01*
G75*
G02*
X122694000Y-96359250I0J268750D01*
G01*
X122694000Y-95821750D01*
G75*
G02*
X122962750Y-95553000I268750J0D01*
G01*
G37*
%TD*%
D19*
%TO.C,J10*%
X232410000Y-125730000D03*
X232410000Y-128270000D03*
X229870000Y-125730000D03*
X229870000Y-128270000D03*
X227330000Y-125730000D03*
X227330000Y-128270000D03*
X224790000Y-125730000D03*
X224790000Y-128270000D03*
X222250000Y-125730000D03*
X222250000Y-128270000D03*
X219710000Y-125730000D03*
D20*
X219710000Y-128270000D03*
%TD*%
D28*
%TO.C,H2*%
X169418000Y-50673000D03*
%TD*%
%TO.C,H7*%
X192278000Y-27305000D03*
%TD*%
%TO.C,H4*%
X192278000Y-50673000D03*
%TD*%
%TO.C,H10*%
X169418000Y-27305000D03*
%TD*%
M02*
