%TF.GenerationSoftware,KiCad,Pcbnew,(5.1.6)-1*%
%TF.CreationDate,2020-11-12T15:31:55-08:00*%
%TF.ProjectId,userinterfacepcb,75736572-696e-4746-9572-666163657063,rev?*%
%TF.SameCoordinates,Original*%
%TF.FileFunction,Legend,Top*%
%TF.FilePolarity,Positive*%
%FSLAX46Y46*%
G04 Gerber Fmt 4.6, Leading zero omitted, Abs format (unit mm)*
G04 Created by KiCad (PCBNEW (5.1.6)-1) date 2020-11-12 15:31:55*
%MOMM*%
%LPD*%
G01*
G04 APERTURE LIST*
%ADD10C,0.120000*%
%ADD11C,0.250000*%
%ADD12C,0.300000*%
%ADD13C,0.150000*%
%ADD14C,0.200000*%
%ADD15C,0.100000*%
G04 APERTURE END LIST*
D10*
X113030000Y-89535000D02*
X113030000Y-90170000D01*
X151130000Y-90170000D02*
X151130000Y-89535000D01*
X148590000Y-90170000D02*
X151130000Y-90170000D01*
X148590000Y-72390000D02*
X151130000Y-72390000D01*
X208280000Y-72390000D02*
X204470000Y-72390000D01*
X208280000Y-90170000D02*
X208280000Y-72390000D01*
X190500000Y-90170000D02*
X208280000Y-90170000D01*
X190500000Y-104140000D02*
X190500000Y-90170000D01*
X171450000Y-104140000D02*
X190500000Y-104140000D01*
X171450000Y-90170000D02*
X171450000Y-104140000D01*
X153670000Y-90170000D02*
X171450000Y-90170000D01*
X153670000Y-86360000D02*
X153670000Y-90170000D01*
X153670000Y-72390000D02*
X153670000Y-86360000D01*
X171450000Y-72390000D02*
X153670000Y-72390000D01*
X171450000Y-58420000D02*
X171450000Y-72390000D01*
X190500000Y-72390000D02*
X204470000Y-72390000D01*
X190500000Y-58420000D02*
X190500000Y-72390000D01*
X171450000Y-58420000D02*
X190500000Y-58420000D01*
X238775865Y-38100000D02*
G75*
G03*
X238775865Y-38100000I-12715865J0D01*
G01*
X113030000Y-89535000D02*
X113030000Y-72390000D01*
X148590000Y-90170000D02*
X113030000Y-90170000D01*
X151130000Y-72390000D02*
X151130000Y-89535000D01*
X113030000Y-72390000D02*
X148590000Y-72390000D01*
D11*
X110465714Y-67734571D02*
X110465714Y-66234571D01*
X111108571Y-67734571D02*
X111108571Y-66948857D01*
X111037142Y-66806000D01*
X110894285Y-66734571D01*
X110680000Y-66734571D01*
X110537142Y-66806000D01*
X110465714Y-66877428D01*
X111608571Y-66734571D02*
X112180000Y-66734571D01*
X111822857Y-66234571D02*
X111822857Y-67520285D01*
X111894285Y-67663142D01*
X112037142Y-67734571D01*
X112180000Y-67734571D01*
X112465714Y-66734571D02*
X113037142Y-66734571D01*
X112680000Y-66234571D02*
X112680000Y-67520285D01*
X112751428Y-67663142D01*
X112894285Y-67734571D01*
X113037142Y-67734571D01*
X113537142Y-66734571D02*
X113537142Y-68234571D01*
X113537142Y-66806000D02*
X113680000Y-66734571D01*
X113965714Y-66734571D01*
X114108571Y-66806000D01*
X114180000Y-66877428D01*
X114251428Y-67020285D01*
X114251428Y-67448857D01*
X114180000Y-67591714D01*
X114108571Y-67663142D01*
X113965714Y-67734571D01*
X113680000Y-67734571D01*
X113537142Y-67663142D01*
X114822857Y-67663142D02*
X114965714Y-67734571D01*
X115251428Y-67734571D01*
X115394285Y-67663142D01*
X115465714Y-67520285D01*
X115465714Y-67448857D01*
X115394285Y-67306000D01*
X115251428Y-67234571D01*
X115037142Y-67234571D01*
X114894285Y-67163142D01*
X114822857Y-67020285D01*
X114822857Y-66948857D01*
X114894285Y-66806000D01*
X115037142Y-66734571D01*
X115251428Y-66734571D01*
X115394285Y-66806000D01*
X116108571Y-67591714D02*
X116180000Y-67663142D01*
X116108571Y-67734571D01*
X116037142Y-67663142D01*
X116108571Y-67591714D01*
X116108571Y-67734571D01*
X116108571Y-66806000D02*
X116180000Y-66877428D01*
X116108571Y-66948857D01*
X116037142Y-66877428D01*
X116108571Y-66806000D01*
X116108571Y-66948857D01*
X117894285Y-66163142D02*
X116608571Y-68091714D01*
X119465714Y-66163142D02*
X118180000Y-68091714D01*
X120608571Y-66734571D02*
X120608571Y-67948857D01*
X120537142Y-68091714D01*
X120465714Y-68163142D01*
X120322857Y-68234571D01*
X120108571Y-68234571D01*
X119965714Y-68163142D01*
X120608571Y-67663142D02*
X120465714Y-67734571D01*
X120180000Y-67734571D01*
X120037142Y-67663142D01*
X119965714Y-67591714D01*
X119894285Y-67448857D01*
X119894285Y-67020285D01*
X119965714Y-66877428D01*
X120037142Y-66806000D01*
X120180000Y-66734571D01*
X120465714Y-66734571D01*
X120608571Y-66806000D01*
X121322857Y-67734571D02*
X121322857Y-66734571D01*
X121322857Y-66234571D02*
X121251428Y-66306000D01*
X121322857Y-66377428D01*
X121394285Y-66306000D01*
X121322857Y-66234571D01*
X121322857Y-66377428D01*
X121822857Y-66734571D02*
X122394285Y-66734571D01*
X122037142Y-66234571D02*
X122037142Y-67520285D01*
X122108571Y-67663142D01*
X122251428Y-67734571D01*
X122394285Y-67734571D01*
X122894285Y-67734571D02*
X122894285Y-66234571D01*
X123537142Y-67734571D02*
X123537142Y-66948857D01*
X123465714Y-66806000D01*
X123322857Y-66734571D01*
X123108571Y-66734571D01*
X122965714Y-66806000D01*
X122894285Y-66877428D01*
X124894285Y-66734571D02*
X124894285Y-67734571D01*
X124251428Y-66734571D02*
X124251428Y-67520285D01*
X124322857Y-67663142D01*
X124465714Y-67734571D01*
X124680000Y-67734571D01*
X124822857Y-67663142D01*
X124894285Y-67591714D01*
X125608571Y-67734571D02*
X125608571Y-66234571D01*
X125608571Y-66806000D02*
X125751428Y-66734571D01*
X126037142Y-66734571D01*
X126180000Y-66806000D01*
X126251428Y-66877428D01*
X126322857Y-67020285D01*
X126322857Y-67448857D01*
X126251428Y-67591714D01*
X126180000Y-67663142D01*
X126037142Y-67734571D01*
X125751428Y-67734571D01*
X125608571Y-67663142D01*
X126965714Y-67591714D02*
X127037142Y-67663142D01*
X126965714Y-67734571D01*
X126894285Y-67663142D01*
X126965714Y-67591714D01*
X126965714Y-67734571D01*
X128322857Y-67663142D02*
X128180000Y-67734571D01*
X127894285Y-67734571D01*
X127751428Y-67663142D01*
X127680000Y-67591714D01*
X127608571Y-67448857D01*
X127608571Y-67020285D01*
X127680000Y-66877428D01*
X127751428Y-66806000D01*
X127894285Y-66734571D01*
X128180000Y-66734571D01*
X128322857Y-66806000D01*
X129180000Y-67734571D02*
X129037142Y-67663142D01*
X128965714Y-67591714D01*
X128894285Y-67448857D01*
X128894285Y-67020285D01*
X128965714Y-66877428D01*
X129037142Y-66806000D01*
X129180000Y-66734571D01*
X129394285Y-66734571D01*
X129537142Y-66806000D01*
X129608571Y-66877428D01*
X129680000Y-67020285D01*
X129680000Y-67448857D01*
X129608571Y-67591714D01*
X129537142Y-67663142D01*
X129394285Y-67734571D01*
X129180000Y-67734571D01*
X130322857Y-67734571D02*
X130322857Y-66734571D01*
X130322857Y-66877428D02*
X130394285Y-66806000D01*
X130537142Y-66734571D01*
X130751428Y-66734571D01*
X130894285Y-66806000D01*
X130965714Y-66948857D01*
X130965714Y-67734571D01*
X130965714Y-66948857D02*
X131037142Y-66806000D01*
X131180000Y-66734571D01*
X131394285Y-66734571D01*
X131537142Y-66806000D01*
X131608571Y-66948857D01*
X131608571Y-67734571D01*
X133394285Y-66163142D02*
X132108571Y-68091714D01*
X133822857Y-67306000D02*
X134537142Y-67306000D01*
X133680000Y-67734571D02*
X134180000Y-66234571D01*
X134680000Y-67734571D01*
X135180000Y-67734571D02*
X135180000Y-66734571D01*
X135180000Y-67020285D02*
X135251428Y-66877428D01*
X135322857Y-66806000D01*
X135465714Y-66734571D01*
X135608571Y-66734571D01*
X136751428Y-67663142D02*
X136608571Y-67734571D01*
X136322857Y-67734571D01*
X136180000Y-67663142D01*
X136108571Y-67591714D01*
X136037142Y-67448857D01*
X136037142Y-67020285D01*
X136108571Y-66877428D01*
X136180000Y-66806000D01*
X136322857Y-66734571D01*
X136608571Y-66734571D01*
X136751428Y-66806000D01*
X137180000Y-66734571D02*
X137751428Y-66734571D01*
X137394285Y-66234571D02*
X137394285Y-67520285D01*
X137465714Y-67663142D01*
X137608571Y-67734571D01*
X137751428Y-67734571D01*
X138894285Y-66734571D02*
X138894285Y-67734571D01*
X138251428Y-66734571D02*
X138251428Y-67520285D01*
X138322857Y-67663142D01*
X138465714Y-67734571D01*
X138680000Y-67734571D01*
X138822857Y-67663142D01*
X138894285Y-67591714D01*
X139608571Y-67734571D02*
X139608571Y-66734571D01*
X139608571Y-67020285D02*
X139680000Y-66877428D01*
X139751428Y-66806000D01*
X139894285Y-66734571D01*
X140037142Y-66734571D01*
X141180000Y-66734571D02*
X141180000Y-67734571D01*
X140537142Y-66734571D02*
X140537142Y-67520285D01*
X140608571Y-67663142D01*
X140751428Y-67734571D01*
X140965714Y-67734571D01*
X141108571Y-67663142D01*
X141180000Y-67591714D01*
X141822857Y-67663142D02*
X141965714Y-67734571D01*
X142251428Y-67734571D01*
X142394285Y-67663142D01*
X142465714Y-67520285D01*
X142465714Y-67448857D01*
X142394285Y-67306000D01*
X142251428Y-67234571D01*
X142037142Y-67234571D01*
X141894285Y-67163142D01*
X141822857Y-67020285D01*
X141822857Y-66948857D01*
X141894285Y-66806000D01*
X142037142Y-66734571D01*
X142251428Y-66734571D01*
X142394285Y-66806000D01*
X142965714Y-66234571D02*
X143894285Y-66234571D01*
X143394285Y-66806000D01*
X143608571Y-66806000D01*
X143751428Y-66877428D01*
X143822857Y-66948857D01*
X143894285Y-67091714D01*
X143894285Y-67448857D01*
X143822857Y-67591714D01*
X143751428Y-67663142D01*
X143608571Y-67734571D01*
X143180000Y-67734571D01*
X143037142Y-67663142D01*
X142965714Y-67591714D01*
X145322857Y-67734571D02*
X144465714Y-67734571D01*
X144894285Y-67734571D02*
X144894285Y-66234571D01*
X144751428Y-66448857D01*
X144608571Y-66591714D01*
X144465714Y-66663142D01*
X146608571Y-66734571D02*
X146608571Y-67734571D01*
X146251428Y-66163142D02*
X145894285Y-67234571D01*
X146822857Y-67234571D01*
X148465714Y-66163142D02*
X147180000Y-68091714D01*
X149251428Y-66234571D02*
X149537142Y-66234571D01*
X149680000Y-66306000D01*
X149822857Y-66448857D01*
X149894285Y-66734571D01*
X149894285Y-67234571D01*
X149822857Y-67520285D01*
X149680000Y-67663142D01*
X149537142Y-67734571D01*
X149251428Y-67734571D01*
X149108571Y-67663142D01*
X148965714Y-67520285D01*
X148894285Y-67234571D01*
X148894285Y-66734571D01*
X148965714Y-66448857D01*
X149108571Y-66306000D01*
X149251428Y-66234571D01*
X150537142Y-66734571D02*
X150537142Y-68234571D01*
X150537142Y-66806000D02*
X150680000Y-66734571D01*
X150965714Y-66734571D01*
X151108571Y-66806000D01*
X151180000Y-66877428D01*
X151251428Y-67020285D01*
X151251428Y-67448857D01*
X151180000Y-67591714D01*
X151108571Y-67663142D01*
X150965714Y-67734571D01*
X150680000Y-67734571D01*
X150537142Y-67663142D01*
X152465714Y-67663142D02*
X152322857Y-67734571D01*
X152037142Y-67734571D01*
X151894285Y-67663142D01*
X151822857Y-67520285D01*
X151822857Y-66948857D01*
X151894285Y-66806000D01*
X152037142Y-66734571D01*
X152322857Y-66734571D01*
X152465714Y-66806000D01*
X152537142Y-66948857D01*
X152537142Y-67091714D01*
X151822857Y-67234571D01*
X153180000Y-66734571D02*
X153180000Y-67734571D01*
X153180000Y-66877428D02*
X153251428Y-66806000D01*
X153394285Y-66734571D01*
X153608571Y-66734571D01*
X153751428Y-66806000D01*
X153822857Y-66948857D01*
X153822857Y-67734571D01*
X154465714Y-67663142D02*
X154680000Y-67734571D01*
X155037142Y-67734571D01*
X155180000Y-67663142D01*
X155251428Y-67591714D01*
X155322857Y-67448857D01*
X155322857Y-67306000D01*
X155251428Y-67163142D01*
X155180000Y-67091714D01*
X155037142Y-67020285D01*
X154751428Y-66948857D01*
X154608571Y-66877428D01*
X154537142Y-66806000D01*
X154465714Y-66663142D01*
X154465714Y-66520285D01*
X154537142Y-66377428D01*
X154608571Y-66306000D01*
X154751428Y-66234571D01*
X155108571Y-66234571D01*
X155322857Y-66306000D01*
X155751428Y-66234571D02*
X156608571Y-66234571D01*
X156180000Y-67734571D02*
X156180000Y-66234571D01*
X157108571Y-67734571D02*
X157108571Y-66234571D01*
X157608571Y-67306000D01*
X158108571Y-66234571D01*
X158108571Y-67734571D01*
X158465714Y-67877428D02*
X159608571Y-67877428D01*
X159751428Y-66734571D02*
X160322857Y-66734571D01*
X159965714Y-66234571D02*
X159965714Y-67520285D01*
X160037142Y-67663142D01*
X160180000Y-67734571D01*
X160322857Y-67734571D01*
X161394285Y-67663142D02*
X161251428Y-67734571D01*
X160965714Y-67734571D01*
X160822857Y-67663142D01*
X160751428Y-67520285D01*
X160751428Y-66948857D01*
X160822857Y-66806000D01*
X160965714Y-66734571D01*
X161251428Y-66734571D01*
X161394285Y-66806000D01*
X161465714Y-66948857D01*
X161465714Y-67091714D01*
X160751428Y-67234571D01*
X162680000Y-67663142D02*
X162537142Y-67734571D01*
X162251428Y-67734571D01*
X162108571Y-67663142D01*
X162037142Y-67520285D01*
X162037142Y-66948857D01*
X162108571Y-66806000D01*
X162251428Y-66734571D01*
X162537142Y-66734571D01*
X162680000Y-66806000D01*
X162751428Y-66948857D01*
X162751428Y-67091714D01*
X162037142Y-67234571D01*
X163394285Y-66734571D02*
X163394285Y-67734571D01*
X163394285Y-66877428D02*
X163465714Y-66806000D01*
X163608571Y-66734571D01*
X163822857Y-66734571D01*
X163965714Y-66806000D01*
X164037142Y-66948857D01*
X164037142Y-67734571D01*
X164680000Y-67663142D02*
X164822857Y-67734571D01*
X165108571Y-67734571D01*
X165251428Y-67663142D01*
X165322857Y-67520285D01*
X165322857Y-67448857D01*
X165251428Y-67306000D01*
X165108571Y-67234571D01*
X164894285Y-67234571D01*
X164751428Y-67163142D01*
X164680000Y-67020285D01*
X164680000Y-66948857D01*
X164751428Y-66806000D01*
X164894285Y-66734571D01*
X165108571Y-66734571D01*
X165251428Y-66806000D01*
X165822857Y-66734571D02*
X166180000Y-67734571D01*
X166537142Y-66734571D02*
X166180000Y-67734571D01*
X166037142Y-68091714D01*
X165965714Y-68163142D01*
X165822857Y-68234571D01*
D12*
X111669047Y-64341285D02*
X111573809Y-64436523D01*
X111288095Y-64531761D01*
X111097619Y-64531761D01*
X110811904Y-64436523D01*
X110621428Y-64246047D01*
X110526190Y-64055571D01*
X110430952Y-63674619D01*
X110430952Y-63388904D01*
X110526190Y-63007952D01*
X110621428Y-62817476D01*
X110811904Y-62627000D01*
X111097619Y-62531761D01*
X111288095Y-62531761D01*
X111573809Y-62627000D01*
X111669047Y-62722238D01*
X112811904Y-64531761D02*
X112621428Y-64436523D01*
X112526190Y-64341285D01*
X112430952Y-64150809D01*
X112430952Y-63579380D01*
X112526190Y-63388904D01*
X112621428Y-63293666D01*
X112811904Y-63198428D01*
X113097619Y-63198428D01*
X113288095Y-63293666D01*
X113383333Y-63388904D01*
X113478571Y-63579380D01*
X113478571Y-64150809D01*
X113383333Y-64341285D01*
X113288095Y-64436523D01*
X113097619Y-64531761D01*
X112811904Y-64531761D01*
X115192857Y-64531761D02*
X115192857Y-62531761D01*
X115192857Y-64436523D02*
X115002380Y-64531761D01*
X114621428Y-64531761D01*
X114430952Y-64436523D01*
X114335714Y-64341285D01*
X114240476Y-64150809D01*
X114240476Y-63579380D01*
X114335714Y-63388904D01*
X114430952Y-63293666D01*
X114621428Y-63198428D01*
X115002380Y-63198428D01*
X115192857Y-63293666D01*
X116907142Y-64436523D02*
X116716666Y-64531761D01*
X116335714Y-64531761D01*
X116145238Y-64436523D01*
X116050000Y-64246047D01*
X116050000Y-63484142D01*
X116145238Y-63293666D01*
X116335714Y-63198428D01*
X116716666Y-63198428D01*
X116907142Y-63293666D01*
X117002380Y-63484142D01*
X117002380Y-63674619D01*
X116050000Y-63865095D01*
X120240476Y-64531761D02*
X120240476Y-63484142D01*
X120145238Y-63293666D01*
X119954761Y-63198428D01*
X119573809Y-63198428D01*
X119383333Y-63293666D01*
X120240476Y-64436523D02*
X120050000Y-64531761D01*
X119573809Y-64531761D01*
X119383333Y-64436523D01*
X119288095Y-64246047D01*
X119288095Y-64055571D01*
X119383333Y-63865095D01*
X119573809Y-63769857D01*
X120050000Y-63769857D01*
X120240476Y-63674619D01*
X121002380Y-63198428D02*
X121478571Y-64531761D01*
X121954761Y-63198428D01*
X123573809Y-64531761D02*
X123573809Y-63484142D01*
X123478571Y-63293666D01*
X123288095Y-63198428D01*
X122907142Y-63198428D01*
X122716666Y-63293666D01*
X123573809Y-64436523D02*
X123383333Y-64531761D01*
X122907142Y-64531761D01*
X122716666Y-64436523D01*
X122621428Y-64246047D01*
X122621428Y-64055571D01*
X122716666Y-63865095D01*
X122907142Y-63769857D01*
X123383333Y-63769857D01*
X123573809Y-63674619D01*
X124526190Y-64531761D02*
X124526190Y-63198428D01*
X124526190Y-62531761D02*
X124430952Y-62627000D01*
X124526190Y-62722238D01*
X124621428Y-62627000D01*
X124526190Y-62531761D01*
X124526190Y-62722238D01*
X125764285Y-64531761D02*
X125573809Y-64436523D01*
X125478571Y-64246047D01*
X125478571Y-62531761D01*
X127383333Y-64531761D02*
X127383333Y-63484142D01*
X127288095Y-63293666D01*
X127097619Y-63198428D01*
X126716666Y-63198428D01*
X126526190Y-63293666D01*
X127383333Y-64436523D02*
X127192857Y-64531761D01*
X126716666Y-64531761D01*
X126526190Y-64436523D01*
X126430952Y-64246047D01*
X126430952Y-64055571D01*
X126526190Y-63865095D01*
X126716666Y-63769857D01*
X127192857Y-63769857D01*
X127383333Y-63674619D01*
X128335714Y-64531761D02*
X128335714Y-62531761D01*
X128335714Y-63293666D02*
X128526190Y-63198428D01*
X128907142Y-63198428D01*
X129097619Y-63293666D01*
X129192857Y-63388904D01*
X129288095Y-63579380D01*
X129288095Y-64150809D01*
X129192857Y-64341285D01*
X129097619Y-64436523D01*
X128907142Y-64531761D01*
X128526190Y-64531761D01*
X128335714Y-64436523D01*
X130430952Y-64531761D02*
X130240476Y-64436523D01*
X130145238Y-64246047D01*
X130145238Y-62531761D01*
X131954761Y-64436523D02*
X131764285Y-64531761D01*
X131383333Y-64531761D01*
X131192857Y-64436523D01*
X131097619Y-64246047D01*
X131097619Y-63484142D01*
X131192857Y-63293666D01*
X131383333Y-63198428D01*
X131764285Y-63198428D01*
X131954761Y-63293666D01*
X132050000Y-63484142D01*
X132050000Y-63674619D01*
X131097619Y-63865095D01*
X135288095Y-64531761D02*
X135288095Y-63484142D01*
X135192857Y-63293666D01*
X135002380Y-63198428D01*
X134621428Y-63198428D01*
X134430952Y-63293666D01*
X135288095Y-64436523D02*
X135097619Y-64531761D01*
X134621428Y-64531761D01*
X134430952Y-64436523D01*
X134335714Y-64246047D01*
X134335714Y-64055571D01*
X134430952Y-63865095D01*
X134621428Y-63769857D01*
X135097619Y-63769857D01*
X135288095Y-63674619D01*
X135954761Y-63198428D02*
X136716666Y-63198428D01*
X136240476Y-62531761D02*
X136240476Y-64246047D01*
X136335714Y-64436523D01*
X136526190Y-64531761D01*
X136716666Y-64531761D01*
X137383333Y-64341285D02*
X137478571Y-64436523D01*
X137383333Y-64531761D01*
X137288095Y-64436523D01*
X137383333Y-64341285D01*
X137383333Y-64531761D01*
X137383333Y-63293666D02*
X137478571Y-63388904D01*
X137383333Y-63484142D01*
X137288095Y-63388904D01*
X137383333Y-63293666D01*
X137383333Y-63484142D01*
D10*
X119380000Y-38100000D02*
X144780000Y-38100000D01*
X144780000Y-38100000D02*
G75*
G03*
X144780000Y-38100000I-12700000J0D01*
G01*
X132080000Y-25400000D02*
X132080000Y-50800000D01*
X167259000Y-25019000D02*
X167259000Y-52959000D01*
X194564000Y-25019000D02*
X167259000Y-25019000D01*
X194564000Y-52959000D02*
X194564000Y-25019000D01*
D13*
X277693380Y-79817952D02*
X276693380Y-79817952D01*
X277312428Y-79722714D02*
X277693380Y-79437000D01*
X277026714Y-79437000D02*
X277407666Y-79817952D01*
X277026714Y-79008428D02*
X278026714Y-79008428D01*
X277074333Y-79008428D02*
X277026714Y-78913190D01*
X277026714Y-78722714D01*
X277074333Y-78627476D01*
X277121952Y-78579857D01*
X277217190Y-78532238D01*
X277502904Y-78532238D01*
X277598142Y-78579857D01*
X277645761Y-78627476D01*
X277693380Y-78722714D01*
X277693380Y-78913190D01*
X277645761Y-79008428D01*
X277645761Y-77722714D02*
X277693380Y-77817952D01*
X277693380Y-78008428D01*
X277645761Y-78103666D01*
X277550523Y-78151285D01*
X277169571Y-78151285D01*
X277074333Y-78103666D01*
X277026714Y-78008428D01*
X277026714Y-77817952D01*
X277074333Y-77722714D01*
X277169571Y-77675095D01*
X277264809Y-77675095D01*
X277360047Y-78151285D01*
X277026714Y-77341761D02*
X277026714Y-76817952D01*
X277693380Y-77341761D01*
X277693380Y-76817952D01*
X277645761Y-76056047D02*
X277693380Y-76151285D01*
X277693380Y-76341761D01*
X277645761Y-76437000D01*
X277550523Y-76484619D01*
X277169571Y-76484619D01*
X277074333Y-76437000D01*
X277026714Y-76341761D01*
X277026714Y-76151285D01*
X277074333Y-76056047D01*
X277169571Y-76008428D01*
X277264809Y-76008428D01*
X277360047Y-76484619D01*
X277645761Y-75627476D02*
X277693380Y-75532238D01*
X277693380Y-75341761D01*
X277645761Y-75246523D01*
X277550523Y-75198904D01*
X277502904Y-75198904D01*
X277407666Y-75246523D01*
X277360047Y-75341761D01*
X277360047Y-75484619D01*
X277312428Y-75579857D01*
X277217190Y-75627476D01*
X277169571Y-75627476D01*
X277074333Y-75579857D01*
X277026714Y-75484619D01*
X277026714Y-75341761D01*
X277074333Y-75246523D01*
X277693380Y-74770333D02*
X276693380Y-74770333D01*
X277693380Y-74341761D02*
X277169571Y-74341761D01*
X277074333Y-74389380D01*
X277026714Y-74484619D01*
X277026714Y-74627476D01*
X277074333Y-74722714D01*
X277121952Y-74770333D01*
X277693380Y-73865571D02*
X276693380Y-73865571D01*
X277312428Y-73770333D02*
X277693380Y-73484619D01*
X277026714Y-73484619D02*
X277407666Y-73865571D01*
X277693380Y-73056047D02*
X277026714Y-73056047D01*
X276693380Y-73056047D02*
X276741000Y-73103666D01*
X276788619Y-73056047D01*
X276741000Y-73008428D01*
X276693380Y-73056047D01*
X276788619Y-73056047D01*
X277217190Y-71960809D02*
X277169571Y-72008428D01*
X277121952Y-72103666D01*
X277121952Y-72198904D01*
X277169571Y-72294142D01*
X277217190Y-72341761D01*
X277312428Y-72389380D01*
X277407666Y-72389380D01*
X277502904Y-72341761D01*
X277550523Y-72294142D01*
X277598142Y-72198904D01*
X277598142Y-72103666D01*
X277550523Y-72008428D01*
X277502904Y-71960809D01*
X277121952Y-71960809D02*
X277502904Y-71960809D01*
X277550523Y-71913190D01*
X277550523Y-71865571D01*
X277502904Y-71770333D01*
X277407666Y-71722714D01*
X277169571Y-71722714D01*
X277026714Y-71817952D01*
X276931476Y-71960809D01*
X276883857Y-72151285D01*
X276931476Y-72341761D01*
X277026714Y-72484619D01*
X277169571Y-72579857D01*
X277360047Y-72627476D01*
X277550523Y-72579857D01*
X277693380Y-72484619D01*
X277788619Y-72341761D01*
X277836238Y-72151285D01*
X277788619Y-71960809D01*
X277693380Y-71817952D01*
X277693380Y-71294142D02*
X276693380Y-71294142D01*
X277693380Y-70865571D02*
X277169571Y-70865571D01*
X277074333Y-70913190D01*
X277026714Y-71008428D01*
X277026714Y-71151285D01*
X277074333Y-71246523D01*
X277121952Y-71294142D01*
X277693380Y-70389380D02*
X277026714Y-70389380D01*
X277121952Y-70389380D02*
X277074333Y-70341761D01*
X277026714Y-70246523D01*
X277026714Y-70103666D01*
X277074333Y-70008428D01*
X277169571Y-69960809D01*
X277693380Y-69960809D01*
X277169571Y-69960809D02*
X277074333Y-69913190D01*
X277026714Y-69817952D01*
X277026714Y-69675095D01*
X277074333Y-69579857D01*
X277169571Y-69532238D01*
X277693380Y-69532238D01*
X277645761Y-68627476D02*
X277693380Y-68722714D01*
X277693380Y-68913190D01*
X277645761Y-69008428D01*
X277598142Y-69056047D01*
X277502904Y-69103666D01*
X277217190Y-69103666D01*
X277121952Y-69056047D01*
X277074333Y-69008428D01*
X277026714Y-68913190D01*
X277026714Y-68722714D01*
X277074333Y-68627476D01*
X277598142Y-68198904D02*
X277645761Y-68151285D01*
X277693380Y-68198904D01*
X277645761Y-68246523D01*
X277598142Y-68198904D01*
X277693380Y-68198904D01*
X277645761Y-67341761D02*
X277693380Y-67437000D01*
X277693380Y-67627476D01*
X277645761Y-67722714D01*
X277550523Y-67770333D01*
X277169571Y-67770333D01*
X277074333Y-67722714D01*
X277026714Y-67627476D01*
X277026714Y-67437000D01*
X277074333Y-67341761D01*
X277169571Y-67294142D01*
X277264809Y-67294142D01*
X277360047Y-67770333D01*
X277693380Y-66437000D02*
X276693380Y-66437000D01*
X277645761Y-66437000D02*
X277693380Y-66532238D01*
X277693380Y-66722714D01*
X277645761Y-66817952D01*
X277598142Y-66865571D01*
X277502904Y-66913190D01*
X277217190Y-66913190D01*
X277121952Y-66865571D01*
X277074333Y-66817952D01*
X277026714Y-66722714D01*
X277026714Y-66532238D01*
X277074333Y-66437000D01*
X277026714Y-65532238D02*
X277693380Y-65532238D01*
X277026714Y-65960809D02*
X277550523Y-65960809D01*
X277645761Y-65913190D01*
X277693380Y-65817952D01*
X277693380Y-65675095D01*
X277645761Y-65579857D01*
X277598142Y-65532238D01*
X277693380Y-63770333D02*
X277693380Y-64341761D01*
X277693380Y-64056047D02*
X276693380Y-64056047D01*
X276836238Y-64151285D01*
X276931476Y-64246523D01*
X276979095Y-64341761D01*
X276693380Y-63151285D02*
X276693380Y-63056047D01*
X276741000Y-62960809D01*
X276788619Y-62913190D01*
X276883857Y-62865571D01*
X277074333Y-62817952D01*
X277312428Y-62817952D01*
X277502904Y-62865571D01*
X277598142Y-62913190D01*
X277645761Y-62960809D01*
X277693380Y-63056047D01*
X277693380Y-63151285D01*
X277645761Y-63246523D01*
X277598142Y-63294142D01*
X277502904Y-63341761D01*
X277312428Y-63389380D01*
X277074333Y-63389380D01*
X276883857Y-63341761D01*
X276788619Y-63294142D01*
X276741000Y-63246523D01*
X276693380Y-63151285D01*
X276645761Y-61675095D02*
X277931476Y-62532238D01*
X276693380Y-61437000D02*
X276693380Y-60817952D01*
X277074333Y-61151285D01*
X277074333Y-61008428D01*
X277121952Y-60913190D01*
X277169571Y-60865571D01*
X277264809Y-60817952D01*
X277502904Y-60817952D01*
X277598142Y-60865571D01*
X277645761Y-60913190D01*
X277693380Y-61008428D01*
X277693380Y-61294142D01*
X277645761Y-61389380D01*
X277598142Y-61437000D01*
X276693380Y-60198904D02*
X276693380Y-60103666D01*
X276741000Y-60008428D01*
X276788619Y-59960809D01*
X276883857Y-59913190D01*
X277074333Y-59865571D01*
X277312428Y-59865571D01*
X277502904Y-59913190D01*
X277598142Y-59960809D01*
X277645761Y-60008428D01*
X277693380Y-60103666D01*
X277693380Y-60198904D01*
X277645761Y-60294142D01*
X277598142Y-60341761D01*
X277502904Y-60389380D01*
X277312428Y-60437000D01*
X277074333Y-60437000D01*
X276883857Y-60389380D01*
X276788619Y-60341761D01*
X276741000Y-60294142D01*
X276693380Y-60198904D01*
X276645761Y-58722714D02*
X277931476Y-59579857D01*
X276788619Y-58437000D02*
X276741000Y-58389380D01*
X276693380Y-58294142D01*
X276693380Y-58056047D01*
X276741000Y-57960809D01*
X276788619Y-57913190D01*
X276883857Y-57865571D01*
X276979095Y-57865571D01*
X277121952Y-57913190D01*
X277693380Y-58484619D01*
X277693380Y-57865571D01*
X276693380Y-57246523D02*
X276693380Y-57151285D01*
X276741000Y-57056047D01*
X276788619Y-57008428D01*
X276883857Y-56960809D01*
X277074333Y-56913190D01*
X277312428Y-56913190D01*
X277502904Y-56960809D01*
X277598142Y-57008428D01*
X277645761Y-57056047D01*
X277693380Y-57151285D01*
X277693380Y-57246523D01*
X277645761Y-57341761D01*
X277598142Y-57389380D01*
X277502904Y-57437000D01*
X277312428Y-57484619D01*
X277074333Y-57484619D01*
X276883857Y-57437000D01*
X276788619Y-57389380D01*
X276741000Y-57341761D01*
X276693380Y-57246523D01*
X276788619Y-56532238D02*
X276741000Y-56484619D01*
X276693380Y-56389380D01*
X276693380Y-56151285D01*
X276741000Y-56056047D01*
X276788619Y-56008428D01*
X276883857Y-55960809D01*
X276979095Y-55960809D01*
X277121952Y-56008428D01*
X277693380Y-56579857D01*
X277693380Y-55960809D01*
X276693380Y-55341761D02*
X276693380Y-55246523D01*
X276741000Y-55151285D01*
X276788619Y-55103666D01*
X276883857Y-55056047D01*
X277074333Y-55008428D01*
X277312428Y-55008428D01*
X277502904Y-55056047D01*
X277598142Y-55103666D01*
X277645761Y-55151285D01*
X277693380Y-55246523D01*
X277693380Y-55341761D01*
X277645761Y-55437000D01*
X277598142Y-55484619D01*
X277502904Y-55532238D01*
X277312428Y-55579857D01*
X277074333Y-55579857D01*
X276883857Y-55532238D01*
X276788619Y-55484619D01*
X276741000Y-55437000D01*
X276693380Y-55341761D01*
X239030476Y-133278571D02*
X239173333Y-133326190D01*
X239220952Y-133373809D01*
X239268571Y-133469047D01*
X239268571Y-133611904D01*
X239220952Y-133707142D01*
X239173333Y-133754761D01*
X239078095Y-133802380D01*
X238697142Y-133802380D01*
X238697142Y-132802380D01*
X239030476Y-132802380D01*
X239125714Y-132850000D01*
X239173333Y-132897619D01*
X239220952Y-132992857D01*
X239220952Y-133088095D01*
X239173333Y-133183333D01*
X239125714Y-133230952D01*
X239030476Y-133278571D01*
X238697142Y-133278571D01*
X239887619Y-132802380D02*
X240078095Y-132802380D01*
X240173333Y-132850000D01*
X240268571Y-132945238D01*
X240316190Y-133135714D01*
X240316190Y-133469047D01*
X240268571Y-133659523D01*
X240173333Y-133754761D01*
X240078095Y-133802380D01*
X239887619Y-133802380D01*
X239792380Y-133754761D01*
X239697142Y-133659523D01*
X239649523Y-133469047D01*
X239649523Y-133135714D01*
X239697142Y-132945238D01*
X239792380Y-132850000D01*
X239887619Y-132802380D01*
X240697142Y-133516666D02*
X241173333Y-133516666D01*
X240601904Y-133802380D02*
X240935238Y-132802380D01*
X241268571Y-133802380D01*
X242173333Y-133802380D02*
X241840000Y-133326190D01*
X241601904Y-133802380D02*
X241601904Y-132802380D01*
X241982857Y-132802380D01*
X242078095Y-132850000D01*
X242125714Y-132897619D01*
X242173333Y-132992857D01*
X242173333Y-133135714D01*
X242125714Y-133230952D01*
X242078095Y-133278571D01*
X241982857Y-133326190D01*
X241601904Y-133326190D01*
X242601904Y-133802380D02*
X242601904Y-132802380D01*
X242840000Y-132802380D01*
X242982857Y-132850000D01*
X243078095Y-132945238D01*
X243125714Y-133040476D01*
X243173333Y-133230952D01*
X243173333Y-133373809D01*
X243125714Y-133564285D01*
X243078095Y-133659523D01*
X242982857Y-133754761D01*
X242840000Y-133802380D01*
X242601904Y-133802380D01*
X244363809Y-133802380D02*
X244363809Y-132802380D01*
X244744761Y-132802380D01*
X244840000Y-132850000D01*
X244887619Y-132897619D01*
X244935238Y-132992857D01*
X244935238Y-133135714D01*
X244887619Y-133230952D01*
X244840000Y-133278571D01*
X244744761Y-133326190D01*
X244363809Y-133326190D01*
X245554285Y-132802380D02*
X245744761Y-132802380D01*
X245840000Y-132850000D01*
X245935238Y-132945238D01*
X245982857Y-133135714D01*
X245982857Y-133469047D01*
X245935238Y-133659523D01*
X245840000Y-133754761D01*
X245744761Y-133802380D01*
X245554285Y-133802380D01*
X245459047Y-133754761D01*
X245363809Y-133659523D01*
X245316190Y-133469047D01*
X245316190Y-133135714D01*
X245363809Y-132945238D01*
X245459047Y-132850000D01*
X245554285Y-132802380D01*
X246316190Y-132802380D02*
X246554285Y-133802380D01*
X246744761Y-133088095D01*
X246935238Y-133802380D01*
X247173333Y-132802380D01*
X247554285Y-133278571D02*
X247887619Y-133278571D01*
X248030476Y-133802380D02*
X247554285Y-133802380D01*
X247554285Y-132802380D01*
X248030476Y-132802380D01*
X249030476Y-133802380D02*
X248697142Y-133326190D01*
X248459047Y-133802380D02*
X248459047Y-132802380D01*
X248840000Y-132802380D01*
X248935238Y-132850000D01*
X248982857Y-132897619D01*
X249030476Y-132992857D01*
X249030476Y-133135714D01*
X248982857Y-133230952D01*
X248935238Y-133278571D01*
X248840000Y-133326190D01*
X248459047Y-133326190D01*
D12*
X272589761Y-82325761D02*
X272589761Y-81944809D01*
X272685000Y-81754333D01*
X272875476Y-81563857D01*
X273256428Y-81468619D01*
X273923095Y-81468619D01*
X274304047Y-81563857D01*
X274494523Y-81754333D01*
X274589761Y-81944809D01*
X274589761Y-82325761D01*
X274494523Y-82516238D01*
X274304047Y-82706714D01*
X273923095Y-82801952D01*
X273256428Y-82801952D01*
X272875476Y-82706714D01*
X272685000Y-82516238D01*
X272589761Y-82325761D01*
X273256428Y-80611476D02*
X275256428Y-80611476D01*
X273351666Y-80611476D02*
X273256428Y-80421000D01*
X273256428Y-80040047D01*
X273351666Y-79849571D01*
X273446904Y-79754333D01*
X273637380Y-79659095D01*
X274208809Y-79659095D01*
X274399285Y-79754333D01*
X274494523Y-79849571D01*
X274589761Y-80040047D01*
X274589761Y-80421000D01*
X274494523Y-80611476D01*
X274494523Y-78040047D02*
X274589761Y-78230523D01*
X274589761Y-78611476D01*
X274494523Y-78801952D01*
X274304047Y-78897190D01*
X273542142Y-78897190D01*
X273351666Y-78801952D01*
X273256428Y-78611476D01*
X273256428Y-78230523D01*
X273351666Y-78040047D01*
X273542142Y-77944809D01*
X273732619Y-77944809D01*
X273923095Y-78897190D01*
X273256428Y-77087666D02*
X274589761Y-77087666D01*
X273446904Y-77087666D02*
X273351666Y-76992428D01*
X273256428Y-76801952D01*
X273256428Y-76516238D01*
X273351666Y-76325761D01*
X273542142Y-76230523D01*
X274589761Y-76230523D01*
X274494523Y-75373380D02*
X274589761Y-75087666D01*
X274589761Y-74611476D01*
X274494523Y-74421000D01*
X274399285Y-74325761D01*
X274208809Y-74230523D01*
X274018333Y-74230523D01*
X273827857Y-74325761D01*
X273732619Y-74421000D01*
X273637380Y-74611476D01*
X273542142Y-74992428D01*
X273446904Y-75182904D01*
X273351666Y-75278142D01*
X273161190Y-75373380D01*
X272970714Y-75373380D01*
X272780238Y-75278142D01*
X272685000Y-75182904D01*
X272589761Y-74992428D01*
X272589761Y-74516238D01*
X272685000Y-74230523D01*
X272589761Y-73659095D02*
X272589761Y-72516238D01*
X274589761Y-73087666D02*
X272589761Y-73087666D01*
X274589761Y-71849571D02*
X272589761Y-71849571D01*
X274018333Y-71182904D01*
X272589761Y-70516238D01*
X274589761Y-70516238D01*
X274399285Y-66897190D02*
X274494523Y-66992428D01*
X274589761Y-67278142D01*
X274589761Y-67468619D01*
X274494523Y-67754333D01*
X274304047Y-67944809D01*
X274113571Y-68040047D01*
X273732619Y-68135285D01*
X273446904Y-68135285D01*
X273065952Y-68040047D01*
X272875476Y-67944809D01*
X272685000Y-67754333D01*
X272589761Y-67468619D01*
X272589761Y-67278142D01*
X272685000Y-66992428D01*
X272780238Y-66897190D01*
X274589761Y-65754333D02*
X274494523Y-65944809D01*
X274399285Y-66040047D01*
X274208809Y-66135285D01*
X273637380Y-66135285D01*
X273446904Y-66040047D01*
X273351666Y-65944809D01*
X273256428Y-65754333D01*
X273256428Y-65468619D01*
X273351666Y-65278142D01*
X273446904Y-65182904D01*
X273637380Y-65087666D01*
X274208809Y-65087666D01*
X274399285Y-65182904D01*
X274494523Y-65278142D01*
X274589761Y-65468619D01*
X274589761Y-65754333D01*
X273256428Y-64230523D02*
X274589761Y-64230523D01*
X273446904Y-64230523D02*
X273351666Y-64135285D01*
X273256428Y-63944809D01*
X273256428Y-63659095D01*
X273351666Y-63468619D01*
X273542142Y-63373380D01*
X274589761Y-63373380D01*
X273256428Y-62706714D02*
X273256428Y-61944809D01*
X272589761Y-62421000D02*
X274304047Y-62421000D01*
X274494523Y-62325761D01*
X274589761Y-62135285D01*
X274589761Y-61944809D01*
X274589761Y-61278142D02*
X273256428Y-61278142D01*
X273637380Y-61278142D02*
X273446904Y-61182904D01*
X273351666Y-61087666D01*
X273256428Y-60897190D01*
X273256428Y-60706714D01*
X274589761Y-59754333D02*
X274494523Y-59944809D01*
X274399285Y-60040047D01*
X274208809Y-60135285D01*
X273637380Y-60135285D01*
X273446904Y-60040047D01*
X273351666Y-59944809D01*
X273256428Y-59754333D01*
X273256428Y-59468619D01*
X273351666Y-59278142D01*
X273446904Y-59182904D01*
X273637380Y-59087666D01*
X274208809Y-59087666D01*
X274399285Y-59182904D01*
X274494523Y-59278142D01*
X274589761Y-59468619D01*
X274589761Y-59754333D01*
X274589761Y-57944809D02*
X274494523Y-58135285D01*
X274304047Y-58230523D01*
X272589761Y-58230523D01*
X272589761Y-55944809D02*
X274589761Y-55278142D01*
X272589761Y-54611476D01*
X272589761Y-53563857D02*
X272589761Y-53373380D01*
X272685000Y-53182904D01*
X272780238Y-53087666D01*
X272970714Y-52992428D01*
X273351666Y-52897190D01*
X273827857Y-52897190D01*
X274208809Y-52992428D01*
X274399285Y-53087666D01*
X274494523Y-53182904D01*
X274589761Y-53373380D01*
X274589761Y-53563857D01*
X274494523Y-53754333D01*
X274399285Y-53849571D01*
X274208809Y-53944809D01*
X273827857Y-54040047D01*
X273351666Y-54040047D01*
X272970714Y-53944809D01*
X272780238Y-53849571D01*
X272685000Y-53754333D01*
X272589761Y-53563857D01*
X274399285Y-52040047D02*
X274494523Y-51944809D01*
X274589761Y-52040047D01*
X274494523Y-52135285D01*
X274399285Y-52040047D01*
X274589761Y-52040047D01*
X272780238Y-51182904D02*
X272685000Y-51087666D01*
X272589761Y-50897190D01*
X272589761Y-50421000D01*
X272685000Y-50230523D01*
X272780238Y-50135285D01*
X272970714Y-50040047D01*
X273161190Y-50040047D01*
X273446904Y-50135285D01*
X274589761Y-51278142D01*
X274589761Y-50040047D01*
D13*
X225853809Y-103592380D02*
X226472857Y-103592380D01*
X226139523Y-103973333D01*
X226282380Y-103973333D01*
X226377619Y-104020952D01*
X226425238Y-104068571D01*
X226472857Y-104163809D01*
X226472857Y-104401904D01*
X226425238Y-104497142D01*
X226377619Y-104544761D01*
X226282380Y-104592380D01*
X225996666Y-104592380D01*
X225901428Y-104544761D01*
X225853809Y-104497142D01*
X226901428Y-104497142D02*
X226949047Y-104544761D01*
X226901428Y-104592380D01*
X226853809Y-104544761D01*
X226901428Y-104497142D01*
X226901428Y-104592380D01*
X227282380Y-103592380D02*
X227901428Y-103592380D01*
X227568095Y-103973333D01*
X227710952Y-103973333D01*
X227806190Y-104020952D01*
X227853809Y-104068571D01*
X227901428Y-104163809D01*
X227901428Y-104401904D01*
X227853809Y-104497142D01*
X227806190Y-104544761D01*
X227710952Y-104592380D01*
X227425238Y-104592380D01*
X227330000Y-104544761D01*
X227282380Y-104497142D01*
X228187142Y-103592380D02*
X228520476Y-104592380D01*
X228853809Y-103592380D01*
X203033333Y-109672380D02*
X202700000Y-109196190D01*
X202461904Y-109672380D02*
X202461904Y-108672380D01*
X202842857Y-108672380D01*
X202938095Y-108720000D01*
X202985714Y-108767619D01*
X203033333Y-108862857D01*
X203033333Y-109005714D01*
X202985714Y-109100952D01*
X202938095Y-109148571D01*
X202842857Y-109196190D01*
X202461904Y-109196190D01*
X203366666Y-108672380D02*
X204033333Y-109672380D01*
X204033333Y-108672380D02*
X203366666Y-109672380D01*
X202438095Y-111260000D02*
X202342857Y-111212380D01*
X202200000Y-111212380D01*
X202057142Y-111260000D01*
X201961904Y-111355238D01*
X201914285Y-111450476D01*
X201866666Y-111640952D01*
X201866666Y-111783809D01*
X201914285Y-111974285D01*
X201961904Y-112069523D01*
X202057142Y-112164761D01*
X202200000Y-112212380D01*
X202295238Y-112212380D01*
X202438095Y-112164761D01*
X202485714Y-112117142D01*
X202485714Y-111783809D01*
X202295238Y-111783809D01*
X202914285Y-112212380D02*
X202914285Y-111212380D01*
X203485714Y-112212380D01*
X203485714Y-111212380D01*
X203961904Y-112212380D02*
X203961904Y-111212380D01*
X204200000Y-111212380D01*
X204342857Y-111260000D01*
X204438095Y-111355238D01*
X204485714Y-111450476D01*
X204533333Y-111640952D01*
X204533333Y-111783809D01*
X204485714Y-111974285D01*
X204438095Y-112069523D01*
X204342857Y-112164761D01*
X204200000Y-112212380D01*
X203961904Y-112212380D01*
X213868095Y-106132380D02*
X214439523Y-106132380D01*
X214153809Y-107132380D02*
X214153809Y-106132380D01*
X214677619Y-106132380D02*
X215344285Y-107132380D01*
X215344285Y-106132380D02*
X214677619Y-107132380D01*
X195032380Y-110021428D02*
X195841904Y-110021428D01*
X195937142Y-109973809D01*
X195984761Y-109926190D01*
X196032380Y-109830952D01*
X196032380Y-109640476D01*
X195984761Y-109545238D01*
X195937142Y-109497619D01*
X195841904Y-109450000D01*
X195032380Y-109450000D01*
X195746666Y-109021428D02*
X195746666Y-108545238D01*
X196032380Y-109116666D02*
X195032380Y-108783333D01*
X196032380Y-108450000D01*
X196032380Y-107545238D02*
X195556190Y-107878571D01*
X196032380Y-108116666D02*
X195032380Y-108116666D01*
X195032380Y-107735714D01*
X195080000Y-107640476D01*
X195127619Y-107592857D01*
X195222857Y-107545238D01*
X195365714Y-107545238D01*
X195460952Y-107592857D01*
X195508571Y-107640476D01*
X195556190Y-107735714D01*
X195556190Y-108116666D01*
X195032380Y-107259523D02*
X195032380Y-106688095D01*
X196032380Y-106973809D02*
X195032380Y-106973809D01*
X196032380Y-105830952D02*
X196032380Y-106402380D01*
X196032380Y-106116666D02*
X195032380Y-106116666D01*
X195175238Y-106211904D01*
X195270476Y-106307142D01*
X195318095Y-106402380D01*
X221702380Y-134254666D02*
X221702380Y-133635619D01*
X222083333Y-133968952D01*
X222083333Y-133826095D01*
X222130952Y-133730857D01*
X222178571Y-133683238D01*
X222273809Y-133635619D01*
X222511904Y-133635619D01*
X222607142Y-133683238D01*
X222654761Y-133730857D01*
X222702380Y-133826095D01*
X222702380Y-134111809D01*
X222654761Y-134207047D01*
X222607142Y-134254666D01*
X221702380Y-133302285D02*
X221702380Y-132683238D01*
X222083333Y-133016571D01*
X222083333Y-132873714D01*
X222130952Y-132778476D01*
X222178571Y-132730857D01*
X222273809Y-132683238D01*
X222511904Y-132683238D01*
X222607142Y-132730857D01*
X222654761Y-132778476D01*
X222702380Y-132873714D01*
X222702380Y-133159428D01*
X222654761Y-133254666D01*
X222607142Y-133302285D01*
X221702380Y-132397523D02*
X222702380Y-132064190D01*
X221702380Y-131730857D01*
X222416666Y-131445142D02*
X222416666Y-130968952D01*
X222702380Y-131540380D02*
X221702380Y-131207047D01*
X222702380Y-130873714D01*
X226782380Y-131762476D02*
X226782380Y-132238666D01*
X227258571Y-132286285D01*
X227210952Y-132238666D01*
X227163333Y-132143428D01*
X227163333Y-131905333D01*
X227210952Y-131810095D01*
X227258571Y-131762476D01*
X227353809Y-131714857D01*
X227591904Y-131714857D01*
X227687142Y-131762476D01*
X227734761Y-131810095D01*
X227782380Y-131905333D01*
X227782380Y-132143428D01*
X227734761Y-132238666D01*
X227687142Y-132286285D01*
X226782380Y-131429142D02*
X227782380Y-131095809D01*
X226782380Y-130762476D01*
X226568095Y-111260000D02*
X226472857Y-111212380D01*
X226330000Y-111212380D01*
X226187142Y-111260000D01*
X226091904Y-111355238D01*
X226044285Y-111450476D01*
X225996666Y-111640952D01*
X225996666Y-111783809D01*
X226044285Y-111974285D01*
X226091904Y-112069523D01*
X226187142Y-112164761D01*
X226330000Y-112212380D01*
X226425238Y-112212380D01*
X226568095Y-112164761D01*
X226615714Y-112117142D01*
X226615714Y-111783809D01*
X226425238Y-111783809D01*
X227044285Y-112212380D02*
X227044285Y-111212380D01*
X227615714Y-112212380D01*
X227615714Y-111212380D01*
X228091904Y-112212380D02*
X228091904Y-111212380D01*
X228330000Y-111212380D01*
X228472857Y-111260000D01*
X228568095Y-111355238D01*
X228615714Y-111450476D01*
X228663333Y-111640952D01*
X228663333Y-111783809D01*
X228615714Y-111974285D01*
X228568095Y-112069523D01*
X228472857Y-112164761D01*
X228330000Y-112212380D01*
X228091904Y-112212380D01*
X229370000Y-122681904D02*
X229322380Y-122777142D01*
X229322380Y-122920000D01*
X229370000Y-123062857D01*
X229465238Y-123158095D01*
X229560476Y-123205714D01*
X229750952Y-123253333D01*
X229893809Y-123253333D01*
X230084285Y-123205714D01*
X230179523Y-123158095D01*
X230274761Y-123062857D01*
X230322380Y-122920000D01*
X230322380Y-122824761D01*
X230274761Y-122681904D01*
X230227142Y-122634285D01*
X229893809Y-122634285D01*
X229893809Y-122824761D01*
X230322380Y-122205714D02*
X229322380Y-122205714D01*
X230322380Y-121634285D01*
X229322380Y-121634285D01*
X230322380Y-121158095D02*
X229322380Y-121158095D01*
X229322380Y-120920000D01*
X229370000Y-120777142D01*
X229465238Y-120681904D01*
X229560476Y-120634285D01*
X229750952Y-120586666D01*
X229893809Y-120586666D01*
X230084285Y-120634285D01*
X230179523Y-120681904D01*
X230274761Y-120777142D01*
X230322380Y-120920000D01*
X230322380Y-121158095D01*
X201723809Y-103592380D02*
X202342857Y-103592380D01*
X202009523Y-103973333D01*
X202152380Y-103973333D01*
X202247619Y-104020952D01*
X202295238Y-104068571D01*
X202342857Y-104163809D01*
X202342857Y-104401904D01*
X202295238Y-104497142D01*
X202247619Y-104544761D01*
X202152380Y-104592380D01*
X201866666Y-104592380D01*
X201771428Y-104544761D01*
X201723809Y-104497142D01*
X202771428Y-104497142D02*
X202819047Y-104544761D01*
X202771428Y-104592380D01*
X202723809Y-104544761D01*
X202771428Y-104497142D01*
X202771428Y-104592380D01*
X203152380Y-103592380D02*
X203771428Y-103592380D01*
X203438095Y-103973333D01*
X203580952Y-103973333D01*
X203676190Y-104020952D01*
X203723809Y-104068571D01*
X203771428Y-104163809D01*
X203771428Y-104401904D01*
X203723809Y-104497142D01*
X203676190Y-104544761D01*
X203580952Y-104592380D01*
X203295238Y-104592380D01*
X203200000Y-104544761D01*
X203152380Y-104497142D01*
X204057142Y-103592380D02*
X204390476Y-104592380D01*
X204723809Y-103592380D01*
X220162380Y-123134285D02*
X219162380Y-123134285D01*
X219162380Y-122753333D01*
X219210000Y-122658095D01*
X219257619Y-122610476D01*
X219352857Y-122562857D01*
X219495714Y-122562857D01*
X219590952Y-122610476D01*
X219638571Y-122658095D01*
X219686190Y-122753333D01*
X219686190Y-123134285D01*
X220162380Y-121610476D02*
X220162380Y-122181904D01*
X220162380Y-121896190D02*
X219162380Y-121896190D01*
X219305238Y-121991428D01*
X219400476Y-122086666D01*
X219448095Y-122181904D01*
X219257619Y-121229523D02*
X219210000Y-121181904D01*
X219162380Y-121086666D01*
X219162380Y-120848571D01*
X219210000Y-120753333D01*
X219257619Y-120705714D01*
X219352857Y-120658095D01*
X219448095Y-120658095D01*
X219590952Y-120705714D01*
X220162380Y-121277142D01*
X220162380Y-120658095D01*
X225242380Y-123134285D02*
X224242380Y-123134285D01*
X224242380Y-122753333D01*
X224290000Y-122658095D01*
X224337619Y-122610476D01*
X224432857Y-122562857D01*
X224575714Y-122562857D01*
X224670952Y-122610476D01*
X224718571Y-122658095D01*
X224766190Y-122753333D01*
X224766190Y-123134285D01*
X225242380Y-121610476D02*
X225242380Y-122181904D01*
X225242380Y-121896190D02*
X224242380Y-121896190D01*
X224385238Y-121991428D01*
X224480476Y-122086666D01*
X224528095Y-122181904D01*
X224670952Y-121039047D02*
X224623333Y-121134285D01*
X224575714Y-121181904D01*
X224480476Y-121229523D01*
X224432857Y-121229523D01*
X224337619Y-121181904D01*
X224290000Y-121134285D01*
X224242380Y-121039047D01*
X224242380Y-120848571D01*
X224290000Y-120753333D01*
X224337619Y-120705714D01*
X224432857Y-120658095D01*
X224480476Y-120658095D01*
X224575714Y-120705714D01*
X224623333Y-120753333D01*
X224670952Y-120848571D01*
X224670952Y-121039047D01*
X224718571Y-121134285D01*
X224766190Y-121181904D01*
X224861428Y-121229523D01*
X225051904Y-121229523D01*
X225147142Y-121181904D01*
X225194761Y-121134285D01*
X225242380Y-121039047D01*
X225242380Y-120848571D01*
X225194761Y-120753333D01*
X225147142Y-120705714D01*
X225051904Y-120658095D01*
X224861428Y-120658095D01*
X224766190Y-120705714D01*
X224718571Y-120753333D01*
X224670952Y-120848571D01*
X222956380Y-123134285D02*
X221956380Y-123134285D01*
X221956380Y-122753333D01*
X222004000Y-122658095D01*
X222051619Y-122610476D01*
X222146857Y-122562857D01*
X222289714Y-122562857D01*
X222384952Y-122610476D01*
X222432571Y-122658095D01*
X222480190Y-122753333D01*
X222480190Y-123134285D01*
X222051619Y-122181904D02*
X222004000Y-122134285D01*
X221956380Y-122039047D01*
X221956380Y-121800952D01*
X222004000Y-121705714D01*
X222051619Y-121658095D01*
X222146857Y-121610476D01*
X222242095Y-121610476D01*
X222384952Y-121658095D01*
X222956380Y-122229523D01*
X222956380Y-121610476D01*
X221956380Y-120753333D02*
X221956380Y-120943809D01*
X222004000Y-121039047D01*
X222051619Y-121086666D01*
X222194476Y-121181904D01*
X222384952Y-121229523D01*
X222765904Y-121229523D01*
X222861142Y-121181904D01*
X222908761Y-121134285D01*
X222956380Y-121039047D01*
X222956380Y-120848571D01*
X222908761Y-120753333D01*
X222861142Y-120705714D01*
X222765904Y-120658095D01*
X222527809Y-120658095D01*
X222432571Y-120705714D01*
X222384952Y-120753333D01*
X222337333Y-120848571D01*
X222337333Y-121039047D01*
X222384952Y-121134285D01*
X222432571Y-121181904D01*
X222527809Y-121229523D01*
X206462380Y-110021428D02*
X207271904Y-110021428D01*
X207367142Y-109973809D01*
X207414761Y-109926190D01*
X207462380Y-109830952D01*
X207462380Y-109640476D01*
X207414761Y-109545238D01*
X207367142Y-109497619D01*
X207271904Y-109450000D01*
X206462380Y-109450000D01*
X207176666Y-109021428D02*
X207176666Y-108545238D01*
X207462380Y-109116666D02*
X206462380Y-108783333D01*
X207462380Y-108450000D01*
X207462380Y-107545238D02*
X206986190Y-107878571D01*
X207462380Y-108116666D02*
X206462380Y-108116666D01*
X206462380Y-107735714D01*
X206510000Y-107640476D01*
X206557619Y-107592857D01*
X206652857Y-107545238D01*
X206795714Y-107545238D01*
X206890952Y-107592857D01*
X206938571Y-107640476D01*
X206986190Y-107735714D01*
X206986190Y-108116666D01*
X206462380Y-107259523D02*
X206462380Y-106688095D01*
X207462380Y-106973809D02*
X206462380Y-106973809D01*
X206557619Y-106402380D02*
X206510000Y-106354761D01*
X206462380Y-106259523D01*
X206462380Y-106021428D01*
X206510000Y-105926190D01*
X206557619Y-105878571D01*
X206652857Y-105830952D01*
X206748095Y-105830952D01*
X206890952Y-105878571D01*
X207462380Y-106450000D01*
X207462380Y-105830952D01*
X226830000Y-122681904D02*
X226782380Y-122777142D01*
X226782380Y-122920000D01*
X226830000Y-123062857D01*
X226925238Y-123158095D01*
X227020476Y-123205714D01*
X227210952Y-123253333D01*
X227353809Y-123253333D01*
X227544285Y-123205714D01*
X227639523Y-123158095D01*
X227734761Y-123062857D01*
X227782380Y-122920000D01*
X227782380Y-122824761D01*
X227734761Y-122681904D01*
X227687142Y-122634285D01*
X227353809Y-122634285D01*
X227353809Y-122824761D01*
X227782380Y-122205714D02*
X226782380Y-122205714D01*
X227782380Y-121634285D01*
X226782380Y-121634285D01*
X227782380Y-121158095D02*
X226782380Y-121158095D01*
X226782380Y-120920000D01*
X226830000Y-120777142D01*
X226925238Y-120681904D01*
X227020476Y-120634285D01*
X227210952Y-120586666D01*
X227353809Y-120586666D01*
X227544285Y-120634285D01*
X227639523Y-120681904D01*
X227734761Y-120777142D01*
X227782380Y-120920000D01*
X227782380Y-121158095D01*
X229322380Y-134072095D02*
X229322380Y-133453047D01*
X229703333Y-133786380D01*
X229703333Y-133643523D01*
X229750952Y-133548285D01*
X229798571Y-133500666D01*
X229893809Y-133453047D01*
X230131904Y-133453047D01*
X230227142Y-133500666D01*
X230274761Y-133548285D01*
X230322380Y-133643523D01*
X230322380Y-133929238D01*
X230274761Y-134024476D01*
X230227142Y-134072095D01*
X229322380Y-133119714D02*
X229322380Y-132500666D01*
X229703333Y-132834000D01*
X229703333Y-132691142D01*
X229750952Y-132595904D01*
X229798571Y-132548285D01*
X229893809Y-132500666D01*
X230131904Y-132500666D01*
X230227142Y-132548285D01*
X230274761Y-132595904D01*
X230322380Y-132691142D01*
X230322380Y-132976857D01*
X230274761Y-133072095D01*
X230227142Y-133119714D01*
X229322380Y-132214952D02*
X230322380Y-131881619D01*
X229322380Y-131548285D01*
X229798571Y-130881619D02*
X229846190Y-130738761D01*
X229893809Y-130691142D01*
X229989047Y-130643523D01*
X230131904Y-130643523D01*
X230227142Y-130691142D01*
X230274761Y-130738761D01*
X230322380Y-130834000D01*
X230322380Y-131214952D01*
X229322380Y-131214952D01*
X229322380Y-130881619D01*
X229370000Y-130786380D01*
X229417619Y-130738761D01*
X229512857Y-130691142D01*
X229608095Y-130691142D01*
X229703333Y-130738761D01*
X229750952Y-130786380D01*
X229798571Y-130881619D01*
X229798571Y-131214952D01*
X224242380Y-132699047D02*
X224242380Y-133175238D01*
X224718571Y-133222857D01*
X224670952Y-133175238D01*
X224623333Y-133080000D01*
X224623333Y-132841904D01*
X224670952Y-132746666D01*
X224718571Y-132699047D01*
X224813809Y-132651428D01*
X225051904Y-132651428D01*
X225147142Y-132699047D01*
X225194761Y-132746666D01*
X225242380Y-132841904D01*
X225242380Y-133080000D01*
X225194761Y-133175238D01*
X225147142Y-133222857D01*
X224242380Y-132365714D02*
X225242380Y-132032380D01*
X224242380Y-131699047D01*
X224956666Y-131413333D02*
X224956666Y-130937142D01*
X225242380Y-131508571D02*
X224242380Y-131175238D01*
X225242380Y-130841904D01*
X220162380Y-132699047D02*
X220162380Y-133270476D01*
X220162380Y-132984761D02*
X219162380Y-132984761D01*
X219305238Y-133080000D01*
X219400476Y-133175238D01*
X219448095Y-133270476D01*
X219162380Y-132080000D02*
X219162380Y-131984761D01*
X219210000Y-131889523D01*
X219257619Y-131841904D01*
X219352857Y-131794285D01*
X219543333Y-131746666D01*
X219781428Y-131746666D01*
X219971904Y-131794285D01*
X220067142Y-131841904D01*
X220114761Y-131889523D01*
X220162380Y-131984761D01*
X220162380Y-132080000D01*
X220114761Y-132175238D01*
X220067142Y-132222857D01*
X219971904Y-132270476D01*
X219781428Y-132318095D01*
X219543333Y-132318095D01*
X219352857Y-132270476D01*
X219257619Y-132222857D01*
X219210000Y-132175238D01*
X219162380Y-132080000D01*
X219162380Y-131460952D02*
X220162380Y-131127619D01*
X219162380Y-130794285D01*
X202192380Y-131532380D02*
X202192380Y-132341904D01*
X202240000Y-132437142D01*
X202287619Y-132484761D01*
X202382857Y-132532380D01*
X202573333Y-132532380D01*
X202668571Y-132484761D01*
X202716190Y-132437142D01*
X202763809Y-132341904D01*
X202763809Y-131532380D01*
X203192380Y-132484761D02*
X203335238Y-132532380D01*
X203573333Y-132532380D01*
X203668571Y-132484761D01*
X203716190Y-132437142D01*
X203763809Y-132341904D01*
X203763809Y-132246666D01*
X203716190Y-132151428D01*
X203668571Y-132103809D01*
X203573333Y-132056190D01*
X203382857Y-132008571D01*
X203287619Y-131960952D01*
X203240000Y-131913333D01*
X203192380Y-131818095D01*
X203192380Y-131722857D01*
X203240000Y-131627619D01*
X203287619Y-131580000D01*
X203382857Y-131532380D01*
X203620952Y-131532380D01*
X203763809Y-131580000D01*
X204525714Y-132008571D02*
X204668571Y-132056190D01*
X204716190Y-132103809D01*
X204763809Y-132199047D01*
X204763809Y-132341904D01*
X204716190Y-132437142D01*
X204668571Y-132484761D01*
X204573333Y-132532380D01*
X204192380Y-132532380D01*
X204192380Y-131532380D01*
X204525714Y-131532380D01*
X204620952Y-131580000D01*
X204668571Y-131627619D01*
X204716190Y-131722857D01*
X204716190Y-131818095D01*
X204668571Y-131913333D01*
X204620952Y-131960952D01*
X204525714Y-132008571D01*
X204192380Y-132008571D01*
X205954285Y-132532380D02*
X205954285Y-131532380D01*
X205954285Y-132008571D02*
X206525714Y-132008571D01*
X206525714Y-132532380D02*
X206525714Y-131532380D01*
X207192380Y-131532380D02*
X207382857Y-131532380D01*
X207478095Y-131580000D01*
X207573333Y-131675238D01*
X207620952Y-131865714D01*
X207620952Y-132199047D01*
X207573333Y-132389523D01*
X207478095Y-132484761D01*
X207382857Y-132532380D01*
X207192380Y-132532380D01*
X207097142Y-132484761D01*
X207001904Y-132389523D01*
X206954285Y-132199047D01*
X206954285Y-131865714D01*
X207001904Y-131675238D01*
X207097142Y-131580000D01*
X207192380Y-131532380D01*
X208001904Y-132484761D02*
X208144761Y-132532380D01*
X208382857Y-132532380D01*
X208478095Y-132484761D01*
X208525714Y-132437142D01*
X208573333Y-132341904D01*
X208573333Y-132246666D01*
X208525714Y-132151428D01*
X208478095Y-132103809D01*
X208382857Y-132056190D01*
X208192380Y-132008571D01*
X208097142Y-131960952D01*
X208049523Y-131913333D01*
X208001904Y-131818095D01*
X208001904Y-131722857D01*
X208049523Y-131627619D01*
X208097142Y-131580000D01*
X208192380Y-131532380D01*
X208430476Y-131532380D01*
X208573333Y-131580000D01*
X208859047Y-131532380D02*
X209430476Y-131532380D01*
X209144761Y-132532380D02*
X209144761Y-131532380D01*
X245880000Y-120141904D02*
X245832380Y-120237142D01*
X245832380Y-120380000D01*
X245880000Y-120522857D01*
X245975238Y-120618095D01*
X246070476Y-120665714D01*
X246260952Y-120713333D01*
X246403809Y-120713333D01*
X246594285Y-120665714D01*
X246689523Y-120618095D01*
X246784761Y-120522857D01*
X246832380Y-120380000D01*
X246832380Y-120284761D01*
X246784761Y-120141904D01*
X246737142Y-120094285D01*
X246403809Y-120094285D01*
X246403809Y-120284761D01*
X246832380Y-119665714D02*
X245832380Y-119665714D01*
X246832380Y-119094285D01*
X245832380Y-119094285D01*
X246832380Y-118618095D02*
X245832380Y-118618095D01*
X245832380Y-118380000D01*
X245880000Y-118237142D01*
X245975238Y-118141904D01*
X246070476Y-118094285D01*
X246260952Y-118046666D01*
X246403809Y-118046666D01*
X246594285Y-118094285D01*
X246689523Y-118141904D01*
X246784761Y-118237142D01*
X246832380Y-118380000D01*
X246832380Y-118618095D01*
X241752380Y-119999047D02*
X241752380Y-120570476D01*
X241752380Y-120284761D02*
X240752380Y-120284761D01*
X240895238Y-120380000D01*
X240990476Y-120475238D01*
X241038095Y-120570476D01*
X240752380Y-119094285D02*
X240752380Y-119570476D01*
X241228571Y-119618095D01*
X241180952Y-119570476D01*
X241133333Y-119475238D01*
X241133333Y-119237142D01*
X241180952Y-119141904D01*
X241228571Y-119094285D01*
X241323809Y-119046666D01*
X241561904Y-119046666D01*
X241657142Y-119094285D01*
X241704761Y-119141904D01*
X241752380Y-119237142D01*
X241752380Y-119475238D01*
X241704761Y-119570476D01*
X241657142Y-119618095D01*
X240752380Y-118760952D02*
X241752380Y-118427619D01*
X240752380Y-118094285D01*
D12*
X251856761Y-54116619D02*
X249856761Y-54116619D01*
X249856761Y-53354714D01*
X249952000Y-53164238D01*
X250047238Y-53069000D01*
X250237714Y-52973761D01*
X250523428Y-52973761D01*
X250713904Y-53069000D01*
X250809142Y-53164238D01*
X250904380Y-53354714D01*
X250904380Y-54116619D01*
X251856761Y-52116619D02*
X250523428Y-52116619D01*
X250904380Y-52116619D02*
X250713904Y-52021380D01*
X250618666Y-51926142D01*
X250523428Y-51735666D01*
X250523428Y-51545190D01*
X251856761Y-50592809D02*
X251761523Y-50783285D01*
X251666285Y-50878523D01*
X251475809Y-50973761D01*
X250904380Y-50973761D01*
X250713904Y-50878523D01*
X250618666Y-50783285D01*
X250523428Y-50592809D01*
X250523428Y-50307095D01*
X250618666Y-50116619D01*
X250713904Y-50021380D01*
X250904380Y-49926142D01*
X251475809Y-49926142D01*
X251666285Y-50021380D01*
X251761523Y-50116619D01*
X251856761Y-50307095D01*
X251856761Y-50592809D01*
X251856761Y-49069000D02*
X249856761Y-49069000D01*
X250618666Y-49069000D02*
X250523428Y-48878523D01*
X250523428Y-48497571D01*
X250618666Y-48307095D01*
X250713904Y-48211857D01*
X250904380Y-48116619D01*
X251475809Y-48116619D01*
X251666285Y-48211857D01*
X251761523Y-48307095D01*
X251856761Y-48497571D01*
X251856761Y-48878523D01*
X251761523Y-49069000D01*
X251761523Y-46497571D02*
X251856761Y-46688047D01*
X251856761Y-47069000D01*
X251761523Y-47259476D01*
X251571047Y-47354714D01*
X250809142Y-47354714D01*
X250618666Y-47259476D01*
X250523428Y-47069000D01*
X250523428Y-46688047D01*
X250618666Y-46497571D01*
X250809142Y-46402333D01*
X250999619Y-46402333D01*
X251190095Y-47354714D01*
X251666285Y-42878523D02*
X251761523Y-42973761D01*
X251856761Y-43259476D01*
X251856761Y-43449952D01*
X251761523Y-43735666D01*
X251571047Y-43926142D01*
X251380571Y-44021380D01*
X250999619Y-44116619D01*
X250713904Y-44116619D01*
X250332952Y-44021380D01*
X250142476Y-43926142D01*
X249952000Y-43735666D01*
X249856761Y-43449952D01*
X249856761Y-43259476D01*
X249952000Y-42973761D01*
X250047238Y-42878523D01*
X250523428Y-41164238D02*
X251856761Y-41164238D01*
X250523428Y-42021380D02*
X251571047Y-42021380D01*
X251761523Y-41926142D01*
X251856761Y-41735666D01*
X251856761Y-41449952D01*
X251761523Y-41259476D01*
X251666285Y-41164238D01*
X251856761Y-40211857D02*
X250523428Y-40211857D01*
X250904380Y-40211857D02*
X250713904Y-40116619D01*
X250618666Y-40021380D01*
X250523428Y-39830904D01*
X250523428Y-39640428D01*
X251856761Y-38973761D02*
X250523428Y-38973761D01*
X250904380Y-38973761D02*
X250713904Y-38878523D01*
X250618666Y-38783285D01*
X250523428Y-38592809D01*
X250523428Y-38402333D01*
X251761523Y-36973761D02*
X251856761Y-37164238D01*
X251856761Y-37545190D01*
X251761523Y-37735666D01*
X251571047Y-37830904D01*
X250809142Y-37830904D01*
X250618666Y-37735666D01*
X250523428Y-37545190D01*
X250523428Y-37164238D01*
X250618666Y-36973761D01*
X250809142Y-36878523D01*
X250999619Y-36878523D01*
X251190095Y-37830904D01*
X250523428Y-36021380D02*
X251856761Y-36021380D01*
X250713904Y-36021380D02*
X250618666Y-35926142D01*
X250523428Y-35735666D01*
X250523428Y-35449952D01*
X250618666Y-35259476D01*
X250809142Y-35164238D01*
X251856761Y-35164238D01*
X250523428Y-34497571D02*
X250523428Y-33735666D01*
X249856761Y-34211857D02*
X251571047Y-34211857D01*
X251761523Y-34116619D01*
X251856761Y-33926142D01*
X251856761Y-33735666D01*
D13*
X226139523Y-107084761D02*
X226282380Y-107132380D01*
X226520476Y-107132380D01*
X226615714Y-107084761D01*
X226663333Y-107037142D01*
X226710952Y-106941904D01*
X226710952Y-106846666D01*
X226663333Y-106751428D01*
X226615714Y-106703809D01*
X226520476Y-106656190D01*
X226330000Y-106608571D01*
X226234761Y-106560952D01*
X226187142Y-106513333D01*
X226139523Y-106418095D01*
X226139523Y-106322857D01*
X226187142Y-106227619D01*
X226234761Y-106180000D01*
X226330000Y-106132380D01*
X226568095Y-106132380D01*
X226710952Y-106180000D01*
X227710952Y-107037142D02*
X227663333Y-107084761D01*
X227520476Y-107132380D01*
X227425238Y-107132380D01*
X227282380Y-107084761D01*
X227187142Y-106989523D01*
X227139523Y-106894285D01*
X227091904Y-106703809D01*
X227091904Y-106560952D01*
X227139523Y-106370476D01*
X227187142Y-106275238D01*
X227282380Y-106180000D01*
X227425238Y-106132380D01*
X227520476Y-106132380D01*
X227663333Y-106180000D01*
X227710952Y-106227619D01*
X228615714Y-107132380D02*
X228139523Y-107132380D01*
X228139523Y-106132380D01*
X226115714Y-109624761D02*
X226258571Y-109672380D01*
X226496666Y-109672380D01*
X226591904Y-109624761D01*
X226639523Y-109577142D01*
X226687142Y-109481904D01*
X226687142Y-109386666D01*
X226639523Y-109291428D01*
X226591904Y-109243809D01*
X226496666Y-109196190D01*
X226306190Y-109148571D01*
X226210952Y-109100952D01*
X226163333Y-109053333D01*
X226115714Y-108958095D01*
X226115714Y-108862857D01*
X226163333Y-108767619D01*
X226210952Y-108720000D01*
X226306190Y-108672380D01*
X226544285Y-108672380D01*
X226687142Y-108720000D01*
X227115714Y-109672380D02*
X227115714Y-108672380D01*
X227353809Y-108672380D01*
X227496666Y-108720000D01*
X227591904Y-108815238D01*
X227639523Y-108910476D01*
X227687142Y-109100952D01*
X227687142Y-109243809D01*
X227639523Y-109434285D01*
X227591904Y-109529523D01*
X227496666Y-109624761D01*
X227353809Y-109672380D01*
X227115714Y-109672380D01*
X228068095Y-109386666D02*
X228544285Y-109386666D01*
X227972857Y-109672380D02*
X228306190Y-108672380D01*
X228639523Y-109672380D01*
X213153809Y-103592380D02*
X213772857Y-103592380D01*
X213439523Y-103973333D01*
X213582380Y-103973333D01*
X213677619Y-104020952D01*
X213725238Y-104068571D01*
X213772857Y-104163809D01*
X213772857Y-104401904D01*
X213725238Y-104497142D01*
X213677619Y-104544761D01*
X213582380Y-104592380D01*
X213296666Y-104592380D01*
X213201428Y-104544761D01*
X213153809Y-104497142D01*
X214201428Y-104497142D02*
X214249047Y-104544761D01*
X214201428Y-104592380D01*
X214153809Y-104544761D01*
X214201428Y-104497142D01*
X214201428Y-104592380D01*
X214582380Y-103592380D02*
X215201428Y-103592380D01*
X214868095Y-103973333D01*
X215010952Y-103973333D01*
X215106190Y-104020952D01*
X215153809Y-104068571D01*
X215201428Y-104163809D01*
X215201428Y-104401904D01*
X215153809Y-104497142D01*
X215106190Y-104544761D01*
X215010952Y-104592380D01*
X214725238Y-104592380D01*
X214630000Y-104544761D01*
X214582380Y-104497142D01*
X215487142Y-103592380D02*
X215820476Y-104592380D01*
X216153809Y-103592380D01*
X214463333Y-109672380D02*
X214130000Y-109196190D01*
X213891904Y-109672380D02*
X213891904Y-108672380D01*
X214272857Y-108672380D01*
X214368095Y-108720000D01*
X214415714Y-108767619D01*
X214463333Y-108862857D01*
X214463333Y-109005714D01*
X214415714Y-109100952D01*
X214368095Y-109148571D01*
X214272857Y-109196190D01*
X213891904Y-109196190D01*
X214796666Y-108672380D02*
X215463333Y-109672380D01*
X215463333Y-108672380D02*
X214796666Y-109672380D01*
X202438095Y-106132380D02*
X203009523Y-106132380D01*
X202723809Y-107132380D02*
X202723809Y-106132380D01*
X203247619Y-106132380D02*
X203914285Y-107132380D01*
X203914285Y-106132380D02*
X203247619Y-107132380D01*
X220162380Y-108926190D02*
X219162380Y-108926190D01*
X219257619Y-108497619D02*
X219210000Y-108450000D01*
X219162380Y-108354761D01*
X219162380Y-108116666D01*
X219210000Y-108021428D01*
X219257619Y-107973809D01*
X219352857Y-107926190D01*
X219448095Y-107926190D01*
X219590952Y-107973809D01*
X220162380Y-108545238D01*
X220162380Y-107926190D01*
X220067142Y-106926190D02*
X220114761Y-106973809D01*
X220162380Y-107116666D01*
X220162380Y-107211904D01*
X220114761Y-107354761D01*
X220019523Y-107450000D01*
X219924285Y-107497619D01*
X219733809Y-107545238D01*
X219590952Y-107545238D01*
X219400476Y-107497619D01*
X219305238Y-107450000D01*
X219210000Y-107354761D01*
X219162380Y-107211904D01*
X219162380Y-107116666D01*
X219210000Y-106973809D01*
X219257619Y-106926190D01*
X213868095Y-111260000D02*
X213772857Y-111212380D01*
X213630000Y-111212380D01*
X213487142Y-111260000D01*
X213391904Y-111355238D01*
X213344285Y-111450476D01*
X213296666Y-111640952D01*
X213296666Y-111783809D01*
X213344285Y-111974285D01*
X213391904Y-112069523D01*
X213487142Y-112164761D01*
X213630000Y-112212380D01*
X213725238Y-112212380D01*
X213868095Y-112164761D01*
X213915714Y-112117142D01*
X213915714Y-111783809D01*
X213725238Y-111783809D01*
X214344285Y-112212380D02*
X214344285Y-111212380D01*
X214915714Y-112212380D01*
X214915714Y-111212380D01*
X215391904Y-112212380D02*
X215391904Y-111212380D01*
X215630000Y-111212380D01*
X215772857Y-111260000D01*
X215868095Y-111355238D01*
X215915714Y-111450476D01*
X215963333Y-111640952D01*
X215963333Y-111783809D01*
X215915714Y-111974285D01*
X215868095Y-112069523D01*
X215772857Y-112164761D01*
X215630000Y-112212380D01*
X215391904Y-112212380D01*
X185443761Y-31821285D02*
X185491380Y-31678428D01*
X185491380Y-31440333D01*
X185443761Y-31345095D01*
X185396142Y-31297476D01*
X185300904Y-31249857D01*
X185205666Y-31249857D01*
X185110428Y-31297476D01*
X185062809Y-31345095D01*
X185015190Y-31440333D01*
X184967571Y-31630809D01*
X184919952Y-31726047D01*
X184872333Y-31773666D01*
X184777095Y-31821285D01*
X184681857Y-31821285D01*
X184586619Y-31773666D01*
X184539000Y-31726047D01*
X184491380Y-31630809D01*
X184491380Y-31392714D01*
X184539000Y-31249857D01*
X185491380Y-30821285D02*
X184491380Y-30821285D01*
X184491380Y-30583190D01*
X184539000Y-30440333D01*
X184634238Y-30345095D01*
X184729476Y-30297476D01*
X184919952Y-30249857D01*
X185062809Y-30249857D01*
X185253285Y-30297476D01*
X185348523Y-30345095D01*
X185443761Y-30440333D01*
X185491380Y-30583190D01*
X185491380Y-30821285D01*
X185205666Y-29868904D02*
X185205666Y-29392714D01*
X185491380Y-29964142D02*
X184491380Y-29630809D01*
X185491380Y-29297476D01*
X260754761Y-115514285D02*
X260802380Y-115371428D01*
X260802380Y-115133333D01*
X260754761Y-115038095D01*
X260707142Y-114990476D01*
X260611904Y-114942857D01*
X260516666Y-114942857D01*
X260421428Y-114990476D01*
X260373809Y-115038095D01*
X260326190Y-115133333D01*
X260278571Y-115323809D01*
X260230952Y-115419047D01*
X260183333Y-115466666D01*
X260088095Y-115514285D01*
X259992857Y-115514285D01*
X259897619Y-115466666D01*
X259850000Y-115419047D01*
X259802380Y-115323809D01*
X259802380Y-115085714D01*
X259850000Y-114942857D01*
X260802380Y-114514285D02*
X259802380Y-114514285D01*
X259802380Y-114276190D01*
X259850000Y-114133333D01*
X259945238Y-114038095D01*
X260040476Y-113990476D01*
X260230952Y-113942857D01*
X260373809Y-113942857D01*
X260564285Y-113990476D01*
X260659523Y-114038095D01*
X260754761Y-114133333D01*
X260802380Y-114276190D01*
X260802380Y-114514285D01*
X260516666Y-113561904D02*
X260516666Y-113085714D01*
X260802380Y-113657142D02*
X259802380Y-113323809D01*
X260802380Y-112990476D01*
D14*
X138541523Y-88534761D02*
X138541523Y-86534761D01*
X139684380Y-88534761D01*
X139684380Y-86534761D01*
X140636761Y-87487142D02*
X141303428Y-87487142D01*
X141589142Y-88534761D02*
X140636761Y-88534761D01*
X140636761Y-86534761D01*
X141589142Y-86534761D01*
X142255809Y-86534761D02*
X143589142Y-88534761D01*
X143589142Y-86534761D02*
X142255809Y-88534761D01*
X144065333Y-86534761D02*
X145208190Y-86534761D01*
X144636761Y-88534761D02*
X144636761Y-86534761D01*
D13*
X264882380Y-115633333D02*
X265882380Y-115300000D01*
X264882380Y-114966666D01*
X265787142Y-114061904D02*
X265834761Y-114109523D01*
X265882380Y-114252380D01*
X265882380Y-114347619D01*
X265834761Y-114490476D01*
X265739523Y-114585714D01*
X265644285Y-114633333D01*
X265453809Y-114680952D01*
X265310952Y-114680952D01*
X265120476Y-114633333D01*
X265025238Y-114585714D01*
X264930000Y-114490476D01*
X264882380Y-114347619D01*
X264882380Y-114252380D01*
X264930000Y-114109523D01*
X264977619Y-114061904D01*
X265787142Y-113061904D02*
X265834761Y-113109523D01*
X265882380Y-113252380D01*
X265882380Y-113347619D01*
X265834761Y-113490476D01*
X265739523Y-113585714D01*
X265644285Y-113633333D01*
X265453809Y-113680952D01*
X265310952Y-113680952D01*
X265120476Y-113633333D01*
X265025238Y-113585714D01*
X264930000Y-113490476D01*
X264882380Y-113347619D01*
X264882380Y-113252380D01*
X264930000Y-113109523D01*
X264977619Y-113061904D01*
D12*
X124746666Y-52244761D02*
X126080000Y-52244761D01*
X124746666Y-54244761D01*
X126080000Y-54244761D01*
X126841904Y-53482857D02*
X128365714Y-53482857D01*
X130460952Y-54054285D02*
X130365714Y-54149523D01*
X130080000Y-54244761D01*
X129889523Y-54244761D01*
X129603809Y-54149523D01*
X129413333Y-53959047D01*
X129318095Y-53768571D01*
X129222857Y-53387619D01*
X129222857Y-53101904D01*
X129318095Y-52720952D01*
X129413333Y-52530476D01*
X129603809Y-52340000D01*
X129889523Y-52244761D01*
X130080000Y-52244761D01*
X130365714Y-52340000D01*
X130460952Y-52435238D01*
X131603809Y-54244761D02*
X131413333Y-54149523D01*
X131318095Y-54054285D01*
X131222857Y-53863809D01*
X131222857Y-53292380D01*
X131318095Y-53101904D01*
X131413333Y-53006666D01*
X131603809Y-52911428D01*
X131889523Y-52911428D01*
X132080000Y-53006666D01*
X132175238Y-53101904D01*
X132270476Y-53292380D01*
X132270476Y-53863809D01*
X132175238Y-54054285D01*
X132080000Y-54149523D01*
X131889523Y-54244761D01*
X131603809Y-54244761D01*
X133127619Y-52911428D02*
X133127619Y-54244761D01*
X133127619Y-53101904D02*
X133222857Y-53006666D01*
X133413333Y-52911428D01*
X133699047Y-52911428D01*
X133889523Y-53006666D01*
X133984761Y-53197142D01*
X133984761Y-54244761D01*
X134651428Y-52911428D02*
X135413333Y-52911428D01*
X134937142Y-52244761D02*
X134937142Y-53959047D01*
X135032380Y-54149523D01*
X135222857Y-54244761D01*
X135413333Y-54244761D01*
X136080000Y-54244761D02*
X136080000Y-52911428D01*
X136080000Y-53292380D02*
X136175238Y-53101904D01*
X136270476Y-53006666D01*
X136460952Y-52911428D01*
X136651428Y-52911428D01*
X137603809Y-54244761D02*
X137413333Y-54149523D01*
X137318095Y-54054285D01*
X137222857Y-53863809D01*
X137222857Y-53292380D01*
X137318095Y-53101904D01*
X137413333Y-53006666D01*
X137603809Y-52911428D01*
X137889523Y-52911428D01*
X138080000Y-53006666D01*
X138175238Y-53101904D01*
X138270476Y-53292380D01*
X138270476Y-53863809D01*
X138175238Y-54054285D01*
X138080000Y-54149523D01*
X137889523Y-54244761D01*
X137603809Y-54244761D01*
X139413333Y-54244761D02*
X139222857Y-54149523D01*
X139127619Y-53959047D01*
X139127619Y-52244761D01*
D13*
X179538380Y-31956190D02*
X179538380Y-31337142D01*
X179919333Y-31670476D01*
X179919333Y-31527619D01*
X179966952Y-31432380D01*
X180014571Y-31384761D01*
X180109809Y-31337142D01*
X180347904Y-31337142D01*
X180443142Y-31384761D01*
X180490761Y-31432380D01*
X180538380Y-31527619D01*
X180538380Y-31813333D01*
X180490761Y-31908571D01*
X180443142Y-31956190D01*
X180443142Y-30908571D02*
X180490761Y-30860952D01*
X180538380Y-30908571D01*
X180490761Y-30956190D01*
X180443142Y-30908571D01*
X180538380Y-30908571D01*
X179538380Y-30527619D02*
X179538380Y-29908571D01*
X179919333Y-30241904D01*
X179919333Y-30099047D01*
X179966952Y-30003809D01*
X180014571Y-29956190D01*
X180109809Y-29908571D01*
X180347904Y-29908571D01*
X180443142Y-29956190D01*
X180490761Y-30003809D01*
X180538380Y-30099047D01*
X180538380Y-30384761D01*
X180490761Y-30480000D01*
X180443142Y-30527619D01*
X179538380Y-29622857D02*
X180538380Y-29289523D01*
X179538380Y-28956190D01*
X258214761Y-115490476D02*
X258262380Y-115347619D01*
X258262380Y-115109523D01*
X258214761Y-115014285D01*
X258167142Y-114966666D01*
X258071904Y-114919047D01*
X257976666Y-114919047D01*
X257881428Y-114966666D01*
X257833809Y-115014285D01*
X257786190Y-115109523D01*
X257738571Y-115300000D01*
X257690952Y-115395238D01*
X257643333Y-115442857D01*
X257548095Y-115490476D01*
X257452857Y-115490476D01*
X257357619Y-115442857D01*
X257310000Y-115395238D01*
X257262380Y-115300000D01*
X257262380Y-115061904D01*
X257310000Y-114919047D01*
X258167142Y-113919047D02*
X258214761Y-113966666D01*
X258262380Y-114109523D01*
X258262380Y-114204761D01*
X258214761Y-114347619D01*
X258119523Y-114442857D01*
X258024285Y-114490476D01*
X257833809Y-114538095D01*
X257690952Y-114538095D01*
X257500476Y-114490476D01*
X257405238Y-114442857D01*
X257310000Y-114347619D01*
X257262380Y-114204761D01*
X257262380Y-114109523D01*
X257310000Y-113966666D01*
X257357619Y-113919047D01*
X258262380Y-113014285D02*
X258262380Y-113490476D01*
X257262380Y-113490476D01*
D12*
X217869523Y-52244761D02*
X219202857Y-54244761D01*
X219202857Y-52244761D02*
X217869523Y-54244761D01*
X220345714Y-53292380D02*
X220345714Y-54244761D01*
X219679047Y-52244761D02*
X220345714Y-53292380D01*
X221012380Y-52244761D01*
X221679047Y-53482857D02*
X223202857Y-53482857D01*
X225298095Y-54054285D02*
X225202857Y-54149523D01*
X224917142Y-54244761D01*
X224726666Y-54244761D01*
X224440952Y-54149523D01*
X224250476Y-53959047D01*
X224155238Y-53768571D01*
X224060000Y-53387619D01*
X224060000Y-53101904D01*
X224155238Y-52720952D01*
X224250476Y-52530476D01*
X224440952Y-52340000D01*
X224726666Y-52244761D01*
X224917142Y-52244761D01*
X225202857Y-52340000D01*
X225298095Y-52435238D01*
X226440952Y-54244761D02*
X226250476Y-54149523D01*
X226155238Y-54054285D01*
X226060000Y-53863809D01*
X226060000Y-53292380D01*
X226155238Y-53101904D01*
X226250476Y-53006666D01*
X226440952Y-52911428D01*
X226726666Y-52911428D01*
X226917142Y-53006666D01*
X227012380Y-53101904D01*
X227107619Y-53292380D01*
X227107619Y-53863809D01*
X227012380Y-54054285D01*
X226917142Y-54149523D01*
X226726666Y-54244761D01*
X226440952Y-54244761D01*
X227964761Y-52911428D02*
X227964761Y-54244761D01*
X227964761Y-53101904D02*
X228060000Y-53006666D01*
X228250476Y-52911428D01*
X228536190Y-52911428D01*
X228726666Y-53006666D01*
X228821904Y-53197142D01*
X228821904Y-54244761D01*
X229488571Y-52911428D02*
X230250476Y-52911428D01*
X229774285Y-52244761D02*
X229774285Y-53959047D01*
X229869523Y-54149523D01*
X230060000Y-54244761D01*
X230250476Y-54244761D01*
X230917142Y-54244761D02*
X230917142Y-52911428D01*
X230917142Y-53292380D02*
X231012380Y-53101904D01*
X231107619Y-53006666D01*
X231298095Y-52911428D01*
X231488571Y-52911428D01*
X232440952Y-54244761D02*
X232250476Y-54149523D01*
X232155238Y-54054285D01*
X232060000Y-53863809D01*
X232060000Y-53292380D01*
X232155238Y-53101904D01*
X232250476Y-53006666D01*
X232440952Y-52911428D01*
X232726666Y-52911428D01*
X232917142Y-53006666D01*
X233012380Y-53101904D01*
X233107619Y-53292380D01*
X233107619Y-53863809D01*
X233012380Y-54054285D01*
X232917142Y-54149523D01*
X232726666Y-54244761D01*
X232440952Y-54244761D01*
X234250476Y-54244761D02*
X234060000Y-54149523D01*
X233964761Y-53959047D01*
X233964761Y-52244761D01*
D14*
X117475619Y-88439523D02*
X117761333Y-88534761D01*
X118237523Y-88534761D01*
X118428000Y-88439523D01*
X118523238Y-88344285D01*
X118618476Y-88153809D01*
X118618476Y-87963333D01*
X118523238Y-87772857D01*
X118428000Y-87677619D01*
X118237523Y-87582380D01*
X117856571Y-87487142D01*
X117666095Y-87391904D01*
X117570857Y-87296666D01*
X117475619Y-87106190D01*
X117475619Y-86915714D01*
X117570857Y-86725238D01*
X117666095Y-86630000D01*
X117856571Y-86534761D01*
X118332761Y-86534761D01*
X118618476Y-86630000D01*
X119475619Y-87487142D02*
X120142285Y-87487142D01*
X120428000Y-88534761D02*
X119475619Y-88534761D01*
X119475619Y-86534761D01*
X120428000Y-86534761D01*
X122237523Y-88534761D02*
X121285142Y-88534761D01*
X121285142Y-86534761D01*
X122904190Y-87487142D02*
X123570857Y-87487142D01*
X123856571Y-88534761D02*
X122904190Y-88534761D01*
X122904190Y-86534761D01*
X123856571Y-86534761D01*
X125856571Y-88344285D02*
X125761333Y-88439523D01*
X125475619Y-88534761D01*
X125285142Y-88534761D01*
X124999428Y-88439523D01*
X124808952Y-88249047D01*
X124713714Y-88058571D01*
X124618476Y-87677619D01*
X124618476Y-87391904D01*
X124713714Y-87010952D01*
X124808952Y-86820476D01*
X124999428Y-86630000D01*
X125285142Y-86534761D01*
X125475619Y-86534761D01*
X125761333Y-86630000D01*
X125856571Y-86725238D01*
X126428000Y-86534761D02*
X127570857Y-86534761D01*
X126999428Y-88534761D02*
X126999428Y-86534761D01*
D13*
X176919000Y-31368904D02*
X176871380Y-31464142D01*
X176871380Y-31607000D01*
X176919000Y-31749857D01*
X177014238Y-31845095D01*
X177109476Y-31892714D01*
X177299952Y-31940333D01*
X177442809Y-31940333D01*
X177633285Y-31892714D01*
X177728523Y-31845095D01*
X177823761Y-31749857D01*
X177871380Y-31607000D01*
X177871380Y-31511761D01*
X177823761Y-31368904D01*
X177776142Y-31321285D01*
X177442809Y-31321285D01*
X177442809Y-31511761D01*
X177871380Y-30892714D02*
X176871380Y-30892714D01*
X177871380Y-30321285D01*
X176871380Y-30321285D01*
X177871380Y-29845095D02*
X176871380Y-29845095D01*
X176871380Y-29607000D01*
X176919000Y-29464142D01*
X177014238Y-29368904D01*
X177109476Y-29321285D01*
X177299952Y-29273666D01*
X177442809Y-29273666D01*
X177633285Y-29321285D01*
X177728523Y-29368904D01*
X177823761Y-29464142D01*
X177871380Y-29607000D01*
X177871380Y-29845095D01*
X262390000Y-115061904D02*
X262342380Y-115157142D01*
X262342380Y-115300000D01*
X262390000Y-115442857D01*
X262485238Y-115538095D01*
X262580476Y-115585714D01*
X262770952Y-115633333D01*
X262913809Y-115633333D01*
X263104285Y-115585714D01*
X263199523Y-115538095D01*
X263294761Y-115442857D01*
X263342380Y-115300000D01*
X263342380Y-115204761D01*
X263294761Y-115061904D01*
X263247142Y-115014285D01*
X262913809Y-115014285D01*
X262913809Y-115204761D01*
X263342380Y-114585714D02*
X262342380Y-114585714D01*
X263342380Y-114014285D01*
X262342380Y-114014285D01*
X263342380Y-113538095D02*
X262342380Y-113538095D01*
X262342380Y-113300000D01*
X262390000Y-113157142D01*
X262485238Y-113061904D01*
X262580476Y-113014285D01*
X262770952Y-112966666D01*
X262913809Y-112966666D01*
X263104285Y-113014285D01*
X263199523Y-113061904D01*
X263294761Y-113157142D01*
X263342380Y-113300000D01*
X263342380Y-113538095D01*
X182903761Y-31797476D02*
X182951380Y-31654619D01*
X182951380Y-31416523D01*
X182903761Y-31321285D01*
X182856142Y-31273666D01*
X182760904Y-31226047D01*
X182665666Y-31226047D01*
X182570428Y-31273666D01*
X182522809Y-31321285D01*
X182475190Y-31416523D01*
X182427571Y-31607000D01*
X182379952Y-31702238D01*
X182332333Y-31749857D01*
X182237095Y-31797476D01*
X182141857Y-31797476D01*
X182046619Y-31749857D01*
X181999000Y-31702238D01*
X181951380Y-31607000D01*
X181951380Y-31368904D01*
X181999000Y-31226047D01*
X182856142Y-30226047D02*
X182903761Y-30273666D01*
X182951380Y-30416523D01*
X182951380Y-30511761D01*
X182903761Y-30654619D01*
X182808523Y-30749857D01*
X182713285Y-30797476D01*
X182522809Y-30845095D01*
X182379952Y-30845095D01*
X182189476Y-30797476D01*
X182094238Y-30749857D01*
X181999000Y-30654619D01*
X181951380Y-30511761D01*
X181951380Y-30416523D01*
X181999000Y-30273666D01*
X182046619Y-30226047D01*
X182951380Y-29321285D02*
X182951380Y-29797476D01*
X181951380Y-29797476D01*
X231910000Y-132841904D02*
X231862380Y-132937142D01*
X231862380Y-133080000D01*
X231910000Y-133222857D01*
X232005238Y-133318095D01*
X232100476Y-133365714D01*
X232290952Y-133413333D01*
X232433809Y-133413333D01*
X232624285Y-133365714D01*
X232719523Y-133318095D01*
X232814761Y-133222857D01*
X232862380Y-133080000D01*
X232862380Y-132984761D01*
X232814761Y-132841904D01*
X232767142Y-132794285D01*
X232433809Y-132794285D01*
X232433809Y-132984761D01*
X232862380Y-132365714D02*
X231862380Y-132365714D01*
X232862380Y-131794285D01*
X231862380Y-131794285D01*
X232862380Y-131318095D02*
X231862380Y-131318095D01*
X231862380Y-131080000D01*
X231910000Y-130937142D01*
X232005238Y-130841904D01*
X232100476Y-130794285D01*
X232290952Y-130746666D01*
X232433809Y-130746666D01*
X232624285Y-130794285D01*
X232719523Y-130841904D01*
X232814761Y-130937142D01*
X232862380Y-131080000D01*
X232862380Y-131318095D01*
X231910000Y-122681904D02*
X231862380Y-122777142D01*
X231862380Y-122920000D01*
X231910000Y-123062857D01*
X232005238Y-123158095D01*
X232100476Y-123205714D01*
X232290952Y-123253333D01*
X232433809Y-123253333D01*
X232624285Y-123205714D01*
X232719523Y-123158095D01*
X232814761Y-123062857D01*
X232862380Y-122920000D01*
X232862380Y-122824761D01*
X232814761Y-122681904D01*
X232767142Y-122634285D01*
X232433809Y-122634285D01*
X232433809Y-122824761D01*
X232862380Y-122205714D02*
X231862380Y-122205714D01*
X232862380Y-121634285D01*
X231862380Y-121634285D01*
X232862380Y-121158095D02*
X231862380Y-121158095D01*
X231862380Y-120920000D01*
X231910000Y-120777142D01*
X232005238Y-120681904D01*
X232100476Y-120634285D01*
X232290952Y-120586666D01*
X232433809Y-120586666D01*
X232624285Y-120634285D01*
X232719523Y-120681904D01*
X232814761Y-120777142D01*
X232862380Y-120920000D01*
X232862380Y-121158095D01*
D10*
X254000000Y-127000000D02*
X254000000Y-21590000D01*
X269240000Y-21590000D02*
X254000000Y-21590000D01*
X269240000Y-127000000D02*
X269240000Y-21590000D01*
X254000000Y-127000000D02*
X269240000Y-127000000D01*
X167259000Y-52959000D02*
X194564000Y-52959000D01*
D13*
X114990714Y-33472380D02*
X114990714Y-32472380D01*
X115371666Y-32472380D01*
X115466904Y-32520000D01*
X115514523Y-32567619D01*
X115562142Y-32662857D01*
X115562142Y-32805714D01*
X115514523Y-32900952D01*
X115466904Y-32948571D01*
X115371666Y-32996190D01*
X114990714Y-32996190D01*
X115895476Y-32472380D02*
X116514523Y-32472380D01*
X116181190Y-32853333D01*
X116324047Y-32853333D01*
X116419285Y-32900952D01*
X116466904Y-32948571D01*
X116514523Y-33043809D01*
X116514523Y-33281904D01*
X116466904Y-33377142D01*
X116419285Y-33424761D01*
X116324047Y-33472380D01*
X116038333Y-33472380D01*
X115943095Y-33424761D01*
X115895476Y-33377142D01*
X117133571Y-32472380D02*
X117228809Y-32472380D01*
X117324047Y-32520000D01*
X117371666Y-32567619D01*
X117419285Y-32662857D01*
X117466904Y-32853333D01*
X117466904Y-33091428D01*
X117419285Y-33281904D01*
X117371666Y-33377142D01*
X117324047Y-33424761D01*
X117228809Y-33472380D01*
X117133571Y-33472380D01*
X117038333Y-33424761D01*
X116990714Y-33377142D01*
X116943095Y-33281904D01*
X116895476Y-33091428D01*
X116895476Y-32853333D01*
X116943095Y-32662857D01*
X116990714Y-32567619D01*
X117038333Y-32520000D01*
X117133571Y-32472380D01*
X121340714Y-74747380D02*
X121340714Y-73747380D01*
X121721666Y-73747380D01*
X121816904Y-73795000D01*
X121864523Y-73842619D01*
X121912142Y-73937857D01*
X121912142Y-74080714D01*
X121864523Y-74175952D01*
X121816904Y-74223571D01*
X121721666Y-74271190D01*
X121340714Y-74271190D01*
X122769285Y-74080714D02*
X122769285Y-74747380D01*
X122531190Y-73699761D02*
X122293095Y-74414047D01*
X122912142Y-74414047D01*
X123816904Y-74747380D02*
X123245476Y-74747380D01*
X123531190Y-74747380D02*
X123531190Y-73747380D01*
X123435952Y-73890238D01*
X123340714Y-73985476D01*
X123245476Y-74033095D01*
X179760714Y-86812380D02*
X179760714Y-85812380D01*
X180141666Y-85812380D01*
X180236904Y-85860000D01*
X180284523Y-85907619D01*
X180332142Y-86002857D01*
X180332142Y-86145714D01*
X180284523Y-86240952D01*
X180236904Y-86288571D01*
X180141666Y-86336190D01*
X179760714Y-86336190D01*
X181189285Y-86145714D02*
X181189285Y-86812380D01*
X180951190Y-85764761D02*
X180713095Y-86479047D01*
X181332142Y-86479047D01*
X181903571Y-85812380D02*
X181998809Y-85812380D01*
X182094047Y-85860000D01*
X182141666Y-85907619D01*
X182189285Y-86002857D01*
X182236904Y-86193333D01*
X182236904Y-86431428D01*
X182189285Y-86621904D01*
X182141666Y-86717142D01*
X182094047Y-86764761D01*
X181998809Y-86812380D01*
X181903571Y-86812380D01*
X181808333Y-86764761D01*
X181760714Y-86717142D01*
X181713095Y-86621904D01*
X181665476Y-86431428D01*
X181665476Y-86193333D01*
X181713095Y-86002857D01*
X181760714Y-85907619D01*
X181808333Y-85860000D01*
X181903571Y-85812380D01*
X224202857Y-26122380D02*
X224869523Y-27122380D01*
X224869523Y-26122380D02*
X224202857Y-27122380D01*
X225250476Y-27027142D02*
X225298095Y-27074761D01*
X225250476Y-27122380D01*
X225202857Y-27074761D01*
X225250476Y-27027142D01*
X225250476Y-27122380D01*
X225250476Y-26503333D02*
X225298095Y-26550952D01*
X225250476Y-26598571D01*
X225202857Y-26550952D01*
X225250476Y-26503333D01*
X225250476Y-26598571D01*
X226440952Y-26836666D02*
X226917142Y-26836666D01*
X226345714Y-27122380D02*
X226679047Y-26122380D01*
X227012380Y-27122380D01*
X227393333Y-27122380D02*
X227583809Y-27122380D01*
X227679047Y-27074761D01*
X227726666Y-27027142D01*
X227821904Y-26884285D01*
X227869523Y-26693809D01*
X227869523Y-26312857D01*
X227821904Y-26217619D01*
X227774285Y-26170000D01*
X227679047Y-26122380D01*
X227488571Y-26122380D01*
X227393333Y-26170000D01*
X227345714Y-26217619D01*
X227298095Y-26312857D01*
X227298095Y-26550952D01*
X227345714Y-26646190D01*
X227393333Y-26693809D01*
X227488571Y-26741428D01*
X227679047Y-26741428D01*
X227774285Y-26693809D01*
X227821904Y-26646190D01*
X227869523Y-26550952D01*
X271359523Y-117054761D02*
X271502380Y-117102380D01*
X271740476Y-117102380D01*
X271835714Y-117054761D01*
X271883333Y-117007142D01*
X271930952Y-116911904D01*
X271930952Y-116816666D01*
X271883333Y-116721428D01*
X271835714Y-116673809D01*
X271740476Y-116626190D01*
X271550000Y-116578571D01*
X271454761Y-116530952D01*
X271407142Y-116483333D01*
X271359523Y-116388095D01*
X271359523Y-116292857D01*
X271407142Y-116197619D01*
X271454761Y-116150000D01*
X271550000Y-116102380D01*
X271788095Y-116102380D01*
X271930952Y-116150000D01*
X272359523Y-117102380D02*
X272359523Y-116102380D01*
X272597619Y-116102380D01*
X272740476Y-116150000D01*
X272835714Y-116245238D01*
X272883333Y-116340476D01*
X272930952Y-116530952D01*
X272930952Y-116673809D01*
X272883333Y-116864285D01*
X272835714Y-116959523D01*
X272740476Y-117054761D01*
X272597619Y-117102380D01*
X272359523Y-117102380D01*
X273311904Y-116816666D02*
X273788095Y-116816666D01*
X273216666Y-117102380D02*
X273550000Y-116102380D01*
X273883333Y-117102380D01*
X274740476Y-117102380D02*
X274169047Y-117102380D01*
X274454761Y-117102380D02*
X274454761Y-116102380D01*
X274359523Y-116245238D01*
X274264285Y-116340476D01*
X274169047Y-116388095D01*
X271383333Y-118704761D02*
X271526190Y-118752380D01*
X271764285Y-118752380D01*
X271859523Y-118704761D01*
X271907142Y-118657142D01*
X271954761Y-118561904D01*
X271954761Y-118466666D01*
X271907142Y-118371428D01*
X271859523Y-118323809D01*
X271764285Y-118276190D01*
X271573809Y-118228571D01*
X271478571Y-118180952D01*
X271430952Y-118133333D01*
X271383333Y-118038095D01*
X271383333Y-117942857D01*
X271430952Y-117847619D01*
X271478571Y-117800000D01*
X271573809Y-117752380D01*
X271811904Y-117752380D01*
X271954761Y-117800000D01*
X272954761Y-118657142D02*
X272907142Y-118704761D01*
X272764285Y-118752380D01*
X272669047Y-118752380D01*
X272526190Y-118704761D01*
X272430952Y-118609523D01*
X272383333Y-118514285D01*
X272335714Y-118323809D01*
X272335714Y-118180952D01*
X272383333Y-117990476D01*
X272430952Y-117895238D01*
X272526190Y-117800000D01*
X272669047Y-117752380D01*
X272764285Y-117752380D01*
X272907142Y-117800000D01*
X272954761Y-117847619D01*
X273859523Y-118752380D02*
X273383333Y-118752380D01*
X273383333Y-117752380D01*
X274716666Y-118752380D02*
X274145238Y-118752380D01*
X274430952Y-118752380D02*
X274430952Y-117752380D01*
X274335714Y-117895238D01*
X274240476Y-117990476D01*
X274145238Y-118038095D01*
X137843095Y-101417380D02*
X137271666Y-101417380D01*
X137557380Y-101417380D02*
X137557380Y-100417380D01*
X137462142Y-100560238D01*
X137366904Y-100655476D01*
X137271666Y-100703095D01*
X138462142Y-100417380D02*
X138557380Y-100417380D01*
X138652619Y-100465000D01*
X138700238Y-100512619D01*
X138747857Y-100607857D01*
X138795476Y-100798333D01*
X138795476Y-101036428D01*
X138747857Y-101226904D01*
X138700238Y-101322142D01*
X138652619Y-101369761D01*
X138557380Y-101417380D01*
X138462142Y-101417380D01*
X138366904Y-101369761D01*
X138319285Y-101322142D01*
X138271666Y-101226904D01*
X138224047Y-101036428D01*
X138224047Y-100798333D01*
X138271666Y-100607857D01*
X138319285Y-100512619D01*
X138366904Y-100465000D01*
X138462142Y-100417380D01*
X139081190Y-100417380D02*
X139414523Y-101417380D01*
X139747857Y-100417380D01*
X140081190Y-101417380D02*
X140081190Y-100417380D01*
X140414523Y-101131666D01*
X140747857Y-100417380D01*
X140747857Y-101417380D01*
X141414523Y-100417380D02*
X141605000Y-100417380D01*
X141700238Y-100465000D01*
X141795476Y-100560238D01*
X141843095Y-100750714D01*
X141843095Y-101084047D01*
X141795476Y-101274523D01*
X141700238Y-101369761D01*
X141605000Y-101417380D01*
X141414523Y-101417380D01*
X141319285Y-101369761D01*
X141224047Y-101274523D01*
X141176428Y-101084047D01*
X141176428Y-100750714D01*
X141224047Y-100560238D01*
X141319285Y-100465000D01*
X141414523Y-100417380D01*
X142271666Y-101417380D02*
X142271666Y-100417380D01*
X142843095Y-101417380D01*
X142843095Y-100417380D01*
X143319285Y-101322142D02*
X143366904Y-101369761D01*
X143319285Y-101417380D01*
X143271666Y-101369761D01*
X143319285Y-101322142D01*
X143319285Y-101417380D01*
X143319285Y-100798333D02*
X143366904Y-100845952D01*
X143319285Y-100893571D01*
X143271666Y-100845952D01*
X143319285Y-100798333D01*
X143319285Y-100893571D01*
X144509761Y-101131666D02*
X144985952Y-101131666D01*
X144414523Y-101417380D02*
X144747857Y-100417380D01*
X145081190Y-101417380D01*
X145843095Y-100417380D02*
X145652619Y-100417380D01*
X145557380Y-100465000D01*
X145509761Y-100512619D01*
X145414523Y-100655476D01*
X145366904Y-100845952D01*
X145366904Y-101226904D01*
X145414523Y-101322142D01*
X145462142Y-101369761D01*
X145557380Y-101417380D01*
X145747857Y-101417380D01*
X145843095Y-101369761D01*
X145890714Y-101322142D01*
X145938333Y-101226904D01*
X145938333Y-100988809D01*
X145890714Y-100893571D01*
X145843095Y-100845952D01*
X145747857Y-100798333D01*
X145557380Y-100798333D01*
X145462142Y-100845952D01*
X145414523Y-100893571D01*
X145366904Y-100988809D01*
X140390714Y-74747380D02*
X140390714Y-73747380D01*
X140771666Y-73747380D01*
X140866904Y-73795000D01*
X140914523Y-73842619D01*
X140962142Y-73937857D01*
X140962142Y-74080714D01*
X140914523Y-74175952D01*
X140866904Y-74223571D01*
X140771666Y-74271190D01*
X140390714Y-74271190D01*
X141295476Y-73747380D02*
X141914523Y-73747380D01*
X141581190Y-74128333D01*
X141724047Y-74128333D01*
X141819285Y-74175952D01*
X141866904Y-74223571D01*
X141914523Y-74318809D01*
X141914523Y-74556904D01*
X141866904Y-74652142D01*
X141819285Y-74699761D01*
X141724047Y-74747380D01*
X141438333Y-74747380D01*
X141343095Y-74699761D01*
X141295476Y-74652142D01*
X142247857Y-73747380D02*
X142914523Y-73747380D01*
X142485952Y-74747380D01*
X114990714Y-43632380D02*
X114990714Y-42632380D01*
X115371666Y-42632380D01*
X115466904Y-42680000D01*
X115514523Y-42727619D01*
X115562142Y-42822857D01*
X115562142Y-42965714D01*
X115514523Y-43060952D01*
X115466904Y-43108571D01*
X115371666Y-43156190D01*
X114990714Y-43156190D01*
X115895476Y-42632380D02*
X116514523Y-42632380D01*
X116181190Y-43013333D01*
X116324047Y-43013333D01*
X116419285Y-43060952D01*
X116466904Y-43108571D01*
X116514523Y-43203809D01*
X116514523Y-43441904D01*
X116466904Y-43537142D01*
X116419285Y-43584761D01*
X116324047Y-43632380D01*
X116038333Y-43632380D01*
X115943095Y-43584761D01*
X115895476Y-43537142D01*
X117466904Y-43632380D02*
X116895476Y-43632380D01*
X117181190Y-43632380D02*
X117181190Y-42632380D01*
X117085952Y-42775238D01*
X116990714Y-42870476D01*
X116895476Y-42918095D01*
X119221666Y-100417380D02*
X118745476Y-100417380D01*
X118697857Y-100893571D01*
X118745476Y-100845952D01*
X118840714Y-100798333D01*
X119078809Y-100798333D01*
X119174047Y-100845952D01*
X119221666Y-100893571D01*
X119269285Y-100988809D01*
X119269285Y-101226904D01*
X119221666Y-101322142D01*
X119174047Y-101369761D01*
X119078809Y-101417380D01*
X118840714Y-101417380D01*
X118745476Y-101369761D01*
X118697857Y-101322142D01*
X119555000Y-100417380D02*
X119888333Y-101417380D01*
X120221666Y-100417380D01*
X120555000Y-101417380D02*
X120555000Y-100417380D01*
X120888333Y-101131666D01*
X121221666Y-100417380D01*
X121221666Y-101417380D01*
X121888333Y-100417380D02*
X122078809Y-100417380D01*
X122174047Y-100465000D01*
X122269285Y-100560238D01*
X122316904Y-100750714D01*
X122316904Y-101084047D01*
X122269285Y-101274523D01*
X122174047Y-101369761D01*
X122078809Y-101417380D01*
X121888333Y-101417380D01*
X121793095Y-101369761D01*
X121697857Y-101274523D01*
X121650238Y-101084047D01*
X121650238Y-100750714D01*
X121697857Y-100560238D01*
X121793095Y-100465000D01*
X121888333Y-100417380D01*
X122745476Y-101417380D02*
X122745476Y-100417380D01*
X123316904Y-101417380D01*
X123316904Y-100417380D01*
X123793095Y-101322142D02*
X123840714Y-101369761D01*
X123793095Y-101417380D01*
X123745476Y-101369761D01*
X123793095Y-101322142D01*
X123793095Y-101417380D01*
X123793095Y-100798333D02*
X123840714Y-100845952D01*
X123793095Y-100893571D01*
X123745476Y-100845952D01*
X123793095Y-100798333D01*
X123793095Y-100893571D01*
X124983571Y-101131666D02*
X125459761Y-101131666D01*
X124888333Y-101417380D02*
X125221666Y-100417380D01*
X125555000Y-101417380D01*
X125793095Y-100417380D02*
X126459761Y-100417380D01*
X126031190Y-101417380D01*
X179760714Y-74112380D02*
X179760714Y-73112380D01*
X180141666Y-73112380D01*
X180236904Y-73160000D01*
X180284523Y-73207619D01*
X180332142Y-73302857D01*
X180332142Y-73445714D01*
X180284523Y-73540952D01*
X180236904Y-73588571D01*
X180141666Y-73636190D01*
X179760714Y-73636190D01*
X180665476Y-73112380D02*
X181284523Y-73112380D01*
X180951190Y-73493333D01*
X181094047Y-73493333D01*
X181189285Y-73540952D01*
X181236904Y-73588571D01*
X181284523Y-73683809D01*
X181284523Y-73921904D01*
X181236904Y-74017142D01*
X181189285Y-74064761D01*
X181094047Y-74112380D01*
X180808333Y-74112380D01*
X180713095Y-74064761D01*
X180665476Y-74017142D01*
X182141666Y-73112380D02*
X181951190Y-73112380D01*
X181855952Y-73160000D01*
X181808333Y-73207619D01*
X181713095Y-73350476D01*
X181665476Y-73540952D01*
X181665476Y-73921904D01*
X181713095Y-74017142D01*
X181760714Y-74064761D01*
X181855952Y-74112380D01*
X182046428Y-74112380D01*
X182141666Y-74064761D01*
X182189285Y-74017142D01*
X182236904Y-73921904D01*
X182236904Y-73683809D01*
X182189285Y-73588571D01*
X182141666Y-73540952D01*
X182046428Y-73493333D01*
X181855952Y-73493333D01*
X181760714Y-73540952D01*
X181713095Y-73588571D01*
X181665476Y-73683809D01*
X237513809Y-36576190D02*
X237037619Y-36576190D01*
X238037619Y-36242857D02*
X237513809Y-36576190D01*
X238037619Y-36909523D01*
X237132857Y-37242857D02*
X237085238Y-37290476D01*
X237037619Y-37242857D01*
X237085238Y-37195238D01*
X237132857Y-37242857D01*
X237037619Y-37242857D01*
X237656666Y-37242857D02*
X237609047Y-37290476D01*
X237561428Y-37242857D01*
X237609047Y-37195238D01*
X237656666Y-37242857D01*
X237561428Y-37242857D01*
X237323333Y-38433333D02*
X237323333Y-38909523D01*
X237037619Y-38338095D02*
X238037619Y-38671428D01*
X237037619Y-39004761D01*
X237609047Y-39480952D02*
X237656666Y-39385714D01*
X237704285Y-39338095D01*
X237799523Y-39290476D01*
X237847142Y-39290476D01*
X237942380Y-39338095D01*
X237990000Y-39385714D01*
X238037619Y-39480952D01*
X238037619Y-39671428D01*
X237990000Y-39766666D01*
X237942380Y-39814285D01*
X237847142Y-39861904D01*
X237799523Y-39861904D01*
X237704285Y-39814285D01*
X237656666Y-39766666D01*
X237609047Y-39671428D01*
X237609047Y-39480952D01*
X237561428Y-39385714D01*
X237513809Y-39338095D01*
X237418571Y-39290476D01*
X237228095Y-39290476D01*
X237132857Y-39338095D01*
X237085238Y-39385714D01*
X237037619Y-39480952D01*
X237037619Y-39671428D01*
X237085238Y-39766666D01*
X237132857Y-39814285D01*
X237228095Y-39861904D01*
X237418571Y-39861904D01*
X237513809Y-39814285D01*
X237561428Y-39766666D01*
X237609047Y-39671428D01*
X179760714Y-99512380D02*
X179760714Y-98512380D01*
X180141666Y-98512380D01*
X180236904Y-98560000D01*
X180284523Y-98607619D01*
X180332142Y-98702857D01*
X180332142Y-98845714D01*
X180284523Y-98940952D01*
X180236904Y-98988571D01*
X180141666Y-99036190D01*
X179760714Y-99036190D01*
X180665476Y-98512380D02*
X181284523Y-98512380D01*
X180951190Y-98893333D01*
X181094047Y-98893333D01*
X181189285Y-98940952D01*
X181236904Y-98988571D01*
X181284523Y-99083809D01*
X181284523Y-99321904D01*
X181236904Y-99417142D01*
X181189285Y-99464761D01*
X181094047Y-99512380D01*
X180808333Y-99512380D01*
X180713095Y-99464761D01*
X180665476Y-99417142D01*
X182189285Y-98512380D02*
X181713095Y-98512380D01*
X181665476Y-98988571D01*
X181713095Y-98940952D01*
X181808333Y-98893333D01*
X182046428Y-98893333D01*
X182141666Y-98940952D01*
X182189285Y-98988571D01*
X182236904Y-99083809D01*
X182236904Y-99321904D01*
X182189285Y-99417142D01*
X182141666Y-99464761D01*
X182046428Y-99512380D01*
X181808333Y-99512380D01*
X181713095Y-99464761D01*
X181665476Y-99417142D01*
X161980714Y-86812380D02*
X161980714Y-85812380D01*
X162361666Y-85812380D01*
X162456904Y-85860000D01*
X162504523Y-85907619D01*
X162552142Y-86002857D01*
X162552142Y-86145714D01*
X162504523Y-86240952D01*
X162456904Y-86288571D01*
X162361666Y-86336190D01*
X161980714Y-86336190D01*
X163504523Y-86812380D02*
X162933095Y-86812380D01*
X163218809Y-86812380D02*
X163218809Y-85812380D01*
X163123571Y-85955238D01*
X163028333Y-86050476D01*
X162933095Y-86098095D01*
X164409285Y-85812380D02*
X163933095Y-85812380D01*
X163885476Y-86288571D01*
X163933095Y-86240952D01*
X164028333Y-86193333D01*
X164266428Y-86193333D01*
X164361666Y-86240952D01*
X164409285Y-86288571D01*
X164456904Y-86383809D01*
X164456904Y-86621904D01*
X164409285Y-86717142D01*
X164361666Y-86764761D01*
X164266428Y-86812380D01*
X164028333Y-86812380D01*
X163933095Y-86764761D01*
X163885476Y-86717142D01*
X153892857Y-100417380D02*
X154511904Y-100417380D01*
X154178571Y-100798333D01*
X154321428Y-100798333D01*
X154416666Y-100845952D01*
X154464285Y-100893571D01*
X154511904Y-100988809D01*
X154511904Y-101226904D01*
X154464285Y-101322142D01*
X154416666Y-101369761D01*
X154321428Y-101417380D01*
X154035714Y-101417380D01*
X153940476Y-101369761D01*
X153892857Y-101322142D01*
X154845238Y-100417380D02*
X155464285Y-100417380D01*
X155130952Y-100798333D01*
X155273809Y-100798333D01*
X155369047Y-100845952D01*
X155416666Y-100893571D01*
X155464285Y-100988809D01*
X155464285Y-101226904D01*
X155416666Y-101322142D01*
X155369047Y-101369761D01*
X155273809Y-101417380D01*
X154988095Y-101417380D01*
X154892857Y-101369761D01*
X154845238Y-101322142D01*
X155750000Y-100417380D02*
X156083333Y-101417380D01*
X156416666Y-100417380D01*
X156750000Y-101417380D02*
X156750000Y-100417380D01*
X157083333Y-101131666D01*
X157416666Y-100417380D01*
X157416666Y-101417380D01*
X158083333Y-100417380D02*
X158273809Y-100417380D01*
X158369047Y-100465000D01*
X158464285Y-100560238D01*
X158511904Y-100750714D01*
X158511904Y-101084047D01*
X158464285Y-101274523D01*
X158369047Y-101369761D01*
X158273809Y-101417380D01*
X158083333Y-101417380D01*
X157988095Y-101369761D01*
X157892857Y-101274523D01*
X157845238Y-101084047D01*
X157845238Y-100750714D01*
X157892857Y-100560238D01*
X157988095Y-100465000D01*
X158083333Y-100417380D01*
X158940476Y-101417380D02*
X158940476Y-100417380D01*
X159511904Y-101417380D01*
X159511904Y-100417380D01*
X159988095Y-101322142D02*
X160035714Y-101369761D01*
X159988095Y-101417380D01*
X159940476Y-101369761D01*
X159988095Y-101322142D01*
X159988095Y-101417380D01*
X159988095Y-100798333D02*
X160035714Y-100845952D01*
X159988095Y-100893571D01*
X159940476Y-100845952D01*
X159988095Y-100798333D01*
X159988095Y-100893571D01*
X161178571Y-101131666D02*
X161654761Y-101131666D01*
X161083333Y-101417380D02*
X161416666Y-100417380D01*
X161750000Y-101417380D01*
X162607142Y-101417380D02*
X162035714Y-101417380D01*
X162321428Y-101417380D02*
X162321428Y-100417380D01*
X162226190Y-100560238D01*
X162130952Y-100655476D01*
X162035714Y-100703095D01*
X163083333Y-101417380D02*
X163273809Y-101417380D01*
X163369047Y-101369761D01*
X163416666Y-101322142D01*
X163511904Y-101179285D01*
X163559523Y-100988809D01*
X163559523Y-100607857D01*
X163511904Y-100512619D01*
X163464285Y-100465000D01*
X163369047Y-100417380D01*
X163178571Y-100417380D01*
X163083333Y-100465000D01*
X163035714Y-100512619D01*
X162988095Y-100607857D01*
X162988095Y-100845952D01*
X163035714Y-100941190D01*
X163083333Y-100988809D01*
X163178571Y-101036428D01*
X163369047Y-101036428D01*
X163464285Y-100988809D01*
X163511904Y-100941190D01*
X163559523Y-100845952D01*
X161885523Y-26884761D02*
X162028380Y-26932380D01*
X162266476Y-26932380D01*
X162361714Y-26884761D01*
X162409333Y-26837142D01*
X162456952Y-26741904D01*
X162456952Y-26646666D01*
X162409333Y-26551428D01*
X162361714Y-26503809D01*
X162266476Y-26456190D01*
X162076000Y-26408571D01*
X161980761Y-26360952D01*
X161933142Y-26313333D01*
X161885523Y-26218095D01*
X161885523Y-26122857D01*
X161933142Y-26027619D01*
X161980761Y-25980000D01*
X162076000Y-25932380D01*
X162314095Y-25932380D01*
X162456952Y-25980000D01*
X162885523Y-26932380D02*
X162885523Y-25932380D01*
X163123619Y-25932380D01*
X163266476Y-25980000D01*
X163361714Y-26075238D01*
X163409333Y-26170476D01*
X163456952Y-26360952D01*
X163456952Y-26503809D01*
X163409333Y-26694285D01*
X163361714Y-26789523D01*
X163266476Y-26884761D01*
X163123619Y-26932380D01*
X162885523Y-26932380D01*
X163837904Y-26646666D02*
X164314095Y-26646666D01*
X163742666Y-26932380D02*
X164076000Y-25932380D01*
X164409333Y-26932380D01*
X165266476Y-26932380D02*
X164695047Y-26932380D01*
X164980761Y-26932380D02*
X164980761Y-25932380D01*
X164885523Y-26075238D01*
X164790285Y-26170476D01*
X164695047Y-26218095D01*
X161909333Y-28534761D02*
X162052190Y-28582380D01*
X162290285Y-28582380D01*
X162385523Y-28534761D01*
X162433142Y-28487142D01*
X162480761Y-28391904D01*
X162480761Y-28296666D01*
X162433142Y-28201428D01*
X162385523Y-28153809D01*
X162290285Y-28106190D01*
X162099809Y-28058571D01*
X162004571Y-28010952D01*
X161956952Y-27963333D01*
X161909333Y-27868095D01*
X161909333Y-27772857D01*
X161956952Y-27677619D01*
X162004571Y-27630000D01*
X162099809Y-27582380D01*
X162337904Y-27582380D01*
X162480761Y-27630000D01*
X163480761Y-28487142D02*
X163433142Y-28534761D01*
X163290285Y-28582380D01*
X163195047Y-28582380D01*
X163052190Y-28534761D01*
X162956952Y-28439523D01*
X162909333Y-28344285D01*
X162861714Y-28153809D01*
X162861714Y-28010952D01*
X162909333Y-27820476D01*
X162956952Y-27725238D01*
X163052190Y-27630000D01*
X163195047Y-27582380D01*
X163290285Y-27582380D01*
X163433142Y-27630000D01*
X163480761Y-27677619D01*
X164385523Y-28582380D02*
X163909333Y-28582380D01*
X163909333Y-27582380D01*
X165242666Y-28582380D02*
X164671238Y-28582380D01*
X164956952Y-28582380D02*
X164956952Y-27582380D01*
X164861714Y-27725238D01*
X164766476Y-27820476D01*
X164671238Y-27868095D01*
X197540714Y-86812380D02*
X197540714Y-85812380D01*
X197921666Y-85812380D01*
X198016904Y-85860000D01*
X198064523Y-85907619D01*
X198112142Y-86002857D01*
X198112142Y-86145714D01*
X198064523Y-86240952D01*
X198016904Y-86288571D01*
X197921666Y-86336190D01*
X197540714Y-86336190D01*
X199064523Y-86812380D02*
X198493095Y-86812380D01*
X198778809Y-86812380D02*
X198778809Y-85812380D01*
X198683571Y-85955238D01*
X198588333Y-86050476D01*
X198493095Y-86098095D01*
X199921666Y-86145714D02*
X199921666Y-86812380D01*
X199683571Y-85764761D02*
X199445476Y-86479047D01*
X200064523Y-86479047D01*
D10*
%TO.C,C2*%
X241269759Y-112146000D02*
X241269759Y-112776000D01*
X240954759Y-112461000D02*
X241584759Y-112461000D01*
X247696000Y-113898000D02*
X247696000Y-114702000D01*
X247656000Y-113667000D02*
X247656000Y-114933000D01*
X247616000Y-113498000D02*
X247616000Y-115102000D01*
X247576000Y-113360000D02*
X247576000Y-115240000D01*
X247536000Y-113241000D02*
X247536000Y-115359000D01*
X247496000Y-113135000D02*
X247496000Y-115465000D01*
X247456000Y-113038000D02*
X247456000Y-115562000D01*
X247416000Y-112950000D02*
X247416000Y-115650000D01*
X247376000Y-112868000D02*
X247376000Y-115732000D01*
X247336000Y-112791000D02*
X247336000Y-115809000D01*
X247296000Y-112719000D02*
X247296000Y-115881000D01*
X247256000Y-112650000D02*
X247256000Y-115950000D01*
X247216000Y-112586000D02*
X247216000Y-116014000D01*
X247176000Y-112524000D02*
X247176000Y-116076000D01*
X247136000Y-112466000D02*
X247136000Y-116134000D01*
X247096000Y-112410000D02*
X247096000Y-116190000D01*
X247056000Y-112356000D02*
X247056000Y-116244000D01*
X247016000Y-112305000D02*
X247016000Y-116295000D01*
X246976000Y-112256000D02*
X246976000Y-116344000D01*
X246936000Y-112208000D02*
X246936000Y-116392000D01*
X246896000Y-112163000D02*
X246896000Y-116437000D01*
X246856000Y-112118000D02*
X246856000Y-116482000D01*
X246816000Y-112076000D02*
X246816000Y-116524000D01*
X246776000Y-112035000D02*
X246776000Y-116565000D01*
X246736000Y-115340000D02*
X246736000Y-116605000D01*
X246736000Y-111995000D02*
X246736000Y-113260000D01*
X246696000Y-115340000D02*
X246696000Y-116643000D01*
X246696000Y-111957000D02*
X246696000Y-113260000D01*
X246656000Y-115340000D02*
X246656000Y-116680000D01*
X246656000Y-111920000D02*
X246656000Y-113260000D01*
X246616000Y-115340000D02*
X246616000Y-116716000D01*
X246616000Y-111884000D02*
X246616000Y-113260000D01*
X246576000Y-115340000D02*
X246576000Y-116750000D01*
X246576000Y-111850000D02*
X246576000Y-113260000D01*
X246536000Y-115340000D02*
X246536000Y-116784000D01*
X246536000Y-111816000D02*
X246536000Y-113260000D01*
X246496000Y-115340000D02*
X246496000Y-116816000D01*
X246496000Y-111784000D02*
X246496000Y-113260000D01*
X246456000Y-115340000D02*
X246456000Y-116848000D01*
X246456000Y-111752000D02*
X246456000Y-113260000D01*
X246416000Y-115340000D02*
X246416000Y-116878000D01*
X246416000Y-111722000D02*
X246416000Y-113260000D01*
X246376000Y-115340000D02*
X246376000Y-116907000D01*
X246376000Y-111693000D02*
X246376000Y-113260000D01*
X246336000Y-115340000D02*
X246336000Y-116936000D01*
X246336000Y-111664000D02*
X246336000Y-113260000D01*
X246296000Y-115340000D02*
X246296000Y-116964000D01*
X246296000Y-111636000D02*
X246296000Y-113260000D01*
X246256000Y-115340000D02*
X246256000Y-116990000D01*
X246256000Y-111610000D02*
X246256000Y-113260000D01*
X246216000Y-115340000D02*
X246216000Y-117016000D01*
X246216000Y-111584000D02*
X246216000Y-113260000D01*
X246176000Y-115340000D02*
X246176000Y-117042000D01*
X246176000Y-111558000D02*
X246176000Y-113260000D01*
X246136000Y-115340000D02*
X246136000Y-117066000D01*
X246136000Y-111534000D02*
X246136000Y-113260000D01*
X246096000Y-115340000D02*
X246096000Y-117090000D01*
X246096000Y-111510000D02*
X246096000Y-113260000D01*
X246056000Y-115340000D02*
X246056000Y-117112000D01*
X246056000Y-111488000D02*
X246056000Y-113260000D01*
X246016000Y-115340000D02*
X246016000Y-117134000D01*
X246016000Y-111466000D02*
X246016000Y-113260000D01*
X245976000Y-115340000D02*
X245976000Y-117156000D01*
X245976000Y-111444000D02*
X245976000Y-113260000D01*
X245936000Y-115340000D02*
X245936000Y-117176000D01*
X245936000Y-111424000D02*
X245936000Y-113260000D01*
X245896000Y-115340000D02*
X245896000Y-117196000D01*
X245896000Y-111404000D02*
X245896000Y-113260000D01*
X245856000Y-115340000D02*
X245856000Y-117216000D01*
X245856000Y-111384000D02*
X245856000Y-113260000D01*
X245816000Y-115340000D02*
X245816000Y-117234000D01*
X245816000Y-111366000D02*
X245816000Y-113260000D01*
X245776000Y-115340000D02*
X245776000Y-117252000D01*
X245776000Y-111348000D02*
X245776000Y-113260000D01*
X245736000Y-115340000D02*
X245736000Y-117270000D01*
X245736000Y-111330000D02*
X245736000Y-113260000D01*
X245696000Y-115340000D02*
X245696000Y-117286000D01*
X245696000Y-111314000D02*
X245696000Y-113260000D01*
X245656000Y-115340000D02*
X245656000Y-117302000D01*
X245656000Y-111298000D02*
X245656000Y-113260000D01*
X245616000Y-115340000D02*
X245616000Y-117318000D01*
X245616000Y-111282000D02*
X245616000Y-113260000D01*
X245576000Y-115340000D02*
X245576000Y-117333000D01*
X245576000Y-111267000D02*
X245576000Y-113260000D01*
X245536000Y-115340000D02*
X245536000Y-117347000D01*
X245536000Y-111253000D02*
X245536000Y-113260000D01*
X245496000Y-115340000D02*
X245496000Y-117361000D01*
X245496000Y-111239000D02*
X245496000Y-113260000D01*
X245456000Y-115340000D02*
X245456000Y-117374000D01*
X245456000Y-111226000D02*
X245456000Y-113260000D01*
X245416000Y-115340000D02*
X245416000Y-117386000D01*
X245416000Y-111214000D02*
X245416000Y-113260000D01*
X245376000Y-115340000D02*
X245376000Y-117398000D01*
X245376000Y-111202000D02*
X245376000Y-113260000D01*
X245336000Y-115340000D02*
X245336000Y-117410000D01*
X245336000Y-111190000D02*
X245336000Y-113260000D01*
X245296000Y-115340000D02*
X245296000Y-117421000D01*
X245296000Y-111179000D02*
X245296000Y-113260000D01*
X245256000Y-115340000D02*
X245256000Y-117431000D01*
X245256000Y-111169000D02*
X245256000Y-113260000D01*
X245216000Y-115340000D02*
X245216000Y-117441000D01*
X245216000Y-111159000D02*
X245216000Y-113260000D01*
X245176000Y-115340000D02*
X245176000Y-117450000D01*
X245176000Y-111150000D02*
X245176000Y-113260000D01*
X245135000Y-115340000D02*
X245135000Y-117459000D01*
X245135000Y-111141000D02*
X245135000Y-113260000D01*
X245095000Y-115340000D02*
X245095000Y-117467000D01*
X245095000Y-111133000D02*
X245095000Y-113260000D01*
X245055000Y-115340000D02*
X245055000Y-117475000D01*
X245055000Y-111125000D02*
X245055000Y-113260000D01*
X245015000Y-115340000D02*
X245015000Y-117482000D01*
X245015000Y-111118000D02*
X245015000Y-113260000D01*
X244975000Y-115340000D02*
X244975000Y-117489000D01*
X244975000Y-111111000D02*
X244975000Y-113260000D01*
X244935000Y-115340000D02*
X244935000Y-117495000D01*
X244935000Y-111105000D02*
X244935000Y-113260000D01*
X244895000Y-115340000D02*
X244895000Y-117501000D01*
X244895000Y-111099000D02*
X244895000Y-113260000D01*
X244855000Y-115340000D02*
X244855000Y-117506000D01*
X244855000Y-111094000D02*
X244855000Y-113260000D01*
X244815000Y-115340000D02*
X244815000Y-117511000D01*
X244815000Y-111089000D02*
X244815000Y-113260000D01*
X244775000Y-115340000D02*
X244775000Y-117515000D01*
X244775000Y-111085000D02*
X244775000Y-113260000D01*
X244735000Y-115340000D02*
X244735000Y-117518000D01*
X244735000Y-111082000D02*
X244735000Y-113260000D01*
X244695000Y-115340000D02*
X244695000Y-117522000D01*
X244695000Y-111078000D02*
X244695000Y-113260000D01*
X244655000Y-111076000D02*
X244655000Y-117524000D01*
X244615000Y-111073000D02*
X244615000Y-117527000D01*
X244575000Y-111072000D02*
X244575000Y-117528000D01*
X244535000Y-111070000D02*
X244535000Y-117530000D01*
X244495000Y-111070000D02*
X244495000Y-117530000D01*
X244455000Y-111070000D02*
X244455000Y-117530000D01*
X247725000Y-114300000D02*
G75*
G03*
X247725000Y-114300000I-3270000J0D01*
G01*
%TO.C,C1*%
X249226000Y-113784748D02*
X249226000Y-114307252D01*
X250646000Y-113784748D02*
X250646000Y-114307252D01*
%TO.C,SW1*%
X135087000Y-38098100D02*
G75*
G03*
X135087000Y-38098100I-3000000J0D01*
G01*
X134087000Y-32198100D02*
X138187000Y-32198100D01*
X138187000Y-43998100D02*
X134087000Y-43998100D01*
X130087000Y-43998100D02*
X125987000Y-43998100D01*
X130087000Y-32198100D02*
X125987000Y-32198100D01*
X125987000Y-32198100D02*
X125987000Y-43998100D01*
X124587000Y-34298100D02*
X124287000Y-33998100D01*
X124287000Y-33998100D02*
X124887000Y-33998100D01*
X124887000Y-33998100D02*
X124587000Y-34298100D01*
X138187000Y-32198100D02*
X138187000Y-34598100D01*
X138187000Y-36798100D02*
X138187000Y-39398100D01*
X138187000Y-41598100D02*
X138187000Y-43998100D01*
X132087000Y-37598100D02*
X132087000Y-38598100D01*
X131587000Y-38098100D02*
X132587000Y-38098100D01*
%TO.C,R19*%
X116915000Y-81030578D02*
X116915000Y-80513422D01*
X115495000Y-81030578D02*
X115495000Y-80513422D01*
%TO.C,R17*%
X175589000Y-81030578D02*
X175589000Y-80513422D01*
X174169000Y-81030578D02*
X174169000Y-80513422D01*
%TO.C,R16*%
X193242000Y-81157578D02*
X193242000Y-80640422D01*
X191822000Y-81157578D02*
X191822000Y-80640422D01*
D13*
%TO.C,U5*%
X230060000Y-28100000D02*
X222060000Y-28100000D01*
X222060000Y-28100000D02*
X222060000Y-30100000D01*
X230060000Y-28100000D02*
X230060000Y-30100000D01*
X236060000Y-34100000D02*
X234060000Y-34100000D01*
X236060000Y-42100000D02*
X236060000Y-34100000D01*
X234060000Y-42100000D02*
X236060000Y-42100000D01*
X233060000Y-34100000D02*
X234060000Y-34100000D01*
X233060000Y-32100000D02*
X233060000Y-34100000D01*
X230060000Y-30100000D02*
X230060000Y-31100000D01*
X233060000Y-31100000D02*
X233060000Y-32100000D01*
X230060000Y-31100000D02*
X233060000Y-31100000D01*
X219060000Y-30100000D02*
X219060000Y-33100000D01*
X220060000Y-30100000D02*
X219060000Y-30100000D01*
X222060000Y-30100000D02*
X220060000Y-30100000D01*
X219060000Y-33100000D02*
X218060000Y-33100000D01*
X230060000Y-49100000D02*
X230060000Y-43100000D01*
X222060000Y-49100000D02*
X230060000Y-49100000D01*
X222060000Y-43100000D02*
X222060000Y-49100000D01*
X221060000Y-43100000D02*
X222060000Y-43100000D01*
X233060000Y-42100000D02*
X233060000Y-43100000D01*
X234060000Y-42100000D02*
X233060000Y-42100000D01*
X230060000Y-43100000D02*
X233060000Y-43100000D01*
X219060000Y-42100000D02*
X218060000Y-42100000D01*
X219060000Y-43100000D02*
X219060000Y-42100000D01*
X218060000Y-42100000D02*
X218060000Y-33100000D01*
X219060000Y-43100000D02*
X221060000Y-43100000D01*
X228296068Y-38100000D02*
G75*
G03*
X228296068Y-38100000I-2236068J0D01*
G01*
D10*
%TO.C,R14*%
X175589000Y-93984578D02*
X175589000Y-93467422D01*
X174169000Y-93984578D02*
X174169000Y-93467422D01*
%TO.C,SW5*%
X202330000Y-81740000D02*
X202330000Y-80240000D01*
X201080000Y-77740000D02*
X196580000Y-77740000D01*
X195330000Y-80240000D02*
X195330000Y-81740000D01*
X196580000Y-84240000D02*
X201080000Y-84240000D01*
%TO.C,U7*%
X245480000Y-86700000D02*
X247930000Y-86700000D01*
X247280000Y-83480000D02*
X245480000Y-83480000D01*
%TO.C,SW8*%
X126130000Y-81740000D02*
X126130000Y-80240000D01*
X124880000Y-77740000D02*
X120380000Y-77740000D01*
X119130000Y-80240000D02*
X119130000Y-81740000D01*
X120380000Y-84240000D02*
X124880000Y-84240000D01*
%TO.C,SW4*%
X166770000Y-81740000D02*
X166770000Y-80240000D01*
X165520000Y-77740000D02*
X161020000Y-77740000D01*
X159770000Y-80240000D02*
X159770000Y-81740000D01*
X161020000Y-84240000D02*
X165520000Y-84240000D01*
%TO.C,R18*%
X135965000Y-80903578D02*
X135965000Y-80386422D01*
X134545000Y-80903578D02*
X134545000Y-80386422D01*
%TO.C,SW3*%
X184550000Y-94440000D02*
X184550000Y-92940000D01*
X183300000Y-90440000D02*
X178800000Y-90440000D01*
X177550000Y-92940000D02*
X177550000Y-94440000D01*
X178800000Y-96940000D02*
X183300000Y-96940000D01*
%TO.C,R15*%
X157682000Y-81460078D02*
X157682000Y-80942922D01*
X156262000Y-81460078D02*
X156262000Y-80942922D01*
%TO.C,SW7*%
X145180000Y-81740000D02*
X145180000Y-80240000D01*
X143930000Y-77740000D02*
X139430000Y-77740000D01*
X138180000Y-80240000D02*
X138180000Y-81740000D01*
X139430000Y-84240000D02*
X143930000Y-84240000D01*
%TO.C,SW2*%
X184550000Y-69040000D02*
X184550000Y-67540000D01*
X183300000Y-65040000D02*
X178800000Y-65040000D01*
X177550000Y-67540000D02*
X177550000Y-69040000D01*
X178800000Y-71540000D02*
X183300000Y-71540000D01*
%TO.C,U6*%
X249210000Y-80880000D02*
X243200000Y-80880000D01*
X246960000Y-74060000D02*
X243200000Y-74060000D01*
X243200000Y-80880000D02*
X243200000Y-79620000D01*
X243200000Y-74060000D02*
X243200000Y-75320000D01*
%TO.C,SW6*%
X184550000Y-81740000D02*
X184550000Y-80240000D01*
X183300000Y-77740000D02*
X178800000Y-77740000D01*
X177550000Y-80240000D02*
X177550000Y-81740000D01*
X178800000Y-84240000D02*
X183300000Y-84240000D01*
%TO.C,C3*%
X239470000Y-114316252D02*
X239470000Y-113793748D01*
X238050000Y-114316252D02*
X238050000Y-113793748D01*
%TO.C,C11*%
X241904759Y-65791000D02*
X241904759Y-66421000D01*
X241589759Y-66106000D02*
X242219759Y-66106000D01*
X248331000Y-67543000D02*
X248331000Y-68347000D01*
X248291000Y-67312000D02*
X248291000Y-68578000D01*
X248251000Y-67143000D02*
X248251000Y-68747000D01*
X248211000Y-67005000D02*
X248211000Y-68885000D01*
X248171000Y-66886000D02*
X248171000Y-69004000D01*
X248131000Y-66780000D02*
X248131000Y-69110000D01*
X248091000Y-66683000D02*
X248091000Y-69207000D01*
X248051000Y-66595000D02*
X248051000Y-69295000D01*
X248011000Y-66513000D02*
X248011000Y-69377000D01*
X247971000Y-66436000D02*
X247971000Y-69454000D01*
X247931000Y-66364000D02*
X247931000Y-69526000D01*
X247891000Y-66295000D02*
X247891000Y-69595000D01*
X247851000Y-66231000D02*
X247851000Y-69659000D01*
X247811000Y-66169000D02*
X247811000Y-69721000D01*
X247771000Y-66111000D02*
X247771000Y-69779000D01*
X247731000Y-66055000D02*
X247731000Y-69835000D01*
X247691000Y-66001000D02*
X247691000Y-69889000D01*
X247651000Y-65950000D02*
X247651000Y-69940000D01*
X247611000Y-65901000D02*
X247611000Y-69989000D01*
X247571000Y-65853000D02*
X247571000Y-70037000D01*
X247531000Y-65808000D02*
X247531000Y-70082000D01*
X247491000Y-65763000D02*
X247491000Y-70127000D01*
X247451000Y-65721000D02*
X247451000Y-70169000D01*
X247411000Y-65680000D02*
X247411000Y-70210000D01*
X247371000Y-68985000D02*
X247371000Y-70250000D01*
X247371000Y-65640000D02*
X247371000Y-66905000D01*
X247331000Y-68985000D02*
X247331000Y-70288000D01*
X247331000Y-65602000D02*
X247331000Y-66905000D01*
X247291000Y-68985000D02*
X247291000Y-70325000D01*
X247291000Y-65565000D02*
X247291000Y-66905000D01*
X247251000Y-68985000D02*
X247251000Y-70361000D01*
X247251000Y-65529000D02*
X247251000Y-66905000D01*
X247211000Y-68985000D02*
X247211000Y-70395000D01*
X247211000Y-65495000D02*
X247211000Y-66905000D01*
X247171000Y-68985000D02*
X247171000Y-70429000D01*
X247171000Y-65461000D02*
X247171000Y-66905000D01*
X247131000Y-68985000D02*
X247131000Y-70461000D01*
X247131000Y-65429000D02*
X247131000Y-66905000D01*
X247091000Y-68985000D02*
X247091000Y-70493000D01*
X247091000Y-65397000D02*
X247091000Y-66905000D01*
X247051000Y-68985000D02*
X247051000Y-70523000D01*
X247051000Y-65367000D02*
X247051000Y-66905000D01*
X247011000Y-68985000D02*
X247011000Y-70552000D01*
X247011000Y-65338000D02*
X247011000Y-66905000D01*
X246971000Y-68985000D02*
X246971000Y-70581000D01*
X246971000Y-65309000D02*
X246971000Y-66905000D01*
X246931000Y-68985000D02*
X246931000Y-70609000D01*
X246931000Y-65281000D02*
X246931000Y-66905000D01*
X246891000Y-68985000D02*
X246891000Y-70635000D01*
X246891000Y-65255000D02*
X246891000Y-66905000D01*
X246851000Y-68985000D02*
X246851000Y-70661000D01*
X246851000Y-65229000D02*
X246851000Y-66905000D01*
X246811000Y-68985000D02*
X246811000Y-70687000D01*
X246811000Y-65203000D02*
X246811000Y-66905000D01*
X246771000Y-68985000D02*
X246771000Y-70711000D01*
X246771000Y-65179000D02*
X246771000Y-66905000D01*
X246731000Y-68985000D02*
X246731000Y-70735000D01*
X246731000Y-65155000D02*
X246731000Y-66905000D01*
X246691000Y-68985000D02*
X246691000Y-70757000D01*
X246691000Y-65133000D02*
X246691000Y-66905000D01*
X246651000Y-68985000D02*
X246651000Y-70779000D01*
X246651000Y-65111000D02*
X246651000Y-66905000D01*
X246611000Y-68985000D02*
X246611000Y-70801000D01*
X246611000Y-65089000D02*
X246611000Y-66905000D01*
X246571000Y-68985000D02*
X246571000Y-70821000D01*
X246571000Y-65069000D02*
X246571000Y-66905000D01*
X246531000Y-68985000D02*
X246531000Y-70841000D01*
X246531000Y-65049000D02*
X246531000Y-66905000D01*
X246491000Y-68985000D02*
X246491000Y-70861000D01*
X246491000Y-65029000D02*
X246491000Y-66905000D01*
X246451000Y-68985000D02*
X246451000Y-70879000D01*
X246451000Y-65011000D02*
X246451000Y-66905000D01*
X246411000Y-68985000D02*
X246411000Y-70897000D01*
X246411000Y-64993000D02*
X246411000Y-66905000D01*
X246371000Y-68985000D02*
X246371000Y-70915000D01*
X246371000Y-64975000D02*
X246371000Y-66905000D01*
X246331000Y-68985000D02*
X246331000Y-70931000D01*
X246331000Y-64959000D02*
X246331000Y-66905000D01*
X246291000Y-68985000D02*
X246291000Y-70947000D01*
X246291000Y-64943000D02*
X246291000Y-66905000D01*
X246251000Y-68985000D02*
X246251000Y-70963000D01*
X246251000Y-64927000D02*
X246251000Y-66905000D01*
X246211000Y-68985000D02*
X246211000Y-70978000D01*
X246211000Y-64912000D02*
X246211000Y-66905000D01*
X246171000Y-68985000D02*
X246171000Y-70992000D01*
X246171000Y-64898000D02*
X246171000Y-66905000D01*
X246131000Y-68985000D02*
X246131000Y-71006000D01*
X246131000Y-64884000D02*
X246131000Y-66905000D01*
X246091000Y-68985000D02*
X246091000Y-71019000D01*
X246091000Y-64871000D02*
X246091000Y-66905000D01*
X246051000Y-68985000D02*
X246051000Y-71031000D01*
X246051000Y-64859000D02*
X246051000Y-66905000D01*
X246011000Y-68985000D02*
X246011000Y-71043000D01*
X246011000Y-64847000D02*
X246011000Y-66905000D01*
X245971000Y-68985000D02*
X245971000Y-71055000D01*
X245971000Y-64835000D02*
X245971000Y-66905000D01*
X245931000Y-68985000D02*
X245931000Y-71066000D01*
X245931000Y-64824000D02*
X245931000Y-66905000D01*
X245891000Y-68985000D02*
X245891000Y-71076000D01*
X245891000Y-64814000D02*
X245891000Y-66905000D01*
X245851000Y-68985000D02*
X245851000Y-71086000D01*
X245851000Y-64804000D02*
X245851000Y-66905000D01*
X245811000Y-68985000D02*
X245811000Y-71095000D01*
X245811000Y-64795000D02*
X245811000Y-66905000D01*
X245770000Y-68985000D02*
X245770000Y-71104000D01*
X245770000Y-64786000D02*
X245770000Y-66905000D01*
X245730000Y-68985000D02*
X245730000Y-71112000D01*
X245730000Y-64778000D02*
X245730000Y-66905000D01*
X245690000Y-68985000D02*
X245690000Y-71120000D01*
X245690000Y-64770000D02*
X245690000Y-66905000D01*
X245650000Y-68985000D02*
X245650000Y-71127000D01*
X245650000Y-64763000D02*
X245650000Y-66905000D01*
X245610000Y-68985000D02*
X245610000Y-71134000D01*
X245610000Y-64756000D02*
X245610000Y-66905000D01*
X245570000Y-68985000D02*
X245570000Y-71140000D01*
X245570000Y-64750000D02*
X245570000Y-66905000D01*
X245530000Y-68985000D02*
X245530000Y-71146000D01*
X245530000Y-64744000D02*
X245530000Y-66905000D01*
X245490000Y-68985000D02*
X245490000Y-71151000D01*
X245490000Y-64739000D02*
X245490000Y-66905000D01*
X245450000Y-68985000D02*
X245450000Y-71156000D01*
X245450000Y-64734000D02*
X245450000Y-66905000D01*
X245410000Y-68985000D02*
X245410000Y-71160000D01*
X245410000Y-64730000D02*
X245410000Y-66905000D01*
X245370000Y-68985000D02*
X245370000Y-71163000D01*
X245370000Y-64727000D02*
X245370000Y-66905000D01*
X245330000Y-68985000D02*
X245330000Y-71167000D01*
X245330000Y-64723000D02*
X245330000Y-66905000D01*
X245290000Y-64721000D02*
X245290000Y-71169000D01*
X245250000Y-64718000D02*
X245250000Y-71172000D01*
X245210000Y-64717000D02*
X245210000Y-71173000D01*
X245170000Y-64715000D02*
X245170000Y-71175000D01*
X245130000Y-64715000D02*
X245130000Y-71175000D01*
X245090000Y-64715000D02*
X245090000Y-71175000D01*
X248360000Y-67945000D02*
G75*
G03*
X248360000Y-67945000I-3270000J0D01*
G01*
%TO.C,C12*%
X243280000Y-85351252D02*
X243280000Y-84828748D01*
X241860000Y-85351252D02*
X241860000Y-84828748D01*
%TO.C,C9*%
X243280000Y-98051252D02*
X243280000Y-97528748D01*
X241860000Y-98051252D02*
X241860000Y-97528748D01*
%TO.C,C6*%
X249353000Y-91178748D02*
X249353000Y-91701252D01*
X250773000Y-91178748D02*
X250773000Y-91701252D01*
%TO.C,C8*%
X243280000Y-104401252D02*
X243280000Y-103878748D01*
X241860000Y-104401252D02*
X241860000Y-103878748D01*
%TO.C,C5*%
X249480000Y-97519748D02*
X249480000Y-98042252D01*
X250900000Y-97519748D02*
X250900000Y-98042252D01*
%TO.C,C4*%
X249353000Y-103878748D02*
X249353000Y-104401252D01*
X250773000Y-103878748D02*
X250773000Y-104401252D01*
%TO.C,C10*%
X243407000Y-91701252D02*
X243407000Y-91178748D01*
X241987000Y-91701252D02*
X241987000Y-91178748D01*
%TO.C,C7*%
X249353000Y-84828748D02*
X249353000Y-85351252D01*
X250773000Y-84828748D02*
X250773000Y-85351252D01*
%TO.C,J7*%
X209490000Y-102810000D02*
X210820000Y-102810000D01*
X209490000Y-104140000D02*
X209490000Y-102810000D01*
X209490000Y-105410000D02*
X212150000Y-105410000D01*
X212150000Y-105410000D02*
X212150000Y-113090000D01*
X209490000Y-105410000D02*
X209490000Y-113090000D01*
X209490000Y-113090000D02*
X212150000Y-113090000D01*
%TO.C,U4*%
X247280000Y-89830000D02*
X245480000Y-89830000D01*
X245480000Y-93050000D02*
X247930000Y-93050000D01*
%TO.C,J6*%
X222190000Y-102810000D02*
X223520000Y-102810000D01*
X222190000Y-104140000D02*
X222190000Y-102810000D01*
X222190000Y-105410000D02*
X224850000Y-105410000D01*
X224850000Y-105410000D02*
X224850000Y-113090000D01*
X222190000Y-105410000D02*
X222190000Y-113090000D01*
X222190000Y-113090000D02*
X224850000Y-113090000D01*
%TO.C,U3*%
X247280000Y-96180000D02*
X245480000Y-96180000D01*
X245480000Y-99400000D02*
X247930000Y-99400000D01*
%TO.C,U2*%
X247280000Y-102530000D02*
X245480000Y-102530000D01*
X245480000Y-105750000D02*
X247930000Y-105750000D01*
%TO.C,J1*%
X248060000Y-127000000D02*
G75*
G03*
X248060000Y-127000000I-1680000J0D01*
G01*
X238700000Y-131100000D02*
X248980000Y-131100000D01*
X238700000Y-129600000D02*
X248980000Y-129600000D01*
X238700000Y-124699000D02*
X248980000Y-124699000D01*
X238700000Y-121739000D02*
X248980000Y-121739000D01*
X238700000Y-131660000D02*
X248980000Y-131660000D01*
X238700000Y-121739000D02*
X238700000Y-131660000D01*
X248980000Y-121739000D02*
X248980000Y-131660000D01*
X247655000Y-125931000D02*
X247608000Y-125977000D01*
X245346000Y-128239000D02*
X245311000Y-128274000D01*
X247450000Y-125725000D02*
X247415000Y-125761000D01*
X245153000Y-128023000D02*
X245106000Y-128069000D01*
X238460000Y-131160000D02*
X238460000Y-131900000D01*
X238460000Y-131900000D02*
X238960000Y-131900000D01*
X241328805Y-128680253D02*
G75*
G02*
X240616000Y-128535000I-28805J1680253D01*
G01*
X239764574Y-127683042D02*
G75*
G02*
X239765000Y-126316000I1535426J683042D01*
G01*
X240616958Y-125464574D02*
G75*
G02*
X241984000Y-125465000I683042J-1535426D01*
G01*
X242835426Y-126316958D02*
G75*
G02*
X242835000Y-127684000I-1535426J-683042D01*
G01*
X241983318Y-128534756D02*
G75*
G02*
X241300000Y-128680000I-683318J1534756D01*
G01*
%TO.C,J2*%
X198060000Y-113090000D02*
X200720000Y-113090000D01*
X198060000Y-105410000D02*
X198060000Y-113090000D01*
X200720000Y-105410000D02*
X200720000Y-113090000D01*
X198060000Y-105410000D02*
X200720000Y-105410000D01*
X198060000Y-104140000D02*
X198060000Y-102810000D01*
X198060000Y-102810000D02*
X199390000Y-102810000D01*
%TO.C,J3*%
X198730000Y-124640000D02*
X203680000Y-124640000D01*
X198730000Y-124640000D02*
X198730000Y-127240000D01*
X212130000Y-124640000D02*
X212130000Y-127240000D01*
X212130000Y-124640000D02*
X207180000Y-124640000D01*
X212130000Y-130640000D02*
X198730000Y-130640000D01*
D15*
%TO.C,U1*%
G36*
X150517000Y-117803000D02*
G01*
X150263000Y-118057000D01*
X150009000Y-117676000D01*
X150263000Y-117422000D01*
X150517000Y-117803000D01*
G37*
X150517000Y-117803000D02*
X150263000Y-118057000D01*
X150009000Y-117676000D01*
X150263000Y-117422000D01*
X150517000Y-117803000D01*
G36*
X150136000Y-118184000D02*
G01*
X149882000Y-118438000D01*
X149628000Y-118057000D01*
X149882000Y-117803000D01*
X150136000Y-118184000D01*
G37*
X150136000Y-118184000D02*
X149882000Y-118438000D01*
X149628000Y-118057000D01*
X149882000Y-117803000D01*
X150136000Y-118184000D01*
G36*
X148231000Y-117422000D02*
G01*
X147977000Y-117676000D01*
X147723000Y-117295000D01*
X147977000Y-117041000D01*
X148231000Y-117422000D01*
G37*
X148231000Y-117422000D02*
X147977000Y-117676000D01*
X147723000Y-117295000D01*
X147977000Y-117041000D01*
X148231000Y-117422000D01*
G36*
X148612000Y-117930000D02*
G01*
X148358000Y-118184000D01*
X148104000Y-117803000D01*
X148358000Y-117549000D01*
X148612000Y-117930000D01*
G37*
X148612000Y-117930000D02*
X148358000Y-118184000D01*
X148104000Y-117803000D01*
X148358000Y-117549000D01*
X148612000Y-117930000D01*
G36*
X148993000Y-118438000D02*
G01*
X148739000Y-118692000D01*
X148485000Y-118311000D01*
X148739000Y-118057000D01*
X148993000Y-118438000D01*
G37*
X148993000Y-118438000D02*
X148739000Y-118692000D01*
X148485000Y-118311000D01*
X148739000Y-118057000D01*
X148993000Y-118438000D01*
G36*
X148993000Y-117549000D02*
G01*
X148739000Y-117803000D01*
X148485000Y-117422000D01*
X148739000Y-117168000D01*
X148993000Y-117549000D01*
G37*
X148993000Y-117549000D02*
X148739000Y-117803000D01*
X148485000Y-117422000D01*
X148739000Y-117168000D01*
X148993000Y-117549000D01*
G36*
X149374000Y-118057000D02*
G01*
X149120000Y-118311000D01*
X148866000Y-117930000D01*
X149120000Y-117676000D01*
X149374000Y-118057000D01*
G37*
X149374000Y-118057000D02*
X149120000Y-118311000D01*
X148866000Y-117930000D01*
X149120000Y-117676000D01*
X149374000Y-118057000D01*
G36*
X149755000Y-118565000D02*
G01*
X149501000Y-118819000D01*
X149247000Y-118438000D01*
X149501000Y-118184000D01*
X149755000Y-118565000D01*
G37*
X149755000Y-118565000D02*
X149501000Y-118819000D01*
X149247000Y-118438000D01*
X149501000Y-118184000D01*
X149755000Y-118565000D01*
D13*
X116840000Y-127000000D02*
X116840000Y-109220000D01*
X177800000Y-127000000D02*
X116840000Y-127000000D01*
X177800000Y-109220000D02*
X177800000Y-127000000D01*
X116840000Y-109220000D02*
X177800000Y-109220000D01*
X121920000Y-121920000D02*
X116840000Y-121920000D01*
X121920000Y-114300000D02*
X116840000Y-114300000D01*
X121920000Y-121920000D02*
X121920000Y-114300000D01*
X115570000Y-114300000D02*
X116840000Y-114300000D01*
X115570000Y-121920000D02*
X115570000Y-114300000D01*
X116840000Y-121920000D02*
X115570000Y-121920000D01*
X177800000Y-111760000D02*
X165100000Y-111760000D01*
X165100000Y-111760000D02*
X165100000Y-124460000D01*
X165100000Y-124460000D02*
X177800000Y-124460000D01*
X177800000Y-113030000D02*
X176530000Y-113030000D01*
X176530000Y-113030000D02*
X176530000Y-123190000D01*
X176530000Y-123190000D02*
X177800000Y-123190000D01*
X161290000Y-116840000D02*
X161290000Y-119380000D01*
X161290000Y-119380000D02*
X157480000Y-119380000D01*
X157480000Y-119380000D02*
X157480000Y-116840000D01*
X157480000Y-116840000D02*
X161290000Y-116840000D01*
X123139200Y-121409200D02*
X135839200Y-121409200D01*
X135839200Y-121409200D02*
X135839200Y-123949200D01*
X135839200Y-123949200D02*
X123139200Y-123949200D01*
X123139200Y-123949200D02*
X123139200Y-121409200D01*
X123139200Y-121409200D02*
X125679200Y-121409200D01*
X125679200Y-121409200D02*
X125679200Y-123949200D01*
X130070000Y-112008400D02*
X130070000Y-118008400D01*
X130070000Y-118008400D02*
X134070000Y-118008400D01*
X134070000Y-118008400D02*
X134070000Y-111758400D01*
X134070000Y-111758400D02*
X130070000Y-111758400D01*
X130070000Y-111758400D02*
X130070000Y-112008400D01*
X139700000Y-124460000D02*
X152400000Y-124460000D01*
X152400000Y-124460000D02*
X152400000Y-111760000D01*
X152400000Y-111760000D02*
X139700000Y-111760000D01*
X139700000Y-111760000D02*
X139700000Y-124460000D01*
X160283026Y-118110000D02*
G75*
G03*
X160283026Y-118110000I-898026J0D01*
G01*
D10*
%TO.C,R10*%
X141426000Y-97286578D02*
X141426000Y-96769422D01*
X140006000Y-97286578D02*
X140006000Y-96769422D01*
%TO.C,R11*%
X158675000Y-96769422D02*
X158675000Y-97286578D01*
X160095000Y-96769422D02*
X160095000Y-97286578D01*
%TO.C,J12*%
X266760000Y-116018000D02*
X266760000Y-117348000D01*
X265430000Y-116018000D02*
X266760000Y-116018000D01*
X264160000Y-116018000D02*
X264160000Y-118678000D01*
X264160000Y-118678000D02*
X256480000Y-118678000D01*
X264160000Y-116018000D02*
X256480000Y-116018000D01*
X256480000Y-116018000D02*
X256480000Y-118678000D01*
%TO.C,R8*%
X121995000Y-97286578D02*
X121995000Y-96769422D01*
X120575000Y-97286578D02*
X120575000Y-96769422D01*
%TO.C,R6*%
X116788000Y-36453578D02*
X116788000Y-35936422D01*
X115368000Y-36453578D02*
X115368000Y-35936422D01*
%TO.C,R13*%
X175462000Y-68711578D02*
X175462000Y-68194422D01*
X174042000Y-68711578D02*
X174042000Y-68194422D01*
%TO.C,R5*%
X116788000Y-40263578D02*
X116788000Y-39746422D01*
X115368000Y-40263578D02*
X115368000Y-39746422D01*
%TO.C,R9*%
X142165000Y-96769422D02*
X142165000Y-97286578D01*
X143585000Y-96769422D02*
X143585000Y-97286578D01*
%TO.C,R12*%
X157936000Y-97286578D02*
X157936000Y-96769422D01*
X156516000Y-97286578D02*
X156516000Y-96769422D01*
%TO.C,J13*%
X175962000Y-28381000D02*
X175962000Y-27051000D01*
X177292000Y-28381000D02*
X175962000Y-28381000D01*
X178562000Y-28381000D02*
X178562000Y-25721000D01*
X178562000Y-25721000D02*
X186242000Y-25721000D01*
X178562000Y-28381000D02*
X186242000Y-28381000D01*
X186242000Y-28381000D02*
X186242000Y-25721000D01*
%TO.C,R7*%
X122734000Y-96769422D02*
X122734000Y-97286578D01*
X124154000Y-96769422D02*
X124154000Y-97286578D01*
%TO.C,J10*%
X233740000Y-129600000D02*
X233740000Y-124400000D01*
X220980000Y-129600000D02*
X233740000Y-129600000D01*
X218380000Y-124400000D02*
X233740000Y-124400000D01*
X220980000Y-129600000D02*
X220980000Y-127000000D01*
X220980000Y-127000000D02*
X218380000Y-127000000D01*
X218380000Y-127000000D02*
X218380000Y-124400000D01*
X219710000Y-129600000D02*
X218380000Y-129600000D01*
X218380000Y-129600000D02*
X218380000Y-128270000D01*
%TO.C,C2*%
D13*
X244288333Y-110257142D02*
X244240714Y-110304761D01*
X244097857Y-110352380D01*
X244002619Y-110352380D01*
X243859761Y-110304761D01*
X243764523Y-110209523D01*
X243716904Y-110114285D01*
X243669285Y-109923809D01*
X243669285Y-109780952D01*
X243716904Y-109590476D01*
X243764523Y-109495238D01*
X243859761Y-109400000D01*
X244002619Y-109352380D01*
X244097857Y-109352380D01*
X244240714Y-109400000D01*
X244288333Y-109447619D01*
X244669285Y-109447619D02*
X244716904Y-109400000D01*
X244812142Y-109352380D01*
X245050238Y-109352380D01*
X245145476Y-109400000D01*
X245193095Y-109447619D01*
X245240714Y-109542857D01*
X245240714Y-109638095D01*
X245193095Y-109780952D01*
X244621666Y-110352380D01*
X245240714Y-110352380D01*
%TO.C,C1*%
X251943142Y-114212666D02*
X251990761Y-114260285D01*
X252038380Y-114403142D01*
X252038380Y-114498380D01*
X251990761Y-114641238D01*
X251895523Y-114736476D01*
X251800285Y-114784095D01*
X251609809Y-114831714D01*
X251466952Y-114831714D01*
X251276476Y-114784095D01*
X251181238Y-114736476D01*
X251086000Y-114641238D01*
X251038380Y-114498380D01*
X251038380Y-114403142D01*
X251086000Y-114260285D01*
X251133619Y-114212666D01*
X252038380Y-113260285D02*
X252038380Y-113831714D01*
X252038380Y-113546000D02*
X251038380Y-113546000D01*
X251181238Y-113641238D01*
X251276476Y-113736476D01*
X251324095Y-113831714D01*
%TO.C,SW1*%
X125615866Y-30402161D02*
X125758723Y-30449780D01*
X125996819Y-30449780D01*
X126092057Y-30402161D01*
X126139676Y-30354542D01*
X126187295Y-30259304D01*
X126187295Y-30164066D01*
X126139676Y-30068828D01*
X126092057Y-30021209D01*
X125996819Y-29973590D01*
X125806342Y-29925971D01*
X125711104Y-29878352D01*
X125663485Y-29830733D01*
X125615866Y-29735495D01*
X125615866Y-29640257D01*
X125663485Y-29545019D01*
X125711104Y-29497400D01*
X125806342Y-29449780D01*
X126044438Y-29449780D01*
X126187295Y-29497400D01*
X126520628Y-29449780D02*
X126758723Y-30449780D01*
X126949200Y-29735495D01*
X127139676Y-30449780D01*
X127377771Y-29449780D01*
X128282533Y-30449780D02*
X127711104Y-30449780D01*
X127996819Y-30449780D02*
X127996819Y-29449780D01*
X127901580Y-29592638D01*
X127806342Y-29687876D01*
X127711104Y-29735495D01*
%TO.C,R19*%
X115007380Y-81414857D02*
X114531190Y-81748190D01*
X115007380Y-81986285D02*
X114007380Y-81986285D01*
X114007380Y-81605333D01*
X114055000Y-81510095D01*
X114102619Y-81462476D01*
X114197857Y-81414857D01*
X114340714Y-81414857D01*
X114435952Y-81462476D01*
X114483571Y-81510095D01*
X114531190Y-81605333D01*
X114531190Y-81986285D01*
X115007380Y-80462476D02*
X115007380Y-81033904D01*
X115007380Y-80748190D02*
X114007380Y-80748190D01*
X114150238Y-80843428D01*
X114245476Y-80938666D01*
X114293095Y-81033904D01*
X115007380Y-79986285D02*
X115007380Y-79795809D01*
X114959761Y-79700571D01*
X114912142Y-79652952D01*
X114769285Y-79557714D01*
X114578809Y-79510095D01*
X114197857Y-79510095D01*
X114102619Y-79557714D01*
X114055000Y-79605333D01*
X114007380Y-79700571D01*
X114007380Y-79891047D01*
X114055000Y-79986285D01*
X114102619Y-80033904D01*
X114197857Y-80081523D01*
X114435952Y-80081523D01*
X114531190Y-80033904D01*
X114578809Y-79986285D01*
X114626428Y-79891047D01*
X114626428Y-79700571D01*
X114578809Y-79605333D01*
X114531190Y-79557714D01*
X114435952Y-79510095D01*
%TO.C,R17*%
X173681380Y-81414857D02*
X173205190Y-81748190D01*
X173681380Y-81986285D02*
X172681380Y-81986285D01*
X172681380Y-81605333D01*
X172729000Y-81510095D01*
X172776619Y-81462476D01*
X172871857Y-81414857D01*
X173014714Y-81414857D01*
X173109952Y-81462476D01*
X173157571Y-81510095D01*
X173205190Y-81605333D01*
X173205190Y-81986285D01*
X173681380Y-80462476D02*
X173681380Y-81033904D01*
X173681380Y-80748190D02*
X172681380Y-80748190D01*
X172824238Y-80843428D01*
X172919476Y-80938666D01*
X172967095Y-81033904D01*
X172681380Y-80129142D02*
X172681380Y-79462476D01*
X173681380Y-79891047D01*
%TO.C,R16*%
X191334380Y-81541857D02*
X190858190Y-81875190D01*
X191334380Y-82113285D02*
X190334380Y-82113285D01*
X190334380Y-81732333D01*
X190382000Y-81637095D01*
X190429619Y-81589476D01*
X190524857Y-81541857D01*
X190667714Y-81541857D01*
X190762952Y-81589476D01*
X190810571Y-81637095D01*
X190858190Y-81732333D01*
X190858190Y-82113285D01*
X191334380Y-80589476D02*
X191334380Y-81160904D01*
X191334380Y-80875190D02*
X190334380Y-80875190D01*
X190477238Y-80970428D01*
X190572476Y-81065666D01*
X190620095Y-81160904D01*
X190334380Y-79732333D02*
X190334380Y-79922809D01*
X190382000Y-80018047D01*
X190429619Y-80065666D01*
X190572476Y-80160904D01*
X190762952Y-80208523D01*
X191143904Y-80208523D01*
X191239142Y-80160904D01*
X191286761Y-80113285D01*
X191334380Y-80018047D01*
X191334380Y-79827571D01*
X191286761Y-79732333D01*
X191239142Y-79684714D01*
X191143904Y-79637095D01*
X190905809Y-79637095D01*
X190810571Y-79684714D01*
X190762952Y-79732333D01*
X190715333Y-79827571D01*
X190715333Y-80018047D01*
X190762952Y-80113285D01*
X190810571Y-80160904D01*
X190905809Y-80208523D01*
%TO.C,U5*%
X225298095Y-45552380D02*
X225298095Y-46361904D01*
X225345714Y-46457142D01*
X225393333Y-46504761D01*
X225488571Y-46552380D01*
X225679047Y-46552380D01*
X225774285Y-46504761D01*
X225821904Y-46457142D01*
X225869523Y-46361904D01*
X225869523Y-45552380D01*
X226821904Y-45552380D02*
X226345714Y-45552380D01*
X226298095Y-46028571D01*
X226345714Y-45980952D01*
X226440952Y-45933333D01*
X226679047Y-45933333D01*
X226774285Y-45980952D01*
X226821904Y-46028571D01*
X226869523Y-46123809D01*
X226869523Y-46361904D01*
X226821904Y-46457142D01*
X226774285Y-46504761D01*
X226679047Y-46552380D01*
X226440952Y-46552380D01*
X226345714Y-46504761D01*
X226298095Y-46457142D01*
%TO.C,R14*%
X173681380Y-94368857D02*
X173205190Y-94702190D01*
X173681380Y-94940285D02*
X172681380Y-94940285D01*
X172681380Y-94559333D01*
X172729000Y-94464095D01*
X172776619Y-94416476D01*
X172871857Y-94368857D01*
X173014714Y-94368857D01*
X173109952Y-94416476D01*
X173157571Y-94464095D01*
X173205190Y-94559333D01*
X173205190Y-94940285D01*
X173681380Y-93416476D02*
X173681380Y-93987904D01*
X173681380Y-93702190D02*
X172681380Y-93702190D01*
X172824238Y-93797428D01*
X172919476Y-93892666D01*
X172967095Y-93987904D01*
X173014714Y-92559333D02*
X173681380Y-92559333D01*
X172633761Y-92797428D02*
X173348047Y-93035523D01*
X173348047Y-92416476D01*
%TO.C,SW5*%
X197496666Y-77144761D02*
X197639523Y-77192380D01*
X197877619Y-77192380D01*
X197972857Y-77144761D01*
X198020476Y-77097142D01*
X198068095Y-77001904D01*
X198068095Y-76906666D01*
X198020476Y-76811428D01*
X197972857Y-76763809D01*
X197877619Y-76716190D01*
X197687142Y-76668571D01*
X197591904Y-76620952D01*
X197544285Y-76573333D01*
X197496666Y-76478095D01*
X197496666Y-76382857D01*
X197544285Y-76287619D01*
X197591904Y-76240000D01*
X197687142Y-76192380D01*
X197925238Y-76192380D01*
X198068095Y-76240000D01*
X198401428Y-76192380D02*
X198639523Y-77192380D01*
X198830000Y-76478095D01*
X199020476Y-77192380D01*
X199258571Y-76192380D01*
X200115714Y-76192380D02*
X199639523Y-76192380D01*
X199591904Y-76668571D01*
X199639523Y-76620952D01*
X199734761Y-76573333D01*
X199972857Y-76573333D01*
X200068095Y-76620952D01*
X200115714Y-76668571D01*
X200163333Y-76763809D01*
X200163333Y-77001904D01*
X200115714Y-77097142D01*
X200068095Y-77144761D01*
X199972857Y-77192380D01*
X199734761Y-77192380D01*
X199639523Y-77144761D01*
X199591904Y-77097142D01*
%TO.C,U7*%
X245618095Y-87442380D02*
X245618095Y-88251904D01*
X245665714Y-88347142D01*
X245713333Y-88394761D01*
X245808571Y-88442380D01*
X245999047Y-88442380D01*
X246094285Y-88394761D01*
X246141904Y-88347142D01*
X246189523Y-88251904D01*
X246189523Y-87442380D01*
X246570476Y-87442380D02*
X247237142Y-87442380D01*
X246808571Y-88442380D01*
%TO.C,SW8*%
X121296666Y-77144761D02*
X121439523Y-77192380D01*
X121677619Y-77192380D01*
X121772857Y-77144761D01*
X121820476Y-77097142D01*
X121868095Y-77001904D01*
X121868095Y-76906666D01*
X121820476Y-76811428D01*
X121772857Y-76763809D01*
X121677619Y-76716190D01*
X121487142Y-76668571D01*
X121391904Y-76620952D01*
X121344285Y-76573333D01*
X121296666Y-76478095D01*
X121296666Y-76382857D01*
X121344285Y-76287619D01*
X121391904Y-76240000D01*
X121487142Y-76192380D01*
X121725238Y-76192380D01*
X121868095Y-76240000D01*
X122201428Y-76192380D02*
X122439523Y-77192380D01*
X122630000Y-76478095D01*
X122820476Y-77192380D01*
X123058571Y-76192380D01*
X123582380Y-76620952D02*
X123487142Y-76573333D01*
X123439523Y-76525714D01*
X123391904Y-76430476D01*
X123391904Y-76382857D01*
X123439523Y-76287619D01*
X123487142Y-76240000D01*
X123582380Y-76192380D01*
X123772857Y-76192380D01*
X123868095Y-76240000D01*
X123915714Y-76287619D01*
X123963333Y-76382857D01*
X123963333Y-76430476D01*
X123915714Y-76525714D01*
X123868095Y-76573333D01*
X123772857Y-76620952D01*
X123582380Y-76620952D01*
X123487142Y-76668571D01*
X123439523Y-76716190D01*
X123391904Y-76811428D01*
X123391904Y-77001904D01*
X123439523Y-77097142D01*
X123487142Y-77144761D01*
X123582380Y-77192380D01*
X123772857Y-77192380D01*
X123868095Y-77144761D01*
X123915714Y-77097142D01*
X123963333Y-77001904D01*
X123963333Y-76811428D01*
X123915714Y-76716190D01*
X123868095Y-76668571D01*
X123772857Y-76620952D01*
%TO.C,SW4*%
X161936666Y-77144761D02*
X162079523Y-77192380D01*
X162317619Y-77192380D01*
X162412857Y-77144761D01*
X162460476Y-77097142D01*
X162508095Y-77001904D01*
X162508095Y-76906666D01*
X162460476Y-76811428D01*
X162412857Y-76763809D01*
X162317619Y-76716190D01*
X162127142Y-76668571D01*
X162031904Y-76620952D01*
X161984285Y-76573333D01*
X161936666Y-76478095D01*
X161936666Y-76382857D01*
X161984285Y-76287619D01*
X162031904Y-76240000D01*
X162127142Y-76192380D01*
X162365238Y-76192380D01*
X162508095Y-76240000D01*
X162841428Y-76192380D02*
X163079523Y-77192380D01*
X163270000Y-76478095D01*
X163460476Y-77192380D01*
X163698571Y-76192380D01*
X164508095Y-76525714D02*
X164508095Y-77192380D01*
X164270000Y-76144761D02*
X164031904Y-76859047D01*
X164650952Y-76859047D01*
%TO.C,R18*%
X134057380Y-81287857D02*
X133581190Y-81621190D01*
X134057380Y-81859285D02*
X133057380Y-81859285D01*
X133057380Y-81478333D01*
X133105000Y-81383095D01*
X133152619Y-81335476D01*
X133247857Y-81287857D01*
X133390714Y-81287857D01*
X133485952Y-81335476D01*
X133533571Y-81383095D01*
X133581190Y-81478333D01*
X133581190Y-81859285D01*
X134057380Y-80335476D02*
X134057380Y-80906904D01*
X134057380Y-80621190D02*
X133057380Y-80621190D01*
X133200238Y-80716428D01*
X133295476Y-80811666D01*
X133343095Y-80906904D01*
X133485952Y-79764047D02*
X133438333Y-79859285D01*
X133390714Y-79906904D01*
X133295476Y-79954523D01*
X133247857Y-79954523D01*
X133152619Y-79906904D01*
X133105000Y-79859285D01*
X133057380Y-79764047D01*
X133057380Y-79573571D01*
X133105000Y-79478333D01*
X133152619Y-79430714D01*
X133247857Y-79383095D01*
X133295476Y-79383095D01*
X133390714Y-79430714D01*
X133438333Y-79478333D01*
X133485952Y-79573571D01*
X133485952Y-79764047D01*
X133533571Y-79859285D01*
X133581190Y-79906904D01*
X133676428Y-79954523D01*
X133866904Y-79954523D01*
X133962142Y-79906904D01*
X134009761Y-79859285D01*
X134057380Y-79764047D01*
X134057380Y-79573571D01*
X134009761Y-79478333D01*
X133962142Y-79430714D01*
X133866904Y-79383095D01*
X133676428Y-79383095D01*
X133581190Y-79430714D01*
X133533571Y-79478333D01*
X133485952Y-79573571D01*
%TO.C,SW3*%
X179716666Y-89844761D02*
X179859523Y-89892380D01*
X180097619Y-89892380D01*
X180192857Y-89844761D01*
X180240476Y-89797142D01*
X180288095Y-89701904D01*
X180288095Y-89606666D01*
X180240476Y-89511428D01*
X180192857Y-89463809D01*
X180097619Y-89416190D01*
X179907142Y-89368571D01*
X179811904Y-89320952D01*
X179764285Y-89273333D01*
X179716666Y-89178095D01*
X179716666Y-89082857D01*
X179764285Y-88987619D01*
X179811904Y-88940000D01*
X179907142Y-88892380D01*
X180145238Y-88892380D01*
X180288095Y-88940000D01*
X180621428Y-88892380D02*
X180859523Y-89892380D01*
X181050000Y-89178095D01*
X181240476Y-89892380D01*
X181478571Y-88892380D01*
X181764285Y-88892380D02*
X182383333Y-88892380D01*
X182050000Y-89273333D01*
X182192857Y-89273333D01*
X182288095Y-89320952D01*
X182335714Y-89368571D01*
X182383333Y-89463809D01*
X182383333Y-89701904D01*
X182335714Y-89797142D01*
X182288095Y-89844761D01*
X182192857Y-89892380D01*
X181907142Y-89892380D01*
X181811904Y-89844761D01*
X181764285Y-89797142D01*
%TO.C,R15*%
X155774380Y-81844357D02*
X155298190Y-82177690D01*
X155774380Y-82415785D02*
X154774380Y-82415785D01*
X154774380Y-82034833D01*
X154822000Y-81939595D01*
X154869619Y-81891976D01*
X154964857Y-81844357D01*
X155107714Y-81844357D01*
X155202952Y-81891976D01*
X155250571Y-81939595D01*
X155298190Y-82034833D01*
X155298190Y-82415785D01*
X155774380Y-80891976D02*
X155774380Y-81463404D01*
X155774380Y-81177690D02*
X154774380Y-81177690D01*
X154917238Y-81272928D01*
X155012476Y-81368166D01*
X155060095Y-81463404D01*
X154774380Y-79987214D02*
X154774380Y-80463404D01*
X155250571Y-80511023D01*
X155202952Y-80463404D01*
X155155333Y-80368166D01*
X155155333Y-80130071D01*
X155202952Y-80034833D01*
X155250571Y-79987214D01*
X155345809Y-79939595D01*
X155583904Y-79939595D01*
X155679142Y-79987214D01*
X155726761Y-80034833D01*
X155774380Y-80130071D01*
X155774380Y-80368166D01*
X155726761Y-80463404D01*
X155679142Y-80511023D01*
%TO.C,SW7*%
X140346666Y-77144761D02*
X140489523Y-77192380D01*
X140727619Y-77192380D01*
X140822857Y-77144761D01*
X140870476Y-77097142D01*
X140918095Y-77001904D01*
X140918095Y-76906666D01*
X140870476Y-76811428D01*
X140822857Y-76763809D01*
X140727619Y-76716190D01*
X140537142Y-76668571D01*
X140441904Y-76620952D01*
X140394285Y-76573333D01*
X140346666Y-76478095D01*
X140346666Y-76382857D01*
X140394285Y-76287619D01*
X140441904Y-76240000D01*
X140537142Y-76192380D01*
X140775238Y-76192380D01*
X140918095Y-76240000D01*
X141251428Y-76192380D02*
X141489523Y-77192380D01*
X141680000Y-76478095D01*
X141870476Y-77192380D01*
X142108571Y-76192380D01*
X142394285Y-76192380D02*
X143060952Y-76192380D01*
X142632380Y-77192380D01*
%TO.C,SW2*%
X179716666Y-64444761D02*
X179859523Y-64492380D01*
X180097619Y-64492380D01*
X180192857Y-64444761D01*
X180240476Y-64397142D01*
X180288095Y-64301904D01*
X180288095Y-64206666D01*
X180240476Y-64111428D01*
X180192857Y-64063809D01*
X180097619Y-64016190D01*
X179907142Y-63968571D01*
X179811904Y-63920952D01*
X179764285Y-63873333D01*
X179716666Y-63778095D01*
X179716666Y-63682857D01*
X179764285Y-63587619D01*
X179811904Y-63540000D01*
X179907142Y-63492380D01*
X180145238Y-63492380D01*
X180288095Y-63540000D01*
X180621428Y-63492380D02*
X180859523Y-64492380D01*
X181050000Y-63778095D01*
X181240476Y-64492380D01*
X181478571Y-63492380D01*
X181811904Y-63587619D02*
X181859523Y-63540000D01*
X181954761Y-63492380D01*
X182192857Y-63492380D01*
X182288095Y-63540000D01*
X182335714Y-63587619D01*
X182383333Y-63682857D01*
X182383333Y-63778095D01*
X182335714Y-63920952D01*
X181764285Y-64492380D01*
X182383333Y-64492380D01*
%TO.C,U6*%
X244348095Y-81422380D02*
X244348095Y-82231904D01*
X244395714Y-82327142D01*
X244443333Y-82374761D01*
X244538571Y-82422380D01*
X244729047Y-82422380D01*
X244824285Y-82374761D01*
X244871904Y-82327142D01*
X244919523Y-82231904D01*
X244919523Y-81422380D01*
X245824285Y-81422380D02*
X245633809Y-81422380D01*
X245538571Y-81470000D01*
X245490952Y-81517619D01*
X245395714Y-81660476D01*
X245348095Y-81850952D01*
X245348095Y-82231904D01*
X245395714Y-82327142D01*
X245443333Y-82374761D01*
X245538571Y-82422380D01*
X245729047Y-82422380D01*
X245824285Y-82374761D01*
X245871904Y-82327142D01*
X245919523Y-82231904D01*
X245919523Y-81993809D01*
X245871904Y-81898571D01*
X245824285Y-81850952D01*
X245729047Y-81803333D01*
X245538571Y-81803333D01*
X245443333Y-81850952D01*
X245395714Y-81898571D01*
X245348095Y-81993809D01*
%TO.C,SW6*%
X179716666Y-77144761D02*
X179859523Y-77192380D01*
X180097619Y-77192380D01*
X180192857Y-77144761D01*
X180240476Y-77097142D01*
X180288095Y-77001904D01*
X180288095Y-76906666D01*
X180240476Y-76811428D01*
X180192857Y-76763809D01*
X180097619Y-76716190D01*
X179907142Y-76668571D01*
X179811904Y-76620952D01*
X179764285Y-76573333D01*
X179716666Y-76478095D01*
X179716666Y-76382857D01*
X179764285Y-76287619D01*
X179811904Y-76240000D01*
X179907142Y-76192380D01*
X180145238Y-76192380D01*
X180288095Y-76240000D01*
X180621428Y-76192380D02*
X180859523Y-77192380D01*
X181050000Y-76478095D01*
X181240476Y-77192380D01*
X181478571Y-76192380D01*
X182288095Y-76192380D02*
X182097619Y-76192380D01*
X182002380Y-76240000D01*
X181954761Y-76287619D01*
X181859523Y-76430476D01*
X181811904Y-76620952D01*
X181811904Y-77001904D01*
X181859523Y-77097142D01*
X181907142Y-77144761D01*
X182002380Y-77192380D01*
X182192857Y-77192380D01*
X182288095Y-77144761D01*
X182335714Y-77097142D01*
X182383333Y-77001904D01*
X182383333Y-76763809D01*
X182335714Y-76668571D01*
X182288095Y-76620952D01*
X182192857Y-76573333D01*
X182002380Y-76573333D01*
X181907142Y-76620952D01*
X181859523Y-76668571D01*
X181811904Y-76763809D01*
%TO.C,C3*%
X237467142Y-114221666D02*
X237514761Y-114269285D01*
X237562380Y-114412142D01*
X237562380Y-114507380D01*
X237514761Y-114650238D01*
X237419523Y-114745476D01*
X237324285Y-114793095D01*
X237133809Y-114840714D01*
X236990952Y-114840714D01*
X236800476Y-114793095D01*
X236705238Y-114745476D01*
X236610000Y-114650238D01*
X236562380Y-114507380D01*
X236562380Y-114412142D01*
X236610000Y-114269285D01*
X236657619Y-114221666D01*
X236562380Y-113888333D02*
X236562380Y-113269285D01*
X236943333Y-113602619D01*
X236943333Y-113459761D01*
X236990952Y-113364523D01*
X237038571Y-113316904D01*
X237133809Y-113269285D01*
X237371904Y-113269285D01*
X237467142Y-113316904D01*
X237514761Y-113364523D01*
X237562380Y-113459761D01*
X237562380Y-113745476D01*
X237514761Y-113840714D01*
X237467142Y-113888333D01*
%TO.C,C11*%
X244447142Y-63902142D02*
X244399523Y-63949761D01*
X244256666Y-63997380D01*
X244161428Y-63997380D01*
X244018571Y-63949761D01*
X243923333Y-63854523D01*
X243875714Y-63759285D01*
X243828095Y-63568809D01*
X243828095Y-63425952D01*
X243875714Y-63235476D01*
X243923333Y-63140238D01*
X244018571Y-63045000D01*
X244161428Y-62997380D01*
X244256666Y-62997380D01*
X244399523Y-63045000D01*
X244447142Y-63092619D01*
X245399523Y-63997380D02*
X244828095Y-63997380D01*
X245113809Y-63997380D02*
X245113809Y-62997380D01*
X245018571Y-63140238D01*
X244923333Y-63235476D01*
X244828095Y-63283095D01*
X246351904Y-63997380D02*
X245780476Y-63997380D01*
X246066190Y-63997380D02*
X246066190Y-62997380D01*
X245970952Y-63140238D01*
X245875714Y-63235476D01*
X245780476Y-63283095D01*
%TO.C,C12*%
X241277142Y-85732857D02*
X241324761Y-85780476D01*
X241372380Y-85923333D01*
X241372380Y-86018571D01*
X241324761Y-86161428D01*
X241229523Y-86256666D01*
X241134285Y-86304285D01*
X240943809Y-86351904D01*
X240800952Y-86351904D01*
X240610476Y-86304285D01*
X240515238Y-86256666D01*
X240420000Y-86161428D01*
X240372380Y-86018571D01*
X240372380Y-85923333D01*
X240420000Y-85780476D01*
X240467619Y-85732857D01*
X241372380Y-84780476D02*
X241372380Y-85351904D01*
X241372380Y-85066190D02*
X240372380Y-85066190D01*
X240515238Y-85161428D01*
X240610476Y-85256666D01*
X240658095Y-85351904D01*
X240467619Y-84399523D02*
X240420000Y-84351904D01*
X240372380Y-84256666D01*
X240372380Y-84018571D01*
X240420000Y-83923333D01*
X240467619Y-83875714D01*
X240562857Y-83828095D01*
X240658095Y-83828095D01*
X240800952Y-83875714D01*
X241372380Y-84447142D01*
X241372380Y-83828095D01*
%TO.C,C9*%
X241277142Y-97956666D02*
X241324761Y-98004285D01*
X241372380Y-98147142D01*
X241372380Y-98242380D01*
X241324761Y-98385238D01*
X241229523Y-98480476D01*
X241134285Y-98528095D01*
X240943809Y-98575714D01*
X240800952Y-98575714D01*
X240610476Y-98528095D01*
X240515238Y-98480476D01*
X240420000Y-98385238D01*
X240372380Y-98242380D01*
X240372380Y-98147142D01*
X240420000Y-98004285D01*
X240467619Y-97956666D01*
X241372380Y-97480476D02*
X241372380Y-97290000D01*
X241324761Y-97194761D01*
X241277142Y-97147142D01*
X241134285Y-97051904D01*
X240943809Y-97004285D01*
X240562857Y-97004285D01*
X240467619Y-97051904D01*
X240420000Y-97099523D01*
X240372380Y-97194761D01*
X240372380Y-97385238D01*
X240420000Y-97480476D01*
X240467619Y-97528095D01*
X240562857Y-97575714D01*
X240800952Y-97575714D01*
X240896190Y-97528095D01*
X240943809Y-97480476D01*
X240991428Y-97385238D01*
X240991428Y-97194761D01*
X240943809Y-97099523D01*
X240896190Y-97051904D01*
X240800952Y-97004285D01*
%TO.C,C6*%
X252070142Y-91606666D02*
X252117761Y-91654285D01*
X252165380Y-91797142D01*
X252165380Y-91892380D01*
X252117761Y-92035238D01*
X252022523Y-92130476D01*
X251927285Y-92178095D01*
X251736809Y-92225714D01*
X251593952Y-92225714D01*
X251403476Y-92178095D01*
X251308238Y-92130476D01*
X251213000Y-92035238D01*
X251165380Y-91892380D01*
X251165380Y-91797142D01*
X251213000Y-91654285D01*
X251260619Y-91606666D01*
X251165380Y-90749523D02*
X251165380Y-90940000D01*
X251213000Y-91035238D01*
X251260619Y-91082857D01*
X251403476Y-91178095D01*
X251593952Y-91225714D01*
X251974904Y-91225714D01*
X252070142Y-91178095D01*
X252117761Y-91130476D01*
X252165380Y-91035238D01*
X252165380Y-90844761D01*
X252117761Y-90749523D01*
X252070142Y-90701904D01*
X251974904Y-90654285D01*
X251736809Y-90654285D01*
X251641571Y-90701904D01*
X251593952Y-90749523D01*
X251546333Y-90844761D01*
X251546333Y-91035238D01*
X251593952Y-91130476D01*
X251641571Y-91178095D01*
X251736809Y-91225714D01*
%TO.C,C8*%
X241277142Y-104306666D02*
X241324761Y-104354285D01*
X241372380Y-104497142D01*
X241372380Y-104592380D01*
X241324761Y-104735238D01*
X241229523Y-104830476D01*
X241134285Y-104878095D01*
X240943809Y-104925714D01*
X240800952Y-104925714D01*
X240610476Y-104878095D01*
X240515238Y-104830476D01*
X240420000Y-104735238D01*
X240372380Y-104592380D01*
X240372380Y-104497142D01*
X240420000Y-104354285D01*
X240467619Y-104306666D01*
X240800952Y-103735238D02*
X240753333Y-103830476D01*
X240705714Y-103878095D01*
X240610476Y-103925714D01*
X240562857Y-103925714D01*
X240467619Y-103878095D01*
X240420000Y-103830476D01*
X240372380Y-103735238D01*
X240372380Y-103544761D01*
X240420000Y-103449523D01*
X240467619Y-103401904D01*
X240562857Y-103354285D01*
X240610476Y-103354285D01*
X240705714Y-103401904D01*
X240753333Y-103449523D01*
X240800952Y-103544761D01*
X240800952Y-103735238D01*
X240848571Y-103830476D01*
X240896190Y-103878095D01*
X240991428Y-103925714D01*
X241181904Y-103925714D01*
X241277142Y-103878095D01*
X241324761Y-103830476D01*
X241372380Y-103735238D01*
X241372380Y-103544761D01*
X241324761Y-103449523D01*
X241277142Y-103401904D01*
X241181904Y-103354285D01*
X240991428Y-103354285D01*
X240896190Y-103401904D01*
X240848571Y-103449523D01*
X240800952Y-103544761D01*
%TO.C,C5*%
X252197142Y-97947666D02*
X252244761Y-97995285D01*
X252292380Y-98138142D01*
X252292380Y-98233380D01*
X252244761Y-98376238D01*
X252149523Y-98471476D01*
X252054285Y-98519095D01*
X251863809Y-98566714D01*
X251720952Y-98566714D01*
X251530476Y-98519095D01*
X251435238Y-98471476D01*
X251340000Y-98376238D01*
X251292380Y-98233380D01*
X251292380Y-98138142D01*
X251340000Y-97995285D01*
X251387619Y-97947666D01*
X251292380Y-97042904D02*
X251292380Y-97519095D01*
X251768571Y-97566714D01*
X251720952Y-97519095D01*
X251673333Y-97423857D01*
X251673333Y-97185761D01*
X251720952Y-97090523D01*
X251768571Y-97042904D01*
X251863809Y-96995285D01*
X252101904Y-96995285D01*
X252197142Y-97042904D01*
X252244761Y-97090523D01*
X252292380Y-97185761D01*
X252292380Y-97423857D01*
X252244761Y-97519095D01*
X252197142Y-97566714D01*
%TO.C,C4*%
X252070142Y-104306666D02*
X252117761Y-104354285D01*
X252165380Y-104497142D01*
X252165380Y-104592380D01*
X252117761Y-104735238D01*
X252022523Y-104830476D01*
X251927285Y-104878095D01*
X251736809Y-104925714D01*
X251593952Y-104925714D01*
X251403476Y-104878095D01*
X251308238Y-104830476D01*
X251213000Y-104735238D01*
X251165380Y-104592380D01*
X251165380Y-104497142D01*
X251213000Y-104354285D01*
X251260619Y-104306666D01*
X251498714Y-103449523D02*
X252165380Y-103449523D01*
X251117761Y-103687619D02*
X251832047Y-103925714D01*
X251832047Y-103306666D01*
%TO.C,C10*%
X241404142Y-92082857D02*
X241451761Y-92130476D01*
X241499380Y-92273333D01*
X241499380Y-92368571D01*
X241451761Y-92511428D01*
X241356523Y-92606666D01*
X241261285Y-92654285D01*
X241070809Y-92701904D01*
X240927952Y-92701904D01*
X240737476Y-92654285D01*
X240642238Y-92606666D01*
X240547000Y-92511428D01*
X240499380Y-92368571D01*
X240499380Y-92273333D01*
X240547000Y-92130476D01*
X240594619Y-92082857D01*
X241499380Y-91130476D02*
X241499380Y-91701904D01*
X241499380Y-91416190D02*
X240499380Y-91416190D01*
X240642238Y-91511428D01*
X240737476Y-91606666D01*
X240785095Y-91701904D01*
X240499380Y-90511428D02*
X240499380Y-90416190D01*
X240547000Y-90320952D01*
X240594619Y-90273333D01*
X240689857Y-90225714D01*
X240880333Y-90178095D01*
X241118428Y-90178095D01*
X241308904Y-90225714D01*
X241404142Y-90273333D01*
X241451761Y-90320952D01*
X241499380Y-90416190D01*
X241499380Y-90511428D01*
X241451761Y-90606666D01*
X241404142Y-90654285D01*
X241308904Y-90701904D01*
X241118428Y-90749523D01*
X240880333Y-90749523D01*
X240689857Y-90701904D01*
X240594619Y-90654285D01*
X240547000Y-90606666D01*
X240499380Y-90511428D01*
%TO.C,C7*%
X252070142Y-85256666D02*
X252117761Y-85304285D01*
X252165380Y-85447142D01*
X252165380Y-85542380D01*
X252117761Y-85685238D01*
X252022523Y-85780476D01*
X251927285Y-85828095D01*
X251736809Y-85875714D01*
X251593952Y-85875714D01*
X251403476Y-85828095D01*
X251308238Y-85780476D01*
X251213000Y-85685238D01*
X251165380Y-85542380D01*
X251165380Y-85447142D01*
X251213000Y-85304285D01*
X251260619Y-85256666D01*
X251165380Y-84923333D02*
X251165380Y-84256666D01*
X252165380Y-84685238D01*
%TO.C,J7*%
X210486666Y-101262380D02*
X210486666Y-101976666D01*
X210439047Y-102119523D01*
X210343809Y-102214761D01*
X210200952Y-102262380D01*
X210105714Y-102262380D01*
X210867619Y-101262380D02*
X211534285Y-101262380D01*
X211105714Y-102262380D01*
%TO.C,H1*%
X255778095Y-126182380D02*
X255778095Y-125182380D01*
X255778095Y-125658571D02*
X256349523Y-125658571D01*
X256349523Y-126182380D02*
X256349523Y-125182380D01*
X257349523Y-126182380D02*
X256778095Y-126182380D01*
X257063809Y-126182380D02*
X257063809Y-125182380D01*
X256968571Y-125325238D01*
X256873333Y-125420476D01*
X256778095Y-125468095D01*
%TO.C,U4*%
X245618095Y-93792380D02*
X245618095Y-94601904D01*
X245665714Y-94697142D01*
X245713333Y-94744761D01*
X245808571Y-94792380D01*
X245999047Y-94792380D01*
X246094285Y-94744761D01*
X246141904Y-94697142D01*
X246189523Y-94601904D01*
X246189523Y-93792380D01*
X247094285Y-94125714D02*
X247094285Y-94792380D01*
X246856190Y-93744761D02*
X246618095Y-94459047D01*
X247237142Y-94459047D01*
%TO.C,H9*%
X276098095Y-94212380D02*
X276098095Y-93212380D01*
X276098095Y-93688571D02*
X276669523Y-93688571D01*
X276669523Y-94212380D02*
X276669523Y-93212380D01*
X277193333Y-94212380D02*
X277383809Y-94212380D01*
X277479047Y-94164761D01*
X277526666Y-94117142D01*
X277621904Y-93974285D01*
X277669523Y-93783809D01*
X277669523Y-93402857D01*
X277621904Y-93307619D01*
X277574285Y-93260000D01*
X277479047Y-93212380D01*
X277288571Y-93212380D01*
X277193333Y-93260000D01*
X277145714Y-93307619D01*
X277098095Y-93402857D01*
X277098095Y-93640952D01*
X277145714Y-93736190D01*
X277193333Y-93783809D01*
X277288571Y-93831428D01*
X277479047Y-93831428D01*
X277574285Y-93783809D01*
X277621904Y-93736190D01*
X277669523Y-93640952D01*
%TO.C,J6*%
X223186666Y-101052380D02*
X223186666Y-101766666D01*
X223139047Y-101909523D01*
X223043809Y-102004761D01*
X222900952Y-102052380D01*
X222805714Y-102052380D01*
X224091428Y-101052380D02*
X223900952Y-101052380D01*
X223805714Y-101100000D01*
X223758095Y-101147619D01*
X223662857Y-101290476D01*
X223615238Y-101480952D01*
X223615238Y-101861904D01*
X223662857Y-101957142D01*
X223710476Y-102004761D01*
X223805714Y-102052380D01*
X223996190Y-102052380D01*
X224091428Y-102004761D01*
X224139047Y-101957142D01*
X224186666Y-101861904D01*
X224186666Y-101623809D01*
X224139047Y-101528571D01*
X224091428Y-101480952D01*
X223996190Y-101433333D01*
X223805714Y-101433333D01*
X223710476Y-101480952D01*
X223662857Y-101528571D01*
X223615238Y-101623809D01*
%TO.C,H3*%
X276098095Y-127232380D02*
X276098095Y-126232380D01*
X276098095Y-126708571D02*
X276669523Y-126708571D01*
X276669523Y-127232380D02*
X276669523Y-126232380D01*
X277050476Y-126232380D02*
X277669523Y-126232380D01*
X277336190Y-126613333D01*
X277479047Y-126613333D01*
X277574285Y-126660952D01*
X277621904Y-126708571D01*
X277669523Y-126803809D01*
X277669523Y-127041904D01*
X277621904Y-127137142D01*
X277574285Y-127184761D01*
X277479047Y-127232380D01*
X277193333Y-127232380D01*
X277098095Y-127184761D01*
X277050476Y-127137142D01*
%TO.C,U3*%
X245618095Y-100142380D02*
X245618095Y-100951904D01*
X245665714Y-101047142D01*
X245713333Y-101094761D01*
X245808571Y-101142380D01*
X245999047Y-101142380D01*
X246094285Y-101094761D01*
X246141904Y-101047142D01*
X246189523Y-100951904D01*
X246189523Y-100142380D01*
X246570476Y-100142380D02*
X247189523Y-100142380D01*
X246856190Y-100523333D01*
X246999047Y-100523333D01*
X247094285Y-100570952D01*
X247141904Y-100618571D01*
X247189523Y-100713809D01*
X247189523Y-100951904D01*
X247141904Y-101047142D01*
X247094285Y-101094761D01*
X246999047Y-101142380D01*
X246713333Y-101142380D01*
X246618095Y-101094761D01*
X246570476Y-101047142D01*
%TO.C,U2*%
X245618095Y-106492380D02*
X245618095Y-107301904D01*
X245665714Y-107397142D01*
X245713333Y-107444761D01*
X245808571Y-107492380D01*
X245999047Y-107492380D01*
X246094285Y-107444761D01*
X246141904Y-107397142D01*
X246189523Y-107301904D01*
X246189523Y-106492380D01*
X246618095Y-106587619D02*
X246665714Y-106540000D01*
X246760952Y-106492380D01*
X246999047Y-106492380D01*
X247094285Y-106540000D01*
X247141904Y-106587619D01*
X247189523Y-106682857D01*
X247189523Y-106778095D01*
X247141904Y-106920952D01*
X246570476Y-107492380D01*
X247189523Y-107492380D01*
%TO.C,H12*%
X105441904Y-32202380D02*
X105441904Y-31202380D01*
X105441904Y-31678571D02*
X106013333Y-31678571D01*
X106013333Y-32202380D02*
X106013333Y-31202380D01*
X107013333Y-32202380D02*
X106441904Y-32202380D01*
X106727619Y-32202380D02*
X106727619Y-31202380D01*
X106632380Y-31345238D01*
X106537142Y-31440476D01*
X106441904Y-31488095D01*
X107394285Y-31297619D02*
X107441904Y-31250000D01*
X107537142Y-31202380D01*
X107775238Y-31202380D01*
X107870476Y-31250000D01*
X107918095Y-31297619D01*
X107965714Y-31392857D01*
X107965714Y-31488095D01*
X107918095Y-31630952D01*
X107346666Y-32202380D01*
X107965714Y-32202380D01*
%TO.C,H11*%
X105441904Y-127232380D02*
X105441904Y-126232380D01*
X105441904Y-126708571D02*
X106013333Y-126708571D01*
X106013333Y-127232380D02*
X106013333Y-126232380D01*
X107013333Y-127232380D02*
X106441904Y-127232380D01*
X106727619Y-127232380D02*
X106727619Y-126232380D01*
X106632380Y-126375238D01*
X106537142Y-126470476D01*
X106441904Y-126518095D01*
X107965714Y-127232380D02*
X107394285Y-127232380D01*
X107680000Y-127232380D02*
X107680000Y-126232380D01*
X107584761Y-126375238D01*
X107489523Y-126470476D01*
X107394285Y-126518095D01*
%TO.C,H6*%
X260858095Y-32837380D02*
X260858095Y-31837380D01*
X260858095Y-32313571D02*
X261429523Y-32313571D01*
X261429523Y-32837380D02*
X261429523Y-31837380D01*
X262334285Y-31837380D02*
X262143809Y-31837380D01*
X262048571Y-31885000D01*
X262000952Y-31932619D01*
X261905714Y-32075476D01*
X261858095Y-32265952D01*
X261858095Y-32646904D01*
X261905714Y-32742142D01*
X261953333Y-32789761D01*
X262048571Y-32837380D01*
X262239047Y-32837380D01*
X262334285Y-32789761D01*
X262381904Y-32742142D01*
X262429523Y-32646904D01*
X262429523Y-32408809D01*
X262381904Y-32313571D01*
X262334285Y-32265952D01*
X262239047Y-32218333D01*
X262048571Y-32218333D01*
X261953333Y-32265952D01*
X261905714Y-32313571D01*
X261858095Y-32408809D01*
%TO.C,H8*%
X276098095Y-32202380D02*
X276098095Y-31202380D01*
X276098095Y-31678571D02*
X276669523Y-31678571D01*
X276669523Y-32202380D02*
X276669523Y-31202380D01*
X277288571Y-31630952D02*
X277193333Y-31583333D01*
X277145714Y-31535714D01*
X277098095Y-31440476D01*
X277098095Y-31392857D01*
X277145714Y-31297619D01*
X277193333Y-31250000D01*
X277288571Y-31202380D01*
X277479047Y-31202380D01*
X277574285Y-31250000D01*
X277621904Y-31297619D01*
X277669523Y-31392857D01*
X277669523Y-31440476D01*
X277621904Y-31535714D01*
X277574285Y-31583333D01*
X277479047Y-31630952D01*
X277288571Y-31630952D01*
X277193333Y-31678571D01*
X277145714Y-31726190D01*
X277098095Y-31821428D01*
X277098095Y-32011904D01*
X277145714Y-32107142D01*
X277193333Y-32154761D01*
X277288571Y-32202380D01*
X277479047Y-32202380D01*
X277574285Y-32154761D01*
X277621904Y-32107142D01*
X277669523Y-32011904D01*
X277669523Y-31821428D01*
X277621904Y-31726190D01*
X277574285Y-31678571D01*
X277479047Y-31630952D01*
%TO.C,H5*%
X105918095Y-94212380D02*
X105918095Y-93212380D01*
X105918095Y-93688571D02*
X106489523Y-93688571D01*
X106489523Y-94212380D02*
X106489523Y-93212380D01*
X107441904Y-93212380D02*
X106965714Y-93212380D01*
X106918095Y-93688571D01*
X106965714Y-93640952D01*
X107060952Y-93593333D01*
X107299047Y-93593333D01*
X107394285Y-93640952D01*
X107441904Y-93688571D01*
X107489523Y-93783809D01*
X107489523Y-94021904D01*
X107441904Y-94117142D01*
X107394285Y-94164761D01*
X107299047Y-94212380D01*
X107060952Y-94212380D01*
X106965714Y-94164761D01*
X106918095Y-94117142D01*
%TO.C,J1*%
X243506666Y-120192380D02*
X243506666Y-120906666D01*
X243459047Y-121049523D01*
X243363809Y-121144761D01*
X243220952Y-121192380D01*
X243125714Y-121192380D01*
X244506666Y-121192380D02*
X243935238Y-121192380D01*
X244220952Y-121192380D02*
X244220952Y-120192380D01*
X244125714Y-120335238D01*
X244030476Y-120430476D01*
X243935238Y-120478095D01*
%TO.C,J2*%
X199056666Y-101262380D02*
X199056666Y-101976666D01*
X199009047Y-102119523D01*
X198913809Y-102214761D01*
X198770952Y-102262380D01*
X198675714Y-102262380D01*
X199485238Y-101357619D02*
X199532857Y-101310000D01*
X199628095Y-101262380D01*
X199866190Y-101262380D01*
X199961428Y-101310000D01*
X200009047Y-101357619D01*
X200056666Y-101452857D01*
X200056666Y-101548095D01*
X200009047Y-101690952D01*
X199437619Y-102262380D01*
X200056666Y-102262380D01*
%TO.C,J3*%
X204924066Y-121956580D02*
X204924066Y-122670866D01*
X204876447Y-122813723D01*
X204781209Y-122908961D01*
X204638352Y-122956580D01*
X204543114Y-122956580D01*
X205305019Y-121956580D02*
X205924066Y-121956580D01*
X205590733Y-122337533D01*
X205733590Y-122337533D01*
X205828828Y-122385152D01*
X205876447Y-122432771D01*
X205924066Y-122528009D01*
X205924066Y-122766104D01*
X205876447Y-122861342D01*
X205828828Y-122908961D01*
X205733590Y-122956580D01*
X205447876Y-122956580D01*
X205352638Y-122908961D01*
X205305019Y-122861342D01*
%TO.C,U1*%
X146558095Y-107402380D02*
X146558095Y-108211904D01*
X146605714Y-108307142D01*
X146653333Y-108354761D01*
X146748571Y-108402380D01*
X146939047Y-108402380D01*
X147034285Y-108354761D01*
X147081904Y-108307142D01*
X147129523Y-108211904D01*
X147129523Y-107402380D01*
X148129523Y-108402380D02*
X147558095Y-108402380D01*
X147843809Y-108402380D02*
X147843809Y-107402380D01*
X147748571Y-107545238D01*
X147653333Y-107640476D01*
X147558095Y-107688095D01*
X125544676Y-120051580D02*
X125544676Y-120861104D01*
X125592295Y-120956342D01*
X125639914Y-121003961D01*
X125735152Y-121051580D01*
X125925628Y-121051580D01*
X126020866Y-121003961D01*
X126068485Y-120956342D01*
X126116104Y-120861104D01*
X126116104Y-120051580D01*
X126544676Y-121003961D02*
X126687533Y-121051580D01*
X126925628Y-121051580D01*
X127020866Y-121003961D01*
X127068485Y-120956342D01*
X127116104Y-120861104D01*
X127116104Y-120765866D01*
X127068485Y-120670628D01*
X127020866Y-120623009D01*
X126925628Y-120575390D01*
X126735152Y-120527771D01*
X126639914Y-120480152D01*
X126592295Y-120432533D01*
X126544676Y-120337295D01*
X126544676Y-120242057D01*
X126592295Y-120146819D01*
X126639914Y-120099200D01*
X126735152Y-120051580D01*
X126973247Y-120051580D01*
X127116104Y-120099200D01*
X127878009Y-120527771D02*
X128020866Y-120575390D01*
X128068485Y-120623009D01*
X128116104Y-120718247D01*
X128116104Y-120861104D01*
X128068485Y-120956342D01*
X128020866Y-121003961D01*
X127925628Y-121051580D01*
X127544676Y-121051580D01*
X127544676Y-120051580D01*
X127878009Y-120051580D01*
X127973247Y-120099200D01*
X128020866Y-120146819D01*
X128068485Y-120242057D01*
X128068485Y-120337295D01*
X128020866Y-120432533D01*
X127973247Y-120480152D01*
X127878009Y-120527771D01*
X127544676Y-120527771D01*
X129306580Y-121051580D02*
X129306580Y-120051580D01*
X129306580Y-120527771D02*
X129878009Y-120527771D01*
X129878009Y-121051580D02*
X129878009Y-120051580D01*
X130497057Y-121051580D02*
X130401819Y-121003961D01*
X130354200Y-120956342D01*
X130306580Y-120861104D01*
X130306580Y-120575390D01*
X130354200Y-120480152D01*
X130401819Y-120432533D01*
X130497057Y-120384914D01*
X130639914Y-120384914D01*
X130735152Y-120432533D01*
X130782771Y-120480152D01*
X130830390Y-120575390D01*
X130830390Y-120861104D01*
X130782771Y-120956342D01*
X130735152Y-121003961D01*
X130639914Y-121051580D01*
X130497057Y-121051580D01*
X131211342Y-121003961D02*
X131306580Y-121051580D01*
X131497057Y-121051580D01*
X131592295Y-121003961D01*
X131639914Y-120908723D01*
X131639914Y-120861104D01*
X131592295Y-120765866D01*
X131497057Y-120718247D01*
X131354200Y-120718247D01*
X131258961Y-120670628D01*
X131211342Y-120575390D01*
X131211342Y-120527771D01*
X131258961Y-120432533D01*
X131354200Y-120384914D01*
X131497057Y-120384914D01*
X131592295Y-120432533D01*
X131925628Y-120384914D02*
X132306580Y-120384914D01*
X132068485Y-120051580D02*
X132068485Y-120908723D01*
X132116104Y-121003961D01*
X132211342Y-121051580D01*
X132306580Y-121051580D01*
X135183571Y-117690542D02*
X135183571Y-117357209D01*
X135707380Y-117214352D02*
X135707380Y-117690542D01*
X134707380Y-117690542D01*
X134707380Y-117214352D01*
X135040714Y-116928638D02*
X135040714Y-116547685D01*
X134707380Y-116785780D02*
X135564523Y-116785780D01*
X135659761Y-116738161D01*
X135707380Y-116642923D01*
X135707380Y-116547685D01*
X135707380Y-116214352D02*
X134707380Y-116214352D01*
X135707380Y-115785780D02*
X135183571Y-115785780D01*
X135088333Y-115833400D01*
X135040714Y-115928638D01*
X135040714Y-116071495D01*
X135088333Y-116166733D01*
X135135952Y-116214352D01*
X135659761Y-114928638D02*
X135707380Y-115023876D01*
X135707380Y-115214352D01*
X135659761Y-115309590D01*
X135564523Y-115357209D01*
X135183571Y-115357209D01*
X135088333Y-115309590D01*
X135040714Y-115214352D01*
X135040714Y-115023876D01*
X135088333Y-114928638D01*
X135183571Y-114881019D01*
X135278809Y-114881019D01*
X135374047Y-115357209D01*
X135707380Y-114452447D02*
X135040714Y-114452447D01*
X135231190Y-114452447D02*
X135135952Y-114404828D01*
X135088333Y-114357209D01*
X135040714Y-114261971D01*
X135040714Y-114166733D01*
X135040714Y-113833400D02*
X135707380Y-113833400D01*
X135135952Y-113833400D02*
X135088333Y-113785780D01*
X135040714Y-113690542D01*
X135040714Y-113547685D01*
X135088333Y-113452447D01*
X135183571Y-113404828D01*
X135707380Y-113404828D01*
X135659761Y-112547685D02*
X135707380Y-112642923D01*
X135707380Y-112833400D01*
X135659761Y-112928638D01*
X135564523Y-112976257D01*
X135183571Y-112976257D01*
X135088333Y-112928638D01*
X135040714Y-112833400D01*
X135040714Y-112642923D01*
X135088333Y-112547685D01*
X135183571Y-112500066D01*
X135278809Y-112500066D01*
X135374047Y-112976257D01*
X135040714Y-112214352D02*
X135040714Y-111833400D01*
X134707380Y-112071495D02*
X135564523Y-112071495D01*
X135659761Y-112023876D01*
X135707380Y-111928638D01*
X135707380Y-111833400D01*
X120102380Y-119371904D02*
X120911904Y-119371904D01*
X121007142Y-119324285D01*
X121054761Y-119276666D01*
X121102380Y-119181428D01*
X121102380Y-118990952D01*
X121054761Y-118895714D01*
X121007142Y-118848095D01*
X120911904Y-118800476D01*
X120102380Y-118800476D01*
X121054761Y-118371904D02*
X121102380Y-118229047D01*
X121102380Y-117990952D01*
X121054761Y-117895714D01*
X121007142Y-117848095D01*
X120911904Y-117800476D01*
X120816666Y-117800476D01*
X120721428Y-117848095D01*
X120673809Y-117895714D01*
X120626190Y-117990952D01*
X120578571Y-118181428D01*
X120530952Y-118276666D01*
X120483333Y-118324285D01*
X120388095Y-118371904D01*
X120292857Y-118371904D01*
X120197619Y-118324285D01*
X120150000Y-118276666D01*
X120102380Y-118181428D01*
X120102380Y-117943333D01*
X120150000Y-117800476D01*
X120578571Y-117038571D02*
X120626190Y-116895714D01*
X120673809Y-116848095D01*
X120769047Y-116800476D01*
X120911904Y-116800476D01*
X121007142Y-116848095D01*
X121054761Y-116895714D01*
X121102380Y-116990952D01*
X121102380Y-117371904D01*
X120102380Y-117371904D01*
X120102380Y-117038571D01*
X120150000Y-116943333D01*
X120197619Y-116895714D01*
X120292857Y-116848095D01*
X120388095Y-116848095D01*
X120483333Y-116895714D01*
X120530952Y-116943333D01*
X120578571Y-117038571D01*
X120578571Y-117371904D01*
X168330952Y-118562380D02*
X168330952Y-117562380D01*
X168664285Y-118276666D01*
X168997619Y-117562380D01*
X168997619Y-118562380D01*
X169473809Y-118562380D02*
X169473809Y-117895714D01*
X169473809Y-117562380D02*
X169426190Y-117610000D01*
X169473809Y-117657619D01*
X169521428Y-117610000D01*
X169473809Y-117562380D01*
X169473809Y-117657619D01*
X170378571Y-118514761D02*
X170283333Y-118562380D01*
X170092857Y-118562380D01*
X169997619Y-118514761D01*
X169950000Y-118467142D01*
X169902380Y-118371904D01*
X169902380Y-118086190D01*
X169950000Y-117990952D01*
X169997619Y-117943333D01*
X170092857Y-117895714D01*
X170283333Y-117895714D01*
X170378571Y-117943333D01*
X170807142Y-118562380D02*
X170807142Y-117895714D01*
X170807142Y-118086190D02*
X170854761Y-117990952D01*
X170902380Y-117943333D01*
X170997619Y-117895714D01*
X171092857Y-117895714D01*
X171569047Y-118562380D02*
X171473809Y-118514761D01*
X171426190Y-118467142D01*
X171378571Y-118371904D01*
X171378571Y-118086190D01*
X171426190Y-117990952D01*
X171473809Y-117943333D01*
X171569047Y-117895714D01*
X171711904Y-117895714D01*
X171807142Y-117943333D01*
X171854761Y-117990952D01*
X171902380Y-118086190D01*
X171902380Y-118371904D01*
X171854761Y-118467142D01*
X171807142Y-118514761D01*
X171711904Y-118562380D01*
X171569047Y-118562380D01*
X173045238Y-118514761D02*
X173188095Y-118562380D01*
X173426190Y-118562380D01*
X173521428Y-118514761D01*
X173569047Y-118467142D01*
X173616666Y-118371904D01*
X173616666Y-118276666D01*
X173569047Y-118181428D01*
X173521428Y-118133809D01*
X173426190Y-118086190D01*
X173235714Y-118038571D01*
X173140476Y-117990952D01*
X173092857Y-117943333D01*
X173045238Y-117848095D01*
X173045238Y-117752857D01*
X173092857Y-117657619D01*
X173140476Y-117610000D01*
X173235714Y-117562380D01*
X173473809Y-117562380D01*
X173616666Y-117610000D01*
X174045238Y-118562380D02*
X174045238Y-117562380D01*
X174283333Y-117562380D01*
X174426190Y-117610000D01*
X174521428Y-117705238D01*
X174569047Y-117800476D01*
X174616666Y-117990952D01*
X174616666Y-118133809D01*
X174569047Y-118324285D01*
X174521428Y-118419523D01*
X174426190Y-118514761D01*
X174283333Y-118562380D01*
X174045238Y-118562380D01*
X146366666Y-121193333D02*
X145666666Y-121193333D01*
X146166666Y-120960000D01*
X145666666Y-120726666D01*
X146366666Y-120726666D01*
X146366666Y-120393333D02*
X145666666Y-120393333D01*
X146366666Y-120060000D02*
X145666666Y-120060000D01*
X146166666Y-119826666D01*
X145666666Y-119593333D01*
X146366666Y-119593333D01*
X145666666Y-119326666D02*
X146366666Y-118860000D01*
X145666666Y-118860000D02*
X146366666Y-119326666D01*
X146366666Y-118193333D02*
X146033333Y-118426666D01*
X146366666Y-118593333D02*
X145666666Y-118593333D01*
X145666666Y-118326666D01*
X145700000Y-118260000D01*
X145733333Y-118226666D01*
X145800000Y-118193333D01*
X145900000Y-118193333D01*
X145966666Y-118226666D01*
X146000000Y-118260000D01*
X146033333Y-118326666D01*
X146033333Y-118593333D01*
X145666666Y-117993333D02*
X145666666Y-117593333D01*
X146366666Y-117793333D02*
X145666666Y-117793333D01*
X146366666Y-116993333D02*
X146366666Y-117393333D01*
X146366666Y-117193333D02*
X145666666Y-117193333D01*
X145766666Y-117260000D01*
X145833333Y-117326666D01*
X145866666Y-117393333D01*
X145666666Y-116560000D02*
X145666666Y-116493333D01*
X145700000Y-116426666D01*
X145733333Y-116393333D01*
X145800000Y-116360000D01*
X145933333Y-116326666D01*
X146100000Y-116326666D01*
X146233333Y-116360000D01*
X146300000Y-116393333D01*
X146333333Y-116426666D01*
X146366666Y-116493333D01*
X146366666Y-116560000D01*
X146333333Y-116626666D01*
X146300000Y-116660000D01*
X146233333Y-116693333D01*
X146100000Y-116726666D01*
X145933333Y-116726666D01*
X145800000Y-116693333D01*
X145733333Y-116660000D01*
X145700000Y-116626666D01*
X145666666Y-116560000D01*
X145666666Y-115726666D02*
X145666666Y-115860000D01*
X145700000Y-115926666D01*
X145733333Y-115960000D01*
X145833333Y-116026666D01*
X145966666Y-116060000D01*
X146233333Y-116060000D01*
X146300000Y-116026666D01*
X146333333Y-115993333D01*
X146366666Y-115926666D01*
X146366666Y-115793333D01*
X146333333Y-115726666D01*
X146300000Y-115693333D01*
X146233333Y-115660000D01*
X146066666Y-115660000D01*
X146000000Y-115693333D01*
X145966666Y-115726666D01*
X145933333Y-115793333D01*
X145933333Y-115926666D01*
X145966666Y-115993333D01*
X146000000Y-116026666D01*
X146066666Y-116060000D01*
X145733333Y-115393333D02*
X145700000Y-115360000D01*
X145666666Y-115293333D01*
X145666666Y-115126666D01*
X145700000Y-115060000D01*
X145733333Y-115026666D01*
X145800000Y-114993333D01*
X145866666Y-114993333D01*
X145966666Y-115026666D01*
X146366666Y-115426666D01*
X146366666Y-114993333D01*
X145096666Y-119313333D02*
X144396666Y-119313333D01*
X144396666Y-119146666D01*
X144430000Y-119046666D01*
X144496666Y-118980000D01*
X144563333Y-118946666D01*
X144696666Y-118913333D01*
X144796666Y-118913333D01*
X144930000Y-118946666D01*
X144996666Y-118980000D01*
X145063333Y-119046666D01*
X145096666Y-119146666D01*
X145096666Y-119313333D01*
X144396666Y-118713333D02*
X145096666Y-118480000D01*
X144396666Y-118246666D01*
X144396666Y-117813333D02*
X144896666Y-117813333D01*
X144996666Y-117846666D01*
X145063333Y-117913333D01*
X145096666Y-118013333D01*
X145096666Y-118080000D01*
X144396666Y-117180000D02*
X144396666Y-117313333D01*
X144430000Y-117380000D01*
X144463333Y-117413333D01*
X144563333Y-117480000D01*
X144696666Y-117513333D01*
X144963333Y-117513333D01*
X145030000Y-117480000D01*
X145063333Y-117446666D01*
X145096666Y-117380000D01*
X145096666Y-117246666D01*
X145063333Y-117180000D01*
X145030000Y-117146666D01*
X144963333Y-117113333D01*
X144796666Y-117113333D01*
X144730000Y-117146666D01*
X144696666Y-117180000D01*
X144663333Y-117246666D01*
X144663333Y-117380000D01*
X144696666Y-117446666D01*
X144730000Y-117480000D01*
X144796666Y-117513333D01*
X144896666Y-116846666D02*
X144896666Y-116513333D01*
X145096666Y-116913333D02*
X144396666Y-116680000D01*
X145096666Y-116446666D01*
%TO.C,R10*%
X139518380Y-97670857D02*
X139042190Y-98004190D01*
X139518380Y-98242285D02*
X138518380Y-98242285D01*
X138518380Y-97861333D01*
X138566000Y-97766095D01*
X138613619Y-97718476D01*
X138708857Y-97670857D01*
X138851714Y-97670857D01*
X138946952Y-97718476D01*
X138994571Y-97766095D01*
X139042190Y-97861333D01*
X139042190Y-98242285D01*
X139518380Y-96718476D02*
X139518380Y-97289904D01*
X139518380Y-97004190D02*
X138518380Y-97004190D01*
X138661238Y-97099428D01*
X138756476Y-97194666D01*
X138804095Y-97289904D01*
X138518380Y-96099428D02*
X138518380Y-96004190D01*
X138566000Y-95908952D01*
X138613619Y-95861333D01*
X138708857Y-95813714D01*
X138899333Y-95766095D01*
X139137428Y-95766095D01*
X139327904Y-95813714D01*
X139423142Y-95861333D01*
X139470761Y-95908952D01*
X139518380Y-96004190D01*
X139518380Y-96099428D01*
X139470761Y-96194666D01*
X139423142Y-96242285D01*
X139327904Y-96289904D01*
X139137428Y-96337523D01*
X138899333Y-96337523D01*
X138708857Y-96289904D01*
X138613619Y-96242285D01*
X138566000Y-96194666D01*
X138518380Y-96099428D01*
%TO.C,R11*%
X161487380Y-97670857D02*
X161011190Y-98004190D01*
X161487380Y-98242285D02*
X160487380Y-98242285D01*
X160487380Y-97861333D01*
X160535000Y-97766095D01*
X160582619Y-97718476D01*
X160677857Y-97670857D01*
X160820714Y-97670857D01*
X160915952Y-97718476D01*
X160963571Y-97766095D01*
X161011190Y-97861333D01*
X161011190Y-98242285D01*
X161487380Y-96718476D02*
X161487380Y-97289904D01*
X161487380Y-97004190D02*
X160487380Y-97004190D01*
X160630238Y-97099428D01*
X160725476Y-97194666D01*
X160773095Y-97289904D01*
X161487380Y-95766095D02*
X161487380Y-96337523D01*
X161487380Y-96051809D02*
X160487380Y-96051809D01*
X160630238Y-96147047D01*
X160725476Y-96242285D01*
X160773095Y-96337523D01*
%TO.C,J12*%
X267212380Y-118157523D02*
X267926666Y-118157523D01*
X268069523Y-118205142D01*
X268164761Y-118300380D01*
X268212380Y-118443238D01*
X268212380Y-118538476D01*
X268212380Y-117157523D02*
X268212380Y-117728952D01*
X268212380Y-117443238D02*
X267212380Y-117443238D01*
X267355238Y-117538476D01*
X267450476Y-117633714D01*
X267498095Y-117728952D01*
X267307619Y-116776571D02*
X267260000Y-116728952D01*
X267212380Y-116633714D01*
X267212380Y-116395619D01*
X267260000Y-116300380D01*
X267307619Y-116252761D01*
X267402857Y-116205142D01*
X267498095Y-116205142D01*
X267640952Y-116252761D01*
X268212380Y-116824190D01*
X268212380Y-116205142D01*
%TO.C,R8*%
X120087380Y-97194666D02*
X119611190Y-97528000D01*
X120087380Y-97766095D02*
X119087380Y-97766095D01*
X119087380Y-97385142D01*
X119135000Y-97289904D01*
X119182619Y-97242285D01*
X119277857Y-97194666D01*
X119420714Y-97194666D01*
X119515952Y-97242285D01*
X119563571Y-97289904D01*
X119611190Y-97385142D01*
X119611190Y-97766095D01*
X119515952Y-96623238D02*
X119468333Y-96718476D01*
X119420714Y-96766095D01*
X119325476Y-96813714D01*
X119277857Y-96813714D01*
X119182619Y-96766095D01*
X119135000Y-96718476D01*
X119087380Y-96623238D01*
X119087380Y-96432761D01*
X119135000Y-96337523D01*
X119182619Y-96289904D01*
X119277857Y-96242285D01*
X119325476Y-96242285D01*
X119420714Y-96289904D01*
X119468333Y-96337523D01*
X119515952Y-96432761D01*
X119515952Y-96623238D01*
X119563571Y-96718476D01*
X119611190Y-96766095D01*
X119706428Y-96813714D01*
X119896904Y-96813714D01*
X119992142Y-96766095D01*
X120039761Y-96718476D01*
X120087380Y-96623238D01*
X120087380Y-96432761D01*
X120039761Y-96337523D01*
X119992142Y-96289904D01*
X119896904Y-96242285D01*
X119706428Y-96242285D01*
X119611190Y-96289904D01*
X119563571Y-96337523D01*
X119515952Y-96432761D01*
%TO.C,R6*%
X114880380Y-36361666D02*
X114404190Y-36695000D01*
X114880380Y-36933095D02*
X113880380Y-36933095D01*
X113880380Y-36552142D01*
X113928000Y-36456904D01*
X113975619Y-36409285D01*
X114070857Y-36361666D01*
X114213714Y-36361666D01*
X114308952Y-36409285D01*
X114356571Y-36456904D01*
X114404190Y-36552142D01*
X114404190Y-36933095D01*
X113880380Y-35504523D02*
X113880380Y-35695000D01*
X113928000Y-35790238D01*
X113975619Y-35837857D01*
X114118476Y-35933095D01*
X114308952Y-35980714D01*
X114689904Y-35980714D01*
X114785142Y-35933095D01*
X114832761Y-35885476D01*
X114880380Y-35790238D01*
X114880380Y-35599761D01*
X114832761Y-35504523D01*
X114785142Y-35456904D01*
X114689904Y-35409285D01*
X114451809Y-35409285D01*
X114356571Y-35456904D01*
X114308952Y-35504523D01*
X114261333Y-35599761D01*
X114261333Y-35790238D01*
X114308952Y-35885476D01*
X114356571Y-35933095D01*
X114451809Y-35980714D01*
%TO.C,R13*%
X173554380Y-69095857D02*
X173078190Y-69429190D01*
X173554380Y-69667285D02*
X172554380Y-69667285D01*
X172554380Y-69286333D01*
X172602000Y-69191095D01*
X172649619Y-69143476D01*
X172744857Y-69095857D01*
X172887714Y-69095857D01*
X172982952Y-69143476D01*
X173030571Y-69191095D01*
X173078190Y-69286333D01*
X173078190Y-69667285D01*
X173554380Y-68143476D02*
X173554380Y-68714904D01*
X173554380Y-68429190D02*
X172554380Y-68429190D01*
X172697238Y-68524428D01*
X172792476Y-68619666D01*
X172840095Y-68714904D01*
X172554380Y-67810142D02*
X172554380Y-67191095D01*
X172935333Y-67524428D01*
X172935333Y-67381571D01*
X172982952Y-67286333D01*
X173030571Y-67238714D01*
X173125809Y-67191095D01*
X173363904Y-67191095D01*
X173459142Y-67238714D01*
X173506761Y-67286333D01*
X173554380Y-67381571D01*
X173554380Y-67667285D01*
X173506761Y-67762523D01*
X173459142Y-67810142D01*
%TO.C,R5*%
X114880380Y-40171666D02*
X114404190Y-40505000D01*
X114880380Y-40743095D02*
X113880380Y-40743095D01*
X113880380Y-40362142D01*
X113928000Y-40266904D01*
X113975619Y-40219285D01*
X114070857Y-40171666D01*
X114213714Y-40171666D01*
X114308952Y-40219285D01*
X114356571Y-40266904D01*
X114404190Y-40362142D01*
X114404190Y-40743095D01*
X113880380Y-39266904D02*
X113880380Y-39743095D01*
X114356571Y-39790714D01*
X114308952Y-39743095D01*
X114261333Y-39647857D01*
X114261333Y-39409761D01*
X114308952Y-39314523D01*
X114356571Y-39266904D01*
X114451809Y-39219285D01*
X114689904Y-39219285D01*
X114785142Y-39266904D01*
X114832761Y-39314523D01*
X114880380Y-39409761D01*
X114880380Y-39647857D01*
X114832761Y-39743095D01*
X114785142Y-39790714D01*
%TO.C,R9*%
X144977380Y-97194666D02*
X144501190Y-97528000D01*
X144977380Y-97766095D02*
X143977380Y-97766095D01*
X143977380Y-97385142D01*
X144025000Y-97289904D01*
X144072619Y-97242285D01*
X144167857Y-97194666D01*
X144310714Y-97194666D01*
X144405952Y-97242285D01*
X144453571Y-97289904D01*
X144501190Y-97385142D01*
X144501190Y-97766095D01*
X144977380Y-96718476D02*
X144977380Y-96528000D01*
X144929761Y-96432761D01*
X144882142Y-96385142D01*
X144739285Y-96289904D01*
X144548809Y-96242285D01*
X144167857Y-96242285D01*
X144072619Y-96289904D01*
X144025000Y-96337523D01*
X143977380Y-96432761D01*
X143977380Y-96623238D01*
X144025000Y-96718476D01*
X144072619Y-96766095D01*
X144167857Y-96813714D01*
X144405952Y-96813714D01*
X144501190Y-96766095D01*
X144548809Y-96718476D01*
X144596428Y-96623238D01*
X144596428Y-96432761D01*
X144548809Y-96337523D01*
X144501190Y-96289904D01*
X144405952Y-96242285D01*
%TO.C,R12*%
X156028380Y-97670857D02*
X155552190Y-98004190D01*
X156028380Y-98242285D02*
X155028380Y-98242285D01*
X155028380Y-97861333D01*
X155076000Y-97766095D01*
X155123619Y-97718476D01*
X155218857Y-97670857D01*
X155361714Y-97670857D01*
X155456952Y-97718476D01*
X155504571Y-97766095D01*
X155552190Y-97861333D01*
X155552190Y-98242285D01*
X156028380Y-96718476D02*
X156028380Y-97289904D01*
X156028380Y-97004190D02*
X155028380Y-97004190D01*
X155171238Y-97099428D01*
X155266476Y-97194666D01*
X155314095Y-97289904D01*
X155123619Y-96337523D02*
X155076000Y-96289904D01*
X155028380Y-96194666D01*
X155028380Y-95956571D01*
X155076000Y-95861333D01*
X155123619Y-95813714D01*
X155218857Y-95766095D01*
X155314095Y-95766095D01*
X155456952Y-95813714D01*
X156028380Y-96385142D01*
X156028380Y-95766095D01*
%TO.C,J13*%
X174414380Y-27860523D02*
X175128666Y-27860523D01*
X175271523Y-27908142D01*
X175366761Y-28003380D01*
X175414380Y-28146238D01*
X175414380Y-28241476D01*
X175414380Y-26860523D02*
X175414380Y-27431952D01*
X175414380Y-27146238D02*
X174414380Y-27146238D01*
X174557238Y-27241476D01*
X174652476Y-27336714D01*
X174700095Y-27431952D01*
X174414380Y-26527190D02*
X174414380Y-25908142D01*
X174795333Y-26241476D01*
X174795333Y-26098619D01*
X174842952Y-26003380D01*
X174890571Y-25955761D01*
X174985809Y-25908142D01*
X175223904Y-25908142D01*
X175319142Y-25955761D01*
X175366761Y-26003380D01*
X175414380Y-26098619D01*
X175414380Y-26384333D01*
X175366761Y-26479571D01*
X175319142Y-26527190D01*
%TO.C,R7*%
X125546380Y-97194666D02*
X125070190Y-97528000D01*
X125546380Y-97766095D02*
X124546380Y-97766095D01*
X124546380Y-97385142D01*
X124594000Y-97289904D01*
X124641619Y-97242285D01*
X124736857Y-97194666D01*
X124879714Y-97194666D01*
X124974952Y-97242285D01*
X125022571Y-97289904D01*
X125070190Y-97385142D01*
X125070190Y-97766095D01*
X124546380Y-96861333D02*
X124546380Y-96194666D01*
X125546380Y-96623238D01*
%TO.C,J10*%
X216832380Y-127809523D02*
X217546666Y-127809523D01*
X217689523Y-127857142D01*
X217784761Y-127952380D01*
X217832380Y-128095238D01*
X217832380Y-128190476D01*
X217832380Y-126809523D02*
X217832380Y-127380952D01*
X217832380Y-127095238D02*
X216832380Y-127095238D01*
X216975238Y-127190476D01*
X217070476Y-127285714D01*
X217118095Y-127380952D01*
X216832380Y-126190476D02*
X216832380Y-126095238D01*
X216880000Y-126000000D01*
X216927619Y-125952380D01*
X217022857Y-125904761D01*
X217213333Y-125857142D01*
X217451428Y-125857142D01*
X217641904Y-125904761D01*
X217737142Y-125952380D01*
X217784761Y-126000000D01*
X217832380Y-126095238D01*
X217832380Y-126190476D01*
X217784761Y-126285714D01*
X217737142Y-126333333D01*
X217641904Y-126380952D01*
X217451428Y-126428571D01*
X217213333Y-126428571D01*
X217022857Y-126380952D01*
X216927619Y-126333333D01*
X216880000Y-126285714D01*
X216832380Y-126190476D01*
%TO.C,H2*%
X168656095Y-46925380D02*
X168656095Y-45925380D01*
X168656095Y-46401571D02*
X169227523Y-46401571D01*
X169227523Y-46925380D02*
X169227523Y-45925380D01*
X169656095Y-46020619D02*
X169703714Y-45973000D01*
X169798952Y-45925380D01*
X170037047Y-45925380D01*
X170132285Y-45973000D01*
X170179904Y-46020619D01*
X170227523Y-46115857D01*
X170227523Y-46211095D01*
X170179904Y-46353952D01*
X169608476Y-46925380D01*
X170227523Y-46925380D01*
%TO.C,H7*%
X191516095Y-32202380D02*
X191516095Y-31202380D01*
X191516095Y-31678571D02*
X192087523Y-31678571D01*
X192087523Y-32202380D02*
X192087523Y-31202380D01*
X192468476Y-31202380D02*
X193135142Y-31202380D01*
X192706571Y-32202380D01*
%TO.C,H4*%
X191516095Y-46925380D02*
X191516095Y-45925380D01*
X191516095Y-46401571D02*
X192087523Y-46401571D01*
X192087523Y-46925380D02*
X192087523Y-45925380D01*
X192992285Y-46258714D02*
X192992285Y-46925380D01*
X192754190Y-45877761D02*
X192516095Y-46592047D01*
X193135142Y-46592047D01*
%TO.C,H10*%
X168179904Y-32202380D02*
X168179904Y-31202380D01*
X168179904Y-31678571D02*
X168751333Y-31678571D01*
X168751333Y-32202380D02*
X168751333Y-31202380D01*
X169751333Y-32202380D02*
X169179904Y-32202380D01*
X169465619Y-32202380D02*
X169465619Y-31202380D01*
X169370380Y-31345238D01*
X169275142Y-31440476D01*
X169179904Y-31488095D01*
X170370380Y-31202380D02*
X170465619Y-31202380D01*
X170560857Y-31250000D01*
X170608476Y-31297619D01*
X170656095Y-31392857D01*
X170703714Y-31583333D01*
X170703714Y-31821428D01*
X170656095Y-32011904D01*
X170608476Y-32107142D01*
X170560857Y-32154761D01*
X170465619Y-32202380D01*
X170370380Y-32202380D01*
X170275142Y-32154761D01*
X170227523Y-32107142D01*
X170179904Y-32011904D01*
X170132285Y-31821428D01*
X170132285Y-31583333D01*
X170179904Y-31392857D01*
X170227523Y-31297619D01*
X170275142Y-31250000D01*
X170370380Y-31202380D01*
%TD*%
M02*
