%TF.GenerationSoftware,KiCad,Pcbnew,(5.1.6)-1*%
%TF.CreationDate,2020-11-12T15:31:55-08:00*%
%TF.ProjectId,userinterfacepcb,75736572-696e-4746-9572-666163657063,rev?*%
%TF.SameCoordinates,Original*%
%TF.FileFunction,Copper,L1,Top*%
%TF.FilePolarity,Positive*%
%FSLAX46Y46*%
G04 Gerber Fmt 4.6, Leading zero omitted, Abs format (unit mm)*
G04 Created by KiCad (PCBNEW (5.1.6)-1) date 2020-11-12 15:31:55*
%MOMM*%
%LPD*%
G01*
G04 APERTURE LIST*
%TA.AperFunction,ComponentPad*%
%ADD10C,1.600000*%
%TD*%
%TA.AperFunction,ComponentPad*%
%ADD11R,1.600000X1.600000*%
%TD*%
%TA.AperFunction,ComponentPad*%
%ADD12R,2.000000X2.000000*%
%TD*%
%TA.AperFunction,ComponentPad*%
%ADD13C,2.000000*%
%TD*%
%TA.AperFunction,ComponentPad*%
%ADD14R,3.200000X2.000000*%
%TD*%
%TA.AperFunction,WasherPad*%
%ADD15C,2.000000*%
%TD*%
%TA.AperFunction,ComponentPad*%
%ADD16C,2.200000*%
%TD*%
%TA.AperFunction,SMDPad,CuDef*%
%ADD17R,1.060000X0.650000*%
%TD*%
%TA.AperFunction,SMDPad,CuDef*%
%ADD18R,2.000000X1.500000*%
%TD*%
%TA.AperFunction,SMDPad,CuDef*%
%ADD19R,2.000000X3.800000*%
%TD*%
%TA.AperFunction,ComponentPad*%
%ADD20O,1.700000X1.700000*%
%TD*%
%TA.AperFunction,ComponentPad*%
%ADD21R,1.700000X1.700000*%
%TD*%
%TA.AperFunction,ComponentPad*%
%ADD22C,2.600000*%
%TD*%
%TA.AperFunction,ComponentPad*%
%ADD23R,2.600000X2.600000*%
%TD*%
%TA.AperFunction,ComponentPad*%
%ADD24O,2.900000X1.900000*%
%TD*%
%TA.AperFunction,ComponentPad*%
%ADD25O,1.900000X2.900000*%
%TD*%
%TA.AperFunction,ComponentPad*%
%ADD26C,1.300000*%
%TD*%
%TA.AperFunction,ComponentPad*%
%ADD27R,1.300000X1.300000*%
%TD*%
%TA.AperFunction,ViaPad*%
%ADD28C,0.800000*%
%TD*%
%TA.AperFunction,Conductor*%
%ADD29C,0.500000*%
%TD*%
%TA.AperFunction,Conductor*%
%ADD30C,1.000000*%
%TD*%
%TA.AperFunction,Conductor*%
%ADD31C,0.250000*%
%TD*%
G04 APERTURE END LIST*
D10*
%TO.P,C2,2*%
%TO.N,GND*%
X245705000Y-114300000D03*
D11*
%TO.P,C2,1*%
%TO.N,+15V*%
X243205000Y-114300000D03*
%TD*%
%TO.P,C1,2*%
%TO.N,GND*%
%TA.AperFunction,SMDPad,CuDef*%
G36*
G01*
X249485999Y-114496000D02*
X250386001Y-114496000D01*
G75*
G02*
X250636000Y-114745999I0J-249999D01*
G01*
X250636000Y-115396001D01*
G75*
G02*
X250386001Y-115646000I-249999J0D01*
G01*
X249485999Y-115646000D01*
G75*
G02*
X249236000Y-115396001I0J249999D01*
G01*
X249236000Y-114745999D01*
G75*
G02*
X249485999Y-114496000I249999J0D01*
G01*
G37*
%TD.AperFunction*%
%TO.P,C1,1*%
%TO.N,+15V*%
%TA.AperFunction,SMDPad,CuDef*%
G36*
G01*
X249485999Y-112446000D02*
X250386001Y-112446000D01*
G75*
G02*
X250636000Y-112695999I0J-249999D01*
G01*
X250636000Y-113346001D01*
G75*
G02*
X250386001Y-113596000I-249999J0D01*
G01*
X249485999Y-113596000D01*
G75*
G02*
X249236000Y-113346001I0J249999D01*
G01*
X249236000Y-112695999D01*
G75*
G02*
X249485999Y-112446000I249999J0D01*
G01*
G37*
%TD.AperFunction*%
%TD*%
D12*
%TO.P,SW1,A*%
%TO.N,Net-(R6-Pad2)*%
X124587000Y-35598100D03*
D13*
%TO.P,SW1,C*%
%TO.N,GND*%
X124587000Y-38098100D03*
%TO.P,SW1,B*%
%TO.N,Net-(R5-Pad2)*%
X124587000Y-40598100D03*
D14*
%TO.P,SW1,MP*%
%TO.N,N/C*%
X132087000Y-32498100D03*
X132087000Y-43698100D03*
D13*
%TO.P,SW1,S2*%
X139087000Y-35598100D03*
%TO.P,SW1,S1*%
X139087000Y-40598100D03*
%TD*%
%TO.P,R19,2*%
%TO.N,/ENCODERSEL*%
%TA.AperFunction,SMDPad,CuDef*%
G36*
G01*
X116661250Y-80322000D02*
X115748750Y-80322000D01*
G75*
G02*
X115505000Y-80078250I0J243750D01*
G01*
X115505000Y-79590750D01*
G75*
G02*
X115748750Y-79347000I243750J0D01*
G01*
X116661250Y-79347000D01*
G75*
G02*
X116905000Y-79590750I0J-243750D01*
G01*
X116905000Y-80078250D01*
G75*
G02*
X116661250Y-80322000I-243750J0D01*
G01*
G37*
%TD.AperFunction*%
%TO.P,R19,1*%
%TO.N,+3V3*%
%TA.AperFunction,SMDPad,CuDef*%
G36*
G01*
X116661250Y-82197000D02*
X115748750Y-82197000D01*
G75*
G02*
X115505000Y-81953250I0J243750D01*
G01*
X115505000Y-81465750D01*
G75*
G02*
X115748750Y-81222000I243750J0D01*
G01*
X116661250Y-81222000D01*
G75*
G02*
X116905000Y-81465750I0J-243750D01*
G01*
X116905000Y-81953250D01*
G75*
G02*
X116661250Y-82197000I-243750J0D01*
G01*
G37*
%TD.AperFunction*%
%TD*%
%TO.P,R17,2*%
%TO.N,/SELECT*%
%TA.AperFunction,SMDPad,CuDef*%
G36*
G01*
X175335250Y-80322000D02*
X174422750Y-80322000D01*
G75*
G02*
X174179000Y-80078250I0J243750D01*
G01*
X174179000Y-79590750D01*
G75*
G02*
X174422750Y-79347000I243750J0D01*
G01*
X175335250Y-79347000D01*
G75*
G02*
X175579000Y-79590750I0J-243750D01*
G01*
X175579000Y-80078250D01*
G75*
G02*
X175335250Y-80322000I-243750J0D01*
G01*
G37*
%TD.AperFunction*%
%TO.P,R17,1*%
%TO.N,+3V3*%
%TA.AperFunction,SMDPad,CuDef*%
G36*
G01*
X175335250Y-82197000D02*
X174422750Y-82197000D01*
G75*
G02*
X174179000Y-81953250I0J243750D01*
G01*
X174179000Y-81465750D01*
G75*
G02*
X174422750Y-81222000I243750J0D01*
G01*
X175335250Y-81222000D01*
G75*
G02*
X175579000Y-81465750I0J-243750D01*
G01*
X175579000Y-81953250D01*
G75*
G02*
X175335250Y-82197000I-243750J0D01*
G01*
G37*
%TD.AperFunction*%
%TD*%
%TO.P,R16,2*%
%TO.N,/RIGHT*%
%TA.AperFunction,SMDPad,CuDef*%
G36*
G01*
X192988250Y-80449000D02*
X192075750Y-80449000D01*
G75*
G02*
X191832000Y-80205250I0J243750D01*
G01*
X191832000Y-79717750D01*
G75*
G02*
X192075750Y-79474000I243750J0D01*
G01*
X192988250Y-79474000D01*
G75*
G02*
X193232000Y-79717750I0J-243750D01*
G01*
X193232000Y-80205250D01*
G75*
G02*
X192988250Y-80449000I-243750J0D01*
G01*
G37*
%TD.AperFunction*%
%TO.P,R16,1*%
%TO.N,+3V3*%
%TA.AperFunction,SMDPad,CuDef*%
G36*
G01*
X192988250Y-82324000D02*
X192075750Y-82324000D01*
G75*
G02*
X191832000Y-82080250I0J243750D01*
G01*
X191832000Y-81592750D01*
G75*
G02*
X192075750Y-81349000I243750J0D01*
G01*
X192988250Y-81349000D01*
G75*
G02*
X193232000Y-81592750I0J-243750D01*
G01*
X193232000Y-82080250D01*
G75*
G02*
X192988250Y-82324000I-243750J0D01*
G01*
G37*
%TD.AperFunction*%
%TD*%
D15*
%TO.P,U5,*%
%TO.N,*%
X230360000Y-38100000D03*
X221760000Y-38100000D03*
X232385000Y-43100000D03*
X219735000Y-43100000D03*
X232385000Y-33100000D03*
X219735000Y-33100000D03*
D16*
%TO.P,U5,10*%
%TO.N,N/C*%
X229310000Y-48350000D03*
%TO.P,U5,9*%
X229310000Y-43850000D03*
%TO.P,U5,8*%
X222810000Y-48350000D03*
%TO.P,U5,7*%
X222810000Y-43850000D03*
D13*
%TO.P,U5,1*%
%TO.N,GND*%
X234790000Y-40600000D03*
%TO.P,U5,3*%
%TO.N,+3V3*%
X234790000Y-35600000D03*
%TO.P,U5,2*%
%TO.N,/JOYAX2*%
X234790000Y-38100000D03*
%TO.P,U5,4*%
%TO.N,GND*%
X228560000Y-29370000D03*
%TO.P,U5,6*%
%TO.N,+3V3*%
X223560000Y-29370000D03*
%TO.P,U5,5*%
%TO.N,/JOYAX1*%
X226060000Y-29370000D03*
%TD*%
%TO.P,R14,2*%
%TO.N,/DOWN*%
%TA.AperFunction,SMDPad,CuDef*%
G36*
G01*
X175335250Y-93276000D02*
X174422750Y-93276000D01*
G75*
G02*
X174179000Y-93032250I0J243750D01*
G01*
X174179000Y-92544750D01*
G75*
G02*
X174422750Y-92301000I243750J0D01*
G01*
X175335250Y-92301000D01*
G75*
G02*
X175579000Y-92544750I0J-243750D01*
G01*
X175579000Y-93032250D01*
G75*
G02*
X175335250Y-93276000I-243750J0D01*
G01*
G37*
%TD.AperFunction*%
%TO.P,R14,1*%
%TO.N,+3V3*%
%TA.AperFunction,SMDPad,CuDef*%
G36*
G01*
X175335250Y-95151000D02*
X174422750Y-95151000D01*
G75*
G02*
X174179000Y-94907250I0J243750D01*
G01*
X174179000Y-94419750D01*
G75*
G02*
X174422750Y-94176000I243750J0D01*
G01*
X175335250Y-94176000D01*
G75*
G02*
X175579000Y-94419750I0J-243750D01*
G01*
X175579000Y-94907250D01*
G75*
G02*
X175335250Y-95151000I-243750J0D01*
G01*
G37*
%TD.AperFunction*%
%TD*%
%TO.P,SW5,1*%
%TO.N,/RIGHT*%
X202080000Y-78740000D03*
%TO.P,SW5,2*%
%TO.N,GND*%
X202080000Y-83240000D03*
%TO.P,SW5,1*%
%TO.N,/RIGHT*%
X195580000Y-78740000D03*
%TO.P,SW5,2*%
%TO.N,GND*%
X195580000Y-83240000D03*
%TD*%
D17*
%TO.P,U7,5*%
%TO.N,/33VBAR*%
X245280000Y-86040000D03*
%TO.P,U7,4*%
%TO.N,Net-(C7-Pad1)*%
X245280000Y-84140000D03*
%TO.P,U7,3*%
%TO.N,+15V*%
X247480000Y-84140000D03*
%TO.P,U7,2*%
%TO.N,GND*%
X247480000Y-85090000D03*
%TO.P,U7,1*%
%TO.N,+15V*%
X247480000Y-86040000D03*
%TD*%
D13*
%TO.P,SW8,1*%
%TO.N,/ENCODERSEL*%
X125880000Y-78740000D03*
%TO.P,SW8,2*%
%TO.N,GND*%
X125880000Y-83240000D03*
%TO.P,SW8,1*%
%TO.N,/ENCODERSEL*%
X119380000Y-78740000D03*
%TO.P,SW8,2*%
%TO.N,GND*%
X119380000Y-83240000D03*
%TD*%
%TO.P,SW4,1*%
%TO.N,/LEFT*%
X166520000Y-78740000D03*
%TO.P,SW4,2*%
%TO.N,GND*%
X166520000Y-83240000D03*
%TO.P,SW4,1*%
%TO.N,/LEFT*%
X160020000Y-78740000D03*
%TO.P,SW4,2*%
%TO.N,GND*%
X160020000Y-83240000D03*
%TD*%
%TO.P,R18,2*%
%TO.N,/NEXT*%
%TA.AperFunction,SMDPad,CuDef*%
G36*
G01*
X135711250Y-80195000D02*
X134798750Y-80195000D01*
G75*
G02*
X134555000Y-79951250I0J243750D01*
G01*
X134555000Y-79463750D01*
G75*
G02*
X134798750Y-79220000I243750J0D01*
G01*
X135711250Y-79220000D01*
G75*
G02*
X135955000Y-79463750I0J-243750D01*
G01*
X135955000Y-79951250D01*
G75*
G02*
X135711250Y-80195000I-243750J0D01*
G01*
G37*
%TD.AperFunction*%
%TO.P,R18,1*%
%TO.N,+3V3*%
%TA.AperFunction,SMDPad,CuDef*%
G36*
G01*
X135711250Y-82070000D02*
X134798750Y-82070000D01*
G75*
G02*
X134555000Y-81826250I0J243750D01*
G01*
X134555000Y-81338750D01*
G75*
G02*
X134798750Y-81095000I243750J0D01*
G01*
X135711250Y-81095000D01*
G75*
G02*
X135955000Y-81338750I0J-243750D01*
G01*
X135955000Y-81826250D01*
G75*
G02*
X135711250Y-82070000I-243750J0D01*
G01*
G37*
%TD.AperFunction*%
%TD*%
%TO.P,SW3,1*%
%TO.N,/DOWN*%
X184300000Y-91440000D03*
%TO.P,SW3,2*%
%TO.N,GND*%
X184300000Y-95940000D03*
%TO.P,SW3,1*%
%TO.N,/DOWN*%
X177800000Y-91440000D03*
%TO.P,SW3,2*%
%TO.N,GND*%
X177800000Y-95940000D03*
%TD*%
%TO.P,R15,2*%
%TO.N,/LEFT*%
%TA.AperFunction,SMDPad,CuDef*%
G36*
G01*
X157428250Y-80751500D02*
X156515750Y-80751500D01*
G75*
G02*
X156272000Y-80507750I0J243750D01*
G01*
X156272000Y-80020250D01*
G75*
G02*
X156515750Y-79776500I243750J0D01*
G01*
X157428250Y-79776500D01*
G75*
G02*
X157672000Y-80020250I0J-243750D01*
G01*
X157672000Y-80507750D01*
G75*
G02*
X157428250Y-80751500I-243750J0D01*
G01*
G37*
%TD.AperFunction*%
%TO.P,R15,1*%
%TO.N,+3V3*%
%TA.AperFunction,SMDPad,CuDef*%
G36*
G01*
X157428250Y-82626500D02*
X156515750Y-82626500D01*
G75*
G02*
X156272000Y-82382750I0J243750D01*
G01*
X156272000Y-81895250D01*
G75*
G02*
X156515750Y-81651500I243750J0D01*
G01*
X157428250Y-81651500D01*
G75*
G02*
X157672000Y-81895250I0J-243750D01*
G01*
X157672000Y-82382750D01*
G75*
G02*
X157428250Y-82626500I-243750J0D01*
G01*
G37*
%TD.AperFunction*%
%TD*%
%TO.P,SW7,1*%
%TO.N,/NEXT*%
X144930000Y-78740000D03*
%TO.P,SW7,2*%
%TO.N,GND*%
X144930000Y-83240000D03*
%TO.P,SW7,1*%
%TO.N,/NEXT*%
X138430000Y-78740000D03*
%TO.P,SW7,2*%
%TO.N,GND*%
X138430000Y-83240000D03*
%TD*%
%TO.P,SW2,1*%
%TO.N,/UP*%
X184300000Y-66040000D03*
%TO.P,SW2,2*%
%TO.N,GND*%
X184300000Y-70540000D03*
%TO.P,SW2,1*%
%TO.N,/UP*%
X177800000Y-66040000D03*
%TO.P,SW2,2*%
%TO.N,GND*%
X177800000Y-70540000D03*
%TD*%
D18*
%TO.P,U6,1*%
%TO.N,GND*%
X248260000Y-79770000D03*
%TO.P,U6,3*%
%TO.N,+15V*%
X248260000Y-75170000D03*
%TO.P,U6,2*%
%TO.N,+5V*%
X248260000Y-77470000D03*
D19*
X241960000Y-77470000D03*
%TD*%
D13*
%TO.P,SW6,1*%
%TO.N,/SELECT*%
X184300000Y-78740000D03*
%TO.P,SW6,2*%
%TO.N,GND*%
X184300000Y-83240000D03*
%TO.P,SW6,1*%
%TO.N,/SELECT*%
X177800000Y-78740000D03*
%TO.P,SW6,2*%
%TO.N,GND*%
X177800000Y-83240000D03*
%TD*%
%TO.P,C3,2*%
%TO.N,GND*%
%TA.AperFunction,SMDPad,CuDef*%
G36*
G01*
X239210001Y-113605000D02*
X238309999Y-113605000D01*
G75*
G02*
X238060000Y-113355001I0J249999D01*
G01*
X238060000Y-112704999D01*
G75*
G02*
X238309999Y-112455000I249999J0D01*
G01*
X239210001Y-112455000D01*
G75*
G02*
X239460000Y-112704999I0J-249999D01*
G01*
X239460000Y-113355001D01*
G75*
G02*
X239210001Y-113605000I-249999J0D01*
G01*
G37*
%TD.AperFunction*%
%TO.P,C3,1*%
%TO.N,+15V*%
%TA.AperFunction,SMDPad,CuDef*%
G36*
G01*
X239210001Y-115655000D02*
X238309999Y-115655000D01*
G75*
G02*
X238060000Y-115405001I0J249999D01*
G01*
X238060000Y-114754999D01*
G75*
G02*
X238309999Y-114505000I249999J0D01*
G01*
X239210001Y-114505000D01*
G75*
G02*
X239460000Y-114754999I0J-249999D01*
G01*
X239460000Y-115405001D01*
G75*
G02*
X239210001Y-115655000I-249999J0D01*
G01*
G37*
%TD.AperFunction*%
%TD*%
D10*
%TO.P,C11,2*%
%TO.N,GND*%
X246340000Y-67945000D03*
D11*
%TO.P,C11,1*%
%TO.N,+5V*%
X243840000Y-67945000D03*
%TD*%
%TO.P,C12,2*%
%TO.N,GND*%
%TA.AperFunction,SMDPad,CuDef*%
G36*
G01*
X243020001Y-84640000D02*
X242119999Y-84640000D01*
G75*
G02*
X241870000Y-84390001I0J249999D01*
G01*
X241870000Y-83739999D01*
G75*
G02*
X242119999Y-83490000I249999J0D01*
G01*
X243020001Y-83490000D01*
G75*
G02*
X243270000Y-83739999I0J-249999D01*
G01*
X243270000Y-84390001D01*
G75*
G02*
X243020001Y-84640000I-249999J0D01*
G01*
G37*
%TD.AperFunction*%
%TO.P,C12,1*%
%TO.N,/33VBAR*%
%TA.AperFunction,SMDPad,CuDef*%
G36*
G01*
X243020001Y-86690000D02*
X242119999Y-86690000D01*
G75*
G02*
X241870000Y-86440001I0J249999D01*
G01*
X241870000Y-85789999D01*
G75*
G02*
X242119999Y-85540000I249999J0D01*
G01*
X243020001Y-85540000D01*
G75*
G02*
X243270000Y-85789999I0J-249999D01*
G01*
X243270000Y-86440001D01*
G75*
G02*
X243020001Y-86690000I-249999J0D01*
G01*
G37*
%TD.AperFunction*%
%TD*%
%TO.P,C9,2*%
%TO.N,GND*%
%TA.AperFunction,SMDPad,CuDef*%
G36*
G01*
X243020001Y-97340000D02*
X242119999Y-97340000D01*
G75*
G02*
X241870000Y-97090001I0J249999D01*
G01*
X241870000Y-96439999D01*
G75*
G02*
X242119999Y-96190000I249999J0D01*
G01*
X243020001Y-96190000D01*
G75*
G02*
X243270000Y-96439999I0J-249999D01*
G01*
X243270000Y-97090001D01*
G75*
G02*
X243020001Y-97340000I-249999J0D01*
G01*
G37*
%TD.AperFunction*%
%TO.P,C9,1*%
%TO.N,+5VA*%
%TA.AperFunction,SMDPad,CuDef*%
G36*
G01*
X243020001Y-99390000D02*
X242119999Y-99390000D01*
G75*
G02*
X241870000Y-99140001I0J249999D01*
G01*
X241870000Y-98489999D01*
G75*
G02*
X242119999Y-98240000I249999J0D01*
G01*
X243020001Y-98240000D01*
G75*
G02*
X243270000Y-98489999I0J-249999D01*
G01*
X243270000Y-99140001D01*
G75*
G02*
X243020001Y-99390000I-249999J0D01*
G01*
G37*
%TD.AperFunction*%
%TD*%
%TO.P,C6,2*%
%TO.N,GND*%
%TA.AperFunction,SMDPad,CuDef*%
G36*
G01*
X249612999Y-91890000D02*
X250513001Y-91890000D01*
G75*
G02*
X250763000Y-92139999I0J-249999D01*
G01*
X250763000Y-92790001D01*
G75*
G02*
X250513001Y-93040000I-249999J0D01*
G01*
X249612999Y-93040000D01*
G75*
G02*
X249363000Y-92790001I0J249999D01*
G01*
X249363000Y-92139999D01*
G75*
G02*
X249612999Y-91890000I249999J0D01*
G01*
G37*
%TD.AperFunction*%
%TO.P,C6,1*%
%TO.N,Net-(C6-Pad1)*%
%TA.AperFunction,SMDPad,CuDef*%
G36*
G01*
X249612999Y-89840000D02*
X250513001Y-89840000D01*
G75*
G02*
X250763000Y-90089999I0J-249999D01*
G01*
X250763000Y-90740001D01*
G75*
G02*
X250513001Y-90990000I-249999J0D01*
G01*
X249612999Y-90990000D01*
G75*
G02*
X249363000Y-90740001I0J249999D01*
G01*
X249363000Y-90089999D01*
G75*
G02*
X249612999Y-89840000I249999J0D01*
G01*
G37*
%TD.AperFunction*%
%TD*%
%TO.P,C8,2*%
%TO.N,GND*%
%TA.AperFunction,SMDPad,CuDef*%
G36*
G01*
X243020001Y-103690000D02*
X242119999Y-103690000D01*
G75*
G02*
X241870000Y-103440001I0J249999D01*
G01*
X241870000Y-102789999D01*
G75*
G02*
X242119999Y-102540000I249999J0D01*
G01*
X243020001Y-102540000D01*
G75*
G02*
X243270000Y-102789999I0J-249999D01*
G01*
X243270000Y-103440001D01*
G75*
G02*
X243020001Y-103690000I-249999J0D01*
G01*
G37*
%TD.AperFunction*%
%TO.P,C8,1*%
%TO.N,+10V*%
%TA.AperFunction,SMDPad,CuDef*%
G36*
G01*
X243020001Y-105740000D02*
X242119999Y-105740000D01*
G75*
G02*
X241870000Y-105490001I0J249999D01*
G01*
X241870000Y-104839999D01*
G75*
G02*
X242119999Y-104590000I249999J0D01*
G01*
X243020001Y-104590000D01*
G75*
G02*
X243270000Y-104839999I0J-249999D01*
G01*
X243270000Y-105490001D01*
G75*
G02*
X243020001Y-105740000I-249999J0D01*
G01*
G37*
%TD.AperFunction*%
%TD*%
%TO.P,C5,2*%
%TO.N,GND*%
%TA.AperFunction,SMDPad,CuDef*%
G36*
G01*
X249739999Y-98231000D02*
X250640001Y-98231000D01*
G75*
G02*
X250890000Y-98480999I0J-249999D01*
G01*
X250890000Y-99131001D01*
G75*
G02*
X250640001Y-99381000I-249999J0D01*
G01*
X249739999Y-99381000D01*
G75*
G02*
X249490000Y-99131001I0J249999D01*
G01*
X249490000Y-98480999D01*
G75*
G02*
X249739999Y-98231000I249999J0D01*
G01*
G37*
%TD.AperFunction*%
%TO.P,C5,1*%
%TO.N,Net-(C5-Pad1)*%
%TA.AperFunction,SMDPad,CuDef*%
G36*
G01*
X249739999Y-96181000D02*
X250640001Y-96181000D01*
G75*
G02*
X250890000Y-96430999I0J-249999D01*
G01*
X250890000Y-97081001D01*
G75*
G02*
X250640001Y-97331000I-249999J0D01*
G01*
X249739999Y-97331000D01*
G75*
G02*
X249490000Y-97081001I0J249999D01*
G01*
X249490000Y-96430999D01*
G75*
G02*
X249739999Y-96181000I249999J0D01*
G01*
G37*
%TD.AperFunction*%
%TD*%
%TO.P,C4,2*%
%TO.N,GND*%
%TA.AperFunction,SMDPad,CuDef*%
G36*
G01*
X249612999Y-104590000D02*
X250513001Y-104590000D01*
G75*
G02*
X250763000Y-104839999I0J-249999D01*
G01*
X250763000Y-105490001D01*
G75*
G02*
X250513001Y-105740000I-249999J0D01*
G01*
X249612999Y-105740000D01*
G75*
G02*
X249363000Y-105490001I0J249999D01*
G01*
X249363000Y-104839999D01*
G75*
G02*
X249612999Y-104590000I249999J0D01*
G01*
G37*
%TD.AperFunction*%
%TO.P,C4,1*%
%TO.N,Net-(C4-Pad1)*%
%TA.AperFunction,SMDPad,CuDef*%
G36*
G01*
X249612999Y-102540000D02*
X250513001Y-102540000D01*
G75*
G02*
X250763000Y-102789999I0J-249999D01*
G01*
X250763000Y-103440001D01*
G75*
G02*
X250513001Y-103690000I-249999J0D01*
G01*
X249612999Y-103690000D01*
G75*
G02*
X249363000Y-103440001I0J249999D01*
G01*
X249363000Y-102789999D01*
G75*
G02*
X249612999Y-102540000I249999J0D01*
G01*
G37*
%TD.AperFunction*%
%TD*%
%TO.P,C10,2*%
%TO.N,GND*%
%TA.AperFunction,SMDPad,CuDef*%
G36*
G01*
X243147001Y-90990000D02*
X242246999Y-90990000D01*
G75*
G02*
X241997000Y-90740001I0J249999D01*
G01*
X241997000Y-90089999D01*
G75*
G02*
X242246999Y-89840000I249999J0D01*
G01*
X243147001Y-89840000D01*
G75*
G02*
X243397000Y-90089999I0J-249999D01*
G01*
X243397000Y-90740001D01*
G75*
G02*
X243147001Y-90990000I-249999J0D01*
G01*
G37*
%TD.AperFunction*%
%TO.P,C10,1*%
%TO.N,+3.3VA*%
%TA.AperFunction,SMDPad,CuDef*%
G36*
G01*
X243147001Y-93040000D02*
X242246999Y-93040000D01*
G75*
G02*
X241997000Y-92790001I0J249999D01*
G01*
X241997000Y-92139999D01*
G75*
G02*
X242246999Y-91890000I249999J0D01*
G01*
X243147001Y-91890000D01*
G75*
G02*
X243397000Y-92139999I0J-249999D01*
G01*
X243397000Y-92790001D01*
G75*
G02*
X243147001Y-93040000I-249999J0D01*
G01*
G37*
%TD.AperFunction*%
%TD*%
%TO.P,C7,2*%
%TO.N,GND*%
%TA.AperFunction,SMDPad,CuDef*%
G36*
G01*
X249612999Y-85540000D02*
X250513001Y-85540000D01*
G75*
G02*
X250763000Y-85789999I0J-249999D01*
G01*
X250763000Y-86440001D01*
G75*
G02*
X250513001Y-86690000I-249999J0D01*
G01*
X249612999Y-86690000D01*
G75*
G02*
X249363000Y-86440001I0J249999D01*
G01*
X249363000Y-85789999D01*
G75*
G02*
X249612999Y-85540000I249999J0D01*
G01*
G37*
%TD.AperFunction*%
%TO.P,C7,1*%
%TO.N,Net-(C7-Pad1)*%
%TA.AperFunction,SMDPad,CuDef*%
G36*
G01*
X249612999Y-83490000D02*
X250513001Y-83490000D01*
G75*
G02*
X250763000Y-83739999I0J-249999D01*
G01*
X250763000Y-84390001D01*
G75*
G02*
X250513001Y-84640000I-249999J0D01*
G01*
X249612999Y-84640000D01*
G75*
G02*
X249363000Y-84390001I0J249999D01*
G01*
X249363000Y-83739999D01*
G75*
G02*
X249612999Y-83490000I249999J0D01*
G01*
G37*
%TD.AperFunction*%
%TD*%
D20*
%TO.P,J8,6*%
%TO.N,+5V*%
X219710000Y-95250000D03*
%TO.P,J8,5*%
%TO.N,GND*%
X222250000Y-95250000D03*
%TO.P,J8,4*%
%TO.N,/STEPPER1_4*%
X224790000Y-95250000D03*
%TO.P,J8,3*%
%TO.N,/STEPPER1_3*%
X227330000Y-95250000D03*
%TO.P,J8,2*%
%TO.N,/STEPPER1_2*%
X229870000Y-95250000D03*
D21*
%TO.P,J8,1*%
%TO.N,/STEPPER1_1*%
X232410000Y-95250000D03*
%TD*%
D20*
%TO.P,J7,4*%
%TO.N,GND*%
X210820000Y-111760000D03*
%TO.P,J7,3*%
%TO.N,/RX2OUT*%
X210820000Y-109220000D03*
%TO.P,J7,2*%
%TO.N,/TX2OUT*%
X210820000Y-106680000D03*
D21*
%TO.P,J7,1*%
%TO.N,+3V3*%
X210820000Y-104140000D03*
%TD*%
D17*
%TO.P,U4,5*%
%TO.N,+3.3VA*%
X245280000Y-92390000D03*
%TO.P,U4,4*%
%TO.N,Net-(C6-Pad1)*%
X245280000Y-90490000D03*
%TO.P,U4,3*%
%TO.N,+15V*%
X247480000Y-90490000D03*
%TO.P,U4,2*%
%TO.N,GND*%
X247480000Y-91440000D03*
%TO.P,U4,1*%
%TO.N,+15V*%
X247480000Y-92390000D03*
%TD*%
D20*
%TO.P,J6,4*%
%TO.N,GND*%
X223520000Y-111760000D03*
%TO.P,J6,3*%
%TO.N,/DISPLAYSDA*%
X223520000Y-109220000D03*
%TO.P,J6,2*%
%TO.N,/DISPLAYSCL*%
X223520000Y-106680000D03*
D21*
%TO.P,J6,1*%
%TO.N,+3V3*%
X223520000Y-104140000D03*
%TD*%
D17*
%TO.P,U3,5*%
%TO.N,+5VA*%
X245280000Y-98740000D03*
%TO.P,U3,4*%
%TO.N,Net-(C5-Pad1)*%
X245280000Y-96840000D03*
%TO.P,U3,3*%
%TO.N,+15V*%
X247480000Y-96840000D03*
%TO.P,U3,2*%
%TO.N,GND*%
X247480000Y-97790000D03*
%TO.P,U3,1*%
%TO.N,+15V*%
X247480000Y-98740000D03*
%TD*%
%TO.P,U2,5*%
%TO.N,+10V*%
X245280000Y-105090000D03*
%TO.P,U2,4*%
%TO.N,Net-(C4-Pad1)*%
X245280000Y-103190000D03*
%TO.P,U2,3*%
%TO.N,+15V*%
X247480000Y-103190000D03*
%TO.P,U2,2*%
%TO.N,GND*%
X247480000Y-104140000D03*
%TO.P,U2,1*%
%TO.N,+15V*%
X247480000Y-105090000D03*
%TD*%
D22*
%TO.P,J1,2*%
%TO.N,GND*%
X246380000Y-127000000D03*
D23*
%TO.P,J1,1*%
%TO.N,+15V*%
X241300000Y-127000000D03*
%TD*%
D20*
%TO.P,J2,4*%
%TO.N,GND*%
X199390000Y-111760000D03*
%TO.P,J2,3*%
%TO.N,/RX1OUT*%
X199390000Y-109220000D03*
%TO.P,J2,2*%
%TO.N,/TX1OUT*%
X199390000Y-106680000D03*
D21*
%TO.P,J2,1*%
%TO.N,+3V3*%
X199390000Y-104140000D03*
%TD*%
D20*
%TO.P,J4,6*%
%TO.N,+10V*%
X219710000Y-68580000D03*
%TO.P,J4,5*%
%TO.N,/TIA_DIN*%
X222250000Y-68580000D03*
%TO.P,J4,4*%
%TO.N,/TIA_SCLK*%
X224790000Y-68580000D03*
%TO.P,J4,3*%
%TO.N,/TIA_DOUT*%
X227330000Y-68580000D03*
%TO.P,J4,2*%
%TO.N,/TIA_CONVST*%
X229870000Y-68580000D03*
D21*
%TO.P,J4,1*%
%TO.N,GND*%
X232410000Y-68580000D03*
%TD*%
D24*
%TO.P,J3,5*%
%TO.N,Net-(J3-Pad4)*%
X205430000Y-124760000D03*
D25*
X212000000Y-128940000D03*
X198860000Y-128940000D03*
D26*
%TO.P,J3,4*%
X208930000Y-129540000D03*
%TO.P,J3,3*%
%TO.N,Net-(J3-Pad3)*%
X206430000Y-129540000D03*
%TO.P,J3,2*%
%TO.N,Net-(J3-Pad2)*%
X204430000Y-129540000D03*
D27*
%TO.P,J3,1*%
%TO.N,Net-(J3-Pad1)*%
X201930000Y-129540000D03*
%TD*%
D26*
%TO.P,U1,67*%
%TO.N,N/C*%
X118840000Y-116840000D03*
%TO.P,U1,66*%
X118840000Y-119380000D03*
D10*
%TO.P,U1,54*%
X163830000Y-113030000D03*
%TO.P,U1,53*%
X163830000Y-115570000D03*
%TO.P,U1,52*%
X163830000Y-118110000D03*
%TO.P,U1,51*%
X163830000Y-120650000D03*
%TO.P,U1,50*%
X163830000Y-123190000D03*
D26*
%TO.P,U1,62*%
X131080000Y-116928400D03*
%TO.P,U1,63*%
X133080000Y-116928400D03*
%TO.P,U1,64*%
X133080000Y-114928400D03*
%TO.P,U1,61*%
X131080000Y-114928400D03*
%TO.P,U1,65*%
X133080000Y-112928400D03*
D27*
%TO.P,U1,60*%
X131080000Y-112928400D03*
D10*
%TO.P,U1,17*%
%TO.N,/STEPPER3_3*%
X158750000Y-125730000D03*
%TO.P,U1,18*%
%TO.N,/IO2*%
X161290000Y-125730000D03*
%TO.P,U1,19*%
%TO.N,/TIA_SCLK*%
X163830000Y-125730000D03*
%TO.P,U1,20*%
%TO.N,/RX2OUT*%
X166370000Y-125730000D03*
%TO.P,U1,16*%
%TO.N,/STEPPER3_4*%
X156210000Y-125730000D03*
%TO.P,U1,15*%
%TO.N,Net-(R5-Pad1)*%
X153670000Y-125730000D03*
%TO.P,U1,14*%
%TO.N,/IO1*%
X151130000Y-125730000D03*
%TO.P,U1,21*%
%TO.N,/TX2OUT*%
X168910000Y-125730000D03*
%TO.P,U1,22*%
%TO.N,Net-(R5-Pad2)*%
X171450000Y-125730000D03*
%TO.P,U1,23*%
%TO.N,Net-(R6-Pad2)*%
X173990000Y-125730000D03*
%TO.P,U1,24*%
%TO.N,/STEPPER3_1*%
X176530000Y-125730000D03*
%TO.P,U1,25*%
%TO.N,/STEPPER3_2*%
X176530000Y-110490000D03*
%TO.P,U1,26*%
%TO.N,/TIA_CONVST*%
X173990000Y-110490000D03*
%TO.P,U1,27*%
%TO.N,/DOWN*%
X171450000Y-110490000D03*
%TO.P,U1,28*%
%TO.N,/UP*%
X168910000Y-110490000D03*
%TO.P,U1,29*%
%TO.N,/NEXT*%
X166370000Y-110490000D03*
%TO.P,U1,30*%
%TO.N,/TIA_DIN*%
X163830000Y-110490000D03*
%TO.P,U1,31*%
%TO.N,/TIA_DOUT*%
X161290000Y-110490000D03*
%TO.P,U1,32*%
%TO.N,/SELECT*%
X158750000Y-110490000D03*
%TO.P,U1,33*%
%TO.N,/ENCODERSEL*%
X156210000Y-110490000D03*
%TO.P,U1,34*%
%TO.N,GND*%
X153670000Y-110490000D03*
%TO.P,U1,13*%
%TO.N,/PIEZOMOSI*%
X148590000Y-125730000D03*
%TO.P,U1,12*%
%TO.N,/PIEZOCS*%
X146050000Y-125730000D03*
%TO.P,U1,11*%
%TO.N,/STEPPER2_1*%
X143510000Y-125730000D03*
%TO.P,U1,10*%
%TO.N,/STEPPER2_2*%
X140970000Y-125730000D03*
%TO.P,U1,9*%
%TO.N,/STEPPER2_3*%
X138430000Y-125730000D03*
%TO.P,U1,8*%
%TO.N,/STEPPER2_4*%
X135890000Y-125730000D03*
%TO.P,U1,7*%
%TO.N,/STEPPER1_1*%
X133350000Y-125730000D03*
%TO.P,U1,6*%
%TO.N,/STEPPER1_2*%
X130810000Y-125730000D03*
%TO.P,U1,5*%
%TO.N,/STEPPER1_3*%
X128270000Y-125730000D03*
%TO.P,U1,4*%
%TO.N,/STEPPER1_4*%
X125730000Y-125730000D03*
%TO.P,U1,3*%
%TO.N,/TX1OUT*%
X123190000Y-125730000D03*
%TO.P,U1,2*%
%TO.N,/RX1OUT*%
X120650000Y-125730000D03*
D11*
%TO.P,U1,1*%
%TO.N,GND*%
X118110000Y-125730000D03*
D10*
%TO.P,U1,35*%
%TO.N,/PIEZOCLK*%
X151130000Y-110490000D03*
%TO.P,U1,36*%
%TO.N,/RIGHT*%
X148590000Y-110490000D03*
%TO.P,U1,37*%
%TO.N,/LEFT*%
X146050000Y-110490000D03*
%TO.P,U1,38*%
%TO.N,/DISPLAYSCL*%
X143510000Y-110490000D03*
%TO.P,U1,39*%
%TO.N,/DISPLAYSDA*%
X140970000Y-110490000D03*
%TO.P,U1,40*%
%TO.N,/IO3*%
X138430000Y-110490000D03*
%TO.P,U1,41*%
%TO.N,/33VMON*%
X135890000Y-110490000D03*
%TO.P,U1,42*%
%TO.N,/10VMON*%
X133350000Y-110490000D03*
%TO.P,U1,43*%
%TO.N,/5VMON*%
X130810000Y-110490000D03*
%TO.P,U1,44*%
%TO.N,/JOYAX2*%
X128270000Y-110490000D03*
%TO.P,U1,45*%
%TO.N,/JOYAX1*%
X125730000Y-110490000D03*
%TO.P,U1,46*%
%TO.N,+3V3*%
X123190000Y-110490000D03*
%TO.P,U1,47*%
%TO.N,GND*%
X120650000Y-110490000D03*
%TO.P,U1,48*%
%TO.N,+5V*%
X118110000Y-110490000D03*
D11*
%TO.P,U1,55*%
%TO.N,Net-(J3-Pad1)*%
X124409200Y-122679200D03*
D10*
%TO.P,U1,56*%
%TO.N,Net-(J3-Pad2)*%
X126949200Y-122679200D03*
%TO.P,U1,57*%
%TO.N,Net-(J3-Pad3)*%
X129489200Y-122679200D03*
%TO.P,U1,58*%
%TO.N,Net-(J3-Pad4)*%
X132029200Y-122679200D03*
%TO.P,U1,59*%
X134569200Y-122679200D03*
%TO.P,U1,49*%
%TO.N,N/C*%
X120650000Y-113030000D03*
%TD*%
D20*
%TO.P,J5,6*%
%TO.N,/PIEZOCLK*%
X219710000Y-59690000D03*
%TO.P,J5,5*%
%TO.N,/PIEZOMOSI*%
X222250000Y-59690000D03*
%TO.P,J5,4*%
%TO.N,N/C*%
X224790000Y-59690000D03*
%TO.P,J5,3*%
%TO.N,/PIEZOCS*%
X227330000Y-59690000D03*
%TO.P,J5,2*%
%TO.N,GND*%
X229870000Y-59690000D03*
D21*
%TO.P,J5,1*%
%TO.N,+5VA*%
X232410000Y-59690000D03*
%TD*%
%TO.P,R10,2*%
%TO.N,GND*%
%TA.AperFunction,SMDPad,CuDef*%
G36*
G01*
X141172250Y-96578000D02*
X140259750Y-96578000D01*
G75*
G02*
X140016000Y-96334250I0J243750D01*
G01*
X140016000Y-95846750D01*
G75*
G02*
X140259750Y-95603000I243750J0D01*
G01*
X141172250Y-95603000D01*
G75*
G02*
X141416000Y-95846750I0J-243750D01*
G01*
X141416000Y-96334250D01*
G75*
G02*
X141172250Y-96578000I-243750J0D01*
G01*
G37*
%TD.AperFunction*%
%TO.P,R10,1*%
%TO.N,/10VMON*%
%TA.AperFunction,SMDPad,CuDef*%
G36*
G01*
X141172250Y-98453000D02*
X140259750Y-98453000D01*
G75*
G02*
X140016000Y-98209250I0J243750D01*
G01*
X140016000Y-97721750D01*
G75*
G02*
X140259750Y-97478000I243750J0D01*
G01*
X141172250Y-97478000D01*
G75*
G02*
X141416000Y-97721750I0J-243750D01*
G01*
X141416000Y-98209250D01*
G75*
G02*
X141172250Y-98453000I-243750J0D01*
G01*
G37*
%TD.AperFunction*%
%TD*%
%TO.P,R11,2*%
%TO.N,/33VMON*%
%TA.AperFunction,SMDPad,CuDef*%
G36*
G01*
X158928750Y-97478000D02*
X159841250Y-97478000D01*
G75*
G02*
X160085000Y-97721750I0J-243750D01*
G01*
X160085000Y-98209250D01*
G75*
G02*
X159841250Y-98453000I-243750J0D01*
G01*
X158928750Y-98453000D01*
G75*
G02*
X158685000Y-98209250I0J243750D01*
G01*
X158685000Y-97721750D01*
G75*
G02*
X158928750Y-97478000I243750J0D01*
G01*
G37*
%TD.AperFunction*%
%TO.P,R11,1*%
%TO.N,+3.3VA*%
%TA.AperFunction,SMDPad,CuDef*%
G36*
G01*
X158928750Y-95603000D02*
X159841250Y-95603000D01*
G75*
G02*
X160085000Y-95846750I0J-243750D01*
G01*
X160085000Y-96334250D01*
G75*
G02*
X159841250Y-96578000I-243750J0D01*
G01*
X158928750Y-96578000D01*
G75*
G02*
X158685000Y-96334250I0J243750D01*
G01*
X158685000Y-95846750D01*
G75*
G02*
X158928750Y-95603000I243750J0D01*
G01*
G37*
%TD.AperFunction*%
%TD*%
D20*
%TO.P,J9,6*%
%TO.N,+5V*%
X219710000Y-86360000D03*
%TO.P,J9,5*%
%TO.N,GND*%
X222250000Y-86360000D03*
%TO.P,J9,4*%
%TO.N,/STEPPER2_4*%
X224790000Y-86360000D03*
%TO.P,J9,3*%
%TO.N,/STEPPER2_3*%
X227330000Y-86360000D03*
%TO.P,J9,2*%
%TO.N,/STEPPER2_2*%
X229870000Y-86360000D03*
D21*
%TO.P,J9,1*%
%TO.N,/STEPPER2_1*%
X232410000Y-86360000D03*
%TD*%
D20*
%TO.P,J12,4*%
%TO.N,/DISPLAYSCL*%
X257810000Y-117348000D03*
%TO.P,J12,3*%
%TO.N,/DISPLAYSDA*%
X260350000Y-117348000D03*
%TO.P,J12,2*%
%TO.N,GND*%
X262890000Y-117348000D03*
D21*
%TO.P,J12,1*%
%TO.N,/33VBAR*%
X265430000Y-117348000D03*
%TD*%
%TO.P,R8,2*%
%TO.N,GND*%
%TA.AperFunction,SMDPad,CuDef*%
G36*
G01*
X121741250Y-96578000D02*
X120828750Y-96578000D01*
G75*
G02*
X120585000Y-96334250I0J243750D01*
G01*
X120585000Y-95846750D01*
G75*
G02*
X120828750Y-95603000I243750J0D01*
G01*
X121741250Y-95603000D01*
G75*
G02*
X121985000Y-95846750I0J-243750D01*
G01*
X121985000Y-96334250D01*
G75*
G02*
X121741250Y-96578000I-243750J0D01*
G01*
G37*
%TD.AperFunction*%
%TO.P,R8,1*%
%TO.N,/5VMON*%
%TA.AperFunction,SMDPad,CuDef*%
G36*
G01*
X121741250Y-98453000D02*
X120828750Y-98453000D01*
G75*
G02*
X120585000Y-98209250I0J243750D01*
G01*
X120585000Y-97721750D01*
G75*
G02*
X120828750Y-97478000I243750J0D01*
G01*
X121741250Y-97478000D01*
G75*
G02*
X121985000Y-97721750I0J-243750D01*
G01*
X121985000Y-98209250D01*
G75*
G02*
X121741250Y-98453000I-243750J0D01*
G01*
G37*
%TD.AperFunction*%
%TD*%
D20*
%TO.P,J11,6*%
%TO.N,+5V*%
X219710000Y-77470000D03*
%TO.P,J11,5*%
%TO.N,GND*%
X222250000Y-77470000D03*
%TO.P,J11,4*%
%TO.N,/STEPPER3_4*%
X224790000Y-77470000D03*
%TO.P,J11,3*%
%TO.N,/STEPPER3_3*%
X227330000Y-77470000D03*
%TO.P,J11,2*%
%TO.N,/STEPPER3_2*%
X229870000Y-77470000D03*
D21*
%TO.P,J11,1*%
%TO.N,/STEPPER3_1*%
X232410000Y-77470000D03*
%TD*%
%TO.P,R6,2*%
%TO.N,Net-(R6-Pad2)*%
%TA.AperFunction,SMDPad,CuDef*%
G36*
G01*
X116534250Y-35745000D02*
X115621750Y-35745000D01*
G75*
G02*
X115378000Y-35501250I0J243750D01*
G01*
X115378000Y-35013750D01*
G75*
G02*
X115621750Y-34770000I243750J0D01*
G01*
X116534250Y-34770000D01*
G75*
G02*
X116778000Y-35013750I0J-243750D01*
G01*
X116778000Y-35501250D01*
G75*
G02*
X116534250Y-35745000I-243750J0D01*
G01*
G37*
%TD.AperFunction*%
%TO.P,R6,1*%
%TO.N,Net-(R5-Pad1)*%
%TA.AperFunction,SMDPad,CuDef*%
G36*
G01*
X116534250Y-37620000D02*
X115621750Y-37620000D01*
G75*
G02*
X115378000Y-37376250I0J243750D01*
G01*
X115378000Y-36888750D01*
G75*
G02*
X115621750Y-36645000I243750J0D01*
G01*
X116534250Y-36645000D01*
G75*
G02*
X116778000Y-36888750I0J-243750D01*
G01*
X116778000Y-37376250D01*
G75*
G02*
X116534250Y-37620000I-243750J0D01*
G01*
G37*
%TD.AperFunction*%
%TD*%
%TO.P,R13,2*%
%TO.N,/UP*%
%TA.AperFunction,SMDPad,CuDef*%
G36*
G01*
X175208250Y-68003000D02*
X174295750Y-68003000D01*
G75*
G02*
X174052000Y-67759250I0J243750D01*
G01*
X174052000Y-67271750D01*
G75*
G02*
X174295750Y-67028000I243750J0D01*
G01*
X175208250Y-67028000D01*
G75*
G02*
X175452000Y-67271750I0J-243750D01*
G01*
X175452000Y-67759250D01*
G75*
G02*
X175208250Y-68003000I-243750J0D01*
G01*
G37*
%TD.AperFunction*%
%TO.P,R13,1*%
%TO.N,+3V3*%
%TA.AperFunction,SMDPad,CuDef*%
G36*
G01*
X175208250Y-69878000D02*
X174295750Y-69878000D01*
G75*
G02*
X174052000Y-69634250I0J243750D01*
G01*
X174052000Y-69146750D01*
G75*
G02*
X174295750Y-68903000I243750J0D01*
G01*
X175208250Y-68903000D01*
G75*
G02*
X175452000Y-69146750I0J-243750D01*
G01*
X175452000Y-69634250D01*
G75*
G02*
X175208250Y-69878000I-243750J0D01*
G01*
G37*
%TD.AperFunction*%
%TD*%
%TO.P,R5,2*%
%TO.N,Net-(R5-Pad2)*%
%TA.AperFunction,SMDPad,CuDef*%
G36*
G01*
X116534250Y-39555000D02*
X115621750Y-39555000D01*
G75*
G02*
X115378000Y-39311250I0J243750D01*
G01*
X115378000Y-38823750D01*
G75*
G02*
X115621750Y-38580000I243750J0D01*
G01*
X116534250Y-38580000D01*
G75*
G02*
X116778000Y-38823750I0J-243750D01*
G01*
X116778000Y-39311250D01*
G75*
G02*
X116534250Y-39555000I-243750J0D01*
G01*
G37*
%TD.AperFunction*%
%TO.P,R5,1*%
%TO.N,Net-(R5-Pad1)*%
%TA.AperFunction,SMDPad,CuDef*%
G36*
G01*
X116534250Y-41430000D02*
X115621750Y-41430000D01*
G75*
G02*
X115378000Y-41186250I0J243750D01*
G01*
X115378000Y-40698750D01*
G75*
G02*
X115621750Y-40455000I243750J0D01*
G01*
X116534250Y-40455000D01*
G75*
G02*
X116778000Y-40698750I0J-243750D01*
G01*
X116778000Y-41186250D01*
G75*
G02*
X116534250Y-41430000I-243750J0D01*
G01*
G37*
%TD.AperFunction*%
%TD*%
%TO.P,R9,2*%
%TO.N,/10VMON*%
%TA.AperFunction,SMDPad,CuDef*%
G36*
G01*
X142418750Y-97478000D02*
X143331250Y-97478000D01*
G75*
G02*
X143575000Y-97721750I0J-243750D01*
G01*
X143575000Y-98209250D01*
G75*
G02*
X143331250Y-98453000I-243750J0D01*
G01*
X142418750Y-98453000D01*
G75*
G02*
X142175000Y-98209250I0J243750D01*
G01*
X142175000Y-97721750D01*
G75*
G02*
X142418750Y-97478000I243750J0D01*
G01*
G37*
%TD.AperFunction*%
%TO.P,R9,1*%
%TO.N,+10V*%
%TA.AperFunction,SMDPad,CuDef*%
G36*
G01*
X142418750Y-95603000D02*
X143331250Y-95603000D01*
G75*
G02*
X143575000Y-95846750I0J-243750D01*
G01*
X143575000Y-96334250D01*
G75*
G02*
X143331250Y-96578000I-243750J0D01*
G01*
X142418750Y-96578000D01*
G75*
G02*
X142175000Y-96334250I0J243750D01*
G01*
X142175000Y-95846750D01*
G75*
G02*
X142418750Y-95603000I243750J0D01*
G01*
G37*
%TD.AperFunction*%
%TD*%
%TO.P,R12,2*%
%TO.N,GND*%
%TA.AperFunction,SMDPad,CuDef*%
G36*
G01*
X157682250Y-96578000D02*
X156769750Y-96578000D01*
G75*
G02*
X156526000Y-96334250I0J243750D01*
G01*
X156526000Y-95846750D01*
G75*
G02*
X156769750Y-95603000I243750J0D01*
G01*
X157682250Y-95603000D01*
G75*
G02*
X157926000Y-95846750I0J-243750D01*
G01*
X157926000Y-96334250D01*
G75*
G02*
X157682250Y-96578000I-243750J0D01*
G01*
G37*
%TD.AperFunction*%
%TO.P,R12,1*%
%TO.N,/33VMON*%
%TA.AperFunction,SMDPad,CuDef*%
G36*
G01*
X157682250Y-98453000D02*
X156769750Y-98453000D01*
G75*
G02*
X156526000Y-98209250I0J243750D01*
G01*
X156526000Y-97721750D01*
G75*
G02*
X156769750Y-97478000I243750J0D01*
G01*
X157682250Y-97478000D01*
G75*
G02*
X157926000Y-97721750I0J-243750D01*
G01*
X157926000Y-98209250D01*
G75*
G02*
X157682250Y-98453000I-243750J0D01*
G01*
G37*
%TD.AperFunction*%
%TD*%
D20*
%TO.P,J13,4*%
%TO.N,/DISPLAYSDA*%
X184912000Y-27051000D03*
%TO.P,J13,3*%
%TO.N,/DISPLAYSCL*%
X182372000Y-27051000D03*
%TO.P,J13,2*%
%TO.N,+3V3*%
X179832000Y-27051000D03*
D21*
%TO.P,J13,1*%
%TO.N,GND*%
X177292000Y-27051000D03*
%TD*%
%TO.P,R7,2*%
%TO.N,/5VMON*%
%TA.AperFunction,SMDPad,CuDef*%
G36*
G01*
X122987750Y-97478000D02*
X123900250Y-97478000D01*
G75*
G02*
X124144000Y-97721750I0J-243750D01*
G01*
X124144000Y-98209250D01*
G75*
G02*
X123900250Y-98453000I-243750J0D01*
G01*
X122987750Y-98453000D01*
G75*
G02*
X122744000Y-98209250I0J243750D01*
G01*
X122744000Y-97721750D01*
G75*
G02*
X122987750Y-97478000I243750J0D01*
G01*
G37*
%TD.AperFunction*%
%TO.P,R7,1*%
%TO.N,+5VA*%
%TA.AperFunction,SMDPad,CuDef*%
G36*
G01*
X122987750Y-95603000D02*
X123900250Y-95603000D01*
G75*
G02*
X124144000Y-95846750I0J-243750D01*
G01*
X124144000Y-96334250D01*
G75*
G02*
X123900250Y-96578000I-243750J0D01*
G01*
X122987750Y-96578000D01*
G75*
G02*
X122744000Y-96334250I0J243750D01*
G01*
X122744000Y-95846750D01*
G75*
G02*
X122987750Y-95603000I243750J0D01*
G01*
G37*
%TD.AperFunction*%
%TD*%
D20*
%TO.P,J10,12*%
%TO.N,GND*%
X232410000Y-125730000D03*
%TO.P,J10,11*%
X232410000Y-128270000D03*
%TO.P,J10,10*%
X229870000Y-125730000D03*
%TO.P,J10,9*%
%TO.N,/33VBAR*%
X229870000Y-128270000D03*
%TO.P,J10,8*%
%TO.N,GND*%
X227330000Y-125730000D03*
%TO.P,J10,7*%
%TO.N,+5V*%
X227330000Y-128270000D03*
%TO.P,J10,6*%
%TO.N,/IO3*%
X224790000Y-125730000D03*
%TO.P,J10,5*%
%TO.N,+5VA*%
X224790000Y-128270000D03*
%TO.P,J10,4*%
%TO.N,/IO2*%
X222250000Y-125730000D03*
%TO.P,J10,3*%
%TO.N,+3.3VA*%
X222250000Y-128270000D03*
%TO.P,J10,2*%
%TO.N,/IO1*%
X219710000Y-125730000D03*
D21*
%TO.P,J10,1*%
%TO.N,+10V*%
X219710000Y-128270000D03*
%TD*%
D28*
%TO.N,GND*%
X119961000Y-96075900D03*
X157226000Y-94998200D03*
X139349300Y-95993600D03*
X246253000Y-104140000D03*
X246253000Y-97790000D03*
X246253000Y-85090000D03*
X249936000Y-116586000D03*
X251705000Y-105165000D03*
X238760000Y-111506000D03*
X246253000Y-91440000D03*
X242570000Y-101600000D03*
X242570000Y-95123000D03*
X250698000Y-79756000D03*
X242570000Y-82677000D03*
X242697000Y-88900000D03*
X251841000Y-86106000D03*
X251841000Y-98806000D03*
X251832000Y-92465000D03*
X230505000Y-66548000D03*
X204343000Y-110490000D03*
X227203000Y-111760000D03*
X257556000Y-110998000D03*
X156591000Y-104902000D03*
X147828000Y-102870000D03*
X181610000Y-75311000D03*
X177038000Y-75438000D03*
X168402000Y-75946000D03*
X172339000Y-75946000D03*
X217424000Y-63119000D03*
X223139000Y-63246000D03*
X118237000Y-121285000D03*
X117475000Y-107569000D03*
%TO.N,+15V*%
X243797000Y-94826000D03*
X243713000Y-88288000D03*
X245491000Y-81384000D03*
X245491000Y-73025000D03*
X243670000Y-101303000D03*
%TO.N,+10V*%
X211232200Y-101779000D03*
X221937000Y-103207700D03*
%TO.N,+5VA*%
X240696700Y-95908500D03*
%TO.N,+3V3*%
X205634300Y-83720000D03*
%TO.N,Net-(J3-Pad2)*%
X156973800Y-121914200D03*
%TO.N,Net-(J3-Pad1)*%
X136094200Y-123613400D03*
%TO.N,/PIEZOCLK*%
X171481100Y-108172700D03*
%TO.N,/PIEZOCS*%
X237098100Y-126134800D03*
%TO.N,/DISPLAYSDA*%
X216406600Y-113459700D03*
%TO.N,/DISPLAYSCL*%
X215304800Y-113119600D03*
X163879800Y-78073000D03*
%TO.N,/RX2OUT*%
X177480500Y-114085800D03*
%TO.N,/TX2OUT*%
X181572400Y-112765800D03*
%TO.N,/STEPPER1_4*%
X183723100Y-98673100D03*
%TO.N,/STEPPER1_2*%
X243221100Y-128329700D03*
%TO.N,/STEPPER1_1*%
X233246800Y-118415600D03*
%TO.N,/STEPPER2_4*%
X208361200Y-92276500D03*
%TO.N,/STEPPER2_3*%
X235174600Y-119614700D03*
%TO.N,/STEPPER2_2*%
X187028500Y-97972800D03*
%TO.N,/STEPPER2_1*%
X235480100Y-121378700D03*
%TO.N,/STEPPER3_4*%
X201247700Y-88618300D03*
%TO.N,/STEPPER3_3*%
X235461300Y-124614100D03*
%TO.N,/STEPPER3_2*%
X195713000Y-91307000D03*
%TO.N,/STEPPER3_1*%
X209502700Y-91180900D03*
%TO.N,/33VMON*%
X149600000Y-98834000D03*
%TO.N,/NEXT*%
X166409600Y-97509000D03*
%TO.N,/TIA_DIN*%
X168821900Y-97509000D03*
%TO.N,/TIA_DOUT*%
X165618700Y-98803000D03*
%TO.N,/TIA_CONVST*%
X195600900Y-88197900D03*
%TD*%
D29*
%TO.N,GND*%
X119961000Y-96075900D02*
X121270400Y-96075900D01*
X121270400Y-96075900D02*
X121285000Y-96090500D01*
X157226000Y-96090500D02*
X157226000Y-94998200D01*
X139349300Y-95993600D02*
X140619100Y-95993600D01*
X140619100Y-95993600D02*
X140716000Y-96090500D01*
D30*
X249936000Y-115071000D02*
X249936000Y-116586000D01*
X248260000Y-79770000D02*
X250684000Y-79770000D01*
X250684000Y-79770000D02*
X250698000Y-79756000D01*
D29*
X247480000Y-91440000D02*
X246253000Y-91440000D01*
X247480000Y-104140000D02*
X246253000Y-104140000D01*
D30*
X242570000Y-103115000D02*
X242570000Y-101600000D01*
X250190000Y-98806000D02*
X251841000Y-98806000D01*
X242697000Y-90415000D02*
X242697000Y-88900000D01*
X250063000Y-86115000D02*
X251832000Y-86115000D01*
X251832000Y-86115000D02*
X251841000Y-86106000D01*
D29*
X247480000Y-97790000D02*
X246253000Y-97790000D01*
D30*
X250063000Y-105165000D02*
X251705000Y-105165000D01*
X242570000Y-96765000D02*
X242570000Y-95123000D01*
X238760000Y-113030000D02*
X238760000Y-111506000D01*
X250063000Y-92465000D02*
X251832000Y-92465000D01*
X242570000Y-84065000D02*
X242570000Y-82677000D01*
D29*
X247480000Y-85090000D02*
X246253000Y-85090000D01*
X246253000Y-91440000D02*
X246260000Y-91433000D01*
D30*
X229870000Y-59690000D02*
X229870000Y-65913000D01*
X229870000Y-65913000D02*
X230505000Y-66548000D01*
X230505000Y-66675000D02*
X232410000Y-68580000D01*
X230505000Y-66548000D02*
X230505000Y-66675000D01*
X199390000Y-111760000D02*
X203073000Y-111760000D01*
X203073000Y-111760000D02*
X204343000Y-110490000D01*
X223520000Y-111760000D02*
X227203000Y-111760000D01*
X262890000Y-117348000D02*
X262890000Y-116332000D01*
X262890000Y-116332000D02*
X257556000Y-110998000D01*
X149860000Y-104902000D02*
X147828000Y-102870000D01*
X156591000Y-104902000D02*
X149860000Y-104902000D01*
X177800000Y-70540000D02*
X184300000Y-70540000D01*
X177165000Y-75311000D02*
X177038000Y-75438000D01*
X181610000Y-75311000D02*
X177165000Y-75311000D01*
X177800000Y-83240000D02*
X195580000Y-83240000D01*
X168402000Y-75946000D02*
X172339000Y-75946000D01*
X236490001Y-34688999D02*
X236490001Y-38899999D01*
X231171002Y-29370000D02*
X236490001Y-34688999D01*
X236490001Y-38899999D02*
X234790000Y-40600000D01*
X228560000Y-29370000D02*
X231171002Y-29370000D01*
X217551000Y-63246000D02*
X217424000Y-63119000D01*
X223139000Y-63246000D02*
X217551000Y-63246000D01*
D29*
X160020000Y-83240000D02*
X166520000Y-83240000D01*
D30*
X117489999Y-113650001D02*
X120650000Y-110490000D01*
X118191999Y-120730001D02*
X117489999Y-120028001D01*
X117489999Y-120028001D02*
X117489999Y-113650001D01*
X118571001Y-120730001D02*
X118191999Y-120730001D01*
X118636999Y-120795999D02*
X118571001Y-120730001D01*
X118636999Y-120885001D02*
X118636999Y-120795999D01*
X118237000Y-121285000D02*
X118636999Y-120885001D01*
X120650000Y-110490000D02*
X120396000Y-110490000D01*
X120396000Y-110490000D02*
X117475000Y-107569000D01*
D29*
%TO.N,+15V*%
X247480000Y-92390000D02*
X248195000Y-92390000D01*
X248195000Y-92390000D02*
X248460000Y-92125000D01*
X248460000Y-92125000D02*
X248460000Y-90755000D01*
X248460000Y-90755000D02*
X248195000Y-90490000D01*
X248195000Y-90490000D02*
X247480000Y-90490000D01*
X247480000Y-98740000D02*
X248195000Y-98740000D01*
X248195000Y-98740000D02*
X248460000Y-98475000D01*
X248460000Y-98475000D02*
X248460000Y-97105000D01*
X248460000Y-97105000D02*
X248195000Y-96840000D01*
X248195000Y-96840000D02*
X247480000Y-96840000D01*
D30*
X238760000Y-115080000D02*
X242425000Y-115080000D01*
X242425000Y-115080000D02*
X243205000Y-114300000D01*
X243205000Y-114300000D02*
X244705000Y-115800000D01*
X244705000Y-115800000D02*
X246425000Y-115800000D01*
X246425000Y-115800000D02*
X249204000Y-113021000D01*
X249204000Y-113021000D02*
X249936000Y-113021000D01*
D29*
X247480000Y-96840000D02*
X245466000Y-94826000D01*
X245466000Y-94826000D02*
X243797000Y-94826000D01*
X247480000Y-84140000D02*
X247480000Y-83373000D01*
X247480000Y-83373000D02*
X245491000Y-81384000D01*
X247480000Y-103190000D02*
X248195000Y-103190000D01*
X248195000Y-103190000D02*
X248460000Y-103455000D01*
X248460000Y-103455000D02*
X248460000Y-104825000D01*
X248460000Y-104825000D02*
X248195000Y-105090000D01*
X248195000Y-105090000D02*
X247480000Y-105090000D01*
X247480000Y-90490000D02*
X245278000Y-88288000D01*
X245278000Y-88288000D02*
X243713000Y-88288000D01*
X247480000Y-103190000D02*
X245593000Y-101303000D01*
X245593000Y-101303000D02*
X243670000Y-101303000D01*
X247480000Y-86040000D02*
X248195000Y-86040000D01*
X248195000Y-86040000D02*
X248460000Y-85775000D01*
X248460000Y-85775000D02*
X248460000Y-84405000D01*
X248460000Y-84405000D02*
X248195000Y-84140000D01*
X248195000Y-84140000D02*
X247480000Y-84140000D01*
D30*
X248260000Y-75170000D02*
X247636000Y-75170000D01*
X247636000Y-75170000D02*
X245491000Y-73025000D01*
D31*
%TO.N,Net-(C4-Pad1)*%
X245280000Y-103190000D02*
X244455000Y-104015000D01*
X244455000Y-104015000D02*
X241882000Y-104015000D01*
X241882000Y-104015000D02*
X241545000Y-103678000D01*
X241545000Y-103678000D02*
X241545000Y-101458000D01*
X241545000Y-101458000D02*
X242425000Y-100578000D01*
X242425000Y-100578000D02*
X246396000Y-100578000D01*
X246396000Y-100578000D02*
X248942000Y-103124000D01*
X248942000Y-103124000D02*
X250054000Y-103124000D01*
X250054000Y-103124000D02*
X250063000Y-103115000D01*
%TO.N,Net-(C5-Pad1)*%
X245280000Y-96840000D02*
X244455000Y-97665000D01*
X244455000Y-97665000D02*
X241882000Y-97665000D01*
X241882000Y-97665000D02*
X241545000Y-97328200D01*
X241545000Y-97328200D02*
X241545000Y-94981300D01*
X241545000Y-94981300D02*
X242425000Y-94101000D01*
X242425000Y-94101000D02*
X247535000Y-94101000D01*
X247535000Y-94101000D02*
X250190000Y-96756000D01*
%TO.N,Net-(C6-Pad1)*%
X245280000Y-90490000D02*
X244455000Y-91315000D01*
X244455000Y-91315000D02*
X242009000Y-91315000D01*
X242009000Y-91315000D02*
X241672000Y-90978200D01*
X241672000Y-90978200D02*
X241672000Y-88758300D01*
X241672000Y-88758300D02*
X242867000Y-87563000D01*
X242867000Y-87563000D02*
X247211000Y-87563000D01*
X247211000Y-87563000D02*
X250063000Y-90415000D01*
%TO.N,Net-(C7-Pad1)*%
X245280000Y-84140000D02*
X244766000Y-83626000D01*
X244766000Y-83626000D02*
X244766000Y-81036000D01*
X244766000Y-81036000D02*
X245143000Y-80659000D01*
X245143000Y-80659000D02*
X246657000Y-80659000D01*
X246657000Y-80659000D02*
X250063000Y-84065000D01*
D29*
%TO.N,+10V*%
X219710000Y-128270000D02*
X218403900Y-126963900D01*
X218403900Y-126963900D02*
X218403900Y-114646000D01*
X218403900Y-114646000D02*
X218657500Y-114392400D01*
X218657500Y-114392400D02*
X218657500Y-106487800D01*
X218657500Y-106487800D02*
X221937300Y-103208000D01*
X142875000Y-96090500D02*
X148563500Y-101779000D01*
X148563500Y-101779000D02*
X211232200Y-101779000D01*
X221937300Y-103208000D02*
X221937000Y-103207700D01*
X221937300Y-103208000D02*
X222305700Y-102839600D01*
X222305700Y-102839600D02*
X228050200Y-102839600D01*
X228050200Y-102839600D02*
X230338100Y-105127500D01*
X230338100Y-105127500D02*
X242607500Y-105127500D01*
D30*
X242607500Y-105127500D02*
X242570000Y-105165000D01*
X245280000Y-105090000D02*
X242645000Y-105090000D01*
X242645000Y-105090000D02*
X242607500Y-105127500D01*
D29*
%TO.N,+5VA*%
X123444000Y-96090500D02*
X124392000Y-95142500D01*
X124392000Y-95142500D02*
X144662200Y-95142500D01*
X144662200Y-95142500D02*
X150573600Y-101053900D01*
X150573600Y-101053900D02*
X210329700Y-101053900D01*
X210329700Y-101053900D02*
X210505500Y-100878100D01*
X210505500Y-100878100D02*
X212014200Y-100878100D01*
X212014200Y-100878100D02*
X216981300Y-105845200D01*
X224790000Y-128270000D02*
X222786600Y-130273400D01*
X222786600Y-130273400D02*
X218329000Y-130273400D01*
X218329000Y-130273400D02*
X216981300Y-128925700D01*
X216981300Y-128925700D02*
X216981300Y-114087600D01*
X216981300Y-114087600D02*
X217256900Y-113812000D01*
X217256900Y-113812000D02*
X217256900Y-106120800D01*
X217256900Y-106120800D02*
X216981300Y-105845200D01*
X240696700Y-97378500D02*
X237471900Y-100603300D01*
X237471900Y-100603300D02*
X222223200Y-100603300D01*
X222223200Y-100603300D02*
X216981300Y-105845200D01*
X240696700Y-97378500D02*
X240696700Y-95908500D01*
X242607500Y-98777500D02*
X242095700Y-98777500D01*
X242095700Y-98777500D02*
X240696700Y-97378500D01*
D30*
X242607500Y-98777500D02*
X242570000Y-98815000D01*
X245280000Y-98740000D02*
X242645000Y-98740000D01*
X242645000Y-98740000D02*
X242607500Y-98777500D01*
D29*
%TO.N,+3.3VA*%
X159385000Y-96090500D02*
X163648100Y-100353600D01*
X163648100Y-100353600D02*
X208913800Y-100353600D01*
X208913800Y-100353600D02*
X209657200Y-99610200D01*
X209657200Y-99610200D02*
X235551800Y-99610200D01*
X235551800Y-99610200D02*
X242697000Y-92465000D01*
X222250000Y-128270000D02*
X220949700Y-129570300D01*
X220949700Y-129570300D02*
X218621900Y-129570300D01*
X218621900Y-129570300D02*
X217681700Y-128630100D01*
X217681700Y-128630100D02*
X217681700Y-114377700D01*
X217681700Y-114377700D02*
X217957200Y-114102200D01*
X217957200Y-114102200D02*
X217957200Y-105859800D01*
X217957200Y-105859800D02*
X221725200Y-102091800D01*
X221725200Y-102091800D02*
X239248800Y-102091800D01*
X239248800Y-102091800D02*
X241418600Y-99922000D01*
X241418600Y-99922000D02*
X252149200Y-99922000D01*
X252149200Y-99922000D02*
X252797200Y-99274000D01*
X252797200Y-99274000D02*
X252797200Y-97501000D01*
X252797200Y-97501000D02*
X248787600Y-93491400D01*
X248787600Y-93491400D02*
X245650300Y-93491400D01*
X245650300Y-93491400D02*
X244548900Y-92390000D01*
D30*
X244548900Y-92390000D02*
X242772000Y-92390000D01*
X242772000Y-92390000D02*
X242697000Y-92465000D01*
X245280000Y-92390000D02*
X244548900Y-92390000D01*
%TO.N,+5V*%
X241960000Y-77470000D02*
X240410000Y-75920000D01*
X240410000Y-75920000D02*
X221260000Y-75920000D01*
X221260000Y-75920000D02*
X219710000Y-77470000D01*
X241960000Y-77470000D02*
X248260000Y-77470000D01*
X241960000Y-77470000D02*
X241960000Y-69825000D01*
X241960000Y-69825000D02*
X243840000Y-67945000D01*
D29*
%TO.N,+3V3*%
X205634300Y-83720000D02*
X203703900Y-81789600D01*
X203703900Y-81789600D02*
X192578900Y-81789600D01*
X192578900Y-81789600D02*
X192532000Y-81836500D01*
X174879000Y-81709500D02*
X192405000Y-81709500D01*
X192405000Y-81709500D02*
X192532000Y-81836500D01*
X173721900Y-81709500D02*
X174879000Y-81709500D01*
X173721900Y-81709500D02*
X173721900Y-70420600D01*
X173721900Y-70420600D02*
X174752000Y-69390500D01*
X173721900Y-81763200D02*
X173721900Y-81709500D01*
X156972000Y-82139000D02*
X157347800Y-81763200D01*
X157347800Y-81763200D02*
X173721900Y-81763200D01*
X173721900Y-81763200D02*
X173721900Y-93506400D01*
X173721900Y-93506400D02*
X174879000Y-94663500D01*
X223560000Y-29370000D02*
X229790000Y-35600000D01*
X229790000Y-35600000D02*
X234790000Y-35600000D01*
X181102000Y-29370000D02*
X223560000Y-29370000D01*
X134049900Y-80377400D02*
X134049900Y-79169200D01*
X134049900Y-79169200D02*
X135929700Y-77289400D01*
X135929700Y-77289400D02*
X152122400Y-77289400D01*
X152122400Y-77289400D02*
X156972000Y-82139000D01*
X174752000Y-69390500D02*
X173599700Y-68238200D01*
X173599700Y-68238200D02*
X173599700Y-36872300D01*
X173599700Y-36872300D02*
X181102000Y-29370000D01*
X123190000Y-110490000D02*
X116205000Y-103505000D01*
X116205000Y-103505000D02*
X116205000Y-81709500D01*
X199390000Y-104140000D02*
X210820000Y-104140000D01*
X134049900Y-80377400D02*
X135255000Y-81582500D01*
X134049900Y-80377400D02*
X117537100Y-80377400D01*
X117537100Y-80377400D02*
X116205000Y-81709500D01*
X181102000Y-28321000D02*
X181102000Y-29370000D01*
X179832000Y-27051000D02*
X181102000Y-28321000D01*
%TO.N,Net-(J3-Pad4)*%
X198860000Y-127039700D02*
X196280200Y-124459900D01*
X196280200Y-124459900D02*
X162812300Y-124459900D01*
X162812300Y-124459900D02*
X161117000Y-122764600D01*
X161117000Y-122764600D02*
X136448000Y-122764600D01*
X136448000Y-122764600D02*
X136362600Y-122679200D01*
X136362600Y-122679200D02*
X134569200Y-122679200D01*
X134569200Y-122679200D02*
X132029200Y-122679200D01*
X198860000Y-128940000D02*
X198860000Y-127039700D01*
X210165000Y-128940000D02*
X210165000Y-127594700D01*
X210165000Y-127594700D02*
X207330300Y-124760000D01*
X208930000Y-129540000D02*
X209565000Y-129540000D01*
X209565000Y-129540000D02*
X210165000Y-128940000D01*
X210165000Y-128940000D02*
X212000000Y-128940000D01*
X205430000Y-124760000D02*
X207330300Y-124760000D01*
%TO.N,Net-(J3-Pad3)*%
X129489200Y-122679200D02*
X132786300Y-119382100D01*
X132786300Y-119382100D02*
X196272100Y-119382100D01*
X196272100Y-119382100D02*
X206430000Y-129540000D01*
%TO.N,Net-(J3-Pad2)*%
X156973800Y-121914200D02*
X196804200Y-121914200D01*
X196804200Y-121914200D02*
X204430000Y-129540000D01*
%TO.N,Net-(J3-Pad1)*%
X201930000Y-129540000D02*
X200829700Y-129540000D01*
X136094200Y-123613400D02*
X160975300Y-123613400D01*
X160975300Y-123613400D02*
X162560000Y-125198100D01*
X162560000Y-125198100D02*
X162560000Y-126288000D01*
X162560000Y-126288000D02*
X167115800Y-130843800D01*
X167115800Y-130843800D02*
X199525900Y-130843800D01*
X199525900Y-130843800D02*
X200829700Y-129540000D01*
%TO.N,/PIEZOCLK*%
X151130000Y-110490000D02*
X153447300Y-108172700D01*
X153447300Y-108172700D02*
X171481100Y-108172700D01*
%TO.N,/PIEZOCS*%
X146050000Y-125730000D02*
X154123800Y-133803800D01*
X154123800Y-133803800D02*
X232710100Y-133803800D01*
X232710100Y-133803800D02*
X237098100Y-129415800D01*
X237098100Y-129415800D02*
X237098100Y-126134800D01*
%TO.N,/33VBAR*%
X248401000Y-86988000D02*
X248513500Y-86988000D01*
X248513500Y-86988000D02*
X265430000Y-103904500D01*
X265430000Y-103904500D02*
X265430000Y-117348000D01*
X245280000Y-86040000D02*
X246228000Y-86988000D01*
X246228000Y-86988000D02*
X248401000Y-86988000D01*
D30*
X245280000Y-86040000D02*
X242645000Y-86040000D01*
X242645000Y-86040000D02*
X242570000Y-86115000D01*
D29*
%TO.N,/TX1OUT*%
X123190000Y-125730000D02*
X123665200Y-125730000D01*
X123665200Y-125730000D02*
X125659600Y-123735600D01*
X125659600Y-123735600D02*
X125659600Y-122171600D01*
X125659600Y-122171600D02*
X129149500Y-118681700D01*
X129149500Y-118681700D02*
X132921800Y-118681700D01*
X132921800Y-118681700D02*
X137160000Y-114443500D01*
X137160000Y-114443500D02*
X137160000Y-109971400D01*
X137160000Y-109971400D02*
X140451400Y-106680000D01*
X140451400Y-106680000D02*
X199390000Y-106680000D01*
%TO.N,/DISPLAYSDA*%
X216406600Y-113459700D02*
X214182800Y-115683500D01*
X214182800Y-115683500D02*
X165743700Y-115683500D01*
X165743700Y-115683500D02*
X164360300Y-114300100D01*
X164360300Y-114300100D02*
X144780100Y-114300100D01*
X144780100Y-114300100D02*
X140970000Y-110490000D01*
X260030000Y-117348000D02*
X251902000Y-109220000D01*
X251902000Y-109220000D02*
X223520000Y-109220000D01*
X260030000Y-117348000D02*
X259710000Y-117348000D01*
X260350000Y-117348000D02*
X260030000Y-117348000D01*
%TO.N,/DISPLAYSCL*%
X143510000Y-110490000D02*
X144780000Y-111760000D01*
X144780000Y-111760000D02*
X170165400Y-111760000D01*
X170165400Y-111760000D02*
X173346000Y-114940600D01*
X173346000Y-114940600D02*
X213483800Y-114940600D01*
X213483800Y-114940600D02*
X215304800Y-113119600D01*
X256509700Y-117348000D02*
X256312900Y-117544800D01*
X256312900Y-117544800D02*
X227459700Y-117544800D01*
X227459700Y-117544800D02*
X222209900Y-112295000D01*
X222209900Y-112295000D02*
X222209900Y-107990100D01*
X222209900Y-107990100D02*
X223520000Y-106680000D01*
X257810000Y-117348000D02*
X256509700Y-117348000D01*
X181071999Y-25750999D02*
X182372000Y-27051000D01*
X176081999Y-25750999D02*
X181071999Y-25750999D01*
X163879800Y-37953198D02*
X176081999Y-25750999D01*
X163879800Y-78073000D02*
X163879800Y-37953198D01*
%TO.N,/RX2OUT*%
X177480500Y-114085800D02*
X204653900Y-114085800D01*
X204653900Y-114085800D02*
X209519700Y-109220000D01*
X210820000Y-109220000D02*
X209519700Y-109220000D01*
%TO.N,/TX2OUT*%
X209519700Y-106680000D02*
X203124100Y-113075600D01*
X203124100Y-113075600D02*
X181882200Y-113075600D01*
X181882200Y-113075600D02*
X181572400Y-112765800D01*
X210820000Y-106680000D02*
X209519700Y-106680000D01*
%TO.N,/STEPPER1_4*%
X224790000Y-95250000D02*
X221908100Y-98131900D01*
X221908100Y-98131900D02*
X209148900Y-98131900D01*
X209148900Y-98131900D02*
X208457600Y-98823200D01*
X208457600Y-98823200D02*
X183873200Y-98823200D01*
X183873200Y-98823200D02*
X183723100Y-98673100D01*
%TO.N,/STEPPER1_3*%
X128270000Y-125730000D02*
X126985400Y-127014600D01*
X126985400Y-127014600D02*
X122702400Y-127014600D01*
X122702400Y-127014600D02*
X121920000Y-126232200D01*
X121920000Y-126232200D02*
X121920000Y-116287500D01*
X121920000Y-116287500D02*
X124460000Y-113747500D01*
X124460000Y-113747500D02*
X124460000Y-103030100D01*
X124460000Y-103030100D02*
X119067300Y-97637400D01*
X119067300Y-97637400D02*
X119067300Y-95725300D01*
X119067300Y-95725300D02*
X120654900Y-94137700D01*
X120654900Y-94137700D02*
X159750900Y-94137700D01*
X159750900Y-94137700D02*
X165266500Y-99653300D01*
X165266500Y-99653300D02*
X208618000Y-99653300D01*
X208618000Y-99653300D02*
X209439100Y-98832200D01*
X209439100Y-98832200D02*
X223747800Y-98832200D01*
X223747800Y-98832200D02*
X227330000Y-95250000D01*
%TO.N,/STEPPER1_2*%
X130810000Y-125730000D02*
X141779600Y-136699600D01*
X141779600Y-136699600D02*
X234851200Y-136699600D01*
X234851200Y-136699600D02*
X243221100Y-128329700D01*
%TO.N,/STEPPER1_1*%
X133350000Y-125730000D02*
X143619200Y-135999200D01*
X143619200Y-135999200D02*
X233486200Y-135999200D01*
X233486200Y-135999200D02*
X239384300Y-130101100D01*
X239384300Y-130101100D02*
X239384300Y-122575300D01*
X239384300Y-122575300D02*
X235224700Y-118415700D01*
X235224700Y-118415700D02*
X233246800Y-118415700D01*
X233246800Y-118415700D02*
X233246800Y-118415600D01*
%TO.N,/STEPPER2_4*%
X208361200Y-92276500D02*
X218873500Y-92276500D01*
X218873500Y-92276500D02*
X224790000Y-86360000D01*
%TO.N,/STEPPER2_3*%
X235174600Y-119614700D02*
X238648700Y-123088800D01*
X238648700Y-123088800D02*
X238648700Y-129846200D01*
X238648700Y-129846200D02*
X233205200Y-135289700D01*
X233205200Y-135289700D02*
X147989700Y-135289700D01*
X147989700Y-135289700D02*
X138430000Y-125730000D01*
%TO.N,/STEPPER2_2*%
X229870000Y-86360000D02*
X223007800Y-93222200D01*
X223007800Y-93222200D02*
X191779100Y-93222200D01*
X191779100Y-93222200D02*
X187028500Y-97972800D01*
%TO.N,/STEPPER2_1*%
X235480100Y-121378700D02*
X237948400Y-123847000D01*
X237948400Y-123847000D02*
X237948400Y-129556000D01*
X237948400Y-129556000D02*
X232991200Y-134513200D01*
X232991200Y-134513200D02*
X152293200Y-134513200D01*
X152293200Y-134513200D02*
X143510000Y-125730000D01*
%TO.N,/IO1*%
X151130000Y-125730000D02*
X152383100Y-124476900D01*
X152383100Y-124476900D02*
X154233200Y-124476900D01*
X154233200Y-124476900D02*
X154940000Y-125183700D01*
X154940000Y-125183700D02*
X154940000Y-126260200D01*
X154940000Y-126260200D02*
X161783300Y-133103500D01*
X161783300Y-133103500D02*
X232419900Y-133103500D01*
X232419900Y-133103500D02*
X236220800Y-129302600D01*
X236220800Y-129302600D02*
X236220800Y-125057300D01*
X236220800Y-125057300D02*
X236343200Y-124934900D01*
X236343200Y-124934900D02*
X236343200Y-124268000D01*
X236343200Y-124268000D02*
X235072600Y-122997400D01*
X235072600Y-122997400D02*
X222442600Y-122997400D01*
X222442600Y-122997400D02*
X219710000Y-125730000D01*
%TO.N,/IO2*%
X161290000Y-125730000D02*
X161290000Y-126008500D01*
X161290000Y-126008500D02*
X166955600Y-131674100D01*
X166955600Y-131674100D02*
X231843700Y-131674100D01*
X231843700Y-131674100D02*
X234477600Y-129040200D01*
X234477600Y-129040200D02*
X234477600Y-124952000D01*
X234477600Y-124952000D02*
X233226300Y-123700700D01*
X233226300Y-123700700D02*
X224279300Y-123700700D01*
X224279300Y-123700700D02*
X222250000Y-125730000D01*
%TO.N,/IO3*%
X138430000Y-110490000D02*
X144780200Y-116840200D01*
X144780200Y-116840200D02*
X203905300Y-116840200D01*
X203905300Y-116840200D02*
X218038900Y-130973800D01*
X218038900Y-130973800D02*
X231548200Y-130973800D01*
X231548200Y-130973800D02*
X233713600Y-128808400D01*
X233713600Y-128808400D02*
X233713600Y-125178500D01*
X233713600Y-125178500D02*
X232938600Y-124403500D01*
X232938600Y-124403500D02*
X226116500Y-124403500D01*
X226116500Y-124403500D02*
X224790000Y-125730000D01*
%TO.N,/STEPPER3_4*%
X224790000Y-77470000D02*
X223476200Y-78783800D01*
X223476200Y-78783800D02*
X216071100Y-78783800D01*
X216071100Y-78783800D02*
X206236600Y-88618300D01*
X206236600Y-88618300D02*
X201247700Y-88618300D01*
%TO.N,/STEPPER3_3*%
X158750000Y-125730000D02*
X165423200Y-132403200D01*
X165423200Y-132403200D02*
X232129700Y-132403200D01*
X232129700Y-132403200D02*
X235461200Y-129071700D01*
X235461200Y-129071700D02*
X235461200Y-124614100D01*
X235461200Y-124614100D02*
X235461300Y-124614100D01*
%TO.N,/STEPPER3_2*%
X229870000Y-77470000D02*
X227818700Y-79521300D01*
X227818700Y-79521300D02*
X216324100Y-79521300D01*
X216324100Y-79521300D02*
X204538400Y-91307000D01*
X204538400Y-91307000D02*
X195713000Y-91307000D01*
%TO.N,/STEPPER3_1*%
X209502700Y-91180900D02*
X220206400Y-80477200D01*
X220206400Y-80477200D02*
X229402800Y-80477200D01*
X229402800Y-80477200D02*
X232410000Y-77470000D01*
%TO.N,Net-(R5-Pad2)*%
X124587000Y-40598100D02*
X117608600Y-40598100D01*
X117608600Y-40598100D02*
X116078000Y-39067500D01*
%TO.N,Net-(R5-Pad1)*%
X153670000Y-125730000D02*
X152408600Y-126991400D01*
X152408600Y-126991400D02*
X150618800Y-126991400D01*
X150618800Y-126991400D02*
X149860000Y-126232600D01*
X149860000Y-126232600D02*
X149860000Y-125136900D01*
X149860000Y-125136900D02*
X149202700Y-124479600D01*
X149202700Y-124479600D02*
X130291500Y-124479600D01*
X130291500Y-124479600D02*
X129540000Y-125231100D01*
X129540000Y-125231100D02*
X129540000Y-126318600D01*
X129540000Y-126318600D02*
X128133200Y-127725400D01*
X128133200Y-127725400D02*
X120876600Y-127725400D01*
X120876600Y-127725400D02*
X119360400Y-126209200D01*
X119360400Y-126209200D02*
X119360400Y-124716200D01*
X119360400Y-124716200D02*
X115006300Y-120362100D01*
X115006300Y-120362100D02*
X115006300Y-42014200D01*
X115006300Y-42014200D02*
X116078000Y-40942500D01*
X116078000Y-37132500D02*
X114926200Y-38284300D01*
X114926200Y-38284300D02*
X114926200Y-39790700D01*
X114926200Y-39790700D02*
X116078000Y-40942500D01*
%TO.N,Net-(R6-Pad2)*%
X124587000Y-35598100D02*
X123136700Y-35598100D01*
X116078000Y-35257500D02*
X122796100Y-35257500D01*
X122796100Y-35257500D02*
X123136700Y-35598100D01*
%TO.N,/5VMON*%
X123444000Y-97965500D02*
X121285000Y-97965500D01*
X130810000Y-110490000D02*
X130810000Y-105331500D01*
X130810000Y-105331500D02*
X123444000Y-97965500D01*
%TO.N,/10VMON*%
X133350000Y-110490000D02*
X133350000Y-105331500D01*
X133350000Y-105331500D02*
X140716000Y-97965500D01*
X142875000Y-97965500D02*
X140716000Y-97965500D01*
%TO.N,/33VMON*%
X157226000Y-97965500D02*
X159385000Y-97965500D01*
X149600000Y-98834000D02*
X150468500Y-97965500D01*
X150468500Y-97965500D02*
X157226000Y-97965500D01*
%TO.N,/UP*%
X174752000Y-67515500D02*
X176324500Y-67515500D01*
X176324500Y-67515500D02*
X177800000Y-66040000D01*
%TO.N,/DOWN*%
X177800000Y-91440000D02*
X176227500Y-91440000D01*
X176227500Y-91440000D02*
X174879000Y-92788500D01*
X184300000Y-91440000D02*
X177800000Y-91440000D01*
%TO.N,/LEFT*%
X160020000Y-78740000D02*
X160203300Y-78923300D01*
X160203300Y-78923300D02*
X166336700Y-78923300D01*
X166336700Y-78923300D02*
X166520000Y-78740000D01*
X156972000Y-80264000D02*
X158496000Y-80264000D01*
X158496000Y-80264000D02*
X160020000Y-78740000D01*
%TO.N,/RIGHT*%
X195580000Y-78740000D02*
X193753500Y-78740000D01*
X193753500Y-78740000D02*
X192532000Y-79961500D01*
X202080000Y-78740000D02*
X195580000Y-78740000D01*
%TO.N,/SELECT*%
X177800000Y-78740000D02*
X184300000Y-78740000D01*
X174879000Y-79834500D02*
X175973500Y-78740000D01*
X175973500Y-78740000D02*
X177800000Y-78740000D01*
%TO.N,/NEXT*%
X166409600Y-97509000D02*
X147640600Y-78740000D01*
X147640600Y-78740000D02*
X144930000Y-78740000D01*
X144930000Y-78740000D02*
X138430000Y-78740000D01*
X138430000Y-78740000D02*
X136222500Y-78740000D01*
X136222500Y-78740000D02*
X135255000Y-79707500D01*
%TO.N,/ENCODERSEL*%
X125880000Y-78740000D02*
X119380000Y-78740000D01*
X119380000Y-78740000D02*
X117299500Y-78740000D01*
X117299500Y-78740000D02*
X116205000Y-79834500D01*
%TO.N,/TIA_DIN*%
X222250000Y-68580000D02*
X205182700Y-85647300D01*
X205182700Y-85647300D02*
X192143800Y-85647300D01*
X192143800Y-85647300D02*
X192143800Y-85647400D01*
X192143800Y-85647400D02*
X183326700Y-94464500D01*
X183326700Y-94464500D02*
X181345800Y-94464500D01*
X181345800Y-94464500D02*
X178301300Y-97509000D01*
X178301300Y-97509000D02*
X168821900Y-97509000D01*
%TO.N,/TIA_DOUT*%
X165618700Y-98803000D02*
X178988200Y-98803000D01*
X178988200Y-98803000D02*
X180387100Y-97404100D01*
X180387100Y-97404100D02*
X185126800Y-97404100D01*
X185126800Y-97404100D02*
X196183200Y-86347700D01*
X196183200Y-86347700D02*
X206526200Y-86347700D01*
X206526200Y-86347700D02*
X220626100Y-72247800D01*
X220626100Y-72247800D02*
X223662200Y-72247800D01*
X223662200Y-72247800D02*
X227330000Y-68580000D01*
%TO.N,/TIA_CONVST*%
X195600900Y-88197900D02*
X196301200Y-87497600D01*
X196301200Y-87497600D02*
X206366800Y-87497600D01*
X206366800Y-87497600D02*
X220566200Y-73298200D01*
X220566200Y-73298200D02*
X225151800Y-73298200D01*
X225151800Y-73298200D02*
X229870000Y-68580000D01*
%TD*%
M02*
