M48
; DRILL file {KiCad (5.1.6)-1} date 11/12/20 15:31:57
; FORMAT={-:-/ absolute / inch / decimal}
; #@! TF.CreationDate,2020-11-12T15:31:57-08:00
; #@! TF.GenerationSoftware,Kicad,Pcbnew,(5.1.6)-1
; #@! TF.FileFunction,Plated,1,2,PTH
FMAT,2
INCH
T1C0.0157
T2C0.0315
T3C0.0354
T4C0.0394
T5C0.0433
T6C0.0472
T7C0.0512
T8C0.0591
%
G90
G05
T1
X4.625Y-4.235
X4.655Y-4.775
X4.7229Y-3.7825
X5.358Y-4.8667
X5.4862Y-3.7793
X5.82Y-4.05
X5.8898Y-3.8911
X6.165Y-4.13
X6.1801Y-4.7998
X6.19Y-3.7401
X6.452Y-3.0737
X6.5204Y-3.8899
X6.5516Y-3.8389
X6.63Y-2.99
X6.6465Y-3.8389
X6.7512Y-4.2588
X6.785Y-2.99
X6.97Y-2.97
X6.9874Y-4.4916
X7.1485Y-4.4396
X7.15Y-2.965
X7.2332Y-3.8848
X7.3633Y-3.8572
X7.7008Y-3.4724
X7.7052Y-3.5948
X7.9231Y-3.4889
X8.045Y-4.35
X8.0958Y-3.2961
X8.2032Y-3.6329
X8.2481Y-3.5898
X8.3162Y-4.007
X8.4766Y-4.4535
X8.5199Y-4.4669
X8.56Y-2.485
X8.7377Y-4.0633
X8.785Y-2.49
X8.945Y-4.4
X9.075Y-2.62
X9.1829Y-4.662
X9.2588Y-4.7092
X9.2701Y-4.9061
X9.2709Y-4.7787
X9.3346Y-4.9659
X9.4Y-4.39
X9.4762Y-3.7759
X9.55Y-3.255
X9.55Y-3.745
X9.55Y-4.0
X9.555Y-3.5
X9.5756Y-5.0524
X9.5933Y-3.9883
X9.595Y-3.4759
X9.5983Y-3.7333
X9.665Y-2.875
X9.665Y-3.2041
X9.695Y-3.35
X9.695Y-3.6
X9.695Y-3.85
X9.695Y-4.1
X9.84Y-4.59
X9.87Y-3.14
X9.9096Y-4.1404
X9.9146Y-3.6404
X9.915Y-3.39
X9.915Y-3.89
X10.14Y-4.37
T2
X4.6787Y-4.6
X4.6787Y-4.7
X5.1606Y-4.446
X5.1606Y-4.5247
X5.1606Y-4.6035
X5.2394Y-4.446
X5.2394Y-4.5247
X5.2394Y-4.6035
X9.575Y-4.5
X9.6734Y-4.5
X9.6Y-2.675
X9.6984Y-2.675
T3
X7.95Y-5.1
X8.0484Y-5.1
X8.1272Y-5.1
X8.2256Y-5.1
T4
X8.65Y-3.05
X8.75Y-3.05
X8.85Y-3.05
X8.95Y-3.05
X9.05Y-3.05
X9.15Y-3.05
X7.85Y-4.1
X7.85Y-4.2
X7.85Y-4.3
X7.85Y-4.4
X4.905Y-1.4015
X4.905Y-1.4999
X4.905Y-1.5984
X5.4759Y-1.4015
X5.4759Y-1.5984
X8.3Y-4.1
X8.3Y-4.2
X8.3Y-4.3
X8.3Y-4.4
X8.65Y-4.95
X8.65Y-5.05
X8.75Y-4.95
X8.75Y-5.05
X8.85Y-4.95
X8.85Y-5.05
X8.95Y-4.95
X8.95Y-5.05
X9.05Y-4.95
X9.05Y-5.05
X9.15Y-4.95
X9.15Y-5.05
X8.65Y-2.35
X8.75Y-2.35
X8.85Y-2.35
X8.95Y-2.35
X9.05Y-2.35
X9.15Y-2.35
X10.15Y-4.62
X10.25Y-4.62
X10.35Y-4.62
X10.45Y-4.62
X8.65Y-3.75
X8.75Y-3.75
X8.85Y-3.75
X8.95Y-3.75
X9.05Y-3.75
X9.15Y-3.75
X8.65Y-3.4
X8.75Y-3.4
X8.85Y-3.4
X8.95Y-3.4
X9.05Y-3.4
X9.15Y-3.4
X8.8016Y-1.1563
X8.9Y-1.1563
X8.9984Y-1.1563
X9.2437Y-1.4016
X9.2437Y-1.5
X9.2437Y-1.5984
X8.8Y-4.1
X8.8Y-4.2
X8.8Y-4.3
X8.8Y-4.4
X6.98Y-1.065
X7.08Y-1.065
X7.18Y-1.065
X7.28Y-1.065
X8.65Y-2.7
X8.75Y-2.7
X8.85Y-2.7
X8.95Y-2.7
X9.05Y-2.7
X9.15Y-2.7
T5
X4.7Y-3.1
X4.7Y-3.2772
X4.9559Y-3.1
X4.9559Y-3.2772
X7.0Y-2.6
X7.0Y-2.7772
X7.2559Y-2.6
X7.2559Y-2.7772
X5.45Y-3.1
X5.45Y-3.2772
X5.7059Y-3.1
X5.7059Y-3.2772
X7.7Y-3.1
X7.7Y-3.2772
X7.9559Y-3.1
X7.9559Y-3.2772
X4.65Y-4.35
X4.65Y-4.95
X4.75Y-4.35
X4.75Y-4.45
X4.75Y-4.95
X4.85Y-4.35
X4.85Y-4.95
X4.898Y-4.8299
X4.95Y-4.35
X4.95Y-4.95
X4.998Y-4.8299
X5.05Y-4.35
X5.05Y-4.95
X5.098Y-4.8299
X5.15Y-4.35
X5.15Y-4.95
X5.198Y-4.8299
X5.25Y-4.35
X5.25Y-4.95
X5.298Y-4.8299
X5.35Y-4.35
X5.35Y-4.95
X5.45Y-4.35
X5.45Y-4.95
X5.55Y-4.35
X5.55Y-4.95
X5.65Y-4.35
X5.65Y-4.95
X5.75Y-4.35
X5.75Y-4.95
X5.85Y-4.35
X5.85Y-4.95
X5.95Y-4.35
X5.95Y-4.95
X6.05Y-4.35
X6.05Y-4.95
X6.15Y-4.35
X6.15Y-4.95
X6.25Y-4.35
X6.25Y-4.95
X6.35Y-4.35
X6.35Y-4.95
X6.45Y-4.35
X6.45Y-4.45
X6.45Y-4.55
X6.45Y-4.65
X6.45Y-4.75
X6.45Y-4.85
X6.45Y-4.95
X6.55Y-4.35
X6.55Y-4.95
X6.65Y-4.35
X6.65Y-4.95
X6.75Y-4.35
X6.75Y-4.95
X6.85Y-4.35
X6.85Y-4.95
X6.95Y-4.35
X6.95Y-4.95
X7.0Y-3.6
X7.0Y-3.7772
X7.2559Y-3.6
X7.2559Y-3.7772
X7.0Y-3.1
X7.0Y-3.2772
X7.2559Y-3.1
X7.2559Y-3.2772
X6.3Y-3.1
X6.3Y-3.2772
X6.5559Y-3.1
X6.5559Y-3.2772
T6
X8.772Y-1.7264
X8.772Y-1.9035
X9.028Y-1.7264
X9.028Y-1.9035
T7
X9.5Y-5.0
X9.7Y-5.0
T7
G00X7.8291Y-5.0961
M15
G01X7.8291Y-5.0567
M16
G05
G00X8.0681Y-4.9118
M15
G01X8.1075Y-4.9118
M16
G05
G00X8.3465Y-5.0567
M15
G01X8.3465Y-5.0961
M16
G05
T8
G00X5.1747Y-1.2795
M15
G01X5.2259Y-1.2795
M16
G05
G00X5.1747Y-1.7204
M15
G01X5.2259Y-1.7204
M16
G05
T0
M30
