%TF.GenerationSoftware,KiCad,Pcbnew,(5.1.6)-1*%
%TF.CreationDate,2020-10-30T20:39:21-07:00*%
%TF.ProjectId,frontendfull,66726f6e-7465-46e6-9466-756c6c2e6b69,rev?*%
%TF.SameCoordinates,Original*%
%TF.FileFunction,Copper,L1,Top*%
%TF.FilePolarity,Positive*%
%FSLAX46Y46*%
G04 Gerber Fmt 4.6, Leading zero omitted, Abs format (unit mm)*
G04 Created by KiCad (PCBNEW (5.1.6)-1) date 2020-10-30 20:39:21*
%MOMM*%
%LPD*%
G01*
G04 APERTURE LIST*
%TA.AperFunction,SMDPad,CuDef*%
%ADD10R,1.000000X3.550000*%
%TD*%
%TA.AperFunction,SMDPad,CuDef*%
%ADD11R,1.000000X3.800000*%
%TD*%
%TA.AperFunction,SMDPad,CuDef*%
%ADD12R,3.550000X1.000000*%
%TD*%
%TA.AperFunction,SMDPad,CuDef*%
%ADD13R,3.800000X1.000000*%
%TD*%
%TA.AperFunction,SMDPad,CuDef*%
%ADD14R,1.000000X1.000000*%
%TD*%
%TA.AperFunction,SMDPad,CuDef*%
%ADD15R,1.560000X0.650000*%
%TD*%
%TA.AperFunction,SMDPad,CuDef*%
%ADD16R,2.000000X1.300000*%
%TD*%
%TA.AperFunction,SMDPad,CuDef*%
%ADD17R,2.000000X2.000000*%
%TD*%
%TA.AperFunction,SMDPad,CuDef*%
%ADD18C,0.100000*%
%TD*%
%TA.AperFunction,SMDPad,CuDef*%
%ADD19R,1.300000X0.900000*%
%TD*%
%TA.AperFunction,SMDPad,CuDef*%
%ADD20R,0.600000X2.200000*%
%TD*%
%TA.AperFunction,ComponentPad*%
%ADD21O,1.700000X1.700000*%
%TD*%
%TA.AperFunction,ComponentPad*%
%ADD22R,1.700000X1.700000*%
%TD*%
%TA.AperFunction,SMDPad,CuDef*%
%ADD23R,2.200000X1.050000*%
%TD*%
%TA.AperFunction,SMDPad,CuDef*%
%ADD24R,1.050000X1.000000*%
%TD*%
%TA.AperFunction,ViaPad*%
%ADD25C,0.800000*%
%TD*%
%TA.AperFunction,Conductor*%
%ADD26C,0.500000*%
%TD*%
%TA.AperFunction,Conductor*%
%ADD27C,0.250000*%
%TD*%
%TA.AperFunction,Conductor*%
%ADD28C,0.254000*%
%TD*%
G04 APERTURE END LIST*
D10*
%TO.P,J5,1*%
%TO.N,GND*%
X98066000Y-107497000D03*
X81766000Y-107497000D03*
D11*
X98066000Y-101622000D03*
X81766000Y-101622000D03*
D10*
X98066000Y-95747000D03*
X81766000Y-95747000D03*
D12*
X95791000Y-109772000D03*
X95791000Y-93472000D03*
D13*
X89916000Y-109772000D03*
X89916000Y-93472000D03*
D12*
X84041000Y-109772000D03*
X84041000Y-93472000D03*
D14*
X81766000Y-109772000D03*
X98066000Y-109772000D03*
X98066000Y-93472000D03*
X81766000Y-93472000D03*
%TD*%
D15*
%TO.P,U3,5*%
%TO.N,GND*%
X92790000Y-106172000D03*
%TO.P,U3,4*%
%TO.N,Net-(R1-Pad2)*%
X92790000Y-108072000D03*
%TO.P,U3,3*%
%TO.N,Net-(RV1-Pad3)*%
X90090000Y-108072000D03*
%TO.P,U3,2*%
%TO.N,+5V*%
X90090000Y-107122000D03*
%TO.P,U3,1*%
%TO.N,Net-(RV2-Pad1)*%
X90090000Y-106172000D03*
%TD*%
D16*
%TO.P,RV2,3*%
%TO.N,Net-(RV2-Pad3)*%
X90456000Y-103766000D03*
D17*
%TO.P,RV2,2*%
%TO.N,Net-(R1-Pad2)*%
X94456000Y-102616000D03*
D16*
%TO.P,RV2,1*%
%TO.N,Net-(RV2-Pad1)*%
X90456000Y-101466000D03*
%TD*%
%TO.P,R3,2*%
%TO.N,Net-(J4-Pad1)*%
%TA.AperFunction,SMDPad,CuDef*%
G36*
G01*
X100642000Y-107245999D02*
X100642000Y-108146001D01*
G75*
G02*
X100392001Y-108396000I-249999J0D01*
G01*
X99741999Y-108396000D01*
G75*
G02*
X99492000Y-108146001I0J249999D01*
G01*
X99492000Y-107245999D01*
G75*
G02*
X99741999Y-106996000I249999J0D01*
G01*
X100392001Y-106996000D01*
G75*
G02*
X100642000Y-107245999I0J-249999D01*
G01*
G37*
%TD.AperFunction*%
%TO.P,R3,1*%
%TO.N,VCC*%
%TA.AperFunction,SMDPad,CuDef*%
G36*
G01*
X102692000Y-107245999D02*
X102692000Y-108146001D01*
G75*
G02*
X102442001Y-108396000I-249999J0D01*
G01*
X101791999Y-108396000D01*
G75*
G02*
X101542000Y-108146001I0J249999D01*
G01*
X101542000Y-107245999D01*
G75*
G02*
X101791999Y-106996000I249999J0D01*
G01*
X102442001Y-106996000D01*
G75*
G02*
X102692000Y-107245999I0J-249999D01*
G01*
G37*
%TD.AperFunction*%
%TD*%
%TO.P,R2,2*%
%TO.N,Net-(J4-Pad3)*%
%TA.AperFunction,SMDPad,CuDef*%
G36*
G01*
X104706000Y-107245999D02*
X104706000Y-108146001D01*
G75*
G02*
X104456001Y-108396000I-249999J0D01*
G01*
X103805999Y-108396000D01*
G75*
G02*
X103556000Y-108146001I0J249999D01*
G01*
X103556000Y-107245999D01*
G75*
G02*
X103805999Y-106996000I249999J0D01*
G01*
X104456001Y-106996000D01*
G75*
G02*
X104706000Y-107245999I0J-249999D01*
G01*
G37*
%TD.AperFunction*%
%TO.P,R2,1*%
%TO.N,VCC*%
%TA.AperFunction,SMDPad,CuDef*%
G36*
G01*
X106756000Y-107245999D02*
X106756000Y-108146001D01*
G75*
G02*
X106506001Y-108396000I-249999J0D01*
G01*
X105855999Y-108396000D01*
G75*
G02*
X105606000Y-108146001I0J249999D01*
G01*
X105606000Y-107245999D01*
G75*
G02*
X105855999Y-106996000I249999J0D01*
G01*
X106506001Y-106996000D01*
G75*
G02*
X106756000Y-107245999I0J-249999D01*
G01*
G37*
%TD.AperFunction*%
%TD*%
%TO.P,U4,8*%
%TO.N,Net-(J4-Pad3)*%
%TA.AperFunction,SMDPad,CuDef*%
G36*
G01*
X103789000Y-103646000D02*
X103789000Y-103446000D01*
G75*
G02*
X103889000Y-103346000I100000J0D01*
G01*
X105314000Y-103346000D01*
G75*
G02*
X105414000Y-103446000I0J-100000D01*
G01*
X105414000Y-103646000D01*
G75*
G02*
X105314000Y-103746000I-100000J0D01*
G01*
X103889000Y-103746000D01*
G75*
G02*
X103789000Y-103646000I0J100000D01*
G01*
G37*
%TD.AperFunction*%
%TO.P,U4,7*%
%TO.N,GND*%
%TA.AperFunction,SMDPad,CuDef*%
G36*
G01*
X103789000Y-104296000D02*
X103789000Y-104096000D01*
G75*
G02*
X103889000Y-103996000I100000J0D01*
G01*
X105314000Y-103996000D01*
G75*
G02*
X105414000Y-104096000I0J-100000D01*
G01*
X105414000Y-104296000D01*
G75*
G02*
X105314000Y-104396000I-100000J0D01*
G01*
X103889000Y-104396000D01*
G75*
G02*
X103789000Y-104296000I0J100000D01*
G01*
G37*
%TD.AperFunction*%
%TO.P,U4,6*%
%TA.AperFunction,SMDPad,CuDef*%
G36*
G01*
X103789000Y-104946000D02*
X103789000Y-104746000D01*
G75*
G02*
X103889000Y-104646000I100000J0D01*
G01*
X105314000Y-104646000D01*
G75*
G02*
X105414000Y-104746000I0J-100000D01*
G01*
X105414000Y-104946000D01*
G75*
G02*
X105314000Y-105046000I-100000J0D01*
G01*
X103889000Y-105046000D01*
G75*
G02*
X103789000Y-104946000I0J100000D01*
G01*
G37*
%TD.AperFunction*%
%TO.P,U4,5*%
%TO.N,VCC*%
%TA.AperFunction,SMDPad,CuDef*%
G36*
G01*
X103789000Y-105596000D02*
X103789000Y-105396000D01*
G75*
G02*
X103889000Y-105296000I100000J0D01*
G01*
X105314000Y-105296000D01*
G75*
G02*
X105414000Y-105396000I0J-100000D01*
G01*
X105414000Y-105596000D01*
G75*
G02*
X105314000Y-105696000I-100000J0D01*
G01*
X103889000Y-105696000D01*
G75*
G02*
X103789000Y-105596000I0J100000D01*
G01*
G37*
%TD.AperFunction*%
%TO.P,U4,4*%
%TA.AperFunction,SMDPad,CuDef*%
G36*
G01*
X99564000Y-105596000D02*
X99564000Y-105396000D01*
G75*
G02*
X99664000Y-105296000I100000J0D01*
G01*
X101089000Y-105296000D01*
G75*
G02*
X101189000Y-105396000I0J-100000D01*
G01*
X101189000Y-105596000D01*
G75*
G02*
X101089000Y-105696000I-100000J0D01*
G01*
X99664000Y-105696000D01*
G75*
G02*
X99564000Y-105596000I0J100000D01*
G01*
G37*
%TD.AperFunction*%
%TO.P,U4,3*%
%TO.N,Net-(RV2-Pad1)*%
%TA.AperFunction,SMDPad,CuDef*%
G36*
G01*
X99564000Y-104946000D02*
X99564000Y-104746000D01*
G75*
G02*
X99664000Y-104646000I100000J0D01*
G01*
X101089000Y-104646000D01*
G75*
G02*
X101189000Y-104746000I0J-100000D01*
G01*
X101189000Y-104946000D01*
G75*
G02*
X101089000Y-105046000I-100000J0D01*
G01*
X99664000Y-105046000D01*
G75*
G02*
X99564000Y-104946000I0J100000D01*
G01*
G37*
%TD.AperFunction*%
%TO.P,U4,2*%
%TO.N,Net-(U4-Pad2)*%
%TA.AperFunction,SMDPad,CuDef*%
G36*
G01*
X99564000Y-104296000D02*
X99564000Y-104096000D01*
G75*
G02*
X99664000Y-103996000I100000J0D01*
G01*
X101089000Y-103996000D01*
G75*
G02*
X101189000Y-104096000I0J-100000D01*
G01*
X101189000Y-104296000D01*
G75*
G02*
X101089000Y-104396000I-100000J0D01*
G01*
X99664000Y-104396000D01*
G75*
G02*
X99564000Y-104296000I0J100000D01*
G01*
G37*
%TD.AperFunction*%
%TO.P,U4,1*%
%TO.N,Net-(J4-Pad1)*%
%TA.AperFunction,SMDPad,CuDef*%
G36*
G01*
X99564000Y-103646000D02*
X99564000Y-103446000D01*
G75*
G02*
X99664000Y-103346000I100000J0D01*
G01*
X101089000Y-103346000D01*
G75*
G02*
X101189000Y-103446000I0J-100000D01*
G01*
X101189000Y-103646000D01*
G75*
G02*
X101089000Y-103746000I-100000J0D01*
G01*
X99664000Y-103746000D01*
G75*
G02*
X99564000Y-103646000I0J100000D01*
G01*
G37*
%TD.AperFunction*%
%TD*%
%TA.AperFunction,SMDPad,CuDef*%
D18*
%TO.P,U2,2*%
%TO.N,GND*%
G36*
X89902000Y-96669500D02*
G01*
X93027000Y-96669500D01*
X93027000Y-97086000D01*
X94502000Y-97086000D01*
X94502000Y-97986000D01*
X93027000Y-97986000D01*
X93027000Y-98402500D01*
X89902000Y-98402500D01*
X89902000Y-96669500D01*
G37*
%TD.AperFunction*%
D19*
%TO.P,U2,3*%
%TO.N,Net-(C1-Pad1)*%
X93852000Y-96036000D03*
%TO.P,U2,1*%
%TO.N,+5V*%
X93852000Y-99036000D03*
%TD*%
D20*
%TO.P,U1,4*%
%TO.N,Net-(RV1-Pad3)*%
X87630000Y-107475000D03*
%TO.P,U1,5*%
%TO.N,N/C*%
X87630000Y-102075000D03*
%TO.P,U1,3*%
%TO.N,GND*%
X86360000Y-107475000D03*
%TO.P,U1,6*%
%TO.N,+5V*%
X86360000Y-102075000D03*
%TO.P,U1,2*%
%TO.N,GND*%
X85090000Y-107475000D03*
%TO.P,U1,7*%
X85090000Y-102075000D03*
%TO.P,U1,1*%
X83820000Y-107475000D03*
%TO.P,U1,8*%
%TO.N,Net-(J3-Pad1)*%
X83820000Y-102075000D03*
%TD*%
D16*
%TO.P,RV1,3*%
%TO.N,Net-(RV1-Pad3)*%
X87852000Y-96386000D03*
D17*
%TO.P,RV1,2*%
%TO.N,Net-(J3-Pad1)*%
X83852000Y-97536000D03*
D16*
%TO.P,RV1,1*%
%TO.N,Net-(RV1-Pad1)*%
X87852000Y-98686000D03*
%TD*%
%TO.P,R1,2*%
%TO.N,Net-(R1-Pad2)*%
%TA.AperFunction,SMDPad,CuDef*%
G36*
G01*
X94799999Y-107638000D02*
X95700001Y-107638000D01*
G75*
G02*
X95950000Y-107887999I0J-249999D01*
G01*
X95950000Y-108538001D01*
G75*
G02*
X95700001Y-108788000I-249999J0D01*
G01*
X94799999Y-108788000D01*
G75*
G02*
X94550000Y-108538001I0J249999D01*
G01*
X94550000Y-107887999D01*
G75*
G02*
X94799999Y-107638000I249999J0D01*
G01*
G37*
%TD.AperFunction*%
%TO.P,R1,1*%
%TO.N,GND*%
%TA.AperFunction,SMDPad,CuDef*%
G36*
G01*
X94799999Y-105588000D02*
X95700001Y-105588000D01*
G75*
G02*
X95950000Y-105837999I0J-249999D01*
G01*
X95950000Y-106488001D01*
G75*
G02*
X95700001Y-106738000I-249999J0D01*
G01*
X94799999Y-106738000D01*
G75*
G02*
X94550000Y-106488001I0J249999D01*
G01*
X94550000Y-105837999D01*
G75*
G02*
X94799999Y-105588000I249999J0D01*
G01*
G37*
%TD.AperFunction*%
%TD*%
D21*
%TO.P,J4,4*%
%TO.N,VCC*%
X107950000Y-97155000D03*
%TO.P,J4,3*%
%TO.N,Net-(J4-Pad3)*%
X107950000Y-99695000D03*
%TO.P,J4,2*%
%TO.N,GND*%
X107950000Y-102235000D03*
D22*
%TO.P,J4,1*%
%TO.N,Net-(J4-Pad1)*%
X107950000Y-104775000D03*
%TD*%
D23*
%TO.P,J3,2*%
%TO.N,GND*%
X78994000Y-101395000D03*
D24*
%TO.P,J3,1*%
%TO.N,Net-(J3-Pad1)*%
X77469000Y-102870000D03*
D23*
%TO.P,J3,2*%
%TO.N,GND*%
X78994000Y-104345000D03*
%TD*%
D22*
%TO.P,J2,1*%
%TO.N,GND*%
X78994000Y-107315000D03*
%TD*%
D21*
%TO.P,J1,2*%
%TO.N,GND*%
X101092000Y-99060000D03*
D22*
%TO.P,J1,1*%
%TO.N,Net-(C1-Pad1)*%
X101092000Y-96520000D03*
%TD*%
%TO.P,C2,2*%
%TO.N,GND*%
%TA.AperFunction,SMDPad,CuDef*%
G36*
G01*
X104844001Y-98356000D02*
X103943999Y-98356000D01*
G75*
G02*
X103694000Y-98106001I0J249999D01*
G01*
X103694000Y-97455999D01*
G75*
G02*
X103943999Y-97206000I249999J0D01*
G01*
X104844001Y-97206000D01*
G75*
G02*
X105094000Y-97455999I0J-249999D01*
G01*
X105094000Y-98106001D01*
G75*
G02*
X104844001Y-98356000I-249999J0D01*
G01*
G37*
%TD.AperFunction*%
%TO.P,C2,1*%
%TO.N,+5V*%
%TA.AperFunction,SMDPad,CuDef*%
G36*
G01*
X104844001Y-100406000D02*
X103943999Y-100406000D01*
G75*
G02*
X103694000Y-100156001I0J249999D01*
G01*
X103694000Y-99505999D01*
G75*
G02*
X103943999Y-99256000I249999J0D01*
G01*
X104844001Y-99256000D01*
G75*
G02*
X105094000Y-99505999I0J-249999D01*
G01*
X105094000Y-100156001D01*
G75*
G02*
X104844001Y-100406000I-249999J0D01*
G01*
G37*
%TD.AperFunction*%
%TD*%
%TO.P,C1,2*%
%TO.N,GND*%
%TA.AperFunction,SMDPad,CuDef*%
G36*
G01*
X95561999Y-98630000D02*
X96462001Y-98630000D01*
G75*
G02*
X96712000Y-98879999I0J-249999D01*
G01*
X96712000Y-99530001D01*
G75*
G02*
X96462001Y-99780000I-249999J0D01*
G01*
X95561999Y-99780000D01*
G75*
G02*
X95312000Y-99530001I0J249999D01*
G01*
X95312000Y-98879999D01*
G75*
G02*
X95561999Y-98630000I249999J0D01*
G01*
G37*
%TD.AperFunction*%
%TO.P,C1,1*%
%TO.N,Net-(C1-Pad1)*%
%TA.AperFunction,SMDPad,CuDef*%
G36*
G01*
X95561999Y-96580000D02*
X96462001Y-96580000D01*
G75*
G02*
X96712000Y-96829999I0J-249999D01*
G01*
X96712000Y-97480001D01*
G75*
G02*
X96462001Y-97730000I-249999J0D01*
G01*
X95561999Y-97730000D01*
G75*
G02*
X95312000Y-97480001I0J249999D01*
G01*
X95312000Y-96829999D01*
G75*
G02*
X95561999Y-96580000I249999J0D01*
G01*
G37*
%TD.AperFunction*%
%TD*%
D25*
%TO.N,GND*%
X106172000Y-104902000D03*
X90678000Y-95504000D03*
X80010000Y-109982000D03*
X92710000Y-109728000D03*
X99568000Y-93472000D03*
X79756000Y-94742000D03*
X93726000Y-104902000D03*
%TO.N,+5V*%
X86614000Y-104140000D03*
X92202000Y-99568000D03*
X102870000Y-101346000D03*
X91440000Y-107188000D03*
%TO.N,Net-(J4-Pad3)*%
X102471388Y-103695990D03*
%TD*%
D26*
%TO.N,GND*%
X79215000Y-107155000D02*
X79375000Y-107315000D01*
X83660000Y-107315000D02*
X83820000Y-107475000D01*
X79375000Y-107315000D02*
X83660000Y-107315000D01*
X83820000Y-107475000D02*
X85090000Y-107475000D01*
X85090000Y-107475000D02*
X86360000Y-107475000D01*
X104601500Y-104846000D02*
X104601500Y-104246010D01*
X104601500Y-104846000D02*
X106116000Y-104846000D01*
X106116000Y-104846000D02*
X106172000Y-104902000D01*
X78994000Y-106934000D02*
X79375000Y-107315000D01*
X78994000Y-104345000D02*
X78994000Y-106934000D01*
X84480001Y-100524999D02*
X85090000Y-101134998D01*
X78961000Y-101395000D02*
X79831001Y-100524999D01*
X85090000Y-101134998D02*
X85090000Y-102075000D01*
X77075998Y-104345000D02*
X76460999Y-103730001D01*
X76460999Y-103730001D02*
X76460999Y-102009999D01*
X78961000Y-104345000D02*
X77075998Y-104345000D01*
X76460999Y-102009999D02*
X77075998Y-101395000D01*
X77075998Y-101395000D02*
X78961000Y-101395000D01*
X93764500Y-97536000D02*
X92710000Y-97536000D01*
X92710000Y-97536000D02*
X90678000Y-95504000D01*
X94343000Y-97536000D02*
X96012000Y-99205000D01*
X93764500Y-97536000D02*
X94343000Y-97536000D01*
X81766000Y-109772000D02*
X80220000Y-109772000D01*
X80220000Y-109772000D02*
X80010000Y-109982000D01*
X89916000Y-109772000D02*
X92666000Y-109772000D01*
X92666000Y-109772000D02*
X92710000Y-109728000D01*
X92754000Y-109772000D02*
X92710000Y-109728000D01*
X95791000Y-109772000D02*
X92754000Y-109772000D01*
X98530000Y-101622000D02*
X101092000Y-99060000D01*
X98066000Y-101622000D02*
X98530000Y-101622000D01*
X98066000Y-95747000D02*
X98066000Y-93472000D01*
X98066000Y-93472000D02*
X95791000Y-93472000D01*
X98066000Y-93472000D02*
X99568000Y-93472000D01*
X89916000Y-94742000D02*
X90678000Y-95504000D01*
X89916000Y-93472000D02*
X89916000Y-94742000D01*
X84041000Y-93472000D02*
X81766000Y-93472000D01*
X81766000Y-93472000D02*
X81766000Y-95747000D01*
X81766000Y-93472000D02*
X81026000Y-93472000D01*
X81026000Y-93472000D02*
X79756000Y-94742000D01*
X81766000Y-100562000D02*
X81728999Y-100524999D01*
X81766000Y-101622000D02*
X81766000Y-100562000D01*
X79831001Y-100524999D02*
X81728999Y-100524999D01*
X81728999Y-100524999D02*
X84480001Y-100524999D01*
X103115000Y-99060000D02*
X104394000Y-97781000D01*
X101092000Y-99060000D02*
X103115000Y-99060000D01*
X81766000Y-109772000D02*
X84041000Y-109772000D01*
X92790000Y-106172000D02*
X92790000Y-105838000D01*
X92790000Y-105838000D02*
X93726000Y-104902000D01*
X93989000Y-104902000D02*
X95250000Y-106163000D01*
X93726000Y-104902000D02*
X93989000Y-104902000D01*
X98066000Y-107497000D02*
X98066000Y-109772000D01*
X98066000Y-109772000D02*
X95791000Y-109772000D01*
%TO.N,Net-(C1-Pad1)*%
X94893000Y-96036000D02*
X96012000Y-97155000D01*
X93852000Y-96036000D02*
X94893000Y-96036000D01*
X96829001Y-97972001D02*
X99639999Y-97972001D01*
X99639999Y-97972001D02*
X101092000Y-96520000D01*
X96012000Y-97155000D02*
X96829001Y-97972001D01*
%TO.N,+5V*%
X86360000Y-102075000D02*
X86360000Y-103886000D01*
X86360000Y-103886000D02*
X86614000Y-104140000D01*
X93852000Y-99036000D02*
X92734000Y-99036000D01*
X92734000Y-99036000D02*
X92202000Y-99568000D01*
X104394000Y-99831000D02*
X104385000Y-99831000D01*
X104385000Y-99831000D02*
X102870000Y-101346000D01*
X90090000Y-107122000D02*
X91374000Y-107122000D01*
X91374000Y-107122000D02*
X91440000Y-107188000D01*
%TO.N,Net-(J3-Pad1)*%
X83820000Y-102724998D02*
X83820000Y-102075000D01*
D27*
X85650001Y-103500001D02*
X85734999Y-103415003D01*
X83820000Y-103425000D02*
X83895001Y-103500001D01*
X83895001Y-103500001D02*
X85650001Y-103500001D01*
X83820000Y-102075000D02*
X83820000Y-103425000D01*
X85734999Y-99418999D02*
X85734999Y-103415003D01*
X83852000Y-97536000D02*
X85734999Y-99418999D01*
D26*
X83522999Y-103972001D02*
X83820000Y-103675000D01*
X80905999Y-103972001D02*
X83522999Y-103972001D01*
X83820000Y-103675000D02*
X83820000Y-102075000D01*
X79803998Y-102870000D02*
X80905999Y-103972001D01*
X77469000Y-102870000D02*
X79803998Y-102870000D01*
%TO.N,Net-(J4-Pad3)*%
X103661166Y-103546000D02*
X104601500Y-103546000D01*
X103338990Y-103868176D02*
X103661166Y-103546000D01*
X103338990Y-106903990D02*
X103338990Y-103868176D01*
X104131000Y-107696000D02*
X103338990Y-106903990D01*
X104601500Y-103546000D02*
X102621378Y-103546000D01*
X102621378Y-103546000D02*
X102471388Y-103695990D01*
%TO.N,Net-(J4-Pad1)*%
X101639010Y-103868176D02*
X101316834Y-103546000D01*
X101639010Y-106123990D02*
X101639010Y-103868176D01*
X101316834Y-103546000D02*
X100376500Y-103546000D01*
X100067000Y-107696000D02*
X101639010Y-106123990D01*
X101076510Y-102845990D02*
X100376500Y-103546000D01*
X106020990Y-102845990D02*
X101076510Y-102845990D01*
X107950000Y-104775000D02*
X106020990Y-102845990D01*
%TO.N,Net-(R1-Pad2)*%
X94456000Y-102616000D02*
X94456000Y-103731034D01*
X96273010Y-107189990D02*
X95250000Y-108213000D01*
X95109000Y-108072000D02*
X95250000Y-108213000D01*
X92790000Y-108072000D02*
X95109000Y-108072000D01*
X94583000Y-103731034D02*
X94456000Y-103731034D01*
X96400010Y-105548044D02*
X94583000Y-103731034D01*
X96273010Y-106904956D02*
X96400010Y-106777956D01*
X96400010Y-106777956D02*
X96400010Y-105548044D01*
X96273010Y-107189990D02*
X96273010Y-106904956D01*
%TO.N,Net-(RV1-Pad3)*%
X87630000Y-105875000D02*
X89005999Y-104499001D01*
X87630000Y-107475000D02*
X87630000Y-105875000D01*
X89302001Y-97836001D02*
X87852000Y-96386000D01*
X89302001Y-100139997D02*
X89302001Y-97836001D01*
X89005999Y-100435999D02*
X89302001Y-100139997D01*
X89005999Y-104499001D02*
X89005999Y-100435999D01*
X88227000Y-108072000D02*
X90090000Y-108072000D01*
X87630000Y-107475000D02*
X88227000Y-108072000D01*
%TO.N,Net-(RV2-Pad1)*%
X91906001Y-102916001D02*
X90456000Y-101466000D01*
X91906001Y-105003999D02*
X91906001Y-102916001D01*
X90756001Y-101165999D02*
X90456000Y-101466000D01*
X95816001Y-101165999D02*
X90756001Y-101165999D01*
X95906001Y-101255999D02*
X95816001Y-101165999D01*
X95906001Y-102672003D02*
X95906001Y-101255999D01*
X98079998Y-104846000D02*
X95906001Y-102672003D01*
X100376500Y-104846000D02*
X98079998Y-104846000D01*
X91258001Y-105003999D02*
X90090000Y-106172000D01*
X91906001Y-105003999D02*
X91258001Y-105003999D01*
%TO.N,VCC*%
X104731010Y-105546010D02*
X104601500Y-105546010D01*
X106181000Y-107696000D02*
X106181000Y-106996000D01*
D27*
X100376500Y-105496000D02*
X100376500Y-105538057D01*
X100376500Y-105496000D02*
X99990000Y-105496000D01*
D26*
X106181000Y-106996000D02*
X104731010Y-105546010D01*
X109250001Y-105985001D02*
X107539002Y-107696000D01*
X109250001Y-98455001D02*
X109250001Y-105985001D01*
X107539002Y-107696000D02*
X106181000Y-107696000D01*
X107950000Y-97155000D02*
X109250001Y-98455001D01*
X105030990Y-108846010D02*
X103267010Y-108846010D01*
X103267010Y-108846010D02*
X102117000Y-107696000D01*
X106181000Y-107696000D02*
X105030990Y-108846010D01*
X100326490Y-105546010D02*
X100376500Y-105546010D01*
X100966990Y-108846010D02*
X99452044Y-108846010D01*
X102117000Y-107696000D02*
X100966990Y-108846010D01*
X99452044Y-108846010D02*
X99041990Y-108435956D01*
X99041990Y-108435956D02*
X99041990Y-106830510D01*
X99041990Y-106830510D02*
X100326490Y-105546010D01*
%TD*%
D28*
%TO.N,GND*%
G36*
X76354498Y-103614180D02*
G01*
X76413463Y-103724494D01*
X76492815Y-103821185D01*
X76589506Y-103900537D01*
X76699820Y-103959502D01*
X76819518Y-103995812D01*
X76944000Y-104008072D01*
X77258343Y-104008072D01*
X77259000Y-104059250D01*
X77417750Y-104218000D01*
X78867000Y-104218000D01*
X78867000Y-104198000D01*
X79121000Y-104198000D01*
X79121000Y-104218000D01*
X79141000Y-104218000D01*
X79141000Y-104472000D01*
X79121000Y-104472000D01*
X79121000Y-105346250D01*
X79279750Y-105505000D01*
X80094000Y-105508072D01*
X80218482Y-105495812D01*
X80338180Y-105459502D01*
X80448494Y-105400537D01*
X80545185Y-105321185D01*
X80624537Y-105224494D01*
X80683502Y-105114180D01*
X80719812Y-104994482D01*
X80732072Y-104870000D01*
X80731738Y-104843962D01*
X80732509Y-104844196D01*
X80862522Y-104857001D01*
X80862530Y-104857001D01*
X80905999Y-104861282D01*
X80949468Y-104857001D01*
X81153000Y-104857001D01*
X81153000Y-105095057D01*
X81141518Y-105096188D01*
X81021820Y-105132498D01*
X80911506Y-105191463D01*
X80814815Y-105270815D01*
X80735463Y-105367506D01*
X80676498Y-105477820D01*
X80640188Y-105597518D01*
X80627928Y-105722000D01*
X80631000Y-107211250D01*
X80789750Y-107370000D01*
X81153000Y-107370000D01*
X81153000Y-107624000D01*
X80789750Y-107624000D01*
X80631000Y-107782750D01*
X80627928Y-109272000D01*
X80631000Y-109486250D01*
X80694375Y-109549625D01*
X80735463Y-109626494D01*
X80814815Y-109723185D01*
X80911506Y-109802537D01*
X81021820Y-109861502D01*
X81141518Y-109897812D01*
X81153000Y-109898943D01*
X81153000Y-109899000D01*
X80789750Y-109899000D01*
X80631000Y-110057750D01*
X80627928Y-110272000D01*
X80636890Y-110363000D01*
X76327000Y-110363000D01*
X76327000Y-108165000D01*
X77505928Y-108165000D01*
X77518188Y-108289482D01*
X77554498Y-108409180D01*
X77613463Y-108519494D01*
X77692815Y-108616185D01*
X77789506Y-108695537D01*
X77899820Y-108754502D01*
X78019518Y-108790812D01*
X78144000Y-108803072D01*
X78708250Y-108800000D01*
X78867000Y-108641250D01*
X78867000Y-107442000D01*
X79121000Y-107442000D01*
X79121000Y-108641250D01*
X79279750Y-108800000D01*
X79844000Y-108803072D01*
X79968482Y-108790812D01*
X80088180Y-108754502D01*
X80198494Y-108695537D01*
X80295185Y-108616185D01*
X80374537Y-108519494D01*
X80433502Y-108409180D01*
X80469812Y-108289482D01*
X80482072Y-108165000D01*
X80479000Y-107600750D01*
X80320250Y-107442000D01*
X79121000Y-107442000D01*
X78867000Y-107442000D01*
X77667750Y-107442000D01*
X77509000Y-107600750D01*
X77505928Y-108165000D01*
X76327000Y-108165000D01*
X76327000Y-106465000D01*
X77505928Y-106465000D01*
X77509000Y-107029250D01*
X77667750Y-107188000D01*
X78867000Y-107188000D01*
X78867000Y-105988750D01*
X79121000Y-105988750D01*
X79121000Y-107188000D01*
X80320250Y-107188000D01*
X80479000Y-107029250D01*
X80482072Y-106465000D01*
X80469812Y-106340518D01*
X80433502Y-106220820D01*
X80374537Y-106110506D01*
X80295185Y-106013815D01*
X80198494Y-105934463D01*
X80088180Y-105875498D01*
X79968482Y-105839188D01*
X79844000Y-105826928D01*
X79279750Y-105830000D01*
X79121000Y-105988750D01*
X78867000Y-105988750D01*
X78708250Y-105830000D01*
X78144000Y-105826928D01*
X78019518Y-105839188D01*
X77899820Y-105875498D01*
X77789506Y-105934463D01*
X77692815Y-106013815D01*
X77613463Y-106110506D01*
X77554498Y-106220820D01*
X77518188Y-106340518D01*
X77505928Y-106465000D01*
X76327000Y-106465000D01*
X76327000Y-104870000D01*
X77255928Y-104870000D01*
X77268188Y-104994482D01*
X77304498Y-105114180D01*
X77363463Y-105224494D01*
X77442815Y-105321185D01*
X77539506Y-105400537D01*
X77649820Y-105459502D01*
X77769518Y-105495812D01*
X77894000Y-105508072D01*
X78708250Y-105505000D01*
X78867000Y-105346250D01*
X78867000Y-104472000D01*
X77417750Y-104472000D01*
X77259000Y-104630750D01*
X77255928Y-104870000D01*
X76327000Y-104870000D01*
X76327000Y-103523531D01*
X76354498Y-103614180D01*
G37*
X76354498Y-103614180D02*
X76413463Y-103724494D01*
X76492815Y-103821185D01*
X76589506Y-103900537D01*
X76699820Y-103959502D01*
X76819518Y-103995812D01*
X76944000Y-104008072D01*
X77258343Y-104008072D01*
X77259000Y-104059250D01*
X77417750Y-104218000D01*
X78867000Y-104218000D01*
X78867000Y-104198000D01*
X79121000Y-104198000D01*
X79121000Y-104218000D01*
X79141000Y-104218000D01*
X79141000Y-104472000D01*
X79121000Y-104472000D01*
X79121000Y-105346250D01*
X79279750Y-105505000D01*
X80094000Y-105508072D01*
X80218482Y-105495812D01*
X80338180Y-105459502D01*
X80448494Y-105400537D01*
X80545185Y-105321185D01*
X80624537Y-105224494D01*
X80683502Y-105114180D01*
X80719812Y-104994482D01*
X80732072Y-104870000D01*
X80731738Y-104843962D01*
X80732509Y-104844196D01*
X80862522Y-104857001D01*
X80862530Y-104857001D01*
X80905999Y-104861282D01*
X80949468Y-104857001D01*
X81153000Y-104857001D01*
X81153000Y-105095057D01*
X81141518Y-105096188D01*
X81021820Y-105132498D01*
X80911506Y-105191463D01*
X80814815Y-105270815D01*
X80735463Y-105367506D01*
X80676498Y-105477820D01*
X80640188Y-105597518D01*
X80627928Y-105722000D01*
X80631000Y-107211250D01*
X80789750Y-107370000D01*
X81153000Y-107370000D01*
X81153000Y-107624000D01*
X80789750Y-107624000D01*
X80631000Y-107782750D01*
X80627928Y-109272000D01*
X80631000Y-109486250D01*
X80694375Y-109549625D01*
X80735463Y-109626494D01*
X80814815Y-109723185D01*
X80911506Y-109802537D01*
X81021820Y-109861502D01*
X81141518Y-109897812D01*
X81153000Y-109898943D01*
X81153000Y-109899000D01*
X80789750Y-109899000D01*
X80631000Y-110057750D01*
X80627928Y-110272000D01*
X80636890Y-110363000D01*
X76327000Y-110363000D01*
X76327000Y-108165000D01*
X77505928Y-108165000D01*
X77518188Y-108289482D01*
X77554498Y-108409180D01*
X77613463Y-108519494D01*
X77692815Y-108616185D01*
X77789506Y-108695537D01*
X77899820Y-108754502D01*
X78019518Y-108790812D01*
X78144000Y-108803072D01*
X78708250Y-108800000D01*
X78867000Y-108641250D01*
X78867000Y-107442000D01*
X79121000Y-107442000D01*
X79121000Y-108641250D01*
X79279750Y-108800000D01*
X79844000Y-108803072D01*
X79968482Y-108790812D01*
X80088180Y-108754502D01*
X80198494Y-108695537D01*
X80295185Y-108616185D01*
X80374537Y-108519494D01*
X80433502Y-108409180D01*
X80469812Y-108289482D01*
X80482072Y-108165000D01*
X80479000Y-107600750D01*
X80320250Y-107442000D01*
X79121000Y-107442000D01*
X78867000Y-107442000D01*
X77667750Y-107442000D01*
X77509000Y-107600750D01*
X77505928Y-108165000D01*
X76327000Y-108165000D01*
X76327000Y-106465000D01*
X77505928Y-106465000D01*
X77509000Y-107029250D01*
X77667750Y-107188000D01*
X78867000Y-107188000D01*
X78867000Y-105988750D01*
X79121000Y-105988750D01*
X79121000Y-107188000D01*
X80320250Y-107188000D01*
X80479000Y-107029250D01*
X80482072Y-106465000D01*
X80469812Y-106340518D01*
X80433502Y-106220820D01*
X80374537Y-106110506D01*
X80295185Y-106013815D01*
X80198494Y-105934463D01*
X80088180Y-105875498D01*
X79968482Y-105839188D01*
X79844000Y-105826928D01*
X79279750Y-105830000D01*
X79121000Y-105988750D01*
X78867000Y-105988750D01*
X78708250Y-105830000D01*
X78144000Y-105826928D01*
X78019518Y-105839188D01*
X77899820Y-105875498D01*
X77789506Y-105934463D01*
X77692815Y-106013815D01*
X77613463Y-106110506D01*
X77554498Y-106220820D01*
X77518188Y-106340518D01*
X77505928Y-106465000D01*
X76327000Y-106465000D01*
X76327000Y-104870000D01*
X77255928Y-104870000D01*
X77268188Y-104994482D01*
X77304498Y-105114180D01*
X77363463Y-105224494D01*
X77442815Y-105321185D01*
X77539506Y-105400537D01*
X77649820Y-105459502D01*
X77769518Y-105495812D01*
X77894000Y-105508072D01*
X78708250Y-105505000D01*
X78867000Y-105346250D01*
X78867000Y-104472000D01*
X77417750Y-104472000D01*
X77259000Y-104630750D01*
X77255928Y-104870000D01*
X76327000Y-104870000D01*
X76327000Y-103523531D01*
X76354498Y-103614180D01*
G36*
X80640188Y-92847518D02*
G01*
X80627928Y-92972000D01*
X80631000Y-93186250D01*
X80789750Y-93345000D01*
X81153000Y-93345000D01*
X81153000Y-93345057D01*
X81141518Y-93346188D01*
X81021820Y-93382498D01*
X80911506Y-93441463D01*
X80814815Y-93520815D01*
X80735463Y-93617506D01*
X80694375Y-93694375D01*
X80631000Y-93757750D01*
X80627928Y-93972000D01*
X80631000Y-95461250D01*
X80789750Y-95620000D01*
X81153000Y-95620000D01*
X81153000Y-95874000D01*
X80789750Y-95874000D01*
X80631000Y-96032750D01*
X80627928Y-97522000D01*
X80640188Y-97646482D01*
X80676498Y-97766180D01*
X80735463Y-97876494D01*
X80814815Y-97973185D01*
X80911506Y-98052537D01*
X81021820Y-98111502D01*
X81141518Y-98147812D01*
X81153000Y-98148943D01*
X81153000Y-99095057D01*
X81141518Y-99096188D01*
X81021820Y-99132498D01*
X80911506Y-99191463D01*
X80814815Y-99270815D01*
X80735463Y-99367506D01*
X80676498Y-99477820D01*
X80640188Y-99597518D01*
X80627928Y-99722000D01*
X80629456Y-100524708D01*
X80624537Y-100515506D01*
X80545185Y-100418815D01*
X80448494Y-100339463D01*
X80338180Y-100280498D01*
X80218482Y-100244188D01*
X80094000Y-100231928D01*
X79279750Y-100235000D01*
X79121000Y-100393750D01*
X79121000Y-101268000D01*
X79141000Y-101268000D01*
X79141000Y-101522000D01*
X79121000Y-101522000D01*
X79121000Y-101542000D01*
X78867000Y-101542000D01*
X78867000Y-101522000D01*
X77417750Y-101522000D01*
X77259000Y-101680750D01*
X77258343Y-101731928D01*
X76944000Y-101731928D01*
X76819518Y-101744188D01*
X76699820Y-101780498D01*
X76589506Y-101839463D01*
X76492815Y-101918815D01*
X76413463Y-102015506D01*
X76354498Y-102125820D01*
X76327000Y-102216469D01*
X76327000Y-100870000D01*
X77255928Y-100870000D01*
X77259000Y-101109250D01*
X77417750Y-101268000D01*
X78867000Y-101268000D01*
X78867000Y-100393750D01*
X78708250Y-100235000D01*
X77894000Y-100231928D01*
X77769518Y-100244188D01*
X77649820Y-100280498D01*
X77539506Y-100339463D01*
X77442815Y-100418815D01*
X77363463Y-100515506D01*
X77304498Y-100625820D01*
X77268188Y-100745518D01*
X77255928Y-100870000D01*
X76327000Y-100870000D01*
X76327000Y-92837000D01*
X80643379Y-92837000D01*
X80640188Y-92847518D01*
G37*
X80640188Y-92847518D02*
X80627928Y-92972000D01*
X80631000Y-93186250D01*
X80789750Y-93345000D01*
X81153000Y-93345000D01*
X81153000Y-93345057D01*
X81141518Y-93346188D01*
X81021820Y-93382498D01*
X80911506Y-93441463D01*
X80814815Y-93520815D01*
X80735463Y-93617506D01*
X80694375Y-93694375D01*
X80631000Y-93757750D01*
X80627928Y-93972000D01*
X80631000Y-95461250D01*
X80789750Y-95620000D01*
X81153000Y-95620000D01*
X81153000Y-95874000D01*
X80789750Y-95874000D01*
X80631000Y-96032750D01*
X80627928Y-97522000D01*
X80640188Y-97646482D01*
X80676498Y-97766180D01*
X80735463Y-97876494D01*
X80814815Y-97973185D01*
X80911506Y-98052537D01*
X81021820Y-98111502D01*
X81141518Y-98147812D01*
X81153000Y-98148943D01*
X81153000Y-99095057D01*
X81141518Y-99096188D01*
X81021820Y-99132498D01*
X80911506Y-99191463D01*
X80814815Y-99270815D01*
X80735463Y-99367506D01*
X80676498Y-99477820D01*
X80640188Y-99597518D01*
X80627928Y-99722000D01*
X80629456Y-100524708D01*
X80624537Y-100515506D01*
X80545185Y-100418815D01*
X80448494Y-100339463D01*
X80338180Y-100280498D01*
X80218482Y-100244188D01*
X80094000Y-100231928D01*
X79279750Y-100235000D01*
X79121000Y-100393750D01*
X79121000Y-101268000D01*
X79141000Y-101268000D01*
X79141000Y-101522000D01*
X79121000Y-101522000D01*
X79121000Y-101542000D01*
X78867000Y-101542000D01*
X78867000Y-101522000D01*
X77417750Y-101522000D01*
X77259000Y-101680750D01*
X77258343Y-101731928D01*
X76944000Y-101731928D01*
X76819518Y-101744188D01*
X76699820Y-101780498D01*
X76589506Y-101839463D01*
X76492815Y-101918815D01*
X76413463Y-102015506D01*
X76354498Y-102125820D01*
X76327000Y-102216469D01*
X76327000Y-100870000D01*
X77255928Y-100870000D01*
X77259000Y-101109250D01*
X77417750Y-101268000D01*
X78867000Y-101268000D01*
X78867000Y-100393750D01*
X78708250Y-100235000D01*
X77894000Y-100231928D01*
X77769518Y-100244188D01*
X77649820Y-100280498D01*
X77539506Y-100339463D01*
X77442815Y-100418815D01*
X77363463Y-100515506D01*
X77304498Y-100625820D01*
X77268188Y-100745518D01*
X77255928Y-100870000D01*
X76327000Y-100870000D01*
X76327000Y-92837000D01*
X80643379Y-92837000D01*
X80640188Y-92847518D01*
%TD*%
M02*
