%TF.GenerationSoftware,KiCad,Pcbnew,(5.1.6)-1*%
%TF.CreationDate,2020-10-30T20:39:21-07:00*%
%TF.ProjectId,frontendfull,66726f6e-7465-46e6-9466-756c6c2e6b69,rev?*%
%TF.SameCoordinates,Original*%
%TF.FileFunction,Copper,L3,Inr*%
%TF.FilePolarity,Positive*%
%FSLAX46Y46*%
G04 Gerber Fmt 4.6, Leading zero omitted, Abs format (unit mm)*
G04 Created by KiCad (PCBNEW (5.1.6)-1) date 2020-10-30 20:39:21*
%MOMM*%
%LPD*%
G01*
G04 APERTURE LIST*
%TA.AperFunction,ViaPad*%
%ADD10O,1.700000X1.700000*%
%TD*%
%TA.AperFunction,ViaPad*%
%ADD11R,1.700000X1.700000*%
%TD*%
%TA.AperFunction,ViaPad*%
%ADD12C,0.800000*%
%TD*%
%TA.AperFunction,Conductor*%
%ADD13C,0.254000*%
%TD*%
G04 APERTURE END LIST*
D10*
%TO.N,VCC*%
%TO.C,J4*%
X107950000Y-97155000D03*
%TO.N,Net-(J4-Pad3)*%
X107950000Y-99695000D03*
%TO.N,GND*%
X107950000Y-102235000D03*
D11*
%TO.N,Net-(J4-Pad1)*%
X107950000Y-104775000D03*
%TD*%
%TO.N,GND*%
%TO.C,J2*%
X78994000Y-107315000D03*
%TD*%
D10*
%TO.N,GND*%
%TO.C,J1*%
X101092000Y-99060000D03*
D11*
%TO.N,Net-(C1-Pad1)*%
X101092000Y-96520000D03*
%TD*%
D12*
%TO.N,GND*%
X106172000Y-104902000D03*
X90678000Y-95504000D03*
X80010000Y-109982000D03*
X92710000Y-109728000D03*
X99568000Y-93472000D03*
X79756000Y-94742000D03*
X93726000Y-104902000D03*
%TO.N,+5V*%
X86614000Y-104140000D03*
X92202000Y-99568000D03*
X102870000Y-101346000D03*
X91440000Y-107188000D03*
%TO.N,Net-(J4-Pad3)*%
X102471388Y-103695990D03*
%TD*%
D13*
%TO.N,+5V*%
G36*
X98650795Y-92981744D02*
G01*
X98572774Y-93170102D01*
X98533000Y-93370061D01*
X98533000Y-93573939D01*
X98572774Y-93773898D01*
X98650795Y-93962256D01*
X98764063Y-94131774D01*
X98908226Y-94275937D01*
X99077744Y-94389205D01*
X99266102Y-94467226D01*
X99466061Y-94507000D01*
X99669939Y-94507000D01*
X99869898Y-94467226D01*
X100058256Y-94389205D01*
X100227774Y-94275937D01*
X100371937Y-94131774D01*
X100485205Y-93962256D01*
X100563226Y-93773898D01*
X100603000Y-93573939D01*
X100603000Y-93370061D01*
X100563226Y-93170102D01*
X100485205Y-92981744D01*
X100388490Y-92837000D01*
X109093000Y-92837000D01*
X109093000Y-96197893D01*
X108896632Y-96001525D01*
X108653411Y-95839010D01*
X108383158Y-95727068D01*
X108096260Y-95670000D01*
X107803740Y-95670000D01*
X107516842Y-95727068D01*
X107246589Y-95839010D01*
X107003368Y-96001525D01*
X106796525Y-96208368D01*
X106634010Y-96451589D01*
X106522068Y-96721842D01*
X106465000Y-97008740D01*
X106465000Y-97301260D01*
X106522068Y-97588158D01*
X106634010Y-97858411D01*
X106796525Y-98101632D01*
X107003368Y-98308475D01*
X107177760Y-98425000D01*
X107003368Y-98541525D01*
X106796525Y-98748368D01*
X106634010Y-98991589D01*
X106522068Y-99261842D01*
X106465000Y-99548740D01*
X106465000Y-99841260D01*
X106522068Y-100128158D01*
X106634010Y-100398411D01*
X106796525Y-100641632D01*
X107003368Y-100848475D01*
X107177760Y-100965000D01*
X107003368Y-101081525D01*
X106796525Y-101288368D01*
X106634010Y-101531589D01*
X106522068Y-101801842D01*
X106465000Y-102088740D01*
X106465000Y-102381260D01*
X106522068Y-102668158D01*
X106634010Y-102938411D01*
X106796525Y-103181632D01*
X106928380Y-103313487D01*
X106855820Y-103335498D01*
X106745506Y-103394463D01*
X106648815Y-103473815D01*
X106569463Y-103570506D01*
X106510498Y-103680820D01*
X106474188Y-103800518D01*
X106463919Y-103904789D01*
X106273939Y-103867000D01*
X106070061Y-103867000D01*
X105870102Y-103906774D01*
X105681744Y-103984795D01*
X105512226Y-104098063D01*
X105368063Y-104242226D01*
X105254795Y-104411744D01*
X105176774Y-104600102D01*
X105137000Y-104800061D01*
X105137000Y-105003939D01*
X105176774Y-105203898D01*
X105254795Y-105392256D01*
X105368063Y-105561774D01*
X105512226Y-105705937D01*
X105681744Y-105819205D01*
X105870102Y-105897226D01*
X106070061Y-105937000D01*
X106273939Y-105937000D01*
X106473898Y-105897226D01*
X106516137Y-105879730D01*
X106569463Y-105979494D01*
X106648815Y-106076185D01*
X106745506Y-106155537D01*
X106855820Y-106214502D01*
X106975518Y-106250812D01*
X107100000Y-106263072D01*
X108800000Y-106263072D01*
X108924482Y-106250812D01*
X109044180Y-106214502D01*
X109093000Y-106188407D01*
X109093000Y-110363000D01*
X93530490Y-110363000D01*
X93627205Y-110218256D01*
X93705226Y-110029898D01*
X93745000Y-109829939D01*
X93745000Y-109626061D01*
X93705226Y-109426102D01*
X93627205Y-109237744D01*
X93513937Y-109068226D01*
X93369774Y-108924063D01*
X93200256Y-108810795D01*
X93011898Y-108732774D01*
X92811939Y-108693000D01*
X92608061Y-108693000D01*
X92408102Y-108732774D01*
X92219744Y-108810795D01*
X92050226Y-108924063D01*
X91906063Y-109068226D01*
X91792795Y-109237744D01*
X91714774Y-109426102D01*
X91675000Y-109626061D01*
X91675000Y-109829939D01*
X91714774Y-110029898D01*
X91792795Y-110218256D01*
X91889510Y-110363000D01*
X80972461Y-110363000D01*
X81005226Y-110283898D01*
X81045000Y-110083939D01*
X81045000Y-109880061D01*
X81005226Y-109680102D01*
X80927205Y-109491744D01*
X80813937Y-109322226D01*
X80669774Y-109178063D01*
X80500256Y-109064795D01*
X80311898Y-108986774D01*
X80111939Y-108947000D01*
X79908061Y-108947000D01*
X79708102Y-108986774D01*
X79519744Y-109064795D01*
X79350226Y-109178063D01*
X79206063Y-109322226D01*
X79092795Y-109491744D01*
X79014774Y-109680102D01*
X78975000Y-109880061D01*
X78975000Y-110083939D01*
X79014774Y-110283898D01*
X79047539Y-110363000D01*
X76327000Y-110363000D01*
X76327000Y-106465000D01*
X77505928Y-106465000D01*
X77505928Y-108165000D01*
X77518188Y-108289482D01*
X77554498Y-108409180D01*
X77613463Y-108519494D01*
X77692815Y-108616185D01*
X77789506Y-108695537D01*
X77899820Y-108754502D01*
X78019518Y-108790812D01*
X78144000Y-108803072D01*
X79844000Y-108803072D01*
X79968482Y-108790812D01*
X80088180Y-108754502D01*
X80198494Y-108695537D01*
X80295185Y-108616185D01*
X80374537Y-108519494D01*
X80433502Y-108409180D01*
X80469812Y-108289482D01*
X80482072Y-108165000D01*
X80482072Y-106465000D01*
X80469812Y-106340518D01*
X80433502Y-106220820D01*
X80374537Y-106110506D01*
X80295185Y-106013815D01*
X80198494Y-105934463D01*
X80088180Y-105875498D01*
X79968482Y-105839188D01*
X79844000Y-105826928D01*
X78144000Y-105826928D01*
X78019518Y-105839188D01*
X77899820Y-105875498D01*
X77789506Y-105934463D01*
X77692815Y-106013815D01*
X77613463Y-106110506D01*
X77554498Y-106220820D01*
X77518188Y-106340518D01*
X77505928Y-106465000D01*
X76327000Y-106465000D01*
X76327000Y-104800061D01*
X92691000Y-104800061D01*
X92691000Y-105003939D01*
X92730774Y-105203898D01*
X92808795Y-105392256D01*
X92922063Y-105561774D01*
X93066226Y-105705937D01*
X93235744Y-105819205D01*
X93424102Y-105897226D01*
X93624061Y-105937000D01*
X93827939Y-105937000D01*
X94027898Y-105897226D01*
X94216256Y-105819205D01*
X94385774Y-105705937D01*
X94529937Y-105561774D01*
X94643205Y-105392256D01*
X94721226Y-105203898D01*
X94761000Y-105003939D01*
X94761000Y-104800061D01*
X94721226Y-104600102D01*
X94643205Y-104411744D01*
X94529937Y-104242226D01*
X94385774Y-104098063D01*
X94216256Y-103984795D01*
X94027898Y-103906774D01*
X93827939Y-103867000D01*
X93624061Y-103867000D01*
X93424102Y-103906774D01*
X93235744Y-103984795D01*
X93066226Y-104098063D01*
X92922063Y-104242226D01*
X92808795Y-104411744D01*
X92730774Y-104600102D01*
X92691000Y-104800061D01*
X76327000Y-104800061D01*
X76327000Y-103594051D01*
X101436388Y-103594051D01*
X101436388Y-103797929D01*
X101476162Y-103997888D01*
X101554183Y-104186246D01*
X101667451Y-104355764D01*
X101811614Y-104499927D01*
X101981132Y-104613195D01*
X102169490Y-104691216D01*
X102369449Y-104730990D01*
X102573327Y-104730990D01*
X102773286Y-104691216D01*
X102961644Y-104613195D01*
X103131162Y-104499927D01*
X103275325Y-104355764D01*
X103388593Y-104186246D01*
X103466614Y-103997888D01*
X103506388Y-103797929D01*
X103506388Y-103594051D01*
X103466614Y-103394092D01*
X103388593Y-103205734D01*
X103275325Y-103036216D01*
X103131162Y-102892053D01*
X102961644Y-102778785D01*
X102773286Y-102700764D01*
X102573327Y-102660990D01*
X102369449Y-102660990D01*
X102169490Y-102700764D01*
X101981132Y-102778785D01*
X101811614Y-102892053D01*
X101667451Y-103036216D01*
X101554183Y-103205734D01*
X101476162Y-103394092D01*
X101436388Y-103594051D01*
X76327000Y-103594051D01*
X76327000Y-94640061D01*
X78721000Y-94640061D01*
X78721000Y-94843939D01*
X78760774Y-95043898D01*
X78838795Y-95232256D01*
X78952063Y-95401774D01*
X79096226Y-95545937D01*
X79265744Y-95659205D01*
X79454102Y-95737226D01*
X79654061Y-95777000D01*
X79857939Y-95777000D01*
X80057898Y-95737226D01*
X80246256Y-95659205D01*
X80415774Y-95545937D01*
X80559650Y-95402061D01*
X89643000Y-95402061D01*
X89643000Y-95605939D01*
X89682774Y-95805898D01*
X89760795Y-95994256D01*
X89874063Y-96163774D01*
X90018226Y-96307937D01*
X90187744Y-96421205D01*
X90376102Y-96499226D01*
X90576061Y-96539000D01*
X90779939Y-96539000D01*
X90979898Y-96499226D01*
X91168256Y-96421205D01*
X91337774Y-96307937D01*
X91481937Y-96163774D01*
X91595205Y-95994256D01*
X91673226Y-95805898D01*
X91700257Y-95670000D01*
X99603928Y-95670000D01*
X99603928Y-97370000D01*
X99616188Y-97494482D01*
X99652498Y-97614180D01*
X99711463Y-97724494D01*
X99790815Y-97821185D01*
X99887506Y-97900537D01*
X99997820Y-97959502D01*
X100070380Y-97981513D01*
X99938525Y-98113368D01*
X99776010Y-98356589D01*
X99664068Y-98626842D01*
X99607000Y-98913740D01*
X99607000Y-99206260D01*
X99664068Y-99493158D01*
X99776010Y-99763411D01*
X99938525Y-100006632D01*
X100145368Y-100213475D01*
X100388589Y-100375990D01*
X100658842Y-100487932D01*
X100945740Y-100545000D01*
X101238260Y-100545000D01*
X101525158Y-100487932D01*
X101795411Y-100375990D01*
X102038632Y-100213475D01*
X102245475Y-100006632D01*
X102407990Y-99763411D01*
X102519932Y-99493158D01*
X102577000Y-99206260D01*
X102577000Y-98913740D01*
X102519932Y-98626842D01*
X102407990Y-98356589D01*
X102245475Y-98113368D01*
X102113620Y-97981513D01*
X102186180Y-97959502D01*
X102296494Y-97900537D01*
X102393185Y-97821185D01*
X102472537Y-97724494D01*
X102531502Y-97614180D01*
X102567812Y-97494482D01*
X102580072Y-97370000D01*
X102580072Y-95670000D01*
X102567812Y-95545518D01*
X102531502Y-95425820D01*
X102472537Y-95315506D01*
X102393185Y-95218815D01*
X102296494Y-95139463D01*
X102186180Y-95080498D01*
X102066482Y-95044188D01*
X101942000Y-95031928D01*
X100242000Y-95031928D01*
X100117518Y-95044188D01*
X99997820Y-95080498D01*
X99887506Y-95139463D01*
X99790815Y-95218815D01*
X99711463Y-95315506D01*
X99652498Y-95425820D01*
X99616188Y-95545518D01*
X99603928Y-95670000D01*
X91700257Y-95670000D01*
X91713000Y-95605939D01*
X91713000Y-95402061D01*
X91673226Y-95202102D01*
X91595205Y-95013744D01*
X91481937Y-94844226D01*
X91337774Y-94700063D01*
X91168256Y-94586795D01*
X90979898Y-94508774D01*
X90779939Y-94469000D01*
X90576061Y-94469000D01*
X90376102Y-94508774D01*
X90187744Y-94586795D01*
X90018226Y-94700063D01*
X89874063Y-94844226D01*
X89760795Y-95013744D01*
X89682774Y-95202102D01*
X89643000Y-95402061D01*
X80559650Y-95402061D01*
X80559937Y-95401774D01*
X80673205Y-95232256D01*
X80751226Y-95043898D01*
X80791000Y-94843939D01*
X80791000Y-94640061D01*
X80751226Y-94440102D01*
X80673205Y-94251744D01*
X80559937Y-94082226D01*
X80415774Y-93938063D01*
X80246256Y-93824795D01*
X80057898Y-93746774D01*
X79857939Y-93707000D01*
X79654061Y-93707000D01*
X79454102Y-93746774D01*
X79265744Y-93824795D01*
X79096226Y-93938063D01*
X78952063Y-94082226D01*
X78838795Y-94251744D01*
X78760774Y-94440102D01*
X78721000Y-94640061D01*
X76327000Y-94640061D01*
X76327000Y-92837000D01*
X98747510Y-92837000D01*
X98650795Y-92981744D01*
G37*
X98650795Y-92981744D02*
X98572774Y-93170102D01*
X98533000Y-93370061D01*
X98533000Y-93573939D01*
X98572774Y-93773898D01*
X98650795Y-93962256D01*
X98764063Y-94131774D01*
X98908226Y-94275937D01*
X99077744Y-94389205D01*
X99266102Y-94467226D01*
X99466061Y-94507000D01*
X99669939Y-94507000D01*
X99869898Y-94467226D01*
X100058256Y-94389205D01*
X100227774Y-94275937D01*
X100371937Y-94131774D01*
X100485205Y-93962256D01*
X100563226Y-93773898D01*
X100603000Y-93573939D01*
X100603000Y-93370061D01*
X100563226Y-93170102D01*
X100485205Y-92981744D01*
X100388490Y-92837000D01*
X109093000Y-92837000D01*
X109093000Y-96197893D01*
X108896632Y-96001525D01*
X108653411Y-95839010D01*
X108383158Y-95727068D01*
X108096260Y-95670000D01*
X107803740Y-95670000D01*
X107516842Y-95727068D01*
X107246589Y-95839010D01*
X107003368Y-96001525D01*
X106796525Y-96208368D01*
X106634010Y-96451589D01*
X106522068Y-96721842D01*
X106465000Y-97008740D01*
X106465000Y-97301260D01*
X106522068Y-97588158D01*
X106634010Y-97858411D01*
X106796525Y-98101632D01*
X107003368Y-98308475D01*
X107177760Y-98425000D01*
X107003368Y-98541525D01*
X106796525Y-98748368D01*
X106634010Y-98991589D01*
X106522068Y-99261842D01*
X106465000Y-99548740D01*
X106465000Y-99841260D01*
X106522068Y-100128158D01*
X106634010Y-100398411D01*
X106796525Y-100641632D01*
X107003368Y-100848475D01*
X107177760Y-100965000D01*
X107003368Y-101081525D01*
X106796525Y-101288368D01*
X106634010Y-101531589D01*
X106522068Y-101801842D01*
X106465000Y-102088740D01*
X106465000Y-102381260D01*
X106522068Y-102668158D01*
X106634010Y-102938411D01*
X106796525Y-103181632D01*
X106928380Y-103313487D01*
X106855820Y-103335498D01*
X106745506Y-103394463D01*
X106648815Y-103473815D01*
X106569463Y-103570506D01*
X106510498Y-103680820D01*
X106474188Y-103800518D01*
X106463919Y-103904789D01*
X106273939Y-103867000D01*
X106070061Y-103867000D01*
X105870102Y-103906774D01*
X105681744Y-103984795D01*
X105512226Y-104098063D01*
X105368063Y-104242226D01*
X105254795Y-104411744D01*
X105176774Y-104600102D01*
X105137000Y-104800061D01*
X105137000Y-105003939D01*
X105176774Y-105203898D01*
X105254795Y-105392256D01*
X105368063Y-105561774D01*
X105512226Y-105705937D01*
X105681744Y-105819205D01*
X105870102Y-105897226D01*
X106070061Y-105937000D01*
X106273939Y-105937000D01*
X106473898Y-105897226D01*
X106516137Y-105879730D01*
X106569463Y-105979494D01*
X106648815Y-106076185D01*
X106745506Y-106155537D01*
X106855820Y-106214502D01*
X106975518Y-106250812D01*
X107100000Y-106263072D01*
X108800000Y-106263072D01*
X108924482Y-106250812D01*
X109044180Y-106214502D01*
X109093000Y-106188407D01*
X109093000Y-110363000D01*
X93530490Y-110363000D01*
X93627205Y-110218256D01*
X93705226Y-110029898D01*
X93745000Y-109829939D01*
X93745000Y-109626061D01*
X93705226Y-109426102D01*
X93627205Y-109237744D01*
X93513937Y-109068226D01*
X93369774Y-108924063D01*
X93200256Y-108810795D01*
X93011898Y-108732774D01*
X92811939Y-108693000D01*
X92608061Y-108693000D01*
X92408102Y-108732774D01*
X92219744Y-108810795D01*
X92050226Y-108924063D01*
X91906063Y-109068226D01*
X91792795Y-109237744D01*
X91714774Y-109426102D01*
X91675000Y-109626061D01*
X91675000Y-109829939D01*
X91714774Y-110029898D01*
X91792795Y-110218256D01*
X91889510Y-110363000D01*
X80972461Y-110363000D01*
X81005226Y-110283898D01*
X81045000Y-110083939D01*
X81045000Y-109880061D01*
X81005226Y-109680102D01*
X80927205Y-109491744D01*
X80813937Y-109322226D01*
X80669774Y-109178063D01*
X80500256Y-109064795D01*
X80311898Y-108986774D01*
X80111939Y-108947000D01*
X79908061Y-108947000D01*
X79708102Y-108986774D01*
X79519744Y-109064795D01*
X79350226Y-109178063D01*
X79206063Y-109322226D01*
X79092795Y-109491744D01*
X79014774Y-109680102D01*
X78975000Y-109880061D01*
X78975000Y-110083939D01*
X79014774Y-110283898D01*
X79047539Y-110363000D01*
X76327000Y-110363000D01*
X76327000Y-106465000D01*
X77505928Y-106465000D01*
X77505928Y-108165000D01*
X77518188Y-108289482D01*
X77554498Y-108409180D01*
X77613463Y-108519494D01*
X77692815Y-108616185D01*
X77789506Y-108695537D01*
X77899820Y-108754502D01*
X78019518Y-108790812D01*
X78144000Y-108803072D01*
X79844000Y-108803072D01*
X79968482Y-108790812D01*
X80088180Y-108754502D01*
X80198494Y-108695537D01*
X80295185Y-108616185D01*
X80374537Y-108519494D01*
X80433502Y-108409180D01*
X80469812Y-108289482D01*
X80482072Y-108165000D01*
X80482072Y-106465000D01*
X80469812Y-106340518D01*
X80433502Y-106220820D01*
X80374537Y-106110506D01*
X80295185Y-106013815D01*
X80198494Y-105934463D01*
X80088180Y-105875498D01*
X79968482Y-105839188D01*
X79844000Y-105826928D01*
X78144000Y-105826928D01*
X78019518Y-105839188D01*
X77899820Y-105875498D01*
X77789506Y-105934463D01*
X77692815Y-106013815D01*
X77613463Y-106110506D01*
X77554498Y-106220820D01*
X77518188Y-106340518D01*
X77505928Y-106465000D01*
X76327000Y-106465000D01*
X76327000Y-104800061D01*
X92691000Y-104800061D01*
X92691000Y-105003939D01*
X92730774Y-105203898D01*
X92808795Y-105392256D01*
X92922063Y-105561774D01*
X93066226Y-105705937D01*
X93235744Y-105819205D01*
X93424102Y-105897226D01*
X93624061Y-105937000D01*
X93827939Y-105937000D01*
X94027898Y-105897226D01*
X94216256Y-105819205D01*
X94385774Y-105705937D01*
X94529937Y-105561774D01*
X94643205Y-105392256D01*
X94721226Y-105203898D01*
X94761000Y-105003939D01*
X94761000Y-104800061D01*
X94721226Y-104600102D01*
X94643205Y-104411744D01*
X94529937Y-104242226D01*
X94385774Y-104098063D01*
X94216256Y-103984795D01*
X94027898Y-103906774D01*
X93827939Y-103867000D01*
X93624061Y-103867000D01*
X93424102Y-103906774D01*
X93235744Y-103984795D01*
X93066226Y-104098063D01*
X92922063Y-104242226D01*
X92808795Y-104411744D01*
X92730774Y-104600102D01*
X92691000Y-104800061D01*
X76327000Y-104800061D01*
X76327000Y-103594051D01*
X101436388Y-103594051D01*
X101436388Y-103797929D01*
X101476162Y-103997888D01*
X101554183Y-104186246D01*
X101667451Y-104355764D01*
X101811614Y-104499927D01*
X101981132Y-104613195D01*
X102169490Y-104691216D01*
X102369449Y-104730990D01*
X102573327Y-104730990D01*
X102773286Y-104691216D01*
X102961644Y-104613195D01*
X103131162Y-104499927D01*
X103275325Y-104355764D01*
X103388593Y-104186246D01*
X103466614Y-103997888D01*
X103506388Y-103797929D01*
X103506388Y-103594051D01*
X103466614Y-103394092D01*
X103388593Y-103205734D01*
X103275325Y-103036216D01*
X103131162Y-102892053D01*
X102961644Y-102778785D01*
X102773286Y-102700764D01*
X102573327Y-102660990D01*
X102369449Y-102660990D01*
X102169490Y-102700764D01*
X101981132Y-102778785D01*
X101811614Y-102892053D01*
X101667451Y-103036216D01*
X101554183Y-103205734D01*
X101476162Y-103394092D01*
X101436388Y-103594051D01*
X76327000Y-103594051D01*
X76327000Y-94640061D01*
X78721000Y-94640061D01*
X78721000Y-94843939D01*
X78760774Y-95043898D01*
X78838795Y-95232256D01*
X78952063Y-95401774D01*
X79096226Y-95545937D01*
X79265744Y-95659205D01*
X79454102Y-95737226D01*
X79654061Y-95777000D01*
X79857939Y-95777000D01*
X80057898Y-95737226D01*
X80246256Y-95659205D01*
X80415774Y-95545937D01*
X80559650Y-95402061D01*
X89643000Y-95402061D01*
X89643000Y-95605939D01*
X89682774Y-95805898D01*
X89760795Y-95994256D01*
X89874063Y-96163774D01*
X90018226Y-96307937D01*
X90187744Y-96421205D01*
X90376102Y-96499226D01*
X90576061Y-96539000D01*
X90779939Y-96539000D01*
X90979898Y-96499226D01*
X91168256Y-96421205D01*
X91337774Y-96307937D01*
X91481937Y-96163774D01*
X91595205Y-95994256D01*
X91673226Y-95805898D01*
X91700257Y-95670000D01*
X99603928Y-95670000D01*
X99603928Y-97370000D01*
X99616188Y-97494482D01*
X99652498Y-97614180D01*
X99711463Y-97724494D01*
X99790815Y-97821185D01*
X99887506Y-97900537D01*
X99997820Y-97959502D01*
X100070380Y-97981513D01*
X99938525Y-98113368D01*
X99776010Y-98356589D01*
X99664068Y-98626842D01*
X99607000Y-98913740D01*
X99607000Y-99206260D01*
X99664068Y-99493158D01*
X99776010Y-99763411D01*
X99938525Y-100006632D01*
X100145368Y-100213475D01*
X100388589Y-100375990D01*
X100658842Y-100487932D01*
X100945740Y-100545000D01*
X101238260Y-100545000D01*
X101525158Y-100487932D01*
X101795411Y-100375990D01*
X102038632Y-100213475D01*
X102245475Y-100006632D01*
X102407990Y-99763411D01*
X102519932Y-99493158D01*
X102577000Y-99206260D01*
X102577000Y-98913740D01*
X102519932Y-98626842D01*
X102407990Y-98356589D01*
X102245475Y-98113368D01*
X102113620Y-97981513D01*
X102186180Y-97959502D01*
X102296494Y-97900537D01*
X102393185Y-97821185D01*
X102472537Y-97724494D01*
X102531502Y-97614180D01*
X102567812Y-97494482D01*
X102580072Y-97370000D01*
X102580072Y-95670000D01*
X102567812Y-95545518D01*
X102531502Y-95425820D01*
X102472537Y-95315506D01*
X102393185Y-95218815D01*
X102296494Y-95139463D01*
X102186180Y-95080498D01*
X102066482Y-95044188D01*
X101942000Y-95031928D01*
X100242000Y-95031928D01*
X100117518Y-95044188D01*
X99997820Y-95080498D01*
X99887506Y-95139463D01*
X99790815Y-95218815D01*
X99711463Y-95315506D01*
X99652498Y-95425820D01*
X99616188Y-95545518D01*
X99603928Y-95670000D01*
X91700257Y-95670000D01*
X91713000Y-95605939D01*
X91713000Y-95402061D01*
X91673226Y-95202102D01*
X91595205Y-95013744D01*
X91481937Y-94844226D01*
X91337774Y-94700063D01*
X91168256Y-94586795D01*
X90979898Y-94508774D01*
X90779939Y-94469000D01*
X90576061Y-94469000D01*
X90376102Y-94508774D01*
X90187744Y-94586795D01*
X90018226Y-94700063D01*
X89874063Y-94844226D01*
X89760795Y-95013744D01*
X89682774Y-95202102D01*
X89643000Y-95402061D01*
X80559650Y-95402061D01*
X80559937Y-95401774D01*
X80673205Y-95232256D01*
X80751226Y-95043898D01*
X80791000Y-94843939D01*
X80791000Y-94640061D01*
X80751226Y-94440102D01*
X80673205Y-94251744D01*
X80559937Y-94082226D01*
X80415774Y-93938063D01*
X80246256Y-93824795D01*
X80057898Y-93746774D01*
X79857939Y-93707000D01*
X79654061Y-93707000D01*
X79454102Y-93746774D01*
X79265744Y-93824795D01*
X79096226Y-93938063D01*
X78952063Y-94082226D01*
X78838795Y-94251744D01*
X78760774Y-94440102D01*
X78721000Y-94640061D01*
X76327000Y-94640061D01*
X76327000Y-92837000D01*
X98747510Y-92837000D01*
X98650795Y-92981744D01*
%TD*%
M02*
