%TF.GenerationSoftware,KiCad,Pcbnew,(5.1.6)-1*%
%TF.CreationDate,2020-10-30T20:39:21-07:00*%
%TF.ProjectId,frontendfull,66726f6e-7465-46e6-9466-756c6c2e6b69,rev?*%
%TF.SameCoordinates,Original*%
%TF.FileFunction,Legend,Top*%
%TF.FilePolarity,Positive*%
%FSLAX46Y46*%
G04 Gerber Fmt 4.6, Leading zero omitted, Abs format (unit mm)*
G04 Created by KiCad (PCBNEW (5.1.6)-1) date 2020-10-30 20:39:21*
%MOMM*%
%LPD*%
G01*
G04 APERTURE LIST*
%ADD10C,0.150000*%
%ADD11C,0.120000*%
G04 APERTURE END LIST*
D10*
X104028952Y-93353380D02*
X103457523Y-93353380D01*
X103743238Y-93353380D02*
X103743238Y-92353380D01*
X103648000Y-92496238D01*
X103552761Y-92591476D01*
X103457523Y-92639095D01*
X104648000Y-92353380D02*
X104743238Y-92353380D01*
X104838476Y-92401000D01*
X104886095Y-92448619D01*
X104933714Y-92543857D01*
X104981333Y-92734333D01*
X104981333Y-92972428D01*
X104933714Y-93162904D01*
X104886095Y-93258142D01*
X104838476Y-93305761D01*
X104743238Y-93353380D01*
X104648000Y-93353380D01*
X104552761Y-93305761D01*
X104505142Y-93258142D01*
X104457523Y-93162904D01*
X104409904Y-92972428D01*
X104409904Y-92734333D01*
X104457523Y-92543857D01*
X104505142Y-92448619D01*
X104552761Y-92401000D01*
X104648000Y-92353380D01*
X105267047Y-92353380D02*
X105600380Y-93353380D01*
X105933714Y-92353380D01*
X103886095Y-94051000D02*
X103790857Y-94003380D01*
X103648000Y-94003380D01*
X103505142Y-94051000D01*
X103409904Y-94146238D01*
X103362285Y-94241476D01*
X103314666Y-94431952D01*
X103314666Y-94574809D01*
X103362285Y-94765285D01*
X103409904Y-94860523D01*
X103505142Y-94955761D01*
X103648000Y-95003380D01*
X103743238Y-95003380D01*
X103886095Y-94955761D01*
X103933714Y-94908142D01*
X103933714Y-94574809D01*
X103743238Y-94574809D01*
X104362285Y-95003380D02*
X104362285Y-94003380D01*
X104933714Y-95003380D01*
X104933714Y-94003380D01*
X105409904Y-95003380D02*
X105409904Y-94003380D01*
X105648000Y-94003380D01*
X105790857Y-94051000D01*
X105886095Y-94146238D01*
X105933714Y-94241476D01*
X105981333Y-94431952D01*
X105981333Y-94574809D01*
X105933714Y-94765285D01*
X105886095Y-94860523D01*
X105790857Y-94955761D01*
X105648000Y-95003380D01*
X105409904Y-95003380D01*
X77097380Y-100013785D02*
X76097380Y-100013785D01*
X76097380Y-99632833D01*
X76145000Y-99537595D01*
X76192619Y-99489976D01*
X76287857Y-99442357D01*
X76430714Y-99442357D01*
X76525952Y-99489976D01*
X76573571Y-99537595D01*
X76621190Y-99632833D01*
X76621190Y-100013785D01*
X77097380Y-98442357D02*
X76621190Y-98775690D01*
X77097380Y-99013785D02*
X76097380Y-99013785D01*
X76097380Y-98632833D01*
X76145000Y-98537595D01*
X76192619Y-98489976D01*
X76287857Y-98442357D01*
X76430714Y-98442357D01*
X76525952Y-98489976D01*
X76573571Y-98537595D01*
X76621190Y-98632833D01*
X76621190Y-99013785D01*
X76097380Y-97823309D02*
X76097380Y-97632833D01*
X76145000Y-97537595D01*
X76240238Y-97442357D01*
X76430714Y-97394738D01*
X76764047Y-97394738D01*
X76954523Y-97442357D01*
X77049761Y-97537595D01*
X77097380Y-97632833D01*
X77097380Y-97823309D01*
X77049761Y-97918547D01*
X76954523Y-98013785D01*
X76764047Y-98061404D01*
X76430714Y-98061404D01*
X76240238Y-98013785D01*
X76145000Y-97918547D01*
X76097380Y-97823309D01*
X76573571Y-96632833D02*
X76621190Y-96489976D01*
X76668809Y-96442357D01*
X76764047Y-96394738D01*
X76906904Y-96394738D01*
X77002142Y-96442357D01*
X77049761Y-96489976D01*
X77097380Y-96585214D01*
X77097380Y-96966166D01*
X76097380Y-96966166D01*
X76097380Y-96632833D01*
X76145000Y-96537595D01*
X76192619Y-96489976D01*
X76287857Y-96442357D01*
X76383095Y-96442357D01*
X76478333Y-96489976D01*
X76525952Y-96537595D01*
X76573571Y-96632833D01*
X76573571Y-96966166D01*
X76573571Y-95966166D02*
X76573571Y-95632833D01*
X77097380Y-95489976D02*
X77097380Y-95966166D01*
X76097380Y-95966166D01*
X76097380Y-95489976D01*
X76811666Y-95109023D02*
X76811666Y-94632833D01*
X77097380Y-95204261D02*
X76097380Y-94870928D01*
X77097380Y-94537595D01*
X77097380Y-94204261D02*
X76097380Y-94204261D01*
X76811666Y-93870928D01*
X76097380Y-93537595D01*
X77097380Y-93537595D01*
X77097380Y-93061404D02*
X76097380Y-93061404D01*
X76097380Y-92680452D01*
X76145000Y-92585214D01*
X76192619Y-92537595D01*
X76287857Y-92489976D01*
X76430714Y-92489976D01*
X76525952Y-92537595D01*
X76573571Y-92585214D01*
X76621190Y-92680452D01*
X76621190Y-93061404D01*
X77747380Y-95442357D02*
X78747380Y-95109023D01*
X77747380Y-94775690D01*
X77747380Y-94251880D02*
X77747380Y-94156642D01*
X77795000Y-94061404D01*
X77842619Y-94013785D01*
X77937857Y-93966166D01*
X78128333Y-93918547D01*
X78366428Y-93918547D01*
X78556904Y-93966166D01*
X78652142Y-94013785D01*
X78699761Y-94061404D01*
X78747380Y-94156642D01*
X78747380Y-94251880D01*
X78699761Y-94347119D01*
X78652142Y-94394738D01*
X78556904Y-94442357D01*
X78366428Y-94489976D01*
X78128333Y-94489976D01*
X77937857Y-94442357D01*
X77842619Y-94394738D01*
X77795000Y-94347119D01*
X77747380Y-94251880D01*
X78652142Y-93489976D02*
X78699761Y-93442357D01*
X78747380Y-93489976D01*
X78699761Y-93537595D01*
X78652142Y-93489976D01*
X78747380Y-93489976D01*
X78747380Y-92489976D02*
X78747380Y-93061404D01*
X78747380Y-92775690D02*
X77747380Y-92775690D01*
X77890238Y-92870928D01*
X77985476Y-92966166D01*
X78033095Y-93061404D01*
X108219904Y-107133000D02*
X108124666Y-107085380D01*
X107981809Y-107085380D01*
X107838952Y-107133000D01*
X107743714Y-107228238D01*
X107696095Y-107323476D01*
X107648476Y-107513952D01*
X107648476Y-107656809D01*
X107696095Y-107847285D01*
X107743714Y-107942523D01*
X107838952Y-108037761D01*
X107981809Y-108085380D01*
X108077047Y-108085380D01*
X108219904Y-108037761D01*
X108267523Y-107990142D01*
X108267523Y-107656809D01*
X108077047Y-107656809D01*
X108696095Y-108085380D02*
X108696095Y-107085380D01*
X108934190Y-107085380D01*
X109077047Y-107133000D01*
X109172285Y-107228238D01*
X109219904Y-107323476D01*
X109267523Y-107513952D01*
X109267523Y-107656809D01*
X109219904Y-107847285D01*
X109172285Y-107942523D01*
X109077047Y-108037761D01*
X108934190Y-108085380D01*
X108696095Y-108085380D01*
X107672285Y-109687761D02*
X107815142Y-109735380D01*
X108053238Y-109735380D01*
X108148476Y-109687761D01*
X108196095Y-109640142D01*
X108243714Y-109544904D01*
X108243714Y-109449666D01*
X108196095Y-109354428D01*
X108148476Y-109306809D01*
X108053238Y-109259190D01*
X107862761Y-109211571D01*
X107767523Y-109163952D01*
X107719904Y-109116333D01*
X107672285Y-109021095D01*
X107672285Y-108925857D01*
X107719904Y-108830619D01*
X107767523Y-108783000D01*
X107862761Y-108735380D01*
X108100857Y-108735380D01*
X108243714Y-108783000D01*
X109243714Y-109640142D02*
X109196095Y-109687761D01*
X109053238Y-109735380D01*
X108958000Y-109735380D01*
X108815142Y-109687761D01*
X108719904Y-109592523D01*
X108672285Y-109497285D01*
X108624666Y-109306809D01*
X108624666Y-109163952D01*
X108672285Y-108973476D01*
X108719904Y-108878238D01*
X108815142Y-108783000D01*
X108958000Y-108735380D01*
X109053238Y-108735380D01*
X109196095Y-108783000D01*
X109243714Y-108830619D01*
X106616666Y-92353380D02*
X106950000Y-93353380D01*
X107283333Y-92353380D01*
X108188095Y-93258142D02*
X108140476Y-93305761D01*
X107997619Y-93353380D01*
X107902380Y-93353380D01*
X107759523Y-93305761D01*
X107664285Y-93210523D01*
X107616666Y-93115285D01*
X107569047Y-92924809D01*
X107569047Y-92781952D01*
X107616666Y-92591476D01*
X107664285Y-92496238D01*
X107759523Y-92401000D01*
X107902380Y-92353380D01*
X107997619Y-92353380D01*
X108140476Y-92401000D01*
X108188095Y-92448619D01*
X109188095Y-93258142D02*
X109140476Y-93305761D01*
X108997619Y-93353380D01*
X108902380Y-93353380D01*
X108759523Y-93305761D01*
X108664285Y-93210523D01*
X108616666Y-93115285D01*
X108569047Y-92924809D01*
X108569047Y-92781952D01*
X108616666Y-92591476D01*
X108664285Y-92496238D01*
X108759523Y-92401000D01*
X108902380Y-92353380D01*
X108997619Y-92353380D01*
X109140476Y-92401000D01*
X109188095Y-92448619D01*
X106735714Y-94955761D02*
X106878571Y-95003380D01*
X107116666Y-95003380D01*
X107211904Y-94955761D01*
X107259523Y-94908142D01*
X107307142Y-94812904D01*
X107307142Y-94717666D01*
X107259523Y-94622428D01*
X107211904Y-94574809D01*
X107116666Y-94527190D01*
X106926190Y-94479571D01*
X106830952Y-94431952D01*
X106783333Y-94384333D01*
X106735714Y-94289095D01*
X106735714Y-94193857D01*
X106783333Y-94098619D01*
X106830952Y-94051000D01*
X106926190Y-94003380D01*
X107164285Y-94003380D01*
X107307142Y-94051000D01*
X107735714Y-95003380D02*
X107735714Y-94003380D01*
X107973809Y-94003380D01*
X108116666Y-94051000D01*
X108211904Y-94146238D01*
X108259523Y-94241476D01*
X108307142Y-94431952D01*
X108307142Y-94574809D01*
X108259523Y-94765285D01*
X108211904Y-94860523D01*
X108116666Y-94955761D01*
X107973809Y-95003380D01*
X107735714Y-95003380D01*
X108688095Y-94717666D02*
X109164285Y-94717666D01*
X108592857Y-95003380D02*
X108926190Y-94003380D01*
X109259523Y-95003380D01*
D11*
%TO.C,J5*%
X98316000Y-103822000D02*
X98316000Y-105422000D01*
X81516000Y-103822000D02*
X81516000Y-105422000D01*
X98316000Y-97822000D02*
X98316000Y-99422000D01*
X81516000Y-97822000D02*
X81516000Y-99422000D01*
X92116000Y-110022000D02*
X93716000Y-110022000D01*
X92116000Y-93222000D02*
X93716000Y-93222000D01*
X86116000Y-110022000D02*
X87716000Y-110022000D01*
X86116000Y-93222000D02*
X87716000Y-93222000D01*
%TO.C,U3*%
X92340000Y-105512000D02*
X89890000Y-105512000D01*
X90540000Y-108732000D02*
X92340000Y-108732000D01*
%TO.C,RV2*%
X90086000Y-100246000D02*
X94826000Y-100246000D01*
X90086000Y-104986000D02*
X94826000Y-104986000D01*
X94826000Y-101376000D02*
X94826000Y-100246000D01*
X94826000Y-104986000D02*
X94826000Y-103856000D01*
X90086000Y-102875000D02*
X90086000Y-102356000D01*
X90086000Y-104986000D02*
X90086000Y-104655000D01*
X90086000Y-100576000D02*
X90086000Y-100246000D01*
%TO.C,R3*%
X101353252Y-106986000D02*
X100830748Y-106986000D01*
X101353252Y-108406000D02*
X100830748Y-108406000D01*
%TO.C,R2*%
X105417252Y-106986000D02*
X104894748Y-106986000D01*
X105417252Y-108406000D02*
X104894748Y-108406000D01*
%TO.C,U4*%
X102489000Y-102911000D02*
X99564000Y-102911000D01*
X102489000Y-102911000D02*
X103989000Y-102911000D01*
X102489000Y-106131000D02*
X100989000Y-106131000D01*
X102489000Y-106131000D02*
X103989000Y-106131000D01*
%TO.C,U2*%
X93262000Y-95176000D02*
X93262000Y-95406000D01*
X93262000Y-99896000D02*
X93262000Y-99666000D01*
X93262000Y-99896000D02*
X90542000Y-99896000D01*
X90542000Y-99896000D02*
X90542000Y-98586000D01*
X94402000Y-99666000D02*
X93262000Y-99666000D01*
X90542000Y-95176000D02*
X93262000Y-95176000D01*
X90542000Y-96486000D02*
X90542000Y-95176000D01*
%TO.C,U1*%
X88430000Y-109075000D02*
X83820000Y-109075000D01*
X88430000Y-100475000D02*
X88430000Y-109075000D01*
X83020000Y-100475000D02*
X88430000Y-100475000D01*
X83020000Y-108275000D02*
X83020000Y-100475000D01*
X83820000Y-109075000D02*
X83020000Y-108275000D01*
%TO.C,RV1*%
X88222000Y-99906000D02*
X83482000Y-99906000D01*
X88222000Y-95166000D02*
X83482000Y-95166000D01*
X83482000Y-98776000D02*
X83482000Y-99906000D01*
X83482000Y-95166000D02*
X83482000Y-96296000D01*
X88222000Y-97277000D02*
X88222000Y-97796000D01*
X88222000Y-95166000D02*
X88222000Y-95497000D01*
X88222000Y-99576000D02*
X88222000Y-99906000D01*
%TO.C,R1*%
X94540000Y-106926748D02*
X94540000Y-107449252D01*
X95960000Y-106926748D02*
X95960000Y-107449252D01*
%TO.C,J4*%
X109280000Y-106105000D02*
X107950000Y-106105000D01*
X109280000Y-104775000D02*
X109280000Y-106105000D01*
X109280000Y-103505000D02*
X106620000Y-103505000D01*
X106620000Y-103505000D02*
X106620000Y-95825000D01*
X109280000Y-103505000D02*
X109280000Y-95825000D01*
X109280000Y-95825000D02*
X106620000Y-95825000D01*
%TO.C,J3*%
X77634000Y-101470000D02*
X77634000Y-102110000D01*
X77634000Y-104270000D02*
X77634000Y-103630000D01*
X77634000Y-102110000D02*
X77004000Y-102110000D01*
X80354000Y-101520000D02*
X80354000Y-104220000D01*
%TO.C,J2*%
X78994000Y-105985000D02*
X80324000Y-105985000D01*
X80324000Y-105985000D02*
X80324000Y-107315000D01*
X80324000Y-108525000D02*
X80324000Y-108645000D01*
X77664000Y-108525000D02*
X77664000Y-108645000D01*
X77664000Y-108645000D02*
X80324000Y-108645000D01*
%TO.C,J1*%
X101092000Y-95190000D02*
X102422000Y-95190000D01*
X102422000Y-95190000D02*
X102422000Y-96520000D01*
X102422000Y-97790000D02*
X102422000Y-100390000D01*
X99762000Y-100390000D02*
X102422000Y-100390000D01*
X99762000Y-97790000D02*
X99762000Y-100390000D01*
X99762000Y-97790000D02*
X102422000Y-97790000D01*
%TO.C,C2*%
X105104000Y-99067252D02*
X105104000Y-98544748D01*
X103684000Y-99067252D02*
X103684000Y-98544748D01*
%TO.C,C1*%
X95302000Y-97918748D02*
X95302000Y-98441252D01*
X96722000Y-97918748D02*
X96722000Y-98441252D01*
%TO.C,J5*%
D10*
X79422666Y-99020380D02*
X79422666Y-99734666D01*
X79375047Y-99877523D01*
X79279809Y-99972761D01*
X79136952Y-100020380D01*
X79041714Y-100020380D01*
X80375047Y-99020380D02*
X79898857Y-99020380D01*
X79851238Y-99496571D01*
X79898857Y-99448952D01*
X79994095Y-99401333D01*
X80232190Y-99401333D01*
X80327428Y-99448952D01*
X80375047Y-99496571D01*
X80422666Y-99591809D01*
X80422666Y-99829904D01*
X80375047Y-99925142D01*
X80327428Y-99972761D01*
X80232190Y-100020380D01*
X79994095Y-100020380D01*
X79898857Y-99972761D01*
X79851238Y-99925142D01*
%TO.C,U3*%
X96226380Y-108711904D02*
X97035904Y-108711904D01*
X97131142Y-108664285D01*
X97178761Y-108616666D01*
X97226380Y-108521428D01*
X97226380Y-108330952D01*
X97178761Y-108235714D01*
X97131142Y-108188095D01*
X97035904Y-108140476D01*
X96226380Y-108140476D01*
X96226380Y-107759523D02*
X96226380Y-107140476D01*
X96607333Y-107473809D01*
X96607333Y-107330952D01*
X96654952Y-107235714D01*
X96702571Y-107188095D01*
X96797809Y-107140476D01*
X97035904Y-107140476D01*
X97131142Y-107188095D01*
X97178761Y-107235714D01*
X97226380Y-107330952D01*
X97226380Y-107616666D01*
X97178761Y-107711904D01*
X97131142Y-107759523D01*
%TO.C,RV2*%
X96972380Y-103211238D02*
X96496190Y-103544571D01*
X96972380Y-103782666D02*
X95972380Y-103782666D01*
X95972380Y-103401714D01*
X96020000Y-103306476D01*
X96067619Y-103258857D01*
X96162857Y-103211238D01*
X96305714Y-103211238D01*
X96400952Y-103258857D01*
X96448571Y-103306476D01*
X96496190Y-103401714D01*
X96496190Y-103782666D01*
X95972380Y-102925523D02*
X96972380Y-102592190D01*
X95972380Y-102258857D01*
X96067619Y-101973142D02*
X96020000Y-101925523D01*
X95972380Y-101830285D01*
X95972380Y-101592190D01*
X96020000Y-101496952D01*
X96067619Y-101449333D01*
X96162857Y-101401714D01*
X96258095Y-101401714D01*
X96400952Y-101449333D01*
X96972380Y-102020761D01*
X96972380Y-101401714D01*
%TO.C,R3*%
X100925333Y-109926380D02*
X100592000Y-109450190D01*
X100353904Y-109926380D02*
X100353904Y-108926380D01*
X100734857Y-108926380D01*
X100830095Y-108974000D01*
X100877714Y-109021619D01*
X100925333Y-109116857D01*
X100925333Y-109259714D01*
X100877714Y-109354952D01*
X100830095Y-109402571D01*
X100734857Y-109450190D01*
X100353904Y-109450190D01*
X101258666Y-108926380D02*
X101877714Y-108926380D01*
X101544380Y-109307333D01*
X101687238Y-109307333D01*
X101782476Y-109354952D01*
X101830095Y-109402571D01*
X101877714Y-109497809D01*
X101877714Y-109735904D01*
X101830095Y-109831142D01*
X101782476Y-109878761D01*
X101687238Y-109926380D01*
X101401523Y-109926380D01*
X101306285Y-109878761D01*
X101258666Y-109831142D01*
%TO.C,R2*%
X104989333Y-109926380D02*
X104656000Y-109450190D01*
X104417904Y-109926380D02*
X104417904Y-108926380D01*
X104798857Y-108926380D01*
X104894095Y-108974000D01*
X104941714Y-109021619D01*
X104989333Y-109116857D01*
X104989333Y-109259714D01*
X104941714Y-109354952D01*
X104894095Y-109402571D01*
X104798857Y-109450190D01*
X104417904Y-109450190D01*
X105370285Y-109021619D02*
X105417904Y-108974000D01*
X105513142Y-108926380D01*
X105751238Y-108926380D01*
X105846476Y-108974000D01*
X105894095Y-109021619D01*
X105941714Y-109116857D01*
X105941714Y-109212095D01*
X105894095Y-109354952D01*
X105322666Y-109926380D01*
X105941714Y-109926380D01*
%TO.C,U4*%
X99568095Y-101433380D02*
X99568095Y-102242904D01*
X99615714Y-102338142D01*
X99663333Y-102385761D01*
X99758571Y-102433380D01*
X99949047Y-102433380D01*
X100044285Y-102385761D01*
X100091904Y-102338142D01*
X100139523Y-102242904D01*
X100139523Y-101433380D01*
X101044285Y-101766714D02*
X101044285Y-102433380D01*
X100806190Y-101385761D02*
X100568095Y-102100047D01*
X101187142Y-102100047D01*
%TO.C,U2*%
X90932095Y-98766380D02*
X90932095Y-99575904D01*
X90979714Y-99671142D01*
X91027333Y-99718761D01*
X91122571Y-99766380D01*
X91313047Y-99766380D01*
X91408285Y-99718761D01*
X91455904Y-99671142D01*
X91503523Y-99575904D01*
X91503523Y-98766380D01*
X91932095Y-98861619D02*
X91979714Y-98814000D01*
X92074952Y-98766380D01*
X92313047Y-98766380D01*
X92408285Y-98814000D01*
X92455904Y-98861619D01*
X92503523Y-98956857D01*
X92503523Y-99052095D01*
X92455904Y-99194952D01*
X91884476Y-99766380D01*
X92503523Y-99766380D01*
%TO.C,U1*%
X84963095Y-104227380D02*
X84963095Y-105036904D01*
X85010714Y-105132142D01*
X85058333Y-105179761D01*
X85153571Y-105227380D01*
X85344047Y-105227380D01*
X85439285Y-105179761D01*
X85486904Y-105132142D01*
X85534523Y-105036904D01*
X85534523Y-104227380D01*
X86534523Y-105227380D02*
X85963095Y-105227380D01*
X86248809Y-105227380D02*
X86248809Y-104227380D01*
X86153571Y-104370238D01*
X86058333Y-104465476D01*
X85963095Y-104513095D01*
%TO.C,RV1*%
X86304380Y-98131238D02*
X85828190Y-98464571D01*
X86304380Y-98702666D02*
X85304380Y-98702666D01*
X85304380Y-98321714D01*
X85352000Y-98226476D01*
X85399619Y-98178857D01*
X85494857Y-98131238D01*
X85637714Y-98131238D01*
X85732952Y-98178857D01*
X85780571Y-98226476D01*
X85828190Y-98321714D01*
X85828190Y-98702666D01*
X85304380Y-97845523D02*
X86304380Y-97512190D01*
X85304380Y-97178857D01*
X86304380Y-96321714D02*
X86304380Y-96893142D01*
X86304380Y-96607428D02*
X85304380Y-96607428D01*
X85447238Y-96702666D01*
X85542476Y-96797904D01*
X85590095Y-96893142D01*
%TO.C,R1*%
X97226380Y-105830666D02*
X96750190Y-106164000D01*
X97226380Y-106402095D02*
X96226380Y-106402095D01*
X96226380Y-106021142D01*
X96274000Y-105925904D01*
X96321619Y-105878285D01*
X96416857Y-105830666D01*
X96559714Y-105830666D01*
X96654952Y-105878285D01*
X96702571Y-105925904D01*
X96750190Y-106021142D01*
X96750190Y-106402095D01*
X97226380Y-104878285D02*
X97226380Y-105449714D01*
X97226380Y-105164000D02*
X96226380Y-105164000D01*
X96369238Y-105259238D01*
X96464476Y-105354476D01*
X96512095Y-105449714D01*
%TO.C,J4*%
X104822666Y-101052380D02*
X104822666Y-101766666D01*
X104775047Y-101909523D01*
X104679809Y-102004761D01*
X104536952Y-102052380D01*
X104441714Y-102052380D01*
X105727428Y-101385714D02*
X105727428Y-102052380D01*
X105489333Y-101004761D02*
X105251238Y-101719047D01*
X105870285Y-101719047D01*
%TO.C,J3*%
X79422666Y-97496380D02*
X79422666Y-98210666D01*
X79375047Y-98353523D01*
X79279809Y-98448761D01*
X79136952Y-98496380D01*
X79041714Y-98496380D01*
X79803619Y-97496380D02*
X80422666Y-97496380D01*
X80089333Y-97877333D01*
X80232190Y-97877333D01*
X80327428Y-97924952D01*
X80375047Y-97972571D01*
X80422666Y-98067809D01*
X80422666Y-98305904D01*
X80375047Y-98401142D01*
X80327428Y-98448761D01*
X80232190Y-98496380D01*
X79946476Y-98496380D01*
X79851238Y-98448761D01*
X79803619Y-98401142D01*
%TO.C,J2*%
X77898666Y-109434380D02*
X77898666Y-110148666D01*
X77851047Y-110291523D01*
X77755809Y-110386761D01*
X77612952Y-110434380D01*
X77517714Y-110434380D01*
X78327238Y-109529619D02*
X78374857Y-109482000D01*
X78470095Y-109434380D01*
X78708190Y-109434380D01*
X78803428Y-109482000D01*
X78851047Y-109529619D01*
X78898666Y-109624857D01*
X78898666Y-109720095D01*
X78851047Y-109862952D01*
X78279619Y-110434380D01*
X78898666Y-110434380D01*
%TO.C,J1*%
X100758666Y-93432380D02*
X100758666Y-94146666D01*
X100711047Y-94289523D01*
X100615809Y-94384761D01*
X100472952Y-94432380D01*
X100377714Y-94432380D01*
X101758666Y-94432380D02*
X101187238Y-94432380D01*
X101472952Y-94432380D02*
X101472952Y-93432380D01*
X101377714Y-93575238D01*
X101282476Y-93670476D01*
X101187238Y-93718095D01*
%TO.C,C2*%
X104227333Y-96623142D02*
X104179714Y-96670761D01*
X104036857Y-96718380D01*
X103941619Y-96718380D01*
X103798761Y-96670761D01*
X103703523Y-96575523D01*
X103655904Y-96480285D01*
X103608285Y-96289809D01*
X103608285Y-96146952D01*
X103655904Y-95956476D01*
X103703523Y-95861238D01*
X103798761Y-95766000D01*
X103941619Y-95718380D01*
X104036857Y-95718380D01*
X104179714Y-95766000D01*
X104227333Y-95813619D01*
X104608285Y-95813619D02*
X104655904Y-95766000D01*
X104751142Y-95718380D01*
X104989238Y-95718380D01*
X105084476Y-95766000D01*
X105132095Y-95813619D01*
X105179714Y-95908857D01*
X105179714Y-96004095D01*
X105132095Y-96146952D01*
X104560666Y-96718380D01*
X105179714Y-96718380D01*
%TO.C,C1*%
X95845333Y-95607142D02*
X95797714Y-95654761D01*
X95654857Y-95702380D01*
X95559619Y-95702380D01*
X95416761Y-95654761D01*
X95321523Y-95559523D01*
X95273904Y-95464285D01*
X95226285Y-95273809D01*
X95226285Y-95130952D01*
X95273904Y-94940476D01*
X95321523Y-94845238D01*
X95416761Y-94750000D01*
X95559619Y-94702380D01*
X95654857Y-94702380D01*
X95797714Y-94750000D01*
X95845333Y-94797619D01*
X96797714Y-95702380D02*
X96226285Y-95702380D01*
X96512000Y-95702380D02*
X96512000Y-94702380D01*
X96416761Y-94845238D01*
X96321523Y-94940476D01*
X96226285Y-94988095D01*
%TD*%
M02*
