%TF.GenerationSoftware,KiCad,Pcbnew,(5.1.6)-1*%
%TF.CreationDate,2020-10-30T20:39:21-07:00*%
%TF.ProjectId,frontendfull,66726f6e-7465-46e6-9466-756c6c2e6b69,rev?*%
%TF.SameCoordinates,Original*%
%TF.FileFunction,Copper,L4,Bot*%
%TF.FilePolarity,Positive*%
%FSLAX46Y46*%
G04 Gerber Fmt 4.6, Leading zero omitted, Abs format (unit mm)*
G04 Created by KiCad (PCBNEW (5.1.6)-1) date 2020-10-30 20:39:21*
%MOMM*%
%LPD*%
G01*
G04 APERTURE LIST*
%TA.AperFunction,ComponentPad*%
%ADD10O,1.700000X1.700000*%
%TD*%
%TA.AperFunction,ComponentPad*%
%ADD11R,1.700000X1.700000*%
%TD*%
%TA.AperFunction,ViaPad*%
%ADD12C,0.800000*%
%TD*%
%TA.AperFunction,Conductor*%
%ADD13C,0.500000*%
%TD*%
%TA.AperFunction,Conductor*%
%ADD14C,0.254000*%
%TD*%
G04 APERTURE END LIST*
D10*
%TO.P,J4,4*%
%TO.N,VCC*%
X107950000Y-97155000D03*
%TO.P,J4,3*%
%TO.N,Net-(J4-Pad3)*%
X107950000Y-99695000D03*
%TO.P,J4,2*%
%TO.N,GND*%
X107950000Y-102235000D03*
D11*
%TO.P,J4,1*%
%TO.N,Net-(J4-Pad1)*%
X107950000Y-104775000D03*
%TD*%
%TO.P,J2,1*%
%TO.N,GND*%
X78994000Y-107315000D03*
%TD*%
D10*
%TO.P,J1,2*%
%TO.N,GND*%
X101092000Y-99060000D03*
D11*
%TO.P,J1,1*%
%TO.N,Net-(C1-Pad1)*%
X101092000Y-96520000D03*
%TD*%
D12*
%TO.N,GND*%
X106172000Y-104902000D03*
X90678000Y-95504000D03*
X80010000Y-109982000D03*
X92710000Y-109728000D03*
X99568000Y-93472000D03*
X79756000Y-94742000D03*
X93726000Y-104902000D03*
%TO.N,+5V*%
X86614000Y-104140000D03*
X92202000Y-99568000D03*
X102870000Y-101346000D03*
X91440000Y-107188000D03*
%TO.N,Net-(J4-Pad3)*%
X102471388Y-103695990D03*
%TD*%
D13*
%TO.N,Net-(J4-Pad3)*%
X106472378Y-99695000D02*
X107950000Y-99695000D01*
X102471388Y-103695990D02*
X106472378Y-99695000D01*
%TD*%
D14*
%TO.N,GND*%
G36*
X81153000Y-110363000D02*
G01*
X76327000Y-110363000D01*
X76327000Y-108165000D01*
X77505928Y-108165000D01*
X77518188Y-108289482D01*
X77554498Y-108409180D01*
X77613463Y-108519494D01*
X77692815Y-108616185D01*
X77789506Y-108695537D01*
X77899820Y-108754502D01*
X78019518Y-108790812D01*
X78144000Y-108803072D01*
X78708250Y-108800000D01*
X78867000Y-108641250D01*
X78867000Y-107442000D01*
X79121000Y-107442000D01*
X79121000Y-108641250D01*
X79279750Y-108800000D01*
X79844000Y-108803072D01*
X79968482Y-108790812D01*
X80088180Y-108754502D01*
X80198494Y-108695537D01*
X80295185Y-108616185D01*
X80374537Y-108519494D01*
X80433502Y-108409180D01*
X80469812Y-108289482D01*
X80482072Y-108165000D01*
X80479000Y-107600750D01*
X80320250Y-107442000D01*
X79121000Y-107442000D01*
X78867000Y-107442000D01*
X77667750Y-107442000D01*
X77509000Y-107600750D01*
X77505928Y-108165000D01*
X76327000Y-108165000D01*
X76327000Y-106465000D01*
X77505928Y-106465000D01*
X77509000Y-107029250D01*
X77667750Y-107188000D01*
X78867000Y-107188000D01*
X78867000Y-105988750D01*
X79121000Y-105988750D01*
X79121000Y-107188000D01*
X80320250Y-107188000D01*
X80479000Y-107029250D01*
X80482072Y-106465000D01*
X80469812Y-106340518D01*
X80433502Y-106220820D01*
X80374537Y-106110506D01*
X80295185Y-106013815D01*
X80198494Y-105934463D01*
X80088180Y-105875498D01*
X79968482Y-105839188D01*
X79844000Y-105826928D01*
X79279750Y-105830000D01*
X79121000Y-105988750D01*
X78867000Y-105988750D01*
X78708250Y-105830000D01*
X78144000Y-105826928D01*
X78019518Y-105839188D01*
X77899820Y-105875498D01*
X77789506Y-105934463D01*
X77692815Y-106013815D01*
X77613463Y-106110506D01*
X77554498Y-106220820D01*
X77518188Y-106340518D01*
X77505928Y-106465000D01*
X76327000Y-106465000D01*
X76327000Y-92837000D01*
X81153000Y-92837000D01*
X81153000Y-110363000D01*
G37*
X81153000Y-110363000D02*
X76327000Y-110363000D01*
X76327000Y-108165000D01*
X77505928Y-108165000D01*
X77518188Y-108289482D01*
X77554498Y-108409180D01*
X77613463Y-108519494D01*
X77692815Y-108616185D01*
X77789506Y-108695537D01*
X77899820Y-108754502D01*
X78019518Y-108790812D01*
X78144000Y-108803072D01*
X78708250Y-108800000D01*
X78867000Y-108641250D01*
X78867000Y-107442000D01*
X79121000Y-107442000D01*
X79121000Y-108641250D01*
X79279750Y-108800000D01*
X79844000Y-108803072D01*
X79968482Y-108790812D01*
X80088180Y-108754502D01*
X80198494Y-108695537D01*
X80295185Y-108616185D01*
X80374537Y-108519494D01*
X80433502Y-108409180D01*
X80469812Y-108289482D01*
X80482072Y-108165000D01*
X80479000Y-107600750D01*
X80320250Y-107442000D01*
X79121000Y-107442000D01*
X78867000Y-107442000D01*
X77667750Y-107442000D01*
X77509000Y-107600750D01*
X77505928Y-108165000D01*
X76327000Y-108165000D01*
X76327000Y-106465000D01*
X77505928Y-106465000D01*
X77509000Y-107029250D01*
X77667750Y-107188000D01*
X78867000Y-107188000D01*
X78867000Y-105988750D01*
X79121000Y-105988750D01*
X79121000Y-107188000D01*
X80320250Y-107188000D01*
X80479000Y-107029250D01*
X80482072Y-106465000D01*
X80469812Y-106340518D01*
X80433502Y-106220820D01*
X80374537Y-106110506D01*
X80295185Y-106013815D01*
X80198494Y-105934463D01*
X80088180Y-105875498D01*
X79968482Y-105839188D01*
X79844000Y-105826928D01*
X79279750Y-105830000D01*
X79121000Y-105988750D01*
X78867000Y-105988750D01*
X78708250Y-105830000D01*
X78144000Y-105826928D01*
X78019518Y-105839188D01*
X77899820Y-105875498D01*
X77789506Y-105934463D01*
X77692815Y-106013815D01*
X77613463Y-106110506D01*
X77554498Y-106220820D01*
X77518188Y-106340518D01*
X77505928Y-106465000D01*
X76327000Y-106465000D01*
X76327000Y-92837000D01*
X81153000Y-92837000D01*
X81153000Y-110363000D01*
%TD*%
M02*
