%TF.GenerationSoftware,KiCad,Pcbnew,(5.1.6)-1*%
%TF.CreationDate,2020-10-08T10:17:58-07:00*%
%TF.ProjectId,piezobreakout,7069657a-6f62-4726-9561-6b6f75742e6b,rev?*%
%TF.SameCoordinates,Original*%
%TF.FileFunction,Copper,L1,Top*%
%TF.FilePolarity,Positive*%
%FSLAX46Y46*%
G04 Gerber Fmt 4.6, Leading zero omitted, Abs format (unit mm)*
G04 Created by KiCad (PCBNEW (5.1.6)-1) date 2020-10-08 10:17:58*
%MOMM*%
%LPD*%
G01*
G04 APERTURE LIST*
%TA.AperFunction,ComponentPad*%
%ADD10R,1.700000X1.700000*%
%TD*%
%TA.AperFunction,SMDPad,CuDef*%
%ADD11R,2.800000X2.800000*%
%TD*%
%TA.AperFunction,SMDPad,CuDef*%
%ADD12R,2.800000X2.200000*%
%TD*%
%TA.AperFunction,ViaPad*%
%ADD13C,0.800000*%
%TD*%
%TA.AperFunction,Conductor*%
%ADD14C,1.000000*%
%TD*%
G04 APERTURE END LIST*
D10*
%TO.P,J9,1*%
%TO.N,Net-(J4-PadT)*%
X133350000Y-113030000D03*
%TD*%
%TO.P,J8,1*%
%TO.N,Net-(J3-PadT)*%
X123190000Y-113030000D03*
%TD*%
%TO.P,J7,1*%
%TO.N,Net-(J2-PadT)*%
X133350000Y-102870000D03*
%TD*%
%TO.P,J6,1*%
%TO.N,Net-(J1-PadT)*%
X123190000Y-102870000D03*
%TD*%
%TO.P,J5,1*%
%TO.N,Net-(J1-PadS)*%
X142240000Y-107950000D03*
%TD*%
D11*
%TO.P,J4,T*%
%TO.N,Net-(J4-PadT)*%
X143620000Y-89366000D03*
D12*
%TO.P,J4,S*%
%TO.N,Net-(J1-PadS)*%
X143620000Y-79966000D03*
%TO.P,J4,R*%
%TO.N,N/C*%
X151020000Y-81966000D03*
%TD*%
D11*
%TO.P,J3,T*%
%TO.N,Net-(J3-PadT)*%
X131030000Y-89366000D03*
D12*
%TO.P,J3,S*%
%TO.N,Net-(J1-PadS)*%
X131030000Y-79966000D03*
%TO.P,J3,R*%
%TO.N,N/C*%
X138430000Y-81966000D03*
%TD*%
D11*
%TO.P,J2,T*%
%TO.N,Net-(J2-PadT)*%
X118220000Y-89366000D03*
D12*
%TO.P,J2,S*%
%TO.N,Net-(J1-PadS)*%
X118220000Y-79966000D03*
%TO.P,J2,R*%
%TO.N,N/C*%
X125620000Y-81966000D03*
%TD*%
D11*
%TO.P,J1,T*%
%TO.N,Net-(J1-PadT)*%
X105774000Y-89366000D03*
D12*
%TO.P,J1,S*%
%TO.N,Net-(J1-PadS)*%
X105774000Y-79966000D03*
%TO.P,J1,R*%
%TO.N,N/C*%
X113174000Y-81966000D03*
%TD*%
D13*
%TO.N,Net-(J1-PadS)*%
X105410000Y-77470000D03*
X118110000Y-77470000D03*
X130810000Y-77470000D03*
X143510000Y-77470000D03*
%TD*%
D14*
%TO.N,Net-(J1-PadT)*%
X119278000Y-102870000D02*
X123190000Y-102870000D01*
X105774000Y-89366000D02*
X119278000Y-102870000D01*
%TO.N,Net-(J1-PadS)*%
X105774000Y-79966000D02*
X105774000Y-77834000D01*
X105774000Y-77834000D02*
X105410000Y-77470000D01*
X118220000Y-79966000D02*
X118220000Y-77580000D01*
X118220000Y-77580000D02*
X118110000Y-77470000D01*
X131030000Y-79966000D02*
X131030000Y-77690000D01*
X131030000Y-77690000D02*
X130810000Y-77470000D01*
X143620000Y-79966000D02*
X143620000Y-77580000D01*
X143620000Y-77580000D02*
X143510000Y-77470000D01*
%TO.N,Net-(J2-PadT)*%
X119846000Y-89366000D02*
X133350000Y-102870000D01*
X118220000Y-89366000D02*
X119846000Y-89366000D01*
%TO.N,Net-(J3-PadT)*%
X126150002Y-113030000D02*
X123190000Y-113030000D01*
X134900001Y-104280001D02*
X126150002Y-113030000D01*
X134900001Y-93236001D02*
X134900001Y-104280001D01*
X131030000Y-89366000D02*
X134900001Y-93236001D01*
%TO.N,Net-(J4-PadT)*%
X140689999Y-105690001D02*
X133350000Y-113030000D01*
X140689999Y-92296001D02*
X140689999Y-105690001D01*
X143620000Y-89366000D02*
X140689999Y-92296001D01*
%TD*%
M02*
