%TF.GenerationSoftware,KiCad,Pcbnew,(5.1.6)-1*%
%TF.CreationDate,2020-09-27T21:03:48-07:00*%
%TF.ProjectId,piezodriver,7069657a-6f64-4726-9976-65722e6b6963,rev?*%
%TF.SameCoordinates,Original*%
%TF.FileFunction,Copper,L3,Inr*%
%TF.FilePolarity,Positive*%
%FSLAX46Y46*%
G04 Gerber Fmt 4.6, Leading zero omitted, Abs format (unit mm)*
G04 Created by KiCad (PCBNEW (5.1.6)-1) date 2020-09-27 21:03:48*
%MOMM*%
%LPD*%
G01*
G04 APERTURE LIST*
%TA.AperFunction,ViaPad*%
%ADD10O,1.700000X1.700000*%
%TD*%
%TA.AperFunction,ViaPad*%
%ADD11R,1.700000X1.700000*%
%TD*%
%TA.AperFunction,ViaPad*%
%ADD12C,0.300000*%
%TD*%
%TA.AperFunction,ViaPad*%
%ADD13C,0.800000*%
%TD*%
%TA.AperFunction,Conductor*%
%ADD14C,0.254000*%
%TD*%
G04 APERTURE END LIST*
D10*
%TO.N,VCC*%
%TO.C,J2*%
X173990000Y-81280000D03*
%TO.N,GND*%
X173990000Y-78740000D03*
%TO.N,Net-(J2-Pad4)*%
X173990000Y-76200000D03*
%TO.N,Net-(J2-Pad3)*%
X173990000Y-73660000D03*
%TO.N,Net-(J2-Pad2)*%
X173990000Y-71120000D03*
D11*
%TO.N,Net-(J2-Pad1)*%
X173990000Y-68580000D03*
%TD*%
D12*
%TO.N,N/C*%
%TO.C,U6*%
X247695000Y-79360000D03*
X247695000Y-80660000D03*
X246395000Y-79360000D03*
X246395000Y-80660000D03*
X245095000Y-79360000D03*
X245095000Y-80660000D03*
X243795000Y-79360000D03*
X243795000Y-80660000D03*
%TD*%
%TO.N,N/C*%
%TO.C,U5*%
X236265000Y-78725000D03*
X236265000Y-80025000D03*
X234965000Y-78725000D03*
X234965000Y-80025000D03*
X233665000Y-78725000D03*
X233665000Y-80025000D03*
X232365000Y-78725000D03*
X232365000Y-80025000D03*
%TD*%
%TO.N,N/C*%
%TO.C,U4*%
X224835000Y-79360000D03*
X224835000Y-80660000D03*
X223535000Y-79360000D03*
X223535000Y-80660000D03*
X222235000Y-79360000D03*
X222235000Y-80660000D03*
X220935000Y-79360000D03*
X220935000Y-80660000D03*
%TD*%
%TO.N,N/C*%
%TO.C,U3*%
X213405000Y-79360000D03*
X213405000Y-80660000D03*
X212105000Y-79360000D03*
X212105000Y-80660000D03*
X210805000Y-79360000D03*
X210805000Y-80660000D03*
X209505000Y-79360000D03*
X209505000Y-80660000D03*
%TD*%
D10*
%TO.N,/CH8*%
%TO.C,J4*%
X201295000Y-54610000D03*
%TO.N,/CH7*%
X198755000Y-54610000D03*
%TO.N,/CH6*%
X196215000Y-54610000D03*
%TO.N,/CH5*%
X193675000Y-54610000D03*
%TO.N,-VDC*%
X191135000Y-54610000D03*
%TO.N,+VDC*%
X188595000Y-54610000D03*
%TO.N,/opampdriver/BIAS*%
X186055000Y-54610000D03*
D11*
%TO.N,GND*%
X183515000Y-54610000D03*
%TD*%
D10*
%TO.N,-VDC*%
%TO.C,J3*%
X201617580Y-86847680D03*
%TO.N,GND*%
X199077580Y-86847680D03*
D11*
%TO.N,+VDC*%
X196537580Y-86847680D03*
%TD*%
D10*
%TO.N,-VDC*%
%TO.C,J1*%
X201617580Y-62717680D03*
%TO.N,GND*%
X199077580Y-62717680D03*
D11*
%TO.N,+VDC*%
X196537580Y-62717680D03*
%TD*%
D13*
%TO.N,VCC*%
X181610000Y-64947800D03*
X181406800Y-71043800D03*
%TO.N,Net-(C4-Pad2)*%
X207010000Y-85598000D03*
X208026000Y-75946000D03*
%TO.N,Net-(C5-Pad2)*%
X219202000Y-75184000D03*
X219075000Y-83185000D03*
%TO.N,Net-(C6-Pad2)*%
X229870000Y-85598000D03*
X230632000Y-75438000D03*
%TO.N,Net-(C7-Pad2)*%
X241554000Y-85598000D03*
X242316000Y-75184000D03*
%TO.N,-VDC*%
X201599800Y-66624200D03*
%TO.N,GND*%
X204724000Y-55372000D03*
X216408000Y-55626000D03*
X227076000Y-55372000D03*
X239014000Y-55372000D03*
X199085200Y-88696800D03*
X198794797Y-60920203D03*
X179070000Y-81280000D03*
X189230000Y-86360000D03*
X187325000Y-65405000D03*
X186695125Y-71314306D03*
X177800000Y-70612000D03*
%TO.N,+VDC*%
X203708000Y-79248000D03*
X215646000Y-79502000D03*
X211074000Y-75438000D03*
X221996000Y-75184000D03*
X226822000Y-80010000D03*
X233934000Y-74930000D03*
X238252000Y-78994000D03*
X245110000Y-75438000D03*
X196545200Y-60985400D03*
X196545200Y-88544400D03*
%TO.N,Net-(J2-Pad2)*%
X183184800Y-70993000D03*
%TO.N,/CH7*%
X176632291Y-76530891D03*
X198704200Y-52679600D03*
%TO.N,/opampdriver/SIG*%
X181533800Y-72593200D03*
X212344000Y-85852000D03*
%TO.N,/sheet5F77FFF0/SIG*%
X186969400Y-73443200D03*
X223850200Y-85898010D03*
%TO.N,/sheet5F78069E/SIG*%
X181508400Y-73609200D03*
X235280200Y-85898010D03*
%TO.N,/sheet5F780C4A/SIG*%
X188163200Y-75143201D03*
X246170642Y-85109242D03*
%TO.N,/opampdriver/BIAS*%
X235712000Y-84328000D03*
X246380000Y-84074000D03*
X223520000Y-84074000D03*
X212090000Y-84074000D03*
X199390000Y-68580000D03*
%TD*%
D14*
%TO.N,+VDC*%
G36*
X203175001Y-52037571D02*
G01*
X203171807Y-52070000D01*
X203184550Y-52199383D01*
X203222290Y-52323793D01*
X203283575Y-52438450D01*
X203366052Y-52538948D01*
X203466550Y-52621425D01*
X203581207Y-52682710D01*
X203705617Y-52720450D01*
X203802581Y-52730000D01*
X203835000Y-52733193D01*
X203867419Y-52730000D01*
X249522581Y-52730000D01*
X249555000Y-52733193D01*
X249587419Y-52730000D01*
X249684383Y-52720450D01*
X249808793Y-52682710D01*
X249923450Y-52621425D01*
X250023948Y-52538948D01*
X250106425Y-52438450D01*
X250167710Y-52323793D01*
X250205450Y-52199383D01*
X250218193Y-52070000D01*
X250215000Y-52037581D01*
X250215000Y-48387000D01*
X256413000Y-48387000D01*
X256413000Y-90043000D01*
X172212000Y-90043000D01*
X172212000Y-87697680D01*
X195049508Y-87697680D01*
X195061768Y-87822162D01*
X195098078Y-87941860D01*
X195157043Y-88052174D01*
X195236395Y-88148865D01*
X195333086Y-88228217D01*
X195443400Y-88287182D01*
X195563098Y-88323492D01*
X195687580Y-88335752D01*
X196251830Y-88332680D01*
X196410580Y-88173930D01*
X196410580Y-86974680D01*
X195211330Y-86974680D01*
X195052580Y-87133430D01*
X195049508Y-87697680D01*
X172212000Y-87697680D01*
X172212000Y-86258061D01*
X188195000Y-86258061D01*
X188195000Y-86461939D01*
X188234774Y-86661898D01*
X188312795Y-86850256D01*
X188426063Y-87019774D01*
X188570226Y-87163937D01*
X188739744Y-87277205D01*
X188928102Y-87355226D01*
X189128061Y-87395000D01*
X189331939Y-87395000D01*
X189531898Y-87355226D01*
X189720256Y-87277205D01*
X189889774Y-87163937D01*
X190033937Y-87019774D01*
X190147205Y-86850256D01*
X190225226Y-86661898D01*
X190265000Y-86461939D01*
X190265000Y-86258061D01*
X190225226Y-86058102D01*
X190200199Y-85997680D01*
X195049508Y-85997680D01*
X195052580Y-86561930D01*
X195211330Y-86720680D01*
X196410580Y-86720680D01*
X196410580Y-85521430D01*
X196664580Y-85521430D01*
X196664580Y-86720680D01*
X196684580Y-86720680D01*
X196684580Y-86974680D01*
X196664580Y-86974680D01*
X196664580Y-88173930D01*
X196823330Y-88332680D01*
X197387580Y-88335752D01*
X197512062Y-88323492D01*
X197631760Y-88287182D01*
X197742074Y-88228217D01*
X197838765Y-88148865D01*
X197918117Y-88052174D01*
X197977082Y-87941860D01*
X197999093Y-87869300D01*
X198130948Y-88001155D01*
X198251437Y-88081663D01*
X198167995Y-88206544D01*
X198089974Y-88394902D01*
X198050200Y-88594861D01*
X198050200Y-88798739D01*
X198089974Y-88998698D01*
X198167995Y-89187056D01*
X198281263Y-89356574D01*
X198425426Y-89500737D01*
X198594944Y-89614005D01*
X198783302Y-89692026D01*
X198983261Y-89731800D01*
X199187139Y-89731800D01*
X199387098Y-89692026D01*
X199575456Y-89614005D01*
X199744974Y-89500737D01*
X199889137Y-89356574D01*
X200002405Y-89187056D01*
X200080426Y-88998698D01*
X200120200Y-88798739D01*
X200120200Y-88594861D01*
X200080426Y-88394902D01*
X200002405Y-88206544D01*
X199914259Y-88074623D01*
X200024212Y-88001155D01*
X200231055Y-87794312D01*
X200347580Y-87619920D01*
X200464105Y-87794312D01*
X200670948Y-88001155D01*
X200914169Y-88163670D01*
X201184422Y-88275612D01*
X201471320Y-88332680D01*
X201763840Y-88332680D01*
X202050738Y-88275612D01*
X202320991Y-88163670D01*
X202564212Y-88001155D01*
X202771055Y-87794312D01*
X202933570Y-87551091D01*
X203045512Y-87280838D01*
X203102580Y-86993940D01*
X203102580Y-86701420D01*
X203045512Y-86414522D01*
X202933570Y-86144269D01*
X202771055Y-85901048D01*
X202564212Y-85694205D01*
X202320991Y-85531690D01*
X202234975Y-85496061D01*
X205975000Y-85496061D01*
X205975000Y-85699939D01*
X206014774Y-85899898D01*
X206092795Y-86088256D01*
X206206063Y-86257774D01*
X206350226Y-86401937D01*
X206519744Y-86515205D01*
X206708102Y-86593226D01*
X206908061Y-86633000D01*
X207111939Y-86633000D01*
X207311898Y-86593226D01*
X207500256Y-86515205D01*
X207669774Y-86401937D01*
X207813937Y-86257774D01*
X207927205Y-86088256D01*
X208005226Y-85899898D01*
X208045000Y-85699939D01*
X208045000Y-85496061D01*
X208005226Y-85296102D01*
X207927205Y-85107744D01*
X207813937Y-84938226D01*
X207669774Y-84794063D01*
X207500256Y-84680795D01*
X207311898Y-84602774D01*
X207111939Y-84563000D01*
X206908061Y-84563000D01*
X206708102Y-84602774D01*
X206519744Y-84680795D01*
X206350226Y-84794063D01*
X206206063Y-84938226D01*
X206092795Y-85107744D01*
X206014774Y-85296102D01*
X205975000Y-85496061D01*
X202234975Y-85496061D01*
X202050738Y-85419748D01*
X201763840Y-85362680D01*
X201471320Y-85362680D01*
X201184422Y-85419748D01*
X200914169Y-85531690D01*
X200670948Y-85694205D01*
X200464105Y-85901048D01*
X200347580Y-86075440D01*
X200231055Y-85901048D01*
X200024212Y-85694205D01*
X199780991Y-85531690D01*
X199510738Y-85419748D01*
X199223840Y-85362680D01*
X198931320Y-85362680D01*
X198644422Y-85419748D01*
X198374169Y-85531690D01*
X198130948Y-85694205D01*
X197999093Y-85826060D01*
X197977082Y-85753500D01*
X197918117Y-85643186D01*
X197838765Y-85546495D01*
X197742074Y-85467143D01*
X197631760Y-85408178D01*
X197512062Y-85371868D01*
X197387580Y-85359608D01*
X196823330Y-85362680D01*
X196664580Y-85521430D01*
X196410580Y-85521430D01*
X196251830Y-85362680D01*
X195687580Y-85359608D01*
X195563098Y-85371868D01*
X195443400Y-85408178D01*
X195333086Y-85467143D01*
X195236395Y-85546495D01*
X195157043Y-85643186D01*
X195098078Y-85753500D01*
X195061768Y-85873198D01*
X195049508Y-85997680D01*
X190200199Y-85997680D01*
X190147205Y-85869744D01*
X190033937Y-85700226D01*
X189889774Y-85556063D01*
X189720256Y-85442795D01*
X189531898Y-85364774D01*
X189331939Y-85325000D01*
X189128061Y-85325000D01*
X188928102Y-85364774D01*
X188739744Y-85442795D01*
X188570226Y-85556063D01*
X188426063Y-85700226D01*
X188312795Y-85869744D01*
X188234774Y-86058102D01*
X188195000Y-86258061D01*
X172212000Y-86258061D01*
X172212000Y-83972061D01*
X211055000Y-83972061D01*
X211055000Y-84175939D01*
X211094774Y-84375898D01*
X211172795Y-84564256D01*
X211286063Y-84733774D01*
X211430226Y-84877937D01*
X211599744Y-84991205D01*
X211704426Y-85034566D01*
X211684226Y-85048063D01*
X211540063Y-85192226D01*
X211426795Y-85361744D01*
X211348774Y-85550102D01*
X211309000Y-85750061D01*
X211309000Y-85953939D01*
X211348774Y-86153898D01*
X211426795Y-86342256D01*
X211540063Y-86511774D01*
X211684226Y-86655937D01*
X211853744Y-86769205D01*
X212042102Y-86847226D01*
X212242061Y-86887000D01*
X212445939Y-86887000D01*
X212645898Y-86847226D01*
X212834256Y-86769205D01*
X213003774Y-86655937D01*
X213147937Y-86511774D01*
X213261205Y-86342256D01*
X213339226Y-86153898D01*
X213379000Y-85953939D01*
X213379000Y-85750061D01*
X213339226Y-85550102D01*
X213261205Y-85361744D01*
X213147937Y-85192226D01*
X213003774Y-85048063D01*
X212834256Y-84934795D01*
X212729574Y-84891434D01*
X212749774Y-84877937D01*
X212893937Y-84733774D01*
X213007205Y-84564256D01*
X213085226Y-84375898D01*
X213125000Y-84175939D01*
X213125000Y-83972061D01*
X213085226Y-83772102D01*
X213007205Y-83583744D01*
X212893937Y-83414226D01*
X212749774Y-83270063D01*
X212580256Y-83156795D01*
X212402248Y-83083061D01*
X218040000Y-83083061D01*
X218040000Y-83286939D01*
X218079774Y-83486898D01*
X218157795Y-83675256D01*
X218271063Y-83844774D01*
X218415226Y-83988937D01*
X218584744Y-84102205D01*
X218773102Y-84180226D01*
X218973061Y-84220000D01*
X219176939Y-84220000D01*
X219376898Y-84180226D01*
X219565256Y-84102205D01*
X219734774Y-83988937D01*
X219751650Y-83972061D01*
X222485000Y-83972061D01*
X222485000Y-84175939D01*
X222524774Y-84375898D01*
X222602795Y-84564256D01*
X222716063Y-84733774D01*
X222860226Y-84877937D01*
X223029744Y-84991205D01*
X223218102Y-85069226D01*
X223225431Y-85070684D01*
X223190426Y-85094073D01*
X223046263Y-85238236D01*
X222932995Y-85407754D01*
X222854974Y-85596112D01*
X222815200Y-85796071D01*
X222815200Y-85999949D01*
X222854974Y-86199908D01*
X222932995Y-86388266D01*
X223046263Y-86557784D01*
X223190426Y-86701947D01*
X223359944Y-86815215D01*
X223548302Y-86893236D01*
X223748261Y-86933010D01*
X223952139Y-86933010D01*
X224152098Y-86893236D01*
X224340456Y-86815215D01*
X224509974Y-86701947D01*
X224654137Y-86557784D01*
X224767405Y-86388266D01*
X224845426Y-86199908D01*
X224885200Y-85999949D01*
X224885200Y-85796071D01*
X224845426Y-85596112D01*
X224803984Y-85496061D01*
X228835000Y-85496061D01*
X228835000Y-85699939D01*
X228874774Y-85899898D01*
X228952795Y-86088256D01*
X229066063Y-86257774D01*
X229210226Y-86401937D01*
X229379744Y-86515205D01*
X229568102Y-86593226D01*
X229768061Y-86633000D01*
X229971939Y-86633000D01*
X230171898Y-86593226D01*
X230360256Y-86515205D01*
X230529774Y-86401937D01*
X230673937Y-86257774D01*
X230787205Y-86088256D01*
X230865226Y-85899898D01*
X230885878Y-85796071D01*
X234245200Y-85796071D01*
X234245200Y-85999949D01*
X234284974Y-86199908D01*
X234362995Y-86388266D01*
X234476263Y-86557784D01*
X234620426Y-86701947D01*
X234789944Y-86815215D01*
X234978302Y-86893236D01*
X235178261Y-86933010D01*
X235382139Y-86933010D01*
X235582098Y-86893236D01*
X235770456Y-86815215D01*
X235939974Y-86701947D01*
X236084137Y-86557784D01*
X236197405Y-86388266D01*
X236275426Y-86199908D01*
X236315200Y-85999949D01*
X236315200Y-85796071D01*
X236275426Y-85596112D01*
X236233984Y-85496061D01*
X240519000Y-85496061D01*
X240519000Y-85699939D01*
X240558774Y-85899898D01*
X240636795Y-86088256D01*
X240750063Y-86257774D01*
X240894226Y-86401937D01*
X241063744Y-86515205D01*
X241252102Y-86593226D01*
X241452061Y-86633000D01*
X241655939Y-86633000D01*
X241855898Y-86593226D01*
X242044256Y-86515205D01*
X242213774Y-86401937D01*
X242357937Y-86257774D01*
X242471205Y-86088256D01*
X242549226Y-85899898D01*
X242589000Y-85699939D01*
X242589000Y-85496061D01*
X242549226Y-85296102D01*
X242471205Y-85107744D01*
X242404093Y-85007303D01*
X245135642Y-85007303D01*
X245135642Y-85211181D01*
X245175416Y-85411140D01*
X245253437Y-85599498D01*
X245366705Y-85769016D01*
X245510868Y-85913179D01*
X245680386Y-86026447D01*
X245868744Y-86104468D01*
X246068703Y-86144242D01*
X246272581Y-86144242D01*
X246472540Y-86104468D01*
X246660898Y-86026447D01*
X246830416Y-85913179D01*
X246974579Y-85769016D01*
X247087847Y-85599498D01*
X247165868Y-85411140D01*
X247205642Y-85211181D01*
X247205642Y-85007303D01*
X247165868Y-84807344D01*
X247149612Y-84768099D01*
X247183937Y-84733774D01*
X247297205Y-84564256D01*
X247375226Y-84375898D01*
X247415000Y-84175939D01*
X247415000Y-83972061D01*
X247375226Y-83772102D01*
X247297205Y-83583744D01*
X247183937Y-83414226D01*
X247039774Y-83270063D01*
X246870256Y-83156795D01*
X246681898Y-83078774D01*
X246481939Y-83039000D01*
X246278061Y-83039000D01*
X246078102Y-83078774D01*
X245889744Y-83156795D01*
X245720226Y-83270063D01*
X245576063Y-83414226D01*
X245462795Y-83583744D01*
X245384774Y-83772102D01*
X245345000Y-83972061D01*
X245345000Y-84175939D01*
X245384774Y-84375898D01*
X245401030Y-84415143D01*
X245366705Y-84449468D01*
X245253437Y-84618986D01*
X245175416Y-84807344D01*
X245135642Y-85007303D01*
X242404093Y-85007303D01*
X242357937Y-84938226D01*
X242213774Y-84794063D01*
X242044256Y-84680795D01*
X241855898Y-84602774D01*
X241655939Y-84563000D01*
X241452061Y-84563000D01*
X241252102Y-84602774D01*
X241063744Y-84680795D01*
X240894226Y-84794063D01*
X240750063Y-84938226D01*
X240636795Y-85107744D01*
X240558774Y-85296102D01*
X240519000Y-85496061D01*
X236233984Y-85496061D01*
X236197405Y-85407754D01*
X236113389Y-85282015D01*
X236202256Y-85245205D01*
X236371774Y-85131937D01*
X236515937Y-84987774D01*
X236629205Y-84818256D01*
X236707226Y-84629898D01*
X236747000Y-84429939D01*
X236747000Y-84226061D01*
X236707226Y-84026102D01*
X236629205Y-83837744D01*
X236515937Y-83668226D01*
X236371774Y-83524063D01*
X236202256Y-83410795D01*
X236013898Y-83332774D01*
X235813939Y-83293000D01*
X235610061Y-83293000D01*
X235410102Y-83332774D01*
X235221744Y-83410795D01*
X235052226Y-83524063D01*
X234908063Y-83668226D01*
X234794795Y-83837744D01*
X234716774Y-84026102D01*
X234677000Y-84226061D01*
X234677000Y-84429939D01*
X234716774Y-84629898D01*
X234794795Y-84818256D01*
X234878811Y-84943995D01*
X234789944Y-84980805D01*
X234620426Y-85094073D01*
X234476263Y-85238236D01*
X234362995Y-85407754D01*
X234284974Y-85596112D01*
X234245200Y-85796071D01*
X230885878Y-85796071D01*
X230905000Y-85699939D01*
X230905000Y-85496061D01*
X230865226Y-85296102D01*
X230787205Y-85107744D01*
X230673937Y-84938226D01*
X230529774Y-84794063D01*
X230360256Y-84680795D01*
X230171898Y-84602774D01*
X229971939Y-84563000D01*
X229768061Y-84563000D01*
X229568102Y-84602774D01*
X229379744Y-84680795D01*
X229210226Y-84794063D01*
X229066063Y-84938226D01*
X228952795Y-85107744D01*
X228874774Y-85296102D01*
X228835000Y-85496061D01*
X224803984Y-85496061D01*
X224767405Y-85407754D01*
X224654137Y-85238236D01*
X224509974Y-85094073D01*
X224340456Y-84980805D01*
X224152098Y-84902784D01*
X224144769Y-84901326D01*
X224179774Y-84877937D01*
X224323937Y-84733774D01*
X224437205Y-84564256D01*
X224515226Y-84375898D01*
X224555000Y-84175939D01*
X224555000Y-83972061D01*
X224515226Y-83772102D01*
X224437205Y-83583744D01*
X224323937Y-83414226D01*
X224179774Y-83270063D01*
X224010256Y-83156795D01*
X223821898Y-83078774D01*
X223621939Y-83039000D01*
X223418061Y-83039000D01*
X223218102Y-83078774D01*
X223029744Y-83156795D01*
X222860226Y-83270063D01*
X222716063Y-83414226D01*
X222602795Y-83583744D01*
X222524774Y-83772102D01*
X222485000Y-83972061D01*
X219751650Y-83972061D01*
X219878937Y-83844774D01*
X219992205Y-83675256D01*
X220070226Y-83486898D01*
X220110000Y-83286939D01*
X220110000Y-83083061D01*
X220070226Y-82883102D01*
X219992205Y-82694744D01*
X219878937Y-82525226D01*
X219734774Y-82381063D01*
X219565256Y-82267795D01*
X219376898Y-82189774D01*
X219176939Y-82150000D01*
X218973061Y-82150000D01*
X218773102Y-82189774D01*
X218584744Y-82267795D01*
X218415226Y-82381063D01*
X218271063Y-82525226D01*
X218157795Y-82694744D01*
X218079774Y-82883102D01*
X218040000Y-83083061D01*
X212402248Y-83083061D01*
X212391898Y-83078774D01*
X212191939Y-83039000D01*
X211988061Y-83039000D01*
X211788102Y-83078774D01*
X211599744Y-83156795D01*
X211430226Y-83270063D01*
X211286063Y-83414226D01*
X211172795Y-83583744D01*
X211094774Y-83772102D01*
X211055000Y-83972061D01*
X172212000Y-83972061D01*
X172212000Y-67730000D01*
X172501928Y-67730000D01*
X172501928Y-69430000D01*
X172514188Y-69554482D01*
X172550498Y-69674180D01*
X172609463Y-69784494D01*
X172688815Y-69881185D01*
X172785506Y-69960537D01*
X172895820Y-70019502D01*
X172968380Y-70041513D01*
X172836525Y-70173368D01*
X172674010Y-70416589D01*
X172562068Y-70686842D01*
X172505000Y-70973740D01*
X172505000Y-71266260D01*
X172562068Y-71553158D01*
X172674010Y-71823411D01*
X172836525Y-72066632D01*
X173043368Y-72273475D01*
X173217760Y-72390000D01*
X173043368Y-72506525D01*
X172836525Y-72713368D01*
X172674010Y-72956589D01*
X172562068Y-73226842D01*
X172505000Y-73513740D01*
X172505000Y-73806260D01*
X172562068Y-74093158D01*
X172674010Y-74363411D01*
X172836525Y-74606632D01*
X173043368Y-74813475D01*
X173217760Y-74930000D01*
X173043368Y-75046525D01*
X172836525Y-75253368D01*
X172674010Y-75496589D01*
X172562068Y-75766842D01*
X172505000Y-76053740D01*
X172505000Y-76346260D01*
X172562068Y-76633158D01*
X172674010Y-76903411D01*
X172836525Y-77146632D01*
X173043368Y-77353475D01*
X173217760Y-77470000D01*
X173043368Y-77586525D01*
X172836525Y-77793368D01*
X172674010Y-78036589D01*
X172562068Y-78306842D01*
X172505000Y-78593740D01*
X172505000Y-78886260D01*
X172562068Y-79173158D01*
X172674010Y-79443411D01*
X172836525Y-79686632D01*
X173043368Y-79893475D01*
X173217760Y-80010000D01*
X173043368Y-80126525D01*
X172836525Y-80333368D01*
X172674010Y-80576589D01*
X172562068Y-80846842D01*
X172505000Y-81133740D01*
X172505000Y-81426260D01*
X172562068Y-81713158D01*
X172674010Y-81983411D01*
X172836525Y-82226632D01*
X173043368Y-82433475D01*
X173286589Y-82595990D01*
X173556842Y-82707932D01*
X173843740Y-82765000D01*
X174136260Y-82765000D01*
X174423158Y-82707932D01*
X174693411Y-82595990D01*
X174936632Y-82433475D01*
X175143475Y-82226632D01*
X175305990Y-81983411D01*
X175417932Y-81713158D01*
X175475000Y-81426260D01*
X175475000Y-81178061D01*
X178035000Y-81178061D01*
X178035000Y-81381939D01*
X178074774Y-81581898D01*
X178152795Y-81770256D01*
X178266063Y-81939774D01*
X178410226Y-82083937D01*
X178579744Y-82197205D01*
X178768102Y-82275226D01*
X178968061Y-82315000D01*
X179171939Y-82315000D01*
X179371898Y-82275226D01*
X179560256Y-82197205D01*
X179729774Y-82083937D01*
X179873937Y-81939774D01*
X179987205Y-81770256D01*
X180065226Y-81581898D01*
X180105000Y-81381939D01*
X180105000Y-81178061D01*
X180065226Y-80978102D01*
X179987205Y-80789744D01*
X179873937Y-80620226D01*
X179729774Y-80476063D01*
X179560256Y-80362795D01*
X179371898Y-80284774D01*
X179171939Y-80245000D01*
X178968061Y-80245000D01*
X178768102Y-80284774D01*
X178579744Y-80362795D01*
X178410226Y-80476063D01*
X178266063Y-80620226D01*
X178152795Y-80789744D01*
X178074774Y-80978102D01*
X178035000Y-81178061D01*
X175475000Y-81178061D01*
X175475000Y-81133740D01*
X175417932Y-80846842D01*
X175305990Y-80576589D01*
X175143475Y-80333368D01*
X174936632Y-80126525D01*
X174762240Y-80010000D01*
X174936632Y-79893475D01*
X175143475Y-79686632D01*
X175305990Y-79443411D01*
X175372565Y-79282684D01*
X208720000Y-79282684D01*
X208720000Y-79437316D01*
X208750167Y-79588976D01*
X208809342Y-79731837D01*
X208895251Y-79860408D01*
X209004592Y-79969749D01*
X209064831Y-80010000D01*
X209004592Y-80050251D01*
X208895251Y-80159592D01*
X208809342Y-80288163D01*
X208750167Y-80431024D01*
X208720000Y-80582684D01*
X208720000Y-80737316D01*
X208750167Y-80888976D01*
X208809342Y-81031837D01*
X208895251Y-81160408D01*
X209004592Y-81269749D01*
X209133163Y-81355658D01*
X209276024Y-81414833D01*
X209427684Y-81445000D01*
X209582316Y-81445000D01*
X209733976Y-81414833D01*
X209876837Y-81355658D01*
X210005408Y-81269749D01*
X210114749Y-81160408D01*
X210155000Y-81100169D01*
X210195251Y-81160408D01*
X210304592Y-81269749D01*
X210433163Y-81355658D01*
X210576024Y-81414833D01*
X210727684Y-81445000D01*
X210882316Y-81445000D01*
X211033976Y-81414833D01*
X211176837Y-81355658D01*
X211305408Y-81269749D01*
X211414749Y-81160408D01*
X211455000Y-81100169D01*
X211495251Y-81160408D01*
X211604592Y-81269749D01*
X211733163Y-81355658D01*
X211876024Y-81414833D01*
X212027684Y-81445000D01*
X212182316Y-81445000D01*
X212333976Y-81414833D01*
X212476837Y-81355658D01*
X212605408Y-81269749D01*
X212714749Y-81160408D01*
X212755000Y-81100169D01*
X212795251Y-81160408D01*
X212904592Y-81269749D01*
X213033163Y-81355658D01*
X213176024Y-81414833D01*
X213327684Y-81445000D01*
X213482316Y-81445000D01*
X213633976Y-81414833D01*
X213776837Y-81355658D01*
X213905408Y-81269749D01*
X214014749Y-81160408D01*
X214100658Y-81031837D01*
X214159833Y-80888976D01*
X214190000Y-80737316D01*
X214190000Y-80582684D01*
X214159833Y-80431024D01*
X214100658Y-80288163D01*
X214014749Y-80159592D01*
X213905408Y-80050251D01*
X213845169Y-80010000D01*
X213905408Y-79969749D01*
X214014749Y-79860408D01*
X214100658Y-79731837D01*
X214159833Y-79588976D01*
X214190000Y-79437316D01*
X214190000Y-79282684D01*
X220150000Y-79282684D01*
X220150000Y-79437316D01*
X220180167Y-79588976D01*
X220239342Y-79731837D01*
X220325251Y-79860408D01*
X220434592Y-79969749D01*
X220494831Y-80010000D01*
X220434592Y-80050251D01*
X220325251Y-80159592D01*
X220239342Y-80288163D01*
X220180167Y-80431024D01*
X220150000Y-80582684D01*
X220150000Y-80737316D01*
X220180167Y-80888976D01*
X220239342Y-81031837D01*
X220325251Y-81160408D01*
X220434592Y-81269749D01*
X220563163Y-81355658D01*
X220706024Y-81414833D01*
X220857684Y-81445000D01*
X221012316Y-81445000D01*
X221163976Y-81414833D01*
X221306837Y-81355658D01*
X221435408Y-81269749D01*
X221544749Y-81160408D01*
X221585000Y-81100169D01*
X221625251Y-81160408D01*
X221734592Y-81269749D01*
X221863163Y-81355658D01*
X222006024Y-81414833D01*
X222157684Y-81445000D01*
X222312316Y-81445000D01*
X222463976Y-81414833D01*
X222606837Y-81355658D01*
X222735408Y-81269749D01*
X222844749Y-81160408D01*
X222885000Y-81100169D01*
X222925251Y-81160408D01*
X223034592Y-81269749D01*
X223163163Y-81355658D01*
X223306024Y-81414833D01*
X223457684Y-81445000D01*
X223612316Y-81445000D01*
X223763976Y-81414833D01*
X223906837Y-81355658D01*
X224035408Y-81269749D01*
X224144749Y-81160408D01*
X224185000Y-81100169D01*
X224225251Y-81160408D01*
X224334592Y-81269749D01*
X224463163Y-81355658D01*
X224606024Y-81414833D01*
X224757684Y-81445000D01*
X224912316Y-81445000D01*
X225063976Y-81414833D01*
X225206837Y-81355658D01*
X225335408Y-81269749D01*
X225444749Y-81160408D01*
X225530658Y-81031837D01*
X225589833Y-80888976D01*
X225620000Y-80737316D01*
X225620000Y-80582684D01*
X225589833Y-80431024D01*
X225530658Y-80288163D01*
X225444749Y-80159592D01*
X225335408Y-80050251D01*
X225275169Y-80010000D01*
X225335408Y-79969749D01*
X225444749Y-79860408D01*
X225530658Y-79731837D01*
X225589833Y-79588976D01*
X225620000Y-79437316D01*
X225620000Y-79282684D01*
X225589833Y-79131024D01*
X225530658Y-78988163D01*
X225444749Y-78859592D01*
X225335408Y-78750251D01*
X225206837Y-78664342D01*
X225166622Y-78647684D01*
X231580000Y-78647684D01*
X231580000Y-78802316D01*
X231610167Y-78953976D01*
X231669342Y-79096837D01*
X231755251Y-79225408D01*
X231864592Y-79334749D01*
X231924831Y-79375000D01*
X231864592Y-79415251D01*
X231755251Y-79524592D01*
X231669342Y-79653163D01*
X231610167Y-79796024D01*
X231580000Y-79947684D01*
X231580000Y-80102316D01*
X231610167Y-80253976D01*
X231669342Y-80396837D01*
X231755251Y-80525408D01*
X231864592Y-80634749D01*
X231993163Y-80720658D01*
X232136024Y-80779833D01*
X232287684Y-80810000D01*
X232442316Y-80810000D01*
X232593976Y-80779833D01*
X232736837Y-80720658D01*
X232865408Y-80634749D01*
X232974749Y-80525408D01*
X233015000Y-80465169D01*
X233055251Y-80525408D01*
X233164592Y-80634749D01*
X233293163Y-80720658D01*
X233436024Y-80779833D01*
X233587684Y-80810000D01*
X233742316Y-80810000D01*
X233893976Y-80779833D01*
X234036837Y-80720658D01*
X234165408Y-80634749D01*
X234274749Y-80525408D01*
X234315000Y-80465169D01*
X234355251Y-80525408D01*
X234464592Y-80634749D01*
X234593163Y-80720658D01*
X234736024Y-80779833D01*
X234887684Y-80810000D01*
X235042316Y-80810000D01*
X235193976Y-80779833D01*
X235336837Y-80720658D01*
X235465408Y-80634749D01*
X235574749Y-80525408D01*
X235615000Y-80465169D01*
X235655251Y-80525408D01*
X235764592Y-80634749D01*
X235893163Y-80720658D01*
X236036024Y-80779833D01*
X236187684Y-80810000D01*
X236342316Y-80810000D01*
X236493976Y-80779833D01*
X236636837Y-80720658D01*
X236765408Y-80634749D01*
X236874749Y-80525408D01*
X236960658Y-80396837D01*
X237019833Y-80253976D01*
X237050000Y-80102316D01*
X237050000Y-79947684D01*
X237019833Y-79796024D01*
X236960658Y-79653163D01*
X236874749Y-79524592D01*
X236765408Y-79415251D01*
X236705169Y-79375000D01*
X236765408Y-79334749D01*
X236817473Y-79282684D01*
X243010000Y-79282684D01*
X243010000Y-79437316D01*
X243040167Y-79588976D01*
X243099342Y-79731837D01*
X243185251Y-79860408D01*
X243294592Y-79969749D01*
X243354831Y-80010000D01*
X243294592Y-80050251D01*
X243185251Y-80159592D01*
X243099342Y-80288163D01*
X243040167Y-80431024D01*
X243010000Y-80582684D01*
X243010000Y-80737316D01*
X243040167Y-80888976D01*
X243099342Y-81031837D01*
X243185251Y-81160408D01*
X243294592Y-81269749D01*
X243423163Y-81355658D01*
X243566024Y-81414833D01*
X243717684Y-81445000D01*
X243872316Y-81445000D01*
X244023976Y-81414833D01*
X244166837Y-81355658D01*
X244295408Y-81269749D01*
X244404749Y-81160408D01*
X244445000Y-81100169D01*
X244485251Y-81160408D01*
X244594592Y-81269749D01*
X244723163Y-81355658D01*
X244866024Y-81414833D01*
X245017684Y-81445000D01*
X245172316Y-81445000D01*
X245323976Y-81414833D01*
X245466837Y-81355658D01*
X245595408Y-81269749D01*
X245704749Y-81160408D01*
X245745000Y-81100169D01*
X245785251Y-81160408D01*
X245894592Y-81269749D01*
X246023163Y-81355658D01*
X246166024Y-81414833D01*
X246317684Y-81445000D01*
X246472316Y-81445000D01*
X246623976Y-81414833D01*
X246766837Y-81355658D01*
X246895408Y-81269749D01*
X247004749Y-81160408D01*
X247045000Y-81100169D01*
X247085251Y-81160408D01*
X247194592Y-81269749D01*
X247323163Y-81355658D01*
X247466024Y-81414833D01*
X247617684Y-81445000D01*
X247772316Y-81445000D01*
X247923976Y-81414833D01*
X248066837Y-81355658D01*
X248195408Y-81269749D01*
X248304749Y-81160408D01*
X248390658Y-81031837D01*
X248449833Y-80888976D01*
X248480000Y-80737316D01*
X248480000Y-80582684D01*
X248449833Y-80431024D01*
X248390658Y-80288163D01*
X248304749Y-80159592D01*
X248195408Y-80050251D01*
X248135169Y-80010000D01*
X248195408Y-79969749D01*
X248304749Y-79860408D01*
X248390658Y-79731837D01*
X248449833Y-79588976D01*
X248480000Y-79437316D01*
X248480000Y-79282684D01*
X248449833Y-79131024D01*
X248390658Y-78988163D01*
X248304749Y-78859592D01*
X248195408Y-78750251D01*
X248066837Y-78664342D01*
X247923976Y-78605167D01*
X247772316Y-78575000D01*
X247617684Y-78575000D01*
X247466024Y-78605167D01*
X247323163Y-78664342D01*
X247194592Y-78750251D01*
X247085251Y-78859592D01*
X247045000Y-78919831D01*
X247004749Y-78859592D01*
X246895408Y-78750251D01*
X246766837Y-78664342D01*
X246623976Y-78605167D01*
X246472316Y-78575000D01*
X246317684Y-78575000D01*
X246166024Y-78605167D01*
X246023163Y-78664342D01*
X245894592Y-78750251D01*
X245785251Y-78859592D01*
X245745000Y-78919831D01*
X245704749Y-78859592D01*
X245595408Y-78750251D01*
X245466837Y-78664342D01*
X245323976Y-78605167D01*
X245172316Y-78575000D01*
X245017684Y-78575000D01*
X244866024Y-78605167D01*
X244723163Y-78664342D01*
X244594592Y-78750251D01*
X244485251Y-78859592D01*
X244445000Y-78919831D01*
X244404749Y-78859592D01*
X244295408Y-78750251D01*
X244166837Y-78664342D01*
X244023976Y-78605167D01*
X243872316Y-78575000D01*
X243717684Y-78575000D01*
X243566024Y-78605167D01*
X243423163Y-78664342D01*
X243294592Y-78750251D01*
X243185251Y-78859592D01*
X243099342Y-78988163D01*
X243040167Y-79131024D01*
X243010000Y-79282684D01*
X236817473Y-79282684D01*
X236874749Y-79225408D01*
X236960658Y-79096837D01*
X237019833Y-78953976D01*
X237050000Y-78802316D01*
X237050000Y-78647684D01*
X237019833Y-78496024D01*
X236960658Y-78353163D01*
X236874749Y-78224592D01*
X236765408Y-78115251D01*
X236636837Y-78029342D01*
X236493976Y-77970167D01*
X236342316Y-77940000D01*
X236187684Y-77940000D01*
X236036024Y-77970167D01*
X235893163Y-78029342D01*
X235764592Y-78115251D01*
X235655251Y-78224592D01*
X235615000Y-78284831D01*
X235574749Y-78224592D01*
X235465408Y-78115251D01*
X235336837Y-78029342D01*
X235193976Y-77970167D01*
X235042316Y-77940000D01*
X234887684Y-77940000D01*
X234736024Y-77970167D01*
X234593163Y-78029342D01*
X234464592Y-78115251D01*
X234355251Y-78224592D01*
X234315000Y-78284831D01*
X234274749Y-78224592D01*
X234165408Y-78115251D01*
X234036837Y-78029342D01*
X233893976Y-77970167D01*
X233742316Y-77940000D01*
X233587684Y-77940000D01*
X233436024Y-77970167D01*
X233293163Y-78029342D01*
X233164592Y-78115251D01*
X233055251Y-78224592D01*
X233015000Y-78284831D01*
X232974749Y-78224592D01*
X232865408Y-78115251D01*
X232736837Y-78029342D01*
X232593976Y-77970167D01*
X232442316Y-77940000D01*
X232287684Y-77940000D01*
X232136024Y-77970167D01*
X231993163Y-78029342D01*
X231864592Y-78115251D01*
X231755251Y-78224592D01*
X231669342Y-78353163D01*
X231610167Y-78496024D01*
X231580000Y-78647684D01*
X225166622Y-78647684D01*
X225063976Y-78605167D01*
X224912316Y-78575000D01*
X224757684Y-78575000D01*
X224606024Y-78605167D01*
X224463163Y-78664342D01*
X224334592Y-78750251D01*
X224225251Y-78859592D01*
X224185000Y-78919831D01*
X224144749Y-78859592D01*
X224035408Y-78750251D01*
X223906837Y-78664342D01*
X223763976Y-78605167D01*
X223612316Y-78575000D01*
X223457684Y-78575000D01*
X223306024Y-78605167D01*
X223163163Y-78664342D01*
X223034592Y-78750251D01*
X222925251Y-78859592D01*
X222885000Y-78919831D01*
X222844749Y-78859592D01*
X222735408Y-78750251D01*
X222606837Y-78664342D01*
X222463976Y-78605167D01*
X222312316Y-78575000D01*
X222157684Y-78575000D01*
X222006024Y-78605167D01*
X221863163Y-78664342D01*
X221734592Y-78750251D01*
X221625251Y-78859592D01*
X221585000Y-78919831D01*
X221544749Y-78859592D01*
X221435408Y-78750251D01*
X221306837Y-78664342D01*
X221163976Y-78605167D01*
X221012316Y-78575000D01*
X220857684Y-78575000D01*
X220706024Y-78605167D01*
X220563163Y-78664342D01*
X220434592Y-78750251D01*
X220325251Y-78859592D01*
X220239342Y-78988163D01*
X220180167Y-79131024D01*
X220150000Y-79282684D01*
X214190000Y-79282684D01*
X214159833Y-79131024D01*
X214100658Y-78988163D01*
X214014749Y-78859592D01*
X213905408Y-78750251D01*
X213776837Y-78664342D01*
X213633976Y-78605167D01*
X213482316Y-78575000D01*
X213327684Y-78575000D01*
X213176024Y-78605167D01*
X213033163Y-78664342D01*
X212904592Y-78750251D01*
X212795251Y-78859592D01*
X212755000Y-78919831D01*
X212714749Y-78859592D01*
X212605408Y-78750251D01*
X212476837Y-78664342D01*
X212333976Y-78605167D01*
X212182316Y-78575000D01*
X212027684Y-78575000D01*
X211876024Y-78605167D01*
X211733163Y-78664342D01*
X211604592Y-78750251D01*
X211495251Y-78859592D01*
X211455000Y-78919831D01*
X211414749Y-78859592D01*
X211305408Y-78750251D01*
X211176837Y-78664342D01*
X211033976Y-78605167D01*
X210882316Y-78575000D01*
X210727684Y-78575000D01*
X210576024Y-78605167D01*
X210433163Y-78664342D01*
X210304592Y-78750251D01*
X210195251Y-78859592D01*
X210155000Y-78919831D01*
X210114749Y-78859592D01*
X210005408Y-78750251D01*
X209876837Y-78664342D01*
X209733976Y-78605167D01*
X209582316Y-78575000D01*
X209427684Y-78575000D01*
X209276024Y-78605167D01*
X209133163Y-78664342D01*
X209004592Y-78750251D01*
X208895251Y-78859592D01*
X208809342Y-78988163D01*
X208750167Y-79131024D01*
X208720000Y-79282684D01*
X175372565Y-79282684D01*
X175417932Y-79173158D01*
X175475000Y-78886260D01*
X175475000Y-78593740D01*
X175417932Y-78306842D01*
X175305990Y-78036589D01*
X175143475Y-77793368D01*
X174936632Y-77586525D01*
X174762240Y-77470000D01*
X174936632Y-77353475D01*
X175143475Y-77146632D01*
X175305990Y-76903411D01*
X175417932Y-76633158D01*
X175458551Y-76428952D01*
X175597291Y-76428952D01*
X175597291Y-76632830D01*
X175637065Y-76832789D01*
X175715086Y-77021147D01*
X175828354Y-77190665D01*
X175972517Y-77334828D01*
X176142035Y-77448096D01*
X176330393Y-77526117D01*
X176530352Y-77565891D01*
X176734230Y-77565891D01*
X176934189Y-77526117D01*
X177122547Y-77448096D01*
X177292065Y-77334828D01*
X177436228Y-77190665D01*
X177549496Y-77021147D01*
X177627517Y-76832789D01*
X177667291Y-76632830D01*
X177667291Y-76428952D01*
X177627517Y-76228993D01*
X177549496Y-76040635D01*
X177436228Y-75871117D01*
X177292065Y-75726954D01*
X177122547Y-75613686D01*
X176934189Y-75535665D01*
X176734230Y-75495891D01*
X176530352Y-75495891D01*
X176330393Y-75535665D01*
X176142035Y-75613686D01*
X175972517Y-75726954D01*
X175828354Y-75871117D01*
X175715086Y-76040635D01*
X175637065Y-76228993D01*
X175597291Y-76428952D01*
X175458551Y-76428952D01*
X175475000Y-76346260D01*
X175475000Y-76053740D01*
X175417932Y-75766842D01*
X175305990Y-75496589D01*
X175143475Y-75253368D01*
X174936632Y-75046525D01*
X174928756Y-75041262D01*
X187128200Y-75041262D01*
X187128200Y-75245140D01*
X187167974Y-75445099D01*
X187245995Y-75633457D01*
X187359263Y-75802975D01*
X187503426Y-75947138D01*
X187672944Y-76060406D01*
X187861302Y-76138427D01*
X188061261Y-76178201D01*
X188265139Y-76178201D01*
X188465098Y-76138427D01*
X188653456Y-76060406D01*
X188822974Y-75947138D01*
X188926051Y-75844061D01*
X206991000Y-75844061D01*
X206991000Y-76047939D01*
X207030774Y-76247898D01*
X207108795Y-76436256D01*
X207222063Y-76605774D01*
X207366226Y-76749937D01*
X207535744Y-76863205D01*
X207724102Y-76941226D01*
X207924061Y-76981000D01*
X208127939Y-76981000D01*
X208327898Y-76941226D01*
X208516256Y-76863205D01*
X208685774Y-76749937D01*
X208829937Y-76605774D01*
X208943205Y-76436256D01*
X209021226Y-76247898D01*
X209061000Y-76047939D01*
X209061000Y-75844061D01*
X209021226Y-75644102D01*
X208943205Y-75455744D01*
X208829937Y-75286226D01*
X208685774Y-75142063D01*
X208595975Y-75082061D01*
X218167000Y-75082061D01*
X218167000Y-75285939D01*
X218206774Y-75485898D01*
X218284795Y-75674256D01*
X218398063Y-75843774D01*
X218542226Y-75987937D01*
X218711744Y-76101205D01*
X218900102Y-76179226D01*
X219100061Y-76219000D01*
X219303939Y-76219000D01*
X219503898Y-76179226D01*
X219692256Y-76101205D01*
X219861774Y-75987937D01*
X220005937Y-75843774D01*
X220119205Y-75674256D01*
X220197226Y-75485898D01*
X220227030Y-75336061D01*
X229597000Y-75336061D01*
X229597000Y-75539939D01*
X229636774Y-75739898D01*
X229714795Y-75928256D01*
X229828063Y-76097774D01*
X229972226Y-76241937D01*
X230141744Y-76355205D01*
X230330102Y-76433226D01*
X230530061Y-76473000D01*
X230733939Y-76473000D01*
X230933898Y-76433226D01*
X231122256Y-76355205D01*
X231291774Y-76241937D01*
X231435937Y-76097774D01*
X231549205Y-75928256D01*
X231627226Y-75739898D01*
X231667000Y-75539939D01*
X231667000Y-75336061D01*
X231627226Y-75136102D01*
X231604842Y-75082061D01*
X241281000Y-75082061D01*
X241281000Y-75285939D01*
X241320774Y-75485898D01*
X241398795Y-75674256D01*
X241512063Y-75843774D01*
X241656226Y-75987937D01*
X241825744Y-76101205D01*
X242014102Y-76179226D01*
X242214061Y-76219000D01*
X242417939Y-76219000D01*
X242617898Y-76179226D01*
X242806256Y-76101205D01*
X242975774Y-75987937D01*
X243119937Y-75843774D01*
X243233205Y-75674256D01*
X243311226Y-75485898D01*
X243351000Y-75285939D01*
X243351000Y-75082061D01*
X243311226Y-74882102D01*
X243233205Y-74693744D01*
X243119937Y-74524226D01*
X242975774Y-74380063D01*
X242806256Y-74266795D01*
X242617898Y-74188774D01*
X242417939Y-74149000D01*
X242214061Y-74149000D01*
X242014102Y-74188774D01*
X241825744Y-74266795D01*
X241656226Y-74380063D01*
X241512063Y-74524226D01*
X241398795Y-74693744D01*
X241320774Y-74882102D01*
X241281000Y-75082061D01*
X231604842Y-75082061D01*
X231549205Y-74947744D01*
X231435937Y-74778226D01*
X231291774Y-74634063D01*
X231122256Y-74520795D01*
X230933898Y-74442774D01*
X230733939Y-74403000D01*
X230530061Y-74403000D01*
X230330102Y-74442774D01*
X230141744Y-74520795D01*
X229972226Y-74634063D01*
X229828063Y-74778226D01*
X229714795Y-74947744D01*
X229636774Y-75136102D01*
X229597000Y-75336061D01*
X220227030Y-75336061D01*
X220237000Y-75285939D01*
X220237000Y-75082061D01*
X220197226Y-74882102D01*
X220119205Y-74693744D01*
X220005937Y-74524226D01*
X219861774Y-74380063D01*
X219692256Y-74266795D01*
X219503898Y-74188774D01*
X219303939Y-74149000D01*
X219100061Y-74149000D01*
X218900102Y-74188774D01*
X218711744Y-74266795D01*
X218542226Y-74380063D01*
X218398063Y-74524226D01*
X218284795Y-74693744D01*
X218206774Y-74882102D01*
X218167000Y-75082061D01*
X208595975Y-75082061D01*
X208516256Y-75028795D01*
X208327898Y-74950774D01*
X208127939Y-74911000D01*
X207924061Y-74911000D01*
X207724102Y-74950774D01*
X207535744Y-75028795D01*
X207366226Y-75142063D01*
X207222063Y-75286226D01*
X207108795Y-75455744D01*
X207030774Y-75644102D01*
X206991000Y-75844061D01*
X188926051Y-75844061D01*
X188967137Y-75802975D01*
X189080405Y-75633457D01*
X189158426Y-75445099D01*
X189198200Y-75245140D01*
X189198200Y-75041262D01*
X189158426Y-74841303D01*
X189080405Y-74652945D01*
X188967137Y-74483427D01*
X188822974Y-74339264D01*
X188653456Y-74225996D01*
X188465098Y-74147975D01*
X188265139Y-74108201D01*
X188061261Y-74108201D01*
X187861302Y-74147975D01*
X187672944Y-74225996D01*
X187503426Y-74339264D01*
X187359263Y-74483427D01*
X187245995Y-74652945D01*
X187167974Y-74841303D01*
X187128200Y-75041262D01*
X174928756Y-75041262D01*
X174762240Y-74930000D01*
X174936632Y-74813475D01*
X175143475Y-74606632D01*
X175305990Y-74363411D01*
X175417932Y-74093158D01*
X175475000Y-73806260D01*
X175475000Y-73513740D01*
X175417932Y-73226842D01*
X175305990Y-72956589D01*
X175143475Y-72713368D01*
X174936632Y-72506525D01*
X174762240Y-72390000D01*
X174936632Y-72273475D01*
X175143475Y-72066632D01*
X175305990Y-71823411D01*
X175417932Y-71553158D01*
X175475000Y-71266260D01*
X175475000Y-70973740D01*
X175417932Y-70686842D01*
X175344708Y-70510061D01*
X176765000Y-70510061D01*
X176765000Y-70713939D01*
X176804774Y-70913898D01*
X176882795Y-71102256D01*
X176996063Y-71271774D01*
X177140226Y-71415937D01*
X177309744Y-71529205D01*
X177498102Y-71607226D01*
X177698061Y-71647000D01*
X177901939Y-71647000D01*
X178101898Y-71607226D01*
X178290256Y-71529205D01*
X178459774Y-71415937D01*
X178603937Y-71271774D01*
X178717205Y-71102256D01*
X178783643Y-70941861D01*
X180371800Y-70941861D01*
X180371800Y-71145739D01*
X180411574Y-71345698D01*
X180489595Y-71534056D01*
X180602863Y-71703574D01*
X180747026Y-71847737D01*
X180788104Y-71875185D01*
X180729863Y-71933426D01*
X180616595Y-72102944D01*
X180538574Y-72291302D01*
X180498800Y-72491261D01*
X180498800Y-72695139D01*
X180538574Y-72895098D01*
X180615949Y-73081897D01*
X180591195Y-73118944D01*
X180513174Y-73307302D01*
X180473400Y-73507261D01*
X180473400Y-73711139D01*
X180513174Y-73911098D01*
X180591195Y-74099456D01*
X180704463Y-74268974D01*
X180848626Y-74413137D01*
X181018144Y-74526405D01*
X181206502Y-74604426D01*
X181406461Y-74644200D01*
X181610339Y-74644200D01*
X181810298Y-74604426D01*
X181998656Y-74526405D01*
X182168174Y-74413137D01*
X182312337Y-74268974D01*
X182425605Y-74099456D01*
X182503626Y-73911098D01*
X182543400Y-73711139D01*
X182543400Y-73507261D01*
X182510381Y-73341261D01*
X185934400Y-73341261D01*
X185934400Y-73545139D01*
X185974174Y-73745098D01*
X186052195Y-73933456D01*
X186165463Y-74102974D01*
X186309626Y-74247137D01*
X186479144Y-74360405D01*
X186667502Y-74438426D01*
X186867461Y-74478200D01*
X187071339Y-74478200D01*
X187271298Y-74438426D01*
X187459656Y-74360405D01*
X187629174Y-74247137D01*
X187773337Y-74102974D01*
X187886605Y-73933456D01*
X187964626Y-73745098D01*
X188004400Y-73545139D01*
X188004400Y-73341261D01*
X187964626Y-73141302D01*
X187886605Y-72952944D01*
X187773337Y-72783426D01*
X187629174Y-72639263D01*
X187459656Y-72525995D01*
X187271298Y-72447974D01*
X187071339Y-72408200D01*
X186867461Y-72408200D01*
X186667502Y-72447974D01*
X186479144Y-72525995D01*
X186309626Y-72639263D01*
X186165463Y-72783426D01*
X186052195Y-72952944D01*
X185974174Y-73141302D01*
X185934400Y-73341261D01*
X182510381Y-73341261D01*
X182503626Y-73307302D01*
X182426251Y-73120503D01*
X182451005Y-73083456D01*
X182529026Y-72895098D01*
X182568800Y-72695139D01*
X182568800Y-72491261D01*
X182529026Y-72291302D01*
X182451005Y-72102944D01*
X182337737Y-71933426D01*
X182193574Y-71789263D01*
X182152496Y-71761815D01*
X182210737Y-71703574D01*
X182312772Y-71550868D01*
X182380863Y-71652774D01*
X182525026Y-71796937D01*
X182694544Y-71910205D01*
X182882902Y-71988226D01*
X183082861Y-72028000D01*
X183286739Y-72028000D01*
X183486698Y-71988226D01*
X183675056Y-71910205D01*
X183844574Y-71796937D01*
X183988737Y-71652774D01*
X184102005Y-71483256D01*
X184180026Y-71294898D01*
X184196442Y-71212367D01*
X185660125Y-71212367D01*
X185660125Y-71416245D01*
X185699899Y-71616204D01*
X185777920Y-71804562D01*
X185891188Y-71974080D01*
X186035351Y-72118243D01*
X186204869Y-72231511D01*
X186393227Y-72309532D01*
X186593186Y-72349306D01*
X186797064Y-72349306D01*
X186997023Y-72309532D01*
X187185381Y-72231511D01*
X187354899Y-72118243D01*
X187499062Y-71974080D01*
X187612330Y-71804562D01*
X187690351Y-71616204D01*
X187730125Y-71416245D01*
X187730125Y-71212367D01*
X187690351Y-71012408D01*
X187612330Y-70824050D01*
X187499062Y-70654532D01*
X187354899Y-70510369D01*
X187185381Y-70397101D01*
X186997023Y-70319080D01*
X186797064Y-70279306D01*
X186593186Y-70279306D01*
X186393227Y-70319080D01*
X186204869Y-70397101D01*
X186035351Y-70510369D01*
X185891188Y-70654532D01*
X185777920Y-70824050D01*
X185699899Y-71012408D01*
X185660125Y-71212367D01*
X184196442Y-71212367D01*
X184219800Y-71094939D01*
X184219800Y-70891061D01*
X184180026Y-70691102D01*
X184102005Y-70502744D01*
X183988737Y-70333226D01*
X183844574Y-70189063D01*
X183675056Y-70075795D01*
X183486698Y-69997774D01*
X183286739Y-69958000D01*
X183082861Y-69958000D01*
X182882902Y-69997774D01*
X182694544Y-70075795D01*
X182525026Y-70189063D01*
X182380863Y-70333226D01*
X182278828Y-70485932D01*
X182210737Y-70384026D01*
X182066574Y-70239863D01*
X181897056Y-70126595D01*
X181708698Y-70048574D01*
X181508739Y-70008800D01*
X181304861Y-70008800D01*
X181104902Y-70048574D01*
X180916544Y-70126595D01*
X180747026Y-70239863D01*
X180602863Y-70384026D01*
X180489595Y-70553544D01*
X180411574Y-70741902D01*
X180371800Y-70941861D01*
X178783643Y-70941861D01*
X178795226Y-70913898D01*
X178835000Y-70713939D01*
X178835000Y-70510061D01*
X178795226Y-70310102D01*
X178717205Y-70121744D01*
X178603937Y-69952226D01*
X178459774Y-69808063D01*
X178290256Y-69694795D01*
X178101898Y-69616774D01*
X177901939Y-69577000D01*
X177698061Y-69577000D01*
X177498102Y-69616774D01*
X177309744Y-69694795D01*
X177140226Y-69808063D01*
X176996063Y-69952226D01*
X176882795Y-70121744D01*
X176804774Y-70310102D01*
X176765000Y-70510061D01*
X175344708Y-70510061D01*
X175305990Y-70416589D01*
X175143475Y-70173368D01*
X175011620Y-70041513D01*
X175084180Y-70019502D01*
X175194494Y-69960537D01*
X175291185Y-69881185D01*
X175370537Y-69784494D01*
X175429502Y-69674180D01*
X175465812Y-69554482D01*
X175478072Y-69430000D01*
X175478072Y-68478061D01*
X198355000Y-68478061D01*
X198355000Y-68681939D01*
X198394774Y-68881898D01*
X198472795Y-69070256D01*
X198586063Y-69239774D01*
X198730226Y-69383937D01*
X198899744Y-69497205D01*
X199088102Y-69575226D01*
X199288061Y-69615000D01*
X199491939Y-69615000D01*
X199691898Y-69575226D01*
X199880256Y-69497205D01*
X200049774Y-69383937D01*
X200193937Y-69239774D01*
X200307205Y-69070256D01*
X200385226Y-68881898D01*
X200425000Y-68681939D01*
X200425000Y-68478061D01*
X200385226Y-68278102D01*
X200307205Y-68089744D01*
X200193937Y-67920226D01*
X200049774Y-67776063D01*
X199880256Y-67662795D01*
X199691898Y-67584774D01*
X199491939Y-67545000D01*
X199288061Y-67545000D01*
X199088102Y-67584774D01*
X198899744Y-67662795D01*
X198730226Y-67776063D01*
X198586063Y-67920226D01*
X198472795Y-68089744D01*
X198394774Y-68278102D01*
X198355000Y-68478061D01*
X175478072Y-68478061D01*
X175478072Y-67730000D01*
X175465812Y-67605518D01*
X175429502Y-67485820D01*
X175370537Y-67375506D01*
X175291185Y-67278815D01*
X175194494Y-67199463D01*
X175084180Y-67140498D01*
X174964482Y-67104188D01*
X174840000Y-67091928D01*
X173140000Y-67091928D01*
X173015518Y-67104188D01*
X172895820Y-67140498D01*
X172785506Y-67199463D01*
X172688815Y-67278815D01*
X172609463Y-67375506D01*
X172550498Y-67485820D01*
X172514188Y-67605518D01*
X172501928Y-67730000D01*
X172212000Y-67730000D01*
X172212000Y-66522261D01*
X200564800Y-66522261D01*
X200564800Y-66726139D01*
X200604574Y-66926098D01*
X200682595Y-67114456D01*
X200795863Y-67283974D01*
X200940026Y-67428137D01*
X201109544Y-67541405D01*
X201297902Y-67619426D01*
X201497861Y-67659200D01*
X201701739Y-67659200D01*
X201901698Y-67619426D01*
X202090056Y-67541405D01*
X202259574Y-67428137D01*
X202403737Y-67283974D01*
X202517005Y-67114456D01*
X202595026Y-66926098D01*
X202634800Y-66726139D01*
X202634800Y-66522261D01*
X202595026Y-66322302D01*
X202517005Y-66133944D01*
X202403737Y-65964426D01*
X202388051Y-65948740D01*
X208065000Y-65948740D01*
X208065000Y-66241260D01*
X208122068Y-66528158D01*
X208234010Y-66798411D01*
X208396525Y-67041632D01*
X208603368Y-67248475D01*
X208846589Y-67410990D01*
X209116842Y-67522932D01*
X209403740Y-67580000D01*
X209696260Y-67580000D01*
X209983158Y-67522932D01*
X210253411Y-67410990D01*
X210496632Y-67248475D01*
X210703475Y-67041632D01*
X210865990Y-66798411D01*
X210977932Y-66528158D01*
X211035000Y-66241260D01*
X211035000Y-65948740D01*
X219495000Y-65948740D01*
X219495000Y-66241260D01*
X219552068Y-66528158D01*
X219664010Y-66798411D01*
X219826525Y-67041632D01*
X220033368Y-67248475D01*
X220276589Y-67410990D01*
X220546842Y-67522932D01*
X220833740Y-67580000D01*
X221126260Y-67580000D01*
X221413158Y-67522932D01*
X221683411Y-67410990D01*
X221926632Y-67248475D01*
X222133475Y-67041632D01*
X222295990Y-66798411D01*
X222407932Y-66528158D01*
X222465000Y-66241260D01*
X222465000Y-65948740D01*
X230925000Y-65948740D01*
X230925000Y-66241260D01*
X230982068Y-66528158D01*
X231094010Y-66798411D01*
X231256525Y-67041632D01*
X231463368Y-67248475D01*
X231706589Y-67410990D01*
X231976842Y-67522932D01*
X232263740Y-67580000D01*
X232556260Y-67580000D01*
X232843158Y-67522932D01*
X233113411Y-67410990D01*
X233356632Y-67248475D01*
X233563475Y-67041632D01*
X233725990Y-66798411D01*
X233837932Y-66528158D01*
X233895000Y-66241260D01*
X233895000Y-65948740D01*
X242355000Y-65948740D01*
X242355000Y-66241260D01*
X242412068Y-66528158D01*
X242524010Y-66798411D01*
X242686525Y-67041632D01*
X242893368Y-67248475D01*
X243136589Y-67410990D01*
X243406842Y-67522932D01*
X243693740Y-67580000D01*
X243986260Y-67580000D01*
X244273158Y-67522932D01*
X244543411Y-67410990D01*
X244786632Y-67248475D01*
X244993475Y-67041632D01*
X245155990Y-66798411D01*
X245267932Y-66528158D01*
X245325000Y-66241260D01*
X245325000Y-65948740D01*
X245267932Y-65661842D01*
X245155990Y-65391589D01*
X244993475Y-65148368D01*
X244786632Y-64941525D01*
X244543411Y-64779010D01*
X244273158Y-64667068D01*
X243986260Y-64610000D01*
X243693740Y-64610000D01*
X243406842Y-64667068D01*
X243136589Y-64779010D01*
X242893368Y-64941525D01*
X242686525Y-65148368D01*
X242524010Y-65391589D01*
X242412068Y-65661842D01*
X242355000Y-65948740D01*
X233895000Y-65948740D01*
X233837932Y-65661842D01*
X233725990Y-65391589D01*
X233563475Y-65148368D01*
X233356632Y-64941525D01*
X233113411Y-64779010D01*
X232843158Y-64667068D01*
X232556260Y-64610000D01*
X232263740Y-64610000D01*
X231976842Y-64667068D01*
X231706589Y-64779010D01*
X231463368Y-64941525D01*
X231256525Y-65148368D01*
X231094010Y-65391589D01*
X230982068Y-65661842D01*
X230925000Y-65948740D01*
X222465000Y-65948740D01*
X222407932Y-65661842D01*
X222295990Y-65391589D01*
X222133475Y-65148368D01*
X221926632Y-64941525D01*
X221683411Y-64779010D01*
X221413158Y-64667068D01*
X221126260Y-64610000D01*
X220833740Y-64610000D01*
X220546842Y-64667068D01*
X220276589Y-64779010D01*
X220033368Y-64941525D01*
X219826525Y-65148368D01*
X219664010Y-65391589D01*
X219552068Y-65661842D01*
X219495000Y-65948740D01*
X211035000Y-65948740D01*
X210977932Y-65661842D01*
X210865990Y-65391589D01*
X210703475Y-65148368D01*
X210496632Y-64941525D01*
X210253411Y-64779010D01*
X209983158Y-64667068D01*
X209696260Y-64610000D01*
X209403740Y-64610000D01*
X209116842Y-64667068D01*
X208846589Y-64779010D01*
X208603368Y-64941525D01*
X208396525Y-65148368D01*
X208234010Y-65391589D01*
X208122068Y-65661842D01*
X208065000Y-65948740D01*
X202388051Y-65948740D01*
X202259574Y-65820263D01*
X202090056Y-65706995D01*
X201901698Y-65628974D01*
X201701739Y-65589200D01*
X201497861Y-65589200D01*
X201297902Y-65628974D01*
X201109544Y-65706995D01*
X200940026Y-65820263D01*
X200795863Y-65964426D01*
X200682595Y-66133944D01*
X200604574Y-66322302D01*
X200564800Y-66522261D01*
X172212000Y-66522261D01*
X172212000Y-64845861D01*
X180575000Y-64845861D01*
X180575000Y-65049739D01*
X180614774Y-65249698D01*
X180692795Y-65438056D01*
X180806063Y-65607574D01*
X180950226Y-65751737D01*
X181119744Y-65865005D01*
X181308102Y-65943026D01*
X181508061Y-65982800D01*
X181711939Y-65982800D01*
X181911898Y-65943026D01*
X182100256Y-65865005D01*
X182269774Y-65751737D01*
X182413937Y-65607574D01*
X182527205Y-65438056D01*
X182583122Y-65303061D01*
X186290000Y-65303061D01*
X186290000Y-65506939D01*
X186329774Y-65706898D01*
X186407795Y-65895256D01*
X186521063Y-66064774D01*
X186665226Y-66208937D01*
X186834744Y-66322205D01*
X187023102Y-66400226D01*
X187223061Y-66440000D01*
X187426939Y-66440000D01*
X187626898Y-66400226D01*
X187815256Y-66322205D01*
X187984774Y-66208937D01*
X188128937Y-66064774D01*
X188242205Y-65895256D01*
X188320226Y-65706898D01*
X188360000Y-65506939D01*
X188360000Y-65303061D01*
X188320226Y-65103102D01*
X188242205Y-64914744D01*
X188128937Y-64745226D01*
X187984774Y-64601063D01*
X187815256Y-64487795D01*
X187626898Y-64409774D01*
X187426939Y-64370000D01*
X187223061Y-64370000D01*
X187023102Y-64409774D01*
X186834744Y-64487795D01*
X186665226Y-64601063D01*
X186521063Y-64745226D01*
X186407795Y-64914744D01*
X186329774Y-65103102D01*
X186290000Y-65303061D01*
X182583122Y-65303061D01*
X182605226Y-65249698D01*
X182645000Y-65049739D01*
X182645000Y-64845861D01*
X182605226Y-64645902D01*
X182527205Y-64457544D01*
X182413937Y-64288026D01*
X182269774Y-64143863D01*
X182100256Y-64030595D01*
X181911898Y-63952574D01*
X181711939Y-63912800D01*
X181508061Y-63912800D01*
X181308102Y-63952574D01*
X181119744Y-64030595D01*
X180950226Y-64143863D01*
X180806063Y-64288026D01*
X180692795Y-64457544D01*
X180614774Y-64645902D01*
X180575000Y-64845861D01*
X172212000Y-64845861D01*
X172212000Y-63567680D01*
X195049508Y-63567680D01*
X195061768Y-63692162D01*
X195098078Y-63811860D01*
X195157043Y-63922174D01*
X195236395Y-64018865D01*
X195333086Y-64098217D01*
X195443400Y-64157182D01*
X195563098Y-64193492D01*
X195687580Y-64205752D01*
X196251830Y-64202680D01*
X196410580Y-64043930D01*
X196410580Y-62844680D01*
X195211330Y-62844680D01*
X195052580Y-63003430D01*
X195049508Y-63567680D01*
X172212000Y-63567680D01*
X172212000Y-61867680D01*
X195049508Y-61867680D01*
X195052580Y-62431930D01*
X195211330Y-62590680D01*
X196410580Y-62590680D01*
X196410580Y-61391430D01*
X196664580Y-61391430D01*
X196664580Y-62590680D01*
X196684580Y-62590680D01*
X196684580Y-62844680D01*
X196664580Y-62844680D01*
X196664580Y-64043930D01*
X196823330Y-64202680D01*
X197387580Y-64205752D01*
X197512062Y-64193492D01*
X197631760Y-64157182D01*
X197742074Y-64098217D01*
X197838765Y-64018865D01*
X197918117Y-63922174D01*
X197977082Y-63811860D01*
X197999093Y-63739300D01*
X198130948Y-63871155D01*
X198374169Y-64033670D01*
X198644422Y-64145612D01*
X198931320Y-64202680D01*
X199223840Y-64202680D01*
X199510738Y-64145612D01*
X199780991Y-64033670D01*
X200024212Y-63871155D01*
X200231055Y-63664312D01*
X200347580Y-63489920D01*
X200464105Y-63664312D01*
X200670948Y-63871155D01*
X200914169Y-64033670D01*
X201184422Y-64145612D01*
X201471320Y-64202680D01*
X201763840Y-64202680D01*
X202050738Y-64145612D01*
X202320991Y-64033670D01*
X202564212Y-63871155D01*
X202771055Y-63664312D01*
X202933570Y-63421091D01*
X203045512Y-63150838D01*
X203102580Y-62863940D01*
X203102580Y-62571420D01*
X203045512Y-62284522D01*
X202933570Y-62014269D01*
X202771055Y-61771048D01*
X202564212Y-61564205D01*
X202320991Y-61401690D01*
X202050738Y-61289748D01*
X201763840Y-61232680D01*
X201471320Y-61232680D01*
X201184422Y-61289748D01*
X200914169Y-61401690D01*
X200670948Y-61564205D01*
X200464105Y-61771048D01*
X200347580Y-61945440D01*
X200231055Y-61771048D01*
X200024212Y-61564205D01*
X199780991Y-61401690D01*
X199725206Y-61378583D01*
X199790023Y-61222101D01*
X199829797Y-61022142D01*
X199829797Y-60818264D01*
X199790023Y-60618305D01*
X199712002Y-60429947D01*
X199598734Y-60260429D01*
X199454571Y-60116266D01*
X199285053Y-60002998D01*
X199096695Y-59924977D01*
X198896736Y-59885203D01*
X198692858Y-59885203D01*
X198492899Y-59924977D01*
X198304541Y-60002998D01*
X198135023Y-60116266D01*
X197990860Y-60260429D01*
X197877592Y-60429947D01*
X197799571Y-60618305D01*
X197759797Y-60818264D01*
X197759797Y-61022142D01*
X197799571Y-61222101D01*
X197877592Y-61410459D01*
X197990860Y-61579977D01*
X198053018Y-61642135D01*
X197999093Y-61696060D01*
X197977082Y-61623500D01*
X197918117Y-61513186D01*
X197838765Y-61416495D01*
X197742074Y-61337143D01*
X197631760Y-61278178D01*
X197512062Y-61241868D01*
X197387580Y-61229608D01*
X196823330Y-61232680D01*
X196664580Y-61391430D01*
X196410580Y-61391430D01*
X196251830Y-61232680D01*
X195687580Y-61229608D01*
X195563098Y-61241868D01*
X195443400Y-61278178D01*
X195333086Y-61337143D01*
X195236395Y-61416495D01*
X195157043Y-61513186D01*
X195098078Y-61623500D01*
X195061768Y-61743198D01*
X195049508Y-61867680D01*
X172212000Y-61867680D01*
X172212000Y-58948740D01*
X208065000Y-58948740D01*
X208065000Y-59241260D01*
X208122068Y-59528158D01*
X208234010Y-59798411D01*
X208396525Y-60041632D01*
X208603368Y-60248475D01*
X208846589Y-60410990D01*
X209116842Y-60522932D01*
X209403740Y-60580000D01*
X209696260Y-60580000D01*
X209983158Y-60522932D01*
X210253411Y-60410990D01*
X210496632Y-60248475D01*
X210703475Y-60041632D01*
X210865990Y-59798411D01*
X210977932Y-59528158D01*
X211035000Y-59241260D01*
X211035000Y-58948740D01*
X219495000Y-58948740D01*
X219495000Y-59241260D01*
X219552068Y-59528158D01*
X219664010Y-59798411D01*
X219826525Y-60041632D01*
X220033368Y-60248475D01*
X220276589Y-60410990D01*
X220546842Y-60522932D01*
X220833740Y-60580000D01*
X221126260Y-60580000D01*
X221413158Y-60522932D01*
X221683411Y-60410990D01*
X221926632Y-60248475D01*
X222133475Y-60041632D01*
X222295990Y-59798411D01*
X222407932Y-59528158D01*
X222465000Y-59241260D01*
X222465000Y-58948740D01*
X230925000Y-58948740D01*
X230925000Y-59241260D01*
X230982068Y-59528158D01*
X231094010Y-59798411D01*
X231256525Y-60041632D01*
X231463368Y-60248475D01*
X231706589Y-60410990D01*
X231976842Y-60522932D01*
X232263740Y-60580000D01*
X232556260Y-60580000D01*
X232843158Y-60522932D01*
X233113411Y-60410990D01*
X233356632Y-60248475D01*
X233563475Y-60041632D01*
X233725990Y-59798411D01*
X233837932Y-59528158D01*
X233895000Y-59241260D01*
X233895000Y-58948740D01*
X242355000Y-58948740D01*
X242355000Y-59241260D01*
X242412068Y-59528158D01*
X242524010Y-59798411D01*
X242686525Y-60041632D01*
X242893368Y-60248475D01*
X243136589Y-60410990D01*
X243406842Y-60522932D01*
X243693740Y-60580000D01*
X243986260Y-60580000D01*
X244273158Y-60522932D01*
X244543411Y-60410990D01*
X244786632Y-60248475D01*
X244993475Y-60041632D01*
X245155990Y-59798411D01*
X245267932Y-59528158D01*
X245325000Y-59241260D01*
X245325000Y-58948740D01*
X245267932Y-58661842D01*
X245155990Y-58391589D01*
X244993475Y-58148368D01*
X244786632Y-57941525D01*
X244543411Y-57779010D01*
X244273158Y-57667068D01*
X243986260Y-57610000D01*
X243693740Y-57610000D01*
X243406842Y-57667068D01*
X243136589Y-57779010D01*
X242893368Y-57941525D01*
X242686525Y-58148368D01*
X242524010Y-58391589D01*
X242412068Y-58661842D01*
X242355000Y-58948740D01*
X233895000Y-58948740D01*
X233837932Y-58661842D01*
X233725990Y-58391589D01*
X233563475Y-58148368D01*
X233356632Y-57941525D01*
X233113411Y-57779010D01*
X232843158Y-57667068D01*
X232556260Y-57610000D01*
X232263740Y-57610000D01*
X231976842Y-57667068D01*
X231706589Y-57779010D01*
X231463368Y-57941525D01*
X231256525Y-58148368D01*
X231094010Y-58391589D01*
X230982068Y-58661842D01*
X230925000Y-58948740D01*
X222465000Y-58948740D01*
X222407932Y-58661842D01*
X222295990Y-58391589D01*
X222133475Y-58148368D01*
X221926632Y-57941525D01*
X221683411Y-57779010D01*
X221413158Y-57667068D01*
X221126260Y-57610000D01*
X220833740Y-57610000D01*
X220546842Y-57667068D01*
X220276589Y-57779010D01*
X220033368Y-57941525D01*
X219826525Y-58148368D01*
X219664010Y-58391589D01*
X219552068Y-58661842D01*
X219495000Y-58948740D01*
X211035000Y-58948740D01*
X210977932Y-58661842D01*
X210865990Y-58391589D01*
X210703475Y-58148368D01*
X210496632Y-57941525D01*
X210253411Y-57779010D01*
X209983158Y-57667068D01*
X209696260Y-57610000D01*
X209403740Y-57610000D01*
X209116842Y-57667068D01*
X208846589Y-57779010D01*
X208603368Y-57941525D01*
X208396525Y-58148368D01*
X208234010Y-58391589D01*
X208122068Y-58661842D01*
X208065000Y-58948740D01*
X172212000Y-58948740D01*
X172212000Y-53760000D01*
X182026928Y-53760000D01*
X182026928Y-55460000D01*
X182039188Y-55584482D01*
X182075498Y-55704180D01*
X182134463Y-55814494D01*
X182213815Y-55911185D01*
X182310506Y-55990537D01*
X182420820Y-56049502D01*
X182540518Y-56085812D01*
X182665000Y-56098072D01*
X184365000Y-56098072D01*
X184489482Y-56085812D01*
X184609180Y-56049502D01*
X184719494Y-55990537D01*
X184816185Y-55911185D01*
X184895537Y-55814494D01*
X184954502Y-55704180D01*
X184976513Y-55631620D01*
X185108368Y-55763475D01*
X185351589Y-55925990D01*
X185621842Y-56037932D01*
X185908740Y-56095000D01*
X186201260Y-56095000D01*
X186488158Y-56037932D01*
X186758411Y-55925990D01*
X187001632Y-55763475D01*
X187208475Y-55556632D01*
X187330195Y-55374466D01*
X187399822Y-55491355D01*
X187594731Y-55707588D01*
X187828080Y-55881641D01*
X188090901Y-56006825D01*
X188238110Y-56051476D01*
X188468000Y-55930155D01*
X188468000Y-54737000D01*
X188448000Y-54737000D01*
X188448000Y-54483000D01*
X188468000Y-54483000D01*
X188468000Y-53289845D01*
X188722000Y-53289845D01*
X188722000Y-54483000D01*
X188742000Y-54483000D01*
X188742000Y-54737000D01*
X188722000Y-54737000D01*
X188722000Y-55930155D01*
X188951890Y-56051476D01*
X189099099Y-56006825D01*
X189361920Y-55881641D01*
X189595269Y-55707588D01*
X189790178Y-55491355D01*
X189859805Y-55374466D01*
X189981525Y-55556632D01*
X190188368Y-55763475D01*
X190431589Y-55925990D01*
X190701842Y-56037932D01*
X190988740Y-56095000D01*
X191281260Y-56095000D01*
X191568158Y-56037932D01*
X191838411Y-55925990D01*
X192081632Y-55763475D01*
X192288475Y-55556632D01*
X192405000Y-55382240D01*
X192521525Y-55556632D01*
X192728368Y-55763475D01*
X192971589Y-55925990D01*
X193241842Y-56037932D01*
X193528740Y-56095000D01*
X193821260Y-56095000D01*
X194108158Y-56037932D01*
X194378411Y-55925990D01*
X194621632Y-55763475D01*
X194828475Y-55556632D01*
X194945000Y-55382240D01*
X195061525Y-55556632D01*
X195268368Y-55763475D01*
X195511589Y-55925990D01*
X195781842Y-56037932D01*
X196068740Y-56095000D01*
X196361260Y-56095000D01*
X196648158Y-56037932D01*
X196918411Y-55925990D01*
X197161632Y-55763475D01*
X197368475Y-55556632D01*
X197485000Y-55382240D01*
X197601525Y-55556632D01*
X197808368Y-55763475D01*
X198051589Y-55925990D01*
X198321842Y-56037932D01*
X198608740Y-56095000D01*
X198901260Y-56095000D01*
X199188158Y-56037932D01*
X199458411Y-55925990D01*
X199701632Y-55763475D01*
X199908475Y-55556632D01*
X200025000Y-55382240D01*
X200141525Y-55556632D01*
X200348368Y-55763475D01*
X200591589Y-55925990D01*
X200861842Y-56037932D01*
X201148740Y-56095000D01*
X201441260Y-56095000D01*
X201728158Y-56037932D01*
X201998411Y-55925990D01*
X202241632Y-55763475D01*
X202448475Y-55556632D01*
X202610990Y-55313411D01*
X202628946Y-55270061D01*
X203689000Y-55270061D01*
X203689000Y-55473939D01*
X203728774Y-55673898D01*
X203806795Y-55862256D01*
X203920063Y-56031774D01*
X204064226Y-56175937D01*
X204233744Y-56289205D01*
X204422102Y-56367226D01*
X204622061Y-56407000D01*
X204825939Y-56407000D01*
X205025898Y-56367226D01*
X205214256Y-56289205D01*
X205383774Y-56175937D01*
X205527937Y-56031774D01*
X205641205Y-55862256D01*
X205719226Y-55673898D01*
X205749030Y-55524061D01*
X215373000Y-55524061D01*
X215373000Y-55727939D01*
X215412774Y-55927898D01*
X215490795Y-56116256D01*
X215604063Y-56285774D01*
X215748226Y-56429937D01*
X215917744Y-56543205D01*
X216106102Y-56621226D01*
X216306061Y-56661000D01*
X216509939Y-56661000D01*
X216709898Y-56621226D01*
X216898256Y-56543205D01*
X217067774Y-56429937D01*
X217211937Y-56285774D01*
X217325205Y-56116256D01*
X217403226Y-55927898D01*
X217443000Y-55727939D01*
X217443000Y-55524061D01*
X217403226Y-55324102D01*
X217380842Y-55270061D01*
X226041000Y-55270061D01*
X226041000Y-55473939D01*
X226080774Y-55673898D01*
X226158795Y-55862256D01*
X226272063Y-56031774D01*
X226416226Y-56175937D01*
X226585744Y-56289205D01*
X226774102Y-56367226D01*
X226974061Y-56407000D01*
X227177939Y-56407000D01*
X227377898Y-56367226D01*
X227566256Y-56289205D01*
X227735774Y-56175937D01*
X227879937Y-56031774D01*
X227993205Y-55862256D01*
X228071226Y-55673898D01*
X228111000Y-55473939D01*
X228111000Y-55270061D01*
X237979000Y-55270061D01*
X237979000Y-55473939D01*
X238018774Y-55673898D01*
X238096795Y-55862256D01*
X238210063Y-56031774D01*
X238354226Y-56175937D01*
X238523744Y-56289205D01*
X238712102Y-56367226D01*
X238912061Y-56407000D01*
X239115939Y-56407000D01*
X239315898Y-56367226D01*
X239504256Y-56289205D01*
X239673774Y-56175937D01*
X239817937Y-56031774D01*
X239931205Y-55862256D01*
X240009226Y-55673898D01*
X240049000Y-55473939D01*
X240049000Y-55270061D01*
X240009226Y-55070102D01*
X239931205Y-54881744D01*
X239817937Y-54712226D01*
X239673774Y-54568063D01*
X239504256Y-54454795D01*
X239315898Y-54376774D01*
X239115939Y-54337000D01*
X238912061Y-54337000D01*
X238712102Y-54376774D01*
X238523744Y-54454795D01*
X238354226Y-54568063D01*
X238210063Y-54712226D01*
X238096795Y-54881744D01*
X238018774Y-55070102D01*
X237979000Y-55270061D01*
X228111000Y-55270061D01*
X228071226Y-55070102D01*
X227993205Y-54881744D01*
X227879937Y-54712226D01*
X227735774Y-54568063D01*
X227566256Y-54454795D01*
X227377898Y-54376774D01*
X227177939Y-54337000D01*
X226974061Y-54337000D01*
X226774102Y-54376774D01*
X226585744Y-54454795D01*
X226416226Y-54568063D01*
X226272063Y-54712226D01*
X226158795Y-54881744D01*
X226080774Y-55070102D01*
X226041000Y-55270061D01*
X217380842Y-55270061D01*
X217325205Y-55135744D01*
X217211937Y-54966226D01*
X217067774Y-54822063D01*
X216898256Y-54708795D01*
X216709898Y-54630774D01*
X216509939Y-54591000D01*
X216306061Y-54591000D01*
X216106102Y-54630774D01*
X215917744Y-54708795D01*
X215748226Y-54822063D01*
X215604063Y-54966226D01*
X215490795Y-55135744D01*
X215412774Y-55324102D01*
X215373000Y-55524061D01*
X205749030Y-55524061D01*
X205759000Y-55473939D01*
X205759000Y-55270061D01*
X205719226Y-55070102D01*
X205641205Y-54881744D01*
X205527937Y-54712226D01*
X205383774Y-54568063D01*
X205214256Y-54454795D01*
X205025898Y-54376774D01*
X204825939Y-54337000D01*
X204622061Y-54337000D01*
X204422102Y-54376774D01*
X204233744Y-54454795D01*
X204064226Y-54568063D01*
X203920063Y-54712226D01*
X203806795Y-54881744D01*
X203728774Y-55070102D01*
X203689000Y-55270061D01*
X202628946Y-55270061D01*
X202722932Y-55043158D01*
X202780000Y-54756260D01*
X202780000Y-54463740D01*
X202722932Y-54176842D01*
X202610990Y-53906589D01*
X202448475Y-53663368D01*
X202241632Y-53456525D01*
X201998411Y-53294010D01*
X201728158Y-53182068D01*
X201441260Y-53125000D01*
X201148740Y-53125000D01*
X200861842Y-53182068D01*
X200591589Y-53294010D01*
X200348368Y-53456525D01*
X200141525Y-53663368D01*
X200025000Y-53837760D01*
X199908475Y-53663368D01*
X199701632Y-53456525D01*
X199513744Y-53330982D01*
X199621405Y-53169856D01*
X199699426Y-52981498D01*
X199739200Y-52781539D01*
X199739200Y-52577661D01*
X199699426Y-52377702D01*
X199621405Y-52189344D01*
X199508137Y-52019826D01*
X199363974Y-51875663D01*
X199194456Y-51762395D01*
X199006098Y-51684374D01*
X198806139Y-51644600D01*
X198602261Y-51644600D01*
X198402302Y-51684374D01*
X198213944Y-51762395D01*
X198044426Y-51875663D01*
X197900263Y-52019826D01*
X197786995Y-52189344D01*
X197708974Y-52377702D01*
X197669200Y-52577661D01*
X197669200Y-52781539D01*
X197708974Y-52981498D01*
X197786995Y-53169856D01*
X197900263Y-53339374D01*
X197933682Y-53372793D01*
X197808368Y-53456525D01*
X197601525Y-53663368D01*
X197485000Y-53837760D01*
X197368475Y-53663368D01*
X197161632Y-53456525D01*
X196918411Y-53294010D01*
X196648158Y-53182068D01*
X196361260Y-53125000D01*
X196068740Y-53125000D01*
X195781842Y-53182068D01*
X195511589Y-53294010D01*
X195268368Y-53456525D01*
X195061525Y-53663368D01*
X194945000Y-53837760D01*
X194828475Y-53663368D01*
X194621632Y-53456525D01*
X194378411Y-53294010D01*
X194108158Y-53182068D01*
X193821260Y-53125000D01*
X193528740Y-53125000D01*
X193241842Y-53182068D01*
X192971589Y-53294010D01*
X192728368Y-53456525D01*
X192521525Y-53663368D01*
X192405000Y-53837760D01*
X192288475Y-53663368D01*
X192081632Y-53456525D01*
X191838411Y-53294010D01*
X191568158Y-53182068D01*
X191281260Y-53125000D01*
X190988740Y-53125000D01*
X190701842Y-53182068D01*
X190431589Y-53294010D01*
X190188368Y-53456525D01*
X189981525Y-53663368D01*
X189859805Y-53845534D01*
X189790178Y-53728645D01*
X189595269Y-53512412D01*
X189361920Y-53338359D01*
X189099099Y-53213175D01*
X188951890Y-53168524D01*
X188722000Y-53289845D01*
X188468000Y-53289845D01*
X188238110Y-53168524D01*
X188090901Y-53213175D01*
X187828080Y-53338359D01*
X187594731Y-53512412D01*
X187399822Y-53728645D01*
X187330195Y-53845534D01*
X187208475Y-53663368D01*
X187001632Y-53456525D01*
X186758411Y-53294010D01*
X186488158Y-53182068D01*
X186201260Y-53125000D01*
X185908740Y-53125000D01*
X185621842Y-53182068D01*
X185351589Y-53294010D01*
X185108368Y-53456525D01*
X184976513Y-53588380D01*
X184954502Y-53515820D01*
X184895537Y-53405506D01*
X184816185Y-53308815D01*
X184719494Y-53229463D01*
X184609180Y-53170498D01*
X184489482Y-53134188D01*
X184365000Y-53121928D01*
X182665000Y-53121928D01*
X182540518Y-53134188D01*
X182420820Y-53170498D01*
X182310506Y-53229463D01*
X182213815Y-53308815D01*
X182134463Y-53405506D01*
X182075498Y-53515820D01*
X182039188Y-53635518D01*
X182026928Y-53760000D01*
X172212000Y-53760000D01*
X172212000Y-48387000D01*
X203175000Y-48387000D01*
X203175001Y-52037571D01*
G37*
X203175001Y-52037571D02*
X203171807Y-52070000D01*
X203184550Y-52199383D01*
X203222290Y-52323793D01*
X203283575Y-52438450D01*
X203366052Y-52538948D01*
X203466550Y-52621425D01*
X203581207Y-52682710D01*
X203705617Y-52720450D01*
X203802581Y-52730000D01*
X203835000Y-52733193D01*
X203867419Y-52730000D01*
X249522581Y-52730000D01*
X249555000Y-52733193D01*
X249587419Y-52730000D01*
X249684383Y-52720450D01*
X249808793Y-52682710D01*
X249923450Y-52621425D01*
X250023948Y-52538948D01*
X250106425Y-52438450D01*
X250167710Y-52323793D01*
X250205450Y-52199383D01*
X250218193Y-52070000D01*
X250215000Y-52037581D01*
X250215000Y-48387000D01*
X256413000Y-48387000D01*
X256413000Y-90043000D01*
X172212000Y-90043000D01*
X172212000Y-87697680D01*
X195049508Y-87697680D01*
X195061768Y-87822162D01*
X195098078Y-87941860D01*
X195157043Y-88052174D01*
X195236395Y-88148865D01*
X195333086Y-88228217D01*
X195443400Y-88287182D01*
X195563098Y-88323492D01*
X195687580Y-88335752D01*
X196251830Y-88332680D01*
X196410580Y-88173930D01*
X196410580Y-86974680D01*
X195211330Y-86974680D01*
X195052580Y-87133430D01*
X195049508Y-87697680D01*
X172212000Y-87697680D01*
X172212000Y-86258061D01*
X188195000Y-86258061D01*
X188195000Y-86461939D01*
X188234774Y-86661898D01*
X188312795Y-86850256D01*
X188426063Y-87019774D01*
X188570226Y-87163937D01*
X188739744Y-87277205D01*
X188928102Y-87355226D01*
X189128061Y-87395000D01*
X189331939Y-87395000D01*
X189531898Y-87355226D01*
X189720256Y-87277205D01*
X189889774Y-87163937D01*
X190033937Y-87019774D01*
X190147205Y-86850256D01*
X190225226Y-86661898D01*
X190265000Y-86461939D01*
X190265000Y-86258061D01*
X190225226Y-86058102D01*
X190200199Y-85997680D01*
X195049508Y-85997680D01*
X195052580Y-86561930D01*
X195211330Y-86720680D01*
X196410580Y-86720680D01*
X196410580Y-85521430D01*
X196664580Y-85521430D01*
X196664580Y-86720680D01*
X196684580Y-86720680D01*
X196684580Y-86974680D01*
X196664580Y-86974680D01*
X196664580Y-88173930D01*
X196823330Y-88332680D01*
X197387580Y-88335752D01*
X197512062Y-88323492D01*
X197631760Y-88287182D01*
X197742074Y-88228217D01*
X197838765Y-88148865D01*
X197918117Y-88052174D01*
X197977082Y-87941860D01*
X197999093Y-87869300D01*
X198130948Y-88001155D01*
X198251437Y-88081663D01*
X198167995Y-88206544D01*
X198089974Y-88394902D01*
X198050200Y-88594861D01*
X198050200Y-88798739D01*
X198089974Y-88998698D01*
X198167995Y-89187056D01*
X198281263Y-89356574D01*
X198425426Y-89500737D01*
X198594944Y-89614005D01*
X198783302Y-89692026D01*
X198983261Y-89731800D01*
X199187139Y-89731800D01*
X199387098Y-89692026D01*
X199575456Y-89614005D01*
X199744974Y-89500737D01*
X199889137Y-89356574D01*
X200002405Y-89187056D01*
X200080426Y-88998698D01*
X200120200Y-88798739D01*
X200120200Y-88594861D01*
X200080426Y-88394902D01*
X200002405Y-88206544D01*
X199914259Y-88074623D01*
X200024212Y-88001155D01*
X200231055Y-87794312D01*
X200347580Y-87619920D01*
X200464105Y-87794312D01*
X200670948Y-88001155D01*
X200914169Y-88163670D01*
X201184422Y-88275612D01*
X201471320Y-88332680D01*
X201763840Y-88332680D01*
X202050738Y-88275612D01*
X202320991Y-88163670D01*
X202564212Y-88001155D01*
X202771055Y-87794312D01*
X202933570Y-87551091D01*
X203045512Y-87280838D01*
X203102580Y-86993940D01*
X203102580Y-86701420D01*
X203045512Y-86414522D01*
X202933570Y-86144269D01*
X202771055Y-85901048D01*
X202564212Y-85694205D01*
X202320991Y-85531690D01*
X202234975Y-85496061D01*
X205975000Y-85496061D01*
X205975000Y-85699939D01*
X206014774Y-85899898D01*
X206092795Y-86088256D01*
X206206063Y-86257774D01*
X206350226Y-86401937D01*
X206519744Y-86515205D01*
X206708102Y-86593226D01*
X206908061Y-86633000D01*
X207111939Y-86633000D01*
X207311898Y-86593226D01*
X207500256Y-86515205D01*
X207669774Y-86401937D01*
X207813937Y-86257774D01*
X207927205Y-86088256D01*
X208005226Y-85899898D01*
X208045000Y-85699939D01*
X208045000Y-85496061D01*
X208005226Y-85296102D01*
X207927205Y-85107744D01*
X207813937Y-84938226D01*
X207669774Y-84794063D01*
X207500256Y-84680795D01*
X207311898Y-84602774D01*
X207111939Y-84563000D01*
X206908061Y-84563000D01*
X206708102Y-84602774D01*
X206519744Y-84680795D01*
X206350226Y-84794063D01*
X206206063Y-84938226D01*
X206092795Y-85107744D01*
X206014774Y-85296102D01*
X205975000Y-85496061D01*
X202234975Y-85496061D01*
X202050738Y-85419748D01*
X201763840Y-85362680D01*
X201471320Y-85362680D01*
X201184422Y-85419748D01*
X200914169Y-85531690D01*
X200670948Y-85694205D01*
X200464105Y-85901048D01*
X200347580Y-86075440D01*
X200231055Y-85901048D01*
X200024212Y-85694205D01*
X199780991Y-85531690D01*
X199510738Y-85419748D01*
X199223840Y-85362680D01*
X198931320Y-85362680D01*
X198644422Y-85419748D01*
X198374169Y-85531690D01*
X198130948Y-85694205D01*
X197999093Y-85826060D01*
X197977082Y-85753500D01*
X197918117Y-85643186D01*
X197838765Y-85546495D01*
X197742074Y-85467143D01*
X197631760Y-85408178D01*
X197512062Y-85371868D01*
X197387580Y-85359608D01*
X196823330Y-85362680D01*
X196664580Y-85521430D01*
X196410580Y-85521430D01*
X196251830Y-85362680D01*
X195687580Y-85359608D01*
X195563098Y-85371868D01*
X195443400Y-85408178D01*
X195333086Y-85467143D01*
X195236395Y-85546495D01*
X195157043Y-85643186D01*
X195098078Y-85753500D01*
X195061768Y-85873198D01*
X195049508Y-85997680D01*
X190200199Y-85997680D01*
X190147205Y-85869744D01*
X190033937Y-85700226D01*
X189889774Y-85556063D01*
X189720256Y-85442795D01*
X189531898Y-85364774D01*
X189331939Y-85325000D01*
X189128061Y-85325000D01*
X188928102Y-85364774D01*
X188739744Y-85442795D01*
X188570226Y-85556063D01*
X188426063Y-85700226D01*
X188312795Y-85869744D01*
X188234774Y-86058102D01*
X188195000Y-86258061D01*
X172212000Y-86258061D01*
X172212000Y-83972061D01*
X211055000Y-83972061D01*
X211055000Y-84175939D01*
X211094774Y-84375898D01*
X211172795Y-84564256D01*
X211286063Y-84733774D01*
X211430226Y-84877937D01*
X211599744Y-84991205D01*
X211704426Y-85034566D01*
X211684226Y-85048063D01*
X211540063Y-85192226D01*
X211426795Y-85361744D01*
X211348774Y-85550102D01*
X211309000Y-85750061D01*
X211309000Y-85953939D01*
X211348774Y-86153898D01*
X211426795Y-86342256D01*
X211540063Y-86511774D01*
X211684226Y-86655937D01*
X211853744Y-86769205D01*
X212042102Y-86847226D01*
X212242061Y-86887000D01*
X212445939Y-86887000D01*
X212645898Y-86847226D01*
X212834256Y-86769205D01*
X213003774Y-86655937D01*
X213147937Y-86511774D01*
X213261205Y-86342256D01*
X213339226Y-86153898D01*
X213379000Y-85953939D01*
X213379000Y-85750061D01*
X213339226Y-85550102D01*
X213261205Y-85361744D01*
X213147937Y-85192226D01*
X213003774Y-85048063D01*
X212834256Y-84934795D01*
X212729574Y-84891434D01*
X212749774Y-84877937D01*
X212893937Y-84733774D01*
X213007205Y-84564256D01*
X213085226Y-84375898D01*
X213125000Y-84175939D01*
X213125000Y-83972061D01*
X213085226Y-83772102D01*
X213007205Y-83583744D01*
X212893937Y-83414226D01*
X212749774Y-83270063D01*
X212580256Y-83156795D01*
X212402248Y-83083061D01*
X218040000Y-83083061D01*
X218040000Y-83286939D01*
X218079774Y-83486898D01*
X218157795Y-83675256D01*
X218271063Y-83844774D01*
X218415226Y-83988937D01*
X218584744Y-84102205D01*
X218773102Y-84180226D01*
X218973061Y-84220000D01*
X219176939Y-84220000D01*
X219376898Y-84180226D01*
X219565256Y-84102205D01*
X219734774Y-83988937D01*
X219751650Y-83972061D01*
X222485000Y-83972061D01*
X222485000Y-84175939D01*
X222524774Y-84375898D01*
X222602795Y-84564256D01*
X222716063Y-84733774D01*
X222860226Y-84877937D01*
X223029744Y-84991205D01*
X223218102Y-85069226D01*
X223225431Y-85070684D01*
X223190426Y-85094073D01*
X223046263Y-85238236D01*
X222932995Y-85407754D01*
X222854974Y-85596112D01*
X222815200Y-85796071D01*
X222815200Y-85999949D01*
X222854974Y-86199908D01*
X222932995Y-86388266D01*
X223046263Y-86557784D01*
X223190426Y-86701947D01*
X223359944Y-86815215D01*
X223548302Y-86893236D01*
X223748261Y-86933010D01*
X223952139Y-86933010D01*
X224152098Y-86893236D01*
X224340456Y-86815215D01*
X224509974Y-86701947D01*
X224654137Y-86557784D01*
X224767405Y-86388266D01*
X224845426Y-86199908D01*
X224885200Y-85999949D01*
X224885200Y-85796071D01*
X224845426Y-85596112D01*
X224803984Y-85496061D01*
X228835000Y-85496061D01*
X228835000Y-85699939D01*
X228874774Y-85899898D01*
X228952795Y-86088256D01*
X229066063Y-86257774D01*
X229210226Y-86401937D01*
X229379744Y-86515205D01*
X229568102Y-86593226D01*
X229768061Y-86633000D01*
X229971939Y-86633000D01*
X230171898Y-86593226D01*
X230360256Y-86515205D01*
X230529774Y-86401937D01*
X230673937Y-86257774D01*
X230787205Y-86088256D01*
X230865226Y-85899898D01*
X230885878Y-85796071D01*
X234245200Y-85796071D01*
X234245200Y-85999949D01*
X234284974Y-86199908D01*
X234362995Y-86388266D01*
X234476263Y-86557784D01*
X234620426Y-86701947D01*
X234789944Y-86815215D01*
X234978302Y-86893236D01*
X235178261Y-86933010D01*
X235382139Y-86933010D01*
X235582098Y-86893236D01*
X235770456Y-86815215D01*
X235939974Y-86701947D01*
X236084137Y-86557784D01*
X236197405Y-86388266D01*
X236275426Y-86199908D01*
X236315200Y-85999949D01*
X236315200Y-85796071D01*
X236275426Y-85596112D01*
X236233984Y-85496061D01*
X240519000Y-85496061D01*
X240519000Y-85699939D01*
X240558774Y-85899898D01*
X240636795Y-86088256D01*
X240750063Y-86257774D01*
X240894226Y-86401937D01*
X241063744Y-86515205D01*
X241252102Y-86593226D01*
X241452061Y-86633000D01*
X241655939Y-86633000D01*
X241855898Y-86593226D01*
X242044256Y-86515205D01*
X242213774Y-86401937D01*
X242357937Y-86257774D01*
X242471205Y-86088256D01*
X242549226Y-85899898D01*
X242589000Y-85699939D01*
X242589000Y-85496061D01*
X242549226Y-85296102D01*
X242471205Y-85107744D01*
X242404093Y-85007303D01*
X245135642Y-85007303D01*
X245135642Y-85211181D01*
X245175416Y-85411140D01*
X245253437Y-85599498D01*
X245366705Y-85769016D01*
X245510868Y-85913179D01*
X245680386Y-86026447D01*
X245868744Y-86104468D01*
X246068703Y-86144242D01*
X246272581Y-86144242D01*
X246472540Y-86104468D01*
X246660898Y-86026447D01*
X246830416Y-85913179D01*
X246974579Y-85769016D01*
X247087847Y-85599498D01*
X247165868Y-85411140D01*
X247205642Y-85211181D01*
X247205642Y-85007303D01*
X247165868Y-84807344D01*
X247149612Y-84768099D01*
X247183937Y-84733774D01*
X247297205Y-84564256D01*
X247375226Y-84375898D01*
X247415000Y-84175939D01*
X247415000Y-83972061D01*
X247375226Y-83772102D01*
X247297205Y-83583744D01*
X247183937Y-83414226D01*
X247039774Y-83270063D01*
X246870256Y-83156795D01*
X246681898Y-83078774D01*
X246481939Y-83039000D01*
X246278061Y-83039000D01*
X246078102Y-83078774D01*
X245889744Y-83156795D01*
X245720226Y-83270063D01*
X245576063Y-83414226D01*
X245462795Y-83583744D01*
X245384774Y-83772102D01*
X245345000Y-83972061D01*
X245345000Y-84175939D01*
X245384774Y-84375898D01*
X245401030Y-84415143D01*
X245366705Y-84449468D01*
X245253437Y-84618986D01*
X245175416Y-84807344D01*
X245135642Y-85007303D01*
X242404093Y-85007303D01*
X242357937Y-84938226D01*
X242213774Y-84794063D01*
X242044256Y-84680795D01*
X241855898Y-84602774D01*
X241655939Y-84563000D01*
X241452061Y-84563000D01*
X241252102Y-84602774D01*
X241063744Y-84680795D01*
X240894226Y-84794063D01*
X240750063Y-84938226D01*
X240636795Y-85107744D01*
X240558774Y-85296102D01*
X240519000Y-85496061D01*
X236233984Y-85496061D01*
X236197405Y-85407754D01*
X236113389Y-85282015D01*
X236202256Y-85245205D01*
X236371774Y-85131937D01*
X236515937Y-84987774D01*
X236629205Y-84818256D01*
X236707226Y-84629898D01*
X236747000Y-84429939D01*
X236747000Y-84226061D01*
X236707226Y-84026102D01*
X236629205Y-83837744D01*
X236515937Y-83668226D01*
X236371774Y-83524063D01*
X236202256Y-83410795D01*
X236013898Y-83332774D01*
X235813939Y-83293000D01*
X235610061Y-83293000D01*
X235410102Y-83332774D01*
X235221744Y-83410795D01*
X235052226Y-83524063D01*
X234908063Y-83668226D01*
X234794795Y-83837744D01*
X234716774Y-84026102D01*
X234677000Y-84226061D01*
X234677000Y-84429939D01*
X234716774Y-84629898D01*
X234794795Y-84818256D01*
X234878811Y-84943995D01*
X234789944Y-84980805D01*
X234620426Y-85094073D01*
X234476263Y-85238236D01*
X234362995Y-85407754D01*
X234284974Y-85596112D01*
X234245200Y-85796071D01*
X230885878Y-85796071D01*
X230905000Y-85699939D01*
X230905000Y-85496061D01*
X230865226Y-85296102D01*
X230787205Y-85107744D01*
X230673937Y-84938226D01*
X230529774Y-84794063D01*
X230360256Y-84680795D01*
X230171898Y-84602774D01*
X229971939Y-84563000D01*
X229768061Y-84563000D01*
X229568102Y-84602774D01*
X229379744Y-84680795D01*
X229210226Y-84794063D01*
X229066063Y-84938226D01*
X228952795Y-85107744D01*
X228874774Y-85296102D01*
X228835000Y-85496061D01*
X224803984Y-85496061D01*
X224767405Y-85407754D01*
X224654137Y-85238236D01*
X224509974Y-85094073D01*
X224340456Y-84980805D01*
X224152098Y-84902784D01*
X224144769Y-84901326D01*
X224179774Y-84877937D01*
X224323937Y-84733774D01*
X224437205Y-84564256D01*
X224515226Y-84375898D01*
X224555000Y-84175939D01*
X224555000Y-83972061D01*
X224515226Y-83772102D01*
X224437205Y-83583744D01*
X224323937Y-83414226D01*
X224179774Y-83270063D01*
X224010256Y-83156795D01*
X223821898Y-83078774D01*
X223621939Y-83039000D01*
X223418061Y-83039000D01*
X223218102Y-83078774D01*
X223029744Y-83156795D01*
X222860226Y-83270063D01*
X222716063Y-83414226D01*
X222602795Y-83583744D01*
X222524774Y-83772102D01*
X222485000Y-83972061D01*
X219751650Y-83972061D01*
X219878937Y-83844774D01*
X219992205Y-83675256D01*
X220070226Y-83486898D01*
X220110000Y-83286939D01*
X220110000Y-83083061D01*
X220070226Y-82883102D01*
X219992205Y-82694744D01*
X219878937Y-82525226D01*
X219734774Y-82381063D01*
X219565256Y-82267795D01*
X219376898Y-82189774D01*
X219176939Y-82150000D01*
X218973061Y-82150000D01*
X218773102Y-82189774D01*
X218584744Y-82267795D01*
X218415226Y-82381063D01*
X218271063Y-82525226D01*
X218157795Y-82694744D01*
X218079774Y-82883102D01*
X218040000Y-83083061D01*
X212402248Y-83083061D01*
X212391898Y-83078774D01*
X212191939Y-83039000D01*
X211988061Y-83039000D01*
X211788102Y-83078774D01*
X211599744Y-83156795D01*
X211430226Y-83270063D01*
X211286063Y-83414226D01*
X211172795Y-83583744D01*
X211094774Y-83772102D01*
X211055000Y-83972061D01*
X172212000Y-83972061D01*
X172212000Y-67730000D01*
X172501928Y-67730000D01*
X172501928Y-69430000D01*
X172514188Y-69554482D01*
X172550498Y-69674180D01*
X172609463Y-69784494D01*
X172688815Y-69881185D01*
X172785506Y-69960537D01*
X172895820Y-70019502D01*
X172968380Y-70041513D01*
X172836525Y-70173368D01*
X172674010Y-70416589D01*
X172562068Y-70686842D01*
X172505000Y-70973740D01*
X172505000Y-71266260D01*
X172562068Y-71553158D01*
X172674010Y-71823411D01*
X172836525Y-72066632D01*
X173043368Y-72273475D01*
X173217760Y-72390000D01*
X173043368Y-72506525D01*
X172836525Y-72713368D01*
X172674010Y-72956589D01*
X172562068Y-73226842D01*
X172505000Y-73513740D01*
X172505000Y-73806260D01*
X172562068Y-74093158D01*
X172674010Y-74363411D01*
X172836525Y-74606632D01*
X173043368Y-74813475D01*
X173217760Y-74930000D01*
X173043368Y-75046525D01*
X172836525Y-75253368D01*
X172674010Y-75496589D01*
X172562068Y-75766842D01*
X172505000Y-76053740D01*
X172505000Y-76346260D01*
X172562068Y-76633158D01*
X172674010Y-76903411D01*
X172836525Y-77146632D01*
X173043368Y-77353475D01*
X173217760Y-77470000D01*
X173043368Y-77586525D01*
X172836525Y-77793368D01*
X172674010Y-78036589D01*
X172562068Y-78306842D01*
X172505000Y-78593740D01*
X172505000Y-78886260D01*
X172562068Y-79173158D01*
X172674010Y-79443411D01*
X172836525Y-79686632D01*
X173043368Y-79893475D01*
X173217760Y-80010000D01*
X173043368Y-80126525D01*
X172836525Y-80333368D01*
X172674010Y-80576589D01*
X172562068Y-80846842D01*
X172505000Y-81133740D01*
X172505000Y-81426260D01*
X172562068Y-81713158D01*
X172674010Y-81983411D01*
X172836525Y-82226632D01*
X173043368Y-82433475D01*
X173286589Y-82595990D01*
X173556842Y-82707932D01*
X173843740Y-82765000D01*
X174136260Y-82765000D01*
X174423158Y-82707932D01*
X174693411Y-82595990D01*
X174936632Y-82433475D01*
X175143475Y-82226632D01*
X175305990Y-81983411D01*
X175417932Y-81713158D01*
X175475000Y-81426260D01*
X175475000Y-81178061D01*
X178035000Y-81178061D01*
X178035000Y-81381939D01*
X178074774Y-81581898D01*
X178152795Y-81770256D01*
X178266063Y-81939774D01*
X178410226Y-82083937D01*
X178579744Y-82197205D01*
X178768102Y-82275226D01*
X178968061Y-82315000D01*
X179171939Y-82315000D01*
X179371898Y-82275226D01*
X179560256Y-82197205D01*
X179729774Y-82083937D01*
X179873937Y-81939774D01*
X179987205Y-81770256D01*
X180065226Y-81581898D01*
X180105000Y-81381939D01*
X180105000Y-81178061D01*
X180065226Y-80978102D01*
X179987205Y-80789744D01*
X179873937Y-80620226D01*
X179729774Y-80476063D01*
X179560256Y-80362795D01*
X179371898Y-80284774D01*
X179171939Y-80245000D01*
X178968061Y-80245000D01*
X178768102Y-80284774D01*
X178579744Y-80362795D01*
X178410226Y-80476063D01*
X178266063Y-80620226D01*
X178152795Y-80789744D01*
X178074774Y-80978102D01*
X178035000Y-81178061D01*
X175475000Y-81178061D01*
X175475000Y-81133740D01*
X175417932Y-80846842D01*
X175305990Y-80576589D01*
X175143475Y-80333368D01*
X174936632Y-80126525D01*
X174762240Y-80010000D01*
X174936632Y-79893475D01*
X175143475Y-79686632D01*
X175305990Y-79443411D01*
X175372565Y-79282684D01*
X208720000Y-79282684D01*
X208720000Y-79437316D01*
X208750167Y-79588976D01*
X208809342Y-79731837D01*
X208895251Y-79860408D01*
X209004592Y-79969749D01*
X209064831Y-80010000D01*
X209004592Y-80050251D01*
X208895251Y-80159592D01*
X208809342Y-80288163D01*
X208750167Y-80431024D01*
X208720000Y-80582684D01*
X208720000Y-80737316D01*
X208750167Y-80888976D01*
X208809342Y-81031837D01*
X208895251Y-81160408D01*
X209004592Y-81269749D01*
X209133163Y-81355658D01*
X209276024Y-81414833D01*
X209427684Y-81445000D01*
X209582316Y-81445000D01*
X209733976Y-81414833D01*
X209876837Y-81355658D01*
X210005408Y-81269749D01*
X210114749Y-81160408D01*
X210155000Y-81100169D01*
X210195251Y-81160408D01*
X210304592Y-81269749D01*
X210433163Y-81355658D01*
X210576024Y-81414833D01*
X210727684Y-81445000D01*
X210882316Y-81445000D01*
X211033976Y-81414833D01*
X211176837Y-81355658D01*
X211305408Y-81269749D01*
X211414749Y-81160408D01*
X211455000Y-81100169D01*
X211495251Y-81160408D01*
X211604592Y-81269749D01*
X211733163Y-81355658D01*
X211876024Y-81414833D01*
X212027684Y-81445000D01*
X212182316Y-81445000D01*
X212333976Y-81414833D01*
X212476837Y-81355658D01*
X212605408Y-81269749D01*
X212714749Y-81160408D01*
X212755000Y-81100169D01*
X212795251Y-81160408D01*
X212904592Y-81269749D01*
X213033163Y-81355658D01*
X213176024Y-81414833D01*
X213327684Y-81445000D01*
X213482316Y-81445000D01*
X213633976Y-81414833D01*
X213776837Y-81355658D01*
X213905408Y-81269749D01*
X214014749Y-81160408D01*
X214100658Y-81031837D01*
X214159833Y-80888976D01*
X214190000Y-80737316D01*
X214190000Y-80582684D01*
X214159833Y-80431024D01*
X214100658Y-80288163D01*
X214014749Y-80159592D01*
X213905408Y-80050251D01*
X213845169Y-80010000D01*
X213905408Y-79969749D01*
X214014749Y-79860408D01*
X214100658Y-79731837D01*
X214159833Y-79588976D01*
X214190000Y-79437316D01*
X214190000Y-79282684D01*
X220150000Y-79282684D01*
X220150000Y-79437316D01*
X220180167Y-79588976D01*
X220239342Y-79731837D01*
X220325251Y-79860408D01*
X220434592Y-79969749D01*
X220494831Y-80010000D01*
X220434592Y-80050251D01*
X220325251Y-80159592D01*
X220239342Y-80288163D01*
X220180167Y-80431024D01*
X220150000Y-80582684D01*
X220150000Y-80737316D01*
X220180167Y-80888976D01*
X220239342Y-81031837D01*
X220325251Y-81160408D01*
X220434592Y-81269749D01*
X220563163Y-81355658D01*
X220706024Y-81414833D01*
X220857684Y-81445000D01*
X221012316Y-81445000D01*
X221163976Y-81414833D01*
X221306837Y-81355658D01*
X221435408Y-81269749D01*
X221544749Y-81160408D01*
X221585000Y-81100169D01*
X221625251Y-81160408D01*
X221734592Y-81269749D01*
X221863163Y-81355658D01*
X222006024Y-81414833D01*
X222157684Y-81445000D01*
X222312316Y-81445000D01*
X222463976Y-81414833D01*
X222606837Y-81355658D01*
X222735408Y-81269749D01*
X222844749Y-81160408D01*
X222885000Y-81100169D01*
X222925251Y-81160408D01*
X223034592Y-81269749D01*
X223163163Y-81355658D01*
X223306024Y-81414833D01*
X223457684Y-81445000D01*
X223612316Y-81445000D01*
X223763976Y-81414833D01*
X223906837Y-81355658D01*
X224035408Y-81269749D01*
X224144749Y-81160408D01*
X224185000Y-81100169D01*
X224225251Y-81160408D01*
X224334592Y-81269749D01*
X224463163Y-81355658D01*
X224606024Y-81414833D01*
X224757684Y-81445000D01*
X224912316Y-81445000D01*
X225063976Y-81414833D01*
X225206837Y-81355658D01*
X225335408Y-81269749D01*
X225444749Y-81160408D01*
X225530658Y-81031837D01*
X225589833Y-80888976D01*
X225620000Y-80737316D01*
X225620000Y-80582684D01*
X225589833Y-80431024D01*
X225530658Y-80288163D01*
X225444749Y-80159592D01*
X225335408Y-80050251D01*
X225275169Y-80010000D01*
X225335408Y-79969749D01*
X225444749Y-79860408D01*
X225530658Y-79731837D01*
X225589833Y-79588976D01*
X225620000Y-79437316D01*
X225620000Y-79282684D01*
X225589833Y-79131024D01*
X225530658Y-78988163D01*
X225444749Y-78859592D01*
X225335408Y-78750251D01*
X225206837Y-78664342D01*
X225166622Y-78647684D01*
X231580000Y-78647684D01*
X231580000Y-78802316D01*
X231610167Y-78953976D01*
X231669342Y-79096837D01*
X231755251Y-79225408D01*
X231864592Y-79334749D01*
X231924831Y-79375000D01*
X231864592Y-79415251D01*
X231755251Y-79524592D01*
X231669342Y-79653163D01*
X231610167Y-79796024D01*
X231580000Y-79947684D01*
X231580000Y-80102316D01*
X231610167Y-80253976D01*
X231669342Y-80396837D01*
X231755251Y-80525408D01*
X231864592Y-80634749D01*
X231993163Y-80720658D01*
X232136024Y-80779833D01*
X232287684Y-80810000D01*
X232442316Y-80810000D01*
X232593976Y-80779833D01*
X232736837Y-80720658D01*
X232865408Y-80634749D01*
X232974749Y-80525408D01*
X233015000Y-80465169D01*
X233055251Y-80525408D01*
X233164592Y-80634749D01*
X233293163Y-80720658D01*
X233436024Y-80779833D01*
X233587684Y-80810000D01*
X233742316Y-80810000D01*
X233893976Y-80779833D01*
X234036837Y-80720658D01*
X234165408Y-80634749D01*
X234274749Y-80525408D01*
X234315000Y-80465169D01*
X234355251Y-80525408D01*
X234464592Y-80634749D01*
X234593163Y-80720658D01*
X234736024Y-80779833D01*
X234887684Y-80810000D01*
X235042316Y-80810000D01*
X235193976Y-80779833D01*
X235336837Y-80720658D01*
X235465408Y-80634749D01*
X235574749Y-80525408D01*
X235615000Y-80465169D01*
X235655251Y-80525408D01*
X235764592Y-80634749D01*
X235893163Y-80720658D01*
X236036024Y-80779833D01*
X236187684Y-80810000D01*
X236342316Y-80810000D01*
X236493976Y-80779833D01*
X236636837Y-80720658D01*
X236765408Y-80634749D01*
X236874749Y-80525408D01*
X236960658Y-80396837D01*
X237019833Y-80253976D01*
X237050000Y-80102316D01*
X237050000Y-79947684D01*
X237019833Y-79796024D01*
X236960658Y-79653163D01*
X236874749Y-79524592D01*
X236765408Y-79415251D01*
X236705169Y-79375000D01*
X236765408Y-79334749D01*
X236817473Y-79282684D01*
X243010000Y-79282684D01*
X243010000Y-79437316D01*
X243040167Y-79588976D01*
X243099342Y-79731837D01*
X243185251Y-79860408D01*
X243294592Y-79969749D01*
X243354831Y-80010000D01*
X243294592Y-80050251D01*
X243185251Y-80159592D01*
X243099342Y-80288163D01*
X243040167Y-80431024D01*
X243010000Y-80582684D01*
X243010000Y-80737316D01*
X243040167Y-80888976D01*
X243099342Y-81031837D01*
X243185251Y-81160408D01*
X243294592Y-81269749D01*
X243423163Y-81355658D01*
X243566024Y-81414833D01*
X243717684Y-81445000D01*
X243872316Y-81445000D01*
X244023976Y-81414833D01*
X244166837Y-81355658D01*
X244295408Y-81269749D01*
X244404749Y-81160408D01*
X244445000Y-81100169D01*
X244485251Y-81160408D01*
X244594592Y-81269749D01*
X244723163Y-81355658D01*
X244866024Y-81414833D01*
X245017684Y-81445000D01*
X245172316Y-81445000D01*
X245323976Y-81414833D01*
X245466837Y-81355658D01*
X245595408Y-81269749D01*
X245704749Y-81160408D01*
X245745000Y-81100169D01*
X245785251Y-81160408D01*
X245894592Y-81269749D01*
X246023163Y-81355658D01*
X246166024Y-81414833D01*
X246317684Y-81445000D01*
X246472316Y-81445000D01*
X246623976Y-81414833D01*
X246766837Y-81355658D01*
X246895408Y-81269749D01*
X247004749Y-81160408D01*
X247045000Y-81100169D01*
X247085251Y-81160408D01*
X247194592Y-81269749D01*
X247323163Y-81355658D01*
X247466024Y-81414833D01*
X247617684Y-81445000D01*
X247772316Y-81445000D01*
X247923976Y-81414833D01*
X248066837Y-81355658D01*
X248195408Y-81269749D01*
X248304749Y-81160408D01*
X248390658Y-81031837D01*
X248449833Y-80888976D01*
X248480000Y-80737316D01*
X248480000Y-80582684D01*
X248449833Y-80431024D01*
X248390658Y-80288163D01*
X248304749Y-80159592D01*
X248195408Y-80050251D01*
X248135169Y-80010000D01*
X248195408Y-79969749D01*
X248304749Y-79860408D01*
X248390658Y-79731837D01*
X248449833Y-79588976D01*
X248480000Y-79437316D01*
X248480000Y-79282684D01*
X248449833Y-79131024D01*
X248390658Y-78988163D01*
X248304749Y-78859592D01*
X248195408Y-78750251D01*
X248066837Y-78664342D01*
X247923976Y-78605167D01*
X247772316Y-78575000D01*
X247617684Y-78575000D01*
X247466024Y-78605167D01*
X247323163Y-78664342D01*
X247194592Y-78750251D01*
X247085251Y-78859592D01*
X247045000Y-78919831D01*
X247004749Y-78859592D01*
X246895408Y-78750251D01*
X246766837Y-78664342D01*
X246623976Y-78605167D01*
X246472316Y-78575000D01*
X246317684Y-78575000D01*
X246166024Y-78605167D01*
X246023163Y-78664342D01*
X245894592Y-78750251D01*
X245785251Y-78859592D01*
X245745000Y-78919831D01*
X245704749Y-78859592D01*
X245595408Y-78750251D01*
X245466837Y-78664342D01*
X245323976Y-78605167D01*
X245172316Y-78575000D01*
X245017684Y-78575000D01*
X244866024Y-78605167D01*
X244723163Y-78664342D01*
X244594592Y-78750251D01*
X244485251Y-78859592D01*
X244445000Y-78919831D01*
X244404749Y-78859592D01*
X244295408Y-78750251D01*
X244166837Y-78664342D01*
X244023976Y-78605167D01*
X243872316Y-78575000D01*
X243717684Y-78575000D01*
X243566024Y-78605167D01*
X243423163Y-78664342D01*
X243294592Y-78750251D01*
X243185251Y-78859592D01*
X243099342Y-78988163D01*
X243040167Y-79131024D01*
X243010000Y-79282684D01*
X236817473Y-79282684D01*
X236874749Y-79225408D01*
X236960658Y-79096837D01*
X237019833Y-78953976D01*
X237050000Y-78802316D01*
X237050000Y-78647684D01*
X237019833Y-78496024D01*
X236960658Y-78353163D01*
X236874749Y-78224592D01*
X236765408Y-78115251D01*
X236636837Y-78029342D01*
X236493976Y-77970167D01*
X236342316Y-77940000D01*
X236187684Y-77940000D01*
X236036024Y-77970167D01*
X235893163Y-78029342D01*
X235764592Y-78115251D01*
X235655251Y-78224592D01*
X235615000Y-78284831D01*
X235574749Y-78224592D01*
X235465408Y-78115251D01*
X235336837Y-78029342D01*
X235193976Y-77970167D01*
X235042316Y-77940000D01*
X234887684Y-77940000D01*
X234736024Y-77970167D01*
X234593163Y-78029342D01*
X234464592Y-78115251D01*
X234355251Y-78224592D01*
X234315000Y-78284831D01*
X234274749Y-78224592D01*
X234165408Y-78115251D01*
X234036837Y-78029342D01*
X233893976Y-77970167D01*
X233742316Y-77940000D01*
X233587684Y-77940000D01*
X233436024Y-77970167D01*
X233293163Y-78029342D01*
X233164592Y-78115251D01*
X233055251Y-78224592D01*
X233015000Y-78284831D01*
X232974749Y-78224592D01*
X232865408Y-78115251D01*
X232736837Y-78029342D01*
X232593976Y-77970167D01*
X232442316Y-77940000D01*
X232287684Y-77940000D01*
X232136024Y-77970167D01*
X231993163Y-78029342D01*
X231864592Y-78115251D01*
X231755251Y-78224592D01*
X231669342Y-78353163D01*
X231610167Y-78496024D01*
X231580000Y-78647684D01*
X225166622Y-78647684D01*
X225063976Y-78605167D01*
X224912316Y-78575000D01*
X224757684Y-78575000D01*
X224606024Y-78605167D01*
X224463163Y-78664342D01*
X224334592Y-78750251D01*
X224225251Y-78859592D01*
X224185000Y-78919831D01*
X224144749Y-78859592D01*
X224035408Y-78750251D01*
X223906837Y-78664342D01*
X223763976Y-78605167D01*
X223612316Y-78575000D01*
X223457684Y-78575000D01*
X223306024Y-78605167D01*
X223163163Y-78664342D01*
X223034592Y-78750251D01*
X222925251Y-78859592D01*
X222885000Y-78919831D01*
X222844749Y-78859592D01*
X222735408Y-78750251D01*
X222606837Y-78664342D01*
X222463976Y-78605167D01*
X222312316Y-78575000D01*
X222157684Y-78575000D01*
X222006024Y-78605167D01*
X221863163Y-78664342D01*
X221734592Y-78750251D01*
X221625251Y-78859592D01*
X221585000Y-78919831D01*
X221544749Y-78859592D01*
X221435408Y-78750251D01*
X221306837Y-78664342D01*
X221163976Y-78605167D01*
X221012316Y-78575000D01*
X220857684Y-78575000D01*
X220706024Y-78605167D01*
X220563163Y-78664342D01*
X220434592Y-78750251D01*
X220325251Y-78859592D01*
X220239342Y-78988163D01*
X220180167Y-79131024D01*
X220150000Y-79282684D01*
X214190000Y-79282684D01*
X214159833Y-79131024D01*
X214100658Y-78988163D01*
X214014749Y-78859592D01*
X213905408Y-78750251D01*
X213776837Y-78664342D01*
X213633976Y-78605167D01*
X213482316Y-78575000D01*
X213327684Y-78575000D01*
X213176024Y-78605167D01*
X213033163Y-78664342D01*
X212904592Y-78750251D01*
X212795251Y-78859592D01*
X212755000Y-78919831D01*
X212714749Y-78859592D01*
X212605408Y-78750251D01*
X212476837Y-78664342D01*
X212333976Y-78605167D01*
X212182316Y-78575000D01*
X212027684Y-78575000D01*
X211876024Y-78605167D01*
X211733163Y-78664342D01*
X211604592Y-78750251D01*
X211495251Y-78859592D01*
X211455000Y-78919831D01*
X211414749Y-78859592D01*
X211305408Y-78750251D01*
X211176837Y-78664342D01*
X211033976Y-78605167D01*
X210882316Y-78575000D01*
X210727684Y-78575000D01*
X210576024Y-78605167D01*
X210433163Y-78664342D01*
X210304592Y-78750251D01*
X210195251Y-78859592D01*
X210155000Y-78919831D01*
X210114749Y-78859592D01*
X210005408Y-78750251D01*
X209876837Y-78664342D01*
X209733976Y-78605167D01*
X209582316Y-78575000D01*
X209427684Y-78575000D01*
X209276024Y-78605167D01*
X209133163Y-78664342D01*
X209004592Y-78750251D01*
X208895251Y-78859592D01*
X208809342Y-78988163D01*
X208750167Y-79131024D01*
X208720000Y-79282684D01*
X175372565Y-79282684D01*
X175417932Y-79173158D01*
X175475000Y-78886260D01*
X175475000Y-78593740D01*
X175417932Y-78306842D01*
X175305990Y-78036589D01*
X175143475Y-77793368D01*
X174936632Y-77586525D01*
X174762240Y-77470000D01*
X174936632Y-77353475D01*
X175143475Y-77146632D01*
X175305990Y-76903411D01*
X175417932Y-76633158D01*
X175458551Y-76428952D01*
X175597291Y-76428952D01*
X175597291Y-76632830D01*
X175637065Y-76832789D01*
X175715086Y-77021147D01*
X175828354Y-77190665D01*
X175972517Y-77334828D01*
X176142035Y-77448096D01*
X176330393Y-77526117D01*
X176530352Y-77565891D01*
X176734230Y-77565891D01*
X176934189Y-77526117D01*
X177122547Y-77448096D01*
X177292065Y-77334828D01*
X177436228Y-77190665D01*
X177549496Y-77021147D01*
X177627517Y-76832789D01*
X177667291Y-76632830D01*
X177667291Y-76428952D01*
X177627517Y-76228993D01*
X177549496Y-76040635D01*
X177436228Y-75871117D01*
X177292065Y-75726954D01*
X177122547Y-75613686D01*
X176934189Y-75535665D01*
X176734230Y-75495891D01*
X176530352Y-75495891D01*
X176330393Y-75535665D01*
X176142035Y-75613686D01*
X175972517Y-75726954D01*
X175828354Y-75871117D01*
X175715086Y-76040635D01*
X175637065Y-76228993D01*
X175597291Y-76428952D01*
X175458551Y-76428952D01*
X175475000Y-76346260D01*
X175475000Y-76053740D01*
X175417932Y-75766842D01*
X175305990Y-75496589D01*
X175143475Y-75253368D01*
X174936632Y-75046525D01*
X174928756Y-75041262D01*
X187128200Y-75041262D01*
X187128200Y-75245140D01*
X187167974Y-75445099D01*
X187245995Y-75633457D01*
X187359263Y-75802975D01*
X187503426Y-75947138D01*
X187672944Y-76060406D01*
X187861302Y-76138427D01*
X188061261Y-76178201D01*
X188265139Y-76178201D01*
X188465098Y-76138427D01*
X188653456Y-76060406D01*
X188822974Y-75947138D01*
X188926051Y-75844061D01*
X206991000Y-75844061D01*
X206991000Y-76047939D01*
X207030774Y-76247898D01*
X207108795Y-76436256D01*
X207222063Y-76605774D01*
X207366226Y-76749937D01*
X207535744Y-76863205D01*
X207724102Y-76941226D01*
X207924061Y-76981000D01*
X208127939Y-76981000D01*
X208327898Y-76941226D01*
X208516256Y-76863205D01*
X208685774Y-76749937D01*
X208829937Y-76605774D01*
X208943205Y-76436256D01*
X209021226Y-76247898D01*
X209061000Y-76047939D01*
X209061000Y-75844061D01*
X209021226Y-75644102D01*
X208943205Y-75455744D01*
X208829937Y-75286226D01*
X208685774Y-75142063D01*
X208595975Y-75082061D01*
X218167000Y-75082061D01*
X218167000Y-75285939D01*
X218206774Y-75485898D01*
X218284795Y-75674256D01*
X218398063Y-75843774D01*
X218542226Y-75987937D01*
X218711744Y-76101205D01*
X218900102Y-76179226D01*
X219100061Y-76219000D01*
X219303939Y-76219000D01*
X219503898Y-76179226D01*
X219692256Y-76101205D01*
X219861774Y-75987937D01*
X220005937Y-75843774D01*
X220119205Y-75674256D01*
X220197226Y-75485898D01*
X220227030Y-75336061D01*
X229597000Y-75336061D01*
X229597000Y-75539939D01*
X229636774Y-75739898D01*
X229714795Y-75928256D01*
X229828063Y-76097774D01*
X229972226Y-76241937D01*
X230141744Y-76355205D01*
X230330102Y-76433226D01*
X230530061Y-76473000D01*
X230733939Y-76473000D01*
X230933898Y-76433226D01*
X231122256Y-76355205D01*
X231291774Y-76241937D01*
X231435937Y-76097774D01*
X231549205Y-75928256D01*
X231627226Y-75739898D01*
X231667000Y-75539939D01*
X231667000Y-75336061D01*
X231627226Y-75136102D01*
X231604842Y-75082061D01*
X241281000Y-75082061D01*
X241281000Y-75285939D01*
X241320774Y-75485898D01*
X241398795Y-75674256D01*
X241512063Y-75843774D01*
X241656226Y-75987937D01*
X241825744Y-76101205D01*
X242014102Y-76179226D01*
X242214061Y-76219000D01*
X242417939Y-76219000D01*
X242617898Y-76179226D01*
X242806256Y-76101205D01*
X242975774Y-75987937D01*
X243119937Y-75843774D01*
X243233205Y-75674256D01*
X243311226Y-75485898D01*
X243351000Y-75285939D01*
X243351000Y-75082061D01*
X243311226Y-74882102D01*
X243233205Y-74693744D01*
X243119937Y-74524226D01*
X242975774Y-74380063D01*
X242806256Y-74266795D01*
X242617898Y-74188774D01*
X242417939Y-74149000D01*
X242214061Y-74149000D01*
X242014102Y-74188774D01*
X241825744Y-74266795D01*
X241656226Y-74380063D01*
X241512063Y-74524226D01*
X241398795Y-74693744D01*
X241320774Y-74882102D01*
X241281000Y-75082061D01*
X231604842Y-75082061D01*
X231549205Y-74947744D01*
X231435937Y-74778226D01*
X231291774Y-74634063D01*
X231122256Y-74520795D01*
X230933898Y-74442774D01*
X230733939Y-74403000D01*
X230530061Y-74403000D01*
X230330102Y-74442774D01*
X230141744Y-74520795D01*
X229972226Y-74634063D01*
X229828063Y-74778226D01*
X229714795Y-74947744D01*
X229636774Y-75136102D01*
X229597000Y-75336061D01*
X220227030Y-75336061D01*
X220237000Y-75285939D01*
X220237000Y-75082061D01*
X220197226Y-74882102D01*
X220119205Y-74693744D01*
X220005937Y-74524226D01*
X219861774Y-74380063D01*
X219692256Y-74266795D01*
X219503898Y-74188774D01*
X219303939Y-74149000D01*
X219100061Y-74149000D01*
X218900102Y-74188774D01*
X218711744Y-74266795D01*
X218542226Y-74380063D01*
X218398063Y-74524226D01*
X218284795Y-74693744D01*
X218206774Y-74882102D01*
X218167000Y-75082061D01*
X208595975Y-75082061D01*
X208516256Y-75028795D01*
X208327898Y-74950774D01*
X208127939Y-74911000D01*
X207924061Y-74911000D01*
X207724102Y-74950774D01*
X207535744Y-75028795D01*
X207366226Y-75142063D01*
X207222063Y-75286226D01*
X207108795Y-75455744D01*
X207030774Y-75644102D01*
X206991000Y-75844061D01*
X188926051Y-75844061D01*
X188967137Y-75802975D01*
X189080405Y-75633457D01*
X189158426Y-75445099D01*
X189198200Y-75245140D01*
X189198200Y-75041262D01*
X189158426Y-74841303D01*
X189080405Y-74652945D01*
X188967137Y-74483427D01*
X188822974Y-74339264D01*
X188653456Y-74225996D01*
X188465098Y-74147975D01*
X188265139Y-74108201D01*
X188061261Y-74108201D01*
X187861302Y-74147975D01*
X187672944Y-74225996D01*
X187503426Y-74339264D01*
X187359263Y-74483427D01*
X187245995Y-74652945D01*
X187167974Y-74841303D01*
X187128200Y-75041262D01*
X174928756Y-75041262D01*
X174762240Y-74930000D01*
X174936632Y-74813475D01*
X175143475Y-74606632D01*
X175305990Y-74363411D01*
X175417932Y-74093158D01*
X175475000Y-73806260D01*
X175475000Y-73513740D01*
X175417932Y-73226842D01*
X175305990Y-72956589D01*
X175143475Y-72713368D01*
X174936632Y-72506525D01*
X174762240Y-72390000D01*
X174936632Y-72273475D01*
X175143475Y-72066632D01*
X175305990Y-71823411D01*
X175417932Y-71553158D01*
X175475000Y-71266260D01*
X175475000Y-70973740D01*
X175417932Y-70686842D01*
X175344708Y-70510061D01*
X176765000Y-70510061D01*
X176765000Y-70713939D01*
X176804774Y-70913898D01*
X176882795Y-71102256D01*
X176996063Y-71271774D01*
X177140226Y-71415937D01*
X177309744Y-71529205D01*
X177498102Y-71607226D01*
X177698061Y-71647000D01*
X177901939Y-71647000D01*
X178101898Y-71607226D01*
X178290256Y-71529205D01*
X178459774Y-71415937D01*
X178603937Y-71271774D01*
X178717205Y-71102256D01*
X178783643Y-70941861D01*
X180371800Y-70941861D01*
X180371800Y-71145739D01*
X180411574Y-71345698D01*
X180489595Y-71534056D01*
X180602863Y-71703574D01*
X180747026Y-71847737D01*
X180788104Y-71875185D01*
X180729863Y-71933426D01*
X180616595Y-72102944D01*
X180538574Y-72291302D01*
X180498800Y-72491261D01*
X180498800Y-72695139D01*
X180538574Y-72895098D01*
X180615949Y-73081897D01*
X180591195Y-73118944D01*
X180513174Y-73307302D01*
X180473400Y-73507261D01*
X180473400Y-73711139D01*
X180513174Y-73911098D01*
X180591195Y-74099456D01*
X180704463Y-74268974D01*
X180848626Y-74413137D01*
X181018144Y-74526405D01*
X181206502Y-74604426D01*
X181406461Y-74644200D01*
X181610339Y-74644200D01*
X181810298Y-74604426D01*
X181998656Y-74526405D01*
X182168174Y-74413137D01*
X182312337Y-74268974D01*
X182425605Y-74099456D01*
X182503626Y-73911098D01*
X182543400Y-73711139D01*
X182543400Y-73507261D01*
X182510381Y-73341261D01*
X185934400Y-73341261D01*
X185934400Y-73545139D01*
X185974174Y-73745098D01*
X186052195Y-73933456D01*
X186165463Y-74102974D01*
X186309626Y-74247137D01*
X186479144Y-74360405D01*
X186667502Y-74438426D01*
X186867461Y-74478200D01*
X187071339Y-74478200D01*
X187271298Y-74438426D01*
X187459656Y-74360405D01*
X187629174Y-74247137D01*
X187773337Y-74102974D01*
X187886605Y-73933456D01*
X187964626Y-73745098D01*
X188004400Y-73545139D01*
X188004400Y-73341261D01*
X187964626Y-73141302D01*
X187886605Y-72952944D01*
X187773337Y-72783426D01*
X187629174Y-72639263D01*
X187459656Y-72525995D01*
X187271298Y-72447974D01*
X187071339Y-72408200D01*
X186867461Y-72408200D01*
X186667502Y-72447974D01*
X186479144Y-72525995D01*
X186309626Y-72639263D01*
X186165463Y-72783426D01*
X186052195Y-72952944D01*
X185974174Y-73141302D01*
X185934400Y-73341261D01*
X182510381Y-73341261D01*
X182503626Y-73307302D01*
X182426251Y-73120503D01*
X182451005Y-73083456D01*
X182529026Y-72895098D01*
X182568800Y-72695139D01*
X182568800Y-72491261D01*
X182529026Y-72291302D01*
X182451005Y-72102944D01*
X182337737Y-71933426D01*
X182193574Y-71789263D01*
X182152496Y-71761815D01*
X182210737Y-71703574D01*
X182312772Y-71550868D01*
X182380863Y-71652774D01*
X182525026Y-71796937D01*
X182694544Y-71910205D01*
X182882902Y-71988226D01*
X183082861Y-72028000D01*
X183286739Y-72028000D01*
X183486698Y-71988226D01*
X183675056Y-71910205D01*
X183844574Y-71796937D01*
X183988737Y-71652774D01*
X184102005Y-71483256D01*
X184180026Y-71294898D01*
X184196442Y-71212367D01*
X185660125Y-71212367D01*
X185660125Y-71416245D01*
X185699899Y-71616204D01*
X185777920Y-71804562D01*
X185891188Y-71974080D01*
X186035351Y-72118243D01*
X186204869Y-72231511D01*
X186393227Y-72309532D01*
X186593186Y-72349306D01*
X186797064Y-72349306D01*
X186997023Y-72309532D01*
X187185381Y-72231511D01*
X187354899Y-72118243D01*
X187499062Y-71974080D01*
X187612330Y-71804562D01*
X187690351Y-71616204D01*
X187730125Y-71416245D01*
X187730125Y-71212367D01*
X187690351Y-71012408D01*
X187612330Y-70824050D01*
X187499062Y-70654532D01*
X187354899Y-70510369D01*
X187185381Y-70397101D01*
X186997023Y-70319080D01*
X186797064Y-70279306D01*
X186593186Y-70279306D01*
X186393227Y-70319080D01*
X186204869Y-70397101D01*
X186035351Y-70510369D01*
X185891188Y-70654532D01*
X185777920Y-70824050D01*
X185699899Y-71012408D01*
X185660125Y-71212367D01*
X184196442Y-71212367D01*
X184219800Y-71094939D01*
X184219800Y-70891061D01*
X184180026Y-70691102D01*
X184102005Y-70502744D01*
X183988737Y-70333226D01*
X183844574Y-70189063D01*
X183675056Y-70075795D01*
X183486698Y-69997774D01*
X183286739Y-69958000D01*
X183082861Y-69958000D01*
X182882902Y-69997774D01*
X182694544Y-70075795D01*
X182525026Y-70189063D01*
X182380863Y-70333226D01*
X182278828Y-70485932D01*
X182210737Y-70384026D01*
X182066574Y-70239863D01*
X181897056Y-70126595D01*
X181708698Y-70048574D01*
X181508739Y-70008800D01*
X181304861Y-70008800D01*
X181104902Y-70048574D01*
X180916544Y-70126595D01*
X180747026Y-70239863D01*
X180602863Y-70384026D01*
X180489595Y-70553544D01*
X180411574Y-70741902D01*
X180371800Y-70941861D01*
X178783643Y-70941861D01*
X178795226Y-70913898D01*
X178835000Y-70713939D01*
X178835000Y-70510061D01*
X178795226Y-70310102D01*
X178717205Y-70121744D01*
X178603937Y-69952226D01*
X178459774Y-69808063D01*
X178290256Y-69694795D01*
X178101898Y-69616774D01*
X177901939Y-69577000D01*
X177698061Y-69577000D01*
X177498102Y-69616774D01*
X177309744Y-69694795D01*
X177140226Y-69808063D01*
X176996063Y-69952226D01*
X176882795Y-70121744D01*
X176804774Y-70310102D01*
X176765000Y-70510061D01*
X175344708Y-70510061D01*
X175305990Y-70416589D01*
X175143475Y-70173368D01*
X175011620Y-70041513D01*
X175084180Y-70019502D01*
X175194494Y-69960537D01*
X175291185Y-69881185D01*
X175370537Y-69784494D01*
X175429502Y-69674180D01*
X175465812Y-69554482D01*
X175478072Y-69430000D01*
X175478072Y-68478061D01*
X198355000Y-68478061D01*
X198355000Y-68681939D01*
X198394774Y-68881898D01*
X198472795Y-69070256D01*
X198586063Y-69239774D01*
X198730226Y-69383937D01*
X198899744Y-69497205D01*
X199088102Y-69575226D01*
X199288061Y-69615000D01*
X199491939Y-69615000D01*
X199691898Y-69575226D01*
X199880256Y-69497205D01*
X200049774Y-69383937D01*
X200193937Y-69239774D01*
X200307205Y-69070256D01*
X200385226Y-68881898D01*
X200425000Y-68681939D01*
X200425000Y-68478061D01*
X200385226Y-68278102D01*
X200307205Y-68089744D01*
X200193937Y-67920226D01*
X200049774Y-67776063D01*
X199880256Y-67662795D01*
X199691898Y-67584774D01*
X199491939Y-67545000D01*
X199288061Y-67545000D01*
X199088102Y-67584774D01*
X198899744Y-67662795D01*
X198730226Y-67776063D01*
X198586063Y-67920226D01*
X198472795Y-68089744D01*
X198394774Y-68278102D01*
X198355000Y-68478061D01*
X175478072Y-68478061D01*
X175478072Y-67730000D01*
X175465812Y-67605518D01*
X175429502Y-67485820D01*
X175370537Y-67375506D01*
X175291185Y-67278815D01*
X175194494Y-67199463D01*
X175084180Y-67140498D01*
X174964482Y-67104188D01*
X174840000Y-67091928D01*
X173140000Y-67091928D01*
X173015518Y-67104188D01*
X172895820Y-67140498D01*
X172785506Y-67199463D01*
X172688815Y-67278815D01*
X172609463Y-67375506D01*
X172550498Y-67485820D01*
X172514188Y-67605518D01*
X172501928Y-67730000D01*
X172212000Y-67730000D01*
X172212000Y-66522261D01*
X200564800Y-66522261D01*
X200564800Y-66726139D01*
X200604574Y-66926098D01*
X200682595Y-67114456D01*
X200795863Y-67283974D01*
X200940026Y-67428137D01*
X201109544Y-67541405D01*
X201297902Y-67619426D01*
X201497861Y-67659200D01*
X201701739Y-67659200D01*
X201901698Y-67619426D01*
X202090056Y-67541405D01*
X202259574Y-67428137D01*
X202403737Y-67283974D01*
X202517005Y-67114456D01*
X202595026Y-66926098D01*
X202634800Y-66726139D01*
X202634800Y-66522261D01*
X202595026Y-66322302D01*
X202517005Y-66133944D01*
X202403737Y-65964426D01*
X202388051Y-65948740D01*
X208065000Y-65948740D01*
X208065000Y-66241260D01*
X208122068Y-66528158D01*
X208234010Y-66798411D01*
X208396525Y-67041632D01*
X208603368Y-67248475D01*
X208846589Y-67410990D01*
X209116842Y-67522932D01*
X209403740Y-67580000D01*
X209696260Y-67580000D01*
X209983158Y-67522932D01*
X210253411Y-67410990D01*
X210496632Y-67248475D01*
X210703475Y-67041632D01*
X210865990Y-66798411D01*
X210977932Y-66528158D01*
X211035000Y-66241260D01*
X211035000Y-65948740D01*
X219495000Y-65948740D01*
X219495000Y-66241260D01*
X219552068Y-66528158D01*
X219664010Y-66798411D01*
X219826525Y-67041632D01*
X220033368Y-67248475D01*
X220276589Y-67410990D01*
X220546842Y-67522932D01*
X220833740Y-67580000D01*
X221126260Y-67580000D01*
X221413158Y-67522932D01*
X221683411Y-67410990D01*
X221926632Y-67248475D01*
X222133475Y-67041632D01*
X222295990Y-66798411D01*
X222407932Y-66528158D01*
X222465000Y-66241260D01*
X222465000Y-65948740D01*
X230925000Y-65948740D01*
X230925000Y-66241260D01*
X230982068Y-66528158D01*
X231094010Y-66798411D01*
X231256525Y-67041632D01*
X231463368Y-67248475D01*
X231706589Y-67410990D01*
X231976842Y-67522932D01*
X232263740Y-67580000D01*
X232556260Y-67580000D01*
X232843158Y-67522932D01*
X233113411Y-67410990D01*
X233356632Y-67248475D01*
X233563475Y-67041632D01*
X233725990Y-66798411D01*
X233837932Y-66528158D01*
X233895000Y-66241260D01*
X233895000Y-65948740D01*
X242355000Y-65948740D01*
X242355000Y-66241260D01*
X242412068Y-66528158D01*
X242524010Y-66798411D01*
X242686525Y-67041632D01*
X242893368Y-67248475D01*
X243136589Y-67410990D01*
X243406842Y-67522932D01*
X243693740Y-67580000D01*
X243986260Y-67580000D01*
X244273158Y-67522932D01*
X244543411Y-67410990D01*
X244786632Y-67248475D01*
X244993475Y-67041632D01*
X245155990Y-66798411D01*
X245267932Y-66528158D01*
X245325000Y-66241260D01*
X245325000Y-65948740D01*
X245267932Y-65661842D01*
X245155990Y-65391589D01*
X244993475Y-65148368D01*
X244786632Y-64941525D01*
X244543411Y-64779010D01*
X244273158Y-64667068D01*
X243986260Y-64610000D01*
X243693740Y-64610000D01*
X243406842Y-64667068D01*
X243136589Y-64779010D01*
X242893368Y-64941525D01*
X242686525Y-65148368D01*
X242524010Y-65391589D01*
X242412068Y-65661842D01*
X242355000Y-65948740D01*
X233895000Y-65948740D01*
X233837932Y-65661842D01*
X233725990Y-65391589D01*
X233563475Y-65148368D01*
X233356632Y-64941525D01*
X233113411Y-64779010D01*
X232843158Y-64667068D01*
X232556260Y-64610000D01*
X232263740Y-64610000D01*
X231976842Y-64667068D01*
X231706589Y-64779010D01*
X231463368Y-64941525D01*
X231256525Y-65148368D01*
X231094010Y-65391589D01*
X230982068Y-65661842D01*
X230925000Y-65948740D01*
X222465000Y-65948740D01*
X222407932Y-65661842D01*
X222295990Y-65391589D01*
X222133475Y-65148368D01*
X221926632Y-64941525D01*
X221683411Y-64779010D01*
X221413158Y-64667068D01*
X221126260Y-64610000D01*
X220833740Y-64610000D01*
X220546842Y-64667068D01*
X220276589Y-64779010D01*
X220033368Y-64941525D01*
X219826525Y-65148368D01*
X219664010Y-65391589D01*
X219552068Y-65661842D01*
X219495000Y-65948740D01*
X211035000Y-65948740D01*
X210977932Y-65661842D01*
X210865990Y-65391589D01*
X210703475Y-65148368D01*
X210496632Y-64941525D01*
X210253411Y-64779010D01*
X209983158Y-64667068D01*
X209696260Y-64610000D01*
X209403740Y-64610000D01*
X209116842Y-64667068D01*
X208846589Y-64779010D01*
X208603368Y-64941525D01*
X208396525Y-65148368D01*
X208234010Y-65391589D01*
X208122068Y-65661842D01*
X208065000Y-65948740D01*
X202388051Y-65948740D01*
X202259574Y-65820263D01*
X202090056Y-65706995D01*
X201901698Y-65628974D01*
X201701739Y-65589200D01*
X201497861Y-65589200D01*
X201297902Y-65628974D01*
X201109544Y-65706995D01*
X200940026Y-65820263D01*
X200795863Y-65964426D01*
X200682595Y-66133944D01*
X200604574Y-66322302D01*
X200564800Y-66522261D01*
X172212000Y-66522261D01*
X172212000Y-64845861D01*
X180575000Y-64845861D01*
X180575000Y-65049739D01*
X180614774Y-65249698D01*
X180692795Y-65438056D01*
X180806063Y-65607574D01*
X180950226Y-65751737D01*
X181119744Y-65865005D01*
X181308102Y-65943026D01*
X181508061Y-65982800D01*
X181711939Y-65982800D01*
X181911898Y-65943026D01*
X182100256Y-65865005D01*
X182269774Y-65751737D01*
X182413937Y-65607574D01*
X182527205Y-65438056D01*
X182583122Y-65303061D01*
X186290000Y-65303061D01*
X186290000Y-65506939D01*
X186329774Y-65706898D01*
X186407795Y-65895256D01*
X186521063Y-66064774D01*
X186665226Y-66208937D01*
X186834744Y-66322205D01*
X187023102Y-66400226D01*
X187223061Y-66440000D01*
X187426939Y-66440000D01*
X187626898Y-66400226D01*
X187815256Y-66322205D01*
X187984774Y-66208937D01*
X188128937Y-66064774D01*
X188242205Y-65895256D01*
X188320226Y-65706898D01*
X188360000Y-65506939D01*
X188360000Y-65303061D01*
X188320226Y-65103102D01*
X188242205Y-64914744D01*
X188128937Y-64745226D01*
X187984774Y-64601063D01*
X187815256Y-64487795D01*
X187626898Y-64409774D01*
X187426939Y-64370000D01*
X187223061Y-64370000D01*
X187023102Y-64409774D01*
X186834744Y-64487795D01*
X186665226Y-64601063D01*
X186521063Y-64745226D01*
X186407795Y-64914744D01*
X186329774Y-65103102D01*
X186290000Y-65303061D01*
X182583122Y-65303061D01*
X182605226Y-65249698D01*
X182645000Y-65049739D01*
X182645000Y-64845861D01*
X182605226Y-64645902D01*
X182527205Y-64457544D01*
X182413937Y-64288026D01*
X182269774Y-64143863D01*
X182100256Y-64030595D01*
X181911898Y-63952574D01*
X181711939Y-63912800D01*
X181508061Y-63912800D01*
X181308102Y-63952574D01*
X181119744Y-64030595D01*
X180950226Y-64143863D01*
X180806063Y-64288026D01*
X180692795Y-64457544D01*
X180614774Y-64645902D01*
X180575000Y-64845861D01*
X172212000Y-64845861D01*
X172212000Y-63567680D01*
X195049508Y-63567680D01*
X195061768Y-63692162D01*
X195098078Y-63811860D01*
X195157043Y-63922174D01*
X195236395Y-64018865D01*
X195333086Y-64098217D01*
X195443400Y-64157182D01*
X195563098Y-64193492D01*
X195687580Y-64205752D01*
X196251830Y-64202680D01*
X196410580Y-64043930D01*
X196410580Y-62844680D01*
X195211330Y-62844680D01*
X195052580Y-63003430D01*
X195049508Y-63567680D01*
X172212000Y-63567680D01*
X172212000Y-61867680D01*
X195049508Y-61867680D01*
X195052580Y-62431930D01*
X195211330Y-62590680D01*
X196410580Y-62590680D01*
X196410580Y-61391430D01*
X196664580Y-61391430D01*
X196664580Y-62590680D01*
X196684580Y-62590680D01*
X196684580Y-62844680D01*
X196664580Y-62844680D01*
X196664580Y-64043930D01*
X196823330Y-64202680D01*
X197387580Y-64205752D01*
X197512062Y-64193492D01*
X197631760Y-64157182D01*
X197742074Y-64098217D01*
X197838765Y-64018865D01*
X197918117Y-63922174D01*
X197977082Y-63811860D01*
X197999093Y-63739300D01*
X198130948Y-63871155D01*
X198374169Y-64033670D01*
X198644422Y-64145612D01*
X198931320Y-64202680D01*
X199223840Y-64202680D01*
X199510738Y-64145612D01*
X199780991Y-64033670D01*
X200024212Y-63871155D01*
X200231055Y-63664312D01*
X200347580Y-63489920D01*
X200464105Y-63664312D01*
X200670948Y-63871155D01*
X200914169Y-64033670D01*
X201184422Y-64145612D01*
X201471320Y-64202680D01*
X201763840Y-64202680D01*
X202050738Y-64145612D01*
X202320991Y-64033670D01*
X202564212Y-63871155D01*
X202771055Y-63664312D01*
X202933570Y-63421091D01*
X203045512Y-63150838D01*
X203102580Y-62863940D01*
X203102580Y-62571420D01*
X203045512Y-62284522D01*
X202933570Y-62014269D01*
X202771055Y-61771048D01*
X202564212Y-61564205D01*
X202320991Y-61401690D01*
X202050738Y-61289748D01*
X201763840Y-61232680D01*
X201471320Y-61232680D01*
X201184422Y-61289748D01*
X200914169Y-61401690D01*
X200670948Y-61564205D01*
X200464105Y-61771048D01*
X200347580Y-61945440D01*
X200231055Y-61771048D01*
X200024212Y-61564205D01*
X199780991Y-61401690D01*
X199725206Y-61378583D01*
X199790023Y-61222101D01*
X199829797Y-61022142D01*
X199829797Y-60818264D01*
X199790023Y-60618305D01*
X199712002Y-60429947D01*
X199598734Y-60260429D01*
X199454571Y-60116266D01*
X199285053Y-60002998D01*
X199096695Y-59924977D01*
X198896736Y-59885203D01*
X198692858Y-59885203D01*
X198492899Y-59924977D01*
X198304541Y-60002998D01*
X198135023Y-60116266D01*
X197990860Y-60260429D01*
X197877592Y-60429947D01*
X197799571Y-60618305D01*
X197759797Y-60818264D01*
X197759797Y-61022142D01*
X197799571Y-61222101D01*
X197877592Y-61410459D01*
X197990860Y-61579977D01*
X198053018Y-61642135D01*
X197999093Y-61696060D01*
X197977082Y-61623500D01*
X197918117Y-61513186D01*
X197838765Y-61416495D01*
X197742074Y-61337143D01*
X197631760Y-61278178D01*
X197512062Y-61241868D01*
X197387580Y-61229608D01*
X196823330Y-61232680D01*
X196664580Y-61391430D01*
X196410580Y-61391430D01*
X196251830Y-61232680D01*
X195687580Y-61229608D01*
X195563098Y-61241868D01*
X195443400Y-61278178D01*
X195333086Y-61337143D01*
X195236395Y-61416495D01*
X195157043Y-61513186D01*
X195098078Y-61623500D01*
X195061768Y-61743198D01*
X195049508Y-61867680D01*
X172212000Y-61867680D01*
X172212000Y-58948740D01*
X208065000Y-58948740D01*
X208065000Y-59241260D01*
X208122068Y-59528158D01*
X208234010Y-59798411D01*
X208396525Y-60041632D01*
X208603368Y-60248475D01*
X208846589Y-60410990D01*
X209116842Y-60522932D01*
X209403740Y-60580000D01*
X209696260Y-60580000D01*
X209983158Y-60522932D01*
X210253411Y-60410990D01*
X210496632Y-60248475D01*
X210703475Y-60041632D01*
X210865990Y-59798411D01*
X210977932Y-59528158D01*
X211035000Y-59241260D01*
X211035000Y-58948740D01*
X219495000Y-58948740D01*
X219495000Y-59241260D01*
X219552068Y-59528158D01*
X219664010Y-59798411D01*
X219826525Y-60041632D01*
X220033368Y-60248475D01*
X220276589Y-60410990D01*
X220546842Y-60522932D01*
X220833740Y-60580000D01*
X221126260Y-60580000D01*
X221413158Y-60522932D01*
X221683411Y-60410990D01*
X221926632Y-60248475D01*
X222133475Y-60041632D01*
X222295990Y-59798411D01*
X222407932Y-59528158D01*
X222465000Y-59241260D01*
X222465000Y-58948740D01*
X230925000Y-58948740D01*
X230925000Y-59241260D01*
X230982068Y-59528158D01*
X231094010Y-59798411D01*
X231256525Y-60041632D01*
X231463368Y-60248475D01*
X231706589Y-60410990D01*
X231976842Y-60522932D01*
X232263740Y-60580000D01*
X232556260Y-60580000D01*
X232843158Y-60522932D01*
X233113411Y-60410990D01*
X233356632Y-60248475D01*
X233563475Y-60041632D01*
X233725990Y-59798411D01*
X233837932Y-59528158D01*
X233895000Y-59241260D01*
X233895000Y-58948740D01*
X242355000Y-58948740D01*
X242355000Y-59241260D01*
X242412068Y-59528158D01*
X242524010Y-59798411D01*
X242686525Y-60041632D01*
X242893368Y-60248475D01*
X243136589Y-60410990D01*
X243406842Y-60522932D01*
X243693740Y-60580000D01*
X243986260Y-60580000D01*
X244273158Y-60522932D01*
X244543411Y-60410990D01*
X244786632Y-60248475D01*
X244993475Y-60041632D01*
X245155990Y-59798411D01*
X245267932Y-59528158D01*
X245325000Y-59241260D01*
X245325000Y-58948740D01*
X245267932Y-58661842D01*
X245155990Y-58391589D01*
X244993475Y-58148368D01*
X244786632Y-57941525D01*
X244543411Y-57779010D01*
X244273158Y-57667068D01*
X243986260Y-57610000D01*
X243693740Y-57610000D01*
X243406842Y-57667068D01*
X243136589Y-57779010D01*
X242893368Y-57941525D01*
X242686525Y-58148368D01*
X242524010Y-58391589D01*
X242412068Y-58661842D01*
X242355000Y-58948740D01*
X233895000Y-58948740D01*
X233837932Y-58661842D01*
X233725990Y-58391589D01*
X233563475Y-58148368D01*
X233356632Y-57941525D01*
X233113411Y-57779010D01*
X232843158Y-57667068D01*
X232556260Y-57610000D01*
X232263740Y-57610000D01*
X231976842Y-57667068D01*
X231706589Y-57779010D01*
X231463368Y-57941525D01*
X231256525Y-58148368D01*
X231094010Y-58391589D01*
X230982068Y-58661842D01*
X230925000Y-58948740D01*
X222465000Y-58948740D01*
X222407932Y-58661842D01*
X222295990Y-58391589D01*
X222133475Y-58148368D01*
X221926632Y-57941525D01*
X221683411Y-57779010D01*
X221413158Y-57667068D01*
X221126260Y-57610000D01*
X220833740Y-57610000D01*
X220546842Y-57667068D01*
X220276589Y-57779010D01*
X220033368Y-57941525D01*
X219826525Y-58148368D01*
X219664010Y-58391589D01*
X219552068Y-58661842D01*
X219495000Y-58948740D01*
X211035000Y-58948740D01*
X210977932Y-58661842D01*
X210865990Y-58391589D01*
X210703475Y-58148368D01*
X210496632Y-57941525D01*
X210253411Y-57779010D01*
X209983158Y-57667068D01*
X209696260Y-57610000D01*
X209403740Y-57610000D01*
X209116842Y-57667068D01*
X208846589Y-57779010D01*
X208603368Y-57941525D01*
X208396525Y-58148368D01*
X208234010Y-58391589D01*
X208122068Y-58661842D01*
X208065000Y-58948740D01*
X172212000Y-58948740D01*
X172212000Y-53760000D01*
X182026928Y-53760000D01*
X182026928Y-55460000D01*
X182039188Y-55584482D01*
X182075498Y-55704180D01*
X182134463Y-55814494D01*
X182213815Y-55911185D01*
X182310506Y-55990537D01*
X182420820Y-56049502D01*
X182540518Y-56085812D01*
X182665000Y-56098072D01*
X184365000Y-56098072D01*
X184489482Y-56085812D01*
X184609180Y-56049502D01*
X184719494Y-55990537D01*
X184816185Y-55911185D01*
X184895537Y-55814494D01*
X184954502Y-55704180D01*
X184976513Y-55631620D01*
X185108368Y-55763475D01*
X185351589Y-55925990D01*
X185621842Y-56037932D01*
X185908740Y-56095000D01*
X186201260Y-56095000D01*
X186488158Y-56037932D01*
X186758411Y-55925990D01*
X187001632Y-55763475D01*
X187208475Y-55556632D01*
X187330195Y-55374466D01*
X187399822Y-55491355D01*
X187594731Y-55707588D01*
X187828080Y-55881641D01*
X188090901Y-56006825D01*
X188238110Y-56051476D01*
X188468000Y-55930155D01*
X188468000Y-54737000D01*
X188448000Y-54737000D01*
X188448000Y-54483000D01*
X188468000Y-54483000D01*
X188468000Y-53289845D01*
X188722000Y-53289845D01*
X188722000Y-54483000D01*
X188742000Y-54483000D01*
X188742000Y-54737000D01*
X188722000Y-54737000D01*
X188722000Y-55930155D01*
X188951890Y-56051476D01*
X189099099Y-56006825D01*
X189361920Y-55881641D01*
X189595269Y-55707588D01*
X189790178Y-55491355D01*
X189859805Y-55374466D01*
X189981525Y-55556632D01*
X190188368Y-55763475D01*
X190431589Y-55925990D01*
X190701842Y-56037932D01*
X190988740Y-56095000D01*
X191281260Y-56095000D01*
X191568158Y-56037932D01*
X191838411Y-55925990D01*
X192081632Y-55763475D01*
X192288475Y-55556632D01*
X192405000Y-55382240D01*
X192521525Y-55556632D01*
X192728368Y-55763475D01*
X192971589Y-55925990D01*
X193241842Y-56037932D01*
X193528740Y-56095000D01*
X193821260Y-56095000D01*
X194108158Y-56037932D01*
X194378411Y-55925990D01*
X194621632Y-55763475D01*
X194828475Y-55556632D01*
X194945000Y-55382240D01*
X195061525Y-55556632D01*
X195268368Y-55763475D01*
X195511589Y-55925990D01*
X195781842Y-56037932D01*
X196068740Y-56095000D01*
X196361260Y-56095000D01*
X196648158Y-56037932D01*
X196918411Y-55925990D01*
X197161632Y-55763475D01*
X197368475Y-55556632D01*
X197485000Y-55382240D01*
X197601525Y-55556632D01*
X197808368Y-55763475D01*
X198051589Y-55925990D01*
X198321842Y-56037932D01*
X198608740Y-56095000D01*
X198901260Y-56095000D01*
X199188158Y-56037932D01*
X199458411Y-55925990D01*
X199701632Y-55763475D01*
X199908475Y-55556632D01*
X200025000Y-55382240D01*
X200141525Y-55556632D01*
X200348368Y-55763475D01*
X200591589Y-55925990D01*
X200861842Y-56037932D01*
X201148740Y-56095000D01*
X201441260Y-56095000D01*
X201728158Y-56037932D01*
X201998411Y-55925990D01*
X202241632Y-55763475D01*
X202448475Y-55556632D01*
X202610990Y-55313411D01*
X202628946Y-55270061D01*
X203689000Y-55270061D01*
X203689000Y-55473939D01*
X203728774Y-55673898D01*
X203806795Y-55862256D01*
X203920063Y-56031774D01*
X204064226Y-56175937D01*
X204233744Y-56289205D01*
X204422102Y-56367226D01*
X204622061Y-56407000D01*
X204825939Y-56407000D01*
X205025898Y-56367226D01*
X205214256Y-56289205D01*
X205383774Y-56175937D01*
X205527937Y-56031774D01*
X205641205Y-55862256D01*
X205719226Y-55673898D01*
X205749030Y-55524061D01*
X215373000Y-55524061D01*
X215373000Y-55727939D01*
X215412774Y-55927898D01*
X215490795Y-56116256D01*
X215604063Y-56285774D01*
X215748226Y-56429937D01*
X215917744Y-56543205D01*
X216106102Y-56621226D01*
X216306061Y-56661000D01*
X216509939Y-56661000D01*
X216709898Y-56621226D01*
X216898256Y-56543205D01*
X217067774Y-56429937D01*
X217211937Y-56285774D01*
X217325205Y-56116256D01*
X217403226Y-55927898D01*
X217443000Y-55727939D01*
X217443000Y-55524061D01*
X217403226Y-55324102D01*
X217380842Y-55270061D01*
X226041000Y-55270061D01*
X226041000Y-55473939D01*
X226080774Y-55673898D01*
X226158795Y-55862256D01*
X226272063Y-56031774D01*
X226416226Y-56175937D01*
X226585744Y-56289205D01*
X226774102Y-56367226D01*
X226974061Y-56407000D01*
X227177939Y-56407000D01*
X227377898Y-56367226D01*
X227566256Y-56289205D01*
X227735774Y-56175937D01*
X227879937Y-56031774D01*
X227993205Y-55862256D01*
X228071226Y-55673898D01*
X228111000Y-55473939D01*
X228111000Y-55270061D01*
X237979000Y-55270061D01*
X237979000Y-55473939D01*
X238018774Y-55673898D01*
X238096795Y-55862256D01*
X238210063Y-56031774D01*
X238354226Y-56175937D01*
X238523744Y-56289205D01*
X238712102Y-56367226D01*
X238912061Y-56407000D01*
X239115939Y-56407000D01*
X239315898Y-56367226D01*
X239504256Y-56289205D01*
X239673774Y-56175937D01*
X239817937Y-56031774D01*
X239931205Y-55862256D01*
X240009226Y-55673898D01*
X240049000Y-55473939D01*
X240049000Y-55270061D01*
X240009226Y-55070102D01*
X239931205Y-54881744D01*
X239817937Y-54712226D01*
X239673774Y-54568063D01*
X239504256Y-54454795D01*
X239315898Y-54376774D01*
X239115939Y-54337000D01*
X238912061Y-54337000D01*
X238712102Y-54376774D01*
X238523744Y-54454795D01*
X238354226Y-54568063D01*
X238210063Y-54712226D01*
X238096795Y-54881744D01*
X238018774Y-55070102D01*
X237979000Y-55270061D01*
X228111000Y-55270061D01*
X228071226Y-55070102D01*
X227993205Y-54881744D01*
X227879937Y-54712226D01*
X227735774Y-54568063D01*
X227566256Y-54454795D01*
X227377898Y-54376774D01*
X227177939Y-54337000D01*
X226974061Y-54337000D01*
X226774102Y-54376774D01*
X226585744Y-54454795D01*
X226416226Y-54568063D01*
X226272063Y-54712226D01*
X226158795Y-54881744D01*
X226080774Y-55070102D01*
X226041000Y-55270061D01*
X217380842Y-55270061D01*
X217325205Y-55135744D01*
X217211937Y-54966226D01*
X217067774Y-54822063D01*
X216898256Y-54708795D01*
X216709898Y-54630774D01*
X216509939Y-54591000D01*
X216306061Y-54591000D01*
X216106102Y-54630774D01*
X215917744Y-54708795D01*
X215748226Y-54822063D01*
X215604063Y-54966226D01*
X215490795Y-55135744D01*
X215412774Y-55324102D01*
X215373000Y-55524061D01*
X205749030Y-55524061D01*
X205759000Y-55473939D01*
X205759000Y-55270061D01*
X205719226Y-55070102D01*
X205641205Y-54881744D01*
X205527937Y-54712226D01*
X205383774Y-54568063D01*
X205214256Y-54454795D01*
X205025898Y-54376774D01*
X204825939Y-54337000D01*
X204622061Y-54337000D01*
X204422102Y-54376774D01*
X204233744Y-54454795D01*
X204064226Y-54568063D01*
X203920063Y-54712226D01*
X203806795Y-54881744D01*
X203728774Y-55070102D01*
X203689000Y-55270061D01*
X202628946Y-55270061D01*
X202722932Y-55043158D01*
X202780000Y-54756260D01*
X202780000Y-54463740D01*
X202722932Y-54176842D01*
X202610990Y-53906589D01*
X202448475Y-53663368D01*
X202241632Y-53456525D01*
X201998411Y-53294010D01*
X201728158Y-53182068D01*
X201441260Y-53125000D01*
X201148740Y-53125000D01*
X200861842Y-53182068D01*
X200591589Y-53294010D01*
X200348368Y-53456525D01*
X200141525Y-53663368D01*
X200025000Y-53837760D01*
X199908475Y-53663368D01*
X199701632Y-53456525D01*
X199513744Y-53330982D01*
X199621405Y-53169856D01*
X199699426Y-52981498D01*
X199739200Y-52781539D01*
X199739200Y-52577661D01*
X199699426Y-52377702D01*
X199621405Y-52189344D01*
X199508137Y-52019826D01*
X199363974Y-51875663D01*
X199194456Y-51762395D01*
X199006098Y-51684374D01*
X198806139Y-51644600D01*
X198602261Y-51644600D01*
X198402302Y-51684374D01*
X198213944Y-51762395D01*
X198044426Y-51875663D01*
X197900263Y-52019826D01*
X197786995Y-52189344D01*
X197708974Y-52377702D01*
X197669200Y-52577661D01*
X197669200Y-52781539D01*
X197708974Y-52981498D01*
X197786995Y-53169856D01*
X197900263Y-53339374D01*
X197933682Y-53372793D01*
X197808368Y-53456525D01*
X197601525Y-53663368D01*
X197485000Y-53837760D01*
X197368475Y-53663368D01*
X197161632Y-53456525D01*
X196918411Y-53294010D01*
X196648158Y-53182068D01*
X196361260Y-53125000D01*
X196068740Y-53125000D01*
X195781842Y-53182068D01*
X195511589Y-53294010D01*
X195268368Y-53456525D01*
X195061525Y-53663368D01*
X194945000Y-53837760D01*
X194828475Y-53663368D01*
X194621632Y-53456525D01*
X194378411Y-53294010D01*
X194108158Y-53182068D01*
X193821260Y-53125000D01*
X193528740Y-53125000D01*
X193241842Y-53182068D01*
X192971589Y-53294010D01*
X192728368Y-53456525D01*
X192521525Y-53663368D01*
X192405000Y-53837760D01*
X192288475Y-53663368D01*
X192081632Y-53456525D01*
X191838411Y-53294010D01*
X191568158Y-53182068D01*
X191281260Y-53125000D01*
X190988740Y-53125000D01*
X190701842Y-53182068D01*
X190431589Y-53294010D01*
X190188368Y-53456525D01*
X189981525Y-53663368D01*
X189859805Y-53845534D01*
X189790178Y-53728645D01*
X189595269Y-53512412D01*
X189361920Y-53338359D01*
X189099099Y-53213175D01*
X188951890Y-53168524D01*
X188722000Y-53289845D01*
X188468000Y-53289845D01*
X188238110Y-53168524D01*
X188090901Y-53213175D01*
X187828080Y-53338359D01*
X187594731Y-53512412D01*
X187399822Y-53728645D01*
X187330195Y-53845534D01*
X187208475Y-53663368D01*
X187001632Y-53456525D01*
X186758411Y-53294010D01*
X186488158Y-53182068D01*
X186201260Y-53125000D01*
X185908740Y-53125000D01*
X185621842Y-53182068D01*
X185351589Y-53294010D01*
X185108368Y-53456525D01*
X184976513Y-53588380D01*
X184954502Y-53515820D01*
X184895537Y-53405506D01*
X184816185Y-53308815D01*
X184719494Y-53229463D01*
X184609180Y-53170498D01*
X184489482Y-53134188D01*
X184365000Y-53121928D01*
X182665000Y-53121928D01*
X182540518Y-53134188D01*
X182420820Y-53170498D01*
X182310506Y-53229463D01*
X182213815Y-53308815D01*
X182134463Y-53405506D01*
X182075498Y-53515820D01*
X182039188Y-53635518D01*
X182026928Y-53760000D01*
X172212000Y-53760000D01*
X172212000Y-48387000D01*
X203175000Y-48387000D01*
X203175001Y-52037571D01*
%TD*%
M02*
