%TF.GenerationSoftware,KiCad,Pcbnew,(5.1.6)-1*%
%TF.CreationDate,2020-09-27T21:03:48-07:00*%
%TF.ProjectId,piezodriver,7069657a-6f64-4726-9976-65722e6b6963,rev?*%
%TF.SameCoordinates,Original*%
%TF.FileFunction,Copper,L1,Top*%
%TF.FilePolarity,Positive*%
%FSLAX46Y46*%
G04 Gerber Fmt 4.6, Leading zero omitted, Abs format (unit mm)*
G04 Created by KiCad (PCBNEW (5.1.6)-1) date 2020-09-27 21:03:48*
%MOMM*%
%LPD*%
G01*
G04 APERTURE LIST*
%TA.AperFunction,SMDPad,CuDef*%
%ADD10R,0.900000X0.800000*%
%TD*%
%TA.AperFunction,ComponentPad*%
%ADD11O,1.700000X1.700000*%
%TD*%
%TA.AperFunction,ComponentPad*%
%ADD12R,1.700000X1.700000*%
%TD*%
%TA.AperFunction,SMDPad,CuDef*%
%ADD13R,2.800000X2.800000*%
%TD*%
%TA.AperFunction,SMDPad,CuDef*%
%ADD14R,2.800000X2.200000*%
%TD*%
%TA.AperFunction,ComponentPad*%
%ADD15C,0.300000*%
%TD*%
%TA.AperFunction,Conductor*%
%ADD16R,4.900000X2.950000*%
%TD*%
%TA.AperFunction,SMDPad,CuDef*%
%ADD17R,0.600000X1.550000*%
%TD*%
%TA.AperFunction,ViaPad*%
%ADD18C,0.800000*%
%TD*%
%TA.AperFunction,Conductor*%
%ADD19C,0.500000*%
%TD*%
%TA.AperFunction,Conductor*%
%ADD20C,0.250000*%
%TD*%
G04 APERTURE END LIST*
%TO.P,R2,2*%
%TO.N,/opampdriver/SIG*%
%TA.AperFunction,SMDPad,CuDef*%
G36*
G01*
X210245000Y-86048001D02*
X210245000Y-85147999D01*
G75*
G02*
X210494999Y-84898000I249999J0D01*
G01*
X211145001Y-84898000D01*
G75*
G02*
X211395000Y-85147999I0J-249999D01*
G01*
X211395000Y-86048001D01*
G75*
G02*
X211145001Y-86298000I-249999J0D01*
G01*
X210494999Y-86298000D01*
G75*
G02*
X210245000Y-86048001I0J249999D01*
G01*
G37*
%TD.AperFunction*%
%TO.P,R2,1*%
%TO.N,Net-(C4-Pad2)*%
%TA.AperFunction,SMDPad,CuDef*%
G36*
G01*
X208195000Y-86048001D02*
X208195000Y-85147999D01*
G75*
G02*
X208444999Y-84898000I249999J0D01*
G01*
X209095001Y-84898000D01*
G75*
G02*
X209345000Y-85147999I0J-249999D01*
G01*
X209345000Y-86048001D01*
G75*
G02*
X209095001Y-86298000I-249999J0D01*
G01*
X208444999Y-86298000D01*
G75*
G02*
X208195000Y-86048001I0J249999D01*
G01*
G37*
%TD.AperFunction*%
%TD*%
%TO.P,U1,16*%
%TO.N,Net-(J2-Pad1)*%
%TA.AperFunction,SMDPad,CuDef*%
G36*
G01*
X184372620Y-71175000D02*
X184372620Y-70975000D01*
G75*
G02*
X184472620Y-70875000I100000J0D01*
G01*
X185747620Y-70875000D01*
G75*
G02*
X185847620Y-70975000I0J-100000D01*
G01*
X185847620Y-71175000D01*
G75*
G02*
X185747620Y-71275000I-100000J0D01*
G01*
X184472620Y-71275000D01*
G75*
G02*
X184372620Y-71175000I0J100000D01*
G01*
G37*
%TD.AperFunction*%
%TO.P,U1,15*%
%TO.N,Net-(J2-Pad2)*%
%TA.AperFunction,SMDPad,CuDef*%
G36*
G01*
X184372620Y-71825000D02*
X184372620Y-71625000D01*
G75*
G02*
X184472620Y-71525000I100000J0D01*
G01*
X185747620Y-71525000D01*
G75*
G02*
X185847620Y-71625000I0J-100000D01*
G01*
X185847620Y-71825000D01*
G75*
G02*
X185747620Y-71925000I-100000J0D01*
G01*
X184472620Y-71925000D01*
G75*
G02*
X184372620Y-71825000I0J100000D01*
G01*
G37*
%TD.AperFunction*%
%TO.P,U1,14*%
%TO.N,GND*%
%TA.AperFunction,SMDPad,CuDef*%
G36*
G01*
X184372620Y-72475000D02*
X184372620Y-72275000D01*
G75*
G02*
X184472620Y-72175000I100000J0D01*
G01*
X185747620Y-72175000D01*
G75*
G02*
X185847620Y-72275000I0J-100000D01*
G01*
X185847620Y-72475000D01*
G75*
G02*
X185747620Y-72575000I-100000J0D01*
G01*
X184472620Y-72575000D01*
G75*
G02*
X184372620Y-72475000I0J100000D01*
G01*
G37*
%TD.AperFunction*%
%TO.P,U1,13*%
%TO.N,/sheet5F77FFF0/SIG*%
%TA.AperFunction,SMDPad,CuDef*%
G36*
G01*
X184372620Y-73125000D02*
X184372620Y-72925000D01*
G75*
G02*
X184472620Y-72825000I100000J0D01*
G01*
X185747620Y-72825000D01*
G75*
G02*
X185847620Y-72925000I0J-100000D01*
G01*
X185847620Y-73125000D01*
G75*
G02*
X185747620Y-73225000I-100000J0D01*
G01*
X184472620Y-73225000D01*
G75*
G02*
X184372620Y-73125000I0J100000D01*
G01*
G37*
%TD.AperFunction*%
%TO.P,U1,12*%
%TO.N,/sheet5F780C4A/SIG*%
%TA.AperFunction,SMDPad,CuDef*%
G36*
G01*
X184372620Y-73775000D02*
X184372620Y-73575000D01*
G75*
G02*
X184472620Y-73475000I100000J0D01*
G01*
X185747620Y-73475000D01*
G75*
G02*
X185847620Y-73575000I0J-100000D01*
G01*
X185847620Y-73775000D01*
G75*
G02*
X185747620Y-73875000I-100000J0D01*
G01*
X184472620Y-73875000D01*
G75*
G02*
X184372620Y-73775000I0J100000D01*
G01*
G37*
%TD.AperFunction*%
%TO.P,U1,11*%
%TO.N,/CH6*%
%TA.AperFunction,SMDPad,CuDef*%
G36*
G01*
X184372620Y-74425000D02*
X184372620Y-74225000D01*
G75*
G02*
X184472620Y-74125000I100000J0D01*
G01*
X185747620Y-74125000D01*
G75*
G02*
X185847620Y-74225000I0J-100000D01*
G01*
X185847620Y-74425000D01*
G75*
G02*
X185747620Y-74525000I-100000J0D01*
G01*
X184472620Y-74525000D01*
G75*
G02*
X184372620Y-74425000I0J100000D01*
G01*
G37*
%TD.AperFunction*%
%TO.P,U1,10*%
%TO.N,/CH8*%
%TA.AperFunction,SMDPad,CuDef*%
G36*
G01*
X184372620Y-75075000D02*
X184372620Y-74875000D01*
G75*
G02*
X184472620Y-74775000I100000J0D01*
G01*
X185747620Y-74775000D01*
G75*
G02*
X185847620Y-74875000I0J-100000D01*
G01*
X185847620Y-75075000D01*
G75*
G02*
X185747620Y-75175000I-100000J0D01*
G01*
X184472620Y-75175000D01*
G75*
G02*
X184372620Y-75075000I0J100000D01*
G01*
G37*
%TD.AperFunction*%
%TO.P,U1,9*%
%TO.N,VCC*%
%TA.AperFunction,SMDPad,CuDef*%
G36*
G01*
X184372620Y-75725000D02*
X184372620Y-75525000D01*
G75*
G02*
X184472620Y-75425000I100000J0D01*
G01*
X185747620Y-75425000D01*
G75*
G02*
X185847620Y-75525000I0J-100000D01*
G01*
X185847620Y-75725000D01*
G75*
G02*
X185747620Y-75825000I-100000J0D01*
G01*
X184472620Y-75825000D01*
G75*
G02*
X184372620Y-75725000I0J100000D01*
G01*
G37*
%TD.AperFunction*%
%TO.P,U1,8*%
%TO.N,Net-(C3-Pad1)*%
%TA.AperFunction,SMDPad,CuDef*%
G36*
G01*
X178647620Y-75725000D02*
X178647620Y-75525000D01*
G75*
G02*
X178747620Y-75425000I100000J0D01*
G01*
X180022620Y-75425000D01*
G75*
G02*
X180122620Y-75525000I0J-100000D01*
G01*
X180122620Y-75725000D01*
G75*
G02*
X180022620Y-75825000I-100000J0D01*
G01*
X178747620Y-75825000D01*
G75*
G02*
X178647620Y-75725000I0J100000D01*
G01*
G37*
%TD.AperFunction*%
%TO.P,U1,7*%
%TO.N,/CH7*%
%TA.AperFunction,SMDPad,CuDef*%
G36*
G01*
X178647620Y-75075000D02*
X178647620Y-74875000D01*
G75*
G02*
X178747620Y-74775000I100000J0D01*
G01*
X180022620Y-74775000D01*
G75*
G02*
X180122620Y-74875000I0J-100000D01*
G01*
X180122620Y-75075000D01*
G75*
G02*
X180022620Y-75175000I-100000J0D01*
G01*
X178747620Y-75175000D01*
G75*
G02*
X178647620Y-75075000I0J100000D01*
G01*
G37*
%TD.AperFunction*%
%TO.P,U1,6*%
%TO.N,/CH5*%
%TA.AperFunction,SMDPad,CuDef*%
G36*
G01*
X178647620Y-74425000D02*
X178647620Y-74225000D01*
G75*
G02*
X178747620Y-74125000I100000J0D01*
G01*
X180022620Y-74125000D01*
G75*
G02*
X180122620Y-74225000I0J-100000D01*
G01*
X180122620Y-74425000D01*
G75*
G02*
X180022620Y-74525000I-100000J0D01*
G01*
X178747620Y-74525000D01*
G75*
G02*
X178647620Y-74425000I0J100000D01*
G01*
G37*
%TD.AperFunction*%
%TO.P,U1,5*%
%TO.N,/sheet5F78069E/SIG*%
%TA.AperFunction,SMDPad,CuDef*%
G36*
G01*
X178647620Y-73775000D02*
X178647620Y-73575000D01*
G75*
G02*
X178747620Y-73475000I100000J0D01*
G01*
X180022620Y-73475000D01*
G75*
G02*
X180122620Y-73575000I0J-100000D01*
G01*
X180122620Y-73775000D01*
G75*
G02*
X180022620Y-73875000I-100000J0D01*
G01*
X178747620Y-73875000D01*
G75*
G02*
X178647620Y-73775000I0J100000D01*
G01*
G37*
%TD.AperFunction*%
%TO.P,U1,4*%
%TO.N,/opampdriver/SIG*%
%TA.AperFunction,SMDPad,CuDef*%
G36*
G01*
X178647620Y-73125000D02*
X178647620Y-72925000D01*
G75*
G02*
X178747620Y-72825000I100000J0D01*
G01*
X180022620Y-72825000D01*
G75*
G02*
X180122620Y-72925000I0J-100000D01*
G01*
X180122620Y-73125000D01*
G75*
G02*
X180022620Y-73225000I-100000J0D01*
G01*
X178747620Y-73225000D01*
G75*
G02*
X178647620Y-73125000I0J100000D01*
G01*
G37*
%TD.AperFunction*%
%TO.P,U1,3*%
%TO.N,VCC*%
%TA.AperFunction,SMDPad,CuDef*%
G36*
G01*
X178647620Y-72475000D02*
X178647620Y-72275000D01*
G75*
G02*
X178747620Y-72175000I100000J0D01*
G01*
X180022620Y-72175000D01*
G75*
G02*
X180122620Y-72275000I0J-100000D01*
G01*
X180122620Y-72475000D01*
G75*
G02*
X180022620Y-72575000I-100000J0D01*
G01*
X178747620Y-72575000D01*
G75*
G02*
X178647620Y-72475000I0J100000D01*
G01*
G37*
%TD.AperFunction*%
%TO.P,U1,2*%
%TO.N,Net-(J2-Pad4)*%
%TA.AperFunction,SMDPad,CuDef*%
G36*
G01*
X178647620Y-71825000D02*
X178647620Y-71625000D01*
G75*
G02*
X178747620Y-71525000I100000J0D01*
G01*
X180022620Y-71525000D01*
G75*
G02*
X180122620Y-71625000I0J-100000D01*
G01*
X180122620Y-71825000D01*
G75*
G02*
X180022620Y-71925000I-100000J0D01*
G01*
X178747620Y-71925000D01*
G75*
G02*
X178647620Y-71825000I0J100000D01*
G01*
G37*
%TD.AperFunction*%
%TO.P,U1,1*%
%TO.N,GND*%
%TA.AperFunction,SMDPad,CuDef*%
G36*
G01*
X178647620Y-71175000D02*
X178647620Y-70975000D01*
G75*
G02*
X178747620Y-70875000I100000J0D01*
G01*
X180022620Y-70875000D01*
G75*
G02*
X180122620Y-70975000I0J-100000D01*
G01*
X180122620Y-71175000D01*
G75*
G02*
X180022620Y-71275000I-100000J0D01*
G01*
X178747620Y-71275000D01*
G75*
G02*
X178647620Y-71175000I0J100000D01*
G01*
G37*
%TD.AperFunction*%
%TD*%
D10*
%TO.P,U2,3*%
%TO.N,GND*%
X187960000Y-86360000D03*
%TO.P,U2,2*%
%TO.N,/opampdriver/BIAS*%
X185960000Y-87310000D03*
%TO.P,U2,1*%
%TO.N,VCC*%
X185960000Y-85410000D03*
%TD*%
%TO.P,R21,2*%
%TO.N,Net-(J2-Pad1)*%
%TA.AperFunction,SMDPad,CuDef*%
G36*
G01*
X183355400Y-69538001D02*
X183355400Y-68637999D01*
G75*
G02*
X183605399Y-68388000I249999J0D01*
G01*
X184255401Y-68388000D01*
G75*
G02*
X184505400Y-68637999I0J-249999D01*
G01*
X184505400Y-69538001D01*
G75*
G02*
X184255401Y-69788000I-249999J0D01*
G01*
X183605399Y-69788000D01*
G75*
G02*
X183355400Y-69538001I0J249999D01*
G01*
G37*
%TD.AperFunction*%
%TO.P,R21,1*%
%TO.N,VCC*%
%TA.AperFunction,SMDPad,CuDef*%
G36*
G01*
X181305400Y-69538001D02*
X181305400Y-68637999D01*
G75*
G02*
X181555399Y-68388000I249999J0D01*
G01*
X182205401Y-68388000D01*
G75*
G02*
X182455400Y-68637999I0J-249999D01*
G01*
X182455400Y-69538001D01*
G75*
G02*
X182205401Y-69788000I-249999J0D01*
G01*
X181555399Y-69788000D01*
G75*
G02*
X181305400Y-69538001I0J249999D01*
G01*
G37*
%TD.AperFunction*%
%TD*%
%TO.P,C8,2*%
%TO.N,GND*%
%TA.AperFunction,SMDPad,CuDef*%
G36*
G01*
X183330001Y-85910000D02*
X182429999Y-85910000D01*
G75*
G02*
X182180000Y-85660001I0J249999D01*
G01*
X182180000Y-85009999D01*
G75*
G02*
X182429999Y-84760000I249999J0D01*
G01*
X183330001Y-84760000D01*
G75*
G02*
X183580000Y-85009999I0J-249999D01*
G01*
X183580000Y-85660001D01*
G75*
G02*
X183330001Y-85910000I-249999J0D01*
G01*
G37*
%TD.AperFunction*%
%TO.P,C8,1*%
%TO.N,/opampdriver/BIAS*%
%TA.AperFunction,SMDPad,CuDef*%
G36*
G01*
X183330001Y-87960000D02*
X182429999Y-87960000D01*
G75*
G02*
X182180000Y-87710001I0J249999D01*
G01*
X182180000Y-87059999D01*
G75*
G02*
X182429999Y-86810000I249999J0D01*
G01*
X183330001Y-86810000D01*
G75*
G02*
X183580000Y-87059999I0J-249999D01*
G01*
X183580000Y-87710001D01*
G75*
G02*
X183330001Y-87960000I-249999J0D01*
G01*
G37*
%TD.AperFunction*%
%TD*%
D11*
%TO.P,J2,6*%
%TO.N,VCC*%
X173990000Y-81280000D03*
%TO.P,J2,5*%
%TO.N,GND*%
X173990000Y-78740000D03*
%TO.P,J2,4*%
%TO.N,Net-(J2-Pad4)*%
X173990000Y-76200000D03*
%TO.P,J2,3*%
%TO.N,Net-(J2-Pad3)*%
X173990000Y-73660000D03*
%TO.P,J2,2*%
%TO.N,Net-(J2-Pad2)*%
X173990000Y-71120000D03*
D12*
%TO.P,J2,1*%
%TO.N,Net-(J2-Pad1)*%
X173990000Y-68580000D03*
%TD*%
D13*
%TO.P,J8,T*%
%TO.N,/opampdriver/OUT*%
X205850000Y-67395000D03*
D14*
%TO.P,J8,S*%
%TO.N,GND*%
X205850000Y-57995000D03*
%TO.P,J8,R*%
%TO.N,N/C*%
X213250000Y-59995000D03*
%TD*%
D13*
%TO.P,J7,T*%
%TO.N,/sheet5F780C4A/OUT*%
X240140000Y-67395000D03*
D14*
%TO.P,J7,S*%
%TO.N,GND*%
X240140000Y-57995000D03*
%TO.P,J7,R*%
%TO.N,N/C*%
X247540000Y-59995000D03*
%TD*%
D13*
%TO.P,J6,T*%
%TO.N,/sheet5F78069E/OUT*%
X228710000Y-67395000D03*
D14*
%TO.P,J6,S*%
%TO.N,GND*%
X228710000Y-57995000D03*
%TO.P,J6,R*%
%TO.N,N/C*%
X236110000Y-59995000D03*
%TD*%
D13*
%TO.P,J5,T*%
%TO.N,/sheet5F77FFF0/OUT*%
X217280000Y-67395000D03*
D14*
%TO.P,J5,S*%
%TO.N,GND*%
X217280000Y-57995000D03*
%TO.P,J5,R*%
%TO.N,N/C*%
X224680000Y-59995000D03*
%TD*%
D15*
%TO.P,U6,17*%
%TO.N,N/C*%
X247695000Y-79360000D03*
%TO.P,U6,16*%
X247695000Y-80660000D03*
%TO.P,U6,15*%
X246395000Y-79360000D03*
%TO.P,U6,14*%
X246395000Y-80660000D03*
%TO.P,U6,13*%
X245095000Y-79360000D03*
%TO.P,U6,12*%
X245095000Y-80660000D03*
%TO.P,U6,11*%
X243795000Y-79360000D03*
%TO.P,U6,10*%
X243795000Y-80660000D03*
D16*
%TD*%
%TO.N,Net-(U6-Pad9)*%
%TO.C,U6*%
X245745000Y-80010000D03*
D17*
%TO.P,U6,8*%
%TO.N,Net-(R16-Pad2)*%
X243840000Y-77310000D03*
%TO.P,U6,7*%
%TO.N,+VDC*%
X245110000Y-77310000D03*
%TO.P,U6,6*%
%TO.N,/sheet5F780C4A/OUT*%
X246380000Y-77310000D03*
%TO.P,U6,5*%
%TO.N,Net-(U6-Pad5)*%
X247650000Y-77310000D03*
%TO.P,U6,4*%
%TO.N,-VDC*%
X247650000Y-82710000D03*
%TO.P,U6,3*%
%TO.N,/opampdriver/BIAS*%
X246380000Y-82710000D03*
%TO.P,U6,2*%
%TO.N,Net-(C7-Pad2)*%
X245110000Y-82710000D03*
%TO.P,U6,1*%
%TO.N,Net-(R18-Pad1)*%
X243840000Y-82710000D03*
%TD*%
D15*
%TO.P,U5,17*%
%TO.N,N/C*%
X236265000Y-78725000D03*
%TO.P,U5,16*%
X236265000Y-80025000D03*
%TO.P,U5,15*%
X234965000Y-78725000D03*
%TO.P,U5,14*%
X234965000Y-80025000D03*
%TO.P,U5,13*%
X233665000Y-78725000D03*
%TO.P,U5,12*%
X233665000Y-80025000D03*
%TO.P,U5,11*%
X232365000Y-78725000D03*
%TO.P,U5,10*%
X232365000Y-80025000D03*
D16*
%TD*%
%TO.N,Net-(U5-Pad9)*%
%TO.C,U5*%
X234315000Y-79375000D03*
D17*
%TO.P,U5,8*%
%TO.N,Net-(R11-Pad2)*%
X232410000Y-76675000D03*
%TO.P,U5,7*%
%TO.N,+VDC*%
X233680000Y-76675000D03*
%TO.P,U5,6*%
%TO.N,/sheet5F78069E/OUT*%
X234950000Y-76675000D03*
%TO.P,U5,5*%
%TO.N,Net-(U5-Pad5)*%
X236220000Y-76675000D03*
%TO.P,U5,4*%
%TO.N,-VDC*%
X236220000Y-82075000D03*
%TO.P,U5,3*%
%TO.N,/opampdriver/BIAS*%
X234950000Y-82075000D03*
%TO.P,U5,2*%
%TO.N,Net-(C6-Pad2)*%
X233680000Y-82075000D03*
%TO.P,U5,1*%
%TO.N,Net-(R13-Pad1)*%
X232410000Y-82075000D03*
%TD*%
D15*
%TO.P,U4,17*%
%TO.N,N/C*%
X224835000Y-79360000D03*
%TO.P,U4,16*%
X224835000Y-80660000D03*
%TO.P,U4,15*%
X223535000Y-79360000D03*
%TO.P,U4,14*%
X223535000Y-80660000D03*
%TO.P,U4,13*%
X222235000Y-79360000D03*
%TO.P,U4,12*%
X222235000Y-80660000D03*
%TO.P,U4,11*%
X220935000Y-79360000D03*
%TO.P,U4,10*%
X220935000Y-80660000D03*
D16*
%TD*%
%TO.N,Net-(U4-Pad9)*%
%TO.C,U4*%
X222885000Y-80010000D03*
D17*
%TO.P,U4,8*%
%TO.N,Net-(R6-Pad2)*%
X220980000Y-77310000D03*
%TO.P,U4,7*%
%TO.N,+VDC*%
X222250000Y-77310000D03*
%TO.P,U4,6*%
%TO.N,/sheet5F77FFF0/OUT*%
X223520000Y-77310000D03*
%TO.P,U4,5*%
%TO.N,Net-(U4-Pad5)*%
X224790000Y-77310000D03*
%TO.P,U4,4*%
%TO.N,-VDC*%
X224790000Y-82710000D03*
%TO.P,U4,3*%
%TO.N,/opampdriver/BIAS*%
X223520000Y-82710000D03*
%TO.P,U4,2*%
%TO.N,Net-(C5-Pad2)*%
X222250000Y-82710000D03*
%TO.P,U4,1*%
%TO.N,Net-(R8-Pad1)*%
X220980000Y-82710000D03*
%TD*%
D15*
%TO.P,U3,17*%
%TO.N,N/C*%
X213405000Y-79360000D03*
%TO.P,U3,16*%
X213405000Y-80660000D03*
%TO.P,U3,15*%
X212105000Y-79360000D03*
%TO.P,U3,14*%
X212105000Y-80660000D03*
%TO.P,U3,13*%
X210805000Y-79360000D03*
%TO.P,U3,12*%
X210805000Y-80660000D03*
%TO.P,U3,11*%
X209505000Y-79360000D03*
%TO.P,U3,10*%
X209505000Y-80660000D03*
D16*
%TD*%
%TO.N,Net-(U3-Pad9)*%
%TO.C,U3*%
X211455000Y-80010000D03*
D17*
%TO.P,U3,8*%
%TO.N,Net-(R1-Pad2)*%
X209550000Y-77310000D03*
%TO.P,U3,7*%
%TO.N,+VDC*%
X210820000Y-77310000D03*
%TO.P,U3,6*%
%TO.N,/opampdriver/OUT*%
X212090000Y-77310000D03*
%TO.P,U3,5*%
%TO.N,Net-(U3-Pad5)*%
X213360000Y-77310000D03*
%TO.P,U3,4*%
%TO.N,-VDC*%
X213360000Y-82710000D03*
%TO.P,U3,3*%
%TO.N,/opampdriver/BIAS*%
X212090000Y-82710000D03*
%TO.P,U3,2*%
%TO.N,Net-(C4-Pad2)*%
X210820000Y-82710000D03*
%TO.P,U3,1*%
%TO.N,Net-(R3-Pad1)*%
X209550000Y-82710000D03*
%TD*%
%TO.P,R19,2*%
%TO.N,Net-(C7-Pad2)*%
%TA.AperFunction,SMDPad,CuDef*%
G36*
G01*
X239833999Y-73475000D02*
X240734001Y-73475000D01*
G75*
G02*
X240984000Y-73724999I0J-249999D01*
G01*
X240984000Y-74375001D01*
G75*
G02*
X240734001Y-74625000I-249999J0D01*
G01*
X239833999Y-74625000D01*
G75*
G02*
X239584000Y-74375001I0J249999D01*
G01*
X239584000Y-73724999D01*
G75*
G02*
X239833999Y-73475000I249999J0D01*
G01*
G37*
%TD.AperFunction*%
%TO.P,R19,1*%
%TO.N,/sheet5F780C4A/OUT*%
%TA.AperFunction,SMDPad,CuDef*%
G36*
G01*
X239833999Y-71425000D02*
X240734001Y-71425000D01*
G75*
G02*
X240984000Y-71674999I0J-249999D01*
G01*
X240984000Y-72325001D01*
G75*
G02*
X240734001Y-72575000I-249999J0D01*
G01*
X239833999Y-72575000D01*
G75*
G02*
X239584000Y-72325001I0J249999D01*
G01*
X239584000Y-71674999D01*
G75*
G02*
X239833999Y-71425000I249999J0D01*
G01*
G37*
%TD.AperFunction*%
%TD*%
%TO.P,R18,2*%
%TO.N,-VDC*%
%TA.AperFunction,SMDPad,CuDef*%
G36*
G01*
X239579999Y-82365000D02*
X240480001Y-82365000D01*
G75*
G02*
X240730000Y-82614999I0J-249999D01*
G01*
X240730000Y-83265001D01*
G75*
G02*
X240480001Y-83515000I-249999J0D01*
G01*
X239579999Y-83515000D01*
G75*
G02*
X239330000Y-83265001I0J249999D01*
G01*
X239330000Y-82614999D01*
G75*
G02*
X239579999Y-82365000I249999J0D01*
G01*
G37*
%TD.AperFunction*%
%TO.P,R18,1*%
%TO.N,Net-(R18-Pad1)*%
%TA.AperFunction,SMDPad,CuDef*%
G36*
G01*
X239579999Y-80315000D02*
X240480001Y-80315000D01*
G75*
G02*
X240730000Y-80564999I0J-249999D01*
G01*
X240730000Y-81215001D01*
G75*
G02*
X240480001Y-81465000I-249999J0D01*
G01*
X239579999Y-81465000D01*
G75*
G02*
X239330000Y-81215001I0J249999D01*
G01*
X239330000Y-80564999D01*
G75*
G02*
X239579999Y-80315000I249999J0D01*
G01*
G37*
%TD.AperFunction*%
%TD*%
%TO.P,R17,2*%
%TO.N,/sheet5F780C4A/SIG*%
%TA.AperFunction,SMDPad,CuDef*%
G36*
G01*
X244544000Y-86048001D02*
X244544000Y-85147999D01*
G75*
G02*
X244793999Y-84898000I249999J0D01*
G01*
X245444001Y-84898000D01*
G75*
G02*
X245694000Y-85147999I0J-249999D01*
G01*
X245694000Y-86048001D01*
G75*
G02*
X245444001Y-86298000I-249999J0D01*
G01*
X244793999Y-86298000D01*
G75*
G02*
X244544000Y-86048001I0J249999D01*
G01*
G37*
%TD.AperFunction*%
%TO.P,R17,1*%
%TO.N,Net-(C7-Pad2)*%
%TA.AperFunction,SMDPad,CuDef*%
G36*
G01*
X242494000Y-86048001D02*
X242494000Y-85147999D01*
G75*
G02*
X242743999Y-84898000I249999J0D01*
G01*
X243394001Y-84898000D01*
G75*
G02*
X243644000Y-85147999I0J-249999D01*
G01*
X243644000Y-86048001D01*
G75*
G02*
X243394001Y-86298000I-249999J0D01*
G01*
X242743999Y-86298000D01*
G75*
G02*
X242494000Y-86048001I0J249999D01*
G01*
G37*
%TD.AperFunction*%
%TD*%
%TO.P,R16,2*%
%TO.N,Net-(R16-Pad2)*%
%TA.AperFunction,SMDPad,CuDef*%
G36*
G01*
X240480001Y-77020000D02*
X239579999Y-77020000D01*
G75*
G02*
X239330000Y-76770001I0J249999D01*
G01*
X239330000Y-76119999D01*
G75*
G02*
X239579999Y-75870000I249999J0D01*
G01*
X240480001Y-75870000D01*
G75*
G02*
X240730000Y-76119999I0J-249999D01*
G01*
X240730000Y-76770001D01*
G75*
G02*
X240480001Y-77020000I-249999J0D01*
G01*
G37*
%TD.AperFunction*%
%TO.P,R16,1*%
%TO.N,+VDC*%
%TA.AperFunction,SMDPad,CuDef*%
G36*
G01*
X240480001Y-79070000D02*
X239579999Y-79070000D01*
G75*
G02*
X239330000Y-78820001I0J249999D01*
G01*
X239330000Y-78169999D01*
G75*
G02*
X239579999Y-77920000I249999J0D01*
G01*
X240480001Y-77920000D01*
G75*
G02*
X240730000Y-78169999I0J-249999D01*
G01*
X240730000Y-78820001D01*
G75*
G02*
X240480001Y-79070000I-249999J0D01*
G01*
G37*
%TD.AperFunction*%
%TD*%
%TO.P,R14,2*%
%TO.N,Net-(C6-Pad2)*%
%TA.AperFunction,SMDPad,CuDef*%
G36*
G01*
X228149999Y-73339000D02*
X229050001Y-73339000D01*
G75*
G02*
X229300000Y-73588999I0J-249999D01*
G01*
X229300000Y-74239001D01*
G75*
G02*
X229050001Y-74489000I-249999J0D01*
G01*
X228149999Y-74489000D01*
G75*
G02*
X227900000Y-74239001I0J249999D01*
G01*
X227900000Y-73588999D01*
G75*
G02*
X228149999Y-73339000I249999J0D01*
G01*
G37*
%TD.AperFunction*%
%TO.P,R14,1*%
%TO.N,/sheet5F78069E/OUT*%
%TA.AperFunction,SMDPad,CuDef*%
G36*
G01*
X228149999Y-71289000D02*
X229050001Y-71289000D01*
G75*
G02*
X229300000Y-71538999I0J-249999D01*
G01*
X229300000Y-72189001D01*
G75*
G02*
X229050001Y-72439000I-249999J0D01*
G01*
X228149999Y-72439000D01*
G75*
G02*
X227900000Y-72189001I0J249999D01*
G01*
X227900000Y-71538999D01*
G75*
G02*
X228149999Y-71289000I249999J0D01*
G01*
G37*
%TD.AperFunction*%
%TD*%
%TO.P,R13,2*%
%TO.N,-VDC*%
%TA.AperFunction,SMDPad,CuDef*%
G36*
G01*
X228149999Y-83000000D02*
X229050001Y-83000000D01*
G75*
G02*
X229300000Y-83249999I0J-249999D01*
G01*
X229300000Y-83900001D01*
G75*
G02*
X229050001Y-84150000I-249999J0D01*
G01*
X228149999Y-84150000D01*
G75*
G02*
X227900000Y-83900001I0J249999D01*
G01*
X227900000Y-83249999D01*
G75*
G02*
X228149999Y-83000000I249999J0D01*
G01*
G37*
%TD.AperFunction*%
%TO.P,R13,1*%
%TO.N,Net-(R13-Pad1)*%
%TA.AperFunction,SMDPad,CuDef*%
G36*
G01*
X228149999Y-80950000D02*
X229050001Y-80950000D01*
G75*
G02*
X229300000Y-81199999I0J-249999D01*
G01*
X229300000Y-81850001D01*
G75*
G02*
X229050001Y-82100000I-249999J0D01*
G01*
X228149999Y-82100000D01*
G75*
G02*
X227900000Y-81850001I0J249999D01*
G01*
X227900000Y-81199999D01*
G75*
G02*
X228149999Y-80950000I249999J0D01*
G01*
G37*
%TD.AperFunction*%
%TD*%
%TO.P,R12,2*%
%TO.N,/sheet5F78069E/SIG*%
%TA.AperFunction,SMDPad,CuDef*%
G36*
G01*
X233105000Y-86048001D02*
X233105000Y-85147999D01*
G75*
G02*
X233354999Y-84898000I249999J0D01*
G01*
X234005001Y-84898000D01*
G75*
G02*
X234255000Y-85147999I0J-249999D01*
G01*
X234255000Y-86048001D01*
G75*
G02*
X234005001Y-86298000I-249999J0D01*
G01*
X233354999Y-86298000D01*
G75*
G02*
X233105000Y-86048001I0J249999D01*
G01*
G37*
%TD.AperFunction*%
%TO.P,R12,1*%
%TO.N,Net-(C6-Pad2)*%
%TA.AperFunction,SMDPad,CuDef*%
G36*
G01*
X231055000Y-86048001D02*
X231055000Y-85147999D01*
G75*
G02*
X231304999Y-84898000I249999J0D01*
G01*
X231955001Y-84898000D01*
G75*
G02*
X232205000Y-85147999I0J-249999D01*
G01*
X232205000Y-86048001D01*
G75*
G02*
X231955001Y-86298000I-249999J0D01*
G01*
X231304999Y-86298000D01*
G75*
G02*
X231055000Y-86048001I0J249999D01*
G01*
G37*
%TD.AperFunction*%
%TD*%
%TO.P,R11,2*%
%TO.N,Net-(R11-Pad2)*%
%TA.AperFunction,SMDPad,CuDef*%
G36*
G01*
X229050001Y-77655000D02*
X228149999Y-77655000D01*
G75*
G02*
X227900000Y-77405001I0J249999D01*
G01*
X227900000Y-76754999D01*
G75*
G02*
X228149999Y-76505000I249999J0D01*
G01*
X229050001Y-76505000D01*
G75*
G02*
X229300000Y-76754999I0J-249999D01*
G01*
X229300000Y-77405001D01*
G75*
G02*
X229050001Y-77655000I-249999J0D01*
G01*
G37*
%TD.AperFunction*%
%TO.P,R11,1*%
%TO.N,+VDC*%
%TA.AperFunction,SMDPad,CuDef*%
G36*
G01*
X229050001Y-79705000D02*
X228149999Y-79705000D01*
G75*
G02*
X227900000Y-79455001I0J249999D01*
G01*
X227900000Y-78804999D01*
G75*
G02*
X228149999Y-78555000I249999J0D01*
G01*
X229050001Y-78555000D01*
G75*
G02*
X229300000Y-78804999I0J-249999D01*
G01*
X229300000Y-79455001D01*
G75*
G02*
X229050001Y-79705000I-249999J0D01*
G01*
G37*
%TD.AperFunction*%
%TD*%
%TO.P,R9,2*%
%TO.N,Net-(C5-Pad2)*%
%TA.AperFunction,SMDPad,CuDef*%
G36*
G01*
X216719999Y-73475000D02*
X217620001Y-73475000D01*
G75*
G02*
X217870000Y-73724999I0J-249999D01*
G01*
X217870000Y-74375001D01*
G75*
G02*
X217620001Y-74625000I-249999J0D01*
G01*
X216719999Y-74625000D01*
G75*
G02*
X216470000Y-74375001I0J249999D01*
G01*
X216470000Y-73724999D01*
G75*
G02*
X216719999Y-73475000I249999J0D01*
G01*
G37*
%TD.AperFunction*%
%TO.P,R9,1*%
%TO.N,/sheet5F77FFF0/OUT*%
%TA.AperFunction,SMDPad,CuDef*%
G36*
G01*
X216719999Y-71425000D02*
X217620001Y-71425000D01*
G75*
G02*
X217870000Y-71674999I0J-249999D01*
G01*
X217870000Y-72325001D01*
G75*
G02*
X217620001Y-72575000I-249999J0D01*
G01*
X216719999Y-72575000D01*
G75*
G02*
X216470000Y-72325001I0J249999D01*
G01*
X216470000Y-71674999D01*
G75*
G02*
X216719999Y-71425000I249999J0D01*
G01*
G37*
%TD.AperFunction*%
%TD*%
%TO.P,R8,2*%
%TO.N,-VDC*%
%TA.AperFunction,SMDPad,CuDef*%
G36*
G01*
X216719999Y-83000000D02*
X217620001Y-83000000D01*
G75*
G02*
X217870000Y-83249999I0J-249999D01*
G01*
X217870000Y-83900001D01*
G75*
G02*
X217620001Y-84150000I-249999J0D01*
G01*
X216719999Y-84150000D01*
G75*
G02*
X216470000Y-83900001I0J249999D01*
G01*
X216470000Y-83249999D01*
G75*
G02*
X216719999Y-83000000I249999J0D01*
G01*
G37*
%TD.AperFunction*%
%TO.P,R8,1*%
%TO.N,Net-(R8-Pad1)*%
%TA.AperFunction,SMDPad,CuDef*%
G36*
G01*
X216719999Y-80950000D02*
X217620001Y-80950000D01*
G75*
G02*
X217870000Y-81199999I0J-249999D01*
G01*
X217870000Y-81850001D01*
G75*
G02*
X217620001Y-82100000I-249999J0D01*
G01*
X216719999Y-82100000D01*
G75*
G02*
X216470000Y-81850001I0J249999D01*
G01*
X216470000Y-81199999D01*
G75*
G02*
X216719999Y-80950000I249999J0D01*
G01*
G37*
%TD.AperFunction*%
%TD*%
%TO.P,R7,2*%
%TO.N,/sheet5F77FFF0/SIG*%
%TA.AperFunction,SMDPad,CuDef*%
G36*
G01*
X221675000Y-86048001D02*
X221675000Y-85147999D01*
G75*
G02*
X221924999Y-84898000I249999J0D01*
G01*
X222575001Y-84898000D01*
G75*
G02*
X222825000Y-85147999I0J-249999D01*
G01*
X222825000Y-86048001D01*
G75*
G02*
X222575001Y-86298000I-249999J0D01*
G01*
X221924999Y-86298000D01*
G75*
G02*
X221675000Y-86048001I0J249999D01*
G01*
G37*
%TD.AperFunction*%
%TO.P,R7,1*%
%TO.N,Net-(C5-Pad2)*%
%TA.AperFunction,SMDPad,CuDef*%
G36*
G01*
X219625000Y-86048001D02*
X219625000Y-85147999D01*
G75*
G02*
X219874999Y-84898000I249999J0D01*
G01*
X220525001Y-84898000D01*
G75*
G02*
X220775000Y-85147999I0J-249999D01*
G01*
X220775000Y-86048001D01*
G75*
G02*
X220525001Y-86298000I-249999J0D01*
G01*
X219874999Y-86298000D01*
G75*
G02*
X219625000Y-86048001I0J249999D01*
G01*
G37*
%TD.AperFunction*%
%TD*%
%TO.P,R6,2*%
%TO.N,Net-(R6-Pad2)*%
%TA.AperFunction,SMDPad,CuDef*%
G36*
G01*
X217620001Y-77655000D02*
X216719999Y-77655000D01*
G75*
G02*
X216470000Y-77405001I0J249999D01*
G01*
X216470000Y-76754999D01*
G75*
G02*
X216719999Y-76505000I249999J0D01*
G01*
X217620001Y-76505000D01*
G75*
G02*
X217870000Y-76754999I0J-249999D01*
G01*
X217870000Y-77405001D01*
G75*
G02*
X217620001Y-77655000I-249999J0D01*
G01*
G37*
%TD.AperFunction*%
%TO.P,R6,1*%
%TO.N,+VDC*%
%TA.AperFunction,SMDPad,CuDef*%
G36*
G01*
X217620001Y-79705000D02*
X216719999Y-79705000D01*
G75*
G02*
X216470000Y-79455001I0J249999D01*
G01*
X216470000Y-78804999D01*
G75*
G02*
X216719999Y-78555000I249999J0D01*
G01*
X217620001Y-78555000D01*
G75*
G02*
X217870000Y-78804999I0J-249999D01*
G01*
X217870000Y-79455001D01*
G75*
G02*
X217620001Y-79705000I-249999J0D01*
G01*
G37*
%TD.AperFunction*%
%TD*%
%TO.P,R4,2*%
%TO.N,Net-(C4-Pad2)*%
%TA.AperFunction,SMDPad,CuDef*%
G36*
G01*
X205289999Y-74110000D02*
X206190001Y-74110000D01*
G75*
G02*
X206440000Y-74359999I0J-249999D01*
G01*
X206440000Y-75010001D01*
G75*
G02*
X206190001Y-75260000I-249999J0D01*
G01*
X205289999Y-75260000D01*
G75*
G02*
X205040000Y-75010001I0J249999D01*
G01*
X205040000Y-74359999D01*
G75*
G02*
X205289999Y-74110000I249999J0D01*
G01*
G37*
%TD.AperFunction*%
%TO.P,R4,1*%
%TO.N,/opampdriver/OUT*%
%TA.AperFunction,SMDPad,CuDef*%
G36*
G01*
X205289999Y-72060000D02*
X206190001Y-72060000D01*
G75*
G02*
X206440000Y-72309999I0J-249999D01*
G01*
X206440000Y-72960001D01*
G75*
G02*
X206190001Y-73210000I-249999J0D01*
G01*
X205289999Y-73210000D01*
G75*
G02*
X205040000Y-72960001I0J249999D01*
G01*
X205040000Y-72309999D01*
G75*
G02*
X205289999Y-72060000I249999J0D01*
G01*
G37*
%TD.AperFunction*%
%TD*%
%TO.P,R3,2*%
%TO.N,-VDC*%
%TA.AperFunction,SMDPad,CuDef*%
G36*
G01*
X205289999Y-83000000D02*
X206190001Y-83000000D01*
G75*
G02*
X206440000Y-83249999I0J-249999D01*
G01*
X206440000Y-83900001D01*
G75*
G02*
X206190001Y-84150000I-249999J0D01*
G01*
X205289999Y-84150000D01*
G75*
G02*
X205040000Y-83900001I0J249999D01*
G01*
X205040000Y-83249999D01*
G75*
G02*
X205289999Y-83000000I249999J0D01*
G01*
G37*
%TD.AperFunction*%
%TO.P,R3,1*%
%TO.N,Net-(R3-Pad1)*%
%TA.AperFunction,SMDPad,CuDef*%
G36*
G01*
X205289999Y-80950000D02*
X206190001Y-80950000D01*
G75*
G02*
X206440000Y-81199999I0J-249999D01*
G01*
X206440000Y-81850001D01*
G75*
G02*
X206190001Y-82100000I-249999J0D01*
G01*
X205289999Y-82100000D01*
G75*
G02*
X205040000Y-81850001I0J249999D01*
G01*
X205040000Y-81199999D01*
G75*
G02*
X205289999Y-80950000I249999J0D01*
G01*
G37*
%TD.AperFunction*%
%TD*%
%TO.P,R1,2*%
%TO.N,Net-(R1-Pad2)*%
%TA.AperFunction,SMDPad,CuDef*%
G36*
G01*
X206190001Y-77655000D02*
X205289999Y-77655000D01*
G75*
G02*
X205040000Y-77405001I0J249999D01*
G01*
X205040000Y-76754999D01*
G75*
G02*
X205289999Y-76505000I249999J0D01*
G01*
X206190001Y-76505000D01*
G75*
G02*
X206440000Y-76754999I0J-249999D01*
G01*
X206440000Y-77405001D01*
G75*
G02*
X206190001Y-77655000I-249999J0D01*
G01*
G37*
%TD.AperFunction*%
%TO.P,R1,1*%
%TO.N,+VDC*%
%TA.AperFunction,SMDPad,CuDef*%
G36*
G01*
X206190001Y-79705000D02*
X205289999Y-79705000D01*
G75*
G02*
X205040000Y-79455001I0J249999D01*
G01*
X205040000Y-78804999D01*
G75*
G02*
X205289999Y-78555000I249999J0D01*
G01*
X206190001Y-78555000D01*
G75*
G02*
X206440000Y-78804999I0J-249999D01*
G01*
X206440000Y-79455001D01*
G75*
G02*
X206190001Y-79705000I-249999J0D01*
G01*
G37*
%TD.AperFunction*%
%TD*%
D11*
%TO.P,J4,8*%
%TO.N,/CH8*%
X201295000Y-54610000D03*
%TO.P,J4,7*%
%TO.N,/CH7*%
X198755000Y-54610000D03*
%TO.P,J4,6*%
%TO.N,/CH6*%
X196215000Y-54610000D03*
%TO.P,J4,5*%
%TO.N,/CH5*%
X193675000Y-54610000D03*
%TO.P,J4,4*%
%TO.N,-VDC*%
X191135000Y-54610000D03*
%TO.P,J4,3*%
%TO.N,+VDC*%
X188595000Y-54610000D03*
%TO.P,J4,2*%
%TO.N,/opampdriver/BIAS*%
X186055000Y-54610000D03*
D12*
%TO.P,J4,1*%
%TO.N,GND*%
X183515000Y-54610000D03*
%TD*%
D11*
%TO.P,J3,3*%
%TO.N,-VDC*%
X201617580Y-86847680D03*
%TO.P,J3,2*%
%TO.N,GND*%
X199077580Y-86847680D03*
D12*
%TO.P,J3,1*%
%TO.N,+VDC*%
X196537580Y-86847680D03*
%TD*%
D11*
%TO.P,J1,3*%
%TO.N,-VDC*%
X201617580Y-62717680D03*
%TO.P,J1,2*%
%TO.N,GND*%
X199077580Y-62717680D03*
D12*
%TO.P,J1,1*%
%TO.N,+VDC*%
X196537580Y-62717680D03*
%TD*%
%TO.P,C7,2*%
%TO.N,Net-(C7-Pad2)*%
%TA.AperFunction,SMDPad,CuDef*%
G36*
G01*
X243389999Y-73475000D02*
X244290001Y-73475000D01*
G75*
G02*
X244540000Y-73724999I0J-249999D01*
G01*
X244540000Y-74375001D01*
G75*
G02*
X244290001Y-74625000I-249999J0D01*
G01*
X243389999Y-74625000D01*
G75*
G02*
X243140000Y-74375001I0J249999D01*
G01*
X243140000Y-73724999D01*
G75*
G02*
X243389999Y-73475000I249999J0D01*
G01*
G37*
%TD.AperFunction*%
%TO.P,C7,1*%
%TO.N,/sheet5F780C4A/OUT*%
%TA.AperFunction,SMDPad,CuDef*%
G36*
G01*
X243389999Y-71425000D02*
X244290001Y-71425000D01*
G75*
G02*
X244540000Y-71674999I0J-249999D01*
G01*
X244540000Y-72325001D01*
G75*
G02*
X244290001Y-72575000I-249999J0D01*
G01*
X243389999Y-72575000D01*
G75*
G02*
X243140000Y-72325001I0J249999D01*
G01*
X243140000Y-71674999D01*
G75*
G02*
X243389999Y-71425000I249999J0D01*
G01*
G37*
%TD.AperFunction*%
%TD*%
%TO.P,C6,2*%
%TO.N,Net-(C6-Pad2)*%
%TA.AperFunction,SMDPad,CuDef*%
G36*
G01*
X231959999Y-73475000D02*
X232860001Y-73475000D01*
G75*
G02*
X233110000Y-73724999I0J-249999D01*
G01*
X233110000Y-74375001D01*
G75*
G02*
X232860001Y-74625000I-249999J0D01*
G01*
X231959999Y-74625000D01*
G75*
G02*
X231710000Y-74375001I0J249999D01*
G01*
X231710000Y-73724999D01*
G75*
G02*
X231959999Y-73475000I249999J0D01*
G01*
G37*
%TD.AperFunction*%
%TO.P,C6,1*%
%TO.N,/sheet5F78069E/OUT*%
%TA.AperFunction,SMDPad,CuDef*%
G36*
G01*
X231959999Y-71425000D02*
X232860001Y-71425000D01*
G75*
G02*
X233110000Y-71674999I0J-249999D01*
G01*
X233110000Y-72325001D01*
G75*
G02*
X232860001Y-72575000I-249999J0D01*
G01*
X231959999Y-72575000D01*
G75*
G02*
X231710000Y-72325001I0J249999D01*
G01*
X231710000Y-71674999D01*
G75*
G02*
X231959999Y-71425000I249999J0D01*
G01*
G37*
%TD.AperFunction*%
%TD*%
%TO.P,C5,2*%
%TO.N,Net-(C5-Pad2)*%
%TA.AperFunction,SMDPad,CuDef*%
G36*
G01*
X220529999Y-73475000D02*
X221430001Y-73475000D01*
G75*
G02*
X221680000Y-73724999I0J-249999D01*
G01*
X221680000Y-74375001D01*
G75*
G02*
X221430001Y-74625000I-249999J0D01*
G01*
X220529999Y-74625000D01*
G75*
G02*
X220280000Y-74375001I0J249999D01*
G01*
X220280000Y-73724999D01*
G75*
G02*
X220529999Y-73475000I249999J0D01*
G01*
G37*
%TD.AperFunction*%
%TO.P,C5,1*%
%TO.N,/sheet5F77FFF0/OUT*%
%TA.AperFunction,SMDPad,CuDef*%
G36*
G01*
X220529999Y-71425000D02*
X221430001Y-71425000D01*
G75*
G02*
X221680000Y-71674999I0J-249999D01*
G01*
X221680000Y-72325001D01*
G75*
G02*
X221430001Y-72575000I-249999J0D01*
G01*
X220529999Y-72575000D01*
G75*
G02*
X220280000Y-72325001I0J249999D01*
G01*
X220280000Y-71674999D01*
G75*
G02*
X220529999Y-71425000I249999J0D01*
G01*
G37*
%TD.AperFunction*%
%TD*%
%TO.P,C4,2*%
%TO.N,Net-(C4-Pad2)*%
%TA.AperFunction,SMDPad,CuDef*%
G36*
G01*
X209099999Y-74110000D02*
X210000001Y-74110000D01*
G75*
G02*
X210250000Y-74359999I0J-249999D01*
G01*
X210250000Y-75010001D01*
G75*
G02*
X210000001Y-75260000I-249999J0D01*
G01*
X209099999Y-75260000D01*
G75*
G02*
X208850000Y-75010001I0J249999D01*
G01*
X208850000Y-74359999D01*
G75*
G02*
X209099999Y-74110000I249999J0D01*
G01*
G37*
%TD.AperFunction*%
%TO.P,C4,1*%
%TO.N,/opampdriver/OUT*%
%TA.AperFunction,SMDPad,CuDef*%
G36*
G01*
X209099999Y-72060000D02*
X210000001Y-72060000D01*
G75*
G02*
X210250000Y-72309999I0J-249999D01*
G01*
X210250000Y-72960001D01*
G75*
G02*
X210000001Y-73210000I-249999J0D01*
G01*
X209099999Y-73210000D01*
G75*
G02*
X208850000Y-72960001I0J249999D01*
G01*
X208850000Y-72309999D01*
G75*
G02*
X209099999Y-72060000I249999J0D01*
G01*
G37*
%TD.AperFunction*%
%TD*%
%TO.P,C3,2*%
%TO.N,GND*%
%TA.AperFunction,SMDPad,CuDef*%
G36*
G01*
X178619999Y-79190000D02*
X179520001Y-79190000D01*
G75*
G02*
X179770000Y-79439999I0J-249999D01*
G01*
X179770000Y-80090001D01*
G75*
G02*
X179520001Y-80340000I-249999J0D01*
G01*
X178619999Y-80340000D01*
G75*
G02*
X178370000Y-80090001I0J249999D01*
G01*
X178370000Y-79439999D01*
G75*
G02*
X178619999Y-79190000I249999J0D01*
G01*
G37*
%TD.AperFunction*%
%TO.P,C3,1*%
%TO.N,Net-(C3-Pad1)*%
%TA.AperFunction,SMDPad,CuDef*%
G36*
G01*
X178619999Y-77140000D02*
X179520001Y-77140000D01*
G75*
G02*
X179770000Y-77389999I0J-249999D01*
G01*
X179770000Y-78040001D01*
G75*
G02*
X179520001Y-78290000I-249999J0D01*
G01*
X178619999Y-78290000D01*
G75*
G02*
X178370000Y-78040001I0J249999D01*
G01*
X178370000Y-77389999D01*
G75*
G02*
X178619999Y-77140000I249999J0D01*
G01*
G37*
%TD.AperFunction*%
%TD*%
%TO.P,C2,2*%
%TO.N,GND*%
%TA.AperFunction,SMDPad,CuDef*%
G36*
G01*
X188272000Y-66351999D02*
X188272000Y-67252001D01*
G75*
G02*
X188022001Y-67502000I-249999J0D01*
G01*
X187371999Y-67502000D01*
G75*
G02*
X187122000Y-67252001I0J249999D01*
G01*
X187122000Y-66351999D01*
G75*
G02*
X187371999Y-66102000I249999J0D01*
G01*
X188022001Y-66102000D01*
G75*
G02*
X188272000Y-66351999I0J-249999D01*
G01*
G37*
%TD.AperFunction*%
%TO.P,C2,1*%
%TO.N,VCC*%
%TA.AperFunction,SMDPad,CuDef*%
G36*
G01*
X190322000Y-66351999D02*
X190322000Y-67252001D01*
G75*
G02*
X190072001Y-67502000I-249999J0D01*
G01*
X189421999Y-67502000D01*
G75*
G02*
X189172000Y-67252001I0J249999D01*
G01*
X189172000Y-66351999D01*
G75*
G02*
X189421999Y-66102000I249999J0D01*
G01*
X190072001Y-66102000D01*
G75*
G02*
X190322000Y-66351999I0J-249999D01*
G01*
G37*
%TD.AperFunction*%
%TD*%
%TO.P,C1,2*%
%TO.N,GND*%
%TA.AperFunction,SMDPad,CuDef*%
G36*
G01*
X184600000Y-65474001D02*
X184600000Y-64573999D01*
G75*
G02*
X184849999Y-64324000I249999J0D01*
G01*
X185500001Y-64324000D01*
G75*
G02*
X185750000Y-64573999I0J-249999D01*
G01*
X185750000Y-65474001D01*
G75*
G02*
X185500001Y-65724000I-249999J0D01*
G01*
X184849999Y-65724000D01*
G75*
G02*
X184600000Y-65474001I0J249999D01*
G01*
G37*
%TD.AperFunction*%
%TO.P,C1,1*%
%TO.N,VCC*%
%TA.AperFunction,SMDPad,CuDef*%
G36*
G01*
X182550000Y-65474001D02*
X182550000Y-64573999D01*
G75*
G02*
X182799999Y-64324000I249999J0D01*
G01*
X183450001Y-64324000D01*
G75*
G02*
X183700000Y-64573999I0J-249999D01*
G01*
X183700000Y-65474001D01*
G75*
G02*
X183450001Y-65724000I-249999J0D01*
G01*
X182799999Y-65724000D01*
G75*
G02*
X182550000Y-65474001I0J249999D01*
G01*
G37*
%TD.AperFunction*%
%TD*%
D18*
%TO.N,VCC*%
X181610000Y-64947800D03*
X181406800Y-71043800D03*
%TO.N,Net-(C4-Pad2)*%
X207010000Y-85598000D03*
X208026000Y-75946000D03*
%TO.N,Net-(C5-Pad2)*%
X219202000Y-75184000D03*
X219075000Y-83185000D03*
%TO.N,Net-(C6-Pad2)*%
X229870000Y-85598000D03*
X230632000Y-75438000D03*
%TO.N,Net-(C7-Pad2)*%
X241554000Y-85598000D03*
X242316000Y-75184000D03*
%TO.N,-VDC*%
X201599800Y-66624200D03*
%TO.N,GND*%
X204724000Y-55372000D03*
X216408000Y-55626000D03*
X227076000Y-55372000D03*
X239014000Y-55372000D03*
X199085200Y-88696800D03*
X198794797Y-60920203D03*
X179070000Y-81280000D03*
X189230000Y-86360000D03*
X187325000Y-65405000D03*
X186695125Y-71314306D03*
X177800000Y-70612000D03*
%TO.N,+VDC*%
X203708000Y-79248000D03*
X215646000Y-79502000D03*
X211074000Y-75438000D03*
X221996000Y-75184000D03*
X226822000Y-80010000D03*
X233934000Y-74930000D03*
X238252000Y-78994000D03*
X245110000Y-75438000D03*
X196545200Y-60985400D03*
X196545200Y-88544400D03*
%TO.N,Net-(J2-Pad2)*%
X183184800Y-70993000D03*
%TO.N,/CH7*%
X176632291Y-76530891D03*
X198704200Y-52679600D03*
%TO.N,/opampdriver/SIG*%
X181533800Y-72593200D03*
X212344000Y-85852000D03*
%TO.N,/sheet5F77FFF0/SIG*%
X186969400Y-73443200D03*
X223850200Y-85898010D03*
%TO.N,/sheet5F78069E/SIG*%
X181508400Y-73609200D03*
X235280200Y-85898010D03*
%TO.N,/sheet5F780C4A/SIG*%
X188163200Y-75143201D03*
X246170642Y-85109242D03*
%TO.N,/opampdriver/BIAS*%
X235712000Y-84328000D03*
X246380000Y-84074000D03*
X223520000Y-84074000D03*
X212090000Y-84074000D03*
X199390000Y-68580000D03*
%TD*%
D19*
%TO.N,VCC*%
X186053010Y-67952010D02*
X183125000Y-65024000D01*
X188311956Y-67952010D02*
X186053010Y-67952010D01*
X189461966Y-66802000D02*
X188311956Y-67952010D01*
X189747000Y-66802000D02*
X189461966Y-66802000D01*
X183125000Y-65024000D02*
X181686200Y-65024000D01*
X181686200Y-65024000D02*
X181610000Y-64947800D01*
X180725600Y-71725000D02*
X181406800Y-71043800D01*
X181880400Y-70570200D02*
X181406800Y-71043800D01*
X181880400Y-69088000D02*
X181880400Y-70570200D01*
X185960000Y-85410000D02*
X185010000Y-86360000D01*
X182140034Y-86360000D02*
X185010000Y-86360000D01*
X177060034Y-81280000D02*
X182140034Y-86360000D01*
X173990000Y-81280000D02*
X177060034Y-81280000D01*
D20*
X180075600Y-72375000D02*
X179385120Y-72375000D01*
X180725600Y-71725000D02*
X180075600Y-72375000D01*
D19*
X184244786Y-75625000D02*
X185110120Y-75625000D01*
X183922610Y-75302824D02*
X184244786Y-75625000D01*
X183922610Y-73559610D02*
X183922610Y-75302824D01*
X181406800Y-71043800D02*
X183922610Y-73559610D01*
%TO.N,Net-(C3-Pad1)*%
X179385120Y-77399880D02*
X179070000Y-77715000D01*
X179385120Y-75625000D02*
X179385120Y-77399880D01*
%TO.N,Net-(C4-Pad2)*%
X205740000Y-74685000D02*
X209550000Y-74685000D01*
X208770000Y-85598000D02*
X207010000Y-85598000D01*
X208289000Y-75946000D02*
X209550000Y-74685000D01*
X208026000Y-75946000D02*
X208289000Y-75946000D01*
X210820000Y-83548000D02*
X208770000Y-85598000D01*
X210820000Y-82710000D02*
X210820000Y-83548000D01*
%TO.N,/opampdriver/OUT*%
X209550000Y-72635000D02*
X205740000Y-72635000D01*
X205740000Y-67505000D02*
X205850000Y-67395000D01*
X205740000Y-72635000D02*
X205740000Y-67505000D01*
X212090000Y-75195998D02*
X209550000Y-72655998D01*
X209550000Y-72655998D02*
X209550000Y-72635000D01*
X212090000Y-77310000D02*
X212090000Y-75195998D01*
%TO.N,Net-(C5-Pad2)*%
X217170000Y-74050000D02*
X220980000Y-74050000D01*
X219846000Y-75184000D02*
X220980000Y-74050000D01*
X219202000Y-75184000D02*
X219846000Y-75184000D01*
X222250000Y-83548000D02*
X220200000Y-85598000D01*
X222250000Y-82710000D02*
X222250000Y-83548000D01*
X220200000Y-84310000D02*
X219075000Y-83185000D01*
X220200000Y-85598000D02*
X220200000Y-84310000D01*
%TO.N,/sheet5F77FFF0/OUT*%
X220980000Y-72000000D02*
X217170000Y-72000000D01*
X217170000Y-67505000D02*
X217280000Y-67395000D01*
X217170000Y-72000000D02*
X217170000Y-67505000D01*
X223520000Y-74540000D02*
X220980000Y-72000000D01*
X223520000Y-77310000D02*
X223520000Y-74540000D01*
%TO.N,Net-(C6-Pad2)*%
X232274000Y-73914000D02*
X232410000Y-74050000D01*
X228600000Y-73914000D02*
X232274000Y-73914000D01*
X231630000Y-85598000D02*
X229870000Y-85598000D01*
X231022000Y-75438000D02*
X232410000Y-74050000D01*
X230632000Y-75438000D02*
X231022000Y-75438000D01*
X233680000Y-83548000D02*
X233680000Y-82075000D01*
X231630000Y-85598000D02*
X233680000Y-83548000D01*
%TO.N,/sheet5F78069E/OUT*%
X232410000Y-72000000D02*
X228600000Y-72000000D01*
X228600000Y-67505000D02*
X228710000Y-67395000D01*
X228600000Y-72000000D02*
X228600000Y-67505000D01*
X234950000Y-74540000D02*
X232410000Y-72000000D01*
X234950000Y-76675000D02*
X234950000Y-74540000D01*
%TO.N,Net-(C7-Pad2)*%
X240284000Y-74050000D02*
X243840000Y-74050000D01*
X243069000Y-85598000D02*
X241554000Y-85598000D01*
X242706000Y-75184000D02*
X243840000Y-74050000D01*
X242316000Y-75184000D02*
X242706000Y-75184000D01*
X245119000Y-82719000D02*
X245110000Y-82710000D01*
X245110000Y-83557000D02*
X245110000Y-82710000D01*
X243069000Y-85598000D02*
X245110000Y-83557000D01*
%TO.N,/sheet5F780C4A/OUT*%
X246380000Y-77310000D02*
X246380000Y-73270000D01*
X240030000Y-72000000D02*
X243840000Y-72000000D01*
X245110000Y-72000000D02*
X246380000Y-73270000D01*
X243840000Y-72000000D02*
X245110000Y-72000000D01*
X240030000Y-67505000D02*
X240140000Y-67395000D01*
X240030000Y-72000000D02*
X240030000Y-67505000D01*
%TO.N,-VDC*%
X237085000Y-82940000D02*
X236220000Y-82075000D01*
X240030000Y-82940000D02*
X237085000Y-82940000D01*
X225655000Y-83575000D02*
X224790000Y-82710000D01*
X228600000Y-83575000D02*
X225655000Y-83575000D01*
X214225000Y-83575000D02*
X213360000Y-82710000D01*
X217170000Y-83575000D02*
X214225000Y-83575000D01*
X241446008Y-86748010D02*
X240030000Y-85332002D01*
X245733956Y-86748010D02*
X241446008Y-86748010D01*
X247650000Y-84831966D02*
X245733956Y-86748010D01*
X240030000Y-85332002D02*
X240030000Y-82940000D01*
X247650000Y-82710000D02*
X247650000Y-84831966D01*
X228600000Y-85586002D02*
X228600000Y-83575000D01*
X229762008Y-86748010D02*
X228600000Y-85586002D01*
X241446008Y-86748010D02*
X229762008Y-86748010D01*
X217170000Y-85840002D02*
X217170000Y-83575000D01*
X218078008Y-86748010D02*
X217170000Y-85840002D01*
X229762008Y-86748010D02*
X218078008Y-86748010D01*
X205740000Y-85586002D02*
X205740000Y-83575000D01*
X206902008Y-86748010D02*
X205740000Y-85586002D01*
X218078008Y-86748010D02*
X206902008Y-86748010D01*
D20*
X192310001Y-55785001D02*
X191135000Y-54610000D01*
X194239001Y-55785001D02*
X192310001Y-55785001D01*
X194850001Y-55174001D02*
X194239001Y-55785001D01*
X194239001Y-53434999D02*
X194850001Y-54045999D01*
X196779001Y-53434999D02*
X194239001Y-53434999D01*
X197390001Y-54045999D02*
X196779001Y-53434999D01*
X194850001Y-54045999D02*
X194850001Y-55174001D01*
X197390001Y-58490101D02*
X197390001Y-54045999D01*
X201617580Y-62717680D02*
X197390001Y-58490101D01*
D19*
X201617580Y-86847680D02*
X201617580Y-66641980D01*
X201617580Y-66641980D02*
X201599800Y-66624200D01*
X204890260Y-83575000D02*
X205740000Y-83575000D01*
X201617580Y-86847680D02*
X204890260Y-83575000D01*
%TO.N,GND*%
X205850000Y-57995000D02*
X205850000Y-56498000D01*
X205850000Y-56498000D02*
X204724000Y-55372000D01*
X217280000Y-57995000D02*
X217280000Y-56498000D01*
X217280000Y-56498000D02*
X216408000Y-55626000D01*
X228710000Y-57995000D02*
X228710000Y-57006000D01*
X228710000Y-57006000D02*
X227076000Y-55372000D01*
X240140000Y-57995000D02*
X240140000Y-56498000D01*
X240140000Y-56498000D02*
X239014000Y-55372000D01*
X199077580Y-86847680D02*
X199077580Y-88689180D01*
X199077580Y-88689180D02*
X199085200Y-88696800D01*
X179070000Y-79765000D02*
X179070000Y-81280000D01*
X175015000Y-79765000D02*
X173990000Y-78740000D01*
X179070000Y-79765000D02*
X175015000Y-79765000D01*
X182880000Y-85090000D02*
X182880000Y-85335000D01*
X179070000Y-81280000D02*
X182880000Y-85090000D01*
X187960000Y-86360000D02*
X189230000Y-86360000D01*
X185175000Y-65024000D02*
X186944000Y-65024000D01*
X186944000Y-65024000D02*
X187325000Y-65405000D01*
X187697000Y-65777000D02*
X187325000Y-65405000D01*
X187697000Y-66802000D02*
X187697000Y-65777000D01*
D20*
X186695125Y-71527495D02*
X186695125Y-71314306D01*
X185110120Y-72375000D02*
X185847620Y-72375000D01*
X185847620Y-72375000D02*
X186695125Y-71527495D01*
X179385120Y-71075000D02*
X178263000Y-71075000D01*
X178263000Y-71075000D02*
X177800000Y-70612000D01*
D19*
%TO.N,+VDC*%
X205740000Y-79130000D02*
X203826000Y-79130000D01*
X203826000Y-79130000D02*
X203708000Y-79248000D01*
X217170000Y-79130000D02*
X216018000Y-79130000D01*
X216018000Y-79130000D02*
X215646000Y-79502000D01*
X210820000Y-77310000D02*
X210820000Y-75692000D01*
X210820000Y-75692000D02*
X211074000Y-75438000D01*
X222250000Y-77310000D02*
X222250000Y-75438000D01*
X222250000Y-75438000D02*
X221996000Y-75184000D01*
X228600000Y-79130000D02*
X227702000Y-79130000D01*
X227702000Y-79130000D02*
X226822000Y-80010000D01*
X233680000Y-76675000D02*
X233680000Y-75184000D01*
X233680000Y-75184000D02*
X233934000Y-74930000D01*
X240030000Y-78495000D02*
X238751000Y-78495000D01*
X238751000Y-78495000D02*
X238252000Y-78994000D01*
X245110000Y-77310000D02*
X245110000Y-75438000D01*
X196537580Y-62717680D02*
X196537580Y-60993020D01*
X196537580Y-60993020D02*
X196545200Y-60985400D01*
D20*
%TO.N,Net-(J2-Pad4)*%
X174172620Y-76200000D02*
X173990000Y-76200000D01*
X178647620Y-71725000D02*
X174172620Y-76200000D01*
X179385120Y-71725000D02*
X178647620Y-71725000D01*
%TO.N,Net-(J2-Pad2)*%
X183916800Y-71725000D02*
X183184800Y-70993000D01*
X183916800Y-71725000D02*
X185110120Y-71725000D01*
%TO.N,/CH8*%
X202792581Y-56107581D02*
X201295000Y-54610000D01*
X202792581Y-63281681D02*
X202792581Y-56107581D01*
X189756050Y-76318212D02*
X202792581Y-63281681D01*
X185847620Y-74975000D02*
X185110120Y-74975000D01*
X187190832Y-76318212D02*
X185847620Y-74975000D01*
X189756050Y-76318212D02*
X187190832Y-76318212D01*
%TO.N,/CH7*%
X198704200Y-54559200D02*
X198755000Y-54610000D01*
X198704200Y-52679600D02*
X198704200Y-54559200D01*
X178188182Y-74975000D02*
X179385120Y-74975000D01*
X176632291Y-76530891D02*
X178188182Y-74975000D01*
%TO.N,/CH6*%
X195362579Y-55462421D02*
X195362579Y-69016824D01*
X196215000Y-54610000D02*
X195362579Y-55462421D01*
X195362579Y-69016824D02*
X188511201Y-75868202D01*
X188511201Y-75868202D02*
X187701795Y-75868202D01*
X186158593Y-74325000D02*
X185110120Y-74325000D01*
X187701795Y-75868202D02*
X186158593Y-74325000D01*
%TO.N,/CH5*%
X192499999Y-53434999D02*
X193675000Y-54610000D01*
X182404999Y-53434999D02*
X192499999Y-53434999D01*
X172814999Y-63024999D02*
X182404999Y-53434999D01*
X172814999Y-76764001D02*
X172814999Y-63024999D01*
X173425999Y-77375001D02*
X172814999Y-76764001D01*
X174762876Y-77375001D02*
X173425999Y-77375001D01*
X177812877Y-74325000D02*
X179385120Y-74325000D01*
X174762876Y-77375001D02*
X177812877Y-74325000D01*
D19*
%TO.N,Net-(R1-Pad2)*%
X209320000Y-77080000D02*
X209550000Y-77310000D01*
X205740000Y-77080000D02*
X209320000Y-77080000D01*
D20*
%TO.N,/opampdriver/SIG*%
X181315599Y-72374999D02*
X181533800Y-72593200D01*
X180968115Y-72593200D02*
X180536315Y-73025000D01*
X180536315Y-73025000D02*
X179385120Y-73025000D01*
X181533800Y-72593200D02*
X180968115Y-72593200D01*
D19*
X211074000Y-85852000D02*
X210820000Y-85598000D01*
X212344000Y-85852000D02*
X211074000Y-85852000D01*
%TO.N,Net-(R3-Pad1)*%
X208365000Y-81525000D02*
X209550000Y-82710000D01*
X205740000Y-81525000D02*
X208365000Y-81525000D01*
%TO.N,Net-(R6-Pad2)*%
X220750000Y-77080000D02*
X220980000Y-77310000D01*
X217170000Y-77080000D02*
X220750000Y-77080000D01*
D20*
%TO.N,/sheet5F77FFF0/SIG*%
X186551199Y-73024999D02*
X186969400Y-73443200D01*
D19*
X222550010Y-85898010D02*
X222250000Y-85598000D01*
X223850200Y-85898010D02*
X222550010Y-85898010D01*
D20*
X185847620Y-73025000D02*
X185110120Y-73025000D01*
X186551199Y-73024999D02*
X185847620Y-73025000D01*
D19*
%TO.N,Net-(R8-Pad1)*%
X219795000Y-81525000D02*
X220980000Y-82710000D01*
X217170000Y-81525000D02*
X219795000Y-81525000D01*
%TO.N,Net-(R11-Pad2)*%
X232005000Y-77080000D02*
X232410000Y-76675000D01*
X228600000Y-77080000D02*
X232005000Y-77080000D01*
%TO.N,/sheet5F78069E/SIG*%
X233980010Y-85898010D02*
X233680000Y-85598000D01*
X235280200Y-85898010D02*
X233980010Y-85898010D01*
D20*
X179450920Y-73609200D02*
X179385120Y-73675000D01*
X181508400Y-73609200D02*
X179450920Y-73609200D01*
D19*
%TO.N,Net-(R13-Pad1)*%
X231860000Y-81525000D02*
X232410000Y-82075000D01*
X228600000Y-81525000D02*
X231860000Y-81525000D01*
%TO.N,Net-(R16-Pad2)*%
X242975000Y-76445000D02*
X243840000Y-77310000D01*
X240030000Y-76445000D02*
X242975000Y-76445000D01*
D20*
%TO.N,/sheet5F780C4A/SIG*%
X187613204Y-75143201D02*
X188163200Y-75143201D01*
X186145002Y-73674999D02*
X187613204Y-75143201D01*
D19*
X245607758Y-85109242D02*
X245119000Y-85598000D01*
X246170642Y-85109242D02*
X245607758Y-85109242D01*
D20*
X185847620Y-73675000D02*
X185110120Y-73675000D01*
X186145002Y-73674999D02*
X185847620Y-73675000D01*
D19*
%TO.N,Net-(R18-Pad1)*%
X242020000Y-80890000D02*
X243840000Y-82710000D01*
X240030000Y-80890000D02*
X242020000Y-80890000D01*
%TO.N,Net-(J2-Pad1)*%
X182780390Y-67937990D02*
X183930400Y-69088000D01*
X174632010Y-67937990D02*
X182780390Y-67937990D01*
X173990000Y-68580000D02*
X174632010Y-67937990D01*
X184867000Y-71075000D02*
X185110120Y-71075000D01*
X183930400Y-70138400D02*
X184867000Y-71075000D01*
X183930400Y-69088000D02*
X183930400Y-70138400D01*
%TO.N,/opampdriver/BIAS*%
X234950000Y-82075000D02*
X234950000Y-83566000D01*
X234950000Y-83566000D02*
X235712000Y-84328000D01*
X246380000Y-82710000D02*
X246380000Y-84074000D01*
X223520000Y-82710000D02*
X223520000Y-84074000D01*
X212090000Y-82710000D02*
X212090000Y-84074000D01*
X185885000Y-87385000D02*
X185960000Y-87310000D01*
X182880000Y-87385000D02*
X185885000Y-87385000D01*
X186910000Y-86410000D02*
X186910000Y-81060000D01*
X186910000Y-81060000D02*
X199390000Y-68580000D01*
X185960000Y-87310000D02*
X186010000Y-87310000D01*
X186010000Y-87310000D02*
X186910000Y-86410000D01*
%TD*%
M02*
