%TF.GenerationSoftware,KiCad,Pcbnew,(5.1.6)-1*%
%TF.CreationDate,2020-09-27T21:03:48-07:00*%
%TF.ProjectId,piezodriver,7069657a-6f64-4726-9976-65722e6b6963,rev?*%
%TF.SameCoordinates,Original*%
%TF.FileFunction,Copper,L4,Bot*%
%TF.FilePolarity,Positive*%
%FSLAX46Y46*%
G04 Gerber Fmt 4.6, Leading zero omitted, Abs format (unit mm)*
G04 Created by KiCad (PCBNEW (5.1.6)-1) date 2020-09-27 21:03:48*
%MOMM*%
%LPD*%
G01*
G04 APERTURE LIST*
%TA.AperFunction,ComponentPad*%
%ADD10O,1.700000X1.700000*%
%TD*%
%TA.AperFunction,ComponentPad*%
%ADD11R,1.700000X1.700000*%
%TD*%
%TA.AperFunction,ComponentPad*%
%ADD12C,0.300000*%
%TD*%
%TA.AperFunction,ViaPad*%
%ADD13C,0.800000*%
%TD*%
%TA.AperFunction,Conductor*%
%ADD14C,0.500000*%
%TD*%
%TA.AperFunction,Conductor*%
%ADD15C,0.250000*%
%TD*%
G04 APERTURE END LIST*
D10*
%TO.P,J2,6*%
%TO.N,VCC*%
X173990000Y-81280000D03*
%TO.P,J2,5*%
%TO.N,GND*%
X173990000Y-78740000D03*
%TO.P,J2,4*%
%TO.N,Net-(J2-Pad4)*%
X173990000Y-76200000D03*
%TO.P,J2,3*%
%TO.N,Net-(J2-Pad3)*%
X173990000Y-73660000D03*
%TO.P,J2,2*%
%TO.N,Net-(J2-Pad2)*%
X173990000Y-71120000D03*
D11*
%TO.P,J2,1*%
%TO.N,Net-(J2-Pad1)*%
X173990000Y-68580000D03*
%TD*%
D12*
%TO.P,U6,17*%
%TO.N,N/C*%
X247695000Y-79360000D03*
%TO.P,U6,16*%
X247695000Y-80660000D03*
%TO.P,U6,15*%
X246395000Y-79360000D03*
%TO.P,U6,14*%
X246395000Y-80660000D03*
%TO.P,U6,13*%
X245095000Y-79360000D03*
%TO.P,U6,12*%
X245095000Y-80660000D03*
%TO.P,U6,11*%
X243795000Y-79360000D03*
%TO.P,U6,10*%
X243795000Y-80660000D03*
%TD*%
%TO.P,U5,17*%
%TO.N,N/C*%
X236265000Y-78725000D03*
%TO.P,U5,16*%
X236265000Y-80025000D03*
%TO.P,U5,15*%
X234965000Y-78725000D03*
%TO.P,U5,14*%
X234965000Y-80025000D03*
%TO.P,U5,13*%
X233665000Y-78725000D03*
%TO.P,U5,12*%
X233665000Y-80025000D03*
%TO.P,U5,11*%
X232365000Y-78725000D03*
%TO.P,U5,10*%
X232365000Y-80025000D03*
%TD*%
%TO.P,U4,17*%
%TO.N,N/C*%
X224835000Y-79360000D03*
%TO.P,U4,16*%
X224835000Y-80660000D03*
%TO.P,U4,15*%
X223535000Y-79360000D03*
%TO.P,U4,14*%
X223535000Y-80660000D03*
%TO.P,U4,13*%
X222235000Y-79360000D03*
%TO.P,U4,12*%
X222235000Y-80660000D03*
%TO.P,U4,11*%
X220935000Y-79360000D03*
%TO.P,U4,10*%
X220935000Y-80660000D03*
%TD*%
%TO.P,U3,17*%
%TO.N,N/C*%
X213405000Y-79360000D03*
%TO.P,U3,16*%
X213405000Y-80660000D03*
%TO.P,U3,15*%
X212105000Y-79360000D03*
%TO.P,U3,14*%
X212105000Y-80660000D03*
%TO.P,U3,13*%
X210805000Y-79360000D03*
%TO.P,U3,12*%
X210805000Y-80660000D03*
%TO.P,U3,11*%
X209505000Y-79360000D03*
%TO.P,U3,10*%
X209505000Y-80660000D03*
%TD*%
D10*
%TO.P,J4,8*%
%TO.N,/CH8*%
X201295000Y-54610000D03*
%TO.P,J4,7*%
%TO.N,/CH7*%
X198755000Y-54610000D03*
%TO.P,J4,6*%
%TO.N,/CH6*%
X196215000Y-54610000D03*
%TO.P,J4,5*%
%TO.N,/CH5*%
X193675000Y-54610000D03*
%TO.P,J4,4*%
%TO.N,-VDC*%
X191135000Y-54610000D03*
%TO.P,J4,3*%
%TO.N,+VDC*%
X188595000Y-54610000D03*
%TO.P,J4,2*%
%TO.N,/opampdriver/BIAS*%
X186055000Y-54610000D03*
D11*
%TO.P,J4,1*%
%TO.N,GND*%
X183515000Y-54610000D03*
%TD*%
D10*
%TO.P,J3,3*%
%TO.N,-VDC*%
X201617580Y-86847680D03*
%TO.P,J3,2*%
%TO.N,GND*%
X199077580Y-86847680D03*
D11*
%TO.P,J3,1*%
%TO.N,+VDC*%
X196537580Y-86847680D03*
%TD*%
D10*
%TO.P,J1,3*%
%TO.N,-VDC*%
X201617580Y-62717680D03*
%TO.P,J1,2*%
%TO.N,GND*%
X199077580Y-62717680D03*
D11*
%TO.P,J1,1*%
%TO.N,+VDC*%
X196537580Y-62717680D03*
%TD*%
D13*
%TO.N,VCC*%
X181610000Y-64947800D03*
X181406800Y-71043800D03*
%TO.N,Net-(C4-Pad2)*%
X207010000Y-85598000D03*
X208026000Y-75946000D03*
%TO.N,Net-(C5-Pad2)*%
X219202000Y-75184000D03*
X219075000Y-83185000D03*
%TO.N,Net-(C6-Pad2)*%
X229870000Y-85598000D03*
X230632000Y-75438000D03*
%TO.N,Net-(C7-Pad2)*%
X241554000Y-85598000D03*
X242316000Y-75184000D03*
%TO.N,-VDC*%
X201599800Y-66624200D03*
%TO.N,GND*%
X204724000Y-55372000D03*
X216408000Y-55626000D03*
X227076000Y-55372000D03*
X239014000Y-55372000D03*
X199085200Y-88696800D03*
X198794797Y-60920203D03*
X179070000Y-81280000D03*
X189230000Y-86360000D03*
X187325000Y-65405000D03*
X186695125Y-71314306D03*
X177800000Y-70612000D03*
%TO.N,+VDC*%
X203708000Y-79248000D03*
X215646000Y-79502000D03*
X211074000Y-75438000D03*
X221996000Y-75184000D03*
X226822000Y-80010000D03*
X233934000Y-74930000D03*
X238252000Y-78994000D03*
X245110000Y-75438000D03*
X196545200Y-60985400D03*
X196545200Y-88544400D03*
%TO.N,Net-(J2-Pad2)*%
X183184800Y-70993000D03*
%TO.N,/CH7*%
X176632291Y-76530891D03*
X198704200Y-52679600D03*
%TO.N,/opampdriver/SIG*%
X181533800Y-72593200D03*
X212344000Y-85852000D03*
%TO.N,/sheet5F77FFF0/SIG*%
X186969400Y-73443200D03*
X223850200Y-85898010D03*
%TO.N,/sheet5F78069E/SIG*%
X181508400Y-73609200D03*
X235280200Y-85898010D03*
%TO.N,/sheet5F780C4A/SIG*%
X188163200Y-75143201D03*
X246170642Y-85109242D03*
%TO.N,/opampdriver/BIAS*%
X235712000Y-84328000D03*
X246380000Y-84074000D03*
X223520000Y-84074000D03*
X212090000Y-84074000D03*
X199390000Y-68580000D03*
%TD*%
D14*
%TO.N,VCC*%
X172689999Y-67369999D02*
X172689999Y-79979999D01*
X175112198Y-64947800D02*
X172689999Y-67369999D01*
X172689999Y-79979999D02*
X173990000Y-81280000D01*
X181610000Y-64947800D02*
X175112198Y-64947800D01*
X181406800Y-65151000D02*
X181610000Y-64947800D01*
X181406800Y-71043800D02*
X181406800Y-65151000D01*
%TO.N,Net-(C4-Pad2)*%
X207010000Y-85598000D02*
X207010000Y-76962000D01*
X207010000Y-76962000D02*
X208026000Y-75946000D01*
%TO.N,Net-(C5-Pad2)*%
X218440000Y-75946000D02*
X219202000Y-75184000D01*
X218440000Y-82550000D02*
X218440000Y-75946000D01*
X219075000Y-83185000D02*
X218440000Y-82550000D01*
%TO.N,Net-(C6-Pad2)*%
X229870000Y-85598000D02*
X229870000Y-76200000D01*
X229870000Y-76200000D02*
X230632000Y-75438000D01*
%TO.N,Net-(C7-Pad2)*%
X241554000Y-85598000D02*
X241554000Y-75946000D01*
X241554000Y-75946000D02*
X242316000Y-75184000D01*
%TO.N,-VDC*%
X201599800Y-62735460D02*
X201617580Y-62717680D01*
X201599800Y-66624200D02*
X201599800Y-62735460D01*
%TO.N,GND*%
X199077580Y-62717680D02*
X199077580Y-61202986D01*
X199077580Y-61202986D02*
X198794797Y-60920203D01*
%TO.N,+VDC*%
X196537580Y-86847680D02*
X196537580Y-88536780D01*
X196537580Y-88536780D02*
X196545200Y-88544400D01*
D15*
%TO.N,Net-(J2-Pad2)*%
X174638801Y-71768801D02*
X173990000Y-71120000D01*
X182408999Y-71768801D02*
X174638801Y-71768801D01*
X183184800Y-70993000D02*
X182408999Y-71768801D01*
%TO.N,/CH7*%
X186246398Y-52679600D02*
X198704200Y-52679600D01*
X184625001Y-55785001D02*
X184879999Y-55530003D01*
X183289997Y-55785001D02*
X184625001Y-55785001D01*
X184879999Y-55530003D02*
X184879999Y-54045999D01*
X176632291Y-76530891D02*
X176632291Y-80376711D01*
X184879999Y-54045999D02*
X186246398Y-52679600D01*
X173425999Y-82455001D02*
X172114989Y-81143991D01*
X174554001Y-82455001D02*
X173425999Y-82455001D01*
X176632291Y-80376711D02*
X174554001Y-82455001D01*
X172114989Y-81143991D02*
X172114989Y-66960009D01*
X172114989Y-66960009D02*
X183289997Y-55785001D01*
D14*
%TO.N,/opampdriver/SIG*%
X206601999Y-86448001D02*
X207404599Y-86448001D01*
X181533800Y-72593200D02*
X192747198Y-72593200D01*
X192747198Y-72593200D02*
X206601999Y-86448001D01*
X207404599Y-86448001D02*
X211747999Y-86448001D01*
X211747999Y-86448001D02*
X212344000Y-85852000D01*
%TO.N,/sheet5F77FFF0/SIG*%
X206312046Y-87148011D02*
X222600199Y-87148011D01*
X222600199Y-87148011D02*
X223850200Y-85898010D01*
X186969400Y-73443200D02*
X192607236Y-73443200D01*
X192607236Y-73443200D02*
X206312046Y-87148011D01*
%TO.N,/sheet5F78069E/SIG*%
X182192401Y-74293201D02*
X192276201Y-74293201D01*
X181508400Y-73609200D02*
X182192401Y-74293201D01*
X233330189Y-87848021D02*
X235280200Y-85898010D01*
X192276201Y-74293201D02*
X205831021Y-87848021D01*
X205831021Y-87848021D02*
X233330189Y-87848021D01*
%TO.N,/sheet5F780C4A/SIG*%
X205541068Y-88548031D02*
X244369769Y-88548031D01*
X188163200Y-75143201D02*
X192136239Y-75143201D01*
X192136239Y-75143201D02*
X205541068Y-88548031D01*
X244369769Y-88548031D02*
X246170642Y-86747158D01*
X246170642Y-86747158D02*
X246170642Y-85109242D01*
%TO.N,/opampdriver/BIAS*%
X186055000Y-55245000D02*
X186055000Y-54610000D01*
X199390000Y-68580000D02*
X186055000Y-55245000D01*
X211504999Y-83488999D02*
X212090000Y-84074000D01*
X211504999Y-77127001D02*
X211504999Y-83488999D01*
X202957998Y-68580000D02*
X211504999Y-77127001D01*
X199390000Y-68580000D02*
X202957998Y-68580000D01*
X212090000Y-84074000D02*
X223520000Y-84074000D01*
X235592208Y-84328000D02*
X235712000Y-84328000D01*
X233472207Y-86448001D02*
X235592208Y-84328000D01*
X225894001Y-86448001D02*
X233472207Y-86448001D01*
X223520000Y-84074000D02*
X225894001Y-86448001D01*
X245814315Y-84074000D02*
X246380000Y-84074000D01*
X237832001Y-86448001D02*
X243440314Y-86448001D01*
X243440314Y-86448001D02*
X245814315Y-84074000D01*
X235712000Y-84328000D02*
X237832001Y-86448001D01*
%TD*%
M02*
