M48
; DRILL file {KiCad (5.1.6)-1} date 09/27/20 21:03:50
; FORMAT={-:-/ absolute / inch / decimal}
; #@! TF.CreationDate,2020-09-27T21:03:50-07:00
; #@! TF.GenerationSoftware,Kicad,Pcbnew,(5.1.6)-1
; #@! TF.FileFunction,Plated,1,4,PTH
FMAT,2
INCH
T1C0.0079
T2C0.0157
T3C0.0394
%
G90
G05
T1
X9.5982Y-3.1244
X9.5982Y-3.1756
X9.6494Y-3.1244
X9.6494Y-3.1756
X9.7006Y-3.1244
X9.7006Y-3.1756
X9.7518Y-3.1244
X9.7518Y-3.1756
X9.1482Y-3.0994
X9.1482Y-3.1506
X9.1994Y-3.0994
X9.1994Y-3.1506
X9.2506Y-3.0994
X9.2506Y-3.1506
X9.3018Y-3.0994
X9.3018Y-3.1506
X8.6982Y-3.1244
X8.6982Y-3.1756
X8.7494Y-3.1244
X8.7494Y-3.1756
X8.8006Y-3.1244
X8.8006Y-3.1756
X8.8518Y-3.1244
X8.8518Y-3.1756
X8.2482Y-3.1244
X8.2482Y-3.1756
X8.2994Y-3.1244
X8.2994Y-3.1756
X8.3506Y-3.1244
X8.3506Y-3.1756
X8.4018Y-3.1244
X8.4018Y-3.1756
T2
X6.954Y-3.013
X7.0Y-2.78
X7.05Y-3.2
X7.142Y-2.797
X7.146Y-2.898
X7.147Y-2.858
X7.15Y-2.557
X7.212Y-2.795
X7.3502Y-2.8076
X7.361Y-2.8915
X7.375Y-2.575
X7.408Y-2.9584
X7.45Y-3.4
X7.738Y-2.401
X7.738Y-3.486
X7.823Y-2.074
X7.8266Y-2.3984
X7.838Y-3.492
X7.85Y-2.7
X7.937Y-2.623
X8.02Y-3.12
X8.06Y-2.18
X8.15Y-3.37
X8.19Y-2.99
X8.31Y-2.97
X8.35Y-3.31
X8.36Y-3.38
X8.49Y-3.13
X8.52Y-2.19
X8.625Y-3.275
X8.63Y-2.96
X8.74Y-2.96
X8.8Y-3.31
X8.813Y-3.3818
X8.93Y-3.15
X8.94Y-2.18
X9.05Y-3.37
X9.08Y-2.97
X9.21Y-2.95
X9.263Y-3.3818
X9.28Y-3.32
X9.38Y-3.11
X9.41Y-2.18
X9.51Y-3.37
X9.54Y-2.96
X9.65Y-2.97
X9.6918Y-3.3508
X9.7Y-3.31
T3
X7.225Y-2.15
X7.325Y-2.15
X7.425Y-2.15
X7.525Y-2.15
X7.625Y-2.15
X7.725Y-2.15
X7.825Y-2.15
X7.925Y-2.15
X6.85Y-2.7
X6.85Y-2.8
X6.85Y-2.9
X6.85Y-3.0
X6.85Y-3.1
X6.85Y-3.2
X7.7377Y-3.4192
X7.8377Y-3.4192
X7.9377Y-3.4192
X7.7377Y-2.4692
X7.8377Y-2.4692
X7.9377Y-2.4692
T0
M30
