%TF.GenerationSoftware,KiCad,Pcbnew,(5.1.6)-1*%
%TF.CreationDate,2020-09-27T21:03:48-07:00*%
%TF.ProjectId,piezodriver,7069657a-6f64-4726-9976-65722e6b6963,rev?*%
%TF.SameCoordinates,Original*%
%TF.FileFunction,Soldermask,Bot*%
%TF.FilePolarity,Negative*%
%FSLAX46Y46*%
G04 Gerber Fmt 4.6, Leading zero omitted, Abs format (unit mm)*
G04 Created by KiCad (PCBNEW (5.1.6)-1) date 2020-09-27 21:03:48*
%MOMM*%
%LPD*%
G01*
G04 APERTURE LIST*
%ADD10O,1.800000X1.800000*%
%ADD11R,1.800000X1.800000*%
%ADD12C,1.800000*%
%ADD13C,0.400000*%
G04 APERTURE END LIST*
D10*
%TO.C,J2*%
X173990000Y-81280000D03*
X173990000Y-78740000D03*
X173990000Y-76200000D03*
X173990000Y-73660000D03*
X173990000Y-71120000D03*
D11*
X173990000Y-68580000D03*
%TD*%
D12*
%TO.C,J8*%
X209550000Y-66095000D03*
X209550000Y-59095000D03*
%TD*%
%TO.C,J7*%
X243840000Y-66095000D03*
X243840000Y-59095000D03*
%TD*%
%TO.C,J6*%
X232410000Y-66095000D03*
X232410000Y-59095000D03*
%TD*%
%TO.C,J5*%
X220980000Y-66095000D03*
X220980000Y-59095000D03*
%TD*%
D13*
%TO.C,U6*%
X247695000Y-79360000D03*
X247695000Y-80660000D03*
X246395000Y-79360000D03*
X246395000Y-80660000D03*
X245095000Y-79360000D03*
X245095000Y-80660000D03*
X243795000Y-79360000D03*
X243795000Y-80660000D03*
%TD*%
%TO.C,U5*%
X236265000Y-78725000D03*
X236265000Y-80025000D03*
X234965000Y-78725000D03*
X234965000Y-80025000D03*
X233665000Y-78725000D03*
X233665000Y-80025000D03*
X232365000Y-78725000D03*
X232365000Y-80025000D03*
%TD*%
%TO.C,U4*%
X224835000Y-79360000D03*
X224835000Y-80660000D03*
X223535000Y-79360000D03*
X223535000Y-80660000D03*
X222235000Y-79360000D03*
X222235000Y-80660000D03*
X220935000Y-79360000D03*
X220935000Y-80660000D03*
%TD*%
%TO.C,U3*%
X213405000Y-79360000D03*
X213405000Y-80660000D03*
X212105000Y-79360000D03*
X212105000Y-80660000D03*
X210805000Y-79360000D03*
X210805000Y-80660000D03*
X209505000Y-79360000D03*
X209505000Y-80660000D03*
%TD*%
D10*
%TO.C,J4*%
X201295000Y-54610000D03*
X198755000Y-54610000D03*
X196215000Y-54610000D03*
X193675000Y-54610000D03*
X191135000Y-54610000D03*
X188595000Y-54610000D03*
X186055000Y-54610000D03*
D11*
X183515000Y-54610000D03*
%TD*%
D10*
%TO.C,J3*%
X201617580Y-86847680D03*
X199077580Y-86847680D03*
D11*
X196537580Y-86847680D03*
%TD*%
D10*
%TO.C,J1*%
X201617580Y-62717680D03*
X199077580Y-62717680D03*
D11*
X196537580Y-62717680D03*
%TD*%
M02*
