%TF.GenerationSoftware,KiCad,Pcbnew,(5.1.6)-1*%
%TF.CreationDate,2020-11-12T12:57:51-08:00*%
%TF.ProjectId,frontendfullv2,66726f6e-7465-46e6-9466-756c6c76322e,rev?*%
%TF.SameCoordinates,Original*%
%TF.FileFunction,Copper,L4,Bot*%
%TF.FilePolarity,Positive*%
%FSLAX46Y46*%
G04 Gerber Fmt 4.6, Leading zero omitted, Abs format (unit mm)*
G04 Created by KiCad (PCBNEW (5.1.6)-1) date 2020-11-12 12:57:51*
%MOMM*%
%LPD*%
G01*
G04 APERTURE LIST*
%TA.AperFunction,SMDPad,CuDef*%
%ADD10R,1.560000X0.650000*%
%TD*%
%TA.AperFunction,ComponentPad*%
%ADD11R,1.700000X1.700000*%
%TD*%
%TA.AperFunction,SMDPad,CuDef*%
%ADD12R,0.600000X2.200000*%
%TD*%
%TA.AperFunction,ComponentPad*%
%ADD13O,1.700000X1.700000*%
%TD*%
%TA.AperFunction,SMDPad,CuDef*%
%ADD14R,2.000000X3.000000*%
%TD*%
%TA.AperFunction,SMDPad,CuDef*%
%ADD15R,2.540000X3.510000*%
%TD*%
%TA.AperFunction,ViaPad*%
%ADD16C,0.800000*%
%TD*%
%TA.AperFunction,Conductor*%
%ADD17C,0.500000*%
%TD*%
%TA.AperFunction,Conductor*%
%ADD18C,1.000000*%
%TD*%
%TA.AperFunction,Conductor*%
%ADD19C,0.250000*%
%TD*%
G04 APERTURE END LIST*
%TO.P,C3,2*%
%TO.N,Net-(C3-Pad2)*%
%TA.AperFunction,SMDPad,CuDef*%
G36*
G01*
X70365199Y-129075600D02*
X71265201Y-129075600D01*
G75*
G02*
X71515200Y-129325599I0J-249999D01*
G01*
X71515200Y-129975601D01*
G75*
G02*
X71265201Y-130225600I-249999J0D01*
G01*
X70365199Y-130225600D01*
G75*
G02*
X70115200Y-129975601I0J249999D01*
G01*
X70115200Y-129325599D01*
G75*
G02*
X70365199Y-129075600I249999J0D01*
G01*
G37*
%TD.AperFunction*%
%TO.P,C3,1*%
%TO.N,Net-(C3-Pad1)*%
%TA.AperFunction,SMDPad,CuDef*%
G36*
G01*
X70365199Y-127025600D02*
X71265201Y-127025600D01*
G75*
G02*
X71515200Y-127275599I0J-249999D01*
G01*
X71515200Y-127925601D01*
G75*
G02*
X71265201Y-128175600I-249999J0D01*
G01*
X70365199Y-128175600D01*
G75*
G02*
X70115200Y-127925601I0J249999D01*
G01*
X70115200Y-127275599D01*
G75*
G02*
X70365199Y-127025600I249999J0D01*
G01*
G37*
%TD.AperFunction*%
%TD*%
%TO.P,C13,2*%
%TO.N,GNDA*%
%TA.AperFunction,SMDPad,CuDef*%
G36*
G01*
X75023200Y-114570500D02*
X75023200Y-115045500D01*
G75*
G02*
X74785700Y-115283000I-237500J0D01*
G01*
X74210700Y-115283000D01*
G75*
G02*
X73973200Y-115045500I0J237500D01*
G01*
X73973200Y-114570500D01*
G75*
G02*
X74210700Y-114333000I237500J0D01*
G01*
X74785700Y-114333000D01*
G75*
G02*
X75023200Y-114570500I0J-237500D01*
G01*
G37*
%TD.AperFunction*%
%TO.P,C13,1*%
%TO.N,+3V0*%
%TA.AperFunction,SMDPad,CuDef*%
G36*
G01*
X76773200Y-114570500D02*
X76773200Y-115045500D01*
G75*
G02*
X76535700Y-115283000I-237500J0D01*
G01*
X75960700Y-115283000D01*
G75*
G02*
X75723200Y-115045500I0J237500D01*
G01*
X75723200Y-114570500D01*
G75*
G02*
X75960700Y-114333000I237500J0D01*
G01*
X76535700Y-114333000D01*
G75*
G02*
X76773200Y-114570500I0J-237500D01*
G01*
G37*
%TD.AperFunction*%
%TD*%
%TO.P,C12,2*%
%TO.N,GNDA*%
%TA.AperFunction,SMDPad,CuDef*%
G36*
G01*
X71012600Y-114494300D02*
X71012600Y-114969300D01*
G75*
G02*
X70775100Y-115206800I-237500J0D01*
G01*
X70200100Y-115206800D01*
G75*
G02*
X69962600Y-114969300I0J237500D01*
G01*
X69962600Y-114494300D01*
G75*
G02*
X70200100Y-114256800I237500J0D01*
G01*
X70775100Y-114256800D01*
G75*
G02*
X71012600Y-114494300I0J-237500D01*
G01*
G37*
%TD.AperFunction*%
%TO.P,C12,1*%
%TO.N,Net-(C12-Pad1)*%
%TA.AperFunction,SMDPad,CuDef*%
G36*
G01*
X72762600Y-114494300D02*
X72762600Y-114969300D01*
G75*
G02*
X72525100Y-115206800I-237500J0D01*
G01*
X71950100Y-115206800D01*
G75*
G02*
X71712600Y-114969300I0J237500D01*
G01*
X71712600Y-114494300D01*
G75*
G02*
X71950100Y-114256800I237500J0D01*
G01*
X72525100Y-114256800D01*
G75*
G02*
X72762600Y-114494300I0J-237500D01*
G01*
G37*
%TD.AperFunction*%
%TD*%
D10*
%TO.P,U7,5*%
%TO.N,+3V0*%
X74959200Y-118323400D03*
%TO.P,U7,4*%
%TO.N,Net-(U1-Pad1)*%
X74959200Y-116423400D03*
%TO.P,U7,3*%
%TO.N,Net-(C12-Pad1)*%
X72259200Y-116423400D03*
%TO.P,U7,2*%
%TO.N,GNDA*%
X72259200Y-117373400D03*
%TO.P,U7,1*%
%TO.N,Net-(U1-Pad1)*%
X72259200Y-118323400D03*
%TD*%
D11*
%TO.P,J2,1*%
%TO.N,GNDA*%
X80010000Y-118110000D03*
%TD*%
%TO.P,R1,2*%
%TO.N,+3V0*%
%TA.AperFunction,SMDPad,CuDef*%
G36*
G01*
X68663000Y-117796300D02*
X68663000Y-118271300D01*
G75*
G02*
X68425500Y-118508800I-237500J0D01*
G01*
X67925500Y-118508800D01*
G75*
G02*
X67688000Y-118271300I0J237500D01*
G01*
X67688000Y-117796300D01*
G75*
G02*
X67925500Y-117558800I237500J0D01*
G01*
X68425500Y-117558800D01*
G75*
G02*
X68663000Y-117796300I0J-237500D01*
G01*
G37*
%TD.AperFunction*%
%TO.P,R1,1*%
%TO.N,Net-(C12-Pad1)*%
%TA.AperFunction,SMDPad,CuDef*%
G36*
G01*
X70488000Y-117796300D02*
X70488000Y-118271300D01*
G75*
G02*
X70250500Y-118508800I-237500J0D01*
G01*
X69750500Y-118508800D01*
G75*
G02*
X69513000Y-118271300I0J237500D01*
G01*
X69513000Y-117796300D01*
G75*
G02*
X69750500Y-117558800I237500J0D01*
G01*
X70250500Y-117558800D01*
G75*
G02*
X70488000Y-117796300I0J-237500D01*
G01*
G37*
%TD.AperFunction*%
%TD*%
%TO.P,R2,2*%
%TO.N,Net-(C12-Pad1)*%
%TA.AperFunction,SMDPad,CuDef*%
G36*
G01*
X69513000Y-116696500D02*
X69513000Y-116221500D01*
G75*
G02*
X69750500Y-115984000I237500J0D01*
G01*
X70250500Y-115984000D01*
G75*
G02*
X70488000Y-116221500I0J-237500D01*
G01*
X70488000Y-116696500D01*
G75*
G02*
X70250500Y-116934000I-237500J0D01*
G01*
X69750500Y-116934000D01*
G75*
G02*
X69513000Y-116696500I0J237500D01*
G01*
G37*
%TD.AperFunction*%
%TO.P,R2,1*%
%TO.N,GNDA*%
%TA.AperFunction,SMDPad,CuDef*%
G36*
G01*
X67688000Y-116696500D02*
X67688000Y-116221500D01*
G75*
G02*
X67925500Y-115984000I237500J0D01*
G01*
X68425500Y-115984000D01*
G75*
G02*
X68663000Y-116221500I0J-237500D01*
G01*
X68663000Y-116696500D01*
G75*
G02*
X68425500Y-116934000I-237500J0D01*
G01*
X67925500Y-116934000D01*
G75*
G02*
X67688000Y-116696500I0J237500D01*
G01*
G37*
%TD.AperFunction*%
%TD*%
%TO.P,R3,2*%
%TO.N,Net-(C3-Pad1)*%
%TA.AperFunction,SMDPad,CuDef*%
G36*
G01*
X69538001Y-128274500D02*
X68637999Y-128274500D01*
G75*
G02*
X68388000Y-128024501I0J249999D01*
G01*
X68388000Y-127499499D01*
G75*
G02*
X68637999Y-127249500I249999J0D01*
G01*
X69538001Y-127249500D01*
G75*
G02*
X69788000Y-127499499I0J-249999D01*
G01*
X69788000Y-128024501D01*
G75*
G02*
X69538001Y-128274500I-249999J0D01*
G01*
G37*
%TD.AperFunction*%
%TO.P,R3,1*%
%TO.N,Net-(C3-Pad2)*%
%TA.AperFunction,SMDPad,CuDef*%
G36*
G01*
X69538001Y-130099500D02*
X68637999Y-130099500D01*
G75*
G02*
X68388000Y-129849501I0J249999D01*
G01*
X68388000Y-129324499D01*
G75*
G02*
X68637999Y-129074500I249999J0D01*
G01*
X69538001Y-129074500D01*
G75*
G02*
X69788000Y-129324499I0J-249999D01*
G01*
X69788000Y-129849501D01*
G75*
G02*
X69538001Y-130099500I-249999J0D01*
G01*
G37*
%TD.AperFunction*%
%TD*%
D12*
%TO.P,U1,4*%
%TO.N,Net-(C3-Pad2)*%
X76073000Y-120998000D03*
%TO.P,U1,5*%
%TO.N,Net-(U1-Pad5)*%
X76073000Y-126398000D03*
%TO.P,U1,3*%
%TO.N,GNDA*%
X74803000Y-120998000D03*
%TO.P,U1,6*%
%TO.N,+3V0*%
X74803000Y-126398000D03*
%TO.P,U1,2*%
%TO.N,Net-(U1-Pad1)*%
X73533000Y-120998000D03*
%TO.P,U1,7*%
X73533000Y-126398000D03*
%TO.P,U1,1*%
X72263000Y-120998000D03*
%TO.P,U1,8*%
%TO.N,Net-(C3-Pad1)*%
X72263000Y-126398000D03*
%TD*%
D13*
%TO.P,J3,6*%
%TO.N,GND*%
X105410000Y-129794000D03*
%TO.P,J3,5*%
%TO.N,Net-(J3-Pad5)*%
X105410000Y-127254000D03*
%TO.P,J3,4*%
%TO.N,/DOUT_BUF*%
X105410000Y-124714000D03*
%TO.P,J3,3*%
%TO.N,Net-(J3-Pad3)*%
X105410000Y-122174000D03*
%TO.P,J3,2*%
%TO.N,Net-(J3-Pad2)*%
X105410000Y-119634000D03*
D11*
%TO.P,J3,1*%
%TO.N,+10V*%
X105410000Y-117094000D03*
%TD*%
D14*
%TO.P,J1,1*%
%TO.N,Net-(C3-Pad1)*%
X69088000Y-125476000D03*
%TD*%
%TO.P,C2,2*%
%TO.N,GNDA*%
%TA.AperFunction,SMDPad,CuDef*%
G36*
G01*
X78045300Y-115896100D02*
X78520300Y-115896100D01*
G75*
G02*
X78757800Y-116133600I0J-237500D01*
G01*
X78757800Y-116733600D01*
G75*
G02*
X78520300Y-116971100I-237500J0D01*
G01*
X78045300Y-116971100D01*
G75*
G02*
X77807800Y-116733600I0J237500D01*
G01*
X77807800Y-116133600D01*
G75*
G02*
X78045300Y-115896100I237500J0D01*
G01*
G37*
%TD.AperFunction*%
%TO.P,C2,1*%
%TO.N,+3V0*%
%TA.AperFunction,SMDPad,CuDef*%
G36*
G01*
X78045300Y-114171100D02*
X78520300Y-114171100D01*
G75*
G02*
X78757800Y-114408600I0J-237500D01*
G01*
X78757800Y-115008600D01*
G75*
G02*
X78520300Y-115246100I-237500J0D01*
G01*
X78045300Y-115246100D01*
G75*
G02*
X77807800Y-115008600I0J237500D01*
G01*
X77807800Y-114408600D01*
G75*
G02*
X78045300Y-114171100I237500J0D01*
G01*
G37*
%TD.AperFunction*%
%TD*%
D15*
%TO.P,BT1,2*%
%TO.N,GNDA*%
X79935000Y-123825000D03*
%TO.P,BT1,1*%
%TO.N,+3V0*%
X109295000Y-123825000D03*
%TD*%
D16*
%TO.N,GND*%
X95250000Y-117348000D03*
X98552000Y-116840000D03*
X100584000Y-117094000D03*
X100584000Y-115062000D03*
X103378000Y-127000000D03*
X103251000Y-130429000D03*
X100584000Y-131699000D03*
X98679000Y-131699000D03*
X99758500Y-125730000D03*
X97790000Y-125730000D03*
%TO.N,+3V0*%
X67056000Y-117856000D03*
X76200000Y-118300500D03*
X74993500Y-124714000D03*
X79502000Y-128143000D03*
X77470000Y-115366800D03*
%TO.N,Net-(C3-Pad2)*%
X77343000Y-121742200D03*
%TO.N,Net-(C5-Pad1)*%
X85090000Y-128270000D03*
X82804000Y-128172998D03*
X82804000Y-124714000D03*
X87884000Y-120904000D03*
%TO.N,+10V*%
X103124000Y-117348000D03*
X103251000Y-128651000D03*
%TO.N,Net-(J3-Pad3)*%
X97282000Y-116967000D03*
%TO.N,Net-(U4-Pad8)*%
X95572153Y-123385153D03*
X97023347Y-119883347D03*
%TO.N,Net-(U4-Pad6)*%
X95638762Y-125675126D03*
X98771003Y-125924000D03*
%TO.N,GNDA*%
X68072000Y-115062000D03*
X69088000Y-114300000D03*
X71120000Y-117348000D03*
X74930000Y-122682000D03*
X79400400Y-120091200D03*
X79502000Y-126441200D03*
X85775800Y-127177800D03*
X88138000Y-123952000D03*
X85090000Y-124460000D03*
X85344000Y-121666000D03*
X90678000Y-117348000D03*
X77901800Y-117805200D03*
X83566000Y-130073400D03*
X81000600Y-126669800D03*
X86614000Y-117348000D03*
%TD*%
D17*
%TO.N,+3V0*%
X68175500Y-118033800D02*
X67233800Y-118033800D01*
X67233800Y-118033800D02*
X67056000Y-117856000D01*
X74959200Y-118323400D02*
X76177100Y-118323400D01*
X76177100Y-118323400D02*
X76200000Y-118300500D01*
X74803000Y-126398000D02*
X74803000Y-124904500D01*
X74803000Y-124904500D02*
X74993500Y-124714000D01*
X76248200Y-118252300D02*
X76200000Y-118300500D01*
X76248200Y-114808000D02*
X76248200Y-118252300D01*
D18*
X109295000Y-123825000D02*
X109295000Y-114273400D01*
X108156599Y-113134999D02*
X81556001Y-113134999D01*
X109295000Y-114273400D02*
X108156599Y-113134999D01*
X81556001Y-113134999D02*
X80010000Y-114681000D01*
X78310400Y-114681000D02*
X78282800Y-114708600D01*
X80010000Y-114681000D02*
X78310400Y-114681000D01*
X78282800Y-114708600D02*
X78128200Y-114708600D01*
X78128200Y-114708600D02*
X77470000Y-115366800D01*
D17*
%TO.N,Net-(C3-Pad2)*%
X76823001Y-121748001D02*
X76073000Y-120998000D01*
X76823001Y-127858001D02*
X76823001Y-121748001D01*
X75079992Y-129601010D02*
X76823001Y-127858001D01*
X69102010Y-129601010D02*
X75079992Y-129601010D01*
X69088000Y-129587000D02*
X69102010Y-129601010D01*
X76823001Y-121748001D02*
X77337199Y-121748001D01*
X77337199Y-121748001D02*
X77343000Y-121742200D01*
D18*
%TO.N,Net-(C3-Pad1)*%
X69182000Y-126398000D02*
X69088000Y-126492000D01*
X69088000Y-125603000D02*
X69088000Y-126492000D01*
X69088000Y-126492000D02*
X69088000Y-127762000D01*
X70815200Y-126542800D02*
X70764400Y-126492000D01*
X70815200Y-127600600D02*
X70815200Y-126542800D01*
X69088000Y-126492000D02*
X70764400Y-126492000D01*
X70764400Y-126492000D02*
X72009000Y-126492000D01*
D19*
%TO.N,Net-(J3-Pad3)*%
X102489000Y-122174000D02*
X105410000Y-122174000D01*
X97282000Y-116967000D02*
X102489000Y-122174000D01*
%TO.N,Net-(U4-Pad8)*%
X95572153Y-123385153D02*
X97023347Y-121933959D01*
X97023347Y-121933959D02*
X97023347Y-119883347D01*
%TO.N,Net-(U4-Pad6)*%
X98771003Y-125638001D02*
X98771003Y-125924000D01*
X98138001Y-125004999D02*
X98771003Y-125638001D01*
X95638762Y-125675126D02*
X96308889Y-125004999D01*
X96308889Y-125004999D02*
X98138001Y-125004999D01*
D17*
%TO.N,GNDA*%
X68175500Y-116459000D02*
X68175500Y-115165500D01*
X68175500Y-115165500D02*
X68072000Y-115062000D01*
X70487600Y-114731800D02*
X69519800Y-114731800D01*
X69519800Y-114731800D02*
X69088000Y-114300000D01*
X72259200Y-117373400D02*
X71145400Y-117373400D01*
X71145400Y-117373400D02*
X71120000Y-117348000D01*
X74803000Y-120998000D02*
X74803000Y-122555000D01*
X74803000Y-122555000D02*
X74930000Y-122682000D01*
D19*
X72999202Y-117373400D02*
X73854199Y-116518403D01*
X73854199Y-115452001D02*
X74498200Y-114808000D01*
X73854199Y-116518403D02*
X73854199Y-115452001D01*
X72259200Y-117373400D02*
X72999202Y-117373400D01*
D18*
X78282800Y-116433600D02*
X78282800Y-117424200D01*
X78282800Y-117424200D02*
X77901800Y-117805200D01*
X79935000Y-123825000D02*
X79935000Y-125604200D01*
X79935000Y-125604200D02*
X81000600Y-126669800D01*
D17*
%TO.N,Net-(C12-Pad1)*%
X72237600Y-116401800D02*
X72259200Y-116423400D01*
X70000500Y-116459000D02*
X70000500Y-118033800D01*
X72223600Y-116459000D02*
X72259200Y-116423400D01*
X70000500Y-116459000D02*
X72223600Y-116459000D01*
X72259200Y-114753400D02*
X72237600Y-114731800D01*
X72259200Y-116423400D02*
X72259200Y-114753400D01*
D18*
%TO.N,Net-(U1-Pad1)*%
X68973700Y-121029100D02*
X70497700Y-121029100D01*
X70497700Y-121029100D02*
X70648200Y-121029100D01*
D17*
X72230000Y-121031000D02*
X72263000Y-120998000D01*
D19*
X67967980Y-128651000D02*
X67944480Y-128674500D01*
X70358000Y-128651000D02*
X67967980Y-128651000D01*
D17*
X73500000Y-121031000D02*
X73533000Y-120998000D01*
D18*
X67944480Y-128674500D02*
X67387999Y-128118019D01*
D17*
X73312000Y-120998000D02*
X73279000Y-121031000D01*
X73533000Y-120998000D02*
X73312000Y-120998000D01*
D18*
X70497700Y-121029100D02*
X71943600Y-121029100D01*
X67387999Y-122614801D02*
X67387999Y-128118019D01*
X68973700Y-121029100D02*
X67387999Y-122614801D01*
X72263000Y-120998000D02*
X73312000Y-120998000D01*
D17*
X72263000Y-118327200D02*
X72259200Y-118323400D01*
X73059200Y-118323400D02*
X72259200Y-118323400D01*
X74959200Y-116423400D02*
X73059200Y-118323400D01*
D18*
X72263000Y-120998000D02*
X72263000Y-118668800D01*
D19*
X70358000Y-128651000D02*
X71882000Y-128651000D01*
D17*
X73533000Y-127998000D02*
X73533000Y-126398000D01*
X72880000Y-128651000D02*
X73533000Y-127998000D01*
X71882000Y-128651000D02*
X72880000Y-128651000D01*
%TD*%
M02*
