%TF.GenerationSoftware,KiCad,Pcbnew,(5.1.6)-1*%
%TF.CreationDate,2020-11-12T12:57:51-08:00*%
%TF.ProjectId,frontendfullv2,66726f6e-7465-46e6-9466-756c6c76322e,rev?*%
%TF.SameCoordinates,Original*%
%TF.FileFunction,Soldermask,Top*%
%TF.FilePolarity,Negative*%
%FSLAX46Y46*%
G04 Gerber Fmt 4.6, Leading zero omitted, Abs format (unit mm)*
G04 Created by KiCad (PCBNEW (5.1.6)-1) date 2020-11-12 12:57:51*
%MOMM*%
%LPD*%
G01*
G04 APERTURE LIST*
%ADD10R,1.800000X1.800000*%
%ADD11C,2.300000*%
%ADD12C,0.100000*%
%ADD13R,1.400000X1.000000*%
%ADD14R,1.660000X0.750000*%
%ADD15R,0.750000X1.660000*%
%ADD16O,1.800000X1.800000*%
G04 APERTURE END LIST*
%TO.C,C7*%
G36*
G01*
X87092262Y-119479000D02*
X86135738Y-119479000D01*
G75*
G02*
X85864000Y-119207262I0J271738D01*
G01*
X85864000Y-118500738D01*
G75*
G02*
X86135738Y-118229000I271738J0D01*
G01*
X87092262Y-118229000D01*
G75*
G02*
X87364000Y-118500738I0J-271738D01*
G01*
X87364000Y-119207262D01*
G75*
G02*
X87092262Y-119479000I-271738J0D01*
G01*
G37*
G36*
G01*
X87092262Y-121529000D02*
X86135738Y-121529000D01*
G75*
G02*
X85864000Y-121257262I0J271738D01*
G01*
X85864000Y-120550738D01*
G75*
G02*
X86135738Y-120279000I271738J0D01*
G01*
X87092262Y-120279000D01*
G75*
G02*
X87364000Y-120550738I0J-271738D01*
G01*
X87364000Y-121257262D01*
G75*
G02*
X87092262Y-121529000I-271738J0D01*
G01*
G37*
%TD*%
D10*
%TO.C,J2*%
X80010000Y-118110000D03*
%TD*%
D11*
%TO.C,H4*%
X112014000Y-114808000D03*
%TD*%
%TO.C,H3*%
X79375000Y-130810000D03*
%TD*%
%TO.C,H2*%
X111760000Y-130810000D03*
%TD*%
%TO.C,H1*%
X83312000Y-114935000D03*
%TD*%
%TO.C,R5*%
G36*
G01*
X93339000Y-117610500D02*
X93339000Y-117085500D01*
G75*
G02*
X93601500Y-116823000I262500J0D01*
G01*
X94151500Y-116823000D01*
G75*
G02*
X94414000Y-117085500I0J-262500D01*
G01*
X94414000Y-117610500D01*
G75*
G02*
X94151500Y-117873000I-262500J0D01*
G01*
X93601500Y-117873000D01*
G75*
G02*
X93339000Y-117610500I0J262500D01*
G01*
G37*
G36*
G01*
X91514000Y-117610500D02*
X91514000Y-117085500D01*
G75*
G02*
X91776500Y-116823000I262500J0D01*
G01*
X92326500Y-116823000D01*
G75*
G02*
X92589000Y-117085500I0J-262500D01*
G01*
X92589000Y-117610500D01*
G75*
G02*
X92326500Y-117873000I-262500J0D01*
G01*
X91776500Y-117873000D01*
G75*
G02*
X91514000Y-117610500I0J262500D01*
G01*
G37*
%TD*%
D12*
%TO.C,U6*%
G36*
X94718245Y-129439539D02*
G01*
X94708866Y-129436694D01*
X94700221Y-129432073D01*
X94692645Y-129425855D01*
X94686427Y-129418279D01*
X94681806Y-129409634D01*
X94678961Y-129400255D01*
X94678000Y-129390500D01*
X94678000Y-127657500D01*
X94678961Y-127647745D01*
X94681806Y-127638366D01*
X94686427Y-127629721D01*
X94692645Y-127622145D01*
X94700221Y-127615927D01*
X94708866Y-127611306D01*
X94718245Y-127608461D01*
X94728000Y-127607500D01*
X97853000Y-127607500D01*
X97862755Y-127608461D01*
X97872134Y-127611306D01*
X97880779Y-127615927D01*
X97888355Y-127622145D01*
X97894573Y-127629721D01*
X97899194Y-127638366D01*
X97902039Y-127647745D01*
X97903000Y-127657500D01*
X97903000Y-128024000D01*
X99328000Y-128024000D01*
X99337755Y-128024961D01*
X99347134Y-128027806D01*
X99355779Y-128032427D01*
X99363355Y-128038645D01*
X99369573Y-128046221D01*
X99374194Y-128054866D01*
X99377039Y-128064245D01*
X99378000Y-128074000D01*
X99378000Y-128974000D01*
X99377039Y-128983755D01*
X99374194Y-128993134D01*
X99369573Y-129001779D01*
X99363355Y-129009355D01*
X99355779Y-129015573D01*
X99347134Y-129020194D01*
X99337755Y-129023039D01*
X99328000Y-129024000D01*
X97903000Y-129024000D01*
X97903000Y-129390500D01*
X97902039Y-129400255D01*
X97899194Y-129409634D01*
X97894573Y-129418279D01*
X97888355Y-129425855D01*
X97880779Y-129432073D01*
X97872134Y-129436694D01*
X97862755Y-129439539D01*
X97853000Y-129440500D01*
X94728000Y-129440500D01*
X94718245Y-129439539D01*
G37*
D13*
X98678000Y-127024000D03*
X98678000Y-130024000D03*
%TD*%
%TO.C,U5*%
G36*
G01*
X100377000Y-123487000D02*
X100627000Y-123487000D01*
G75*
G02*
X100752000Y-123612000I0J-125000D01*
G01*
X100752000Y-124937000D01*
G75*
G02*
X100627000Y-125062000I-125000J0D01*
G01*
X100377000Y-125062000D01*
G75*
G02*
X100252000Y-124937000I0J125000D01*
G01*
X100252000Y-123612000D01*
G75*
G02*
X100377000Y-123487000I125000J0D01*
G01*
G37*
G36*
G01*
X99727000Y-123487000D02*
X99977000Y-123487000D01*
G75*
G02*
X100102000Y-123612000I0J-125000D01*
G01*
X100102000Y-124937000D01*
G75*
G02*
X99977000Y-125062000I-125000J0D01*
G01*
X99727000Y-125062000D01*
G75*
G02*
X99602000Y-124937000I0J125000D01*
G01*
X99602000Y-123612000D01*
G75*
G02*
X99727000Y-123487000I125000J0D01*
G01*
G37*
G36*
G01*
X99077000Y-123487000D02*
X99327000Y-123487000D01*
G75*
G02*
X99452000Y-123612000I0J-125000D01*
G01*
X99452000Y-124937000D01*
G75*
G02*
X99327000Y-125062000I-125000J0D01*
G01*
X99077000Y-125062000D01*
G75*
G02*
X98952000Y-124937000I0J125000D01*
G01*
X98952000Y-123612000D01*
G75*
G02*
X99077000Y-123487000I125000J0D01*
G01*
G37*
G36*
G01*
X98427000Y-123487000D02*
X98677000Y-123487000D01*
G75*
G02*
X98802000Y-123612000I0J-125000D01*
G01*
X98802000Y-124937000D01*
G75*
G02*
X98677000Y-125062000I-125000J0D01*
G01*
X98427000Y-125062000D01*
G75*
G02*
X98302000Y-124937000I0J125000D01*
G01*
X98302000Y-123612000D01*
G75*
G02*
X98427000Y-123487000I125000J0D01*
G01*
G37*
G36*
G01*
X97777000Y-123487000D02*
X98027000Y-123487000D01*
G75*
G02*
X98152000Y-123612000I0J-125000D01*
G01*
X98152000Y-124937000D01*
G75*
G02*
X98027000Y-125062000I-125000J0D01*
G01*
X97777000Y-125062000D01*
G75*
G02*
X97652000Y-124937000I0J125000D01*
G01*
X97652000Y-123612000D01*
G75*
G02*
X97777000Y-123487000I125000J0D01*
G01*
G37*
G36*
G01*
X97127000Y-123487000D02*
X97377000Y-123487000D01*
G75*
G02*
X97502000Y-123612000I0J-125000D01*
G01*
X97502000Y-124937000D01*
G75*
G02*
X97377000Y-125062000I-125000J0D01*
G01*
X97127000Y-125062000D01*
G75*
G02*
X97002000Y-124937000I0J125000D01*
G01*
X97002000Y-123612000D01*
G75*
G02*
X97127000Y-123487000I125000J0D01*
G01*
G37*
G36*
G01*
X96477000Y-123487000D02*
X96727000Y-123487000D01*
G75*
G02*
X96852000Y-123612000I0J-125000D01*
G01*
X96852000Y-124937000D01*
G75*
G02*
X96727000Y-125062000I-125000J0D01*
G01*
X96477000Y-125062000D01*
G75*
G02*
X96352000Y-124937000I0J125000D01*
G01*
X96352000Y-123612000D01*
G75*
G02*
X96477000Y-123487000I125000J0D01*
G01*
G37*
G36*
G01*
X96477000Y-117762000D02*
X96727000Y-117762000D01*
G75*
G02*
X96852000Y-117887000I0J-125000D01*
G01*
X96852000Y-119212000D01*
G75*
G02*
X96727000Y-119337000I-125000J0D01*
G01*
X96477000Y-119337000D01*
G75*
G02*
X96352000Y-119212000I0J125000D01*
G01*
X96352000Y-117887000D01*
G75*
G02*
X96477000Y-117762000I125000J0D01*
G01*
G37*
G36*
G01*
X97127000Y-117762000D02*
X97377000Y-117762000D01*
G75*
G02*
X97502000Y-117887000I0J-125000D01*
G01*
X97502000Y-119212000D01*
G75*
G02*
X97377000Y-119337000I-125000J0D01*
G01*
X97127000Y-119337000D01*
G75*
G02*
X97002000Y-119212000I0J125000D01*
G01*
X97002000Y-117887000D01*
G75*
G02*
X97127000Y-117762000I125000J0D01*
G01*
G37*
G36*
G01*
X97777000Y-117762000D02*
X98027000Y-117762000D01*
G75*
G02*
X98152000Y-117887000I0J-125000D01*
G01*
X98152000Y-119212000D01*
G75*
G02*
X98027000Y-119337000I-125000J0D01*
G01*
X97777000Y-119337000D01*
G75*
G02*
X97652000Y-119212000I0J125000D01*
G01*
X97652000Y-117887000D01*
G75*
G02*
X97777000Y-117762000I125000J0D01*
G01*
G37*
G36*
G01*
X98427000Y-117762000D02*
X98677000Y-117762000D01*
G75*
G02*
X98802000Y-117887000I0J-125000D01*
G01*
X98802000Y-119212000D01*
G75*
G02*
X98677000Y-119337000I-125000J0D01*
G01*
X98427000Y-119337000D01*
G75*
G02*
X98302000Y-119212000I0J125000D01*
G01*
X98302000Y-117887000D01*
G75*
G02*
X98427000Y-117762000I125000J0D01*
G01*
G37*
G36*
G01*
X99077000Y-117762000D02*
X99327000Y-117762000D01*
G75*
G02*
X99452000Y-117887000I0J-125000D01*
G01*
X99452000Y-119212000D01*
G75*
G02*
X99327000Y-119337000I-125000J0D01*
G01*
X99077000Y-119337000D01*
G75*
G02*
X98952000Y-119212000I0J125000D01*
G01*
X98952000Y-117887000D01*
G75*
G02*
X99077000Y-117762000I125000J0D01*
G01*
G37*
G36*
G01*
X99727000Y-117762000D02*
X99977000Y-117762000D01*
G75*
G02*
X100102000Y-117887000I0J-125000D01*
G01*
X100102000Y-119212000D01*
G75*
G02*
X99977000Y-119337000I-125000J0D01*
G01*
X99727000Y-119337000D01*
G75*
G02*
X99602000Y-119212000I0J125000D01*
G01*
X99602000Y-117887000D01*
G75*
G02*
X99727000Y-117762000I125000J0D01*
G01*
G37*
G36*
G01*
X100377000Y-117762000D02*
X100627000Y-117762000D01*
G75*
G02*
X100752000Y-117887000I0J-125000D01*
G01*
X100752000Y-119212000D01*
G75*
G02*
X100627000Y-119337000I-125000J0D01*
G01*
X100377000Y-119337000D01*
G75*
G02*
X100252000Y-119212000I0J125000D01*
G01*
X100252000Y-117887000D01*
G75*
G02*
X100377000Y-117762000I125000J0D01*
G01*
G37*
%TD*%
%TO.C,U4*%
G36*
G01*
X90223400Y-122569400D02*
X90223400Y-122369400D01*
G75*
G02*
X90323400Y-122269400I100000J0D01*
G01*
X91673400Y-122269400D01*
G75*
G02*
X91773400Y-122369400I0J-100000D01*
G01*
X91773400Y-122569400D01*
G75*
G02*
X91673400Y-122669400I-100000J0D01*
G01*
X90323400Y-122669400D01*
G75*
G02*
X90223400Y-122569400I0J100000D01*
G01*
G37*
G36*
G01*
X90223400Y-123069400D02*
X90223400Y-122869400D01*
G75*
G02*
X90323400Y-122769400I100000J0D01*
G01*
X91673400Y-122769400D01*
G75*
G02*
X91773400Y-122869400I0J-100000D01*
G01*
X91773400Y-123069400D01*
G75*
G02*
X91673400Y-123169400I-100000J0D01*
G01*
X90323400Y-123169400D01*
G75*
G02*
X90223400Y-123069400I0J100000D01*
G01*
G37*
G36*
G01*
X90223400Y-123569400D02*
X90223400Y-123369400D01*
G75*
G02*
X90323400Y-123269400I100000J0D01*
G01*
X91673400Y-123269400D01*
G75*
G02*
X91773400Y-123369400I0J-100000D01*
G01*
X91773400Y-123569400D01*
G75*
G02*
X91673400Y-123669400I-100000J0D01*
G01*
X90323400Y-123669400D01*
G75*
G02*
X90223400Y-123569400I0J100000D01*
G01*
G37*
G36*
G01*
X90223400Y-124069400D02*
X90223400Y-123869400D01*
G75*
G02*
X90323400Y-123769400I100000J0D01*
G01*
X91673400Y-123769400D01*
G75*
G02*
X91773400Y-123869400I0J-100000D01*
G01*
X91773400Y-124069400D01*
G75*
G02*
X91673400Y-124169400I-100000J0D01*
G01*
X90323400Y-124169400D01*
G75*
G02*
X90223400Y-124069400I0J100000D01*
G01*
G37*
G36*
G01*
X90223400Y-124569400D02*
X90223400Y-124369400D01*
G75*
G02*
X90323400Y-124269400I100000J0D01*
G01*
X91673400Y-124269400D01*
G75*
G02*
X91773400Y-124369400I0J-100000D01*
G01*
X91773400Y-124569400D01*
G75*
G02*
X91673400Y-124669400I-100000J0D01*
G01*
X90323400Y-124669400D01*
G75*
G02*
X90223400Y-124569400I0J100000D01*
G01*
G37*
G36*
G01*
X85823400Y-124569400D02*
X85823400Y-124369400D01*
G75*
G02*
X85923400Y-124269400I100000J0D01*
G01*
X87273400Y-124269400D01*
G75*
G02*
X87373400Y-124369400I0J-100000D01*
G01*
X87373400Y-124569400D01*
G75*
G02*
X87273400Y-124669400I-100000J0D01*
G01*
X85923400Y-124669400D01*
G75*
G02*
X85823400Y-124569400I0J100000D01*
G01*
G37*
G36*
G01*
X85823400Y-124069400D02*
X85823400Y-123869400D01*
G75*
G02*
X85923400Y-123769400I100000J0D01*
G01*
X87273400Y-123769400D01*
G75*
G02*
X87373400Y-123869400I0J-100000D01*
G01*
X87373400Y-124069400D01*
G75*
G02*
X87273400Y-124169400I-100000J0D01*
G01*
X85923400Y-124169400D01*
G75*
G02*
X85823400Y-124069400I0J100000D01*
G01*
G37*
G36*
G01*
X85823400Y-123569400D02*
X85823400Y-123369400D01*
G75*
G02*
X85923400Y-123269400I100000J0D01*
G01*
X87273400Y-123269400D01*
G75*
G02*
X87373400Y-123369400I0J-100000D01*
G01*
X87373400Y-123569400D01*
G75*
G02*
X87273400Y-123669400I-100000J0D01*
G01*
X85923400Y-123669400D01*
G75*
G02*
X85823400Y-123569400I0J100000D01*
G01*
G37*
G36*
G01*
X85823400Y-123069400D02*
X85823400Y-122869400D01*
G75*
G02*
X85923400Y-122769400I100000J0D01*
G01*
X87273400Y-122769400D01*
G75*
G02*
X87373400Y-122869400I0J-100000D01*
G01*
X87373400Y-123069400D01*
G75*
G02*
X87273400Y-123169400I-100000J0D01*
G01*
X85923400Y-123169400D01*
G75*
G02*
X85823400Y-123069400I0J100000D01*
G01*
G37*
G36*
G01*
X85823400Y-122569400D02*
X85823400Y-122369400D01*
G75*
G02*
X85923400Y-122269400I100000J0D01*
G01*
X87273400Y-122269400D01*
G75*
G02*
X87373400Y-122369400I0J-100000D01*
G01*
X87373400Y-122569400D01*
G75*
G02*
X87273400Y-122669400I-100000J0D01*
G01*
X85923400Y-122669400D01*
G75*
G02*
X85823400Y-122569400I0J100000D01*
G01*
G37*
%TD*%
D14*
%TO.C,U3*%
X85090000Y-130048000D03*
X85090000Y-129098000D03*
X85090000Y-130998000D03*
X82390000Y-130998000D03*
X82390000Y-130048000D03*
X82390000Y-129098000D03*
%TD*%
D15*
%TO.C,U2*%
X80325000Y-124438400D03*
X78425000Y-124438400D03*
X78425000Y-121738400D03*
X79375000Y-121738400D03*
X80325000Y-121738400D03*
%TD*%
%TO.C,R4*%
G36*
G01*
X82304500Y-122281600D02*
X81779500Y-122281600D01*
G75*
G02*
X81517000Y-122019100I0J262500D01*
G01*
X81517000Y-121469100D01*
G75*
G02*
X81779500Y-121206600I262500J0D01*
G01*
X82304500Y-121206600D01*
G75*
G02*
X82567000Y-121469100I0J-262500D01*
G01*
X82567000Y-122019100D01*
G75*
G02*
X82304500Y-122281600I-262500J0D01*
G01*
G37*
G36*
G01*
X82304500Y-124106600D02*
X81779500Y-124106600D01*
G75*
G02*
X81517000Y-123844100I0J262500D01*
G01*
X81517000Y-123294100D01*
G75*
G02*
X81779500Y-123031600I262500J0D01*
G01*
X82304500Y-123031600D01*
G75*
G02*
X82567000Y-123294100I0J-262500D01*
G01*
X82567000Y-123844100D01*
G75*
G02*
X82304500Y-124106600I-262500J0D01*
G01*
G37*
%TD*%
D16*
%TO.C,J3*%
X105410000Y-129794000D03*
X105410000Y-127254000D03*
X105410000Y-124714000D03*
X105410000Y-122174000D03*
X105410000Y-119634000D03*
D10*
X105410000Y-117094000D03*
%TD*%
%TO.C,C11*%
G36*
G01*
X101621000Y-127262500D02*
X101621000Y-126737500D01*
G75*
G02*
X101883500Y-126475000I262500J0D01*
G01*
X102533500Y-126475000D01*
G75*
G02*
X102796000Y-126737500I0J-262500D01*
G01*
X102796000Y-127262500D01*
G75*
G02*
X102533500Y-127525000I-262500J0D01*
G01*
X101883500Y-127525000D01*
G75*
G02*
X101621000Y-127262500I0J262500D01*
G01*
G37*
G36*
G01*
X99896000Y-127262500D02*
X99896000Y-126737500D01*
G75*
G02*
X100158500Y-126475000I262500J0D01*
G01*
X100808500Y-126475000D01*
G75*
G02*
X101071000Y-126737500I0J-262500D01*
G01*
X101071000Y-127262500D01*
G75*
G02*
X100808500Y-127525000I-262500J0D01*
G01*
X100158500Y-127525000D01*
G75*
G02*
X99896000Y-127262500I0J262500D01*
G01*
G37*
%TD*%
%TO.C,C10*%
G36*
G01*
X100321500Y-129815000D02*
X100846500Y-129815000D01*
G75*
G02*
X101109000Y-130077500I0J-262500D01*
G01*
X101109000Y-130727500D01*
G75*
G02*
X100846500Y-130990000I-262500J0D01*
G01*
X100321500Y-130990000D01*
G75*
G02*
X100059000Y-130727500I0J262500D01*
G01*
X100059000Y-130077500D01*
G75*
G02*
X100321500Y-129815000I262500J0D01*
G01*
G37*
G36*
G01*
X100321500Y-128090000D02*
X100846500Y-128090000D01*
G75*
G02*
X101109000Y-128352500I0J-262500D01*
G01*
X101109000Y-129002500D01*
G75*
G02*
X100846500Y-129265000I-262500J0D01*
G01*
X100321500Y-129265000D01*
G75*
G02*
X100059000Y-129002500I0J262500D01*
G01*
X100059000Y-128352500D01*
G75*
G02*
X100321500Y-128090000I262500J0D01*
G01*
G37*
%TD*%
%TO.C,C9*%
G36*
G01*
X101845500Y-129815000D02*
X102370500Y-129815000D01*
G75*
G02*
X102633000Y-130077500I0J-262500D01*
G01*
X102633000Y-130727500D01*
G75*
G02*
X102370500Y-130990000I-262500J0D01*
G01*
X101845500Y-130990000D01*
G75*
G02*
X101583000Y-130727500I0J262500D01*
G01*
X101583000Y-130077500D01*
G75*
G02*
X101845500Y-129815000I262500J0D01*
G01*
G37*
G36*
G01*
X101845500Y-128090000D02*
X102370500Y-128090000D01*
G75*
G02*
X102633000Y-128352500I0J-262500D01*
G01*
X102633000Y-129002500D01*
G75*
G02*
X102370500Y-129265000I-262500J0D01*
G01*
X101845500Y-129265000D01*
G75*
G02*
X101583000Y-129002500I0J262500D01*
G01*
X101583000Y-128352500D01*
G75*
G02*
X101845500Y-128090000I262500J0D01*
G01*
G37*
%TD*%
%TO.C,C8*%
G36*
G01*
X102087000Y-115815500D02*
X102087000Y-116340500D01*
G75*
G02*
X101824500Y-116603000I-262500J0D01*
G01*
X101174500Y-116603000D01*
G75*
G02*
X100912000Y-116340500I0J262500D01*
G01*
X100912000Y-115815500D01*
G75*
G02*
X101174500Y-115553000I262500J0D01*
G01*
X101824500Y-115553000D01*
G75*
G02*
X102087000Y-115815500I0J-262500D01*
G01*
G37*
G36*
G01*
X103812000Y-115815500D02*
X103812000Y-116340500D01*
G75*
G02*
X103549500Y-116603000I-262500J0D01*
G01*
X102899500Y-116603000D01*
G75*
G02*
X102637000Y-116340500I0J262500D01*
G01*
X102637000Y-115815500D01*
G75*
G02*
X102899500Y-115553000I262500J0D01*
G01*
X103549500Y-115553000D01*
G75*
G02*
X103812000Y-115815500I0J-262500D01*
G01*
G37*
%TD*%
%TO.C,C6*%
G36*
G01*
X83891800Y-127440300D02*
X83891800Y-126915300D01*
G75*
G02*
X84154300Y-126652800I262500J0D01*
G01*
X84804300Y-126652800D01*
G75*
G02*
X85066800Y-126915300I0J-262500D01*
G01*
X85066800Y-127440300D01*
G75*
G02*
X84804300Y-127702800I-262500J0D01*
G01*
X84154300Y-127702800D01*
G75*
G02*
X83891800Y-127440300I0J262500D01*
G01*
G37*
G36*
G01*
X82166800Y-127440300D02*
X82166800Y-126915300D01*
G75*
G02*
X82429300Y-126652800I262500J0D01*
G01*
X83079300Y-126652800D01*
G75*
G02*
X83341800Y-126915300I0J-262500D01*
G01*
X83341800Y-127440300D01*
G75*
G02*
X83079300Y-127702800I-262500J0D01*
G01*
X82429300Y-127702800D01*
G75*
G02*
X82166800Y-127440300I0J262500D01*
G01*
G37*
%TD*%
%TO.C,C5*%
G36*
G01*
X83917200Y-125992500D02*
X83917200Y-125467500D01*
G75*
G02*
X84179700Y-125205000I262500J0D01*
G01*
X84829700Y-125205000D01*
G75*
G02*
X85092200Y-125467500I0J-262500D01*
G01*
X85092200Y-125992500D01*
G75*
G02*
X84829700Y-126255000I-262500J0D01*
G01*
X84179700Y-126255000D01*
G75*
G02*
X83917200Y-125992500I0J262500D01*
G01*
G37*
G36*
G01*
X82192200Y-125992500D02*
X82192200Y-125467500D01*
G75*
G02*
X82454700Y-125205000I262500J0D01*
G01*
X83104700Y-125205000D01*
G75*
G02*
X83367200Y-125467500I0J-262500D01*
G01*
X83367200Y-125992500D01*
G75*
G02*
X83104700Y-126255000I-262500J0D01*
G01*
X82454700Y-126255000D01*
G75*
G02*
X82192200Y-125992500I0J262500D01*
G01*
G37*
%TD*%
%TO.C,C4*%
G36*
G01*
X84412700Y-122330800D02*
X83887700Y-122330800D01*
G75*
G02*
X83625200Y-122068300I0J262500D01*
G01*
X83625200Y-121418300D01*
G75*
G02*
X83887700Y-121155800I262500J0D01*
G01*
X84412700Y-121155800D01*
G75*
G02*
X84675200Y-121418300I0J-262500D01*
G01*
X84675200Y-122068300D01*
G75*
G02*
X84412700Y-122330800I-262500J0D01*
G01*
G37*
G36*
G01*
X84412700Y-124055800D02*
X83887700Y-124055800D01*
G75*
G02*
X83625200Y-123793300I0J262500D01*
G01*
X83625200Y-123143300D01*
G75*
G02*
X83887700Y-122880800I262500J0D01*
G01*
X84412700Y-122880800D01*
G75*
G02*
X84675200Y-123143300I0J-262500D01*
G01*
X84675200Y-123793300D01*
G75*
G02*
X84412700Y-124055800I-262500J0D01*
G01*
G37*
%TD*%
%TO.C,C1*%
G36*
G01*
X78672300Y-127029800D02*
X78147300Y-127029800D01*
G75*
G02*
X77884800Y-126767300I0J262500D01*
G01*
X77884800Y-126117300D01*
G75*
G02*
X78147300Y-125854800I262500J0D01*
G01*
X78672300Y-125854800D01*
G75*
G02*
X78934800Y-126117300I0J-262500D01*
G01*
X78934800Y-126767300D01*
G75*
G02*
X78672300Y-127029800I-262500J0D01*
G01*
G37*
G36*
G01*
X78672300Y-128754800D02*
X78147300Y-128754800D01*
G75*
G02*
X77884800Y-128492300I0J262500D01*
G01*
X77884800Y-127842300D01*
G75*
G02*
X78147300Y-127579800I262500J0D01*
G01*
X78672300Y-127579800D01*
G75*
G02*
X78934800Y-127842300I0J-262500D01*
G01*
X78934800Y-128492300D01*
G75*
G02*
X78672300Y-128754800I-262500J0D01*
G01*
G37*
%TD*%
M02*
