%TF.GenerationSoftware,KiCad,Pcbnew,(5.1.6)-1*%
%TF.CreationDate,2020-11-12T12:57:51-08:00*%
%TF.ProjectId,frontendfullv2,66726f6e-7465-46e6-9466-756c6c76322e,rev?*%
%TF.SameCoordinates,Original*%
%TF.FileFunction,Copper,L1,Top*%
%TF.FilePolarity,Positive*%
%FSLAX46Y46*%
G04 Gerber Fmt 4.6, Leading zero omitted, Abs format (unit mm)*
G04 Created by KiCad (PCBNEW (5.1.6)-1) date 2020-11-12 12:57:51*
%MOMM*%
%LPD*%
G01*
G04 APERTURE LIST*
%TA.AperFunction,ComponentPad*%
%ADD10R,1.700000X1.700000*%
%TD*%
%TA.AperFunction,SMDPad,CuDef*%
%ADD11C,0.100000*%
%TD*%
%TA.AperFunction,SMDPad,CuDef*%
%ADD12R,1.300000X0.900000*%
%TD*%
%TA.AperFunction,SMDPad,CuDef*%
%ADD13R,1.560000X0.650000*%
%TD*%
%TA.AperFunction,SMDPad,CuDef*%
%ADD14R,0.650000X1.560000*%
%TD*%
%TA.AperFunction,ComponentPad*%
%ADD15O,1.700000X1.700000*%
%TD*%
%TA.AperFunction,ViaPad*%
%ADD16C,0.800000*%
%TD*%
%TA.AperFunction,Conductor*%
%ADD17C,0.500000*%
%TD*%
%TA.AperFunction,Conductor*%
%ADD18C,0.250000*%
%TD*%
%TA.AperFunction,Conductor*%
%ADD19C,1.000000*%
%TD*%
G04 APERTURE END LIST*
%TO.P,C7,2*%
%TO.N,GNDA*%
%TA.AperFunction,SMDPad,CuDef*%
G36*
G01*
X87064001Y-119429000D02*
X86163999Y-119429000D01*
G75*
G02*
X85914000Y-119179001I0J249999D01*
G01*
X85914000Y-118528999D01*
G75*
G02*
X86163999Y-118279000I249999J0D01*
G01*
X87064001Y-118279000D01*
G75*
G02*
X87314000Y-118528999I0J-249999D01*
G01*
X87314000Y-119179001D01*
G75*
G02*
X87064001Y-119429000I-249999J0D01*
G01*
G37*
%TD.AperFunction*%
%TO.P,C7,1*%
%TO.N,Net-(C5-Pad1)*%
%TA.AperFunction,SMDPad,CuDef*%
G36*
G01*
X87064001Y-121479000D02*
X86163999Y-121479000D01*
G75*
G02*
X85914000Y-121229001I0J249999D01*
G01*
X85914000Y-120578999D01*
G75*
G02*
X86163999Y-120329000I249999J0D01*
G01*
X87064001Y-120329000D01*
G75*
G02*
X87314000Y-120578999I0J-249999D01*
G01*
X87314000Y-121229001D01*
G75*
G02*
X87064001Y-121479000I-249999J0D01*
G01*
G37*
%TD.AperFunction*%
%TD*%
D10*
%TO.P,J2,1*%
%TO.N,GNDA*%
X80010000Y-118110000D03*
%TD*%
%TO.P,R5,2*%
%TO.N,GND*%
%TA.AperFunction,SMDPad,CuDef*%
G36*
G01*
X93389000Y-117585500D02*
X93389000Y-117110500D01*
G75*
G02*
X93626500Y-116873000I237500J0D01*
G01*
X94126500Y-116873000D01*
G75*
G02*
X94364000Y-117110500I0J-237500D01*
G01*
X94364000Y-117585500D01*
G75*
G02*
X94126500Y-117823000I-237500J0D01*
G01*
X93626500Y-117823000D01*
G75*
G02*
X93389000Y-117585500I0J237500D01*
G01*
G37*
%TD.AperFunction*%
%TO.P,R5,1*%
%TO.N,GNDA*%
%TA.AperFunction,SMDPad,CuDef*%
G36*
G01*
X91564000Y-117585500D02*
X91564000Y-117110500D01*
G75*
G02*
X91801500Y-116873000I237500J0D01*
G01*
X92301500Y-116873000D01*
G75*
G02*
X92539000Y-117110500I0J-237500D01*
G01*
X92539000Y-117585500D01*
G75*
G02*
X92301500Y-117823000I-237500J0D01*
G01*
X91801500Y-117823000D01*
G75*
G02*
X91564000Y-117585500I0J237500D01*
G01*
G37*
%TD.AperFunction*%
%TD*%
%TA.AperFunction,SMDPad,CuDef*%
D11*
%TO.P,U6,2*%
%TO.N,+10V*%
G36*
X94728000Y-127657500D02*
G01*
X97853000Y-127657500D01*
X97853000Y-128074000D01*
X99328000Y-128074000D01*
X99328000Y-128974000D01*
X97853000Y-128974000D01*
X97853000Y-129390500D01*
X94728000Y-129390500D01*
X94728000Y-127657500D01*
G37*
%TD.AperFunction*%
D12*
%TO.P,U6,3*%
%TO.N,+3V3*%
X98678000Y-127024000D03*
%TO.P,U6,1*%
%TO.N,GND*%
X98678000Y-130024000D03*
%TD*%
%TO.P,U5,14*%
%TO.N,+3V3*%
%TA.AperFunction,SMDPad,CuDef*%
G36*
G01*
X100402000Y-123537000D02*
X100602000Y-123537000D01*
G75*
G02*
X100702000Y-123637000I0J-100000D01*
G01*
X100702000Y-124912000D01*
G75*
G02*
X100602000Y-125012000I-100000J0D01*
G01*
X100402000Y-125012000D01*
G75*
G02*
X100302000Y-124912000I0J100000D01*
G01*
X100302000Y-123637000D01*
G75*
G02*
X100402000Y-123537000I100000J0D01*
G01*
G37*
%TD.AperFunction*%
%TO.P,U5,13*%
%TO.N,GND*%
%TA.AperFunction,SMDPad,CuDef*%
G36*
G01*
X99752000Y-123537000D02*
X99952000Y-123537000D01*
G75*
G02*
X100052000Y-123637000I0J-100000D01*
G01*
X100052000Y-124912000D01*
G75*
G02*
X99952000Y-125012000I-100000J0D01*
G01*
X99752000Y-125012000D01*
G75*
G02*
X99652000Y-124912000I0J100000D01*
G01*
X99652000Y-123637000D01*
G75*
G02*
X99752000Y-123537000I100000J0D01*
G01*
G37*
%TD.AperFunction*%
%TO.P,U5,12*%
%TO.N,Net-(J3-Pad5)*%
%TA.AperFunction,SMDPad,CuDef*%
G36*
G01*
X99102000Y-123537000D02*
X99302000Y-123537000D01*
G75*
G02*
X99402000Y-123637000I0J-100000D01*
G01*
X99402000Y-124912000D01*
G75*
G02*
X99302000Y-125012000I-100000J0D01*
G01*
X99102000Y-125012000D01*
G75*
G02*
X99002000Y-124912000I0J100000D01*
G01*
X99002000Y-123637000D01*
G75*
G02*
X99102000Y-123537000I100000J0D01*
G01*
G37*
%TD.AperFunction*%
%TO.P,U5,11*%
%TO.N,Net-(U4-Pad6)*%
%TA.AperFunction,SMDPad,CuDef*%
G36*
G01*
X98452000Y-123537000D02*
X98652000Y-123537000D01*
G75*
G02*
X98752000Y-123637000I0J-100000D01*
G01*
X98752000Y-124912000D01*
G75*
G02*
X98652000Y-125012000I-100000J0D01*
G01*
X98452000Y-125012000D01*
G75*
G02*
X98352000Y-124912000I0J100000D01*
G01*
X98352000Y-123637000D01*
G75*
G02*
X98452000Y-123537000I100000J0D01*
G01*
G37*
%TD.AperFunction*%
%TO.P,U5,10*%
%TO.N,GND*%
%TA.AperFunction,SMDPad,CuDef*%
G36*
G01*
X97802000Y-123537000D02*
X98002000Y-123537000D01*
G75*
G02*
X98102000Y-123637000I0J-100000D01*
G01*
X98102000Y-124912000D01*
G75*
G02*
X98002000Y-125012000I-100000J0D01*
G01*
X97802000Y-125012000D01*
G75*
G02*
X97702000Y-124912000I0J100000D01*
G01*
X97702000Y-123637000D01*
G75*
G02*
X97802000Y-123537000I100000J0D01*
G01*
G37*
%TD.AperFunction*%
%TO.P,U5,9*%
%TO.N,/DOUT*%
%TA.AperFunction,SMDPad,CuDef*%
G36*
G01*
X97152000Y-123537000D02*
X97352000Y-123537000D01*
G75*
G02*
X97452000Y-123637000I0J-100000D01*
G01*
X97452000Y-124912000D01*
G75*
G02*
X97352000Y-125012000I-100000J0D01*
G01*
X97152000Y-125012000D01*
G75*
G02*
X97052000Y-124912000I0J100000D01*
G01*
X97052000Y-123637000D01*
G75*
G02*
X97152000Y-123537000I100000J0D01*
G01*
G37*
%TD.AperFunction*%
%TO.P,U5,8*%
%TO.N,/DOUT_BUF*%
%TA.AperFunction,SMDPad,CuDef*%
G36*
G01*
X96502000Y-123537000D02*
X96702000Y-123537000D01*
G75*
G02*
X96802000Y-123637000I0J-100000D01*
G01*
X96802000Y-124912000D01*
G75*
G02*
X96702000Y-125012000I-100000J0D01*
G01*
X96502000Y-125012000D01*
G75*
G02*
X96402000Y-124912000I0J100000D01*
G01*
X96402000Y-123637000D01*
G75*
G02*
X96502000Y-123537000I100000J0D01*
G01*
G37*
%TD.AperFunction*%
%TO.P,U5,7*%
%TO.N,GND*%
%TA.AperFunction,SMDPad,CuDef*%
G36*
G01*
X96502000Y-117812000D02*
X96702000Y-117812000D01*
G75*
G02*
X96802000Y-117912000I0J-100000D01*
G01*
X96802000Y-119187000D01*
G75*
G02*
X96702000Y-119287000I-100000J0D01*
G01*
X96502000Y-119287000D01*
G75*
G02*
X96402000Y-119187000I0J100000D01*
G01*
X96402000Y-117912000D01*
G75*
G02*
X96502000Y-117812000I100000J0D01*
G01*
G37*
%TD.AperFunction*%
%TO.P,U5,6*%
%TO.N,Net-(U4-Pad8)*%
%TA.AperFunction,SMDPad,CuDef*%
G36*
G01*
X97152000Y-117812000D02*
X97352000Y-117812000D01*
G75*
G02*
X97452000Y-117912000I0J-100000D01*
G01*
X97452000Y-119187000D01*
G75*
G02*
X97352000Y-119287000I-100000J0D01*
G01*
X97152000Y-119287000D01*
G75*
G02*
X97052000Y-119187000I0J100000D01*
G01*
X97052000Y-117912000D01*
G75*
G02*
X97152000Y-117812000I100000J0D01*
G01*
G37*
%TD.AperFunction*%
%TO.P,U5,5*%
%TO.N,Net-(J3-Pad3)*%
%TA.AperFunction,SMDPad,CuDef*%
G36*
G01*
X97802000Y-117812000D02*
X98002000Y-117812000D01*
G75*
G02*
X98102000Y-117912000I0J-100000D01*
G01*
X98102000Y-119187000D01*
G75*
G02*
X98002000Y-119287000I-100000J0D01*
G01*
X97802000Y-119287000D01*
G75*
G02*
X97702000Y-119187000I0J100000D01*
G01*
X97702000Y-117912000D01*
G75*
G02*
X97802000Y-117812000I100000J0D01*
G01*
G37*
%TD.AperFunction*%
%TO.P,U5,4*%
%TO.N,GND*%
%TA.AperFunction,SMDPad,CuDef*%
G36*
G01*
X98452000Y-117812000D02*
X98652000Y-117812000D01*
G75*
G02*
X98752000Y-117912000I0J-100000D01*
G01*
X98752000Y-119187000D01*
G75*
G02*
X98652000Y-119287000I-100000J0D01*
G01*
X98452000Y-119287000D01*
G75*
G02*
X98352000Y-119187000I0J100000D01*
G01*
X98352000Y-117912000D01*
G75*
G02*
X98452000Y-117812000I100000J0D01*
G01*
G37*
%TD.AperFunction*%
%TO.P,U5,3*%
%TO.N,Net-(U4-Pad9)*%
%TA.AperFunction,SMDPad,CuDef*%
G36*
G01*
X99102000Y-117812000D02*
X99302000Y-117812000D01*
G75*
G02*
X99402000Y-117912000I0J-100000D01*
G01*
X99402000Y-119187000D01*
G75*
G02*
X99302000Y-119287000I-100000J0D01*
G01*
X99102000Y-119287000D01*
G75*
G02*
X99002000Y-119187000I0J100000D01*
G01*
X99002000Y-117912000D01*
G75*
G02*
X99102000Y-117812000I100000J0D01*
G01*
G37*
%TD.AperFunction*%
%TO.P,U5,2*%
%TO.N,Net-(J3-Pad2)*%
%TA.AperFunction,SMDPad,CuDef*%
G36*
G01*
X99752000Y-117812000D02*
X99952000Y-117812000D01*
G75*
G02*
X100052000Y-117912000I0J-100000D01*
G01*
X100052000Y-119187000D01*
G75*
G02*
X99952000Y-119287000I-100000J0D01*
G01*
X99752000Y-119287000D01*
G75*
G02*
X99652000Y-119187000I0J100000D01*
G01*
X99652000Y-117912000D01*
G75*
G02*
X99752000Y-117812000I100000J0D01*
G01*
G37*
%TD.AperFunction*%
%TO.P,U5,1*%
%TO.N,GND*%
%TA.AperFunction,SMDPad,CuDef*%
G36*
G01*
X100402000Y-117812000D02*
X100602000Y-117812000D01*
G75*
G02*
X100702000Y-117912000I0J-100000D01*
G01*
X100702000Y-119187000D01*
G75*
G02*
X100602000Y-119287000I-100000J0D01*
G01*
X100402000Y-119287000D01*
G75*
G02*
X100302000Y-119187000I0J100000D01*
G01*
X100302000Y-117912000D01*
G75*
G02*
X100402000Y-117812000I100000J0D01*
G01*
G37*
%TD.AperFunction*%
%TD*%
%TO.P,U4,10*%
%TO.N,Net-(C5-Pad1)*%
%TA.AperFunction,SMDPad,CuDef*%
G36*
G01*
X90273400Y-122544400D02*
X90273400Y-122394400D01*
G75*
G02*
X90348400Y-122319400I75000J0D01*
G01*
X91648400Y-122319400D01*
G75*
G02*
X91723400Y-122394400I0J-75000D01*
G01*
X91723400Y-122544400D01*
G75*
G02*
X91648400Y-122619400I-75000J0D01*
G01*
X90348400Y-122619400D01*
G75*
G02*
X90273400Y-122544400I0J75000D01*
G01*
G37*
%TD.AperFunction*%
%TO.P,U4,9*%
%TO.N,Net-(U4-Pad9)*%
%TA.AperFunction,SMDPad,CuDef*%
G36*
G01*
X90273400Y-123044400D02*
X90273400Y-122894400D01*
G75*
G02*
X90348400Y-122819400I75000J0D01*
G01*
X91648400Y-122819400D01*
G75*
G02*
X91723400Y-122894400I0J-75000D01*
G01*
X91723400Y-123044400D01*
G75*
G02*
X91648400Y-123119400I-75000J0D01*
G01*
X90348400Y-123119400D01*
G75*
G02*
X90273400Y-123044400I0J75000D01*
G01*
G37*
%TD.AperFunction*%
%TO.P,U4,8*%
%TO.N,Net-(U4-Pad8)*%
%TA.AperFunction,SMDPad,CuDef*%
G36*
G01*
X90273400Y-123544400D02*
X90273400Y-123394400D01*
G75*
G02*
X90348400Y-123319400I75000J0D01*
G01*
X91648400Y-123319400D01*
G75*
G02*
X91723400Y-123394400I0J-75000D01*
G01*
X91723400Y-123544400D01*
G75*
G02*
X91648400Y-123619400I-75000J0D01*
G01*
X90348400Y-123619400D01*
G75*
G02*
X90273400Y-123544400I0J75000D01*
G01*
G37*
%TD.AperFunction*%
%TO.P,U4,7*%
%TO.N,/DOUT*%
%TA.AperFunction,SMDPad,CuDef*%
G36*
G01*
X90273400Y-124044400D02*
X90273400Y-123894400D01*
G75*
G02*
X90348400Y-123819400I75000J0D01*
G01*
X91648400Y-123819400D01*
G75*
G02*
X91723400Y-123894400I0J-75000D01*
G01*
X91723400Y-124044400D01*
G75*
G02*
X91648400Y-124119400I-75000J0D01*
G01*
X90348400Y-124119400D01*
G75*
G02*
X90273400Y-124044400I0J75000D01*
G01*
G37*
%TD.AperFunction*%
%TO.P,U4,6*%
%TO.N,Net-(U4-Pad6)*%
%TA.AperFunction,SMDPad,CuDef*%
G36*
G01*
X90273400Y-124544400D02*
X90273400Y-124394400D01*
G75*
G02*
X90348400Y-124319400I75000J0D01*
G01*
X91648400Y-124319400D01*
G75*
G02*
X91723400Y-124394400I0J-75000D01*
G01*
X91723400Y-124544400D01*
G75*
G02*
X91648400Y-124619400I-75000J0D01*
G01*
X90348400Y-124619400D01*
G75*
G02*
X90273400Y-124544400I0J75000D01*
G01*
G37*
%TD.AperFunction*%
%TO.P,U4,5*%
%TO.N,GNDA*%
%TA.AperFunction,SMDPad,CuDef*%
G36*
G01*
X85873400Y-124544400D02*
X85873400Y-124394400D01*
G75*
G02*
X85948400Y-124319400I75000J0D01*
G01*
X87248400Y-124319400D01*
G75*
G02*
X87323400Y-124394400I0J-75000D01*
G01*
X87323400Y-124544400D01*
G75*
G02*
X87248400Y-124619400I-75000J0D01*
G01*
X85948400Y-124619400D01*
G75*
G02*
X85873400Y-124544400I0J75000D01*
G01*
G37*
%TD.AperFunction*%
%TO.P,U4,4*%
%TA.AperFunction,SMDPad,CuDef*%
G36*
G01*
X85873400Y-124044400D02*
X85873400Y-123894400D01*
G75*
G02*
X85948400Y-123819400I75000J0D01*
G01*
X87248400Y-123819400D01*
G75*
G02*
X87323400Y-123894400I0J-75000D01*
G01*
X87323400Y-124044400D01*
G75*
G02*
X87248400Y-124119400I-75000J0D01*
G01*
X85948400Y-124119400D01*
G75*
G02*
X85873400Y-124044400I0J75000D01*
G01*
G37*
%TD.AperFunction*%
%TO.P,U4,3*%
%TO.N,Net-(C4-Pad1)*%
%TA.AperFunction,SMDPad,CuDef*%
G36*
G01*
X85873400Y-123544400D02*
X85873400Y-123394400D01*
G75*
G02*
X85948400Y-123319400I75000J0D01*
G01*
X87248400Y-123319400D01*
G75*
G02*
X87323400Y-123394400I0J-75000D01*
G01*
X87323400Y-123544400D01*
G75*
G02*
X87248400Y-123619400I-75000J0D01*
G01*
X85948400Y-123619400D01*
G75*
G02*
X85873400Y-123544400I0J75000D01*
G01*
G37*
%TD.AperFunction*%
%TO.P,U4,2*%
%TO.N,Net-(C5-Pad1)*%
%TA.AperFunction,SMDPad,CuDef*%
G36*
G01*
X85873400Y-123044400D02*
X85873400Y-122894400D01*
G75*
G02*
X85948400Y-122819400I75000J0D01*
G01*
X87248400Y-122819400D01*
G75*
G02*
X87323400Y-122894400I0J-75000D01*
G01*
X87323400Y-123044400D01*
G75*
G02*
X87248400Y-123119400I-75000J0D01*
G01*
X85948400Y-123119400D01*
G75*
G02*
X85873400Y-123044400I0J75000D01*
G01*
G37*
%TD.AperFunction*%
%TO.P,U4,1*%
%TA.AperFunction,SMDPad,CuDef*%
G36*
G01*
X85873400Y-122544400D02*
X85873400Y-122394400D01*
G75*
G02*
X85948400Y-122319400I75000J0D01*
G01*
X87248400Y-122319400D01*
G75*
G02*
X87323400Y-122394400I0J-75000D01*
G01*
X87323400Y-122544400D01*
G75*
G02*
X87248400Y-122619400I-75000J0D01*
G01*
X85948400Y-122619400D01*
G75*
G02*
X85873400Y-122544400I0J75000D01*
G01*
G37*
%TD.AperFunction*%
%TD*%
D13*
%TO.P,U3,5*%
%TO.N,Net-(C5-Pad1)*%
X85090000Y-130048000D03*
%TO.P,U3,6*%
X85090000Y-129098000D03*
%TO.P,U3,4*%
%TO.N,+10V*%
X85090000Y-130998000D03*
%TO.P,U3,3*%
%TO.N,Net-(U3-Pad3)*%
X82390000Y-130998000D03*
%TO.P,U3,2*%
%TO.N,GNDA*%
X82390000Y-130048000D03*
%TO.P,U3,1*%
%TO.N,Net-(U3-Pad1)*%
X82390000Y-129098000D03*
%TD*%
D14*
%TO.P,U2,5*%
%TO.N,Net-(C5-Pad1)*%
X80325000Y-124438400D03*
%TO.P,U2,4*%
%TO.N,Net-(R4-Pad2)*%
X78425000Y-124438400D03*
%TO.P,U2,3*%
%TO.N,Net-(C3-Pad2)*%
X78425000Y-121738400D03*
%TO.P,U2,2*%
%TO.N,GNDA*%
X79375000Y-121738400D03*
%TO.P,U2,1*%
%TO.N,Net-(R4-Pad2)*%
X80325000Y-121738400D03*
%TD*%
%TO.P,R4,2*%
%TO.N,Net-(R4-Pad2)*%
%TA.AperFunction,SMDPad,CuDef*%
G36*
G01*
X82279500Y-122231600D02*
X81804500Y-122231600D01*
G75*
G02*
X81567000Y-121994100I0J237500D01*
G01*
X81567000Y-121494100D01*
G75*
G02*
X81804500Y-121256600I237500J0D01*
G01*
X82279500Y-121256600D01*
G75*
G02*
X82517000Y-121494100I0J-237500D01*
G01*
X82517000Y-121994100D01*
G75*
G02*
X82279500Y-122231600I-237500J0D01*
G01*
G37*
%TD.AperFunction*%
%TO.P,R4,1*%
%TO.N,Net-(C4-Pad1)*%
%TA.AperFunction,SMDPad,CuDef*%
G36*
G01*
X82279500Y-124056600D02*
X81804500Y-124056600D01*
G75*
G02*
X81567000Y-123819100I0J237500D01*
G01*
X81567000Y-123319100D01*
G75*
G02*
X81804500Y-123081600I237500J0D01*
G01*
X82279500Y-123081600D01*
G75*
G02*
X82517000Y-123319100I0J-237500D01*
G01*
X82517000Y-123819100D01*
G75*
G02*
X82279500Y-124056600I-237500J0D01*
G01*
G37*
%TD.AperFunction*%
%TD*%
D15*
%TO.P,J3,6*%
%TO.N,GND*%
X105410000Y-129794000D03*
%TO.P,J3,5*%
%TO.N,Net-(J3-Pad5)*%
X105410000Y-127254000D03*
%TO.P,J3,4*%
%TO.N,/DOUT_BUF*%
X105410000Y-124714000D03*
%TO.P,J3,3*%
%TO.N,Net-(J3-Pad3)*%
X105410000Y-122174000D03*
%TO.P,J3,2*%
%TO.N,Net-(J3-Pad2)*%
X105410000Y-119634000D03*
D10*
%TO.P,J3,1*%
%TO.N,+10V*%
X105410000Y-117094000D03*
%TD*%
%TO.P,C11,2*%
%TO.N,GND*%
%TA.AperFunction,SMDPad,CuDef*%
G36*
G01*
X101671000Y-127237500D02*
X101671000Y-126762500D01*
G75*
G02*
X101908500Y-126525000I237500J0D01*
G01*
X102508500Y-126525000D01*
G75*
G02*
X102746000Y-126762500I0J-237500D01*
G01*
X102746000Y-127237500D01*
G75*
G02*
X102508500Y-127475000I-237500J0D01*
G01*
X101908500Y-127475000D01*
G75*
G02*
X101671000Y-127237500I0J237500D01*
G01*
G37*
%TD.AperFunction*%
%TO.P,C11,1*%
%TO.N,+3V3*%
%TA.AperFunction,SMDPad,CuDef*%
G36*
G01*
X99946000Y-127237500D02*
X99946000Y-126762500D01*
G75*
G02*
X100183500Y-126525000I237500J0D01*
G01*
X100783500Y-126525000D01*
G75*
G02*
X101021000Y-126762500I0J-237500D01*
G01*
X101021000Y-127237500D01*
G75*
G02*
X100783500Y-127475000I-237500J0D01*
G01*
X100183500Y-127475000D01*
G75*
G02*
X99946000Y-127237500I0J237500D01*
G01*
G37*
%TD.AperFunction*%
%TD*%
%TO.P,C10,2*%
%TO.N,GND*%
%TA.AperFunction,SMDPad,CuDef*%
G36*
G01*
X100346500Y-129865000D02*
X100821500Y-129865000D01*
G75*
G02*
X101059000Y-130102500I0J-237500D01*
G01*
X101059000Y-130702500D01*
G75*
G02*
X100821500Y-130940000I-237500J0D01*
G01*
X100346500Y-130940000D01*
G75*
G02*
X100109000Y-130702500I0J237500D01*
G01*
X100109000Y-130102500D01*
G75*
G02*
X100346500Y-129865000I237500J0D01*
G01*
G37*
%TD.AperFunction*%
%TO.P,C10,1*%
%TO.N,+10V*%
%TA.AperFunction,SMDPad,CuDef*%
G36*
G01*
X100346500Y-128140000D02*
X100821500Y-128140000D01*
G75*
G02*
X101059000Y-128377500I0J-237500D01*
G01*
X101059000Y-128977500D01*
G75*
G02*
X100821500Y-129215000I-237500J0D01*
G01*
X100346500Y-129215000D01*
G75*
G02*
X100109000Y-128977500I0J237500D01*
G01*
X100109000Y-128377500D01*
G75*
G02*
X100346500Y-128140000I237500J0D01*
G01*
G37*
%TD.AperFunction*%
%TD*%
%TO.P,C9,2*%
%TO.N,GND*%
%TA.AperFunction,SMDPad,CuDef*%
G36*
G01*
X101870500Y-129865000D02*
X102345500Y-129865000D01*
G75*
G02*
X102583000Y-130102500I0J-237500D01*
G01*
X102583000Y-130702500D01*
G75*
G02*
X102345500Y-130940000I-237500J0D01*
G01*
X101870500Y-130940000D01*
G75*
G02*
X101633000Y-130702500I0J237500D01*
G01*
X101633000Y-130102500D01*
G75*
G02*
X101870500Y-129865000I237500J0D01*
G01*
G37*
%TD.AperFunction*%
%TO.P,C9,1*%
%TO.N,+10V*%
%TA.AperFunction,SMDPad,CuDef*%
G36*
G01*
X101870500Y-128140000D02*
X102345500Y-128140000D01*
G75*
G02*
X102583000Y-128377500I0J-237500D01*
G01*
X102583000Y-128977500D01*
G75*
G02*
X102345500Y-129215000I-237500J0D01*
G01*
X101870500Y-129215000D01*
G75*
G02*
X101633000Y-128977500I0J237500D01*
G01*
X101633000Y-128377500D01*
G75*
G02*
X101870500Y-128140000I237500J0D01*
G01*
G37*
%TD.AperFunction*%
%TD*%
%TO.P,C8,2*%
%TO.N,GND*%
%TA.AperFunction,SMDPad,CuDef*%
G36*
G01*
X102037000Y-115840500D02*
X102037000Y-116315500D01*
G75*
G02*
X101799500Y-116553000I-237500J0D01*
G01*
X101199500Y-116553000D01*
G75*
G02*
X100962000Y-116315500I0J237500D01*
G01*
X100962000Y-115840500D01*
G75*
G02*
X101199500Y-115603000I237500J0D01*
G01*
X101799500Y-115603000D01*
G75*
G02*
X102037000Y-115840500I0J-237500D01*
G01*
G37*
%TD.AperFunction*%
%TO.P,C8,1*%
%TO.N,+10V*%
%TA.AperFunction,SMDPad,CuDef*%
G36*
G01*
X103762000Y-115840500D02*
X103762000Y-116315500D01*
G75*
G02*
X103524500Y-116553000I-237500J0D01*
G01*
X102924500Y-116553000D01*
G75*
G02*
X102687000Y-116315500I0J237500D01*
G01*
X102687000Y-115840500D01*
G75*
G02*
X102924500Y-115603000I237500J0D01*
G01*
X103524500Y-115603000D01*
G75*
G02*
X103762000Y-115840500I0J-237500D01*
G01*
G37*
%TD.AperFunction*%
%TD*%
%TO.P,C6,2*%
%TO.N,GNDA*%
%TA.AperFunction,SMDPad,CuDef*%
G36*
G01*
X83941800Y-127415300D02*
X83941800Y-126940300D01*
G75*
G02*
X84179300Y-126702800I237500J0D01*
G01*
X84779300Y-126702800D01*
G75*
G02*
X85016800Y-126940300I0J-237500D01*
G01*
X85016800Y-127415300D01*
G75*
G02*
X84779300Y-127652800I-237500J0D01*
G01*
X84179300Y-127652800D01*
G75*
G02*
X83941800Y-127415300I0J237500D01*
G01*
G37*
%TD.AperFunction*%
%TO.P,C6,1*%
%TO.N,Net-(C5-Pad1)*%
%TA.AperFunction,SMDPad,CuDef*%
G36*
G01*
X82216800Y-127415300D02*
X82216800Y-126940300D01*
G75*
G02*
X82454300Y-126702800I237500J0D01*
G01*
X83054300Y-126702800D01*
G75*
G02*
X83291800Y-126940300I0J-237500D01*
G01*
X83291800Y-127415300D01*
G75*
G02*
X83054300Y-127652800I-237500J0D01*
G01*
X82454300Y-127652800D01*
G75*
G02*
X82216800Y-127415300I0J237500D01*
G01*
G37*
%TD.AperFunction*%
%TD*%
%TO.P,C5,2*%
%TO.N,GNDA*%
%TA.AperFunction,SMDPad,CuDef*%
G36*
G01*
X83967200Y-125967500D02*
X83967200Y-125492500D01*
G75*
G02*
X84204700Y-125255000I237500J0D01*
G01*
X84804700Y-125255000D01*
G75*
G02*
X85042200Y-125492500I0J-237500D01*
G01*
X85042200Y-125967500D01*
G75*
G02*
X84804700Y-126205000I-237500J0D01*
G01*
X84204700Y-126205000D01*
G75*
G02*
X83967200Y-125967500I0J237500D01*
G01*
G37*
%TD.AperFunction*%
%TO.P,C5,1*%
%TO.N,Net-(C5-Pad1)*%
%TA.AperFunction,SMDPad,CuDef*%
G36*
G01*
X82242200Y-125967500D02*
X82242200Y-125492500D01*
G75*
G02*
X82479700Y-125255000I237500J0D01*
G01*
X83079700Y-125255000D01*
G75*
G02*
X83317200Y-125492500I0J-237500D01*
G01*
X83317200Y-125967500D01*
G75*
G02*
X83079700Y-126205000I-237500J0D01*
G01*
X82479700Y-126205000D01*
G75*
G02*
X82242200Y-125967500I0J237500D01*
G01*
G37*
%TD.AperFunction*%
%TD*%
%TO.P,C4,2*%
%TO.N,GNDA*%
%TA.AperFunction,SMDPad,CuDef*%
G36*
G01*
X84387700Y-122280800D02*
X83912700Y-122280800D01*
G75*
G02*
X83675200Y-122043300I0J237500D01*
G01*
X83675200Y-121443300D01*
G75*
G02*
X83912700Y-121205800I237500J0D01*
G01*
X84387700Y-121205800D01*
G75*
G02*
X84625200Y-121443300I0J-237500D01*
G01*
X84625200Y-122043300D01*
G75*
G02*
X84387700Y-122280800I-237500J0D01*
G01*
G37*
%TD.AperFunction*%
%TO.P,C4,1*%
%TO.N,Net-(C4-Pad1)*%
%TA.AperFunction,SMDPad,CuDef*%
G36*
G01*
X84387700Y-124005800D02*
X83912700Y-124005800D01*
G75*
G02*
X83675200Y-123768300I0J237500D01*
G01*
X83675200Y-123168300D01*
G75*
G02*
X83912700Y-122930800I237500J0D01*
G01*
X84387700Y-122930800D01*
G75*
G02*
X84625200Y-123168300I0J-237500D01*
G01*
X84625200Y-123768300D01*
G75*
G02*
X84387700Y-124005800I-237500J0D01*
G01*
G37*
%TD.AperFunction*%
%TD*%
%TO.P,C1,2*%
%TO.N,GNDA*%
%TA.AperFunction,SMDPad,CuDef*%
G36*
G01*
X78647300Y-126979800D02*
X78172300Y-126979800D01*
G75*
G02*
X77934800Y-126742300I0J237500D01*
G01*
X77934800Y-126142300D01*
G75*
G02*
X78172300Y-125904800I237500J0D01*
G01*
X78647300Y-125904800D01*
G75*
G02*
X78884800Y-126142300I0J-237500D01*
G01*
X78884800Y-126742300D01*
G75*
G02*
X78647300Y-126979800I-237500J0D01*
G01*
G37*
%TD.AperFunction*%
%TO.P,C1,1*%
%TO.N,+3V0*%
%TA.AperFunction,SMDPad,CuDef*%
G36*
G01*
X78647300Y-128704800D02*
X78172300Y-128704800D01*
G75*
G02*
X77934800Y-128467300I0J237500D01*
G01*
X77934800Y-127867300D01*
G75*
G02*
X78172300Y-127629800I237500J0D01*
G01*
X78647300Y-127629800D01*
G75*
G02*
X78884800Y-127867300I0J-237500D01*
G01*
X78884800Y-128467300D01*
G75*
G02*
X78647300Y-128704800I-237500J0D01*
G01*
G37*
%TD.AperFunction*%
%TD*%
D16*
%TO.N,GND*%
X95250000Y-117348000D03*
X98552000Y-116840000D03*
X100584000Y-117094000D03*
X100584000Y-115062000D03*
X103378000Y-127000000D03*
X103251000Y-130429000D03*
X100584000Y-131699000D03*
X98679000Y-131699000D03*
X99758500Y-125730000D03*
X97790000Y-125730000D03*
%TO.N,+3V0*%
X67056000Y-117856000D03*
X76200000Y-118300500D03*
X74993500Y-124714000D03*
X79502000Y-128143000D03*
X77470000Y-115366800D03*
%TO.N,Net-(C3-Pad2)*%
X77343000Y-121742200D03*
%TO.N,Net-(C5-Pad1)*%
X85090000Y-128270000D03*
X82804000Y-128172998D03*
X82804000Y-124714000D03*
X87884000Y-120904000D03*
%TO.N,+10V*%
X103124000Y-117348000D03*
X103251000Y-128651000D03*
%TO.N,Net-(J3-Pad3)*%
X97282000Y-116967000D03*
%TO.N,Net-(U4-Pad8)*%
X95572153Y-123385153D03*
X97023347Y-119883347D03*
%TO.N,Net-(U4-Pad6)*%
X95638762Y-125675126D03*
X98771003Y-125924000D03*
%TO.N,GNDA*%
X68072000Y-115062000D03*
X69088000Y-114300000D03*
X71120000Y-117348000D03*
X74930000Y-122682000D03*
X79400400Y-120091200D03*
X79502000Y-126441200D03*
X85775800Y-127177800D03*
X88138000Y-123952000D03*
X85090000Y-124460000D03*
X85344000Y-121666000D03*
X90678000Y-117348000D03*
X77901800Y-117805200D03*
X83566000Y-130073400D03*
X81000600Y-126669800D03*
X86614000Y-117348000D03*
%TD*%
D17*
%TO.N,GND*%
X93876500Y-117348000D02*
X95250000Y-117348000D01*
D18*
X96451500Y-118549500D02*
X95250000Y-117348000D01*
X96602000Y-118549500D02*
X96451500Y-118549500D01*
X98552000Y-118549500D02*
X98552000Y-116840000D01*
X100502000Y-118549500D02*
X100502000Y-117176000D01*
X100502000Y-117176000D02*
X100584000Y-117094000D01*
D17*
X101499500Y-115977500D02*
X100584000Y-115062000D01*
X101499500Y-116078000D02*
X101499500Y-115977500D01*
D19*
X102208500Y-127000000D02*
X103378000Y-127000000D01*
X102108000Y-130402500D02*
X103224500Y-130402500D01*
X103224500Y-130402500D02*
X103251000Y-130429000D01*
X100584000Y-130402500D02*
X100584000Y-131699000D01*
X98678000Y-130024000D02*
X98678000Y-131698000D01*
X98678000Y-131698000D02*
X98679000Y-131699000D01*
D18*
X99852000Y-124274500D02*
X99852000Y-125636500D01*
X99852000Y-125636500D02*
X99758500Y-125730000D01*
X97902000Y-124274500D02*
X97902000Y-125618000D01*
X97902000Y-125618000D02*
X97790000Y-125730000D01*
D17*
%TO.N,+3V0*%
X78409800Y-128167300D02*
X79477700Y-128167300D01*
X79477700Y-128167300D02*
X79502000Y-128143000D01*
%TO.N,Net-(C3-Pad2)*%
X78421200Y-121742200D02*
X78425000Y-121738400D01*
X77343000Y-121742200D02*
X78421200Y-121742200D01*
%TO.N,Net-(C4-Pad1)*%
X84049400Y-123569100D02*
X84150200Y-123468300D01*
X82042000Y-123569100D02*
X84049400Y-123569100D01*
D18*
X86597300Y-123468300D02*
X86598400Y-123469400D01*
X84150200Y-123468300D02*
X86597300Y-123468300D01*
D17*
%TO.N,Net-(C5-Pad1)*%
X81616600Y-125730000D02*
X80325000Y-124438400D01*
X82779700Y-125730000D02*
X81616600Y-125730000D01*
D18*
X90998400Y-122469400D02*
X86598400Y-122469400D01*
X86598400Y-122469400D02*
X86598400Y-122969400D01*
D17*
X85090000Y-130048000D02*
X85090000Y-129098000D01*
X85090000Y-129098000D02*
X84674500Y-129098000D01*
X85090000Y-129098000D02*
X85090000Y-128270000D01*
X82754300Y-127177800D02*
X82754300Y-128123298D01*
X82754300Y-128123298D02*
X82804000Y-128172998D01*
X82779700Y-125730000D02*
X82779700Y-124738300D01*
X82779700Y-124738300D02*
X82804000Y-124714000D01*
X86598400Y-120919600D02*
X86614000Y-120904000D01*
X86598400Y-122469400D02*
X86598400Y-120919600D01*
X86614000Y-120904000D02*
X87884000Y-120904000D01*
D19*
%TO.N,+10V*%
X85165001Y-131073001D02*
X85090000Y-131073001D01*
D17*
X103224500Y-117247500D02*
X103124000Y-117348000D01*
X103224500Y-116078000D02*
X103224500Y-117247500D01*
D19*
X100430500Y-128524000D02*
X100584000Y-128677500D01*
X98590500Y-128524000D02*
X100430500Y-128524000D01*
X100584000Y-128677500D02*
X102108000Y-128677500D01*
X102108000Y-128677500D02*
X103224500Y-128677500D01*
X103224500Y-128677500D02*
X103251000Y-128651000D01*
X86430001Y-131073001D02*
X85090000Y-131073001D01*
X98590500Y-128524000D02*
X88979002Y-128524000D01*
X88979002Y-128524000D02*
X86430001Y-131073001D01*
%TO.N,+3V3*%
X100459500Y-127024000D02*
X100483500Y-127000000D01*
X98678000Y-127024000D02*
X100459500Y-127024000D01*
D18*
X100483500Y-124293000D02*
X100502000Y-124274500D01*
X100483500Y-127000000D02*
X100483500Y-124293000D01*
%TO.N,Net-(J3-Pad5)*%
X101367990Y-123211990D02*
X105410000Y-127254000D01*
X99575952Y-123211990D02*
X101367990Y-123211990D01*
X99202000Y-123585942D02*
X99575952Y-123211990D01*
X99202000Y-124274500D02*
X99202000Y-123585942D01*
%TO.N,/DOUT_BUF*%
X103457980Y-122761980D02*
X105410000Y-124714000D01*
X97425962Y-122761980D02*
X103457980Y-122761980D01*
X96602000Y-123585942D02*
X97425962Y-122761980D01*
X96602000Y-124274500D02*
X96602000Y-123585942D01*
%TO.N,Net-(J3-Pad3)*%
X97902000Y-118549500D02*
X97902000Y-117587000D01*
X97902000Y-117587000D02*
X97282000Y-116967000D01*
%TO.N,Net-(J3-Pad2)*%
X100199000Y-119634000D02*
X105410000Y-119634000D01*
X99852000Y-119287000D02*
X100199000Y-119634000D01*
X99852000Y-118549500D02*
X99852000Y-119287000D01*
D17*
%TO.N,Net-(R4-Pad2)*%
X80325000Y-122538400D02*
X80325000Y-121738400D01*
X78425000Y-124438400D02*
X80325000Y-122538400D01*
X82036300Y-121738400D02*
X82042000Y-121744100D01*
X80325000Y-121738400D02*
X82036300Y-121738400D01*
D18*
%TO.N,Net-(U4-Pad9)*%
X99077010Y-118674490D02*
X99202000Y-118549500D01*
X94962600Y-122969400D02*
X98319990Y-119612010D01*
X90998400Y-122969400D02*
X94962600Y-122969400D01*
X98828048Y-119612010D02*
X99077010Y-119363048D01*
X99077010Y-119363048D02*
X99077010Y-118674490D01*
X98319990Y-119612010D02*
X98828048Y-119612010D01*
%TO.N,Net-(U4-Pad8)*%
X90998400Y-123469400D02*
X95487906Y-123469400D01*
X95487906Y-123469400D02*
X95572153Y-123385153D01*
X97252000Y-119654694D02*
X97252000Y-118549500D01*
X97023347Y-119883347D02*
X97252000Y-119654694D01*
%TO.N,/DOUT*%
X97252000Y-124963058D02*
X97252000Y-124274500D01*
X96325952Y-125337010D02*
X96878048Y-125337010D01*
X94958342Y-123969400D02*
X96325952Y-125337010D01*
X96878048Y-125337010D02*
X97252000Y-124963058D01*
X90998400Y-123969400D02*
X94958342Y-123969400D01*
%TO.N,Net-(U4-Pad6)*%
X90998400Y-124469400D02*
X94433036Y-124469400D01*
X94433036Y-124469400D02*
X95638762Y-125675126D01*
X98552000Y-125704997D02*
X98552000Y-124274500D01*
X98771003Y-125924000D02*
X98552000Y-125704997D01*
D17*
%TO.N,GNDA*%
X79375000Y-121738400D02*
X79375000Y-120116600D01*
X79375000Y-120116600D02*
X79400400Y-120091200D01*
X78409800Y-126442300D02*
X79500900Y-126442300D01*
X79500900Y-126442300D02*
X79502000Y-126441200D01*
X84479300Y-127177800D02*
X85775800Y-127177800D01*
D18*
X86598400Y-123969400D02*
X88120600Y-123969400D01*
X88120600Y-123969400D02*
X88138000Y-123952000D01*
X86598400Y-124469400D02*
X85099400Y-124469400D01*
X85099400Y-124469400D02*
X85090000Y-124460000D01*
D17*
X84504700Y-125045300D02*
X85090000Y-124460000D01*
X84504700Y-125730000D02*
X84504700Y-125045300D01*
X84150200Y-121743300D02*
X85266700Y-121743300D01*
X85266700Y-121743300D02*
X85344000Y-121666000D01*
X92051500Y-117348000D02*
X90678000Y-117348000D01*
X82390000Y-130048000D02*
X83540600Y-130048000D01*
X83540600Y-130048000D02*
X83566000Y-130073400D01*
X86614000Y-118854000D02*
X86614000Y-117348000D01*
%TD*%
M02*
