%TF.GenerationSoftware,KiCad,Pcbnew,(5.1.6)-1*%
%TF.CreationDate,2020-11-12T12:57:51-08:00*%
%TF.ProjectId,frontendfullv2,66726f6e-7465-46e6-9466-756c6c76322e,rev?*%
%TF.SameCoordinates,Original*%
%TF.FileFunction,Copper,L3,Inr*%
%TF.FilePolarity,Positive*%
%FSLAX46Y46*%
G04 Gerber Fmt 4.6, Leading zero omitted, Abs format (unit mm)*
G04 Created by KiCad (PCBNEW (5.1.6)-1) date 2020-11-12 12:57:51*
%MOMM*%
%LPD*%
G01*
G04 APERTURE LIST*
%TA.AperFunction,ViaPad*%
%ADD10R,1.700000X1.700000*%
%TD*%
%TA.AperFunction,ViaPad*%
%ADD11O,1.700000X1.700000*%
%TD*%
%TA.AperFunction,ViaPad*%
%ADD12C,0.800000*%
%TD*%
%TA.AperFunction,Conductor*%
%ADD13C,0.254000*%
%TD*%
G04 APERTURE END LIST*
D10*
%TO.N,GNDA*%
%TO.C,J2*%
X80010000Y-118110000D03*
%TD*%
D11*
%TO.N,GND*%
%TO.C,J3*%
X105410000Y-129794000D03*
%TO.N,Net-(J3-Pad5)*%
X105410000Y-127254000D03*
%TO.N,/DOUT_BUF*%
X105410000Y-124714000D03*
%TO.N,Net-(J3-Pad3)*%
X105410000Y-122174000D03*
%TO.N,Net-(J3-Pad2)*%
X105410000Y-119634000D03*
D10*
%TO.N,+10V*%
X105410000Y-117094000D03*
%TD*%
D12*
%TO.N,GND*%
X95250000Y-117348000D03*
X98552000Y-116840000D03*
X100584000Y-117094000D03*
X100584000Y-115062000D03*
X103378000Y-127000000D03*
X103251000Y-130429000D03*
X100584000Y-131699000D03*
X98679000Y-131699000D03*
X99758500Y-125730000D03*
X97790000Y-125730000D03*
%TO.N,+3V0*%
X67056000Y-117856000D03*
X76200000Y-118300500D03*
X74993500Y-124714000D03*
X79502000Y-128143000D03*
X77470000Y-115366800D03*
%TO.N,Net-(C3-Pad2)*%
X77343000Y-121742200D03*
%TO.N,Net-(C5-Pad1)*%
X85090000Y-128270000D03*
X82804000Y-128172998D03*
X82804000Y-124714000D03*
X87884000Y-120904000D03*
%TO.N,+10V*%
X103124000Y-117348000D03*
X103251000Y-128651000D03*
%TO.N,Net-(J3-Pad3)*%
X97282000Y-116967000D03*
%TO.N,Net-(U4-Pad8)*%
X95572153Y-123385153D03*
X97023347Y-119883347D03*
%TO.N,Net-(U4-Pad6)*%
X95638762Y-125675126D03*
X98771003Y-125924000D03*
%TO.N,GNDA*%
X68072000Y-115062000D03*
X69088000Y-114300000D03*
X71120000Y-117348000D03*
X74930000Y-122682000D03*
X79400400Y-120091200D03*
X79502000Y-126441200D03*
X85775800Y-127177800D03*
X88138000Y-123952000D03*
X85090000Y-124460000D03*
X85344000Y-121666000D03*
X90678000Y-117348000D03*
X77901800Y-117805200D03*
X83566000Y-130073400D03*
X81000600Y-126669800D03*
X86614000Y-117348000D03*
%TD*%
D13*
%TO.N,+3V0*%
G36*
X81026000Y-116646782D02*
G01*
X80984482Y-116634188D01*
X80860000Y-116621928D01*
X79160000Y-116621928D01*
X79035518Y-116634188D01*
X78915820Y-116670498D01*
X78805506Y-116729463D01*
X78708815Y-116808815D01*
X78629463Y-116905506D01*
X78572460Y-117012149D01*
X78561574Y-117001263D01*
X78392056Y-116887995D01*
X78203698Y-116809974D01*
X78003739Y-116770200D01*
X77799861Y-116770200D01*
X77599902Y-116809974D01*
X77411544Y-116887995D01*
X77242026Y-117001263D01*
X77097863Y-117145426D01*
X76984595Y-117314944D01*
X76906574Y-117503302D01*
X76866800Y-117703261D01*
X76866800Y-117907139D01*
X76906574Y-118107098D01*
X76984595Y-118295456D01*
X77097863Y-118464974D01*
X77242026Y-118609137D01*
X77411544Y-118722405D01*
X77599902Y-118800426D01*
X77799861Y-118840200D01*
X78003739Y-118840200D01*
X78203698Y-118800426D01*
X78392056Y-118722405D01*
X78521928Y-118635628D01*
X78521928Y-118960000D01*
X78534188Y-119084482D01*
X78570498Y-119204180D01*
X78629463Y-119314494D01*
X78667296Y-119360593D01*
X78596463Y-119431426D01*
X78483195Y-119600944D01*
X78405174Y-119789302D01*
X78365400Y-119989261D01*
X78365400Y-120193139D01*
X78405174Y-120393098D01*
X78483195Y-120581456D01*
X78596463Y-120750974D01*
X78740626Y-120895137D01*
X78910144Y-121008405D01*
X79098502Y-121086426D01*
X79298461Y-121126200D01*
X79502339Y-121126200D01*
X79702298Y-121086426D01*
X79890656Y-121008405D01*
X80060174Y-120895137D01*
X80204337Y-120750974D01*
X80317605Y-120581456D01*
X80395626Y-120393098D01*
X80435400Y-120193139D01*
X80435400Y-119989261D01*
X80395626Y-119789302D01*
X80317605Y-119600944D01*
X80315686Y-119598072D01*
X80860000Y-119598072D01*
X80984482Y-119585812D01*
X81026000Y-119573218D01*
X81026000Y-125634800D01*
X80898661Y-125634800D01*
X80698702Y-125674574D01*
X80510344Y-125752595D01*
X80355711Y-125855918D01*
X80305937Y-125781426D01*
X80161774Y-125637263D01*
X79992256Y-125523995D01*
X79803898Y-125445974D01*
X79603939Y-125406200D01*
X79400061Y-125406200D01*
X79200102Y-125445974D01*
X79011744Y-125523995D01*
X78842226Y-125637263D01*
X78698063Y-125781426D01*
X78584795Y-125950944D01*
X78506774Y-126139302D01*
X78467000Y-126339261D01*
X78467000Y-126543139D01*
X78506774Y-126743098D01*
X78584795Y-126931456D01*
X78698063Y-127100974D01*
X78842226Y-127245137D01*
X79011744Y-127358405D01*
X79200102Y-127436426D01*
X79400061Y-127476200D01*
X79603939Y-127476200D01*
X79803898Y-127436426D01*
X79992256Y-127358405D01*
X80146889Y-127255082D01*
X80196663Y-127329574D01*
X80340826Y-127473737D01*
X80510344Y-127587005D01*
X80698702Y-127665026D01*
X80898661Y-127704800D01*
X81026000Y-127704800D01*
X81026000Y-130262093D01*
X80912537Y-129988169D01*
X80722663Y-129704002D01*
X80480998Y-129462337D01*
X80196831Y-129272463D01*
X79881081Y-129141675D01*
X79545883Y-129075000D01*
X79204117Y-129075000D01*
X78868919Y-129141675D01*
X78553169Y-129272463D01*
X78269002Y-129462337D01*
X78027337Y-129704002D01*
X77837463Y-129988169D01*
X77706675Y-130303919D01*
X77640000Y-130639117D01*
X77640000Y-130980883D01*
X77706675Y-131316081D01*
X77837463Y-131631831D01*
X78027337Y-131915998D01*
X78269002Y-132157663D01*
X78553169Y-132347537D01*
X78724159Y-132418363D01*
X66167000Y-132460573D01*
X66167000Y-130937965D01*
X74421038Y-131000496D01*
X74445832Y-130998244D01*
X74469711Y-130991198D01*
X74491755Y-130979628D01*
X74511120Y-130963980D01*
X74527059Y-130944855D01*
X74538961Y-130922988D01*
X74546368Y-130899219D01*
X74549000Y-130873500D01*
X74549000Y-123644461D01*
X74628102Y-123677226D01*
X74828061Y-123717000D01*
X75031939Y-123717000D01*
X75231898Y-123677226D01*
X75420256Y-123599205D01*
X75589774Y-123485937D01*
X75733937Y-123341774D01*
X75847205Y-123172256D01*
X75925226Y-122983898D01*
X75965000Y-122783939D01*
X75965000Y-122580061D01*
X75925226Y-122380102D01*
X75847205Y-122191744D01*
X75733937Y-122022226D01*
X75589774Y-121878063D01*
X75420256Y-121764795D01*
X75231898Y-121686774D01*
X75031939Y-121647000D01*
X74828061Y-121647000D01*
X74628102Y-121686774D01*
X74549000Y-121719539D01*
X74549000Y-121640261D01*
X76308000Y-121640261D01*
X76308000Y-121844139D01*
X76347774Y-122044098D01*
X76425795Y-122232456D01*
X76539063Y-122401974D01*
X76683226Y-122546137D01*
X76852744Y-122659405D01*
X77041102Y-122737426D01*
X77241061Y-122777200D01*
X77444939Y-122777200D01*
X77644898Y-122737426D01*
X77833256Y-122659405D01*
X78002774Y-122546137D01*
X78146937Y-122401974D01*
X78260205Y-122232456D01*
X78338226Y-122044098D01*
X78378000Y-121844139D01*
X78378000Y-121640261D01*
X78338226Y-121440302D01*
X78260205Y-121251944D01*
X78146937Y-121082426D01*
X78002774Y-120938263D01*
X77833256Y-120824995D01*
X77644898Y-120746974D01*
X77444939Y-120707200D01*
X77241061Y-120707200D01*
X77041102Y-120746974D01*
X76852744Y-120824995D01*
X76683226Y-120938263D01*
X76539063Y-121082426D01*
X76425795Y-121251944D01*
X76347774Y-121440302D01*
X76308000Y-121640261D01*
X74549000Y-121640261D01*
X74549000Y-119189500D01*
X74546560Y-119164724D01*
X74539333Y-119140899D01*
X74527597Y-119118943D01*
X74511803Y-119099697D01*
X74492557Y-119083903D01*
X74470601Y-119072167D01*
X74446776Y-119064940D01*
X74422962Y-119062504D01*
X66167000Y-118999959D01*
X66167000Y-117246061D01*
X70085000Y-117246061D01*
X70085000Y-117449939D01*
X70124774Y-117649898D01*
X70202795Y-117838256D01*
X70316063Y-118007774D01*
X70460226Y-118151937D01*
X70629744Y-118265205D01*
X70818102Y-118343226D01*
X71018061Y-118383000D01*
X71221939Y-118383000D01*
X71421898Y-118343226D01*
X71610256Y-118265205D01*
X71779774Y-118151937D01*
X71923937Y-118007774D01*
X72037205Y-117838256D01*
X72115226Y-117649898D01*
X72155000Y-117449939D01*
X72155000Y-117246061D01*
X72115226Y-117046102D01*
X72037205Y-116857744D01*
X71923937Y-116688226D01*
X71779774Y-116544063D01*
X71610256Y-116430795D01*
X71421898Y-116352774D01*
X71221939Y-116313000D01*
X71018061Y-116313000D01*
X70818102Y-116352774D01*
X70629744Y-116430795D01*
X70460226Y-116544063D01*
X70316063Y-116688226D01*
X70202795Y-116857744D01*
X70124774Y-117046102D01*
X70085000Y-117246061D01*
X66167000Y-117246061D01*
X66167000Y-113918574D01*
X68128447Y-113911981D01*
X68092774Y-113998102D01*
X68087026Y-114027000D01*
X67970061Y-114027000D01*
X67770102Y-114066774D01*
X67581744Y-114144795D01*
X67412226Y-114258063D01*
X67268063Y-114402226D01*
X67154795Y-114571744D01*
X67076774Y-114760102D01*
X67037000Y-114960061D01*
X67037000Y-115163939D01*
X67076774Y-115363898D01*
X67154795Y-115552256D01*
X67268063Y-115721774D01*
X67412226Y-115865937D01*
X67581744Y-115979205D01*
X67770102Y-116057226D01*
X67970061Y-116097000D01*
X68173939Y-116097000D01*
X68373898Y-116057226D01*
X68562256Y-115979205D01*
X68731774Y-115865937D01*
X68875937Y-115721774D01*
X68989205Y-115552256D01*
X69067226Y-115363898D01*
X69072974Y-115335000D01*
X69189939Y-115335000D01*
X69389898Y-115295226D01*
X69578256Y-115217205D01*
X69747774Y-115103937D01*
X69891937Y-114959774D01*
X70005205Y-114790256D01*
X70083226Y-114601898D01*
X70123000Y-114401939D01*
X70123000Y-114198061D01*
X70083226Y-113998102D01*
X70044885Y-113905539D01*
X81026000Y-113868627D01*
X81026000Y-116646782D01*
G37*
X81026000Y-116646782D02*
X80984482Y-116634188D01*
X80860000Y-116621928D01*
X79160000Y-116621928D01*
X79035518Y-116634188D01*
X78915820Y-116670498D01*
X78805506Y-116729463D01*
X78708815Y-116808815D01*
X78629463Y-116905506D01*
X78572460Y-117012149D01*
X78561574Y-117001263D01*
X78392056Y-116887995D01*
X78203698Y-116809974D01*
X78003739Y-116770200D01*
X77799861Y-116770200D01*
X77599902Y-116809974D01*
X77411544Y-116887995D01*
X77242026Y-117001263D01*
X77097863Y-117145426D01*
X76984595Y-117314944D01*
X76906574Y-117503302D01*
X76866800Y-117703261D01*
X76866800Y-117907139D01*
X76906574Y-118107098D01*
X76984595Y-118295456D01*
X77097863Y-118464974D01*
X77242026Y-118609137D01*
X77411544Y-118722405D01*
X77599902Y-118800426D01*
X77799861Y-118840200D01*
X78003739Y-118840200D01*
X78203698Y-118800426D01*
X78392056Y-118722405D01*
X78521928Y-118635628D01*
X78521928Y-118960000D01*
X78534188Y-119084482D01*
X78570498Y-119204180D01*
X78629463Y-119314494D01*
X78667296Y-119360593D01*
X78596463Y-119431426D01*
X78483195Y-119600944D01*
X78405174Y-119789302D01*
X78365400Y-119989261D01*
X78365400Y-120193139D01*
X78405174Y-120393098D01*
X78483195Y-120581456D01*
X78596463Y-120750974D01*
X78740626Y-120895137D01*
X78910144Y-121008405D01*
X79098502Y-121086426D01*
X79298461Y-121126200D01*
X79502339Y-121126200D01*
X79702298Y-121086426D01*
X79890656Y-121008405D01*
X80060174Y-120895137D01*
X80204337Y-120750974D01*
X80317605Y-120581456D01*
X80395626Y-120393098D01*
X80435400Y-120193139D01*
X80435400Y-119989261D01*
X80395626Y-119789302D01*
X80317605Y-119600944D01*
X80315686Y-119598072D01*
X80860000Y-119598072D01*
X80984482Y-119585812D01*
X81026000Y-119573218D01*
X81026000Y-125634800D01*
X80898661Y-125634800D01*
X80698702Y-125674574D01*
X80510344Y-125752595D01*
X80355711Y-125855918D01*
X80305937Y-125781426D01*
X80161774Y-125637263D01*
X79992256Y-125523995D01*
X79803898Y-125445974D01*
X79603939Y-125406200D01*
X79400061Y-125406200D01*
X79200102Y-125445974D01*
X79011744Y-125523995D01*
X78842226Y-125637263D01*
X78698063Y-125781426D01*
X78584795Y-125950944D01*
X78506774Y-126139302D01*
X78467000Y-126339261D01*
X78467000Y-126543139D01*
X78506774Y-126743098D01*
X78584795Y-126931456D01*
X78698063Y-127100974D01*
X78842226Y-127245137D01*
X79011744Y-127358405D01*
X79200102Y-127436426D01*
X79400061Y-127476200D01*
X79603939Y-127476200D01*
X79803898Y-127436426D01*
X79992256Y-127358405D01*
X80146889Y-127255082D01*
X80196663Y-127329574D01*
X80340826Y-127473737D01*
X80510344Y-127587005D01*
X80698702Y-127665026D01*
X80898661Y-127704800D01*
X81026000Y-127704800D01*
X81026000Y-130262093D01*
X80912537Y-129988169D01*
X80722663Y-129704002D01*
X80480998Y-129462337D01*
X80196831Y-129272463D01*
X79881081Y-129141675D01*
X79545883Y-129075000D01*
X79204117Y-129075000D01*
X78868919Y-129141675D01*
X78553169Y-129272463D01*
X78269002Y-129462337D01*
X78027337Y-129704002D01*
X77837463Y-129988169D01*
X77706675Y-130303919D01*
X77640000Y-130639117D01*
X77640000Y-130980883D01*
X77706675Y-131316081D01*
X77837463Y-131631831D01*
X78027337Y-131915998D01*
X78269002Y-132157663D01*
X78553169Y-132347537D01*
X78724159Y-132418363D01*
X66167000Y-132460573D01*
X66167000Y-130937965D01*
X74421038Y-131000496D01*
X74445832Y-130998244D01*
X74469711Y-130991198D01*
X74491755Y-130979628D01*
X74511120Y-130963980D01*
X74527059Y-130944855D01*
X74538961Y-130922988D01*
X74546368Y-130899219D01*
X74549000Y-130873500D01*
X74549000Y-123644461D01*
X74628102Y-123677226D01*
X74828061Y-123717000D01*
X75031939Y-123717000D01*
X75231898Y-123677226D01*
X75420256Y-123599205D01*
X75589774Y-123485937D01*
X75733937Y-123341774D01*
X75847205Y-123172256D01*
X75925226Y-122983898D01*
X75965000Y-122783939D01*
X75965000Y-122580061D01*
X75925226Y-122380102D01*
X75847205Y-122191744D01*
X75733937Y-122022226D01*
X75589774Y-121878063D01*
X75420256Y-121764795D01*
X75231898Y-121686774D01*
X75031939Y-121647000D01*
X74828061Y-121647000D01*
X74628102Y-121686774D01*
X74549000Y-121719539D01*
X74549000Y-121640261D01*
X76308000Y-121640261D01*
X76308000Y-121844139D01*
X76347774Y-122044098D01*
X76425795Y-122232456D01*
X76539063Y-122401974D01*
X76683226Y-122546137D01*
X76852744Y-122659405D01*
X77041102Y-122737426D01*
X77241061Y-122777200D01*
X77444939Y-122777200D01*
X77644898Y-122737426D01*
X77833256Y-122659405D01*
X78002774Y-122546137D01*
X78146937Y-122401974D01*
X78260205Y-122232456D01*
X78338226Y-122044098D01*
X78378000Y-121844139D01*
X78378000Y-121640261D01*
X78338226Y-121440302D01*
X78260205Y-121251944D01*
X78146937Y-121082426D01*
X78002774Y-120938263D01*
X77833256Y-120824995D01*
X77644898Y-120746974D01*
X77444939Y-120707200D01*
X77241061Y-120707200D01*
X77041102Y-120746974D01*
X76852744Y-120824995D01*
X76683226Y-120938263D01*
X76539063Y-121082426D01*
X76425795Y-121251944D01*
X76347774Y-121440302D01*
X76308000Y-121640261D01*
X74549000Y-121640261D01*
X74549000Y-119189500D01*
X74546560Y-119164724D01*
X74539333Y-119140899D01*
X74527597Y-119118943D01*
X74511803Y-119099697D01*
X74492557Y-119083903D01*
X74470601Y-119072167D01*
X74446776Y-119064940D01*
X74422962Y-119062504D01*
X66167000Y-118999959D01*
X66167000Y-117246061D01*
X70085000Y-117246061D01*
X70085000Y-117449939D01*
X70124774Y-117649898D01*
X70202795Y-117838256D01*
X70316063Y-118007774D01*
X70460226Y-118151937D01*
X70629744Y-118265205D01*
X70818102Y-118343226D01*
X71018061Y-118383000D01*
X71221939Y-118383000D01*
X71421898Y-118343226D01*
X71610256Y-118265205D01*
X71779774Y-118151937D01*
X71923937Y-118007774D01*
X72037205Y-117838256D01*
X72115226Y-117649898D01*
X72155000Y-117449939D01*
X72155000Y-117246061D01*
X72115226Y-117046102D01*
X72037205Y-116857744D01*
X71923937Y-116688226D01*
X71779774Y-116544063D01*
X71610256Y-116430795D01*
X71421898Y-116352774D01*
X71221939Y-116313000D01*
X71018061Y-116313000D01*
X70818102Y-116352774D01*
X70629744Y-116430795D01*
X70460226Y-116544063D01*
X70316063Y-116688226D01*
X70202795Y-116857744D01*
X70124774Y-117046102D01*
X70085000Y-117246061D01*
X66167000Y-117246061D01*
X66167000Y-113918574D01*
X68128447Y-113911981D01*
X68092774Y-113998102D01*
X68087026Y-114027000D01*
X67970061Y-114027000D01*
X67770102Y-114066774D01*
X67581744Y-114144795D01*
X67412226Y-114258063D01*
X67268063Y-114402226D01*
X67154795Y-114571744D01*
X67076774Y-114760102D01*
X67037000Y-114960061D01*
X67037000Y-115163939D01*
X67076774Y-115363898D01*
X67154795Y-115552256D01*
X67268063Y-115721774D01*
X67412226Y-115865937D01*
X67581744Y-115979205D01*
X67770102Y-116057226D01*
X67970061Y-116097000D01*
X68173939Y-116097000D01*
X68373898Y-116057226D01*
X68562256Y-115979205D01*
X68731774Y-115865937D01*
X68875937Y-115721774D01*
X68989205Y-115552256D01*
X69067226Y-115363898D01*
X69072974Y-115335000D01*
X69189939Y-115335000D01*
X69389898Y-115295226D01*
X69578256Y-115217205D01*
X69747774Y-115103937D01*
X69891937Y-114959774D01*
X70005205Y-114790256D01*
X70083226Y-114601898D01*
X70123000Y-114401939D01*
X70123000Y-114198061D01*
X70083226Y-113998102D01*
X70044885Y-113905539D01*
X81026000Y-113868627D01*
X81026000Y-116646782D01*
%TO.N,Net-(C5-Pad1)*%
G36*
X88265000Y-122921985D02*
G01*
X88239939Y-122917000D01*
X88036061Y-122917000D01*
X87836102Y-122956774D01*
X87647744Y-123034795D01*
X87478226Y-123148063D01*
X87334063Y-123292226D01*
X87220795Y-123461744D01*
X87142774Y-123650102D01*
X87103000Y-123850061D01*
X87103000Y-124053939D01*
X87142774Y-124253898D01*
X87220795Y-124442256D01*
X87334063Y-124611774D01*
X87478226Y-124755937D01*
X87647744Y-124869205D01*
X87836102Y-124947226D01*
X88036061Y-124987000D01*
X88239939Y-124987000D01*
X88265000Y-124982015D01*
X88265000Y-132461000D01*
X81788000Y-132461000D01*
X81788000Y-129971461D01*
X82531000Y-129971461D01*
X82531000Y-130175339D01*
X82570774Y-130375298D01*
X82648795Y-130563656D01*
X82762063Y-130733174D01*
X82906226Y-130877337D01*
X83075744Y-130990605D01*
X83264102Y-131068626D01*
X83464061Y-131108400D01*
X83667939Y-131108400D01*
X83867898Y-131068626D01*
X84056256Y-130990605D01*
X84225774Y-130877337D01*
X84369937Y-130733174D01*
X84483205Y-130563656D01*
X84561226Y-130375298D01*
X84601000Y-130175339D01*
X84601000Y-129971461D01*
X84561226Y-129771502D01*
X84483205Y-129583144D01*
X84369937Y-129413626D01*
X84225774Y-129269463D01*
X84056256Y-129156195D01*
X83867898Y-129078174D01*
X83667939Y-129038400D01*
X83464061Y-129038400D01*
X83264102Y-129078174D01*
X83075744Y-129156195D01*
X82906226Y-129269463D01*
X82762063Y-129413626D01*
X82648795Y-129583144D01*
X82570774Y-129771502D01*
X82531000Y-129971461D01*
X81788000Y-129971461D01*
X81788000Y-127346111D01*
X81804537Y-127329574D01*
X81917805Y-127160056D01*
X81952679Y-127075861D01*
X84740800Y-127075861D01*
X84740800Y-127279739D01*
X84780574Y-127479698D01*
X84858595Y-127668056D01*
X84971863Y-127837574D01*
X85116026Y-127981737D01*
X85285544Y-128095005D01*
X85473902Y-128173026D01*
X85673861Y-128212800D01*
X85877739Y-128212800D01*
X86077698Y-128173026D01*
X86266056Y-128095005D01*
X86435574Y-127981737D01*
X86579737Y-127837574D01*
X86693005Y-127668056D01*
X86771026Y-127479698D01*
X86810800Y-127279739D01*
X86810800Y-127075861D01*
X86771026Y-126875902D01*
X86693005Y-126687544D01*
X86579737Y-126518026D01*
X86435574Y-126373863D01*
X86266056Y-126260595D01*
X86077698Y-126182574D01*
X85877739Y-126142800D01*
X85673861Y-126142800D01*
X85473902Y-126182574D01*
X85285544Y-126260595D01*
X85116026Y-126373863D01*
X84971863Y-126518026D01*
X84858595Y-126687544D01*
X84780574Y-126875902D01*
X84740800Y-127075861D01*
X81952679Y-127075861D01*
X81995826Y-126971698D01*
X82035600Y-126771739D01*
X82035600Y-126567861D01*
X81995826Y-126367902D01*
X81917805Y-126179544D01*
X81804537Y-126010026D01*
X81788000Y-125993489D01*
X81788000Y-124358061D01*
X84055000Y-124358061D01*
X84055000Y-124561939D01*
X84094774Y-124761898D01*
X84172795Y-124950256D01*
X84286063Y-125119774D01*
X84430226Y-125263937D01*
X84599744Y-125377205D01*
X84788102Y-125455226D01*
X84988061Y-125495000D01*
X85191939Y-125495000D01*
X85391898Y-125455226D01*
X85580256Y-125377205D01*
X85749774Y-125263937D01*
X85893937Y-125119774D01*
X86007205Y-124950256D01*
X86085226Y-124761898D01*
X86125000Y-124561939D01*
X86125000Y-124358061D01*
X86085226Y-124158102D01*
X86007205Y-123969744D01*
X85893937Y-123800226D01*
X85749774Y-123656063D01*
X85580256Y-123542795D01*
X85391898Y-123464774D01*
X85191939Y-123425000D01*
X84988061Y-123425000D01*
X84788102Y-123464774D01*
X84599744Y-123542795D01*
X84430226Y-123656063D01*
X84286063Y-123800226D01*
X84172795Y-123969744D01*
X84094774Y-124158102D01*
X84055000Y-124358061D01*
X81788000Y-124358061D01*
X81788000Y-121564061D01*
X84309000Y-121564061D01*
X84309000Y-121767939D01*
X84348774Y-121967898D01*
X84426795Y-122156256D01*
X84540063Y-122325774D01*
X84684226Y-122469937D01*
X84853744Y-122583205D01*
X85042102Y-122661226D01*
X85242061Y-122701000D01*
X85445939Y-122701000D01*
X85645898Y-122661226D01*
X85834256Y-122583205D01*
X86003774Y-122469937D01*
X86147937Y-122325774D01*
X86261205Y-122156256D01*
X86339226Y-121967898D01*
X86379000Y-121767939D01*
X86379000Y-121564061D01*
X86339226Y-121364102D01*
X86261205Y-121175744D01*
X86147937Y-121006226D01*
X86003774Y-120862063D01*
X85834256Y-120748795D01*
X85645898Y-120670774D01*
X85445939Y-120631000D01*
X85242061Y-120631000D01*
X85042102Y-120670774D01*
X84853744Y-120748795D01*
X84684226Y-120862063D01*
X84540063Y-121006226D01*
X84426795Y-121175744D01*
X84348774Y-121364102D01*
X84309000Y-121564061D01*
X81788000Y-121564061D01*
X81788000Y-117246061D01*
X85579000Y-117246061D01*
X85579000Y-117449939D01*
X85618774Y-117649898D01*
X85696795Y-117838256D01*
X85810063Y-118007774D01*
X85954226Y-118151937D01*
X86123744Y-118265205D01*
X86312102Y-118343226D01*
X86512061Y-118383000D01*
X86715939Y-118383000D01*
X86915898Y-118343226D01*
X87104256Y-118265205D01*
X87273774Y-118151937D01*
X87417937Y-118007774D01*
X87531205Y-117838256D01*
X87609226Y-117649898D01*
X87649000Y-117449939D01*
X87649000Y-117246061D01*
X87609226Y-117046102D01*
X87531205Y-116857744D01*
X87417937Y-116688226D01*
X87273774Y-116544063D01*
X87104256Y-116430795D01*
X86915898Y-116352774D01*
X86715939Y-116313000D01*
X86512061Y-116313000D01*
X86312102Y-116352774D01*
X86123744Y-116430795D01*
X85954226Y-116544063D01*
X85810063Y-116688226D01*
X85696795Y-116857744D01*
X85618774Y-117046102D01*
X85579000Y-117246061D01*
X81788000Y-117246061D01*
X81788000Y-115777091D01*
X81964337Y-116040998D01*
X82206002Y-116282663D01*
X82490169Y-116472537D01*
X82805919Y-116603325D01*
X83141117Y-116670000D01*
X83482883Y-116670000D01*
X83818081Y-116603325D01*
X84133831Y-116472537D01*
X84417998Y-116282663D01*
X84659663Y-116040998D01*
X84849537Y-115756831D01*
X84980325Y-115441081D01*
X85047000Y-115105883D01*
X85047000Y-114764117D01*
X84980325Y-114428919D01*
X84849537Y-114113169D01*
X84719798Y-113919000D01*
X88265000Y-113919000D01*
X88265000Y-122921985D01*
G37*
X88265000Y-122921985D02*
X88239939Y-122917000D01*
X88036061Y-122917000D01*
X87836102Y-122956774D01*
X87647744Y-123034795D01*
X87478226Y-123148063D01*
X87334063Y-123292226D01*
X87220795Y-123461744D01*
X87142774Y-123650102D01*
X87103000Y-123850061D01*
X87103000Y-124053939D01*
X87142774Y-124253898D01*
X87220795Y-124442256D01*
X87334063Y-124611774D01*
X87478226Y-124755937D01*
X87647744Y-124869205D01*
X87836102Y-124947226D01*
X88036061Y-124987000D01*
X88239939Y-124987000D01*
X88265000Y-124982015D01*
X88265000Y-132461000D01*
X81788000Y-132461000D01*
X81788000Y-129971461D01*
X82531000Y-129971461D01*
X82531000Y-130175339D01*
X82570774Y-130375298D01*
X82648795Y-130563656D01*
X82762063Y-130733174D01*
X82906226Y-130877337D01*
X83075744Y-130990605D01*
X83264102Y-131068626D01*
X83464061Y-131108400D01*
X83667939Y-131108400D01*
X83867898Y-131068626D01*
X84056256Y-130990605D01*
X84225774Y-130877337D01*
X84369937Y-130733174D01*
X84483205Y-130563656D01*
X84561226Y-130375298D01*
X84601000Y-130175339D01*
X84601000Y-129971461D01*
X84561226Y-129771502D01*
X84483205Y-129583144D01*
X84369937Y-129413626D01*
X84225774Y-129269463D01*
X84056256Y-129156195D01*
X83867898Y-129078174D01*
X83667939Y-129038400D01*
X83464061Y-129038400D01*
X83264102Y-129078174D01*
X83075744Y-129156195D01*
X82906226Y-129269463D01*
X82762063Y-129413626D01*
X82648795Y-129583144D01*
X82570774Y-129771502D01*
X82531000Y-129971461D01*
X81788000Y-129971461D01*
X81788000Y-127346111D01*
X81804537Y-127329574D01*
X81917805Y-127160056D01*
X81952679Y-127075861D01*
X84740800Y-127075861D01*
X84740800Y-127279739D01*
X84780574Y-127479698D01*
X84858595Y-127668056D01*
X84971863Y-127837574D01*
X85116026Y-127981737D01*
X85285544Y-128095005D01*
X85473902Y-128173026D01*
X85673861Y-128212800D01*
X85877739Y-128212800D01*
X86077698Y-128173026D01*
X86266056Y-128095005D01*
X86435574Y-127981737D01*
X86579737Y-127837574D01*
X86693005Y-127668056D01*
X86771026Y-127479698D01*
X86810800Y-127279739D01*
X86810800Y-127075861D01*
X86771026Y-126875902D01*
X86693005Y-126687544D01*
X86579737Y-126518026D01*
X86435574Y-126373863D01*
X86266056Y-126260595D01*
X86077698Y-126182574D01*
X85877739Y-126142800D01*
X85673861Y-126142800D01*
X85473902Y-126182574D01*
X85285544Y-126260595D01*
X85116026Y-126373863D01*
X84971863Y-126518026D01*
X84858595Y-126687544D01*
X84780574Y-126875902D01*
X84740800Y-127075861D01*
X81952679Y-127075861D01*
X81995826Y-126971698D01*
X82035600Y-126771739D01*
X82035600Y-126567861D01*
X81995826Y-126367902D01*
X81917805Y-126179544D01*
X81804537Y-126010026D01*
X81788000Y-125993489D01*
X81788000Y-124358061D01*
X84055000Y-124358061D01*
X84055000Y-124561939D01*
X84094774Y-124761898D01*
X84172795Y-124950256D01*
X84286063Y-125119774D01*
X84430226Y-125263937D01*
X84599744Y-125377205D01*
X84788102Y-125455226D01*
X84988061Y-125495000D01*
X85191939Y-125495000D01*
X85391898Y-125455226D01*
X85580256Y-125377205D01*
X85749774Y-125263937D01*
X85893937Y-125119774D01*
X86007205Y-124950256D01*
X86085226Y-124761898D01*
X86125000Y-124561939D01*
X86125000Y-124358061D01*
X86085226Y-124158102D01*
X86007205Y-123969744D01*
X85893937Y-123800226D01*
X85749774Y-123656063D01*
X85580256Y-123542795D01*
X85391898Y-123464774D01*
X85191939Y-123425000D01*
X84988061Y-123425000D01*
X84788102Y-123464774D01*
X84599744Y-123542795D01*
X84430226Y-123656063D01*
X84286063Y-123800226D01*
X84172795Y-123969744D01*
X84094774Y-124158102D01*
X84055000Y-124358061D01*
X81788000Y-124358061D01*
X81788000Y-121564061D01*
X84309000Y-121564061D01*
X84309000Y-121767939D01*
X84348774Y-121967898D01*
X84426795Y-122156256D01*
X84540063Y-122325774D01*
X84684226Y-122469937D01*
X84853744Y-122583205D01*
X85042102Y-122661226D01*
X85242061Y-122701000D01*
X85445939Y-122701000D01*
X85645898Y-122661226D01*
X85834256Y-122583205D01*
X86003774Y-122469937D01*
X86147937Y-122325774D01*
X86261205Y-122156256D01*
X86339226Y-121967898D01*
X86379000Y-121767939D01*
X86379000Y-121564061D01*
X86339226Y-121364102D01*
X86261205Y-121175744D01*
X86147937Y-121006226D01*
X86003774Y-120862063D01*
X85834256Y-120748795D01*
X85645898Y-120670774D01*
X85445939Y-120631000D01*
X85242061Y-120631000D01*
X85042102Y-120670774D01*
X84853744Y-120748795D01*
X84684226Y-120862063D01*
X84540063Y-121006226D01*
X84426795Y-121175744D01*
X84348774Y-121364102D01*
X84309000Y-121564061D01*
X81788000Y-121564061D01*
X81788000Y-117246061D01*
X85579000Y-117246061D01*
X85579000Y-117449939D01*
X85618774Y-117649898D01*
X85696795Y-117838256D01*
X85810063Y-118007774D01*
X85954226Y-118151937D01*
X86123744Y-118265205D01*
X86312102Y-118343226D01*
X86512061Y-118383000D01*
X86715939Y-118383000D01*
X86915898Y-118343226D01*
X87104256Y-118265205D01*
X87273774Y-118151937D01*
X87417937Y-118007774D01*
X87531205Y-117838256D01*
X87609226Y-117649898D01*
X87649000Y-117449939D01*
X87649000Y-117246061D01*
X87609226Y-117046102D01*
X87531205Y-116857744D01*
X87417937Y-116688226D01*
X87273774Y-116544063D01*
X87104256Y-116430795D01*
X86915898Y-116352774D01*
X86715939Y-116313000D01*
X86512061Y-116313000D01*
X86312102Y-116352774D01*
X86123744Y-116430795D01*
X85954226Y-116544063D01*
X85810063Y-116688226D01*
X85696795Y-116857744D01*
X85618774Y-117046102D01*
X85579000Y-117246061D01*
X81788000Y-117246061D01*
X81788000Y-115777091D01*
X81964337Y-116040998D01*
X82206002Y-116282663D01*
X82490169Y-116472537D01*
X82805919Y-116603325D01*
X83141117Y-116670000D01*
X83482883Y-116670000D01*
X83818081Y-116603325D01*
X84133831Y-116472537D01*
X84417998Y-116282663D01*
X84659663Y-116040998D01*
X84849537Y-115756831D01*
X84980325Y-115441081D01*
X85047000Y-115105883D01*
X85047000Y-114764117D01*
X84980325Y-114428919D01*
X84849537Y-114113169D01*
X84719798Y-113919000D01*
X88265000Y-113919000D01*
X88265000Y-122921985D01*
%TO.N,+10V*%
G36*
X107340400Y-132410669D02*
G01*
X101313762Y-132432949D01*
X101387937Y-132358774D01*
X101501205Y-132189256D01*
X101579226Y-132000898D01*
X101619000Y-131800939D01*
X101619000Y-131597061D01*
X101579226Y-131397102D01*
X101501205Y-131208744D01*
X101387937Y-131039226D01*
X101243774Y-130895063D01*
X101074256Y-130781795D01*
X100885898Y-130703774D01*
X100685939Y-130664000D01*
X100482061Y-130664000D01*
X100282102Y-130703774D01*
X100093744Y-130781795D01*
X99924226Y-130895063D01*
X99780063Y-131039226D01*
X99666795Y-131208744D01*
X99631500Y-131293953D01*
X99596205Y-131208744D01*
X99482937Y-131039226D01*
X99338774Y-130895063D01*
X99169256Y-130781795D01*
X98980898Y-130703774D01*
X98780939Y-130664000D01*
X98577061Y-130664000D01*
X98377102Y-130703774D01*
X98188744Y-130781795D01*
X98019226Y-130895063D01*
X97875063Y-131039226D01*
X97761795Y-131208744D01*
X97683774Y-131397102D01*
X97644000Y-131597061D01*
X97644000Y-131800939D01*
X97683774Y-132000898D01*
X97761795Y-132189256D01*
X97875063Y-132358774D01*
X97961630Y-132445341D01*
X93853000Y-132460530D01*
X93853000Y-130327061D01*
X102216000Y-130327061D01*
X102216000Y-130530939D01*
X102255774Y-130730898D01*
X102333795Y-130919256D01*
X102447063Y-131088774D01*
X102591226Y-131232937D01*
X102760744Y-131346205D01*
X102949102Y-131424226D01*
X103149061Y-131464000D01*
X103352939Y-131464000D01*
X103552898Y-131424226D01*
X103741256Y-131346205D01*
X103910774Y-131232937D01*
X104054937Y-131088774D01*
X104168205Y-130919256D01*
X104246226Y-130730898D01*
X104247097Y-130726521D01*
X104256525Y-130740632D01*
X104463368Y-130947475D01*
X104706589Y-131109990D01*
X104976842Y-131221932D01*
X105263740Y-131279000D01*
X105556260Y-131279000D01*
X105843158Y-131221932D01*
X106113411Y-131109990D01*
X106356632Y-130947475D01*
X106563475Y-130740632D01*
X106725990Y-130497411D01*
X106837932Y-130227158D01*
X106895000Y-129940260D01*
X106895000Y-129647740D01*
X106837932Y-129360842D01*
X106725990Y-129090589D01*
X106563475Y-128847368D01*
X106356632Y-128640525D01*
X106182240Y-128524000D01*
X106356632Y-128407475D01*
X106563475Y-128200632D01*
X106725990Y-127957411D01*
X106837932Y-127687158D01*
X106895000Y-127400260D01*
X106895000Y-127107740D01*
X106837932Y-126820842D01*
X106725990Y-126550589D01*
X106563475Y-126307368D01*
X106356632Y-126100525D01*
X106182240Y-125984000D01*
X106356632Y-125867475D01*
X106563475Y-125660632D01*
X106725990Y-125417411D01*
X106837932Y-125147158D01*
X106895000Y-124860260D01*
X106895000Y-124567740D01*
X106837932Y-124280842D01*
X106725990Y-124010589D01*
X106563475Y-123767368D01*
X106356632Y-123560525D01*
X106182240Y-123444000D01*
X106356632Y-123327475D01*
X106563475Y-123120632D01*
X106725990Y-122877411D01*
X106837932Y-122607158D01*
X106895000Y-122320260D01*
X106895000Y-122027740D01*
X106837932Y-121740842D01*
X106725990Y-121470589D01*
X106563475Y-121227368D01*
X106356632Y-121020525D01*
X106182240Y-120904000D01*
X106356632Y-120787475D01*
X106563475Y-120580632D01*
X106725990Y-120337411D01*
X106837932Y-120067158D01*
X106895000Y-119780260D01*
X106895000Y-119487740D01*
X106837932Y-119200842D01*
X106725990Y-118930589D01*
X106563475Y-118687368D01*
X106431620Y-118555513D01*
X106504180Y-118533502D01*
X106614494Y-118474537D01*
X106711185Y-118395185D01*
X106790537Y-118298494D01*
X106849502Y-118188180D01*
X106885812Y-118068482D01*
X106898072Y-117944000D01*
X106895000Y-117379750D01*
X106736250Y-117221000D01*
X105537000Y-117221000D01*
X105537000Y-117241000D01*
X105283000Y-117241000D01*
X105283000Y-117221000D01*
X104083750Y-117221000D01*
X103925000Y-117379750D01*
X103921928Y-117944000D01*
X103934188Y-118068482D01*
X103970498Y-118188180D01*
X104029463Y-118298494D01*
X104108815Y-118395185D01*
X104205506Y-118474537D01*
X104315820Y-118533502D01*
X104388380Y-118555513D01*
X104256525Y-118687368D01*
X104094010Y-118930589D01*
X103982068Y-119200842D01*
X103925000Y-119487740D01*
X103925000Y-119780260D01*
X103982068Y-120067158D01*
X104094010Y-120337411D01*
X104256525Y-120580632D01*
X104463368Y-120787475D01*
X104637760Y-120904000D01*
X104463368Y-121020525D01*
X104256525Y-121227368D01*
X104094010Y-121470589D01*
X103982068Y-121740842D01*
X103925000Y-122027740D01*
X103925000Y-122320260D01*
X103982068Y-122607158D01*
X104094010Y-122877411D01*
X104256525Y-123120632D01*
X104463368Y-123327475D01*
X104637760Y-123444000D01*
X104463368Y-123560525D01*
X104256525Y-123767368D01*
X104094010Y-124010589D01*
X103982068Y-124280842D01*
X103925000Y-124567740D01*
X103925000Y-124860260D01*
X103982068Y-125147158D01*
X104094010Y-125417411D01*
X104256525Y-125660632D01*
X104463368Y-125867475D01*
X104637760Y-125984000D01*
X104463368Y-126100525D01*
X104256525Y-126307368D01*
X104208253Y-126379611D01*
X104181937Y-126340226D01*
X104037774Y-126196063D01*
X103868256Y-126082795D01*
X103679898Y-126004774D01*
X103479939Y-125965000D01*
X103276061Y-125965000D01*
X103076102Y-126004774D01*
X102887744Y-126082795D01*
X102718226Y-126196063D01*
X102574063Y-126340226D01*
X102460795Y-126509744D01*
X102382774Y-126698102D01*
X102343000Y-126898061D01*
X102343000Y-127101939D01*
X102382774Y-127301898D01*
X102460795Y-127490256D01*
X102574063Y-127659774D01*
X102718226Y-127803937D01*
X102887744Y-127917205D01*
X103076102Y-127995226D01*
X103276061Y-128035000D01*
X103479939Y-128035000D01*
X103679898Y-127995226D01*
X103868256Y-127917205D01*
X104032029Y-127807776D01*
X104094010Y-127957411D01*
X104256525Y-128200632D01*
X104463368Y-128407475D01*
X104637760Y-128524000D01*
X104463368Y-128640525D01*
X104256525Y-128847368D01*
X104094010Y-129090589D01*
X103982068Y-129360842D01*
X103926402Y-129640691D01*
X103910774Y-129625063D01*
X103741256Y-129511795D01*
X103552898Y-129433774D01*
X103352939Y-129394000D01*
X103149061Y-129394000D01*
X102949102Y-129433774D01*
X102760744Y-129511795D01*
X102591226Y-129625063D01*
X102447063Y-129769226D01*
X102333795Y-129938744D01*
X102255774Y-130127102D01*
X102216000Y-130327061D01*
X93853000Y-130327061D01*
X93853000Y-125573187D01*
X94603762Y-125573187D01*
X94603762Y-125777065D01*
X94643536Y-125977024D01*
X94721557Y-126165382D01*
X94834825Y-126334900D01*
X94978988Y-126479063D01*
X95148506Y-126592331D01*
X95336864Y-126670352D01*
X95536823Y-126710126D01*
X95740701Y-126710126D01*
X95940660Y-126670352D01*
X96129018Y-126592331D01*
X96298536Y-126479063D01*
X96442699Y-126334900D01*
X96555967Y-126165382D01*
X96633988Y-125977024D01*
X96673762Y-125777065D01*
X96673762Y-125628061D01*
X96755000Y-125628061D01*
X96755000Y-125831939D01*
X96794774Y-126031898D01*
X96872795Y-126220256D01*
X96986063Y-126389774D01*
X97130226Y-126533937D01*
X97299744Y-126647205D01*
X97488102Y-126725226D01*
X97688061Y-126765000D01*
X97891939Y-126765000D01*
X98091898Y-126725226D01*
X98103650Y-126720358D01*
X98111229Y-126727937D01*
X98280747Y-126841205D01*
X98469105Y-126919226D01*
X98669064Y-126959000D01*
X98872942Y-126959000D01*
X99072901Y-126919226D01*
X99261259Y-126841205D01*
X99430777Y-126727937D01*
X99440258Y-126718456D01*
X99456602Y-126725226D01*
X99656561Y-126765000D01*
X99860439Y-126765000D01*
X100060398Y-126725226D01*
X100248756Y-126647205D01*
X100418274Y-126533937D01*
X100562437Y-126389774D01*
X100675705Y-126220256D01*
X100753726Y-126031898D01*
X100793500Y-125831939D01*
X100793500Y-125628061D01*
X100753726Y-125428102D01*
X100675705Y-125239744D01*
X100562437Y-125070226D01*
X100418274Y-124926063D01*
X100248756Y-124812795D01*
X100060398Y-124734774D01*
X99860439Y-124695000D01*
X99656561Y-124695000D01*
X99456602Y-124734774D01*
X99268244Y-124812795D01*
X99098726Y-124926063D01*
X99089245Y-124935544D01*
X99072901Y-124928774D01*
X98872942Y-124889000D01*
X98669064Y-124889000D01*
X98469105Y-124928774D01*
X98457353Y-124933642D01*
X98449774Y-124926063D01*
X98280256Y-124812795D01*
X98091898Y-124734774D01*
X97891939Y-124695000D01*
X97688061Y-124695000D01*
X97488102Y-124734774D01*
X97299744Y-124812795D01*
X97130226Y-124926063D01*
X96986063Y-125070226D01*
X96872795Y-125239744D01*
X96794774Y-125428102D01*
X96755000Y-125628061D01*
X96673762Y-125628061D01*
X96673762Y-125573187D01*
X96633988Y-125373228D01*
X96555967Y-125184870D01*
X96442699Y-125015352D01*
X96298536Y-124871189D01*
X96129018Y-124757921D01*
X95940660Y-124679900D01*
X95740701Y-124640126D01*
X95536823Y-124640126D01*
X95336864Y-124679900D01*
X95148506Y-124757921D01*
X94978988Y-124871189D01*
X94834825Y-125015352D01*
X94721557Y-125184870D01*
X94643536Y-125373228D01*
X94603762Y-125573187D01*
X93853000Y-125573187D01*
X93853000Y-123283214D01*
X94537153Y-123283214D01*
X94537153Y-123487092D01*
X94576927Y-123687051D01*
X94654948Y-123875409D01*
X94768216Y-124044927D01*
X94912379Y-124189090D01*
X95081897Y-124302358D01*
X95270255Y-124380379D01*
X95470214Y-124420153D01*
X95674092Y-124420153D01*
X95874051Y-124380379D01*
X96062409Y-124302358D01*
X96231927Y-124189090D01*
X96376090Y-124044927D01*
X96489358Y-123875409D01*
X96567379Y-123687051D01*
X96607153Y-123487092D01*
X96607153Y-123283214D01*
X96567379Y-123083255D01*
X96489358Y-122894897D01*
X96376090Y-122725379D01*
X96231927Y-122581216D01*
X96062409Y-122467948D01*
X95874051Y-122389927D01*
X95674092Y-122350153D01*
X95470214Y-122350153D01*
X95270255Y-122389927D01*
X95081897Y-122467948D01*
X94912379Y-122581216D01*
X94768216Y-122725379D01*
X94654948Y-122894897D01*
X94576927Y-123083255D01*
X94537153Y-123283214D01*
X93853000Y-123283214D01*
X93853000Y-119781408D01*
X95988347Y-119781408D01*
X95988347Y-119985286D01*
X96028121Y-120185245D01*
X96106142Y-120373603D01*
X96219410Y-120543121D01*
X96363573Y-120687284D01*
X96533091Y-120800552D01*
X96721449Y-120878573D01*
X96921408Y-120918347D01*
X97125286Y-120918347D01*
X97325245Y-120878573D01*
X97513603Y-120800552D01*
X97683121Y-120687284D01*
X97827284Y-120543121D01*
X97940552Y-120373603D01*
X98018573Y-120185245D01*
X98058347Y-119985286D01*
X98058347Y-119781408D01*
X98018573Y-119581449D01*
X97940552Y-119393091D01*
X97827284Y-119223573D01*
X97683121Y-119079410D01*
X97513603Y-118966142D01*
X97325245Y-118888121D01*
X97125286Y-118848347D01*
X96921408Y-118848347D01*
X96721449Y-118888121D01*
X96533091Y-118966142D01*
X96363573Y-119079410D01*
X96219410Y-119223573D01*
X96106142Y-119393091D01*
X96028121Y-119581449D01*
X95988347Y-119781408D01*
X93853000Y-119781408D01*
X93853000Y-114680531D01*
X99630581Y-114659172D01*
X99588774Y-114760102D01*
X99549000Y-114960061D01*
X99549000Y-115163939D01*
X99588774Y-115363898D01*
X99666795Y-115552256D01*
X99780063Y-115721774D01*
X99924226Y-115865937D01*
X100093744Y-115979205D01*
X100282102Y-116057226D01*
X100386541Y-116078000D01*
X100282102Y-116098774D01*
X100093744Y-116176795D01*
X99924226Y-116290063D01*
X99780063Y-116434226D01*
X99666795Y-116603744D01*
X99588774Y-116792102D01*
X99587000Y-116801021D01*
X99587000Y-116738061D01*
X99547226Y-116538102D01*
X99469205Y-116349744D01*
X99355937Y-116180226D01*
X99211774Y-116036063D01*
X99042256Y-115922795D01*
X98853898Y-115844774D01*
X98653939Y-115805000D01*
X98450061Y-115805000D01*
X98250102Y-115844774D01*
X98061744Y-115922795D01*
X97892226Y-116036063D01*
X97835941Y-116092348D01*
X97772256Y-116049795D01*
X97583898Y-115971774D01*
X97383939Y-115932000D01*
X97180061Y-115932000D01*
X96980102Y-115971774D01*
X96791744Y-116049795D01*
X96622226Y-116163063D01*
X96478063Y-116307226D01*
X96364795Y-116476744D01*
X96286774Y-116665102D01*
X96247000Y-116865061D01*
X96247000Y-117055021D01*
X96245226Y-117046102D01*
X96167205Y-116857744D01*
X96053937Y-116688226D01*
X95909774Y-116544063D01*
X95740256Y-116430795D01*
X95551898Y-116352774D01*
X95351939Y-116313000D01*
X95148061Y-116313000D01*
X94948102Y-116352774D01*
X94759744Y-116430795D01*
X94590226Y-116544063D01*
X94446063Y-116688226D01*
X94332795Y-116857744D01*
X94254774Y-117046102D01*
X94215000Y-117246061D01*
X94215000Y-117449939D01*
X94254774Y-117649898D01*
X94332795Y-117838256D01*
X94446063Y-118007774D01*
X94590226Y-118151937D01*
X94759744Y-118265205D01*
X94948102Y-118343226D01*
X95148061Y-118383000D01*
X95351939Y-118383000D01*
X95551898Y-118343226D01*
X95740256Y-118265205D01*
X95909774Y-118151937D01*
X96053937Y-118007774D01*
X96167205Y-117838256D01*
X96245226Y-117649898D01*
X96285000Y-117449939D01*
X96285000Y-117259979D01*
X96286774Y-117268898D01*
X96364795Y-117457256D01*
X96478063Y-117626774D01*
X96622226Y-117770937D01*
X96791744Y-117884205D01*
X96980102Y-117962226D01*
X97180061Y-118002000D01*
X97383939Y-118002000D01*
X97583898Y-117962226D01*
X97772256Y-117884205D01*
X97941774Y-117770937D01*
X97998059Y-117714652D01*
X98061744Y-117757205D01*
X98250102Y-117835226D01*
X98450061Y-117875000D01*
X98653939Y-117875000D01*
X98853898Y-117835226D01*
X99042256Y-117757205D01*
X99211774Y-117643937D01*
X99355937Y-117499774D01*
X99469205Y-117330256D01*
X99547226Y-117141898D01*
X99549000Y-117132979D01*
X99549000Y-117195939D01*
X99588774Y-117395898D01*
X99666795Y-117584256D01*
X99780063Y-117753774D01*
X99924226Y-117897937D01*
X100093744Y-118011205D01*
X100282102Y-118089226D01*
X100482061Y-118129000D01*
X100685939Y-118129000D01*
X100885898Y-118089226D01*
X101074256Y-118011205D01*
X101243774Y-117897937D01*
X101387937Y-117753774D01*
X101501205Y-117584256D01*
X101579226Y-117395898D01*
X101619000Y-117195939D01*
X101619000Y-116992061D01*
X101579226Y-116792102D01*
X101501205Y-116603744D01*
X101387937Y-116434226D01*
X101243774Y-116290063D01*
X101174836Y-116244000D01*
X103921928Y-116244000D01*
X103925000Y-116808250D01*
X104083750Y-116967000D01*
X105283000Y-116967000D01*
X105283000Y-115767750D01*
X105537000Y-115767750D01*
X105537000Y-116967000D01*
X106736250Y-116967000D01*
X106895000Y-116808250D01*
X106898072Y-116244000D01*
X106885812Y-116119518D01*
X106849502Y-115999820D01*
X106790537Y-115889506D01*
X106711185Y-115792815D01*
X106614494Y-115713463D01*
X106504180Y-115654498D01*
X106384482Y-115618188D01*
X106260000Y-115605928D01*
X105695750Y-115609000D01*
X105537000Y-115767750D01*
X105283000Y-115767750D01*
X105124250Y-115609000D01*
X104560000Y-115605928D01*
X104435518Y-115618188D01*
X104315820Y-115654498D01*
X104205506Y-115713463D01*
X104108815Y-115792815D01*
X104029463Y-115889506D01*
X103970498Y-115999820D01*
X103934188Y-116119518D01*
X103921928Y-116244000D01*
X101174836Y-116244000D01*
X101074256Y-116176795D01*
X100885898Y-116098774D01*
X100781459Y-116078000D01*
X100885898Y-116057226D01*
X101074256Y-115979205D01*
X101243774Y-115865937D01*
X101387937Y-115721774D01*
X101501205Y-115552256D01*
X101579226Y-115363898D01*
X101619000Y-115163939D01*
X101619000Y-114960061D01*
X101579226Y-114760102D01*
X101534504Y-114652134D01*
X107340400Y-114630670D01*
X107340400Y-132410669D01*
G37*
X107340400Y-132410669D02*
X101313762Y-132432949D01*
X101387937Y-132358774D01*
X101501205Y-132189256D01*
X101579226Y-132000898D01*
X101619000Y-131800939D01*
X101619000Y-131597061D01*
X101579226Y-131397102D01*
X101501205Y-131208744D01*
X101387937Y-131039226D01*
X101243774Y-130895063D01*
X101074256Y-130781795D01*
X100885898Y-130703774D01*
X100685939Y-130664000D01*
X100482061Y-130664000D01*
X100282102Y-130703774D01*
X100093744Y-130781795D01*
X99924226Y-130895063D01*
X99780063Y-131039226D01*
X99666795Y-131208744D01*
X99631500Y-131293953D01*
X99596205Y-131208744D01*
X99482937Y-131039226D01*
X99338774Y-130895063D01*
X99169256Y-130781795D01*
X98980898Y-130703774D01*
X98780939Y-130664000D01*
X98577061Y-130664000D01*
X98377102Y-130703774D01*
X98188744Y-130781795D01*
X98019226Y-130895063D01*
X97875063Y-131039226D01*
X97761795Y-131208744D01*
X97683774Y-131397102D01*
X97644000Y-131597061D01*
X97644000Y-131800939D01*
X97683774Y-132000898D01*
X97761795Y-132189256D01*
X97875063Y-132358774D01*
X97961630Y-132445341D01*
X93853000Y-132460530D01*
X93853000Y-130327061D01*
X102216000Y-130327061D01*
X102216000Y-130530939D01*
X102255774Y-130730898D01*
X102333795Y-130919256D01*
X102447063Y-131088774D01*
X102591226Y-131232937D01*
X102760744Y-131346205D01*
X102949102Y-131424226D01*
X103149061Y-131464000D01*
X103352939Y-131464000D01*
X103552898Y-131424226D01*
X103741256Y-131346205D01*
X103910774Y-131232937D01*
X104054937Y-131088774D01*
X104168205Y-130919256D01*
X104246226Y-130730898D01*
X104247097Y-130726521D01*
X104256525Y-130740632D01*
X104463368Y-130947475D01*
X104706589Y-131109990D01*
X104976842Y-131221932D01*
X105263740Y-131279000D01*
X105556260Y-131279000D01*
X105843158Y-131221932D01*
X106113411Y-131109990D01*
X106356632Y-130947475D01*
X106563475Y-130740632D01*
X106725990Y-130497411D01*
X106837932Y-130227158D01*
X106895000Y-129940260D01*
X106895000Y-129647740D01*
X106837932Y-129360842D01*
X106725990Y-129090589D01*
X106563475Y-128847368D01*
X106356632Y-128640525D01*
X106182240Y-128524000D01*
X106356632Y-128407475D01*
X106563475Y-128200632D01*
X106725990Y-127957411D01*
X106837932Y-127687158D01*
X106895000Y-127400260D01*
X106895000Y-127107740D01*
X106837932Y-126820842D01*
X106725990Y-126550589D01*
X106563475Y-126307368D01*
X106356632Y-126100525D01*
X106182240Y-125984000D01*
X106356632Y-125867475D01*
X106563475Y-125660632D01*
X106725990Y-125417411D01*
X106837932Y-125147158D01*
X106895000Y-124860260D01*
X106895000Y-124567740D01*
X106837932Y-124280842D01*
X106725990Y-124010589D01*
X106563475Y-123767368D01*
X106356632Y-123560525D01*
X106182240Y-123444000D01*
X106356632Y-123327475D01*
X106563475Y-123120632D01*
X106725990Y-122877411D01*
X106837932Y-122607158D01*
X106895000Y-122320260D01*
X106895000Y-122027740D01*
X106837932Y-121740842D01*
X106725990Y-121470589D01*
X106563475Y-121227368D01*
X106356632Y-121020525D01*
X106182240Y-120904000D01*
X106356632Y-120787475D01*
X106563475Y-120580632D01*
X106725990Y-120337411D01*
X106837932Y-120067158D01*
X106895000Y-119780260D01*
X106895000Y-119487740D01*
X106837932Y-119200842D01*
X106725990Y-118930589D01*
X106563475Y-118687368D01*
X106431620Y-118555513D01*
X106504180Y-118533502D01*
X106614494Y-118474537D01*
X106711185Y-118395185D01*
X106790537Y-118298494D01*
X106849502Y-118188180D01*
X106885812Y-118068482D01*
X106898072Y-117944000D01*
X106895000Y-117379750D01*
X106736250Y-117221000D01*
X105537000Y-117221000D01*
X105537000Y-117241000D01*
X105283000Y-117241000D01*
X105283000Y-117221000D01*
X104083750Y-117221000D01*
X103925000Y-117379750D01*
X103921928Y-117944000D01*
X103934188Y-118068482D01*
X103970498Y-118188180D01*
X104029463Y-118298494D01*
X104108815Y-118395185D01*
X104205506Y-118474537D01*
X104315820Y-118533502D01*
X104388380Y-118555513D01*
X104256525Y-118687368D01*
X104094010Y-118930589D01*
X103982068Y-119200842D01*
X103925000Y-119487740D01*
X103925000Y-119780260D01*
X103982068Y-120067158D01*
X104094010Y-120337411D01*
X104256525Y-120580632D01*
X104463368Y-120787475D01*
X104637760Y-120904000D01*
X104463368Y-121020525D01*
X104256525Y-121227368D01*
X104094010Y-121470589D01*
X103982068Y-121740842D01*
X103925000Y-122027740D01*
X103925000Y-122320260D01*
X103982068Y-122607158D01*
X104094010Y-122877411D01*
X104256525Y-123120632D01*
X104463368Y-123327475D01*
X104637760Y-123444000D01*
X104463368Y-123560525D01*
X104256525Y-123767368D01*
X104094010Y-124010589D01*
X103982068Y-124280842D01*
X103925000Y-124567740D01*
X103925000Y-124860260D01*
X103982068Y-125147158D01*
X104094010Y-125417411D01*
X104256525Y-125660632D01*
X104463368Y-125867475D01*
X104637760Y-125984000D01*
X104463368Y-126100525D01*
X104256525Y-126307368D01*
X104208253Y-126379611D01*
X104181937Y-126340226D01*
X104037774Y-126196063D01*
X103868256Y-126082795D01*
X103679898Y-126004774D01*
X103479939Y-125965000D01*
X103276061Y-125965000D01*
X103076102Y-126004774D01*
X102887744Y-126082795D01*
X102718226Y-126196063D01*
X102574063Y-126340226D01*
X102460795Y-126509744D01*
X102382774Y-126698102D01*
X102343000Y-126898061D01*
X102343000Y-127101939D01*
X102382774Y-127301898D01*
X102460795Y-127490256D01*
X102574063Y-127659774D01*
X102718226Y-127803937D01*
X102887744Y-127917205D01*
X103076102Y-127995226D01*
X103276061Y-128035000D01*
X103479939Y-128035000D01*
X103679898Y-127995226D01*
X103868256Y-127917205D01*
X104032029Y-127807776D01*
X104094010Y-127957411D01*
X104256525Y-128200632D01*
X104463368Y-128407475D01*
X104637760Y-128524000D01*
X104463368Y-128640525D01*
X104256525Y-128847368D01*
X104094010Y-129090589D01*
X103982068Y-129360842D01*
X103926402Y-129640691D01*
X103910774Y-129625063D01*
X103741256Y-129511795D01*
X103552898Y-129433774D01*
X103352939Y-129394000D01*
X103149061Y-129394000D01*
X102949102Y-129433774D01*
X102760744Y-129511795D01*
X102591226Y-129625063D01*
X102447063Y-129769226D01*
X102333795Y-129938744D01*
X102255774Y-130127102D01*
X102216000Y-130327061D01*
X93853000Y-130327061D01*
X93853000Y-125573187D01*
X94603762Y-125573187D01*
X94603762Y-125777065D01*
X94643536Y-125977024D01*
X94721557Y-126165382D01*
X94834825Y-126334900D01*
X94978988Y-126479063D01*
X95148506Y-126592331D01*
X95336864Y-126670352D01*
X95536823Y-126710126D01*
X95740701Y-126710126D01*
X95940660Y-126670352D01*
X96129018Y-126592331D01*
X96298536Y-126479063D01*
X96442699Y-126334900D01*
X96555967Y-126165382D01*
X96633988Y-125977024D01*
X96673762Y-125777065D01*
X96673762Y-125628061D01*
X96755000Y-125628061D01*
X96755000Y-125831939D01*
X96794774Y-126031898D01*
X96872795Y-126220256D01*
X96986063Y-126389774D01*
X97130226Y-126533937D01*
X97299744Y-126647205D01*
X97488102Y-126725226D01*
X97688061Y-126765000D01*
X97891939Y-126765000D01*
X98091898Y-126725226D01*
X98103650Y-126720358D01*
X98111229Y-126727937D01*
X98280747Y-126841205D01*
X98469105Y-126919226D01*
X98669064Y-126959000D01*
X98872942Y-126959000D01*
X99072901Y-126919226D01*
X99261259Y-126841205D01*
X99430777Y-126727937D01*
X99440258Y-126718456D01*
X99456602Y-126725226D01*
X99656561Y-126765000D01*
X99860439Y-126765000D01*
X100060398Y-126725226D01*
X100248756Y-126647205D01*
X100418274Y-126533937D01*
X100562437Y-126389774D01*
X100675705Y-126220256D01*
X100753726Y-126031898D01*
X100793500Y-125831939D01*
X100793500Y-125628061D01*
X100753726Y-125428102D01*
X100675705Y-125239744D01*
X100562437Y-125070226D01*
X100418274Y-124926063D01*
X100248756Y-124812795D01*
X100060398Y-124734774D01*
X99860439Y-124695000D01*
X99656561Y-124695000D01*
X99456602Y-124734774D01*
X99268244Y-124812795D01*
X99098726Y-124926063D01*
X99089245Y-124935544D01*
X99072901Y-124928774D01*
X98872942Y-124889000D01*
X98669064Y-124889000D01*
X98469105Y-124928774D01*
X98457353Y-124933642D01*
X98449774Y-124926063D01*
X98280256Y-124812795D01*
X98091898Y-124734774D01*
X97891939Y-124695000D01*
X97688061Y-124695000D01*
X97488102Y-124734774D01*
X97299744Y-124812795D01*
X97130226Y-124926063D01*
X96986063Y-125070226D01*
X96872795Y-125239744D01*
X96794774Y-125428102D01*
X96755000Y-125628061D01*
X96673762Y-125628061D01*
X96673762Y-125573187D01*
X96633988Y-125373228D01*
X96555967Y-125184870D01*
X96442699Y-125015352D01*
X96298536Y-124871189D01*
X96129018Y-124757921D01*
X95940660Y-124679900D01*
X95740701Y-124640126D01*
X95536823Y-124640126D01*
X95336864Y-124679900D01*
X95148506Y-124757921D01*
X94978988Y-124871189D01*
X94834825Y-125015352D01*
X94721557Y-125184870D01*
X94643536Y-125373228D01*
X94603762Y-125573187D01*
X93853000Y-125573187D01*
X93853000Y-123283214D01*
X94537153Y-123283214D01*
X94537153Y-123487092D01*
X94576927Y-123687051D01*
X94654948Y-123875409D01*
X94768216Y-124044927D01*
X94912379Y-124189090D01*
X95081897Y-124302358D01*
X95270255Y-124380379D01*
X95470214Y-124420153D01*
X95674092Y-124420153D01*
X95874051Y-124380379D01*
X96062409Y-124302358D01*
X96231927Y-124189090D01*
X96376090Y-124044927D01*
X96489358Y-123875409D01*
X96567379Y-123687051D01*
X96607153Y-123487092D01*
X96607153Y-123283214D01*
X96567379Y-123083255D01*
X96489358Y-122894897D01*
X96376090Y-122725379D01*
X96231927Y-122581216D01*
X96062409Y-122467948D01*
X95874051Y-122389927D01*
X95674092Y-122350153D01*
X95470214Y-122350153D01*
X95270255Y-122389927D01*
X95081897Y-122467948D01*
X94912379Y-122581216D01*
X94768216Y-122725379D01*
X94654948Y-122894897D01*
X94576927Y-123083255D01*
X94537153Y-123283214D01*
X93853000Y-123283214D01*
X93853000Y-119781408D01*
X95988347Y-119781408D01*
X95988347Y-119985286D01*
X96028121Y-120185245D01*
X96106142Y-120373603D01*
X96219410Y-120543121D01*
X96363573Y-120687284D01*
X96533091Y-120800552D01*
X96721449Y-120878573D01*
X96921408Y-120918347D01*
X97125286Y-120918347D01*
X97325245Y-120878573D01*
X97513603Y-120800552D01*
X97683121Y-120687284D01*
X97827284Y-120543121D01*
X97940552Y-120373603D01*
X98018573Y-120185245D01*
X98058347Y-119985286D01*
X98058347Y-119781408D01*
X98018573Y-119581449D01*
X97940552Y-119393091D01*
X97827284Y-119223573D01*
X97683121Y-119079410D01*
X97513603Y-118966142D01*
X97325245Y-118888121D01*
X97125286Y-118848347D01*
X96921408Y-118848347D01*
X96721449Y-118888121D01*
X96533091Y-118966142D01*
X96363573Y-119079410D01*
X96219410Y-119223573D01*
X96106142Y-119393091D01*
X96028121Y-119581449D01*
X95988347Y-119781408D01*
X93853000Y-119781408D01*
X93853000Y-114680531D01*
X99630581Y-114659172D01*
X99588774Y-114760102D01*
X99549000Y-114960061D01*
X99549000Y-115163939D01*
X99588774Y-115363898D01*
X99666795Y-115552256D01*
X99780063Y-115721774D01*
X99924226Y-115865937D01*
X100093744Y-115979205D01*
X100282102Y-116057226D01*
X100386541Y-116078000D01*
X100282102Y-116098774D01*
X100093744Y-116176795D01*
X99924226Y-116290063D01*
X99780063Y-116434226D01*
X99666795Y-116603744D01*
X99588774Y-116792102D01*
X99587000Y-116801021D01*
X99587000Y-116738061D01*
X99547226Y-116538102D01*
X99469205Y-116349744D01*
X99355937Y-116180226D01*
X99211774Y-116036063D01*
X99042256Y-115922795D01*
X98853898Y-115844774D01*
X98653939Y-115805000D01*
X98450061Y-115805000D01*
X98250102Y-115844774D01*
X98061744Y-115922795D01*
X97892226Y-116036063D01*
X97835941Y-116092348D01*
X97772256Y-116049795D01*
X97583898Y-115971774D01*
X97383939Y-115932000D01*
X97180061Y-115932000D01*
X96980102Y-115971774D01*
X96791744Y-116049795D01*
X96622226Y-116163063D01*
X96478063Y-116307226D01*
X96364795Y-116476744D01*
X96286774Y-116665102D01*
X96247000Y-116865061D01*
X96247000Y-117055021D01*
X96245226Y-117046102D01*
X96167205Y-116857744D01*
X96053937Y-116688226D01*
X95909774Y-116544063D01*
X95740256Y-116430795D01*
X95551898Y-116352774D01*
X95351939Y-116313000D01*
X95148061Y-116313000D01*
X94948102Y-116352774D01*
X94759744Y-116430795D01*
X94590226Y-116544063D01*
X94446063Y-116688226D01*
X94332795Y-116857744D01*
X94254774Y-117046102D01*
X94215000Y-117246061D01*
X94215000Y-117449939D01*
X94254774Y-117649898D01*
X94332795Y-117838256D01*
X94446063Y-118007774D01*
X94590226Y-118151937D01*
X94759744Y-118265205D01*
X94948102Y-118343226D01*
X95148061Y-118383000D01*
X95351939Y-118383000D01*
X95551898Y-118343226D01*
X95740256Y-118265205D01*
X95909774Y-118151937D01*
X96053937Y-118007774D01*
X96167205Y-117838256D01*
X96245226Y-117649898D01*
X96285000Y-117449939D01*
X96285000Y-117259979D01*
X96286774Y-117268898D01*
X96364795Y-117457256D01*
X96478063Y-117626774D01*
X96622226Y-117770937D01*
X96791744Y-117884205D01*
X96980102Y-117962226D01*
X97180061Y-118002000D01*
X97383939Y-118002000D01*
X97583898Y-117962226D01*
X97772256Y-117884205D01*
X97941774Y-117770937D01*
X97998059Y-117714652D01*
X98061744Y-117757205D01*
X98250102Y-117835226D01*
X98450061Y-117875000D01*
X98653939Y-117875000D01*
X98853898Y-117835226D01*
X99042256Y-117757205D01*
X99211774Y-117643937D01*
X99355937Y-117499774D01*
X99469205Y-117330256D01*
X99547226Y-117141898D01*
X99549000Y-117132979D01*
X99549000Y-117195939D01*
X99588774Y-117395898D01*
X99666795Y-117584256D01*
X99780063Y-117753774D01*
X99924226Y-117897937D01*
X100093744Y-118011205D01*
X100282102Y-118089226D01*
X100482061Y-118129000D01*
X100685939Y-118129000D01*
X100885898Y-118089226D01*
X101074256Y-118011205D01*
X101243774Y-117897937D01*
X101387937Y-117753774D01*
X101501205Y-117584256D01*
X101579226Y-117395898D01*
X101619000Y-117195939D01*
X101619000Y-116992061D01*
X101579226Y-116792102D01*
X101501205Y-116603744D01*
X101387937Y-116434226D01*
X101243774Y-116290063D01*
X101174836Y-116244000D01*
X103921928Y-116244000D01*
X103925000Y-116808250D01*
X104083750Y-116967000D01*
X105283000Y-116967000D01*
X105283000Y-115767750D01*
X105537000Y-115767750D01*
X105537000Y-116967000D01*
X106736250Y-116967000D01*
X106895000Y-116808250D01*
X106898072Y-116244000D01*
X106885812Y-116119518D01*
X106849502Y-115999820D01*
X106790537Y-115889506D01*
X106711185Y-115792815D01*
X106614494Y-115713463D01*
X106504180Y-115654498D01*
X106384482Y-115618188D01*
X106260000Y-115605928D01*
X105695750Y-115609000D01*
X105537000Y-115767750D01*
X105283000Y-115767750D01*
X105124250Y-115609000D01*
X104560000Y-115605928D01*
X104435518Y-115618188D01*
X104315820Y-115654498D01*
X104205506Y-115713463D01*
X104108815Y-115792815D01*
X104029463Y-115889506D01*
X103970498Y-115999820D01*
X103934188Y-116119518D01*
X103921928Y-116244000D01*
X101174836Y-116244000D01*
X101074256Y-116176795D01*
X100885898Y-116098774D01*
X100781459Y-116078000D01*
X100885898Y-116057226D01*
X101074256Y-115979205D01*
X101243774Y-115865937D01*
X101387937Y-115721774D01*
X101501205Y-115552256D01*
X101579226Y-115363898D01*
X101619000Y-115163939D01*
X101619000Y-114960061D01*
X101579226Y-114760102D01*
X101534504Y-114652134D01*
X107340400Y-114630670D01*
X107340400Y-132410669D01*
%TD*%
M02*
