M48
; DRILL file {KiCad (5.1.6)-1} date 11/12/20 12:57:54
; FORMAT={-:-/ absolute / inch / decimal}
; #@! TF.CreationDate,2020-11-12T12:57:54-08:00
; #@! TF.GenerationSoftware,Kicad,Pcbnew,(5.1.6)-1
; #@! TF.FileFunction,Plated,1,4,PTH
FMAT,2
INCH
T1C0.0157
T2C0.0394
%
G90
G05
T1
X2.64Y-4.64
X2.68Y-4.53
X2.72Y-4.5
X2.8Y-4.62
X2.95Y-4.83
X2.9525Y-4.91
X3.0Y-4.6575
X3.045Y-4.793
X3.05Y-4.542
X3.067Y-4.638
X3.126Y-4.728
X3.13Y-4.978
X3.13Y-5.045
X3.189Y-4.987
X3.26Y-4.91
X3.26Y-5.0462
X3.29Y-5.121
X3.35Y-4.9
X3.35Y-5.05
X3.36Y-4.79
X3.377Y-5.007
X3.41Y-4.62
X3.46Y-4.76
X3.47Y-4.88
X3.57Y-4.62
X3.75Y-4.62
X3.7627Y-4.8577
X3.7653Y-4.9478
X3.8198Y-4.7198
X3.83Y-4.605
X3.85Y-4.95
X3.88Y-4.6
X3.885Y-5.185
X3.8886Y-4.9576
X3.9275Y-4.95
X3.96Y-4.53
X3.96Y-4.61
X3.96Y-5.185
X4.06Y-4.62
X4.065Y-5.065
X4.065Y-5.135
X4.07Y-5.0
T2
X4.15Y-4.61
X4.15Y-4.71
X4.15Y-4.81
X4.15Y-4.91
X4.15Y-5.01
X4.15Y-5.11
X3.15Y-4.65
T0
M30
