%TF.GenerationSoftware,KiCad,Pcbnew,(5.1.6)-1*%
%TF.CreationDate,2020-11-12T12:57:51-08:00*%
%TF.ProjectId,frontendfullv2,66726f6e-7465-46e6-9466-756c6c76322e,rev?*%
%TF.SameCoordinates,Original*%
%TF.FileFunction,Soldermask,Bot*%
%TF.FilePolarity,Negative*%
%FSLAX46Y46*%
G04 Gerber Fmt 4.6, Leading zero omitted, Abs format (unit mm)*
G04 Created by KiCad (PCBNEW (5.1.6)-1) date 2020-11-12 12:57:51*
%MOMM*%
%LPD*%
G01*
G04 APERTURE LIST*
%ADD10C,0.100000*%
%ADD11R,1.660000X0.750000*%
%ADD12R,1.800000X1.800000*%
%ADD13R,0.700000X2.300000*%
%ADD14C,2.300000*%
%ADD15O,1.800000X1.800000*%
%ADD16R,2.100000X3.100000*%
%ADD17R,2.640000X3.610000*%
G04 APERTURE END LIST*
D10*
G36*
X74295000Y-130683000D02*
G01*
X66040000Y-130683000D01*
X66040000Y-119380000D01*
X74295000Y-119380000D01*
X74295000Y-130683000D01*
G37*
X74295000Y-130683000D02*
X66040000Y-130683000D01*
X66040000Y-119380000D01*
X74295000Y-119380000D01*
X74295000Y-130683000D01*
%TO.C,C3*%
G36*
G01*
X70336938Y-129025600D02*
X71293462Y-129025600D01*
G75*
G02*
X71565200Y-129297338I0J-271738D01*
G01*
X71565200Y-130003862D01*
G75*
G02*
X71293462Y-130275600I-271738J0D01*
G01*
X70336938Y-130275600D01*
G75*
G02*
X70065200Y-130003862I0J271738D01*
G01*
X70065200Y-129297338D01*
G75*
G02*
X70336938Y-129025600I271738J0D01*
G01*
G37*
G36*
G01*
X70336938Y-126975600D02*
X71293462Y-126975600D01*
G75*
G02*
X71565200Y-127247338I0J-271738D01*
G01*
X71565200Y-127953862D01*
G75*
G02*
X71293462Y-128225600I-271738J0D01*
G01*
X70336938Y-128225600D01*
G75*
G02*
X70065200Y-127953862I0J271738D01*
G01*
X70065200Y-127247338D01*
G75*
G02*
X70336938Y-126975600I271738J0D01*
G01*
G37*
%TD*%
%TO.C,C13*%
G36*
G01*
X75073200Y-114545500D02*
X75073200Y-115070500D01*
G75*
G02*
X74810700Y-115333000I-262500J0D01*
G01*
X74185700Y-115333000D01*
G75*
G02*
X73923200Y-115070500I0J262500D01*
G01*
X73923200Y-114545500D01*
G75*
G02*
X74185700Y-114283000I262500J0D01*
G01*
X74810700Y-114283000D01*
G75*
G02*
X75073200Y-114545500I0J-262500D01*
G01*
G37*
G36*
G01*
X76823200Y-114545500D02*
X76823200Y-115070500D01*
G75*
G02*
X76560700Y-115333000I-262500J0D01*
G01*
X75935700Y-115333000D01*
G75*
G02*
X75673200Y-115070500I0J262500D01*
G01*
X75673200Y-114545500D01*
G75*
G02*
X75935700Y-114283000I262500J0D01*
G01*
X76560700Y-114283000D01*
G75*
G02*
X76823200Y-114545500I0J-262500D01*
G01*
G37*
%TD*%
%TO.C,C12*%
G36*
G01*
X71062600Y-114469300D02*
X71062600Y-114994300D01*
G75*
G02*
X70800100Y-115256800I-262500J0D01*
G01*
X70175100Y-115256800D01*
G75*
G02*
X69912600Y-114994300I0J262500D01*
G01*
X69912600Y-114469300D01*
G75*
G02*
X70175100Y-114206800I262500J0D01*
G01*
X70800100Y-114206800D01*
G75*
G02*
X71062600Y-114469300I0J-262500D01*
G01*
G37*
G36*
G01*
X72812600Y-114469300D02*
X72812600Y-114994300D01*
G75*
G02*
X72550100Y-115256800I-262500J0D01*
G01*
X71925100Y-115256800D01*
G75*
G02*
X71662600Y-114994300I0J262500D01*
G01*
X71662600Y-114469300D01*
G75*
G02*
X71925100Y-114206800I262500J0D01*
G01*
X72550100Y-114206800D01*
G75*
G02*
X72812600Y-114469300I0J-262500D01*
G01*
G37*
%TD*%
D11*
%TO.C,U7*%
X74959200Y-118323400D03*
X74959200Y-116423400D03*
X72259200Y-116423400D03*
X72259200Y-117373400D03*
X72259200Y-118323400D03*
%TD*%
D12*
%TO.C,J2*%
X80010000Y-118110000D03*
%TD*%
%TO.C,R1*%
G36*
G01*
X68713000Y-117771300D02*
X68713000Y-118296300D01*
G75*
G02*
X68450500Y-118558800I-262500J0D01*
G01*
X67900500Y-118558800D01*
G75*
G02*
X67638000Y-118296300I0J262500D01*
G01*
X67638000Y-117771300D01*
G75*
G02*
X67900500Y-117508800I262500J0D01*
G01*
X68450500Y-117508800D01*
G75*
G02*
X68713000Y-117771300I0J-262500D01*
G01*
G37*
G36*
G01*
X70538000Y-117771300D02*
X70538000Y-118296300D01*
G75*
G02*
X70275500Y-118558800I-262500J0D01*
G01*
X69725500Y-118558800D01*
G75*
G02*
X69463000Y-118296300I0J262500D01*
G01*
X69463000Y-117771300D01*
G75*
G02*
X69725500Y-117508800I262500J0D01*
G01*
X70275500Y-117508800D01*
G75*
G02*
X70538000Y-117771300I0J-262500D01*
G01*
G37*
%TD*%
%TO.C,R2*%
G36*
G01*
X69463000Y-116721500D02*
X69463000Y-116196500D01*
G75*
G02*
X69725500Y-115934000I262500J0D01*
G01*
X70275500Y-115934000D01*
G75*
G02*
X70538000Y-116196500I0J-262500D01*
G01*
X70538000Y-116721500D01*
G75*
G02*
X70275500Y-116984000I-262500J0D01*
G01*
X69725500Y-116984000D01*
G75*
G02*
X69463000Y-116721500I0J262500D01*
G01*
G37*
G36*
G01*
X67638000Y-116721500D02*
X67638000Y-116196500D01*
G75*
G02*
X67900500Y-115934000I262500J0D01*
G01*
X68450500Y-115934000D01*
G75*
G02*
X68713000Y-116196500I0J-262500D01*
G01*
X68713000Y-116721500D01*
G75*
G02*
X68450500Y-116984000I-262500J0D01*
G01*
X67900500Y-116984000D01*
G75*
G02*
X67638000Y-116721500I0J262500D01*
G01*
G37*
%TD*%
%TO.C,R3*%
G36*
G01*
X69563611Y-128324500D02*
X68612389Y-128324500D01*
G75*
G02*
X68338000Y-128050111I0J274389D01*
G01*
X68338000Y-127473889D01*
G75*
G02*
X68612389Y-127199500I274389J0D01*
G01*
X69563611Y-127199500D01*
G75*
G02*
X69838000Y-127473889I0J-274389D01*
G01*
X69838000Y-128050111D01*
G75*
G02*
X69563611Y-128324500I-274389J0D01*
G01*
G37*
G36*
G01*
X69563611Y-130149500D02*
X68612389Y-130149500D01*
G75*
G02*
X68338000Y-129875111I0J274389D01*
G01*
X68338000Y-129298889D01*
G75*
G02*
X68612389Y-129024500I274389J0D01*
G01*
X69563611Y-129024500D01*
G75*
G02*
X69838000Y-129298889I0J-274389D01*
G01*
X69838000Y-129875111D01*
G75*
G02*
X69563611Y-130149500I-274389J0D01*
G01*
G37*
%TD*%
D13*
%TO.C,U1*%
X76073000Y-120998000D03*
X76073000Y-126398000D03*
X74803000Y-120998000D03*
X74803000Y-126398000D03*
X73533000Y-120998000D03*
X73533000Y-126398000D03*
X72263000Y-120998000D03*
X72263000Y-126398000D03*
%TD*%
D14*
%TO.C,H4*%
X112014000Y-114808000D03*
%TD*%
%TO.C,H3*%
X79375000Y-130810000D03*
%TD*%
%TO.C,H2*%
X111760000Y-130810000D03*
%TD*%
%TO.C,H1*%
X83312000Y-114935000D03*
%TD*%
D15*
%TO.C,J3*%
X105410000Y-129794000D03*
X105410000Y-127254000D03*
X105410000Y-124714000D03*
X105410000Y-122174000D03*
X105410000Y-119634000D03*
D12*
X105410000Y-117094000D03*
%TD*%
D16*
%TO.C,J1*%
X69088000Y-125476000D03*
%TD*%
%TO.C,C2*%
G36*
G01*
X78020300Y-115846100D02*
X78545300Y-115846100D01*
G75*
G02*
X78807800Y-116108600I0J-262500D01*
G01*
X78807800Y-116758600D01*
G75*
G02*
X78545300Y-117021100I-262500J0D01*
G01*
X78020300Y-117021100D01*
G75*
G02*
X77757800Y-116758600I0J262500D01*
G01*
X77757800Y-116108600D01*
G75*
G02*
X78020300Y-115846100I262500J0D01*
G01*
G37*
G36*
G01*
X78020300Y-114121100D02*
X78545300Y-114121100D01*
G75*
G02*
X78807800Y-114383600I0J-262500D01*
G01*
X78807800Y-115033600D01*
G75*
G02*
X78545300Y-115296100I-262500J0D01*
G01*
X78020300Y-115296100D01*
G75*
G02*
X77757800Y-115033600I0J262500D01*
G01*
X77757800Y-114383600D01*
G75*
G02*
X78020300Y-114121100I262500J0D01*
G01*
G37*
%TD*%
D17*
%TO.C,BT1*%
X79935000Y-123825000D03*
X109295000Y-123825000D03*
%TD*%
M02*
