%TF.GenerationSoftware,KiCad,Pcbnew,(5.1.6)-1*%
%TF.CreationDate,2020-11-12T12:57:51-08:00*%
%TF.ProjectId,frontendfullv2,66726f6e-7465-46e6-9466-756c6c76322e,rev?*%
%TF.SameCoordinates,Original*%
%TF.FileFunction,Legend,Bot*%
%TF.FilePolarity,Positive*%
%FSLAX46Y46*%
G04 Gerber Fmt 4.6, Leading zero omitted, Abs format (unit mm)*
G04 Created by KiCad (PCBNEW (5.1.6)-1) date 2020-11-12 12:57:51*
%MOMM*%
%LPD*%
G01*
G04 APERTURE LIST*
%ADD10C,0.150000*%
%ADD11C,0.120000*%
G04 APERTURE END LIST*
D10*
X110235904Y-127976380D02*
X109616857Y-127976380D01*
X109950190Y-128357333D01*
X109807333Y-128357333D01*
X109712095Y-128404952D01*
X109664476Y-128452571D01*
X109616857Y-128547809D01*
X109616857Y-128785904D01*
X109664476Y-128881142D01*
X109712095Y-128928761D01*
X109807333Y-128976380D01*
X110093047Y-128976380D01*
X110188285Y-128928761D01*
X110235904Y-128881142D01*
X109331142Y-127976380D02*
X108997809Y-128976380D01*
X108664476Y-127976380D01*
X83819904Y-123198000D02*
X83915142Y-123150380D01*
X84058000Y-123150380D01*
X84200857Y-123198000D01*
X84296095Y-123293238D01*
X84343714Y-123388476D01*
X84391333Y-123578952D01*
X84391333Y-123721809D01*
X84343714Y-123912285D01*
X84296095Y-124007523D01*
X84200857Y-124102761D01*
X84058000Y-124150380D01*
X83962761Y-124150380D01*
X83819904Y-124102761D01*
X83772285Y-124055142D01*
X83772285Y-123721809D01*
X83962761Y-123721809D01*
X83343714Y-124150380D02*
X83343714Y-123150380D01*
X82772285Y-124150380D01*
X82772285Y-123150380D01*
X82296095Y-124150380D02*
X82296095Y-123150380D01*
X82058000Y-123150380D01*
X81915142Y-123198000D01*
X81819904Y-123293238D01*
X81772285Y-123388476D01*
X81724666Y-123578952D01*
X81724666Y-123721809D01*
X81772285Y-123912285D01*
X81819904Y-124007523D01*
X81915142Y-124102761D01*
X82058000Y-124150380D01*
X82296095Y-124150380D01*
X83565904Y-117610000D02*
X83661142Y-117562380D01*
X83804000Y-117562380D01*
X83946857Y-117610000D01*
X84042095Y-117705238D01*
X84089714Y-117800476D01*
X84137333Y-117990952D01*
X84137333Y-118133809D01*
X84089714Y-118324285D01*
X84042095Y-118419523D01*
X83946857Y-118514761D01*
X83804000Y-118562380D01*
X83708761Y-118562380D01*
X83565904Y-118514761D01*
X83518285Y-118467142D01*
X83518285Y-118133809D01*
X83708761Y-118133809D01*
X83089714Y-118562380D02*
X83089714Y-117562380D01*
X82518285Y-118562380D01*
X82518285Y-117562380D01*
X82042095Y-118562380D02*
X82042095Y-117562380D01*
X81804000Y-117562380D01*
X81661142Y-117610000D01*
X81565904Y-117705238D01*
X81518285Y-117800476D01*
X81470666Y-117990952D01*
X81470666Y-118133809D01*
X81518285Y-118324285D01*
X81565904Y-118419523D01*
X81661142Y-118514761D01*
X81804000Y-118562380D01*
X82042095Y-118562380D01*
D11*
%TO.C,C13*%
X75544467Y-115318000D02*
X75201933Y-115318000D01*
X75544467Y-114298000D02*
X75201933Y-114298000D01*
%TO.C,C12*%
X71533867Y-115241800D02*
X71191333Y-115241800D01*
X71533867Y-114221800D02*
X71191333Y-114221800D01*
%TO.C,U7*%
X74509200Y-118983400D02*
X72059200Y-118983400D01*
X72709200Y-115763400D02*
X74509200Y-115763400D01*
%TO.C,J2*%
X78680000Y-119440000D02*
X80010000Y-119440000D01*
X78680000Y-118110000D02*
X78680000Y-119440000D01*
X78680000Y-116840000D02*
X81340000Y-116840000D01*
X81340000Y-116840000D02*
X81340000Y-116780000D01*
X78680000Y-116840000D02*
X78680000Y-116780000D01*
X78680000Y-116780000D02*
X81340000Y-116780000D01*
%TO.C,C2*%
X77772800Y-115424833D02*
X77772800Y-115717367D01*
X78792800Y-115424833D02*
X78792800Y-115717367D01*
%TO.C,BT1*%
X108925000Y-125725000D02*
X108925000Y-127435000D01*
X105307000Y-127435000D02*
X108925000Y-127435000D01*
X98475000Y-131935000D02*
X102462300Y-131935000D01*
X96275000Y-129735000D02*
X98475000Y-131935000D01*
X92955000Y-129735000D02*
X96275000Y-129735000D01*
X92955000Y-129735000D02*
X90755000Y-131935000D01*
X86767700Y-131935000D02*
X90755000Y-131935000D01*
X80305000Y-125725000D02*
X80305000Y-127435000D01*
X80305000Y-127435000D02*
X83923000Y-127435000D01*
X83923000Y-120215000D02*
X80305000Y-120215000D01*
X80305000Y-121925000D02*
X80305000Y-120215000D01*
X102462300Y-115715000D02*
X86767700Y-115715000D01*
X108925000Y-121925000D02*
X108925000Y-120215000D01*
X108925000Y-120215000D02*
X105307000Y-120215000D01*
X102460370Y-115713211D02*
G75*
G02*
X105307000Y-120215000I-7845370J-8111789D01*
G01*
X86769630Y-131936789D02*
G75*
G02*
X83923000Y-127435000I7845370J8111789D01*
G01*
X86769630Y-115713211D02*
G75*
G03*
X83923000Y-120215000I7845370J-8111789D01*
G01*
X102460370Y-131936789D02*
G75*
G03*
X105307000Y-127435000I-7845370J8111789D01*
G01*
%TO.C,C3*%
D10*
X78322466Y-132564142D02*
X78370085Y-132611761D01*
X78512942Y-132659380D01*
X78608180Y-132659380D01*
X78751038Y-132611761D01*
X78846276Y-132516523D01*
X78893895Y-132421285D01*
X78941514Y-132230809D01*
X78941514Y-132087952D01*
X78893895Y-131897476D01*
X78846276Y-131802238D01*
X78751038Y-131707000D01*
X78608180Y-131659380D01*
X78512942Y-131659380D01*
X78370085Y-131707000D01*
X78322466Y-131754619D01*
X77989133Y-131659380D02*
X77370085Y-131659380D01*
X77703419Y-132040333D01*
X77560561Y-132040333D01*
X77465323Y-132087952D01*
X77417704Y-132135571D01*
X77370085Y-132230809D01*
X77370085Y-132468904D01*
X77417704Y-132564142D01*
X77465323Y-132611761D01*
X77560561Y-132659380D01*
X77846276Y-132659380D01*
X77941514Y-132611761D01*
X77989133Y-132564142D01*
%TO.C,C13*%
X78290657Y-113641142D02*
X78338276Y-113688761D01*
X78481133Y-113736380D01*
X78576371Y-113736380D01*
X78719228Y-113688761D01*
X78814466Y-113593523D01*
X78862085Y-113498285D01*
X78909704Y-113307809D01*
X78909704Y-113164952D01*
X78862085Y-112974476D01*
X78814466Y-112879238D01*
X78719228Y-112784000D01*
X78576371Y-112736380D01*
X78481133Y-112736380D01*
X78338276Y-112784000D01*
X78290657Y-112831619D01*
X77338276Y-113736380D02*
X77909704Y-113736380D01*
X77623990Y-113736380D02*
X77623990Y-112736380D01*
X77719228Y-112879238D01*
X77814466Y-112974476D01*
X77909704Y-113022095D01*
X77004942Y-112736380D02*
X76385895Y-112736380D01*
X76719228Y-113117333D01*
X76576371Y-113117333D01*
X76481133Y-113164952D01*
X76433514Y-113212571D01*
X76385895Y-113307809D01*
X76385895Y-113545904D01*
X76433514Y-113641142D01*
X76481133Y-113688761D01*
X76576371Y-113736380D01*
X76862085Y-113736380D01*
X76957323Y-113688761D01*
X77004942Y-113641142D01*
%TO.C,C12*%
X72118457Y-113615742D02*
X72166076Y-113663361D01*
X72308933Y-113710980D01*
X72404171Y-113710980D01*
X72547028Y-113663361D01*
X72642266Y-113568123D01*
X72689885Y-113472885D01*
X72737504Y-113282409D01*
X72737504Y-113139552D01*
X72689885Y-112949076D01*
X72642266Y-112853838D01*
X72547028Y-112758600D01*
X72404171Y-112710980D01*
X72308933Y-112710980D01*
X72166076Y-112758600D01*
X72118457Y-112806219D01*
X71166076Y-113710980D02*
X71737504Y-113710980D01*
X71451790Y-113710980D02*
X71451790Y-112710980D01*
X71547028Y-112853838D01*
X71642266Y-112949076D01*
X71737504Y-112996695D01*
X70785123Y-112806219D02*
X70737504Y-112758600D01*
X70642266Y-112710980D01*
X70404171Y-112710980D01*
X70308933Y-112758600D01*
X70261314Y-112806219D01*
X70213695Y-112901457D01*
X70213695Y-112996695D01*
X70261314Y-113139552D01*
X70832742Y-113710980D01*
X70213695Y-113710980D01*
%TO.C,U7*%
X75209304Y-112787180D02*
X75209304Y-113596704D01*
X75161685Y-113691942D01*
X75114066Y-113739561D01*
X75018828Y-113787180D01*
X74828352Y-113787180D01*
X74733114Y-113739561D01*
X74685495Y-113691942D01*
X74637876Y-113596704D01*
X74637876Y-112787180D01*
X74256923Y-112787180D02*
X73590257Y-112787180D01*
X74018828Y-113787180D01*
%TO.C,J2*%
X80343333Y-115022380D02*
X80343333Y-115736666D01*
X80390952Y-115879523D01*
X80486190Y-115974761D01*
X80629047Y-116022380D01*
X80724285Y-116022380D01*
X79914761Y-115117619D02*
X79867142Y-115070000D01*
X79771904Y-115022380D01*
X79533809Y-115022380D01*
X79438571Y-115070000D01*
X79390952Y-115117619D01*
X79343333Y-115212857D01*
X79343333Y-115308095D01*
X79390952Y-115450952D01*
X79962380Y-116022380D01*
X79343333Y-116022380D01*
%TO.C,R1*%
X66562266Y-118917980D02*
X66895600Y-118441790D01*
X67133695Y-118917980D02*
X67133695Y-117917980D01*
X66752742Y-117917980D01*
X66657504Y-117965600D01*
X66609885Y-118013219D01*
X66562266Y-118108457D01*
X66562266Y-118251314D01*
X66609885Y-118346552D01*
X66657504Y-118394171D01*
X66752742Y-118441790D01*
X67133695Y-118441790D01*
X65609885Y-118917980D02*
X66181314Y-118917980D01*
X65895600Y-118917980D02*
X65895600Y-117917980D01*
X65990838Y-118060838D01*
X66086076Y-118156076D01*
X66181314Y-118203695D01*
%TO.C,R2*%
X66613066Y-116860580D02*
X66946400Y-116384390D01*
X67184495Y-116860580D02*
X67184495Y-115860580D01*
X66803542Y-115860580D01*
X66708304Y-115908200D01*
X66660685Y-115955819D01*
X66613066Y-116051057D01*
X66613066Y-116193914D01*
X66660685Y-116289152D01*
X66708304Y-116336771D01*
X66803542Y-116384390D01*
X67184495Y-116384390D01*
X66232114Y-115955819D02*
X66184495Y-115908200D01*
X66089257Y-115860580D01*
X65851161Y-115860580D01*
X65755923Y-115908200D01*
X65708304Y-115955819D01*
X65660685Y-116051057D01*
X65660685Y-116146295D01*
X65708304Y-116289152D01*
X66279733Y-116860580D01*
X65660685Y-116860580D01*
%TO.C,R3*%
X76265066Y-132633980D02*
X76598400Y-132157790D01*
X76836495Y-132633980D02*
X76836495Y-131633980D01*
X76455542Y-131633980D01*
X76360304Y-131681600D01*
X76312685Y-131729219D01*
X76265066Y-131824457D01*
X76265066Y-131967314D01*
X76312685Y-132062552D01*
X76360304Y-132110171D01*
X76455542Y-132157790D01*
X76836495Y-132157790D01*
X75931733Y-131633980D02*
X75312685Y-131633980D01*
X75646019Y-132014933D01*
X75503161Y-132014933D01*
X75407923Y-132062552D01*
X75360304Y-132110171D01*
X75312685Y-132205409D01*
X75312685Y-132443504D01*
X75360304Y-132538742D01*
X75407923Y-132586361D01*
X75503161Y-132633980D01*
X75788876Y-132633980D01*
X75884114Y-132586361D01*
X75931733Y-132538742D01*
%TO.C,J1*%
X76380933Y-130033780D02*
X76380933Y-130748066D01*
X76428552Y-130890923D01*
X76523790Y-130986161D01*
X76666647Y-131033780D01*
X76761885Y-131033780D01*
X75380933Y-131033780D02*
X75952361Y-131033780D01*
X75666647Y-131033780D02*
X75666647Y-130033780D01*
X75761885Y-130176638D01*
X75857123Y-130271876D01*
X75952361Y-130319495D01*
%TO.C,C2*%
X80481466Y-113615742D02*
X80529085Y-113663361D01*
X80671942Y-113710980D01*
X80767180Y-113710980D01*
X80910038Y-113663361D01*
X81005276Y-113568123D01*
X81052895Y-113472885D01*
X81100514Y-113282409D01*
X81100514Y-113139552D01*
X81052895Y-112949076D01*
X81005276Y-112853838D01*
X80910038Y-112758600D01*
X80767180Y-112710980D01*
X80671942Y-112710980D01*
X80529085Y-112758600D01*
X80481466Y-112806219D01*
X80100514Y-112806219D02*
X80052895Y-112758600D01*
X79957657Y-112710980D01*
X79719561Y-112710980D01*
X79624323Y-112758600D01*
X79576704Y-112806219D01*
X79529085Y-112901457D01*
X79529085Y-112996695D01*
X79576704Y-113139552D01*
X80148133Y-113710980D01*
X79529085Y-113710980D01*
%TO.C,BT1*%
X95400714Y-131373571D02*
X95257857Y-131421190D01*
X95210238Y-131468809D01*
X95162619Y-131564047D01*
X95162619Y-131706904D01*
X95210238Y-131802142D01*
X95257857Y-131849761D01*
X95353095Y-131897380D01*
X95734047Y-131897380D01*
X95734047Y-130897380D01*
X95400714Y-130897380D01*
X95305476Y-130945000D01*
X95257857Y-130992619D01*
X95210238Y-131087857D01*
X95210238Y-131183095D01*
X95257857Y-131278333D01*
X95305476Y-131325952D01*
X95400714Y-131373571D01*
X95734047Y-131373571D01*
X94876904Y-130897380D02*
X94305476Y-130897380D01*
X94591190Y-131897380D02*
X94591190Y-130897380D01*
X93448333Y-131897380D02*
X94019761Y-131897380D01*
X93734047Y-131897380D02*
X93734047Y-130897380D01*
X93829285Y-131040238D01*
X93924523Y-131135476D01*
X94019761Y-131183095D01*
%TD*%
M02*
