%TF.GenerationSoftware,KiCad,Pcbnew,(5.1.6)-1*%
%TF.CreationDate,2020-11-12T12:57:51-08:00*%
%TF.ProjectId,frontendfullv2,66726f6e-7465-46e6-9466-756c6c76322e,rev?*%
%TF.SameCoordinates,Original*%
%TF.FileFunction,Copper,L2,Inr*%
%TF.FilePolarity,Positive*%
%FSLAX46Y46*%
G04 Gerber Fmt 4.6, Leading zero omitted, Abs format (unit mm)*
G04 Created by KiCad (PCBNEW (5.1.6)-1) date 2020-11-12 12:57:51*
%MOMM*%
%LPD*%
G01*
G04 APERTURE LIST*
%TA.AperFunction,ViaPad*%
%ADD10R,1.700000X1.700000*%
%TD*%
%TA.AperFunction,ViaPad*%
%ADD11O,1.700000X1.700000*%
%TD*%
%TA.AperFunction,ViaPad*%
%ADD12C,0.800000*%
%TD*%
%TA.AperFunction,Conductor*%
%ADD13C,0.254000*%
%TD*%
G04 APERTURE END LIST*
D10*
%TO.N,GNDA*%
%TO.C,J2*%
X80010000Y-118110000D03*
%TD*%
D11*
%TO.N,GND*%
%TO.C,J3*%
X105410000Y-129794000D03*
%TO.N,Net-(J3-Pad5)*%
X105410000Y-127254000D03*
%TO.N,/DOUT_BUF*%
X105410000Y-124714000D03*
%TO.N,Net-(J3-Pad3)*%
X105410000Y-122174000D03*
%TO.N,Net-(J3-Pad2)*%
X105410000Y-119634000D03*
D10*
%TO.N,+10V*%
X105410000Y-117094000D03*
%TD*%
D12*
%TO.N,GND*%
X95250000Y-117348000D03*
X98552000Y-116840000D03*
X100584000Y-117094000D03*
X100584000Y-115062000D03*
X103378000Y-127000000D03*
X103251000Y-130429000D03*
X100584000Y-131699000D03*
X98679000Y-131699000D03*
X99758500Y-125730000D03*
X97790000Y-125730000D03*
%TO.N,+3V0*%
X67056000Y-117856000D03*
X76200000Y-118300500D03*
X74993500Y-124714000D03*
X79502000Y-128143000D03*
X77470000Y-115366800D03*
%TO.N,Net-(C3-Pad2)*%
X77343000Y-121742200D03*
%TO.N,Net-(C5-Pad1)*%
X85090000Y-128270000D03*
X82804000Y-128172998D03*
X82804000Y-124714000D03*
X87884000Y-120904000D03*
%TO.N,+10V*%
X103124000Y-117348000D03*
X103251000Y-128651000D03*
%TO.N,Net-(J3-Pad3)*%
X97282000Y-116967000D03*
%TO.N,Net-(U4-Pad8)*%
X95572153Y-123385153D03*
X97023347Y-119883347D03*
%TO.N,Net-(U4-Pad6)*%
X95638762Y-125675126D03*
X98771003Y-125924000D03*
%TO.N,GNDA*%
X68072000Y-115062000D03*
X69088000Y-114300000D03*
X71120000Y-117348000D03*
X74930000Y-122682000D03*
X79400400Y-120091200D03*
X79502000Y-126441200D03*
X85775800Y-127177800D03*
X88138000Y-123952000D03*
X85090000Y-124460000D03*
X85344000Y-121666000D03*
X90678000Y-117348000D03*
X77901800Y-117805200D03*
X83566000Y-130073400D03*
X81000600Y-126669800D03*
X86614000Y-117348000D03*
%TD*%
D13*
%TO.N,GNDA*%
G36*
X81774463Y-114113169D02*
G01*
X81643675Y-114428919D01*
X81577000Y-114764117D01*
X81577000Y-115105883D01*
X81643675Y-115441081D01*
X81774463Y-115756831D01*
X81964337Y-116040998D01*
X82206002Y-116282663D01*
X82490169Y-116472537D01*
X82805919Y-116603325D01*
X83141117Y-116670000D01*
X83482883Y-116670000D01*
X83818081Y-116603325D01*
X84133831Y-116472537D01*
X84417998Y-116282663D01*
X84659663Y-116040998D01*
X84849537Y-115756831D01*
X84980325Y-115441081D01*
X85047000Y-115105883D01*
X85047000Y-114764117D01*
X84980325Y-114428919D01*
X84849537Y-114113169D01*
X84719798Y-113919000D01*
X92075000Y-113919000D01*
X92075000Y-132461000D01*
X79922907Y-132461000D01*
X80196831Y-132347537D01*
X80480998Y-132157663D01*
X80722663Y-131915998D01*
X80912537Y-131631831D01*
X81043325Y-131316081D01*
X81110000Y-130980883D01*
X81110000Y-130639117D01*
X81043325Y-130303919D01*
X80912537Y-129988169D01*
X80722663Y-129704002D01*
X80480998Y-129462337D01*
X80196831Y-129272463D01*
X79881081Y-129141675D01*
X79823313Y-129130184D01*
X79992256Y-129060205D01*
X80161774Y-128946937D01*
X80305937Y-128802774D01*
X80419205Y-128633256D01*
X80497226Y-128444898D01*
X80537000Y-128244939D01*
X80537000Y-128071059D01*
X81769000Y-128071059D01*
X81769000Y-128274937D01*
X81808774Y-128474896D01*
X81886795Y-128663254D01*
X82000063Y-128832772D01*
X82144226Y-128976935D01*
X82313744Y-129090203D01*
X82502102Y-129168224D01*
X82702061Y-129207998D01*
X82905939Y-129207998D01*
X83105898Y-129168224D01*
X83294256Y-129090203D01*
X83463774Y-128976935D01*
X83607937Y-128832772D01*
X83721205Y-128663254D01*
X83799226Y-128474896D01*
X83839000Y-128274937D01*
X83839000Y-128168061D01*
X84055000Y-128168061D01*
X84055000Y-128371939D01*
X84094774Y-128571898D01*
X84172795Y-128760256D01*
X84286063Y-128929774D01*
X84430226Y-129073937D01*
X84599744Y-129187205D01*
X84788102Y-129265226D01*
X84988061Y-129305000D01*
X85191939Y-129305000D01*
X85391898Y-129265226D01*
X85580256Y-129187205D01*
X85749774Y-129073937D01*
X85893937Y-128929774D01*
X86007205Y-128760256D01*
X86085226Y-128571898D01*
X86125000Y-128371939D01*
X86125000Y-128168061D01*
X86085226Y-127968102D01*
X86007205Y-127779744D01*
X85893937Y-127610226D01*
X85749774Y-127466063D01*
X85580256Y-127352795D01*
X85391898Y-127274774D01*
X85191939Y-127235000D01*
X84988061Y-127235000D01*
X84788102Y-127274774D01*
X84599744Y-127352795D01*
X84430226Y-127466063D01*
X84286063Y-127610226D01*
X84172795Y-127779744D01*
X84094774Y-127968102D01*
X84055000Y-128168061D01*
X83839000Y-128168061D01*
X83839000Y-128071059D01*
X83799226Y-127871100D01*
X83721205Y-127682742D01*
X83607937Y-127513224D01*
X83463774Y-127369061D01*
X83294256Y-127255793D01*
X83105898Y-127177772D01*
X82905939Y-127137998D01*
X82702061Y-127137998D01*
X82502102Y-127177772D01*
X82313744Y-127255793D01*
X82144226Y-127369061D01*
X82000063Y-127513224D01*
X81886795Y-127682742D01*
X81808774Y-127871100D01*
X81769000Y-128071059D01*
X80537000Y-128071059D01*
X80537000Y-128041061D01*
X80497226Y-127841102D01*
X80419205Y-127652744D01*
X80305937Y-127483226D01*
X80161774Y-127339063D01*
X79992256Y-127225795D01*
X79803898Y-127147774D01*
X79603939Y-127108000D01*
X79400061Y-127108000D01*
X79200102Y-127147774D01*
X79011744Y-127225795D01*
X78842226Y-127339063D01*
X78698063Y-127483226D01*
X78584795Y-127652744D01*
X78506774Y-127841102D01*
X78467000Y-128041061D01*
X78467000Y-128244939D01*
X78506774Y-128444898D01*
X78584795Y-128633256D01*
X78698063Y-128802774D01*
X78842226Y-128946937D01*
X79011744Y-129060205D01*
X79098284Y-129096051D01*
X78868919Y-129141675D01*
X78553169Y-129272463D01*
X78269002Y-129462337D01*
X78027337Y-129704002D01*
X77837463Y-129988169D01*
X77706675Y-130303919D01*
X77640000Y-130639117D01*
X77640000Y-130980883D01*
X77706675Y-131316081D01*
X77837463Y-131631831D01*
X78027337Y-131915998D01*
X78269002Y-132157663D01*
X78553169Y-132347537D01*
X78827093Y-132461000D01*
X66167000Y-132461000D01*
X66167000Y-130937000D01*
X74422000Y-130937000D01*
X74446776Y-130934560D01*
X74470601Y-130927333D01*
X74492557Y-130915597D01*
X74511803Y-130899803D01*
X74527597Y-130880557D01*
X74539333Y-130858601D01*
X74546560Y-130834776D01*
X74549000Y-130810000D01*
X74549000Y-125650158D01*
X74691602Y-125709226D01*
X74891561Y-125749000D01*
X75095439Y-125749000D01*
X75295398Y-125709226D01*
X75483756Y-125631205D01*
X75653274Y-125517937D01*
X75797437Y-125373774D01*
X75910705Y-125204256D01*
X75988726Y-125015898D01*
X76028500Y-124815939D01*
X76028500Y-124612061D01*
X81769000Y-124612061D01*
X81769000Y-124815939D01*
X81808774Y-125015898D01*
X81886795Y-125204256D01*
X82000063Y-125373774D01*
X82144226Y-125517937D01*
X82313744Y-125631205D01*
X82502102Y-125709226D01*
X82702061Y-125749000D01*
X82905939Y-125749000D01*
X83105898Y-125709226D01*
X83294256Y-125631205D01*
X83463774Y-125517937D01*
X83607937Y-125373774D01*
X83721205Y-125204256D01*
X83799226Y-125015898D01*
X83839000Y-124815939D01*
X83839000Y-124612061D01*
X83799226Y-124412102D01*
X83721205Y-124223744D01*
X83607937Y-124054226D01*
X83463774Y-123910063D01*
X83294256Y-123796795D01*
X83105898Y-123718774D01*
X82905939Y-123679000D01*
X82702061Y-123679000D01*
X82502102Y-123718774D01*
X82313744Y-123796795D01*
X82144226Y-123910063D01*
X82000063Y-124054226D01*
X81886795Y-124223744D01*
X81808774Y-124412102D01*
X81769000Y-124612061D01*
X76028500Y-124612061D01*
X75988726Y-124412102D01*
X75910705Y-124223744D01*
X75797437Y-124054226D01*
X75653274Y-123910063D01*
X75483756Y-123796795D01*
X75295398Y-123718774D01*
X75095439Y-123679000D01*
X74891561Y-123679000D01*
X74691602Y-123718774D01*
X74549000Y-123777842D01*
X74549000Y-121640261D01*
X76308000Y-121640261D01*
X76308000Y-121844139D01*
X76347774Y-122044098D01*
X76425795Y-122232456D01*
X76539063Y-122401974D01*
X76683226Y-122546137D01*
X76852744Y-122659405D01*
X77041102Y-122737426D01*
X77241061Y-122777200D01*
X77444939Y-122777200D01*
X77644898Y-122737426D01*
X77833256Y-122659405D01*
X78002774Y-122546137D01*
X78146937Y-122401974D01*
X78260205Y-122232456D01*
X78338226Y-122044098D01*
X78378000Y-121844139D01*
X78378000Y-121640261D01*
X78338226Y-121440302D01*
X78260205Y-121251944D01*
X78146937Y-121082426D01*
X78002774Y-120938263D01*
X77833256Y-120824995D01*
X77777889Y-120802061D01*
X86849000Y-120802061D01*
X86849000Y-121005939D01*
X86888774Y-121205898D01*
X86966795Y-121394256D01*
X87080063Y-121563774D01*
X87224226Y-121707937D01*
X87393744Y-121821205D01*
X87582102Y-121899226D01*
X87782061Y-121939000D01*
X87985939Y-121939000D01*
X88185898Y-121899226D01*
X88374256Y-121821205D01*
X88543774Y-121707937D01*
X88687937Y-121563774D01*
X88801205Y-121394256D01*
X88879226Y-121205898D01*
X88919000Y-121005939D01*
X88919000Y-120802061D01*
X88879226Y-120602102D01*
X88801205Y-120413744D01*
X88687937Y-120244226D01*
X88543774Y-120100063D01*
X88374256Y-119986795D01*
X88185898Y-119908774D01*
X87985939Y-119869000D01*
X87782061Y-119869000D01*
X87582102Y-119908774D01*
X87393744Y-119986795D01*
X87224226Y-120100063D01*
X87080063Y-120244226D01*
X86966795Y-120413744D01*
X86888774Y-120602102D01*
X86849000Y-120802061D01*
X77777889Y-120802061D01*
X77644898Y-120746974D01*
X77444939Y-120707200D01*
X77241061Y-120707200D01*
X77041102Y-120746974D01*
X76852744Y-120824995D01*
X76683226Y-120938263D01*
X76539063Y-121082426D01*
X76425795Y-121251944D01*
X76347774Y-121440302D01*
X76308000Y-121640261D01*
X74549000Y-121640261D01*
X74549000Y-119126000D01*
X74546560Y-119101224D01*
X74539333Y-119077399D01*
X74527597Y-119055443D01*
X74511803Y-119036197D01*
X74492557Y-119020403D01*
X74470601Y-119008667D01*
X74446776Y-119001440D01*
X74422000Y-118999000D01*
X66167000Y-118999000D01*
X66167000Y-118388468D01*
X66252063Y-118515774D01*
X66396226Y-118659937D01*
X66565744Y-118773205D01*
X66754102Y-118851226D01*
X66954061Y-118891000D01*
X67157939Y-118891000D01*
X67357898Y-118851226D01*
X67546256Y-118773205D01*
X67715774Y-118659937D01*
X67859937Y-118515774D01*
X67973205Y-118346256D01*
X68034382Y-118198561D01*
X75165000Y-118198561D01*
X75165000Y-118402439D01*
X75204774Y-118602398D01*
X75282795Y-118790756D01*
X75396063Y-118960274D01*
X75540226Y-119104437D01*
X75709744Y-119217705D01*
X75898102Y-119295726D01*
X76098061Y-119335500D01*
X76301939Y-119335500D01*
X76501898Y-119295726D01*
X76690256Y-119217705D01*
X76859774Y-119104437D01*
X77003937Y-118960274D01*
X77004120Y-118960000D01*
X78521928Y-118960000D01*
X78534188Y-119084482D01*
X78570498Y-119204180D01*
X78629463Y-119314494D01*
X78708815Y-119411185D01*
X78805506Y-119490537D01*
X78915820Y-119549502D01*
X79035518Y-119585812D01*
X79160000Y-119598072D01*
X79724250Y-119595000D01*
X79883000Y-119436250D01*
X79883000Y-118237000D01*
X80137000Y-118237000D01*
X80137000Y-119436250D01*
X80295750Y-119595000D01*
X80860000Y-119598072D01*
X80984482Y-119585812D01*
X81104180Y-119549502D01*
X81214494Y-119490537D01*
X81311185Y-119411185D01*
X81390537Y-119314494D01*
X81449502Y-119204180D01*
X81485812Y-119084482D01*
X81498072Y-118960000D01*
X81495000Y-118395750D01*
X81336250Y-118237000D01*
X80137000Y-118237000D01*
X79883000Y-118237000D01*
X78683750Y-118237000D01*
X78525000Y-118395750D01*
X78521928Y-118960000D01*
X77004120Y-118960000D01*
X77117205Y-118790756D01*
X77195226Y-118602398D01*
X77235000Y-118402439D01*
X77235000Y-118198561D01*
X77195226Y-117998602D01*
X77117205Y-117810244D01*
X77003937Y-117640726D01*
X76859774Y-117496563D01*
X76690256Y-117383295D01*
X76501898Y-117305274D01*
X76301939Y-117265500D01*
X76098061Y-117265500D01*
X75898102Y-117305274D01*
X75709744Y-117383295D01*
X75540226Y-117496563D01*
X75396063Y-117640726D01*
X75282795Y-117810244D01*
X75204774Y-117998602D01*
X75165000Y-118198561D01*
X68034382Y-118198561D01*
X68051226Y-118157898D01*
X68091000Y-117957939D01*
X68091000Y-117754061D01*
X68051226Y-117554102D01*
X67973205Y-117365744D01*
X67902550Y-117260000D01*
X78521928Y-117260000D01*
X78525000Y-117824250D01*
X78683750Y-117983000D01*
X79883000Y-117983000D01*
X79883000Y-116783750D01*
X80137000Y-116783750D01*
X80137000Y-117983000D01*
X81336250Y-117983000D01*
X81495000Y-117824250D01*
X81498072Y-117260000D01*
X81485812Y-117135518D01*
X81449502Y-117015820D01*
X81390537Y-116905506D01*
X81311185Y-116808815D01*
X81214494Y-116729463D01*
X81104180Y-116670498D01*
X80984482Y-116634188D01*
X80860000Y-116621928D01*
X80295750Y-116625000D01*
X80137000Y-116783750D01*
X79883000Y-116783750D01*
X79724250Y-116625000D01*
X79160000Y-116621928D01*
X79035518Y-116634188D01*
X78915820Y-116670498D01*
X78805506Y-116729463D01*
X78708815Y-116808815D01*
X78629463Y-116905506D01*
X78570498Y-117015820D01*
X78534188Y-117135518D01*
X78521928Y-117260000D01*
X67902550Y-117260000D01*
X67859937Y-117196226D01*
X67715774Y-117052063D01*
X67546256Y-116938795D01*
X67357898Y-116860774D01*
X67157939Y-116821000D01*
X66954061Y-116821000D01*
X66754102Y-116860774D01*
X66565744Y-116938795D01*
X66396226Y-117052063D01*
X66252063Y-117196226D01*
X66167000Y-117323532D01*
X66167000Y-115264861D01*
X76435000Y-115264861D01*
X76435000Y-115468739D01*
X76474774Y-115668698D01*
X76552795Y-115857056D01*
X76666063Y-116026574D01*
X76810226Y-116170737D01*
X76979744Y-116284005D01*
X77168102Y-116362026D01*
X77368061Y-116401800D01*
X77571939Y-116401800D01*
X77771898Y-116362026D01*
X77960256Y-116284005D01*
X78129774Y-116170737D01*
X78273937Y-116026574D01*
X78387205Y-115857056D01*
X78465226Y-115668698D01*
X78505000Y-115468739D01*
X78505000Y-115264861D01*
X78465226Y-115064902D01*
X78387205Y-114876544D01*
X78273937Y-114707026D01*
X78129774Y-114562863D01*
X77960256Y-114449595D01*
X77771898Y-114371574D01*
X77571939Y-114331800D01*
X77368061Y-114331800D01*
X77168102Y-114371574D01*
X76979744Y-114449595D01*
X76810226Y-114562863D01*
X76666063Y-114707026D01*
X76552795Y-114876544D01*
X76474774Y-115064902D01*
X76435000Y-115264861D01*
X66167000Y-115264861D01*
X66167000Y-113919000D01*
X81904202Y-113919000D01*
X81774463Y-114113169D01*
G37*
X81774463Y-114113169D02*
X81643675Y-114428919D01*
X81577000Y-114764117D01*
X81577000Y-115105883D01*
X81643675Y-115441081D01*
X81774463Y-115756831D01*
X81964337Y-116040998D01*
X82206002Y-116282663D01*
X82490169Y-116472537D01*
X82805919Y-116603325D01*
X83141117Y-116670000D01*
X83482883Y-116670000D01*
X83818081Y-116603325D01*
X84133831Y-116472537D01*
X84417998Y-116282663D01*
X84659663Y-116040998D01*
X84849537Y-115756831D01*
X84980325Y-115441081D01*
X85047000Y-115105883D01*
X85047000Y-114764117D01*
X84980325Y-114428919D01*
X84849537Y-114113169D01*
X84719798Y-113919000D01*
X92075000Y-113919000D01*
X92075000Y-132461000D01*
X79922907Y-132461000D01*
X80196831Y-132347537D01*
X80480998Y-132157663D01*
X80722663Y-131915998D01*
X80912537Y-131631831D01*
X81043325Y-131316081D01*
X81110000Y-130980883D01*
X81110000Y-130639117D01*
X81043325Y-130303919D01*
X80912537Y-129988169D01*
X80722663Y-129704002D01*
X80480998Y-129462337D01*
X80196831Y-129272463D01*
X79881081Y-129141675D01*
X79823313Y-129130184D01*
X79992256Y-129060205D01*
X80161774Y-128946937D01*
X80305937Y-128802774D01*
X80419205Y-128633256D01*
X80497226Y-128444898D01*
X80537000Y-128244939D01*
X80537000Y-128071059D01*
X81769000Y-128071059D01*
X81769000Y-128274937D01*
X81808774Y-128474896D01*
X81886795Y-128663254D01*
X82000063Y-128832772D01*
X82144226Y-128976935D01*
X82313744Y-129090203D01*
X82502102Y-129168224D01*
X82702061Y-129207998D01*
X82905939Y-129207998D01*
X83105898Y-129168224D01*
X83294256Y-129090203D01*
X83463774Y-128976935D01*
X83607937Y-128832772D01*
X83721205Y-128663254D01*
X83799226Y-128474896D01*
X83839000Y-128274937D01*
X83839000Y-128168061D01*
X84055000Y-128168061D01*
X84055000Y-128371939D01*
X84094774Y-128571898D01*
X84172795Y-128760256D01*
X84286063Y-128929774D01*
X84430226Y-129073937D01*
X84599744Y-129187205D01*
X84788102Y-129265226D01*
X84988061Y-129305000D01*
X85191939Y-129305000D01*
X85391898Y-129265226D01*
X85580256Y-129187205D01*
X85749774Y-129073937D01*
X85893937Y-128929774D01*
X86007205Y-128760256D01*
X86085226Y-128571898D01*
X86125000Y-128371939D01*
X86125000Y-128168061D01*
X86085226Y-127968102D01*
X86007205Y-127779744D01*
X85893937Y-127610226D01*
X85749774Y-127466063D01*
X85580256Y-127352795D01*
X85391898Y-127274774D01*
X85191939Y-127235000D01*
X84988061Y-127235000D01*
X84788102Y-127274774D01*
X84599744Y-127352795D01*
X84430226Y-127466063D01*
X84286063Y-127610226D01*
X84172795Y-127779744D01*
X84094774Y-127968102D01*
X84055000Y-128168061D01*
X83839000Y-128168061D01*
X83839000Y-128071059D01*
X83799226Y-127871100D01*
X83721205Y-127682742D01*
X83607937Y-127513224D01*
X83463774Y-127369061D01*
X83294256Y-127255793D01*
X83105898Y-127177772D01*
X82905939Y-127137998D01*
X82702061Y-127137998D01*
X82502102Y-127177772D01*
X82313744Y-127255793D01*
X82144226Y-127369061D01*
X82000063Y-127513224D01*
X81886795Y-127682742D01*
X81808774Y-127871100D01*
X81769000Y-128071059D01*
X80537000Y-128071059D01*
X80537000Y-128041061D01*
X80497226Y-127841102D01*
X80419205Y-127652744D01*
X80305937Y-127483226D01*
X80161774Y-127339063D01*
X79992256Y-127225795D01*
X79803898Y-127147774D01*
X79603939Y-127108000D01*
X79400061Y-127108000D01*
X79200102Y-127147774D01*
X79011744Y-127225795D01*
X78842226Y-127339063D01*
X78698063Y-127483226D01*
X78584795Y-127652744D01*
X78506774Y-127841102D01*
X78467000Y-128041061D01*
X78467000Y-128244939D01*
X78506774Y-128444898D01*
X78584795Y-128633256D01*
X78698063Y-128802774D01*
X78842226Y-128946937D01*
X79011744Y-129060205D01*
X79098284Y-129096051D01*
X78868919Y-129141675D01*
X78553169Y-129272463D01*
X78269002Y-129462337D01*
X78027337Y-129704002D01*
X77837463Y-129988169D01*
X77706675Y-130303919D01*
X77640000Y-130639117D01*
X77640000Y-130980883D01*
X77706675Y-131316081D01*
X77837463Y-131631831D01*
X78027337Y-131915998D01*
X78269002Y-132157663D01*
X78553169Y-132347537D01*
X78827093Y-132461000D01*
X66167000Y-132461000D01*
X66167000Y-130937000D01*
X74422000Y-130937000D01*
X74446776Y-130934560D01*
X74470601Y-130927333D01*
X74492557Y-130915597D01*
X74511803Y-130899803D01*
X74527597Y-130880557D01*
X74539333Y-130858601D01*
X74546560Y-130834776D01*
X74549000Y-130810000D01*
X74549000Y-125650158D01*
X74691602Y-125709226D01*
X74891561Y-125749000D01*
X75095439Y-125749000D01*
X75295398Y-125709226D01*
X75483756Y-125631205D01*
X75653274Y-125517937D01*
X75797437Y-125373774D01*
X75910705Y-125204256D01*
X75988726Y-125015898D01*
X76028500Y-124815939D01*
X76028500Y-124612061D01*
X81769000Y-124612061D01*
X81769000Y-124815939D01*
X81808774Y-125015898D01*
X81886795Y-125204256D01*
X82000063Y-125373774D01*
X82144226Y-125517937D01*
X82313744Y-125631205D01*
X82502102Y-125709226D01*
X82702061Y-125749000D01*
X82905939Y-125749000D01*
X83105898Y-125709226D01*
X83294256Y-125631205D01*
X83463774Y-125517937D01*
X83607937Y-125373774D01*
X83721205Y-125204256D01*
X83799226Y-125015898D01*
X83839000Y-124815939D01*
X83839000Y-124612061D01*
X83799226Y-124412102D01*
X83721205Y-124223744D01*
X83607937Y-124054226D01*
X83463774Y-123910063D01*
X83294256Y-123796795D01*
X83105898Y-123718774D01*
X82905939Y-123679000D01*
X82702061Y-123679000D01*
X82502102Y-123718774D01*
X82313744Y-123796795D01*
X82144226Y-123910063D01*
X82000063Y-124054226D01*
X81886795Y-124223744D01*
X81808774Y-124412102D01*
X81769000Y-124612061D01*
X76028500Y-124612061D01*
X75988726Y-124412102D01*
X75910705Y-124223744D01*
X75797437Y-124054226D01*
X75653274Y-123910063D01*
X75483756Y-123796795D01*
X75295398Y-123718774D01*
X75095439Y-123679000D01*
X74891561Y-123679000D01*
X74691602Y-123718774D01*
X74549000Y-123777842D01*
X74549000Y-121640261D01*
X76308000Y-121640261D01*
X76308000Y-121844139D01*
X76347774Y-122044098D01*
X76425795Y-122232456D01*
X76539063Y-122401974D01*
X76683226Y-122546137D01*
X76852744Y-122659405D01*
X77041102Y-122737426D01*
X77241061Y-122777200D01*
X77444939Y-122777200D01*
X77644898Y-122737426D01*
X77833256Y-122659405D01*
X78002774Y-122546137D01*
X78146937Y-122401974D01*
X78260205Y-122232456D01*
X78338226Y-122044098D01*
X78378000Y-121844139D01*
X78378000Y-121640261D01*
X78338226Y-121440302D01*
X78260205Y-121251944D01*
X78146937Y-121082426D01*
X78002774Y-120938263D01*
X77833256Y-120824995D01*
X77777889Y-120802061D01*
X86849000Y-120802061D01*
X86849000Y-121005939D01*
X86888774Y-121205898D01*
X86966795Y-121394256D01*
X87080063Y-121563774D01*
X87224226Y-121707937D01*
X87393744Y-121821205D01*
X87582102Y-121899226D01*
X87782061Y-121939000D01*
X87985939Y-121939000D01*
X88185898Y-121899226D01*
X88374256Y-121821205D01*
X88543774Y-121707937D01*
X88687937Y-121563774D01*
X88801205Y-121394256D01*
X88879226Y-121205898D01*
X88919000Y-121005939D01*
X88919000Y-120802061D01*
X88879226Y-120602102D01*
X88801205Y-120413744D01*
X88687937Y-120244226D01*
X88543774Y-120100063D01*
X88374256Y-119986795D01*
X88185898Y-119908774D01*
X87985939Y-119869000D01*
X87782061Y-119869000D01*
X87582102Y-119908774D01*
X87393744Y-119986795D01*
X87224226Y-120100063D01*
X87080063Y-120244226D01*
X86966795Y-120413744D01*
X86888774Y-120602102D01*
X86849000Y-120802061D01*
X77777889Y-120802061D01*
X77644898Y-120746974D01*
X77444939Y-120707200D01*
X77241061Y-120707200D01*
X77041102Y-120746974D01*
X76852744Y-120824995D01*
X76683226Y-120938263D01*
X76539063Y-121082426D01*
X76425795Y-121251944D01*
X76347774Y-121440302D01*
X76308000Y-121640261D01*
X74549000Y-121640261D01*
X74549000Y-119126000D01*
X74546560Y-119101224D01*
X74539333Y-119077399D01*
X74527597Y-119055443D01*
X74511803Y-119036197D01*
X74492557Y-119020403D01*
X74470601Y-119008667D01*
X74446776Y-119001440D01*
X74422000Y-118999000D01*
X66167000Y-118999000D01*
X66167000Y-118388468D01*
X66252063Y-118515774D01*
X66396226Y-118659937D01*
X66565744Y-118773205D01*
X66754102Y-118851226D01*
X66954061Y-118891000D01*
X67157939Y-118891000D01*
X67357898Y-118851226D01*
X67546256Y-118773205D01*
X67715774Y-118659937D01*
X67859937Y-118515774D01*
X67973205Y-118346256D01*
X68034382Y-118198561D01*
X75165000Y-118198561D01*
X75165000Y-118402439D01*
X75204774Y-118602398D01*
X75282795Y-118790756D01*
X75396063Y-118960274D01*
X75540226Y-119104437D01*
X75709744Y-119217705D01*
X75898102Y-119295726D01*
X76098061Y-119335500D01*
X76301939Y-119335500D01*
X76501898Y-119295726D01*
X76690256Y-119217705D01*
X76859774Y-119104437D01*
X77003937Y-118960274D01*
X77004120Y-118960000D01*
X78521928Y-118960000D01*
X78534188Y-119084482D01*
X78570498Y-119204180D01*
X78629463Y-119314494D01*
X78708815Y-119411185D01*
X78805506Y-119490537D01*
X78915820Y-119549502D01*
X79035518Y-119585812D01*
X79160000Y-119598072D01*
X79724250Y-119595000D01*
X79883000Y-119436250D01*
X79883000Y-118237000D01*
X80137000Y-118237000D01*
X80137000Y-119436250D01*
X80295750Y-119595000D01*
X80860000Y-119598072D01*
X80984482Y-119585812D01*
X81104180Y-119549502D01*
X81214494Y-119490537D01*
X81311185Y-119411185D01*
X81390537Y-119314494D01*
X81449502Y-119204180D01*
X81485812Y-119084482D01*
X81498072Y-118960000D01*
X81495000Y-118395750D01*
X81336250Y-118237000D01*
X80137000Y-118237000D01*
X79883000Y-118237000D01*
X78683750Y-118237000D01*
X78525000Y-118395750D01*
X78521928Y-118960000D01*
X77004120Y-118960000D01*
X77117205Y-118790756D01*
X77195226Y-118602398D01*
X77235000Y-118402439D01*
X77235000Y-118198561D01*
X77195226Y-117998602D01*
X77117205Y-117810244D01*
X77003937Y-117640726D01*
X76859774Y-117496563D01*
X76690256Y-117383295D01*
X76501898Y-117305274D01*
X76301939Y-117265500D01*
X76098061Y-117265500D01*
X75898102Y-117305274D01*
X75709744Y-117383295D01*
X75540226Y-117496563D01*
X75396063Y-117640726D01*
X75282795Y-117810244D01*
X75204774Y-117998602D01*
X75165000Y-118198561D01*
X68034382Y-118198561D01*
X68051226Y-118157898D01*
X68091000Y-117957939D01*
X68091000Y-117754061D01*
X68051226Y-117554102D01*
X67973205Y-117365744D01*
X67902550Y-117260000D01*
X78521928Y-117260000D01*
X78525000Y-117824250D01*
X78683750Y-117983000D01*
X79883000Y-117983000D01*
X79883000Y-116783750D01*
X80137000Y-116783750D01*
X80137000Y-117983000D01*
X81336250Y-117983000D01*
X81495000Y-117824250D01*
X81498072Y-117260000D01*
X81485812Y-117135518D01*
X81449502Y-117015820D01*
X81390537Y-116905506D01*
X81311185Y-116808815D01*
X81214494Y-116729463D01*
X81104180Y-116670498D01*
X80984482Y-116634188D01*
X80860000Y-116621928D01*
X80295750Y-116625000D01*
X80137000Y-116783750D01*
X79883000Y-116783750D01*
X79724250Y-116625000D01*
X79160000Y-116621928D01*
X79035518Y-116634188D01*
X78915820Y-116670498D01*
X78805506Y-116729463D01*
X78708815Y-116808815D01*
X78629463Y-116905506D01*
X78570498Y-117015820D01*
X78534188Y-117135518D01*
X78521928Y-117260000D01*
X67902550Y-117260000D01*
X67859937Y-117196226D01*
X67715774Y-117052063D01*
X67546256Y-116938795D01*
X67357898Y-116860774D01*
X67157939Y-116821000D01*
X66954061Y-116821000D01*
X66754102Y-116860774D01*
X66565744Y-116938795D01*
X66396226Y-117052063D01*
X66252063Y-117196226D01*
X66167000Y-117323532D01*
X66167000Y-115264861D01*
X76435000Y-115264861D01*
X76435000Y-115468739D01*
X76474774Y-115668698D01*
X76552795Y-115857056D01*
X76666063Y-116026574D01*
X76810226Y-116170737D01*
X76979744Y-116284005D01*
X77168102Y-116362026D01*
X77368061Y-116401800D01*
X77571939Y-116401800D01*
X77771898Y-116362026D01*
X77960256Y-116284005D01*
X78129774Y-116170737D01*
X78273937Y-116026574D01*
X78387205Y-115857056D01*
X78465226Y-115668698D01*
X78505000Y-115468739D01*
X78505000Y-115264861D01*
X78465226Y-115064902D01*
X78387205Y-114876544D01*
X78273937Y-114707026D01*
X78129774Y-114562863D01*
X77960256Y-114449595D01*
X77771898Y-114371574D01*
X77571939Y-114331800D01*
X77368061Y-114331800D01*
X77168102Y-114371574D01*
X76979744Y-114449595D01*
X76810226Y-114562863D01*
X76666063Y-114707026D01*
X76552795Y-114876544D01*
X76474774Y-115064902D01*
X76435000Y-115264861D01*
X66167000Y-115264861D01*
X66167000Y-113919000D01*
X81904202Y-113919000D01*
X81774463Y-114113169D01*
%TO.N,GND*%
G36*
X107315000Y-132461000D02*
G01*
X93853000Y-132461000D01*
X93853000Y-130150890D01*
X103968524Y-130150890D01*
X104013175Y-130298099D01*
X104138359Y-130560920D01*
X104312412Y-130794269D01*
X104528645Y-130989178D01*
X104778748Y-131138157D01*
X105053109Y-131235481D01*
X105283000Y-131114814D01*
X105283000Y-129921000D01*
X105537000Y-129921000D01*
X105537000Y-131114814D01*
X105766891Y-131235481D01*
X106041252Y-131138157D01*
X106291355Y-130989178D01*
X106507588Y-130794269D01*
X106681641Y-130560920D01*
X106806825Y-130298099D01*
X106851476Y-130150890D01*
X106730155Y-129921000D01*
X105537000Y-129921000D01*
X105283000Y-129921000D01*
X104089845Y-129921000D01*
X103968524Y-130150890D01*
X93853000Y-130150890D01*
X93853000Y-125573187D01*
X94603762Y-125573187D01*
X94603762Y-125777065D01*
X94643536Y-125977024D01*
X94721557Y-126165382D01*
X94834825Y-126334900D01*
X94978988Y-126479063D01*
X95148506Y-126592331D01*
X95336864Y-126670352D01*
X95536823Y-126710126D01*
X95740701Y-126710126D01*
X95940660Y-126670352D01*
X96129018Y-126592331D01*
X96298536Y-126479063D01*
X96442699Y-126334900D01*
X96555967Y-126165382D01*
X96633988Y-125977024D01*
X96664811Y-125822061D01*
X97736003Y-125822061D01*
X97736003Y-126025939D01*
X97775777Y-126225898D01*
X97853798Y-126414256D01*
X97967066Y-126583774D01*
X98111229Y-126727937D01*
X98280747Y-126841205D01*
X98469105Y-126919226D01*
X98669064Y-126959000D01*
X98872942Y-126959000D01*
X99072901Y-126919226D01*
X99261259Y-126841205D01*
X99430777Y-126727937D01*
X99574940Y-126583774D01*
X99688208Y-126414256D01*
X99766229Y-126225898D01*
X99806003Y-126025939D01*
X99806003Y-125822061D01*
X99766229Y-125622102D01*
X99688208Y-125433744D01*
X99574940Y-125264226D01*
X99430777Y-125120063D01*
X99261259Y-125006795D01*
X99072901Y-124928774D01*
X98872942Y-124889000D01*
X98669064Y-124889000D01*
X98469105Y-124928774D01*
X98280747Y-125006795D01*
X98111229Y-125120063D01*
X97967066Y-125264226D01*
X97853798Y-125433744D01*
X97775777Y-125622102D01*
X97736003Y-125822061D01*
X96664811Y-125822061D01*
X96673762Y-125777065D01*
X96673762Y-125573187D01*
X96633988Y-125373228D01*
X96555967Y-125184870D01*
X96442699Y-125015352D01*
X96298536Y-124871189D01*
X96129018Y-124757921D01*
X95940660Y-124679900D01*
X95740701Y-124640126D01*
X95536823Y-124640126D01*
X95336864Y-124679900D01*
X95148506Y-124757921D01*
X94978988Y-124871189D01*
X94834825Y-125015352D01*
X94721557Y-125184870D01*
X94643536Y-125373228D01*
X94603762Y-125573187D01*
X93853000Y-125573187D01*
X93853000Y-123283214D01*
X94537153Y-123283214D01*
X94537153Y-123487092D01*
X94576927Y-123687051D01*
X94654948Y-123875409D01*
X94768216Y-124044927D01*
X94912379Y-124189090D01*
X95081897Y-124302358D01*
X95270255Y-124380379D01*
X95470214Y-124420153D01*
X95674092Y-124420153D01*
X95874051Y-124380379D01*
X96062409Y-124302358D01*
X96231927Y-124189090D01*
X96376090Y-124044927D01*
X96489358Y-123875409D01*
X96567379Y-123687051D01*
X96607153Y-123487092D01*
X96607153Y-123283214D01*
X96567379Y-123083255D01*
X96489358Y-122894897D01*
X96376090Y-122725379D01*
X96231927Y-122581216D01*
X96062409Y-122467948D01*
X95874051Y-122389927D01*
X95674092Y-122350153D01*
X95470214Y-122350153D01*
X95270255Y-122389927D01*
X95081897Y-122467948D01*
X94912379Y-122581216D01*
X94768216Y-122725379D01*
X94654948Y-122894897D01*
X94576927Y-123083255D01*
X94537153Y-123283214D01*
X93853000Y-123283214D01*
X93853000Y-119781408D01*
X95988347Y-119781408D01*
X95988347Y-119985286D01*
X96028121Y-120185245D01*
X96106142Y-120373603D01*
X96219410Y-120543121D01*
X96363573Y-120687284D01*
X96533091Y-120800552D01*
X96721449Y-120878573D01*
X96921408Y-120918347D01*
X97125286Y-120918347D01*
X97325245Y-120878573D01*
X97513603Y-120800552D01*
X97683121Y-120687284D01*
X97827284Y-120543121D01*
X97940552Y-120373603D01*
X98018573Y-120185245D01*
X98058347Y-119985286D01*
X98058347Y-119781408D01*
X98018573Y-119581449D01*
X97940552Y-119393091D01*
X97827284Y-119223573D01*
X97683121Y-119079410D01*
X97513603Y-118966142D01*
X97325245Y-118888121D01*
X97125286Y-118848347D01*
X96921408Y-118848347D01*
X96721449Y-118888121D01*
X96533091Y-118966142D01*
X96363573Y-119079410D01*
X96219410Y-119223573D01*
X96106142Y-119393091D01*
X96028121Y-119581449D01*
X95988347Y-119781408D01*
X93853000Y-119781408D01*
X93853000Y-116865061D01*
X96247000Y-116865061D01*
X96247000Y-117068939D01*
X96286774Y-117268898D01*
X96364795Y-117457256D01*
X96478063Y-117626774D01*
X96622226Y-117770937D01*
X96791744Y-117884205D01*
X96980102Y-117962226D01*
X97180061Y-118002000D01*
X97383939Y-118002000D01*
X97583898Y-117962226D01*
X97772256Y-117884205D01*
X97941774Y-117770937D01*
X98085937Y-117626774D01*
X98199205Y-117457256D01*
X98277226Y-117268898D01*
X98281768Y-117246061D01*
X102089000Y-117246061D01*
X102089000Y-117449939D01*
X102128774Y-117649898D01*
X102206795Y-117838256D01*
X102320063Y-118007774D01*
X102464226Y-118151937D01*
X102633744Y-118265205D01*
X102822102Y-118343226D01*
X103022061Y-118383000D01*
X103225939Y-118383000D01*
X103425898Y-118343226D01*
X103614256Y-118265205D01*
X103783774Y-118151937D01*
X103927937Y-118007774D01*
X103928174Y-118007419D01*
X103934188Y-118068482D01*
X103970498Y-118188180D01*
X104029463Y-118298494D01*
X104108815Y-118395185D01*
X104205506Y-118474537D01*
X104315820Y-118533502D01*
X104388380Y-118555513D01*
X104256525Y-118687368D01*
X104094010Y-118930589D01*
X103982068Y-119200842D01*
X103925000Y-119487740D01*
X103925000Y-119780260D01*
X103982068Y-120067158D01*
X104094010Y-120337411D01*
X104256525Y-120580632D01*
X104463368Y-120787475D01*
X104637760Y-120904000D01*
X104463368Y-121020525D01*
X104256525Y-121227368D01*
X104094010Y-121470589D01*
X103982068Y-121740842D01*
X103925000Y-122027740D01*
X103925000Y-122320260D01*
X103982068Y-122607158D01*
X104094010Y-122877411D01*
X104256525Y-123120632D01*
X104463368Y-123327475D01*
X104637760Y-123444000D01*
X104463368Y-123560525D01*
X104256525Y-123767368D01*
X104094010Y-124010589D01*
X103982068Y-124280842D01*
X103925000Y-124567740D01*
X103925000Y-124860260D01*
X103982068Y-125147158D01*
X104094010Y-125417411D01*
X104256525Y-125660632D01*
X104463368Y-125867475D01*
X104637760Y-125984000D01*
X104463368Y-126100525D01*
X104256525Y-126307368D01*
X104094010Y-126550589D01*
X103982068Y-126820842D01*
X103925000Y-127107740D01*
X103925000Y-127400260D01*
X103982068Y-127687158D01*
X104094010Y-127957411D01*
X104256525Y-128200632D01*
X104463368Y-128407475D01*
X104645534Y-128529195D01*
X104528645Y-128598822D01*
X104312412Y-128793731D01*
X104265331Y-128856852D01*
X104286000Y-128752939D01*
X104286000Y-128549061D01*
X104246226Y-128349102D01*
X104168205Y-128160744D01*
X104054937Y-127991226D01*
X103910774Y-127847063D01*
X103741256Y-127733795D01*
X103552898Y-127655774D01*
X103352939Y-127616000D01*
X103149061Y-127616000D01*
X102949102Y-127655774D01*
X102760744Y-127733795D01*
X102591226Y-127847063D01*
X102447063Y-127991226D01*
X102333795Y-128160744D01*
X102255774Y-128349102D01*
X102216000Y-128549061D01*
X102216000Y-128752939D01*
X102255774Y-128952898D01*
X102333795Y-129141256D01*
X102447063Y-129310774D01*
X102591226Y-129454937D01*
X102760744Y-129568205D01*
X102949102Y-129646226D01*
X103149061Y-129686000D01*
X103352939Y-129686000D01*
X103552898Y-129646226D01*
X103741256Y-129568205D01*
X103910774Y-129454937D01*
X103985905Y-129379806D01*
X103968524Y-129437110D01*
X104089845Y-129667000D01*
X105283000Y-129667000D01*
X105283000Y-129647000D01*
X105537000Y-129647000D01*
X105537000Y-129667000D01*
X106730155Y-129667000D01*
X106851476Y-129437110D01*
X106806825Y-129289901D01*
X106681641Y-129027080D01*
X106507588Y-128793731D01*
X106291355Y-128598822D01*
X106174466Y-128529195D01*
X106356632Y-128407475D01*
X106563475Y-128200632D01*
X106725990Y-127957411D01*
X106837932Y-127687158D01*
X106895000Y-127400260D01*
X106895000Y-127107740D01*
X106837932Y-126820842D01*
X106725990Y-126550589D01*
X106563475Y-126307368D01*
X106356632Y-126100525D01*
X106182240Y-125984000D01*
X106356632Y-125867475D01*
X106563475Y-125660632D01*
X106725990Y-125417411D01*
X106837932Y-125147158D01*
X106895000Y-124860260D01*
X106895000Y-124567740D01*
X106837932Y-124280842D01*
X106725990Y-124010589D01*
X106563475Y-123767368D01*
X106356632Y-123560525D01*
X106182240Y-123444000D01*
X106356632Y-123327475D01*
X106563475Y-123120632D01*
X106725990Y-122877411D01*
X106837932Y-122607158D01*
X106895000Y-122320260D01*
X106895000Y-122027740D01*
X106837932Y-121740842D01*
X106725990Y-121470589D01*
X106563475Y-121227368D01*
X106356632Y-121020525D01*
X106182240Y-120904000D01*
X106356632Y-120787475D01*
X106563475Y-120580632D01*
X106725990Y-120337411D01*
X106837932Y-120067158D01*
X106895000Y-119780260D01*
X106895000Y-119487740D01*
X106837932Y-119200842D01*
X106725990Y-118930589D01*
X106563475Y-118687368D01*
X106431620Y-118555513D01*
X106504180Y-118533502D01*
X106614494Y-118474537D01*
X106711185Y-118395185D01*
X106790537Y-118298494D01*
X106849502Y-118188180D01*
X106885812Y-118068482D01*
X106898072Y-117944000D01*
X106898072Y-116244000D01*
X106885812Y-116119518D01*
X106849502Y-115999820D01*
X106790537Y-115889506D01*
X106711185Y-115792815D01*
X106614494Y-115713463D01*
X106504180Y-115654498D01*
X106384482Y-115618188D01*
X106260000Y-115605928D01*
X104560000Y-115605928D01*
X104435518Y-115618188D01*
X104315820Y-115654498D01*
X104205506Y-115713463D01*
X104108815Y-115792815D01*
X104029463Y-115889506D01*
X103970498Y-115999820D01*
X103934188Y-116119518D01*
X103921928Y-116244000D01*
X103921928Y-116682217D01*
X103783774Y-116544063D01*
X103614256Y-116430795D01*
X103425898Y-116352774D01*
X103225939Y-116313000D01*
X103022061Y-116313000D01*
X102822102Y-116352774D01*
X102633744Y-116430795D01*
X102464226Y-116544063D01*
X102320063Y-116688226D01*
X102206795Y-116857744D01*
X102128774Y-117046102D01*
X102089000Y-117246061D01*
X98281768Y-117246061D01*
X98317000Y-117068939D01*
X98317000Y-116865061D01*
X98277226Y-116665102D01*
X98199205Y-116476744D01*
X98085937Y-116307226D01*
X97941774Y-116163063D01*
X97772256Y-116049795D01*
X97583898Y-115971774D01*
X97383939Y-115932000D01*
X97180061Y-115932000D01*
X96980102Y-115971774D01*
X96791744Y-116049795D01*
X96622226Y-116163063D01*
X96478063Y-116307226D01*
X96364795Y-116476744D01*
X96286774Y-116665102D01*
X96247000Y-116865061D01*
X93853000Y-116865061D01*
X93853000Y-114681000D01*
X107315000Y-114681000D01*
X107315000Y-132461000D01*
G37*
X107315000Y-132461000D02*
X93853000Y-132461000D01*
X93853000Y-130150890D01*
X103968524Y-130150890D01*
X104013175Y-130298099D01*
X104138359Y-130560920D01*
X104312412Y-130794269D01*
X104528645Y-130989178D01*
X104778748Y-131138157D01*
X105053109Y-131235481D01*
X105283000Y-131114814D01*
X105283000Y-129921000D01*
X105537000Y-129921000D01*
X105537000Y-131114814D01*
X105766891Y-131235481D01*
X106041252Y-131138157D01*
X106291355Y-130989178D01*
X106507588Y-130794269D01*
X106681641Y-130560920D01*
X106806825Y-130298099D01*
X106851476Y-130150890D01*
X106730155Y-129921000D01*
X105537000Y-129921000D01*
X105283000Y-129921000D01*
X104089845Y-129921000D01*
X103968524Y-130150890D01*
X93853000Y-130150890D01*
X93853000Y-125573187D01*
X94603762Y-125573187D01*
X94603762Y-125777065D01*
X94643536Y-125977024D01*
X94721557Y-126165382D01*
X94834825Y-126334900D01*
X94978988Y-126479063D01*
X95148506Y-126592331D01*
X95336864Y-126670352D01*
X95536823Y-126710126D01*
X95740701Y-126710126D01*
X95940660Y-126670352D01*
X96129018Y-126592331D01*
X96298536Y-126479063D01*
X96442699Y-126334900D01*
X96555967Y-126165382D01*
X96633988Y-125977024D01*
X96664811Y-125822061D01*
X97736003Y-125822061D01*
X97736003Y-126025939D01*
X97775777Y-126225898D01*
X97853798Y-126414256D01*
X97967066Y-126583774D01*
X98111229Y-126727937D01*
X98280747Y-126841205D01*
X98469105Y-126919226D01*
X98669064Y-126959000D01*
X98872942Y-126959000D01*
X99072901Y-126919226D01*
X99261259Y-126841205D01*
X99430777Y-126727937D01*
X99574940Y-126583774D01*
X99688208Y-126414256D01*
X99766229Y-126225898D01*
X99806003Y-126025939D01*
X99806003Y-125822061D01*
X99766229Y-125622102D01*
X99688208Y-125433744D01*
X99574940Y-125264226D01*
X99430777Y-125120063D01*
X99261259Y-125006795D01*
X99072901Y-124928774D01*
X98872942Y-124889000D01*
X98669064Y-124889000D01*
X98469105Y-124928774D01*
X98280747Y-125006795D01*
X98111229Y-125120063D01*
X97967066Y-125264226D01*
X97853798Y-125433744D01*
X97775777Y-125622102D01*
X97736003Y-125822061D01*
X96664811Y-125822061D01*
X96673762Y-125777065D01*
X96673762Y-125573187D01*
X96633988Y-125373228D01*
X96555967Y-125184870D01*
X96442699Y-125015352D01*
X96298536Y-124871189D01*
X96129018Y-124757921D01*
X95940660Y-124679900D01*
X95740701Y-124640126D01*
X95536823Y-124640126D01*
X95336864Y-124679900D01*
X95148506Y-124757921D01*
X94978988Y-124871189D01*
X94834825Y-125015352D01*
X94721557Y-125184870D01*
X94643536Y-125373228D01*
X94603762Y-125573187D01*
X93853000Y-125573187D01*
X93853000Y-123283214D01*
X94537153Y-123283214D01*
X94537153Y-123487092D01*
X94576927Y-123687051D01*
X94654948Y-123875409D01*
X94768216Y-124044927D01*
X94912379Y-124189090D01*
X95081897Y-124302358D01*
X95270255Y-124380379D01*
X95470214Y-124420153D01*
X95674092Y-124420153D01*
X95874051Y-124380379D01*
X96062409Y-124302358D01*
X96231927Y-124189090D01*
X96376090Y-124044927D01*
X96489358Y-123875409D01*
X96567379Y-123687051D01*
X96607153Y-123487092D01*
X96607153Y-123283214D01*
X96567379Y-123083255D01*
X96489358Y-122894897D01*
X96376090Y-122725379D01*
X96231927Y-122581216D01*
X96062409Y-122467948D01*
X95874051Y-122389927D01*
X95674092Y-122350153D01*
X95470214Y-122350153D01*
X95270255Y-122389927D01*
X95081897Y-122467948D01*
X94912379Y-122581216D01*
X94768216Y-122725379D01*
X94654948Y-122894897D01*
X94576927Y-123083255D01*
X94537153Y-123283214D01*
X93853000Y-123283214D01*
X93853000Y-119781408D01*
X95988347Y-119781408D01*
X95988347Y-119985286D01*
X96028121Y-120185245D01*
X96106142Y-120373603D01*
X96219410Y-120543121D01*
X96363573Y-120687284D01*
X96533091Y-120800552D01*
X96721449Y-120878573D01*
X96921408Y-120918347D01*
X97125286Y-120918347D01*
X97325245Y-120878573D01*
X97513603Y-120800552D01*
X97683121Y-120687284D01*
X97827284Y-120543121D01*
X97940552Y-120373603D01*
X98018573Y-120185245D01*
X98058347Y-119985286D01*
X98058347Y-119781408D01*
X98018573Y-119581449D01*
X97940552Y-119393091D01*
X97827284Y-119223573D01*
X97683121Y-119079410D01*
X97513603Y-118966142D01*
X97325245Y-118888121D01*
X97125286Y-118848347D01*
X96921408Y-118848347D01*
X96721449Y-118888121D01*
X96533091Y-118966142D01*
X96363573Y-119079410D01*
X96219410Y-119223573D01*
X96106142Y-119393091D01*
X96028121Y-119581449D01*
X95988347Y-119781408D01*
X93853000Y-119781408D01*
X93853000Y-116865061D01*
X96247000Y-116865061D01*
X96247000Y-117068939D01*
X96286774Y-117268898D01*
X96364795Y-117457256D01*
X96478063Y-117626774D01*
X96622226Y-117770937D01*
X96791744Y-117884205D01*
X96980102Y-117962226D01*
X97180061Y-118002000D01*
X97383939Y-118002000D01*
X97583898Y-117962226D01*
X97772256Y-117884205D01*
X97941774Y-117770937D01*
X98085937Y-117626774D01*
X98199205Y-117457256D01*
X98277226Y-117268898D01*
X98281768Y-117246061D01*
X102089000Y-117246061D01*
X102089000Y-117449939D01*
X102128774Y-117649898D01*
X102206795Y-117838256D01*
X102320063Y-118007774D01*
X102464226Y-118151937D01*
X102633744Y-118265205D01*
X102822102Y-118343226D01*
X103022061Y-118383000D01*
X103225939Y-118383000D01*
X103425898Y-118343226D01*
X103614256Y-118265205D01*
X103783774Y-118151937D01*
X103927937Y-118007774D01*
X103928174Y-118007419D01*
X103934188Y-118068482D01*
X103970498Y-118188180D01*
X104029463Y-118298494D01*
X104108815Y-118395185D01*
X104205506Y-118474537D01*
X104315820Y-118533502D01*
X104388380Y-118555513D01*
X104256525Y-118687368D01*
X104094010Y-118930589D01*
X103982068Y-119200842D01*
X103925000Y-119487740D01*
X103925000Y-119780260D01*
X103982068Y-120067158D01*
X104094010Y-120337411D01*
X104256525Y-120580632D01*
X104463368Y-120787475D01*
X104637760Y-120904000D01*
X104463368Y-121020525D01*
X104256525Y-121227368D01*
X104094010Y-121470589D01*
X103982068Y-121740842D01*
X103925000Y-122027740D01*
X103925000Y-122320260D01*
X103982068Y-122607158D01*
X104094010Y-122877411D01*
X104256525Y-123120632D01*
X104463368Y-123327475D01*
X104637760Y-123444000D01*
X104463368Y-123560525D01*
X104256525Y-123767368D01*
X104094010Y-124010589D01*
X103982068Y-124280842D01*
X103925000Y-124567740D01*
X103925000Y-124860260D01*
X103982068Y-125147158D01*
X104094010Y-125417411D01*
X104256525Y-125660632D01*
X104463368Y-125867475D01*
X104637760Y-125984000D01*
X104463368Y-126100525D01*
X104256525Y-126307368D01*
X104094010Y-126550589D01*
X103982068Y-126820842D01*
X103925000Y-127107740D01*
X103925000Y-127400260D01*
X103982068Y-127687158D01*
X104094010Y-127957411D01*
X104256525Y-128200632D01*
X104463368Y-128407475D01*
X104645534Y-128529195D01*
X104528645Y-128598822D01*
X104312412Y-128793731D01*
X104265331Y-128856852D01*
X104286000Y-128752939D01*
X104286000Y-128549061D01*
X104246226Y-128349102D01*
X104168205Y-128160744D01*
X104054937Y-127991226D01*
X103910774Y-127847063D01*
X103741256Y-127733795D01*
X103552898Y-127655774D01*
X103352939Y-127616000D01*
X103149061Y-127616000D01*
X102949102Y-127655774D01*
X102760744Y-127733795D01*
X102591226Y-127847063D01*
X102447063Y-127991226D01*
X102333795Y-128160744D01*
X102255774Y-128349102D01*
X102216000Y-128549061D01*
X102216000Y-128752939D01*
X102255774Y-128952898D01*
X102333795Y-129141256D01*
X102447063Y-129310774D01*
X102591226Y-129454937D01*
X102760744Y-129568205D01*
X102949102Y-129646226D01*
X103149061Y-129686000D01*
X103352939Y-129686000D01*
X103552898Y-129646226D01*
X103741256Y-129568205D01*
X103910774Y-129454937D01*
X103985905Y-129379806D01*
X103968524Y-129437110D01*
X104089845Y-129667000D01*
X105283000Y-129667000D01*
X105283000Y-129647000D01*
X105537000Y-129647000D01*
X105537000Y-129667000D01*
X106730155Y-129667000D01*
X106851476Y-129437110D01*
X106806825Y-129289901D01*
X106681641Y-129027080D01*
X106507588Y-128793731D01*
X106291355Y-128598822D01*
X106174466Y-128529195D01*
X106356632Y-128407475D01*
X106563475Y-128200632D01*
X106725990Y-127957411D01*
X106837932Y-127687158D01*
X106895000Y-127400260D01*
X106895000Y-127107740D01*
X106837932Y-126820842D01*
X106725990Y-126550589D01*
X106563475Y-126307368D01*
X106356632Y-126100525D01*
X106182240Y-125984000D01*
X106356632Y-125867475D01*
X106563475Y-125660632D01*
X106725990Y-125417411D01*
X106837932Y-125147158D01*
X106895000Y-124860260D01*
X106895000Y-124567740D01*
X106837932Y-124280842D01*
X106725990Y-124010589D01*
X106563475Y-123767368D01*
X106356632Y-123560525D01*
X106182240Y-123444000D01*
X106356632Y-123327475D01*
X106563475Y-123120632D01*
X106725990Y-122877411D01*
X106837932Y-122607158D01*
X106895000Y-122320260D01*
X106895000Y-122027740D01*
X106837932Y-121740842D01*
X106725990Y-121470589D01*
X106563475Y-121227368D01*
X106356632Y-121020525D01*
X106182240Y-120904000D01*
X106356632Y-120787475D01*
X106563475Y-120580632D01*
X106725990Y-120337411D01*
X106837932Y-120067158D01*
X106895000Y-119780260D01*
X106895000Y-119487740D01*
X106837932Y-119200842D01*
X106725990Y-118930589D01*
X106563475Y-118687368D01*
X106431620Y-118555513D01*
X106504180Y-118533502D01*
X106614494Y-118474537D01*
X106711185Y-118395185D01*
X106790537Y-118298494D01*
X106849502Y-118188180D01*
X106885812Y-118068482D01*
X106898072Y-117944000D01*
X106898072Y-116244000D01*
X106885812Y-116119518D01*
X106849502Y-115999820D01*
X106790537Y-115889506D01*
X106711185Y-115792815D01*
X106614494Y-115713463D01*
X106504180Y-115654498D01*
X106384482Y-115618188D01*
X106260000Y-115605928D01*
X104560000Y-115605928D01*
X104435518Y-115618188D01*
X104315820Y-115654498D01*
X104205506Y-115713463D01*
X104108815Y-115792815D01*
X104029463Y-115889506D01*
X103970498Y-115999820D01*
X103934188Y-116119518D01*
X103921928Y-116244000D01*
X103921928Y-116682217D01*
X103783774Y-116544063D01*
X103614256Y-116430795D01*
X103425898Y-116352774D01*
X103225939Y-116313000D01*
X103022061Y-116313000D01*
X102822102Y-116352774D01*
X102633744Y-116430795D01*
X102464226Y-116544063D01*
X102320063Y-116688226D01*
X102206795Y-116857744D01*
X102128774Y-117046102D01*
X102089000Y-117246061D01*
X98281768Y-117246061D01*
X98317000Y-117068939D01*
X98317000Y-116865061D01*
X98277226Y-116665102D01*
X98199205Y-116476744D01*
X98085937Y-116307226D01*
X97941774Y-116163063D01*
X97772256Y-116049795D01*
X97583898Y-115971774D01*
X97383939Y-115932000D01*
X97180061Y-115932000D01*
X96980102Y-115971774D01*
X96791744Y-116049795D01*
X96622226Y-116163063D01*
X96478063Y-116307226D01*
X96364795Y-116476744D01*
X96286774Y-116665102D01*
X96247000Y-116865061D01*
X93853000Y-116865061D01*
X93853000Y-114681000D01*
X107315000Y-114681000D01*
X107315000Y-132461000D01*
%TD*%
M02*
