%TF.GenerationSoftware,KiCad,Pcbnew,(5.1.6)-1*%
%TF.CreationDate,2020-10-30T20:37:26-07:00*%
%TF.ProjectId,highvoltagedriver,68696768-766f-46c7-9461-676564726976,rev?*%
%TF.SameCoordinates,Original*%
%TF.FileFunction,Soldermask,Bot*%
%TF.FilePolarity,Negative*%
%FSLAX46Y46*%
G04 Gerber Fmt 4.6, Leading zero omitted, Abs format (unit mm)*
G04 Created by KiCad (PCBNEW (5.1.6)-1) date 2020-10-30 20:37:26*
%MOMM*%
%LPD*%
G01*
G04 APERTURE LIST*
%ADD10C,2.800000*%
%ADD11C,0.400000*%
%ADD12C,1.800000*%
%ADD13O,1.800000X1.800000*%
%ADD14R,1.800000X1.800000*%
%ADD15C,2.500000*%
%ADD16R,2.500000X2.500000*%
%ADD17O,2.005000X2.100000*%
%ADD18R,2.005000X2.100000*%
%ADD19O,3.600000X3.600000*%
%ADD20C,1.600000*%
%ADD21C,2.700000*%
%ADD22R,2.700000X2.700000*%
%ADD23C,1.700000*%
%ADD24R,1.700000X1.700000*%
G04 APERTURE END LIST*
D10*
%TO.C,REF\u002A\u002A*%
X118110000Y-91440000D03*
%TD*%
%TO.C,REF\u002A\u002A*%
X118110000Y-115570000D03*
%TD*%
%TO.C,REF\u002A\u002A*%
X190500000Y-94615000D03*
%TD*%
D11*
%TO.C,U1*%
X148605000Y-99105000D03*
X147305000Y-99105000D03*
X148605000Y-97805000D03*
X147305000Y-97805000D03*
X148605000Y-96505000D03*
X147305000Y-96505000D03*
X148605000Y-95205000D03*
X147305000Y-95205000D03*
%TD*%
D12*
%TO.C,J8*%
X163830000Y-94670000D03*
X163830000Y-87670000D03*
%TD*%
D13*
%TO.C,J7*%
X140652500Y-87376000D03*
X138112500Y-87376000D03*
X135572500Y-87376000D03*
X133032500Y-87376000D03*
X130492500Y-87376000D03*
X127952500Y-87376000D03*
X125412500Y-87376000D03*
D14*
X122872500Y-87376000D03*
%TD*%
D13*
%TO.C,J6*%
X140647420Y-83332320D03*
X138107420Y-83332320D03*
X135567420Y-83332320D03*
X133027420Y-83332320D03*
X130487420Y-83332320D03*
X127947420Y-83332320D03*
X125407420Y-83332320D03*
D14*
X122867420Y-83332320D03*
%TD*%
D15*
%TO.C,CP2*%
X195500000Y-110490000D03*
D16*
X190500000Y-110490000D03*
%TD*%
D15*
%TO.C,CP1*%
X208835000Y-110490000D03*
D16*
X203835000Y-110490000D03*
%TD*%
D13*
%TO.C,J5*%
X120650000Y-106045000D03*
X120650000Y-103505000D03*
D14*
X120650000Y-100965000D03*
%TD*%
D17*
%TO.C,Q1*%
X125730000Y-97790000D03*
X128270000Y-97790000D03*
D18*
X130810000Y-97790000D03*
D19*
X128270000Y-114450000D03*
%TD*%
D12*
%TO.C,J4*%
X178435000Y-94670000D03*
X178435000Y-87670000D03*
%TD*%
D20*
%TO.C,RV2*%
X154555000Y-116140000D03*
X154555000Y-104840000D03*
%TD*%
D21*
%TO.C,J3*%
X207010000Y-100330000D03*
X207010000Y-95250000D03*
D22*
X207010000Y-90170000D03*
%TD*%
D13*
%TO.C,J2*%
X140970000Y-115570000D03*
X138430000Y-115570000D03*
D14*
X135890000Y-115570000D03*
%TD*%
D13*
%TO.C,J1*%
X140970000Y-91440000D03*
X138430000Y-91440000D03*
D14*
X135890000Y-91440000D03*
%TD*%
D23*
%TO.C,C4*%
X190460000Y-88265000D03*
D24*
X187960000Y-88265000D03*
%TD*%
D23*
%TO.C,C2*%
X190460000Y-100965000D03*
D24*
X187960000Y-100965000D03*
%TD*%
M02*
