%TF.GenerationSoftware,KiCad,Pcbnew,(5.1.6)-1*%
%TF.CreationDate,2020-10-30T20:37:25-07:00*%
%TF.ProjectId,highvoltagedriver,68696768-766f-46c7-9461-676564726976,rev?*%
%TF.SameCoordinates,Original*%
%TF.FileFunction,Copper,L1,Top*%
%TF.FilePolarity,Positive*%
%FSLAX46Y46*%
G04 Gerber Fmt 4.6, Leading zero omitted, Abs format (unit mm)*
G04 Created by KiCad (PCBNEW (5.1.6)-1) date 2020-10-30 20:37:25*
%MOMM*%
%LPD*%
G01*
G04 APERTURE LIST*
%TA.AperFunction,ComponentPad*%
%ADD10C,0.300000*%
%TD*%
%TA.AperFunction,Conductor*%
%ADD11R,2.950000X4.900000*%
%TD*%
%TA.AperFunction,SMDPad,CuDef*%
%ADD12R,1.550000X0.600000*%
%TD*%
%TA.AperFunction,SMDPad,CuDef*%
%ADD13R,2.800000X2.800000*%
%TD*%
%TA.AperFunction,SMDPad,CuDef*%
%ADD14R,2.800000X2.200000*%
%TD*%
%TA.AperFunction,ComponentPad*%
%ADD15O,1.700000X1.700000*%
%TD*%
%TA.AperFunction,ComponentPad*%
%ADD16R,1.700000X1.700000*%
%TD*%
%TA.AperFunction,ComponentPad*%
%ADD17C,2.400000*%
%TD*%
%TA.AperFunction,ComponentPad*%
%ADD18R,2.400000X2.400000*%
%TD*%
%TA.AperFunction,ComponentPad*%
%ADD19O,1.905000X2.000000*%
%TD*%
%TA.AperFunction,ComponentPad*%
%ADD20R,1.905000X2.000000*%
%TD*%
%TA.AperFunction,SMDPad,CuDef*%
%ADD21R,0.600000X0.450000*%
%TD*%
%TA.AperFunction,SMDPad,CuDef*%
%ADD22R,9.400000X10.800000*%
%TD*%
%TA.AperFunction,SMDPad,CuDef*%
%ADD23R,4.600000X1.100000*%
%TD*%
%TA.AperFunction,SMDPad,CuDef*%
%ADD24R,4.000000X2.000000*%
%TD*%
%TA.AperFunction,ComponentPad*%
%ADD25C,2.600000*%
%TD*%
%TA.AperFunction,ComponentPad*%
%ADD26R,2.600000X2.600000*%
%TD*%
%TA.AperFunction,SMDPad,CuDef*%
%ADD27R,1.300000X1.400000*%
%TD*%
%TA.AperFunction,ComponentPad*%
%ADD28C,1.600000*%
%TD*%
%TA.AperFunction,ComponentPad*%
%ADD29R,1.600000X1.600000*%
%TD*%
%TA.AperFunction,ViaPad*%
%ADD30C,0.800000*%
%TD*%
%TA.AperFunction,Conductor*%
%ADD31C,0.500000*%
%TD*%
G04 APERTURE END LIST*
D10*
%TO.P,U1,17*%
%TO.N,N/C*%
X148605000Y-99105000D03*
%TO.P,U1,16*%
X147305000Y-99105000D03*
%TO.P,U1,15*%
X148605000Y-97805000D03*
%TO.P,U1,14*%
X147305000Y-97805000D03*
%TO.P,U1,13*%
X148605000Y-96505000D03*
%TO.P,U1,12*%
X147305000Y-96505000D03*
%TO.P,U1,11*%
X148605000Y-95205000D03*
%TO.P,U1,10*%
X147305000Y-95205000D03*
D11*
%TD*%
%TO.N,Net-(U1-Pad9)*%
%TO.C,U1*%
X147955000Y-97155000D03*
D12*
%TO.P,U1,8*%
%TO.N,Net-(R4-Pad2)*%
X150655000Y-95250000D03*
%TO.P,U1,7*%
%TO.N,/HVP*%
X150655000Y-96520000D03*
%TO.P,U1,6*%
%TO.N,/biasamp/OUT*%
X150655000Y-97790000D03*
%TO.P,U1,5*%
%TO.N,Net-(U1-Pad5)*%
X150655000Y-99060000D03*
%TO.P,U1,4*%
%TO.N,/HVN*%
X145255000Y-99060000D03*
%TO.P,U1,3*%
%TO.N,/biasamp/BIAS*%
X145255000Y-97790000D03*
%TO.P,U1,2*%
%TO.N,Net-(C7-Pad2)*%
X145255000Y-96520000D03*
%TO.P,U1,1*%
%TO.N,Net-(R5-Pad1)*%
X145255000Y-95250000D03*
%TD*%
%TO.P,R6,2*%
%TO.N,Net-(C7-Pad2)*%
%TA.AperFunction,SMDPad,CuDef*%
G36*
G01*
X155898001Y-95308000D02*
X154997999Y-95308000D01*
G75*
G02*
X154748000Y-95058001I0J249999D01*
G01*
X154748000Y-94407999D01*
G75*
G02*
X154997999Y-94158000I249999J0D01*
G01*
X155898001Y-94158000D01*
G75*
G02*
X156148000Y-94407999I0J-249999D01*
G01*
X156148000Y-95058001D01*
G75*
G02*
X155898001Y-95308000I-249999J0D01*
G01*
G37*
%TD.AperFunction*%
%TO.P,R6,1*%
%TO.N,/biasamp/OUT*%
%TA.AperFunction,SMDPad,CuDef*%
G36*
G01*
X155898001Y-97358000D02*
X154997999Y-97358000D01*
G75*
G02*
X154748000Y-97108001I0J249999D01*
G01*
X154748000Y-96457999D01*
G75*
G02*
X154997999Y-96208000I249999J0D01*
G01*
X155898001Y-96208000D01*
G75*
G02*
X156148000Y-96457999I0J-249999D01*
G01*
X156148000Y-97108001D01*
G75*
G02*
X155898001Y-97358000I-249999J0D01*
G01*
G37*
%TD.AperFunction*%
%TD*%
%TO.P,R5,2*%
%TO.N,/HVN*%
%TA.AperFunction,SMDPad,CuDef*%
G36*
G01*
X145854000Y-87814999D02*
X145854000Y-88715001D01*
G75*
G02*
X145604001Y-88965000I-249999J0D01*
G01*
X144953999Y-88965000D01*
G75*
G02*
X144704000Y-88715001I0J249999D01*
G01*
X144704000Y-87814999D01*
G75*
G02*
X144953999Y-87565000I249999J0D01*
G01*
X145604001Y-87565000D01*
G75*
G02*
X145854000Y-87814999I0J-249999D01*
G01*
G37*
%TD.AperFunction*%
%TO.P,R5,1*%
%TO.N,Net-(R5-Pad1)*%
%TA.AperFunction,SMDPad,CuDef*%
G36*
G01*
X147904000Y-87814999D02*
X147904000Y-88715001D01*
G75*
G02*
X147654001Y-88965000I-249999J0D01*
G01*
X147003999Y-88965000D01*
G75*
G02*
X146754000Y-88715001I0J249999D01*
G01*
X146754000Y-87814999D01*
G75*
G02*
X147003999Y-87565000I249999J0D01*
G01*
X147654001Y-87565000D01*
G75*
G02*
X147904000Y-87814999I0J-249999D01*
G01*
G37*
%TD.AperFunction*%
%TD*%
%TO.P,R4,2*%
%TO.N,Net-(R4-Pad2)*%
%TA.AperFunction,SMDPad,CuDef*%
G36*
G01*
X151442000Y-87814999D02*
X151442000Y-88715001D01*
G75*
G02*
X151192001Y-88965000I-249999J0D01*
G01*
X150541999Y-88965000D01*
G75*
G02*
X150292000Y-88715001I0J249999D01*
G01*
X150292000Y-87814999D01*
G75*
G02*
X150541999Y-87565000I249999J0D01*
G01*
X151192001Y-87565000D01*
G75*
G02*
X151442000Y-87814999I0J-249999D01*
G01*
G37*
%TD.AperFunction*%
%TO.P,R4,1*%
%TO.N,/HVP*%
%TA.AperFunction,SMDPad,CuDef*%
G36*
G01*
X153492000Y-87814999D02*
X153492000Y-88715001D01*
G75*
G02*
X153242001Y-88965000I-249999J0D01*
G01*
X152591999Y-88965000D01*
G75*
G02*
X152342000Y-88715001I0J249999D01*
G01*
X152342000Y-87814999D01*
G75*
G02*
X152591999Y-87565000I249999J0D01*
G01*
X153242001Y-87565000D01*
G75*
G02*
X153492000Y-87814999I0J-249999D01*
G01*
G37*
%TD.AperFunction*%
%TD*%
%TO.P,R3,2*%
%TO.N,/DACBIAS*%
%TA.AperFunction,SMDPad,CuDef*%
G36*
G01*
X145845000Y-82734999D02*
X145845000Y-83635001D01*
G75*
G02*
X145595001Y-83885000I-249999J0D01*
G01*
X144944999Y-83885000D01*
G75*
G02*
X144695000Y-83635001I0J249999D01*
G01*
X144695000Y-82734999D01*
G75*
G02*
X144944999Y-82485000I249999J0D01*
G01*
X145595001Y-82485000D01*
G75*
G02*
X145845000Y-82734999I0J-249999D01*
G01*
G37*
%TD.AperFunction*%
%TO.P,R3,1*%
%TO.N,Net-(C7-Pad2)*%
%TA.AperFunction,SMDPad,CuDef*%
G36*
G01*
X147895000Y-82734999D02*
X147895000Y-83635001D01*
G75*
G02*
X147645001Y-83885000I-249999J0D01*
G01*
X146994999Y-83885000D01*
G75*
G02*
X146745000Y-83635001I0J249999D01*
G01*
X146745000Y-82734999D01*
G75*
G02*
X146994999Y-82485000I249999J0D01*
G01*
X147645001Y-82485000D01*
G75*
G02*
X147895000Y-82734999I0J-249999D01*
G01*
G37*
%TD.AperFunction*%
%TD*%
D13*
%TO.P,J8,T*%
%TO.N,/biasamp/OUT*%
X160130000Y-95970000D03*
D14*
%TO.P,J8,S*%
%TO.N,GND*%
X160130000Y-86570000D03*
%TO.P,J8,R*%
%TO.N,N/C*%
X167530000Y-88570000D03*
%TD*%
D15*
%TO.P,J7,8*%
%TO.N,Net-(J6-Pad8)*%
X140652500Y-87376000D03*
%TO.P,J7,7*%
%TO.N,Net-(J6-Pad7)*%
X138112500Y-87376000D03*
%TO.P,J7,6*%
%TO.N,Net-(J6-Pad6)*%
X135572500Y-87376000D03*
%TO.P,J7,5*%
%TO.N,/DACBIAS*%
X133032500Y-87376000D03*
%TO.P,J7,4*%
%TO.N,/HVN*%
X130492500Y-87376000D03*
%TO.P,J7,3*%
%TO.N,/HVP*%
X127952500Y-87376000D03*
%TO.P,J7,2*%
%TO.N,/biasamp/BIAS*%
X125412500Y-87376000D03*
D16*
%TO.P,J7,1*%
%TO.N,GND*%
X122872500Y-87376000D03*
%TD*%
D15*
%TO.P,J6,8*%
%TO.N,Net-(J6-Pad8)*%
X140647420Y-83332320D03*
%TO.P,J6,7*%
%TO.N,Net-(J6-Pad7)*%
X138107420Y-83332320D03*
%TO.P,J6,6*%
%TO.N,Net-(J6-Pad6)*%
X135567420Y-83332320D03*
%TO.P,J6,5*%
%TO.N,/DACBIAS*%
X133027420Y-83332320D03*
%TO.P,J6,4*%
%TO.N,/HVN*%
X130487420Y-83332320D03*
%TO.P,J6,3*%
%TO.N,/HVP*%
X127947420Y-83332320D03*
%TO.P,J6,2*%
%TO.N,/biasamp/BIAS*%
X125407420Y-83332320D03*
D16*
%TO.P,J6,1*%
%TO.N,GND*%
X122867420Y-83332320D03*
%TD*%
%TO.P,C7,2*%
%TO.N,Net-(C7-Pad2)*%
%TA.AperFunction,SMDPad,CuDef*%
G36*
G01*
X151442000Y-82734999D02*
X151442000Y-83635001D01*
G75*
G02*
X151192001Y-83885000I-249999J0D01*
G01*
X150541999Y-83885000D01*
G75*
G02*
X150292000Y-83635001I0J249999D01*
G01*
X150292000Y-82734999D01*
G75*
G02*
X150541999Y-82485000I249999J0D01*
G01*
X151192001Y-82485000D01*
G75*
G02*
X151442000Y-82734999I0J-249999D01*
G01*
G37*
%TD.AperFunction*%
%TO.P,C7,1*%
%TO.N,/biasamp/OUT*%
%TA.AperFunction,SMDPad,CuDef*%
G36*
G01*
X153492000Y-82734999D02*
X153492000Y-83635001D01*
G75*
G02*
X153242001Y-83885000I-249999J0D01*
G01*
X152591999Y-83885000D01*
G75*
G02*
X152342000Y-83635001I0J249999D01*
G01*
X152342000Y-82734999D01*
G75*
G02*
X152591999Y-82485000I249999J0D01*
G01*
X153242001Y-82485000D01*
G75*
G02*
X153492000Y-82734999I0J-249999D01*
G01*
G37*
%TD.AperFunction*%
%TD*%
D17*
%TO.P,CP2,2*%
%TO.N,GND*%
X195500000Y-110490000D03*
D18*
%TO.P,CP2,1*%
%TO.N,Net-(C3-Pad1)*%
X190500000Y-110490000D03*
%TD*%
D17*
%TO.P,CP1,2*%
%TO.N,/hvpower/negreg/VNEG*%
X208835000Y-110490000D03*
D18*
%TO.P,CP1,1*%
%TO.N,GND*%
X203835000Y-110490000D03*
%TD*%
D15*
%TO.P,J5,3*%
%TO.N,/HVN*%
X120650000Y-106045000D03*
%TO.P,J5,2*%
%TO.N,GND*%
X120650000Y-103505000D03*
D16*
%TO.P,J5,1*%
%TO.N,/HVP*%
X120650000Y-100965000D03*
%TD*%
D19*
%TO.P,Q1,3*%
%TO.N,/HVN*%
X125730000Y-97790000D03*
%TO.P,Q1,2*%
%TO.N,/hvpower/negreg/VNEG*%
X128270000Y-97790000D03*
D20*
%TO.P,Q1,1*%
%TO.N,Net-(D5-Pad2)*%
X130810000Y-97790000D03*
%TD*%
%TO.P,R1,2*%
%TO.N,/hvpower/negreg/VNEG*%
%TA.AperFunction,SMDPad,CuDef*%
G36*
G01*
X130995000Y-94164999D02*
X130995000Y-95065001D01*
G75*
G02*
X130745001Y-95315000I-249999J0D01*
G01*
X130094999Y-95315000D01*
G75*
G02*
X129845000Y-95065001I0J249999D01*
G01*
X129845000Y-94164999D01*
G75*
G02*
X130094999Y-93915000I249999J0D01*
G01*
X130745001Y-93915000D01*
G75*
G02*
X130995000Y-94164999I0J-249999D01*
G01*
G37*
%TD.AperFunction*%
%TO.P,R1,1*%
%TO.N,Net-(D5-Pad2)*%
%TA.AperFunction,SMDPad,CuDef*%
G36*
G01*
X133045000Y-94164999D02*
X133045000Y-95065001D01*
G75*
G02*
X132795001Y-95315000I-249999J0D01*
G01*
X132144999Y-95315000D01*
G75*
G02*
X131895000Y-95065001I0J249999D01*
G01*
X131895000Y-94164999D01*
G75*
G02*
X132144999Y-93915000I249999J0D01*
G01*
X132795001Y-93915000D01*
G75*
G02*
X133045000Y-94164999I0J-249999D01*
G01*
G37*
%TD.AperFunction*%
%TD*%
D21*
%TO.P,D5,2*%
%TO.N,Net-(D5-Pad2)*%
X128685000Y-94615000D03*
%TO.P,D5,1*%
%TO.N,GND*%
X126585000Y-94615000D03*
%TD*%
D13*
%TO.P,J4,T*%
%TO.N,/HVN*%
X174735000Y-95970000D03*
D14*
%TO.P,J4,S*%
%TO.N,GND*%
X174735000Y-86570000D03*
%TO.P,J4,R*%
%TO.N,N/C*%
X182135000Y-88570000D03*
%TD*%
%TO.P,C6,2*%
%TO.N,GND*%
%TA.AperFunction,SMDPad,CuDef*%
G36*
G01*
X140190000Y-104324999D02*
X140190000Y-105225001D01*
G75*
G02*
X139940001Y-105475000I-249999J0D01*
G01*
X139289999Y-105475000D01*
G75*
G02*
X139040000Y-105225001I0J249999D01*
G01*
X139040000Y-104324999D01*
G75*
G02*
X139289999Y-104075000I249999J0D01*
G01*
X139940001Y-104075000D01*
G75*
G02*
X140190000Y-104324999I0J-249999D01*
G01*
G37*
%TD.AperFunction*%
%TO.P,C6,1*%
%TO.N,/HVN*%
%TA.AperFunction,SMDPad,CuDef*%
G36*
G01*
X142240000Y-104324999D02*
X142240000Y-105225001D01*
G75*
G02*
X141990001Y-105475000I-249999J0D01*
G01*
X141339999Y-105475000D01*
G75*
G02*
X141090000Y-105225001I0J249999D01*
G01*
X141090000Y-104324999D01*
G75*
G02*
X141339999Y-104075000I249999J0D01*
G01*
X141990001Y-104075000D01*
G75*
G02*
X142240000Y-104324999I0J-249999D01*
G01*
G37*
%TD.AperFunction*%
%TD*%
%TO.P,C5,2*%
%TO.N,GND*%
%TA.AperFunction,SMDPad,CuDef*%
G36*
G01*
X137365000Y-105225001D02*
X137365000Y-104324999D01*
G75*
G02*
X137614999Y-104075000I249999J0D01*
G01*
X138265001Y-104075000D01*
G75*
G02*
X138515000Y-104324999I0J-249999D01*
G01*
X138515000Y-105225001D01*
G75*
G02*
X138265001Y-105475000I-249999J0D01*
G01*
X137614999Y-105475000D01*
G75*
G02*
X137365000Y-105225001I0J249999D01*
G01*
G37*
%TD.AperFunction*%
%TO.P,C5,1*%
%TO.N,/HVP*%
%TA.AperFunction,SMDPad,CuDef*%
G36*
G01*
X135315000Y-105225001D02*
X135315000Y-104324999D01*
G75*
G02*
X135564999Y-104075000I249999J0D01*
G01*
X136215001Y-104075000D01*
G75*
G02*
X136465000Y-104324999I0J-249999D01*
G01*
X136465000Y-105225001D01*
G75*
G02*
X136215001Y-105475000I-249999J0D01*
G01*
X135564999Y-105475000D01*
G75*
G02*
X135315000Y-105225001I0J249999D01*
G01*
G37*
%TD.AperFunction*%
%TD*%
D22*
%TO.P,U2,2*%
%TO.N,/HVP*%
X179590000Y-111125000D03*
D23*
%TO.P,U2,3*%
%TO.N,Net-(C3-Pad1)*%
X170440000Y-113665000D03*
%TO.P,U2,2*%
%TO.N,/HVP*%
X170440000Y-111125000D03*
%TO.P,U2,1*%
%TO.N,Net-(R2-Pad1)*%
X170440000Y-108585000D03*
%TD*%
D24*
%TO.P,RV2,5*%
%TO.N,N/C*%
X162555000Y-112990000D03*
%TO.P,RV2,4*%
X162555000Y-107990000D03*
%TO.P,RV2,3*%
%TO.N,Net-(RV2-Pad3)*%
X146055000Y-112990000D03*
%TO.P,RV2,2*%
%TO.N,GND*%
X146055000Y-110490000D03*
%TO.P,RV2,1*%
%TO.N,Net-(R2-Pad1)*%
X146055000Y-107990000D03*
%TD*%
%TO.P,R2,2*%
%TO.N,/HVP*%
%TA.AperFunction,SMDPad,CuDef*%
G36*
G01*
X169995000Y-104590001D02*
X169995000Y-103689999D01*
G75*
G02*
X170244999Y-103440000I249999J0D01*
G01*
X170895001Y-103440000D01*
G75*
G02*
X171145000Y-103689999I0J-249999D01*
G01*
X171145000Y-104590001D01*
G75*
G02*
X170895001Y-104840000I-249999J0D01*
G01*
X170244999Y-104840000D01*
G75*
G02*
X169995000Y-104590001I0J249999D01*
G01*
G37*
%TD.AperFunction*%
%TO.P,R2,1*%
%TO.N,Net-(R2-Pad1)*%
%TA.AperFunction,SMDPad,CuDef*%
G36*
G01*
X167945000Y-104590001D02*
X167945000Y-103689999D01*
G75*
G02*
X168194999Y-103440000I249999J0D01*
G01*
X168845001Y-103440000D01*
G75*
G02*
X169095000Y-103689999I0J-249999D01*
G01*
X169095000Y-104590001D01*
G75*
G02*
X168845001Y-104840000I-249999J0D01*
G01*
X168194999Y-104840000D01*
G75*
G02*
X167945000Y-104590001I0J249999D01*
G01*
G37*
%TD.AperFunction*%
%TD*%
D25*
%TO.P,J3,3*%
%TO.N,Net-(D2-Pad1)*%
X207010000Y-100330000D03*
%TO.P,J3,2*%
%TO.N,GND*%
X207010000Y-95250000D03*
D26*
%TO.P,J3,1*%
%TO.N,Net-(D1-Pad1)*%
X207010000Y-90170000D03*
%TD*%
D15*
%TO.P,J2,3*%
%TO.N,/HVN*%
X140970000Y-115570000D03*
%TO.P,J2,2*%
%TO.N,GND*%
X138430000Y-115570000D03*
D16*
%TO.P,J2,1*%
%TO.N,/HVP*%
X135890000Y-115570000D03*
%TD*%
D15*
%TO.P,J1,3*%
%TO.N,/HVN*%
X140970000Y-91440000D03*
%TO.P,J1,2*%
%TO.N,GND*%
X138430000Y-91440000D03*
D16*
%TO.P,J1,1*%
%TO.N,/HVP*%
X135890000Y-91440000D03*
%TD*%
D27*
%TO.P,D4,2*%
%TO.N,Net-(D2-Pad1)*%
X198300000Y-99060000D03*
%TO.P,D4,1*%
%TO.N,Net-(C3-Pad1)*%
X195400000Y-99060000D03*
%TD*%
%TO.P,D3,2*%
%TO.N,Net-(D1-Pad1)*%
X198300000Y-88900000D03*
%TO.P,D3,1*%
%TO.N,Net-(C3-Pad1)*%
X195400000Y-88900000D03*
%TD*%
%TO.P,D2,2*%
%TO.N,/hvpower/negreg/VNEG*%
X195400000Y-101600000D03*
%TO.P,D2,1*%
%TO.N,Net-(D2-Pad1)*%
X198300000Y-101600000D03*
%TD*%
%TO.P,D1,2*%
%TO.N,/hvpower/negreg/VNEG*%
X195400000Y-91440000D03*
%TO.P,D1,1*%
%TO.N,Net-(D1-Pad1)*%
X198300000Y-91440000D03*
%TD*%
D28*
%TO.P,C4,2*%
%TO.N,GND*%
X190460000Y-88265000D03*
D29*
%TO.P,C4,1*%
%TO.N,/HVP*%
X187960000Y-88265000D03*
%TD*%
%TO.P,C3,2*%
%TO.N,GND*%
%TA.AperFunction,SMDPad,CuDef*%
G36*
G01*
X196030001Y-94800000D02*
X195129999Y-94800000D01*
G75*
G02*
X194880000Y-94550001I0J249999D01*
G01*
X194880000Y-93899999D01*
G75*
G02*
X195129999Y-93650000I249999J0D01*
G01*
X196030001Y-93650000D01*
G75*
G02*
X196280000Y-93899999I0J-249999D01*
G01*
X196280000Y-94550001D01*
G75*
G02*
X196030001Y-94800000I-249999J0D01*
G01*
G37*
%TD.AperFunction*%
%TO.P,C3,1*%
%TO.N,Net-(C3-Pad1)*%
%TA.AperFunction,SMDPad,CuDef*%
G36*
G01*
X196030001Y-96850000D02*
X195129999Y-96850000D01*
G75*
G02*
X194880000Y-96600001I0J249999D01*
G01*
X194880000Y-95949999D01*
G75*
G02*
X195129999Y-95700000I249999J0D01*
G01*
X196030001Y-95700000D01*
G75*
G02*
X196280000Y-95949999I0J-249999D01*
G01*
X196280000Y-96600001D01*
G75*
G02*
X196030001Y-96850000I-249999J0D01*
G01*
G37*
%TD.AperFunction*%
%TD*%
D28*
%TO.P,C2,2*%
%TO.N,/HVN*%
X190460000Y-100965000D03*
D29*
%TO.P,C2,1*%
%TO.N,GND*%
X187960000Y-100965000D03*
%TD*%
%TO.P,C1,2*%
%TO.N,/hvpower/negreg/VNEG*%
%TA.AperFunction,SMDPad,CuDef*%
G36*
G01*
X198570001Y-94800000D02*
X197669999Y-94800000D01*
G75*
G02*
X197420000Y-94550001I0J249999D01*
G01*
X197420000Y-93899999D01*
G75*
G02*
X197669999Y-93650000I249999J0D01*
G01*
X198570001Y-93650000D01*
G75*
G02*
X198820000Y-93899999I0J-249999D01*
G01*
X198820000Y-94550001D01*
G75*
G02*
X198570001Y-94800000I-249999J0D01*
G01*
G37*
%TD.AperFunction*%
%TO.P,C1,1*%
%TO.N,GND*%
%TA.AperFunction,SMDPad,CuDef*%
G36*
G01*
X198570001Y-96850000D02*
X197669999Y-96850000D01*
G75*
G02*
X197420000Y-96600001I0J249999D01*
G01*
X197420000Y-95949999D01*
G75*
G02*
X197669999Y-95700000I249999J0D01*
G01*
X198570001Y-95700000D01*
G75*
G02*
X198820000Y-95949999I0J-249999D01*
G01*
X198820000Y-96600001D01*
G75*
G02*
X198570001Y-96850000I-249999J0D01*
G01*
G37*
%TD.AperFunction*%
%TD*%
D30*
%TO.N,GND*%
X195580000Y-92964000D03*
X199390000Y-96266000D03*
X174752000Y-84582000D03*
X160274000Y-84328000D03*
X149352000Y-110490000D03*
X139700000Y-106426000D03*
X125222000Y-94742000D03*
%TO.N,/HVP*%
X161798000Y-101092000D03*
X153670000Y-96012000D03*
%TO.N,Net-(C7-Pad2)*%
X154178000Y-93472000D03*
X143256000Y-96266000D03*
%TO.N,/biasamp/BIAS*%
X142748000Y-97536000D03*
%TD*%
D31*
%TO.N,GND*%
X195580000Y-94225000D02*
X195580000Y-92964000D01*
X198120000Y-96275000D02*
X199381000Y-96275000D01*
X199381000Y-96275000D02*
X199390000Y-96266000D01*
X174735000Y-86570000D02*
X174735000Y-84599000D01*
X174735000Y-84599000D02*
X174752000Y-84582000D01*
X160130000Y-86570000D02*
X160130000Y-84472000D01*
X160130000Y-84472000D02*
X160274000Y-84328000D01*
X146055000Y-110490000D02*
X149352000Y-110490000D01*
X137940000Y-104775000D02*
X139615000Y-104775000D01*
X139615000Y-104775000D02*
X139615000Y-106341000D01*
X139615000Y-106341000D02*
X139700000Y-106426000D01*
X126585000Y-94615000D02*
X125349000Y-94615000D01*
X125349000Y-94615000D02*
X125222000Y-94742000D01*
%TO.N,Net-(C3-Pad1)*%
X194299999Y-106690001D02*
X190500000Y-110490000D01*
X194299999Y-100160001D02*
X194299999Y-106690001D01*
X195400000Y-99060000D02*
X194299999Y-100160001D01*
X195580000Y-98880000D02*
X195400000Y-99060000D01*
X195580000Y-96275000D02*
X195580000Y-98880000D01*
X194299999Y-90000001D02*
X194299999Y-97959999D01*
X194299999Y-97959999D02*
X195400000Y-99060000D01*
X195400000Y-88900000D02*
X194299999Y-90000001D01*
X170440000Y-113665000D02*
X169319998Y-113665000D01*
X190500000Y-112190000D02*
X190500000Y-110490000D01*
X185714999Y-116975001D02*
X190500000Y-112190000D01*
X173750001Y-116975001D02*
X185714999Y-116975001D01*
X170440000Y-113665000D02*
X173750001Y-116975001D01*
%TO.N,Net-(D1-Pad1)*%
X199570000Y-90170000D02*
X198300000Y-88900000D01*
X207010000Y-90170000D02*
X199570000Y-90170000D01*
X198300000Y-91440000D02*
X198300000Y-91260000D01*
X199390000Y-90170000D02*
X199570000Y-90170000D01*
X198300000Y-91260000D02*
X199390000Y-90170000D01*
%TO.N,Net-(D2-Pad1)*%
X198300000Y-99060000D02*
X198300000Y-101600000D01*
X205740000Y-99060000D02*
X207010000Y-100330000D01*
X198300000Y-99060000D02*
X205740000Y-99060000D01*
%TO.N,Net-(R2-Pad1)*%
X170440000Y-106060000D02*
X168520000Y-104140000D01*
X170440000Y-108585000D02*
X170440000Y-106060000D01*
X148004999Y-106040001D02*
X146055000Y-107990000D01*
X166619999Y-106040001D02*
X148004999Y-106040001D01*
X168520000Y-104140000D02*
X166619999Y-106040001D01*
%TO.N,/hvpower/negreg/VNEG*%
X198120000Y-94160000D02*
X195400000Y-91440000D01*
X198120000Y-94225000D02*
X198120000Y-94160000D01*
X196969990Y-100030010D02*
X195400000Y-101600000D01*
X196969990Y-95375010D02*
X196969990Y-100030010D01*
X198120000Y-94225000D02*
X196969990Y-95375010D01*
X207184999Y-108839999D02*
X208835000Y-110490000D01*
X203379997Y-108839999D02*
X207184999Y-108839999D01*
X196969990Y-102429992D02*
X203379997Y-108839999D01*
X196969990Y-100030010D02*
X196969990Y-102429992D01*
X199592003Y-108839999D02*
X190068002Y-118364000D01*
X207184999Y-108839999D02*
X199592003Y-108839999D01*
X128270000Y-110460002D02*
X128270000Y-97790000D01*
X136173998Y-118364000D02*
X128270000Y-110460002D01*
X190068002Y-118364000D02*
X136173998Y-118364000D01*
X128270000Y-96765000D02*
X130420000Y-94615000D01*
X128270000Y-97790000D02*
X128270000Y-96765000D01*
%TO.N,Net-(D5-Pad2)*%
X129805044Y-93464990D02*
X131319990Y-93464990D01*
X129394990Y-93875044D02*
X129805044Y-93464990D01*
X129394990Y-94379010D02*
X129394990Y-93875044D01*
X131319990Y-93464990D02*
X132470000Y-94615000D01*
X129159000Y-94615000D02*
X129394990Y-94379010D01*
X128685000Y-94615000D02*
X129159000Y-94615000D01*
X132470000Y-96130000D02*
X130810000Y-97790000D01*
X132470000Y-94615000D02*
X132470000Y-96130000D01*
%TO.N,/HVN*%
X185465000Y-95970000D02*
X174735000Y-95970000D01*
X190460000Y-100965000D02*
X185465000Y-95970000D01*
X141665000Y-114875000D02*
X140970000Y-115570000D01*
X141665000Y-104775000D02*
X141665000Y-114875000D01*
X141665000Y-104775000D02*
X141665000Y-102650000D01*
X141665000Y-92135000D02*
X140970000Y-91440000D01*
X141665000Y-104775000D02*
X141665000Y-92135000D01*
X130492500Y-83337400D02*
X130487420Y-83332320D01*
X130492500Y-87376000D02*
X130492500Y-83337400D01*
X144145000Y-88265000D02*
X140970000Y-91440000D01*
X145279000Y-88265000D02*
X144145000Y-88265000D01*
X125730000Y-100349002D02*
X125730000Y-97790000D01*
X120650000Y-105429002D02*
X125730000Y-100349002D01*
X120650000Y-106045000D02*
X120650000Y-105429002D01*
X170649999Y-100055001D02*
X144259999Y-100055001D01*
X174735000Y-95970000D02*
X170649999Y-100055001D01*
X144259999Y-100055001D02*
X142223500Y-102091500D01*
X141665000Y-102650000D02*
X142223500Y-102091500D01*
X142223500Y-102091500D02*
X145255000Y-99060000D01*
X133169988Y-90053488D02*
X130492500Y-87376000D01*
X139583488Y-90053488D02*
X133169988Y-90053488D01*
X140970000Y-91440000D02*
X139583488Y-90053488D01*
X129187419Y-82032319D02*
X130487420Y-83332320D01*
X121657419Y-82032319D02*
X129187419Y-82032319D01*
X121567419Y-82122319D02*
X121657419Y-82032319D01*
X121567419Y-90646583D02*
X121567419Y-82122319D01*
X119349999Y-92864003D02*
X121567419Y-90646583D01*
X119349999Y-104744999D02*
X119349999Y-92864003D01*
X120650000Y-106045000D02*
X119349999Y-104744999D01*
%TO.N,/HVP*%
X180225000Y-110490000D02*
X179590000Y-111125000D01*
X192300001Y-100975001D02*
X192300001Y-92605001D01*
X189135002Y-104140000D02*
X192300001Y-100975001D01*
X192300001Y-92605001D02*
X187960000Y-88265000D01*
X170570000Y-104140000D02*
X189135002Y-104140000D01*
X135890000Y-115570000D02*
X135890000Y-104775000D01*
X135890000Y-104775000D02*
X135890000Y-91440000D01*
X127952500Y-83337400D02*
X127947420Y-83332320D01*
X127952500Y-87376000D02*
X127952500Y-83337400D01*
X151930000Y-96520000D02*
X150655000Y-96520000D01*
X152917000Y-95533000D02*
X151930000Y-96520000D01*
X152917000Y-88265000D02*
X152917000Y-95533000D01*
X170570000Y-104140000D02*
X169419990Y-102989990D01*
X163695990Y-102989990D02*
X161798000Y-101092000D01*
X169419990Y-102989990D02*
X163695990Y-102989990D01*
X153191000Y-95533000D02*
X152917000Y-95533000D01*
X153670000Y-96012000D02*
X153191000Y-95533000D01*
X127952500Y-90753498D02*
X127952500Y-87376000D01*
X120650000Y-98055998D02*
X127952500Y-90753498D01*
X120650000Y-100965000D02*
X120650000Y-98055998D01*
X135203498Y-90753498D02*
X135890000Y-91440000D01*
X127952500Y-90753498D02*
X135203498Y-90753498D01*
X137660001Y-117340001D02*
X166764999Y-117340001D01*
X135890000Y-115570000D02*
X137660001Y-117340001D01*
X170440000Y-111125000D02*
X179590000Y-111125000D01*
X173190001Y-109495001D02*
X171560002Y-111125000D01*
X171560002Y-111125000D02*
X170440000Y-111125000D01*
X173190001Y-106760001D02*
X173190001Y-109495001D01*
X170570000Y-104140000D02*
X173190001Y-106760001D01*
X169319998Y-111125000D02*
X170440000Y-111125000D01*
X166764999Y-113679999D02*
X169319998Y-111125000D01*
X166764999Y-117340001D02*
X166764999Y-113679999D01*
%TO.N,Net-(C7-Pad2)*%
X147320000Y-83185000D02*
X150867000Y-83185000D01*
X155448000Y-87766000D02*
X155448000Y-94733000D01*
X150867000Y-83185000D02*
X155448000Y-87766000D01*
X155448000Y-94733000D02*
X155439000Y-94733000D01*
X155439000Y-94733000D02*
X154178000Y-93472000D01*
X145255000Y-96520000D02*
X143510000Y-96520000D01*
X143510000Y-96520000D02*
X143256000Y-96266000D01*
%TO.N,/biasamp/OUT*%
X156598010Y-95632990D02*
X155448000Y-96783000D01*
X156598010Y-86866010D02*
X156598010Y-95632990D01*
X152917000Y-83185000D02*
X156598010Y-86866010D01*
X156935020Y-95970000D02*
X156598010Y-95632990D01*
X160130000Y-95970000D02*
X156935020Y-95970000D01*
X154441000Y-97790000D02*
X150655000Y-97790000D01*
X155448000Y-96783000D02*
X154441000Y-97790000D01*
%TO.N,Net-(J6-Pad8)*%
X140652500Y-83337400D02*
X140647420Y-83332320D01*
X140652500Y-87376000D02*
X140652500Y-83337400D01*
%TO.N,Net-(J6-Pad7)*%
X138112500Y-83337400D02*
X138107420Y-83332320D01*
X138112500Y-87376000D02*
X138112500Y-83337400D01*
%TO.N,Net-(J6-Pad6)*%
X135572500Y-83337400D02*
X135567420Y-83332320D01*
X135572500Y-87376000D02*
X135572500Y-83337400D01*
%TO.N,/DACBIAS*%
X133032500Y-83337400D02*
X133027420Y-83332320D01*
X133032500Y-87376000D02*
X133032500Y-83337400D01*
X144117319Y-82032319D02*
X145270000Y-83185000D01*
X134327421Y-82032319D02*
X144117319Y-82032319D01*
X133027420Y-83332320D02*
X134327421Y-82032319D01*
%TO.N,/biasamp/BIAS*%
X125412500Y-83337400D02*
X125407420Y-83332320D01*
X125412500Y-87376000D02*
X125412500Y-83337400D01*
X145255000Y-97790000D02*
X143002000Y-97790000D01*
X143002000Y-97790000D02*
X142748000Y-97536000D01*
%TO.N,Net-(R4-Pad2)*%
X150867000Y-95038000D02*
X150655000Y-95250000D01*
X150867000Y-88265000D02*
X150867000Y-95038000D01*
%TO.N,Net-(R5-Pad1)*%
X147329000Y-93176000D02*
X145255000Y-95250000D01*
X147329000Y-88265000D02*
X147329000Y-93176000D01*
%TD*%
M02*
