M48
; DRILL file {KiCad (5.1.6)-1} date 10/30/20 20:37:27
; FORMAT={-:-/ absolute / inch / decimal}
; #@! TF.CreationDate,2020-10-30T20:37:27-07:00
; #@! TF.GenerationSoftware,Kicad,Pcbnew,(5.1.6)-1
; #@! TF.FileFunction,Plated,1,2,PTH
FMAT,2
INCH
T1C0.0079
T2C0.0157
T3C0.0315
T4C0.0394
T5C0.0433
T6C0.0472
T7C0.0512
%
G90
G05
T1
X5.7994Y-3.7482
X5.7994Y-3.7994
X5.7994Y-3.8506
X5.7994Y-3.9018
X5.8506Y-3.7482
X5.8506Y-3.7994
X5.8506Y-3.8506
X5.8506Y-3.9018
T2
X4.93Y-3.73
X5.5Y-4.19
X5.62Y-3.84
X5.64Y-3.79
X5.88Y-4.35
X6.05Y-3.78
X6.07Y-3.68
X6.31Y-3.32
X6.37Y-3.98
X6.88Y-3.33
X7.7Y-3.66
X7.85Y-3.79
T3
X7.4Y-3.975
X7.4984Y-3.975
X7.4Y-3.475
X7.4984Y-3.475
T4
X5.35Y-3.6
X5.45Y-3.6
X5.55Y-3.6
X4.75Y-3.975
X4.75Y-4.075
X4.75Y-4.175
X5.35Y-4.55
X5.45Y-4.55
X5.55Y-4.55
X4.8373Y-3.2808
X4.9373Y-3.2808
X5.0373Y-3.2808
X5.1373Y-3.2808
X5.2373Y-3.2808
X5.3373Y-3.2808
X5.4373Y-3.2808
X5.5373Y-3.2808
X4.8375Y-3.44
X4.9375Y-3.44
X5.0375Y-3.44
X5.1375Y-3.44
X5.2375Y-3.44
X5.3375Y-3.44
X5.4375Y-3.44
X5.5375Y-3.44
T5
X4.95Y-3.85
X5.05Y-3.85
X5.15Y-3.85
T6
X8.025Y-4.35
X8.2219Y-4.35
X7.5Y-4.35
X7.6969Y-4.35
T7
X8.15Y-3.55
X8.15Y-3.75
X8.15Y-3.95
T0
M30
