%TF.GenerationSoftware,KiCad,Pcbnew,(5.1.6)-1*%
%TF.CreationDate,2020-10-30T20:37:26-07:00*%
%TF.ProjectId,highvoltagedriver,68696768-766f-46c7-9461-676564726976,rev?*%
%TF.SameCoordinates,Original*%
%TF.FileFunction,Soldermask,Top*%
%TF.FilePolarity,Negative*%
%FSLAX46Y46*%
G04 Gerber Fmt 4.6, Leading zero omitted, Abs format (unit mm)*
G04 Created by KiCad (PCBNEW (5.1.6)-1) date 2020-10-30 20:37:26*
%MOMM*%
%LPD*%
G01*
G04 APERTURE LIST*
%ADD10C,0.010000*%
%ADD11C,2.800000*%
%ADD12C,0.400000*%
%ADD13C,1.800000*%
%ADD14R,2.900000X2.900000*%
%ADD15R,2.900000X2.300000*%
%ADD16O,1.800000X1.800000*%
%ADD17R,1.800000X1.800000*%
%ADD18C,2.500000*%
%ADD19R,2.500000X2.500000*%
%ADD20O,2.005000X2.100000*%
%ADD21R,2.005000X2.100000*%
%ADD22O,3.600000X3.600000*%
%ADD23R,0.700000X0.550000*%
%ADD24R,9.500000X10.900000*%
%ADD25R,4.700000X1.200000*%
%ADD26C,1.600000*%
%ADD27R,4.100000X2.100000*%
%ADD28C,2.700000*%
%ADD29R,2.700000X2.700000*%
%ADD30R,1.400000X1.500000*%
%ADD31C,1.700000*%
%ADD32R,1.700000X1.700000*%
G04 APERTURE END LIST*
D10*
%TO.C,U1*%
G36*
X146600000Y-95455000D02*
G01*
X149310000Y-95455000D01*
X149310000Y-98855000D01*
X146600000Y-98855000D01*
X146600000Y-95455000D01*
G37*
X146600000Y-95455000D02*
X149310000Y-95455000D01*
X149310000Y-98855000D01*
X146600000Y-98855000D01*
X146600000Y-95455000D01*
G36*
X146050000Y-95620000D02*
G01*
X144460000Y-95620000D01*
X144457383Y-95619931D01*
X144454774Y-95619726D01*
X144452178Y-95619384D01*
X144449604Y-95618907D01*
X144447059Y-95618296D01*
X144444549Y-95617553D01*
X144442082Y-95616679D01*
X144439663Y-95615677D01*
X144437300Y-95614550D01*
X144435000Y-95613301D01*
X144432768Y-95611934D01*
X144430611Y-95610451D01*
X144428534Y-95608857D01*
X144426543Y-95607157D01*
X144424645Y-95605355D01*
X144422843Y-95603457D01*
X144421143Y-95601466D01*
X144419549Y-95599389D01*
X144418066Y-95597232D01*
X144416699Y-95595000D01*
X144415450Y-95592700D01*
X144414323Y-95590337D01*
X144413321Y-95587918D01*
X144412447Y-95585451D01*
X144411704Y-95582941D01*
X144411093Y-95580396D01*
X144410616Y-95577822D01*
X144410274Y-95575226D01*
X144410069Y-95572617D01*
X144410000Y-95570000D01*
X144410000Y-94930000D01*
X144410069Y-94927383D01*
X144410274Y-94924774D01*
X144410616Y-94922178D01*
X144411093Y-94919604D01*
X144411704Y-94917059D01*
X144412447Y-94914549D01*
X144413321Y-94912082D01*
X144414323Y-94909663D01*
X144415450Y-94907300D01*
X144416699Y-94905000D01*
X144418066Y-94902768D01*
X144419549Y-94900611D01*
X144421143Y-94898534D01*
X144422843Y-94896543D01*
X144424645Y-94894645D01*
X144426543Y-94892843D01*
X144428534Y-94891143D01*
X144430611Y-94889549D01*
X144432768Y-94888066D01*
X144435000Y-94886699D01*
X144437300Y-94885450D01*
X144439663Y-94884323D01*
X144442082Y-94883321D01*
X144444549Y-94882447D01*
X144447059Y-94881704D01*
X144449604Y-94881093D01*
X144452178Y-94880616D01*
X144454774Y-94880274D01*
X144457383Y-94880069D01*
X144460000Y-94880000D01*
X146050000Y-94880000D01*
X146052617Y-94880069D01*
X146055226Y-94880274D01*
X146057822Y-94880616D01*
X146060396Y-94881093D01*
X146062941Y-94881704D01*
X146065451Y-94882447D01*
X146067918Y-94883321D01*
X146070337Y-94884323D01*
X146072700Y-94885450D01*
X146075000Y-94886699D01*
X146077232Y-94888066D01*
X146079389Y-94889549D01*
X146081466Y-94891143D01*
X146083457Y-94892843D01*
X146085355Y-94894645D01*
X146087157Y-94896543D01*
X146088857Y-94898534D01*
X146090451Y-94900611D01*
X146091934Y-94902768D01*
X146093301Y-94905000D01*
X146094550Y-94907300D01*
X146095677Y-94909663D01*
X146096679Y-94912082D01*
X146097553Y-94914549D01*
X146098296Y-94917059D01*
X146098907Y-94919604D01*
X146099384Y-94922178D01*
X146099726Y-94924774D01*
X146099931Y-94927383D01*
X146100000Y-94930000D01*
X146100000Y-95570000D01*
X146099931Y-95572617D01*
X146099726Y-95575226D01*
X146099384Y-95577822D01*
X146098907Y-95580396D01*
X146098296Y-95582941D01*
X146097553Y-95585451D01*
X146096679Y-95587918D01*
X146095677Y-95590337D01*
X146094550Y-95592700D01*
X146093301Y-95595000D01*
X146091934Y-95597232D01*
X146090451Y-95599389D01*
X146088857Y-95601466D01*
X146087157Y-95603457D01*
X146085355Y-95605355D01*
X146083457Y-95607157D01*
X146081466Y-95608857D01*
X146079389Y-95610451D01*
X146077232Y-95611934D01*
X146075000Y-95613301D01*
X146072700Y-95614550D01*
X146070337Y-95615677D01*
X146067918Y-95616679D01*
X146065451Y-95617553D01*
X146062941Y-95618296D01*
X146060396Y-95618907D01*
X146057822Y-95619384D01*
X146055226Y-95619726D01*
X146052617Y-95619931D01*
X146050000Y-95620000D01*
G37*
X146050000Y-95620000D02*
X144460000Y-95620000D01*
X144457383Y-95619931D01*
X144454774Y-95619726D01*
X144452178Y-95619384D01*
X144449604Y-95618907D01*
X144447059Y-95618296D01*
X144444549Y-95617553D01*
X144442082Y-95616679D01*
X144439663Y-95615677D01*
X144437300Y-95614550D01*
X144435000Y-95613301D01*
X144432768Y-95611934D01*
X144430611Y-95610451D01*
X144428534Y-95608857D01*
X144426543Y-95607157D01*
X144424645Y-95605355D01*
X144422843Y-95603457D01*
X144421143Y-95601466D01*
X144419549Y-95599389D01*
X144418066Y-95597232D01*
X144416699Y-95595000D01*
X144415450Y-95592700D01*
X144414323Y-95590337D01*
X144413321Y-95587918D01*
X144412447Y-95585451D01*
X144411704Y-95582941D01*
X144411093Y-95580396D01*
X144410616Y-95577822D01*
X144410274Y-95575226D01*
X144410069Y-95572617D01*
X144410000Y-95570000D01*
X144410000Y-94930000D01*
X144410069Y-94927383D01*
X144410274Y-94924774D01*
X144410616Y-94922178D01*
X144411093Y-94919604D01*
X144411704Y-94917059D01*
X144412447Y-94914549D01*
X144413321Y-94912082D01*
X144414323Y-94909663D01*
X144415450Y-94907300D01*
X144416699Y-94905000D01*
X144418066Y-94902768D01*
X144419549Y-94900611D01*
X144421143Y-94898534D01*
X144422843Y-94896543D01*
X144424645Y-94894645D01*
X144426543Y-94892843D01*
X144428534Y-94891143D01*
X144430611Y-94889549D01*
X144432768Y-94888066D01*
X144435000Y-94886699D01*
X144437300Y-94885450D01*
X144439663Y-94884323D01*
X144442082Y-94883321D01*
X144444549Y-94882447D01*
X144447059Y-94881704D01*
X144449604Y-94881093D01*
X144452178Y-94880616D01*
X144454774Y-94880274D01*
X144457383Y-94880069D01*
X144460000Y-94880000D01*
X146050000Y-94880000D01*
X146052617Y-94880069D01*
X146055226Y-94880274D01*
X146057822Y-94880616D01*
X146060396Y-94881093D01*
X146062941Y-94881704D01*
X146065451Y-94882447D01*
X146067918Y-94883321D01*
X146070337Y-94884323D01*
X146072700Y-94885450D01*
X146075000Y-94886699D01*
X146077232Y-94888066D01*
X146079389Y-94889549D01*
X146081466Y-94891143D01*
X146083457Y-94892843D01*
X146085355Y-94894645D01*
X146087157Y-94896543D01*
X146088857Y-94898534D01*
X146090451Y-94900611D01*
X146091934Y-94902768D01*
X146093301Y-94905000D01*
X146094550Y-94907300D01*
X146095677Y-94909663D01*
X146096679Y-94912082D01*
X146097553Y-94914549D01*
X146098296Y-94917059D01*
X146098907Y-94919604D01*
X146099384Y-94922178D01*
X146099726Y-94924774D01*
X146099931Y-94927383D01*
X146100000Y-94930000D01*
X146100000Y-95570000D01*
X146099931Y-95572617D01*
X146099726Y-95575226D01*
X146099384Y-95577822D01*
X146098907Y-95580396D01*
X146098296Y-95582941D01*
X146097553Y-95585451D01*
X146096679Y-95587918D01*
X146095677Y-95590337D01*
X146094550Y-95592700D01*
X146093301Y-95595000D01*
X146091934Y-95597232D01*
X146090451Y-95599389D01*
X146088857Y-95601466D01*
X146087157Y-95603457D01*
X146085355Y-95605355D01*
X146083457Y-95607157D01*
X146081466Y-95608857D01*
X146079389Y-95610451D01*
X146077232Y-95611934D01*
X146075000Y-95613301D01*
X146072700Y-95614550D01*
X146070337Y-95615677D01*
X146067918Y-95616679D01*
X146065451Y-95617553D01*
X146062941Y-95618296D01*
X146060396Y-95618907D01*
X146057822Y-95619384D01*
X146055226Y-95619726D01*
X146052617Y-95619931D01*
X146050000Y-95620000D01*
G36*
X146050000Y-96890000D02*
G01*
X144460000Y-96890000D01*
X144457383Y-96889931D01*
X144454774Y-96889726D01*
X144452178Y-96889384D01*
X144449604Y-96888907D01*
X144447059Y-96888296D01*
X144444549Y-96887553D01*
X144442082Y-96886679D01*
X144439663Y-96885677D01*
X144437300Y-96884550D01*
X144435000Y-96883301D01*
X144432768Y-96881934D01*
X144430611Y-96880451D01*
X144428534Y-96878857D01*
X144426543Y-96877157D01*
X144424645Y-96875355D01*
X144422843Y-96873457D01*
X144421143Y-96871466D01*
X144419549Y-96869389D01*
X144418066Y-96867232D01*
X144416699Y-96865000D01*
X144415450Y-96862700D01*
X144414323Y-96860337D01*
X144413321Y-96857918D01*
X144412447Y-96855451D01*
X144411704Y-96852941D01*
X144411093Y-96850396D01*
X144410616Y-96847822D01*
X144410274Y-96845226D01*
X144410069Y-96842617D01*
X144410000Y-96840000D01*
X144410000Y-96200000D01*
X144410069Y-96197383D01*
X144410274Y-96194774D01*
X144410616Y-96192178D01*
X144411093Y-96189604D01*
X144411704Y-96187059D01*
X144412447Y-96184549D01*
X144413321Y-96182082D01*
X144414323Y-96179663D01*
X144415450Y-96177300D01*
X144416699Y-96175000D01*
X144418066Y-96172768D01*
X144419549Y-96170611D01*
X144421143Y-96168534D01*
X144422843Y-96166543D01*
X144424645Y-96164645D01*
X144426543Y-96162843D01*
X144428534Y-96161143D01*
X144430611Y-96159549D01*
X144432768Y-96158066D01*
X144435000Y-96156699D01*
X144437300Y-96155450D01*
X144439663Y-96154323D01*
X144442082Y-96153321D01*
X144444549Y-96152447D01*
X144447059Y-96151704D01*
X144449604Y-96151093D01*
X144452178Y-96150616D01*
X144454774Y-96150274D01*
X144457383Y-96150069D01*
X144460000Y-96150000D01*
X146050000Y-96150000D01*
X146052617Y-96150069D01*
X146055226Y-96150274D01*
X146057822Y-96150616D01*
X146060396Y-96151093D01*
X146062941Y-96151704D01*
X146065451Y-96152447D01*
X146067918Y-96153321D01*
X146070337Y-96154323D01*
X146072700Y-96155450D01*
X146075000Y-96156699D01*
X146077232Y-96158066D01*
X146079389Y-96159549D01*
X146081466Y-96161143D01*
X146083457Y-96162843D01*
X146085355Y-96164645D01*
X146087157Y-96166543D01*
X146088857Y-96168534D01*
X146090451Y-96170611D01*
X146091934Y-96172768D01*
X146093301Y-96175000D01*
X146094550Y-96177300D01*
X146095677Y-96179663D01*
X146096679Y-96182082D01*
X146097553Y-96184549D01*
X146098296Y-96187059D01*
X146098907Y-96189604D01*
X146099384Y-96192178D01*
X146099726Y-96194774D01*
X146099931Y-96197383D01*
X146100000Y-96200000D01*
X146100000Y-96840000D01*
X146099931Y-96842617D01*
X146099726Y-96845226D01*
X146099384Y-96847822D01*
X146098907Y-96850396D01*
X146098296Y-96852941D01*
X146097553Y-96855451D01*
X146096679Y-96857918D01*
X146095677Y-96860337D01*
X146094550Y-96862700D01*
X146093301Y-96865000D01*
X146091934Y-96867232D01*
X146090451Y-96869389D01*
X146088857Y-96871466D01*
X146087157Y-96873457D01*
X146085355Y-96875355D01*
X146083457Y-96877157D01*
X146081466Y-96878857D01*
X146079389Y-96880451D01*
X146077232Y-96881934D01*
X146075000Y-96883301D01*
X146072700Y-96884550D01*
X146070337Y-96885677D01*
X146067918Y-96886679D01*
X146065451Y-96887553D01*
X146062941Y-96888296D01*
X146060396Y-96888907D01*
X146057822Y-96889384D01*
X146055226Y-96889726D01*
X146052617Y-96889931D01*
X146050000Y-96890000D01*
G37*
X146050000Y-96890000D02*
X144460000Y-96890000D01*
X144457383Y-96889931D01*
X144454774Y-96889726D01*
X144452178Y-96889384D01*
X144449604Y-96888907D01*
X144447059Y-96888296D01*
X144444549Y-96887553D01*
X144442082Y-96886679D01*
X144439663Y-96885677D01*
X144437300Y-96884550D01*
X144435000Y-96883301D01*
X144432768Y-96881934D01*
X144430611Y-96880451D01*
X144428534Y-96878857D01*
X144426543Y-96877157D01*
X144424645Y-96875355D01*
X144422843Y-96873457D01*
X144421143Y-96871466D01*
X144419549Y-96869389D01*
X144418066Y-96867232D01*
X144416699Y-96865000D01*
X144415450Y-96862700D01*
X144414323Y-96860337D01*
X144413321Y-96857918D01*
X144412447Y-96855451D01*
X144411704Y-96852941D01*
X144411093Y-96850396D01*
X144410616Y-96847822D01*
X144410274Y-96845226D01*
X144410069Y-96842617D01*
X144410000Y-96840000D01*
X144410000Y-96200000D01*
X144410069Y-96197383D01*
X144410274Y-96194774D01*
X144410616Y-96192178D01*
X144411093Y-96189604D01*
X144411704Y-96187059D01*
X144412447Y-96184549D01*
X144413321Y-96182082D01*
X144414323Y-96179663D01*
X144415450Y-96177300D01*
X144416699Y-96175000D01*
X144418066Y-96172768D01*
X144419549Y-96170611D01*
X144421143Y-96168534D01*
X144422843Y-96166543D01*
X144424645Y-96164645D01*
X144426543Y-96162843D01*
X144428534Y-96161143D01*
X144430611Y-96159549D01*
X144432768Y-96158066D01*
X144435000Y-96156699D01*
X144437300Y-96155450D01*
X144439663Y-96154323D01*
X144442082Y-96153321D01*
X144444549Y-96152447D01*
X144447059Y-96151704D01*
X144449604Y-96151093D01*
X144452178Y-96150616D01*
X144454774Y-96150274D01*
X144457383Y-96150069D01*
X144460000Y-96150000D01*
X146050000Y-96150000D01*
X146052617Y-96150069D01*
X146055226Y-96150274D01*
X146057822Y-96150616D01*
X146060396Y-96151093D01*
X146062941Y-96151704D01*
X146065451Y-96152447D01*
X146067918Y-96153321D01*
X146070337Y-96154323D01*
X146072700Y-96155450D01*
X146075000Y-96156699D01*
X146077232Y-96158066D01*
X146079389Y-96159549D01*
X146081466Y-96161143D01*
X146083457Y-96162843D01*
X146085355Y-96164645D01*
X146087157Y-96166543D01*
X146088857Y-96168534D01*
X146090451Y-96170611D01*
X146091934Y-96172768D01*
X146093301Y-96175000D01*
X146094550Y-96177300D01*
X146095677Y-96179663D01*
X146096679Y-96182082D01*
X146097553Y-96184549D01*
X146098296Y-96187059D01*
X146098907Y-96189604D01*
X146099384Y-96192178D01*
X146099726Y-96194774D01*
X146099931Y-96197383D01*
X146100000Y-96200000D01*
X146100000Y-96840000D01*
X146099931Y-96842617D01*
X146099726Y-96845226D01*
X146099384Y-96847822D01*
X146098907Y-96850396D01*
X146098296Y-96852941D01*
X146097553Y-96855451D01*
X146096679Y-96857918D01*
X146095677Y-96860337D01*
X146094550Y-96862700D01*
X146093301Y-96865000D01*
X146091934Y-96867232D01*
X146090451Y-96869389D01*
X146088857Y-96871466D01*
X146087157Y-96873457D01*
X146085355Y-96875355D01*
X146083457Y-96877157D01*
X146081466Y-96878857D01*
X146079389Y-96880451D01*
X146077232Y-96881934D01*
X146075000Y-96883301D01*
X146072700Y-96884550D01*
X146070337Y-96885677D01*
X146067918Y-96886679D01*
X146065451Y-96887553D01*
X146062941Y-96888296D01*
X146060396Y-96888907D01*
X146057822Y-96889384D01*
X146055226Y-96889726D01*
X146052617Y-96889931D01*
X146050000Y-96890000D01*
G36*
X146050000Y-98160000D02*
G01*
X144460000Y-98160000D01*
X144457383Y-98159931D01*
X144454774Y-98159726D01*
X144452178Y-98159384D01*
X144449604Y-98158907D01*
X144447059Y-98158296D01*
X144444549Y-98157553D01*
X144442082Y-98156679D01*
X144439663Y-98155677D01*
X144437300Y-98154550D01*
X144435000Y-98153301D01*
X144432768Y-98151934D01*
X144430611Y-98150451D01*
X144428534Y-98148857D01*
X144426543Y-98147157D01*
X144424645Y-98145355D01*
X144422843Y-98143457D01*
X144421143Y-98141466D01*
X144419549Y-98139389D01*
X144418066Y-98137232D01*
X144416699Y-98135000D01*
X144415450Y-98132700D01*
X144414323Y-98130337D01*
X144413321Y-98127918D01*
X144412447Y-98125451D01*
X144411704Y-98122941D01*
X144411093Y-98120396D01*
X144410616Y-98117822D01*
X144410274Y-98115226D01*
X144410069Y-98112617D01*
X144410000Y-98110000D01*
X144410000Y-97470000D01*
X144410069Y-97467383D01*
X144410274Y-97464774D01*
X144410616Y-97462178D01*
X144411093Y-97459604D01*
X144411704Y-97457059D01*
X144412447Y-97454549D01*
X144413321Y-97452082D01*
X144414323Y-97449663D01*
X144415450Y-97447300D01*
X144416699Y-97445000D01*
X144418066Y-97442768D01*
X144419549Y-97440611D01*
X144421143Y-97438534D01*
X144422843Y-97436543D01*
X144424645Y-97434645D01*
X144426543Y-97432843D01*
X144428534Y-97431143D01*
X144430611Y-97429549D01*
X144432768Y-97428066D01*
X144435000Y-97426699D01*
X144437300Y-97425450D01*
X144439663Y-97424323D01*
X144442082Y-97423321D01*
X144444549Y-97422447D01*
X144447059Y-97421704D01*
X144449604Y-97421093D01*
X144452178Y-97420616D01*
X144454774Y-97420274D01*
X144457383Y-97420069D01*
X144460000Y-97420000D01*
X146050000Y-97420000D01*
X146052617Y-97420069D01*
X146055226Y-97420274D01*
X146057822Y-97420616D01*
X146060396Y-97421093D01*
X146062941Y-97421704D01*
X146065451Y-97422447D01*
X146067918Y-97423321D01*
X146070337Y-97424323D01*
X146072700Y-97425450D01*
X146075000Y-97426699D01*
X146077232Y-97428066D01*
X146079389Y-97429549D01*
X146081466Y-97431143D01*
X146083457Y-97432843D01*
X146085355Y-97434645D01*
X146087157Y-97436543D01*
X146088857Y-97438534D01*
X146090451Y-97440611D01*
X146091934Y-97442768D01*
X146093301Y-97445000D01*
X146094550Y-97447300D01*
X146095677Y-97449663D01*
X146096679Y-97452082D01*
X146097553Y-97454549D01*
X146098296Y-97457059D01*
X146098907Y-97459604D01*
X146099384Y-97462178D01*
X146099726Y-97464774D01*
X146099931Y-97467383D01*
X146100000Y-97470000D01*
X146100000Y-98110000D01*
X146099931Y-98112617D01*
X146099726Y-98115226D01*
X146099384Y-98117822D01*
X146098907Y-98120396D01*
X146098296Y-98122941D01*
X146097553Y-98125451D01*
X146096679Y-98127918D01*
X146095677Y-98130337D01*
X146094550Y-98132700D01*
X146093301Y-98135000D01*
X146091934Y-98137232D01*
X146090451Y-98139389D01*
X146088857Y-98141466D01*
X146087157Y-98143457D01*
X146085355Y-98145355D01*
X146083457Y-98147157D01*
X146081466Y-98148857D01*
X146079389Y-98150451D01*
X146077232Y-98151934D01*
X146075000Y-98153301D01*
X146072700Y-98154550D01*
X146070337Y-98155677D01*
X146067918Y-98156679D01*
X146065451Y-98157553D01*
X146062941Y-98158296D01*
X146060396Y-98158907D01*
X146057822Y-98159384D01*
X146055226Y-98159726D01*
X146052617Y-98159931D01*
X146050000Y-98160000D01*
G37*
X146050000Y-98160000D02*
X144460000Y-98160000D01*
X144457383Y-98159931D01*
X144454774Y-98159726D01*
X144452178Y-98159384D01*
X144449604Y-98158907D01*
X144447059Y-98158296D01*
X144444549Y-98157553D01*
X144442082Y-98156679D01*
X144439663Y-98155677D01*
X144437300Y-98154550D01*
X144435000Y-98153301D01*
X144432768Y-98151934D01*
X144430611Y-98150451D01*
X144428534Y-98148857D01*
X144426543Y-98147157D01*
X144424645Y-98145355D01*
X144422843Y-98143457D01*
X144421143Y-98141466D01*
X144419549Y-98139389D01*
X144418066Y-98137232D01*
X144416699Y-98135000D01*
X144415450Y-98132700D01*
X144414323Y-98130337D01*
X144413321Y-98127918D01*
X144412447Y-98125451D01*
X144411704Y-98122941D01*
X144411093Y-98120396D01*
X144410616Y-98117822D01*
X144410274Y-98115226D01*
X144410069Y-98112617D01*
X144410000Y-98110000D01*
X144410000Y-97470000D01*
X144410069Y-97467383D01*
X144410274Y-97464774D01*
X144410616Y-97462178D01*
X144411093Y-97459604D01*
X144411704Y-97457059D01*
X144412447Y-97454549D01*
X144413321Y-97452082D01*
X144414323Y-97449663D01*
X144415450Y-97447300D01*
X144416699Y-97445000D01*
X144418066Y-97442768D01*
X144419549Y-97440611D01*
X144421143Y-97438534D01*
X144422843Y-97436543D01*
X144424645Y-97434645D01*
X144426543Y-97432843D01*
X144428534Y-97431143D01*
X144430611Y-97429549D01*
X144432768Y-97428066D01*
X144435000Y-97426699D01*
X144437300Y-97425450D01*
X144439663Y-97424323D01*
X144442082Y-97423321D01*
X144444549Y-97422447D01*
X144447059Y-97421704D01*
X144449604Y-97421093D01*
X144452178Y-97420616D01*
X144454774Y-97420274D01*
X144457383Y-97420069D01*
X144460000Y-97420000D01*
X146050000Y-97420000D01*
X146052617Y-97420069D01*
X146055226Y-97420274D01*
X146057822Y-97420616D01*
X146060396Y-97421093D01*
X146062941Y-97421704D01*
X146065451Y-97422447D01*
X146067918Y-97423321D01*
X146070337Y-97424323D01*
X146072700Y-97425450D01*
X146075000Y-97426699D01*
X146077232Y-97428066D01*
X146079389Y-97429549D01*
X146081466Y-97431143D01*
X146083457Y-97432843D01*
X146085355Y-97434645D01*
X146087157Y-97436543D01*
X146088857Y-97438534D01*
X146090451Y-97440611D01*
X146091934Y-97442768D01*
X146093301Y-97445000D01*
X146094550Y-97447300D01*
X146095677Y-97449663D01*
X146096679Y-97452082D01*
X146097553Y-97454549D01*
X146098296Y-97457059D01*
X146098907Y-97459604D01*
X146099384Y-97462178D01*
X146099726Y-97464774D01*
X146099931Y-97467383D01*
X146100000Y-97470000D01*
X146100000Y-98110000D01*
X146099931Y-98112617D01*
X146099726Y-98115226D01*
X146099384Y-98117822D01*
X146098907Y-98120396D01*
X146098296Y-98122941D01*
X146097553Y-98125451D01*
X146096679Y-98127918D01*
X146095677Y-98130337D01*
X146094550Y-98132700D01*
X146093301Y-98135000D01*
X146091934Y-98137232D01*
X146090451Y-98139389D01*
X146088857Y-98141466D01*
X146087157Y-98143457D01*
X146085355Y-98145355D01*
X146083457Y-98147157D01*
X146081466Y-98148857D01*
X146079389Y-98150451D01*
X146077232Y-98151934D01*
X146075000Y-98153301D01*
X146072700Y-98154550D01*
X146070337Y-98155677D01*
X146067918Y-98156679D01*
X146065451Y-98157553D01*
X146062941Y-98158296D01*
X146060396Y-98158907D01*
X146057822Y-98159384D01*
X146055226Y-98159726D01*
X146052617Y-98159931D01*
X146050000Y-98160000D01*
G36*
X146050000Y-99430000D02*
G01*
X144460000Y-99430000D01*
X144457383Y-99429931D01*
X144454774Y-99429726D01*
X144452178Y-99429384D01*
X144449604Y-99428907D01*
X144447059Y-99428296D01*
X144444549Y-99427553D01*
X144442082Y-99426679D01*
X144439663Y-99425677D01*
X144437300Y-99424550D01*
X144435000Y-99423301D01*
X144432768Y-99421934D01*
X144430611Y-99420451D01*
X144428534Y-99418857D01*
X144426543Y-99417157D01*
X144424645Y-99415355D01*
X144422843Y-99413457D01*
X144421143Y-99411466D01*
X144419549Y-99409389D01*
X144418066Y-99407232D01*
X144416699Y-99405000D01*
X144415450Y-99402700D01*
X144414323Y-99400337D01*
X144413321Y-99397918D01*
X144412447Y-99395451D01*
X144411704Y-99392941D01*
X144411093Y-99390396D01*
X144410616Y-99387822D01*
X144410274Y-99385226D01*
X144410069Y-99382617D01*
X144410000Y-99380000D01*
X144410000Y-98740000D01*
X144410069Y-98737383D01*
X144410274Y-98734774D01*
X144410616Y-98732178D01*
X144411093Y-98729604D01*
X144411704Y-98727059D01*
X144412447Y-98724549D01*
X144413321Y-98722082D01*
X144414323Y-98719663D01*
X144415450Y-98717300D01*
X144416699Y-98715000D01*
X144418066Y-98712768D01*
X144419549Y-98710611D01*
X144421143Y-98708534D01*
X144422843Y-98706543D01*
X144424645Y-98704645D01*
X144426543Y-98702843D01*
X144428534Y-98701143D01*
X144430611Y-98699549D01*
X144432768Y-98698066D01*
X144435000Y-98696699D01*
X144437300Y-98695450D01*
X144439663Y-98694323D01*
X144442082Y-98693321D01*
X144444549Y-98692447D01*
X144447059Y-98691704D01*
X144449604Y-98691093D01*
X144452178Y-98690616D01*
X144454774Y-98690274D01*
X144457383Y-98690069D01*
X144460000Y-98690000D01*
X146050000Y-98690000D01*
X146052617Y-98690069D01*
X146055226Y-98690274D01*
X146057822Y-98690616D01*
X146060396Y-98691093D01*
X146062941Y-98691704D01*
X146065451Y-98692447D01*
X146067918Y-98693321D01*
X146070337Y-98694323D01*
X146072700Y-98695450D01*
X146075000Y-98696699D01*
X146077232Y-98698066D01*
X146079389Y-98699549D01*
X146081466Y-98701143D01*
X146083457Y-98702843D01*
X146085355Y-98704645D01*
X146087157Y-98706543D01*
X146088857Y-98708534D01*
X146090451Y-98710611D01*
X146091934Y-98712768D01*
X146093301Y-98715000D01*
X146094550Y-98717300D01*
X146095677Y-98719663D01*
X146096679Y-98722082D01*
X146097553Y-98724549D01*
X146098296Y-98727059D01*
X146098907Y-98729604D01*
X146099384Y-98732178D01*
X146099726Y-98734774D01*
X146099931Y-98737383D01*
X146100000Y-98740000D01*
X146100000Y-99380000D01*
X146099931Y-99382617D01*
X146099726Y-99385226D01*
X146099384Y-99387822D01*
X146098907Y-99390396D01*
X146098296Y-99392941D01*
X146097553Y-99395451D01*
X146096679Y-99397918D01*
X146095677Y-99400337D01*
X146094550Y-99402700D01*
X146093301Y-99405000D01*
X146091934Y-99407232D01*
X146090451Y-99409389D01*
X146088857Y-99411466D01*
X146087157Y-99413457D01*
X146085355Y-99415355D01*
X146083457Y-99417157D01*
X146081466Y-99418857D01*
X146079389Y-99420451D01*
X146077232Y-99421934D01*
X146075000Y-99423301D01*
X146072700Y-99424550D01*
X146070337Y-99425677D01*
X146067918Y-99426679D01*
X146065451Y-99427553D01*
X146062941Y-99428296D01*
X146060396Y-99428907D01*
X146057822Y-99429384D01*
X146055226Y-99429726D01*
X146052617Y-99429931D01*
X146050000Y-99430000D01*
G37*
X146050000Y-99430000D02*
X144460000Y-99430000D01*
X144457383Y-99429931D01*
X144454774Y-99429726D01*
X144452178Y-99429384D01*
X144449604Y-99428907D01*
X144447059Y-99428296D01*
X144444549Y-99427553D01*
X144442082Y-99426679D01*
X144439663Y-99425677D01*
X144437300Y-99424550D01*
X144435000Y-99423301D01*
X144432768Y-99421934D01*
X144430611Y-99420451D01*
X144428534Y-99418857D01*
X144426543Y-99417157D01*
X144424645Y-99415355D01*
X144422843Y-99413457D01*
X144421143Y-99411466D01*
X144419549Y-99409389D01*
X144418066Y-99407232D01*
X144416699Y-99405000D01*
X144415450Y-99402700D01*
X144414323Y-99400337D01*
X144413321Y-99397918D01*
X144412447Y-99395451D01*
X144411704Y-99392941D01*
X144411093Y-99390396D01*
X144410616Y-99387822D01*
X144410274Y-99385226D01*
X144410069Y-99382617D01*
X144410000Y-99380000D01*
X144410000Y-98740000D01*
X144410069Y-98737383D01*
X144410274Y-98734774D01*
X144410616Y-98732178D01*
X144411093Y-98729604D01*
X144411704Y-98727059D01*
X144412447Y-98724549D01*
X144413321Y-98722082D01*
X144414323Y-98719663D01*
X144415450Y-98717300D01*
X144416699Y-98715000D01*
X144418066Y-98712768D01*
X144419549Y-98710611D01*
X144421143Y-98708534D01*
X144422843Y-98706543D01*
X144424645Y-98704645D01*
X144426543Y-98702843D01*
X144428534Y-98701143D01*
X144430611Y-98699549D01*
X144432768Y-98698066D01*
X144435000Y-98696699D01*
X144437300Y-98695450D01*
X144439663Y-98694323D01*
X144442082Y-98693321D01*
X144444549Y-98692447D01*
X144447059Y-98691704D01*
X144449604Y-98691093D01*
X144452178Y-98690616D01*
X144454774Y-98690274D01*
X144457383Y-98690069D01*
X144460000Y-98690000D01*
X146050000Y-98690000D01*
X146052617Y-98690069D01*
X146055226Y-98690274D01*
X146057822Y-98690616D01*
X146060396Y-98691093D01*
X146062941Y-98691704D01*
X146065451Y-98692447D01*
X146067918Y-98693321D01*
X146070337Y-98694323D01*
X146072700Y-98695450D01*
X146075000Y-98696699D01*
X146077232Y-98698066D01*
X146079389Y-98699549D01*
X146081466Y-98701143D01*
X146083457Y-98702843D01*
X146085355Y-98704645D01*
X146087157Y-98706543D01*
X146088857Y-98708534D01*
X146090451Y-98710611D01*
X146091934Y-98712768D01*
X146093301Y-98715000D01*
X146094550Y-98717300D01*
X146095677Y-98719663D01*
X146096679Y-98722082D01*
X146097553Y-98724549D01*
X146098296Y-98727059D01*
X146098907Y-98729604D01*
X146099384Y-98732178D01*
X146099726Y-98734774D01*
X146099931Y-98737383D01*
X146100000Y-98740000D01*
X146100000Y-99380000D01*
X146099931Y-99382617D01*
X146099726Y-99385226D01*
X146099384Y-99387822D01*
X146098907Y-99390396D01*
X146098296Y-99392941D01*
X146097553Y-99395451D01*
X146096679Y-99397918D01*
X146095677Y-99400337D01*
X146094550Y-99402700D01*
X146093301Y-99405000D01*
X146091934Y-99407232D01*
X146090451Y-99409389D01*
X146088857Y-99411466D01*
X146087157Y-99413457D01*
X146085355Y-99415355D01*
X146083457Y-99417157D01*
X146081466Y-99418857D01*
X146079389Y-99420451D01*
X146077232Y-99421934D01*
X146075000Y-99423301D01*
X146072700Y-99424550D01*
X146070337Y-99425677D01*
X146067918Y-99426679D01*
X146065451Y-99427553D01*
X146062941Y-99428296D01*
X146060396Y-99428907D01*
X146057822Y-99429384D01*
X146055226Y-99429726D01*
X146052617Y-99429931D01*
X146050000Y-99430000D01*
G36*
X151450000Y-95620000D02*
G01*
X149860000Y-95620000D01*
X149857383Y-95619931D01*
X149854774Y-95619726D01*
X149852178Y-95619384D01*
X149849604Y-95618907D01*
X149847059Y-95618296D01*
X149844549Y-95617553D01*
X149842082Y-95616679D01*
X149839663Y-95615677D01*
X149837300Y-95614550D01*
X149835000Y-95613301D01*
X149832768Y-95611934D01*
X149830611Y-95610451D01*
X149828534Y-95608857D01*
X149826543Y-95607157D01*
X149824645Y-95605355D01*
X149822843Y-95603457D01*
X149821143Y-95601466D01*
X149819549Y-95599389D01*
X149818066Y-95597232D01*
X149816699Y-95595000D01*
X149815450Y-95592700D01*
X149814323Y-95590337D01*
X149813321Y-95587918D01*
X149812447Y-95585451D01*
X149811704Y-95582941D01*
X149811093Y-95580396D01*
X149810616Y-95577822D01*
X149810274Y-95575226D01*
X149810069Y-95572617D01*
X149810000Y-95570000D01*
X149810000Y-94930000D01*
X149810069Y-94927383D01*
X149810274Y-94924774D01*
X149810616Y-94922178D01*
X149811093Y-94919604D01*
X149811704Y-94917059D01*
X149812447Y-94914549D01*
X149813321Y-94912082D01*
X149814323Y-94909663D01*
X149815450Y-94907300D01*
X149816699Y-94905000D01*
X149818066Y-94902768D01*
X149819549Y-94900611D01*
X149821143Y-94898534D01*
X149822843Y-94896543D01*
X149824645Y-94894645D01*
X149826543Y-94892843D01*
X149828534Y-94891143D01*
X149830611Y-94889549D01*
X149832768Y-94888066D01*
X149835000Y-94886699D01*
X149837300Y-94885450D01*
X149839663Y-94884323D01*
X149842082Y-94883321D01*
X149844549Y-94882447D01*
X149847059Y-94881704D01*
X149849604Y-94881093D01*
X149852178Y-94880616D01*
X149854774Y-94880274D01*
X149857383Y-94880069D01*
X149860000Y-94880000D01*
X151450000Y-94880000D01*
X151452617Y-94880069D01*
X151455226Y-94880274D01*
X151457822Y-94880616D01*
X151460396Y-94881093D01*
X151462941Y-94881704D01*
X151465451Y-94882447D01*
X151467918Y-94883321D01*
X151470337Y-94884323D01*
X151472700Y-94885450D01*
X151475000Y-94886699D01*
X151477232Y-94888066D01*
X151479389Y-94889549D01*
X151481466Y-94891143D01*
X151483457Y-94892843D01*
X151485355Y-94894645D01*
X151487157Y-94896543D01*
X151488857Y-94898534D01*
X151490451Y-94900611D01*
X151491934Y-94902768D01*
X151493301Y-94905000D01*
X151494550Y-94907300D01*
X151495677Y-94909663D01*
X151496679Y-94912082D01*
X151497553Y-94914549D01*
X151498296Y-94917059D01*
X151498907Y-94919604D01*
X151499384Y-94922178D01*
X151499726Y-94924774D01*
X151499931Y-94927383D01*
X151500000Y-94930000D01*
X151500000Y-95570000D01*
X151499931Y-95572617D01*
X151499726Y-95575226D01*
X151499384Y-95577822D01*
X151498907Y-95580396D01*
X151498296Y-95582941D01*
X151497553Y-95585451D01*
X151496679Y-95587918D01*
X151495677Y-95590337D01*
X151494550Y-95592700D01*
X151493301Y-95595000D01*
X151491934Y-95597232D01*
X151490451Y-95599389D01*
X151488857Y-95601466D01*
X151487157Y-95603457D01*
X151485355Y-95605355D01*
X151483457Y-95607157D01*
X151481466Y-95608857D01*
X151479389Y-95610451D01*
X151477232Y-95611934D01*
X151475000Y-95613301D01*
X151472700Y-95614550D01*
X151470337Y-95615677D01*
X151467918Y-95616679D01*
X151465451Y-95617553D01*
X151462941Y-95618296D01*
X151460396Y-95618907D01*
X151457822Y-95619384D01*
X151455226Y-95619726D01*
X151452617Y-95619931D01*
X151450000Y-95620000D01*
G37*
X151450000Y-95620000D02*
X149860000Y-95620000D01*
X149857383Y-95619931D01*
X149854774Y-95619726D01*
X149852178Y-95619384D01*
X149849604Y-95618907D01*
X149847059Y-95618296D01*
X149844549Y-95617553D01*
X149842082Y-95616679D01*
X149839663Y-95615677D01*
X149837300Y-95614550D01*
X149835000Y-95613301D01*
X149832768Y-95611934D01*
X149830611Y-95610451D01*
X149828534Y-95608857D01*
X149826543Y-95607157D01*
X149824645Y-95605355D01*
X149822843Y-95603457D01*
X149821143Y-95601466D01*
X149819549Y-95599389D01*
X149818066Y-95597232D01*
X149816699Y-95595000D01*
X149815450Y-95592700D01*
X149814323Y-95590337D01*
X149813321Y-95587918D01*
X149812447Y-95585451D01*
X149811704Y-95582941D01*
X149811093Y-95580396D01*
X149810616Y-95577822D01*
X149810274Y-95575226D01*
X149810069Y-95572617D01*
X149810000Y-95570000D01*
X149810000Y-94930000D01*
X149810069Y-94927383D01*
X149810274Y-94924774D01*
X149810616Y-94922178D01*
X149811093Y-94919604D01*
X149811704Y-94917059D01*
X149812447Y-94914549D01*
X149813321Y-94912082D01*
X149814323Y-94909663D01*
X149815450Y-94907300D01*
X149816699Y-94905000D01*
X149818066Y-94902768D01*
X149819549Y-94900611D01*
X149821143Y-94898534D01*
X149822843Y-94896543D01*
X149824645Y-94894645D01*
X149826543Y-94892843D01*
X149828534Y-94891143D01*
X149830611Y-94889549D01*
X149832768Y-94888066D01*
X149835000Y-94886699D01*
X149837300Y-94885450D01*
X149839663Y-94884323D01*
X149842082Y-94883321D01*
X149844549Y-94882447D01*
X149847059Y-94881704D01*
X149849604Y-94881093D01*
X149852178Y-94880616D01*
X149854774Y-94880274D01*
X149857383Y-94880069D01*
X149860000Y-94880000D01*
X151450000Y-94880000D01*
X151452617Y-94880069D01*
X151455226Y-94880274D01*
X151457822Y-94880616D01*
X151460396Y-94881093D01*
X151462941Y-94881704D01*
X151465451Y-94882447D01*
X151467918Y-94883321D01*
X151470337Y-94884323D01*
X151472700Y-94885450D01*
X151475000Y-94886699D01*
X151477232Y-94888066D01*
X151479389Y-94889549D01*
X151481466Y-94891143D01*
X151483457Y-94892843D01*
X151485355Y-94894645D01*
X151487157Y-94896543D01*
X151488857Y-94898534D01*
X151490451Y-94900611D01*
X151491934Y-94902768D01*
X151493301Y-94905000D01*
X151494550Y-94907300D01*
X151495677Y-94909663D01*
X151496679Y-94912082D01*
X151497553Y-94914549D01*
X151498296Y-94917059D01*
X151498907Y-94919604D01*
X151499384Y-94922178D01*
X151499726Y-94924774D01*
X151499931Y-94927383D01*
X151500000Y-94930000D01*
X151500000Y-95570000D01*
X151499931Y-95572617D01*
X151499726Y-95575226D01*
X151499384Y-95577822D01*
X151498907Y-95580396D01*
X151498296Y-95582941D01*
X151497553Y-95585451D01*
X151496679Y-95587918D01*
X151495677Y-95590337D01*
X151494550Y-95592700D01*
X151493301Y-95595000D01*
X151491934Y-95597232D01*
X151490451Y-95599389D01*
X151488857Y-95601466D01*
X151487157Y-95603457D01*
X151485355Y-95605355D01*
X151483457Y-95607157D01*
X151481466Y-95608857D01*
X151479389Y-95610451D01*
X151477232Y-95611934D01*
X151475000Y-95613301D01*
X151472700Y-95614550D01*
X151470337Y-95615677D01*
X151467918Y-95616679D01*
X151465451Y-95617553D01*
X151462941Y-95618296D01*
X151460396Y-95618907D01*
X151457822Y-95619384D01*
X151455226Y-95619726D01*
X151452617Y-95619931D01*
X151450000Y-95620000D01*
G36*
X151450000Y-96890000D02*
G01*
X149860000Y-96890000D01*
X149857383Y-96889931D01*
X149854774Y-96889726D01*
X149852178Y-96889384D01*
X149849604Y-96888907D01*
X149847059Y-96888296D01*
X149844549Y-96887553D01*
X149842082Y-96886679D01*
X149839663Y-96885677D01*
X149837300Y-96884550D01*
X149835000Y-96883301D01*
X149832768Y-96881934D01*
X149830611Y-96880451D01*
X149828534Y-96878857D01*
X149826543Y-96877157D01*
X149824645Y-96875355D01*
X149822843Y-96873457D01*
X149821143Y-96871466D01*
X149819549Y-96869389D01*
X149818066Y-96867232D01*
X149816699Y-96865000D01*
X149815450Y-96862700D01*
X149814323Y-96860337D01*
X149813321Y-96857918D01*
X149812447Y-96855451D01*
X149811704Y-96852941D01*
X149811093Y-96850396D01*
X149810616Y-96847822D01*
X149810274Y-96845226D01*
X149810069Y-96842617D01*
X149810000Y-96840000D01*
X149810000Y-96200000D01*
X149810069Y-96197383D01*
X149810274Y-96194774D01*
X149810616Y-96192178D01*
X149811093Y-96189604D01*
X149811704Y-96187059D01*
X149812447Y-96184549D01*
X149813321Y-96182082D01*
X149814323Y-96179663D01*
X149815450Y-96177300D01*
X149816699Y-96175000D01*
X149818066Y-96172768D01*
X149819549Y-96170611D01*
X149821143Y-96168534D01*
X149822843Y-96166543D01*
X149824645Y-96164645D01*
X149826543Y-96162843D01*
X149828534Y-96161143D01*
X149830611Y-96159549D01*
X149832768Y-96158066D01*
X149835000Y-96156699D01*
X149837300Y-96155450D01*
X149839663Y-96154323D01*
X149842082Y-96153321D01*
X149844549Y-96152447D01*
X149847059Y-96151704D01*
X149849604Y-96151093D01*
X149852178Y-96150616D01*
X149854774Y-96150274D01*
X149857383Y-96150069D01*
X149860000Y-96150000D01*
X151450000Y-96150000D01*
X151452617Y-96150069D01*
X151455226Y-96150274D01*
X151457822Y-96150616D01*
X151460396Y-96151093D01*
X151462941Y-96151704D01*
X151465451Y-96152447D01*
X151467918Y-96153321D01*
X151470337Y-96154323D01*
X151472700Y-96155450D01*
X151475000Y-96156699D01*
X151477232Y-96158066D01*
X151479389Y-96159549D01*
X151481466Y-96161143D01*
X151483457Y-96162843D01*
X151485355Y-96164645D01*
X151487157Y-96166543D01*
X151488857Y-96168534D01*
X151490451Y-96170611D01*
X151491934Y-96172768D01*
X151493301Y-96175000D01*
X151494550Y-96177300D01*
X151495677Y-96179663D01*
X151496679Y-96182082D01*
X151497553Y-96184549D01*
X151498296Y-96187059D01*
X151498907Y-96189604D01*
X151499384Y-96192178D01*
X151499726Y-96194774D01*
X151499931Y-96197383D01*
X151500000Y-96200000D01*
X151500000Y-96840000D01*
X151499931Y-96842617D01*
X151499726Y-96845226D01*
X151499384Y-96847822D01*
X151498907Y-96850396D01*
X151498296Y-96852941D01*
X151497553Y-96855451D01*
X151496679Y-96857918D01*
X151495677Y-96860337D01*
X151494550Y-96862700D01*
X151493301Y-96865000D01*
X151491934Y-96867232D01*
X151490451Y-96869389D01*
X151488857Y-96871466D01*
X151487157Y-96873457D01*
X151485355Y-96875355D01*
X151483457Y-96877157D01*
X151481466Y-96878857D01*
X151479389Y-96880451D01*
X151477232Y-96881934D01*
X151475000Y-96883301D01*
X151472700Y-96884550D01*
X151470337Y-96885677D01*
X151467918Y-96886679D01*
X151465451Y-96887553D01*
X151462941Y-96888296D01*
X151460396Y-96888907D01*
X151457822Y-96889384D01*
X151455226Y-96889726D01*
X151452617Y-96889931D01*
X151450000Y-96890000D01*
G37*
X151450000Y-96890000D02*
X149860000Y-96890000D01*
X149857383Y-96889931D01*
X149854774Y-96889726D01*
X149852178Y-96889384D01*
X149849604Y-96888907D01*
X149847059Y-96888296D01*
X149844549Y-96887553D01*
X149842082Y-96886679D01*
X149839663Y-96885677D01*
X149837300Y-96884550D01*
X149835000Y-96883301D01*
X149832768Y-96881934D01*
X149830611Y-96880451D01*
X149828534Y-96878857D01*
X149826543Y-96877157D01*
X149824645Y-96875355D01*
X149822843Y-96873457D01*
X149821143Y-96871466D01*
X149819549Y-96869389D01*
X149818066Y-96867232D01*
X149816699Y-96865000D01*
X149815450Y-96862700D01*
X149814323Y-96860337D01*
X149813321Y-96857918D01*
X149812447Y-96855451D01*
X149811704Y-96852941D01*
X149811093Y-96850396D01*
X149810616Y-96847822D01*
X149810274Y-96845226D01*
X149810069Y-96842617D01*
X149810000Y-96840000D01*
X149810000Y-96200000D01*
X149810069Y-96197383D01*
X149810274Y-96194774D01*
X149810616Y-96192178D01*
X149811093Y-96189604D01*
X149811704Y-96187059D01*
X149812447Y-96184549D01*
X149813321Y-96182082D01*
X149814323Y-96179663D01*
X149815450Y-96177300D01*
X149816699Y-96175000D01*
X149818066Y-96172768D01*
X149819549Y-96170611D01*
X149821143Y-96168534D01*
X149822843Y-96166543D01*
X149824645Y-96164645D01*
X149826543Y-96162843D01*
X149828534Y-96161143D01*
X149830611Y-96159549D01*
X149832768Y-96158066D01*
X149835000Y-96156699D01*
X149837300Y-96155450D01*
X149839663Y-96154323D01*
X149842082Y-96153321D01*
X149844549Y-96152447D01*
X149847059Y-96151704D01*
X149849604Y-96151093D01*
X149852178Y-96150616D01*
X149854774Y-96150274D01*
X149857383Y-96150069D01*
X149860000Y-96150000D01*
X151450000Y-96150000D01*
X151452617Y-96150069D01*
X151455226Y-96150274D01*
X151457822Y-96150616D01*
X151460396Y-96151093D01*
X151462941Y-96151704D01*
X151465451Y-96152447D01*
X151467918Y-96153321D01*
X151470337Y-96154323D01*
X151472700Y-96155450D01*
X151475000Y-96156699D01*
X151477232Y-96158066D01*
X151479389Y-96159549D01*
X151481466Y-96161143D01*
X151483457Y-96162843D01*
X151485355Y-96164645D01*
X151487157Y-96166543D01*
X151488857Y-96168534D01*
X151490451Y-96170611D01*
X151491934Y-96172768D01*
X151493301Y-96175000D01*
X151494550Y-96177300D01*
X151495677Y-96179663D01*
X151496679Y-96182082D01*
X151497553Y-96184549D01*
X151498296Y-96187059D01*
X151498907Y-96189604D01*
X151499384Y-96192178D01*
X151499726Y-96194774D01*
X151499931Y-96197383D01*
X151500000Y-96200000D01*
X151500000Y-96840000D01*
X151499931Y-96842617D01*
X151499726Y-96845226D01*
X151499384Y-96847822D01*
X151498907Y-96850396D01*
X151498296Y-96852941D01*
X151497553Y-96855451D01*
X151496679Y-96857918D01*
X151495677Y-96860337D01*
X151494550Y-96862700D01*
X151493301Y-96865000D01*
X151491934Y-96867232D01*
X151490451Y-96869389D01*
X151488857Y-96871466D01*
X151487157Y-96873457D01*
X151485355Y-96875355D01*
X151483457Y-96877157D01*
X151481466Y-96878857D01*
X151479389Y-96880451D01*
X151477232Y-96881934D01*
X151475000Y-96883301D01*
X151472700Y-96884550D01*
X151470337Y-96885677D01*
X151467918Y-96886679D01*
X151465451Y-96887553D01*
X151462941Y-96888296D01*
X151460396Y-96888907D01*
X151457822Y-96889384D01*
X151455226Y-96889726D01*
X151452617Y-96889931D01*
X151450000Y-96890000D01*
G36*
X151450000Y-98160000D02*
G01*
X149860000Y-98160000D01*
X149857383Y-98159931D01*
X149854774Y-98159726D01*
X149852178Y-98159384D01*
X149849604Y-98158907D01*
X149847059Y-98158296D01*
X149844549Y-98157553D01*
X149842082Y-98156679D01*
X149839663Y-98155677D01*
X149837300Y-98154550D01*
X149835000Y-98153301D01*
X149832768Y-98151934D01*
X149830611Y-98150451D01*
X149828534Y-98148857D01*
X149826543Y-98147157D01*
X149824645Y-98145355D01*
X149822843Y-98143457D01*
X149821143Y-98141466D01*
X149819549Y-98139389D01*
X149818066Y-98137232D01*
X149816699Y-98135000D01*
X149815450Y-98132700D01*
X149814323Y-98130337D01*
X149813321Y-98127918D01*
X149812447Y-98125451D01*
X149811704Y-98122941D01*
X149811093Y-98120396D01*
X149810616Y-98117822D01*
X149810274Y-98115226D01*
X149810069Y-98112617D01*
X149810000Y-98110000D01*
X149810000Y-97470000D01*
X149810069Y-97467383D01*
X149810274Y-97464774D01*
X149810616Y-97462178D01*
X149811093Y-97459604D01*
X149811704Y-97457059D01*
X149812447Y-97454549D01*
X149813321Y-97452082D01*
X149814323Y-97449663D01*
X149815450Y-97447300D01*
X149816699Y-97445000D01*
X149818066Y-97442768D01*
X149819549Y-97440611D01*
X149821143Y-97438534D01*
X149822843Y-97436543D01*
X149824645Y-97434645D01*
X149826543Y-97432843D01*
X149828534Y-97431143D01*
X149830611Y-97429549D01*
X149832768Y-97428066D01*
X149835000Y-97426699D01*
X149837300Y-97425450D01*
X149839663Y-97424323D01*
X149842082Y-97423321D01*
X149844549Y-97422447D01*
X149847059Y-97421704D01*
X149849604Y-97421093D01*
X149852178Y-97420616D01*
X149854774Y-97420274D01*
X149857383Y-97420069D01*
X149860000Y-97420000D01*
X151450000Y-97420000D01*
X151452617Y-97420069D01*
X151455226Y-97420274D01*
X151457822Y-97420616D01*
X151460396Y-97421093D01*
X151462941Y-97421704D01*
X151465451Y-97422447D01*
X151467918Y-97423321D01*
X151470337Y-97424323D01*
X151472700Y-97425450D01*
X151475000Y-97426699D01*
X151477232Y-97428066D01*
X151479389Y-97429549D01*
X151481466Y-97431143D01*
X151483457Y-97432843D01*
X151485355Y-97434645D01*
X151487157Y-97436543D01*
X151488857Y-97438534D01*
X151490451Y-97440611D01*
X151491934Y-97442768D01*
X151493301Y-97445000D01*
X151494550Y-97447300D01*
X151495677Y-97449663D01*
X151496679Y-97452082D01*
X151497553Y-97454549D01*
X151498296Y-97457059D01*
X151498907Y-97459604D01*
X151499384Y-97462178D01*
X151499726Y-97464774D01*
X151499931Y-97467383D01*
X151500000Y-97470000D01*
X151500000Y-98110000D01*
X151499931Y-98112617D01*
X151499726Y-98115226D01*
X151499384Y-98117822D01*
X151498907Y-98120396D01*
X151498296Y-98122941D01*
X151497553Y-98125451D01*
X151496679Y-98127918D01*
X151495677Y-98130337D01*
X151494550Y-98132700D01*
X151493301Y-98135000D01*
X151491934Y-98137232D01*
X151490451Y-98139389D01*
X151488857Y-98141466D01*
X151487157Y-98143457D01*
X151485355Y-98145355D01*
X151483457Y-98147157D01*
X151481466Y-98148857D01*
X151479389Y-98150451D01*
X151477232Y-98151934D01*
X151475000Y-98153301D01*
X151472700Y-98154550D01*
X151470337Y-98155677D01*
X151467918Y-98156679D01*
X151465451Y-98157553D01*
X151462941Y-98158296D01*
X151460396Y-98158907D01*
X151457822Y-98159384D01*
X151455226Y-98159726D01*
X151452617Y-98159931D01*
X151450000Y-98160000D01*
G37*
X151450000Y-98160000D02*
X149860000Y-98160000D01*
X149857383Y-98159931D01*
X149854774Y-98159726D01*
X149852178Y-98159384D01*
X149849604Y-98158907D01*
X149847059Y-98158296D01*
X149844549Y-98157553D01*
X149842082Y-98156679D01*
X149839663Y-98155677D01*
X149837300Y-98154550D01*
X149835000Y-98153301D01*
X149832768Y-98151934D01*
X149830611Y-98150451D01*
X149828534Y-98148857D01*
X149826543Y-98147157D01*
X149824645Y-98145355D01*
X149822843Y-98143457D01*
X149821143Y-98141466D01*
X149819549Y-98139389D01*
X149818066Y-98137232D01*
X149816699Y-98135000D01*
X149815450Y-98132700D01*
X149814323Y-98130337D01*
X149813321Y-98127918D01*
X149812447Y-98125451D01*
X149811704Y-98122941D01*
X149811093Y-98120396D01*
X149810616Y-98117822D01*
X149810274Y-98115226D01*
X149810069Y-98112617D01*
X149810000Y-98110000D01*
X149810000Y-97470000D01*
X149810069Y-97467383D01*
X149810274Y-97464774D01*
X149810616Y-97462178D01*
X149811093Y-97459604D01*
X149811704Y-97457059D01*
X149812447Y-97454549D01*
X149813321Y-97452082D01*
X149814323Y-97449663D01*
X149815450Y-97447300D01*
X149816699Y-97445000D01*
X149818066Y-97442768D01*
X149819549Y-97440611D01*
X149821143Y-97438534D01*
X149822843Y-97436543D01*
X149824645Y-97434645D01*
X149826543Y-97432843D01*
X149828534Y-97431143D01*
X149830611Y-97429549D01*
X149832768Y-97428066D01*
X149835000Y-97426699D01*
X149837300Y-97425450D01*
X149839663Y-97424323D01*
X149842082Y-97423321D01*
X149844549Y-97422447D01*
X149847059Y-97421704D01*
X149849604Y-97421093D01*
X149852178Y-97420616D01*
X149854774Y-97420274D01*
X149857383Y-97420069D01*
X149860000Y-97420000D01*
X151450000Y-97420000D01*
X151452617Y-97420069D01*
X151455226Y-97420274D01*
X151457822Y-97420616D01*
X151460396Y-97421093D01*
X151462941Y-97421704D01*
X151465451Y-97422447D01*
X151467918Y-97423321D01*
X151470337Y-97424323D01*
X151472700Y-97425450D01*
X151475000Y-97426699D01*
X151477232Y-97428066D01*
X151479389Y-97429549D01*
X151481466Y-97431143D01*
X151483457Y-97432843D01*
X151485355Y-97434645D01*
X151487157Y-97436543D01*
X151488857Y-97438534D01*
X151490451Y-97440611D01*
X151491934Y-97442768D01*
X151493301Y-97445000D01*
X151494550Y-97447300D01*
X151495677Y-97449663D01*
X151496679Y-97452082D01*
X151497553Y-97454549D01*
X151498296Y-97457059D01*
X151498907Y-97459604D01*
X151499384Y-97462178D01*
X151499726Y-97464774D01*
X151499931Y-97467383D01*
X151500000Y-97470000D01*
X151500000Y-98110000D01*
X151499931Y-98112617D01*
X151499726Y-98115226D01*
X151499384Y-98117822D01*
X151498907Y-98120396D01*
X151498296Y-98122941D01*
X151497553Y-98125451D01*
X151496679Y-98127918D01*
X151495677Y-98130337D01*
X151494550Y-98132700D01*
X151493301Y-98135000D01*
X151491934Y-98137232D01*
X151490451Y-98139389D01*
X151488857Y-98141466D01*
X151487157Y-98143457D01*
X151485355Y-98145355D01*
X151483457Y-98147157D01*
X151481466Y-98148857D01*
X151479389Y-98150451D01*
X151477232Y-98151934D01*
X151475000Y-98153301D01*
X151472700Y-98154550D01*
X151470337Y-98155677D01*
X151467918Y-98156679D01*
X151465451Y-98157553D01*
X151462941Y-98158296D01*
X151460396Y-98158907D01*
X151457822Y-98159384D01*
X151455226Y-98159726D01*
X151452617Y-98159931D01*
X151450000Y-98160000D01*
G36*
X151450000Y-99430000D02*
G01*
X149860000Y-99430000D01*
X149857383Y-99429931D01*
X149854774Y-99429726D01*
X149852178Y-99429384D01*
X149849604Y-99428907D01*
X149847059Y-99428296D01*
X149844549Y-99427553D01*
X149842082Y-99426679D01*
X149839663Y-99425677D01*
X149837300Y-99424550D01*
X149835000Y-99423301D01*
X149832768Y-99421934D01*
X149830611Y-99420451D01*
X149828534Y-99418857D01*
X149826543Y-99417157D01*
X149824645Y-99415355D01*
X149822843Y-99413457D01*
X149821143Y-99411466D01*
X149819549Y-99409389D01*
X149818066Y-99407232D01*
X149816699Y-99405000D01*
X149815450Y-99402700D01*
X149814323Y-99400337D01*
X149813321Y-99397918D01*
X149812447Y-99395451D01*
X149811704Y-99392941D01*
X149811093Y-99390396D01*
X149810616Y-99387822D01*
X149810274Y-99385226D01*
X149810069Y-99382617D01*
X149810000Y-99380000D01*
X149810000Y-98740000D01*
X149810069Y-98737383D01*
X149810274Y-98734774D01*
X149810616Y-98732178D01*
X149811093Y-98729604D01*
X149811704Y-98727059D01*
X149812447Y-98724549D01*
X149813321Y-98722082D01*
X149814323Y-98719663D01*
X149815450Y-98717300D01*
X149816699Y-98715000D01*
X149818066Y-98712768D01*
X149819549Y-98710611D01*
X149821143Y-98708534D01*
X149822843Y-98706543D01*
X149824645Y-98704645D01*
X149826543Y-98702843D01*
X149828534Y-98701143D01*
X149830611Y-98699549D01*
X149832768Y-98698066D01*
X149835000Y-98696699D01*
X149837300Y-98695450D01*
X149839663Y-98694323D01*
X149842082Y-98693321D01*
X149844549Y-98692447D01*
X149847059Y-98691704D01*
X149849604Y-98691093D01*
X149852178Y-98690616D01*
X149854774Y-98690274D01*
X149857383Y-98690069D01*
X149860000Y-98690000D01*
X151450000Y-98690000D01*
X151452617Y-98690069D01*
X151455226Y-98690274D01*
X151457822Y-98690616D01*
X151460396Y-98691093D01*
X151462941Y-98691704D01*
X151465451Y-98692447D01*
X151467918Y-98693321D01*
X151470337Y-98694323D01*
X151472700Y-98695450D01*
X151475000Y-98696699D01*
X151477232Y-98698066D01*
X151479389Y-98699549D01*
X151481466Y-98701143D01*
X151483457Y-98702843D01*
X151485355Y-98704645D01*
X151487157Y-98706543D01*
X151488857Y-98708534D01*
X151490451Y-98710611D01*
X151491934Y-98712768D01*
X151493301Y-98715000D01*
X151494550Y-98717300D01*
X151495677Y-98719663D01*
X151496679Y-98722082D01*
X151497553Y-98724549D01*
X151498296Y-98727059D01*
X151498907Y-98729604D01*
X151499384Y-98732178D01*
X151499726Y-98734774D01*
X151499931Y-98737383D01*
X151500000Y-98740000D01*
X151500000Y-99380000D01*
X151499931Y-99382617D01*
X151499726Y-99385226D01*
X151499384Y-99387822D01*
X151498907Y-99390396D01*
X151498296Y-99392941D01*
X151497553Y-99395451D01*
X151496679Y-99397918D01*
X151495677Y-99400337D01*
X151494550Y-99402700D01*
X151493301Y-99405000D01*
X151491934Y-99407232D01*
X151490451Y-99409389D01*
X151488857Y-99411466D01*
X151487157Y-99413457D01*
X151485355Y-99415355D01*
X151483457Y-99417157D01*
X151481466Y-99418857D01*
X151479389Y-99420451D01*
X151477232Y-99421934D01*
X151475000Y-99423301D01*
X151472700Y-99424550D01*
X151470337Y-99425677D01*
X151467918Y-99426679D01*
X151465451Y-99427553D01*
X151462941Y-99428296D01*
X151460396Y-99428907D01*
X151457822Y-99429384D01*
X151455226Y-99429726D01*
X151452617Y-99429931D01*
X151450000Y-99430000D01*
G37*
X151450000Y-99430000D02*
X149860000Y-99430000D01*
X149857383Y-99429931D01*
X149854774Y-99429726D01*
X149852178Y-99429384D01*
X149849604Y-99428907D01*
X149847059Y-99428296D01*
X149844549Y-99427553D01*
X149842082Y-99426679D01*
X149839663Y-99425677D01*
X149837300Y-99424550D01*
X149835000Y-99423301D01*
X149832768Y-99421934D01*
X149830611Y-99420451D01*
X149828534Y-99418857D01*
X149826543Y-99417157D01*
X149824645Y-99415355D01*
X149822843Y-99413457D01*
X149821143Y-99411466D01*
X149819549Y-99409389D01*
X149818066Y-99407232D01*
X149816699Y-99405000D01*
X149815450Y-99402700D01*
X149814323Y-99400337D01*
X149813321Y-99397918D01*
X149812447Y-99395451D01*
X149811704Y-99392941D01*
X149811093Y-99390396D01*
X149810616Y-99387822D01*
X149810274Y-99385226D01*
X149810069Y-99382617D01*
X149810000Y-99380000D01*
X149810000Y-98740000D01*
X149810069Y-98737383D01*
X149810274Y-98734774D01*
X149810616Y-98732178D01*
X149811093Y-98729604D01*
X149811704Y-98727059D01*
X149812447Y-98724549D01*
X149813321Y-98722082D01*
X149814323Y-98719663D01*
X149815450Y-98717300D01*
X149816699Y-98715000D01*
X149818066Y-98712768D01*
X149819549Y-98710611D01*
X149821143Y-98708534D01*
X149822843Y-98706543D01*
X149824645Y-98704645D01*
X149826543Y-98702843D01*
X149828534Y-98701143D01*
X149830611Y-98699549D01*
X149832768Y-98698066D01*
X149835000Y-98696699D01*
X149837300Y-98695450D01*
X149839663Y-98694323D01*
X149842082Y-98693321D01*
X149844549Y-98692447D01*
X149847059Y-98691704D01*
X149849604Y-98691093D01*
X149852178Y-98690616D01*
X149854774Y-98690274D01*
X149857383Y-98690069D01*
X149860000Y-98690000D01*
X151450000Y-98690000D01*
X151452617Y-98690069D01*
X151455226Y-98690274D01*
X151457822Y-98690616D01*
X151460396Y-98691093D01*
X151462941Y-98691704D01*
X151465451Y-98692447D01*
X151467918Y-98693321D01*
X151470337Y-98694323D01*
X151472700Y-98695450D01*
X151475000Y-98696699D01*
X151477232Y-98698066D01*
X151479389Y-98699549D01*
X151481466Y-98701143D01*
X151483457Y-98702843D01*
X151485355Y-98704645D01*
X151487157Y-98706543D01*
X151488857Y-98708534D01*
X151490451Y-98710611D01*
X151491934Y-98712768D01*
X151493301Y-98715000D01*
X151494550Y-98717300D01*
X151495677Y-98719663D01*
X151496679Y-98722082D01*
X151497553Y-98724549D01*
X151498296Y-98727059D01*
X151498907Y-98729604D01*
X151499384Y-98732178D01*
X151499726Y-98734774D01*
X151499931Y-98737383D01*
X151500000Y-98740000D01*
X151500000Y-99380000D01*
X151499931Y-99382617D01*
X151499726Y-99385226D01*
X151499384Y-99387822D01*
X151498907Y-99390396D01*
X151498296Y-99392941D01*
X151497553Y-99395451D01*
X151496679Y-99397918D01*
X151495677Y-99400337D01*
X151494550Y-99402700D01*
X151493301Y-99405000D01*
X151491934Y-99407232D01*
X151490451Y-99409389D01*
X151488857Y-99411466D01*
X151487157Y-99413457D01*
X151485355Y-99415355D01*
X151483457Y-99417157D01*
X151481466Y-99418857D01*
X151479389Y-99420451D01*
X151477232Y-99421934D01*
X151475000Y-99423301D01*
X151472700Y-99424550D01*
X151470337Y-99425677D01*
X151467918Y-99426679D01*
X151465451Y-99427553D01*
X151462941Y-99428296D01*
X151460396Y-99428907D01*
X151457822Y-99429384D01*
X151455226Y-99429726D01*
X151452617Y-99429931D01*
X151450000Y-99430000D01*
%TD*%
D11*
%TO.C,REF\u002A\u002A*%
X118110000Y-91440000D03*
%TD*%
%TO.C,REF\u002A\u002A*%
X118110000Y-115570000D03*
%TD*%
%TO.C,REF\u002A\u002A*%
X190500000Y-94615000D03*
%TD*%
D12*
%TO.C,U1*%
X148605000Y-99105000D03*
X147305000Y-99105000D03*
X148605000Y-97805000D03*
X147305000Y-97805000D03*
X148605000Y-96505000D03*
X147305000Y-96505000D03*
X148605000Y-95205000D03*
X147305000Y-95205000D03*
%TD*%
%TO.C,R6*%
G36*
G01*
X155926262Y-95358000D02*
X154969738Y-95358000D01*
G75*
G02*
X154698000Y-95086262I0J271738D01*
G01*
X154698000Y-94379738D01*
G75*
G02*
X154969738Y-94108000I271738J0D01*
G01*
X155926262Y-94108000D01*
G75*
G02*
X156198000Y-94379738I0J-271738D01*
G01*
X156198000Y-95086262D01*
G75*
G02*
X155926262Y-95358000I-271738J0D01*
G01*
G37*
G36*
G01*
X155926262Y-97408000D02*
X154969738Y-97408000D01*
G75*
G02*
X154698000Y-97136262I0J271738D01*
G01*
X154698000Y-96429738D01*
G75*
G02*
X154969738Y-96158000I271738J0D01*
G01*
X155926262Y-96158000D01*
G75*
G02*
X156198000Y-96429738I0J-271738D01*
G01*
X156198000Y-97136262D01*
G75*
G02*
X155926262Y-97408000I-271738J0D01*
G01*
G37*
%TD*%
%TO.C,R5*%
G36*
G01*
X145904000Y-87786738D02*
X145904000Y-88743262D01*
G75*
G02*
X145632262Y-89015000I-271738J0D01*
G01*
X144925738Y-89015000D01*
G75*
G02*
X144654000Y-88743262I0J271738D01*
G01*
X144654000Y-87786738D01*
G75*
G02*
X144925738Y-87515000I271738J0D01*
G01*
X145632262Y-87515000D01*
G75*
G02*
X145904000Y-87786738I0J-271738D01*
G01*
G37*
G36*
G01*
X147954000Y-87786738D02*
X147954000Y-88743262D01*
G75*
G02*
X147682262Y-89015000I-271738J0D01*
G01*
X146975738Y-89015000D01*
G75*
G02*
X146704000Y-88743262I0J271738D01*
G01*
X146704000Y-87786738D01*
G75*
G02*
X146975738Y-87515000I271738J0D01*
G01*
X147682262Y-87515000D01*
G75*
G02*
X147954000Y-87786738I0J-271738D01*
G01*
G37*
%TD*%
%TO.C,R4*%
G36*
G01*
X151492000Y-87786738D02*
X151492000Y-88743262D01*
G75*
G02*
X151220262Y-89015000I-271738J0D01*
G01*
X150513738Y-89015000D01*
G75*
G02*
X150242000Y-88743262I0J271738D01*
G01*
X150242000Y-87786738D01*
G75*
G02*
X150513738Y-87515000I271738J0D01*
G01*
X151220262Y-87515000D01*
G75*
G02*
X151492000Y-87786738I0J-271738D01*
G01*
G37*
G36*
G01*
X153542000Y-87786738D02*
X153542000Y-88743262D01*
G75*
G02*
X153270262Y-89015000I-271738J0D01*
G01*
X152563738Y-89015000D01*
G75*
G02*
X152292000Y-88743262I0J271738D01*
G01*
X152292000Y-87786738D01*
G75*
G02*
X152563738Y-87515000I271738J0D01*
G01*
X153270262Y-87515000D01*
G75*
G02*
X153542000Y-87786738I0J-271738D01*
G01*
G37*
%TD*%
%TO.C,R3*%
G36*
G01*
X145895000Y-82706738D02*
X145895000Y-83663262D01*
G75*
G02*
X145623262Y-83935000I-271738J0D01*
G01*
X144916738Y-83935000D01*
G75*
G02*
X144645000Y-83663262I0J271738D01*
G01*
X144645000Y-82706738D01*
G75*
G02*
X144916738Y-82435000I271738J0D01*
G01*
X145623262Y-82435000D01*
G75*
G02*
X145895000Y-82706738I0J-271738D01*
G01*
G37*
G36*
G01*
X147945000Y-82706738D02*
X147945000Y-83663262D01*
G75*
G02*
X147673262Y-83935000I-271738J0D01*
G01*
X146966738Y-83935000D01*
G75*
G02*
X146695000Y-83663262I0J271738D01*
G01*
X146695000Y-82706738D01*
G75*
G02*
X146966738Y-82435000I271738J0D01*
G01*
X147673262Y-82435000D01*
G75*
G02*
X147945000Y-82706738I0J-271738D01*
G01*
G37*
%TD*%
D13*
%TO.C,J8*%
X163830000Y-94670000D03*
X163830000Y-87670000D03*
D14*
X160130000Y-95970000D03*
D15*
X160130000Y-86570000D03*
X167530000Y-88570000D03*
%TD*%
D16*
%TO.C,J7*%
X140652500Y-87376000D03*
X138112500Y-87376000D03*
X135572500Y-87376000D03*
X133032500Y-87376000D03*
X130492500Y-87376000D03*
X127952500Y-87376000D03*
X125412500Y-87376000D03*
D17*
X122872500Y-87376000D03*
%TD*%
D16*
%TO.C,J6*%
X140647420Y-83332320D03*
X138107420Y-83332320D03*
X135567420Y-83332320D03*
X133027420Y-83332320D03*
X130487420Y-83332320D03*
X127947420Y-83332320D03*
X125407420Y-83332320D03*
D17*
X122867420Y-83332320D03*
%TD*%
%TO.C,C7*%
G36*
G01*
X151492000Y-82706738D02*
X151492000Y-83663262D01*
G75*
G02*
X151220262Y-83935000I-271738J0D01*
G01*
X150513738Y-83935000D01*
G75*
G02*
X150242000Y-83663262I0J271738D01*
G01*
X150242000Y-82706738D01*
G75*
G02*
X150513738Y-82435000I271738J0D01*
G01*
X151220262Y-82435000D01*
G75*
G02*
X151492000Y-82706738I0J-271738D01*
G01*
G37*
G36*
G01*
X153542000Y-82706738D02*
X153542000Y-83663262D01*
G75*
G02*
X153270262Y-83935000I-271738J0D01*
G01*
X152563738Y-83935000D01*
G75*
G02*
X152292000Y-83663262I0J271738D01*
G01*
X152292000Y-82706738D01*
G75*
G02*
X152563738Y-82435000I271738J0D01*
G01*
X153270262Y-82435000D01*
G75*
G02*
X153542000Y-82706738I0J-271738D01*
G01*
G37*
%TD*%
D18*
%TO.C,CP2*%
X195500000Y-110490000D03*
D19*
X190500000Y-110490000D03*
%TD*%
D18*
%TO.C,CP1*%
X208835000Y-110490000D03*
D19*
X203835000Y-110490000D03*
%TD*%
D16*
%TO.C,J5*%
X120650000Y-106045000D03*
X120650000Y-103505000D03*
D17*
X120650000Y-100965000D03*
%TD*%
D20*
%TO.C,Q1*%
X125730000Y-97790000D03*
X128270000Y-97790000D03*
D21*
X130810000Y-97790000D03*
D22*
X128270000Y-114450000D03*
%TD*%
%TO.C,R1*%
G36*
G01*
X131045000Y-94136738D02*
X131045000Y-95093262D01*
G75*
G02*
X130773262Y-95365000I-271738J0D01*
G01*
X130066738Y-95365000D01*
G75*
G02*
X129795000Y-95093262I0J271738D01*
G01*
X129795000Y-94136738D01*
G75*
G02*
X130066738Y-93865000I271738J0D01*
G01*
X130773262Y-93865000D01*
G75*
G02*
X131045000Y-94136738I0J-271738D01*
G01*
G37*
G36*
G01*
X133095000Y-94136738D02*
X133095000Y-95093262D01*
G75*
G02*
X132823262Y-95365000I-271738J0D01*
G01*
X132116738Y-95365000D01*
G75*
G02*
X131845000Y-95093262I0J271738D01*
G01*
X131845000Y-94136738D01*
G75*
G02*
X132116738Y-93865000I271738J0D01*
G01*
X132823262Y-93865000D01*
G75*
G02*
X133095000Y-94136738I0J-271738D01*
G01*
G37*
%TD*%
D23*
%TO.C,D5*%
X128685000Y-94615000D03*
X126585000Y-94615000D03*
%TD*%
D13*
%TO.C,J4*%
X178435000Y-94670000D03*
X178435000Y-87670000D03*
D14*
X174735000Y-95970000D03*
D15*
X174735000Y-86570000D03*
X182135000Y-88570000D03*
%TD*%
%TO.C,C6*%
G36*
G01*
X140240000Y-104296738D02*
X140240000Y-105253262D01*
G75*
G02*
X139968262Y-105525000I-271738J0D01*
G01*
X139261738Y-105525000D01*
G75*
G02*
X138990000Y-105253262I0J271738D01*
G01*
X138990000Y-104296738D01*
G75*
G02*
X139261738Y-104025000I271738J0D01*
G01*
X139968262Y-104025000D01*
G75*
G02*
X140240000Y-104296738I0J-271738D01*
G01*
G37*
G36*
G01*
X142290000Y-104296738D02*
X142290000Y-105253262D01*
G75*
G02*
X142018262Y-105525000I-271738J0D01*
G01*
X141311738Y-105525000D01*
G75*
G02*
X141040000Y-105253262I0J271738D01*
G01*
X141040000Y-104296738D01*
G75*
G02*
X141311738Y-104025000I271738J0D01*
G01*
X142018262Y-104025000D01*
G75*
G02*
X142290000Y-104296738I0J-271738D01*
G01*
G37*
%TD*%
%TO.C,C5*%
G36*
G01*
X137315000Y-105253262D02*
X137315000Y-104296738D01*
G75*
G02*
X137586738Y-104025000I271738J0D01*
G01*
X138293262Y-104025000D01*
G75*
G02*
X138565000Y-104296738I0J-271738D01*
G01*
X138565000Y-105253262D01*
G75*
G02*
X138293262Y-105525000I-271738J0D01*
G01*
X137586738Y-105525000D01*
G75*
G02*
X137315000Y-105253262I0J271738D01*
G01*
G37*
G36*
G01*
X135265000Y-105253262D02*
X135265000Y-104296738D01*
G75*
G02*
X135536738Y-104025000I271738J0D01*
G01*
X136243262Y-104025000D01*
G75*
G02*
X136515000Y-104296738I0J-271738D01*
G01*
X136515000Y-105253262D01*
G75*
G02*
X136243262Y-105525000I-271738J0D01*
G01*
X135536738Y-105525000D01*
G75*
G02*
X135265000Y-105253262I0J271738D01*
G01*
G37*
%TD*%
D24*
%TO.C,U2*%
X179590000Y-111125000D03*
D25*
X170440000Y-113665000D03*
X170440000Y-111125000D03*
X170440000Y-108585000D03*
%TD*%
D26*
%TO.C,RV2*%
X154555000Y-116140000D03*
X154555000Y-104840000D03*
D27*
X162555000Y-112990000D03*
X162555000Y-107990000D03*
X146055000Y-112990000D03*
X146055000Y-110490000D03*
X146055000Y-107990000D03*
%TD*%
%TO.C,R2*%
G36*
G01*
X169945000Y-104618262D02*
X169945000Y-103661738D01*
G75*
G02*
X170216738Y-103390000I271738J0D01*
G01*
X170923262Y-103390000D01*
G75*
G02*
X171195000Y-103661738I0J-271738D01*
G01*
X171195000Y-104618262D01*
G75*
G02*
X170923262Y-104890000I-271738J0D01*
G01*
X170216738Y-104890000D01*
G75*
G02*
X169945000Y-104618262I0J271738D01*
G01*
G37*
G36*
G01*
X167895000Y-104618262D02*
X167895000Y-103661738D01*
G75*
G02*
X168166738Y-103390000I271738J0D01*
G01*
X168873262Y-103390000D01*
G75*
G02*
X169145000Y-103661738I0J-271738D01*
G01*
X169145000Y-104618262D01*
G75*
G02*
X168873262Y-104890000I-271738J0D01*
G01*
X168166738Y-104890000D01*
G75*
G02*
X167895000Y-104618262I0J271738D01*
G01*
G37*
%TD*%
D28*
%TO.C,J3*%
X207010000Y-100330000D03*
X207010000Y-95250000D03*
D29*
X207010000Y-90170000D03*
%TD*%
D16*
%TO.C,J2*%
X140970000Y-115570000D03*
X138430000Y-115570000D03*
D17*
X135890000Y-115570000D03*
%TD*%
D16*
%TO.C,J1*%
X140970000Y-91440000D03*
X138430000Y-91440000D03*
D17*
X135890000Y-91440000D03*
%TD*%
D30*
%TO.C,D4*%
X198300000Y-99060000D03*
X195400000Y-99060000D03*
%TD*%
%TO.C,D3*%
X198300000Y-88900000D03*
X195400000Y-88900000D03*
%TD*%
%TO.C,D2*%
X195400000Y-101600000D03*
X198300000Y-101600000D03*
%TD*%
%TO.C,D1*%
X195400000Y-91440000D03*
X198300000Y-91440000D03*
%TD*%
D31*
%TO.C,C4*%
X190460000Y-88265000D03*
D32*
X187960000Y-88265000D03*
%TD*%
%TO.C,C3*%
G36*
G01*
X196058262Y-94850000D02*
X195101738Y-94850000D01*
G75*
G02*
X194830000Y-94578262I0J271738D01*
G01*
X194830000Y-93871738D01*
G75*
G02*
X195101738Y-93600000I271738J0D01*
G01*
X196058262Y-93600000D01*
G75*
G02*
X196330000Y-93871738I0J-271738D01*
G01*
X196330000Y-94578262D01*
G75*
G02*
X196058262Y-94850000I-271738J0D01*
G01*
G37*
G36*
G01*
X196058262Y-96900000D02*
X195101738Y-96900000D01*
G75*
G02*
X194830000Y-96628262I0J271738D01*
G01*
X194830000Y-95921738D01*
G75*
G02*
X195101738Y-95650000I271738J0D01*
G01*
X196058262Y-95650000D01*
G75*
G02*
X196330000Y-95921738I0J-271738D01*
G01*
X196330000Y-96628262D01*
G75*
G02*
X196058262Y-96900000I-271738J0D01*
G01*
G37*
%TD*%
D31*
%TO.C,C2*%
X190460000Y-100965000D03*
D32*
X187960000Y-100965000D03*
%TD*%
%TO.C,C1*%
G36*
G01*
X198598262Y-94850000D02*
X197641738Y-94850000D01*
G75*
G02*
X197370000Y-94578262I0J271738D01*
G01*
X197370000Y-93871738D01*
G75*
G02*
X197641738Y-93600000I271738J0D01*
G01*
X198598262Y-93600000D01*
G75*
G02*
X198870000Y-93871738I0J-271738D01*
G01*
X198870000Y-94578262D01*
G75*
G02*
X198598262Y-94850000I-271738J0D01*
G01*
G37*
G36*
G01*
X198598262Y-96900000D02*
X197641738Y-96900000D01*
G75*
G02*
X197370000Y-96628262I0J271738D01*
G01*
X197370000Y-95921738D01*
G75*
G02*
X197641738Y-95650000I271738J0D01*
G01*
X198598262Y-95650000D01*
G75*
G02*
X198870000Y-95921738I0J-271738D01*
G01*
X198870000Y-96628262D01*
G75*
G02*
X198598262Y-96900000I-271738J0D01*
G01*
G37*
%TD*%
M02*
